<?xml version="1.0" encoding="UTF-8"?>
<svg id="_Слой_1" data-name="Слой 1" xmlns="http://www.w3.org/2000/svg" xmlns:xlink="http://www.w3.org/1999/xlink" version="1.1" viewBox="0 0 170 170">
  <defs>
    <style>
      .cls-1 {
        fill: url(#_Безымянный_градиент_5);
      }

      .cls-1, .cls-2 {
        stroke-width: 0px;
      }

      .cls-2 {
        fill: #302d27;
      }

      .cls-3 {
        fill: #fc0;
        stroke: #302d27;
        stroke-miterlimit: 10;
      }
    </style>
    <radialGradient id="_Безымянный_градиент_5" data-name="Безымянный градиент 5" cx="85" cy="86" fx="85" fy="86" r="77.2" gradientUnits="userSpaceOnUse">
      <stop offset=".4" stop-color="#8f5426"/>
      <stop offset=".7" stop-color="#8c5326"/>
      <stop offset=".8" stop-color="#844f27"/>
      <stop offset=".9" stop-color="#764a28"/>
      <stop offset=".9" stop-color="#63432a"/>
      <stop offset="1" stop-color="#4a392d"/>
      <stop offset="1" stop-color="#49392e"/>
    </radialGradient>
  </defs>
  <circle class="cls-1" cx="85" cy="86" r="77.2"/>
  <path class="cls-2" d="M71.4,38.2c4.7.7,7.6,2.4,12.1,5.6,7.4,5.1,14.2,15.8,16,24.6s.7,4.6.7,7.1c-.1,2.6,1.3,5.5,4.2,4,3.4-2.2-1.4-7.9.3-11.4,6.9,2.6,11.7,9.2,13.7,11.9,8.2,13.4,8.1,29.2-2.8,40.6-5,5.7-11.6,9.4-19,11.2-22.1,4-28.7-1.9-37.4-12.9-10.4-12.5-10.6-31.8-.5-44.5,3.6-4.8,8.6-7.8,12.5-12.3,2.7-3.1,4.8-6.8,6.1-10.6,1.3-3.8-6-9.2-5.9-13.1Z"/>
  <path class="cls-3" d="M71.8,38.9c6.5,3.3,11.8,8.4,15.4,14.7,3.8,6.6,6.5,13.7,6.4,21.4-.1,2.6,1.3,5.5,4.2,4,3.4-2.2,5.5-6.7,7.1-10.3,4,1.4,6.1,5.1,8.3,8.4,8.2,13.4,6.6,31.6-4.3,43-5,5.7-11.6,9.4-19,11.2-13.6,3.4-28.7-1.9-37.4-12.9-10.4-12.5-10.6-31.8-.5-44.5,3.6-4.8,8.6-7.8,12.5-12.3,2.7-3.1,4.8-6.8,6.1-10.6,1.3-3.8,1-8.1,1.2-12Z"/>
</svg>