<?xml version="1.0" encoding="UTF-8"?>
<svg id="_Слой_1" data-name="Слой 1" xmlns="http://www.w3.org/2000/svg" version="1.1" viewBox="0 0 120 120">
  <defs>
    <style>
      .cls-1 {
        fill: #ff6a6c;
      }

      .cls-1, .cls-2, .cls-3, .cls-4, .cls-5, .cls-6, .cls-7, .cls-8 {
        stroke-width: 0px;
      }

      .cls-2 {
        fill: #51ccf6;
      }

      .cls-3 {
        fill: #feffff;
      }

      .cls-4 {
        fill: #00eeae;
      }

      .cls-5 {
        fill: #ffb600;
      }

      .cls-6 {
        fill: #fffffe;
      }

      .cls-7 {
        fill: #383654;
      }

      .cls-8 {
        fill: #fff;
      }
    </style>
  </defs>
  <g id="_Слой_1-2" data-name=" Слой 1">
    <path id="p1" class="cls-7" d="M61.7,2c4.2,0,9.7-.4,13.4,1.8,2,2,2.8,5.2,4,7.9,1.9,1.5,5.1,2.9,5.4,5.6.5,3.5.8,7.5-.5,10.9-1.7,1.3-3.8,2-5.8,2.8,0,3.8-.5,7.9.4,11.6,3.7,4.2,9.6,6.3,13.4,10.5,4.6,4.6,5.6,10.9,5.8,17.1v34.5c0,11.9-6,12.5-12,12.9-6,.4-11.3.4-13.9.4-.8-8.4,19.2-40.3,19.4-48.7,0-3.8-.3-7.4-2.6-10.6-3.7-5.1-10.2-7.4-14.8-11.3-1.7-1.4-1.8-3.3-2-5.4-.4-4-.1-7.9-.1-11.9-7.2,0-14.5-.3-21.6.6-.1,1.7-.3,3.3-.3,5-.1,3.2.5,8.1-1.7,10.7-4.2,4.5-11.3,6.9-15.2,12-2.3,2.9-2.7,7.2-2.8,10.7,0,2.8,0,5.5.1,8.2,0,5.9.1,11.9,0,17.8,0,4.3-.6,10.6,2.2,14.1,2.7,2.4,7.8,1.9,11.1,2,10.1-.1,20.3,0,30.4-.1.6,2.3,1.4,4.5,2.3,6.5h-36.1c-5.2,0-10.4-1.5-13.6-6-3.1-4.3-2.8-9.6-2.8-14.6.3-9.9,0-19.6,0-29.4s1.4-9.9,4.7-13.7c4.1-4.6,9.7-8.1,14.8-11.5,0-4,0-7.9-.1-11.9-1.9-.9-4-1.7-5.6-2.8-1.4-3.8-1.2-8.7-.4-12.8,1.4-1.7,3.3-2.6,5.2-3.7,1.2-2.6,2-6.9,4.7-8.3,4.3-1.8,10-1.2,14.6-1.3h-.1ZM49.1,12.5c5.2.3,10.6.4,15.9.3,2.6,0,5.1-.5,7.8-.8-2-1.8-3.3-3.7-6.3-3.6-4.7,0-9.5-.4-14.2.3-2.3,0-2.2,2.2-3.2,3.8ZM43.1,18.7c-.4,1.5-.8,3.2-1,4.9,2.3.3,4.5.5,6.8.6,7.5.5,14.8-.6,22.4-.5h8.4c-.5-1.8-1.5-3.3-2.3-5-1.8-.4-3.6-.5-5.4-.5-7.9.4-15.7-.6-23.7-.1-1.7.1-3.5.4-5.1.6h-.1Z"/>
    <path id="p2" class="cls-5" d="M52.3,8.5c4.6-.6,9.5-.4,14.2-.3-.5,1.4-1,2.9-1.4,4.3-5.2.3-10.6,0-15.9-.3,1-1.7.9-3.8,3.2-3.8h-.1Z"/>
    <path id="p3" class="cls-1" d="M66.4,8.3c2.9,0,4.3,1.8,6.3,3.6-2.6.3-5.1.6-7.8.8.4-1.4.9-2.9,1.4-4.3h.1Z"/>
    <path id="p4" class="cls-5" d="M106.4,14.9c1.8,6.3,4.5,9,10,9.6-5.8,1.8-8.1,3.7-9.7,9.9-.9-6.5-3.6-9-10.1-9.9,6.1-.6,8.8-3.3,9.9-9.6Z"/>
    <path id="p5" class="cls-6" d="M48.2,18.2c.1,2,.4,4.1.6,6.1-2.3,0-4.5-.4-6.8-.6.3-1.7.6-3.2,1-4.9,1.7-.3,3.5-.4,5.1-.6Z"/>
    <path id="p6" class="cls-4" d="M48.2,18.2c7.9-.5,15.7.5,23.7.1-.3,1.8-.5,3.7-.8,5.5-7.5-.3-14.8.9-22.4.5-.3-2-.4-4.1-.6-6.1h.1Z"/>
    <path id="p7" class="cls-2" d="M71.9,18.4c1.8,0,3.6.1,5.4.5.8,1.7,1.9,3.1,2.3,5h-8.4c.3-1.8.5-3.7.8-5.5Z"/>
    <path id="p8" class="cls-2" d="M49.9,30.8c7-1,14.5-.6,21.6-.6,0,4-.1,7.9.1,11.9.3,2,.4,4,2,5.4,4.6,3.8,11.1,6.1,14.8,11.3,2.3,3.2,2.6,6.8,2.6,10.6-2,0-4-.3-6-.4-.6-1.8-1.3-3.7-1.9-5.5-2.9-4-6.8-6.7-11-9.1-2.4-1.5-5.9-3.3-6.5-6.4-1-4-.9-8.3-1-12.4h-9.5c-1.9,0-3.7.1-5.6.3,0-1.7,0-3.3.3-5h.1Z"/>
    <path id="p9" class="cls-6" d="M49.8,35.9c1.9,0,3.7-.1,5.6-.3,0,4.2.4,8.6-.4,12.7-.4,1.9-2.6,3.5-4,4.6-4.9,3.6-10.9,6.1-13.8,11.8-.6,1.7-1.2,3.3-1.8,4.9h-5.4c.1-3.7.5-7.8,2.8-10.7,4-5.2,11-7.7,15.2-12,2.2-2.7,1.4-7.5,1.7-10.7h0Z"/>
    <path id="p10" class="cls-4" d="M55.3,35.6h9.5c.1,4.1,0,8.4,1,12.4.6,3.1,4.1,4.9,6.5,6.4,4.2,2.4,8.1,5.1,11,9.1-3.5-.4-6.8,0-10.2.5-3.2.5-6-.4-9.2-.6s-6.3.9-9.3.9c-3.5-.6-6.5-2.6-9.9-3.5-2.7,1-5,2.4-7.4,4,2.9-5.6,9-8.2,13.8-11.8,1.4-1.2,3.6-2.7,4-4.6.8-4.1.4-8.6.4-12.7h-.1Z"/>
    <path id="p11" class="cls-1" d="M44.7,60.7c3.3,1,6.5,2.8,9.9,3.5,3.1,0,6.1-1.2,9.3-.9,3.2.3,6,1.2,9.2.6,3.5-.5,6.8-.9,10.2-.5.6,1.8,1.3,3.6,1.9,5.5,2,0,4,.3,6,.4-.3,8.4,1,22.5,0,30.8-2,0-6.5,1-8.7,1.2-.4-6.5,2.8-19.8,1.8-26.4-.5-2.7-1.5-4.6-4.5-5.1-6.1-1.3-12.9-.4-19.2-.5-6.4.1-13-.6-19.3.4-3.6.6-4.9,4.2-6,7.2-1.8.3-3.5.6-5.2.9,0-2.7-.1-5.5-.1-8.2h5.4c.5-1.7,1.2-3.3,1.8-4.9,2.4-1.4,4.9-2.8,7.4-4h.1Z"/>
    <path id="p13" class="cls-6" d="M60.8,75.7c5.2,0,10.9-.5,16.1.4,2.3.1,2.7,3.6,2.8,5.4.3,3.8.5,8.2-.6,11.9-.9,2.8-3.8,2.4-6.3,2.7-6.9.1-13.8,0-20.7,0s-7.2.1-9.9-1.7c-1.3-5.5-1.5-12.2.4-17.5,5.4-2.3,12.5-.9,18.3-1.3h-.1ZM66.4,85.7c1.8,2,3.6,4.1,5.5,6.1,1.8-2.2,3.6-4.5,5.4-6.5-1.9-1.7-3.8-3.5-6-4.6-1.8,1.4-3.3,3.3-4.9,5.1h0ZM54.4,90.9c1.2.6,2.2,1.3,3.3,1.9,2.4-2.6,4.9-5,7.3-7.5-1.2-.8-2.3-1.7-3.5-2.4-2.7,2.4-4.9,5.2-7.3,7.9h.1Z"/>
    <path id="p14" class="cls-6" d="M30.2,77.7c1.8-.4,3.5-.6,5.2-.9-.1,6.1-.1,12.4,0,18.6-1.8,0-3.6.3-5.4.3.3-5.9.1-11.9,0-17.8h.1Z"/>
    <path id="p15" class="cls-1" d="M71.3,80.7c2.2,1.2,4.1,3.1,6,4.6-1.8,2.2-3.6,4.3-5.4,6.5-1.8-2-3.7-4.1-5.5-6.1,1.5-1.8,3.1-3.6,4.9-5.1h0Z"/>
    <path id="p16" class="cls-1" d="M61.5,83c1.2.8,2.3,1.5,3.5,2.4-2.4,2.6-4.9,5-7.3,7.5-1.2-.6-2.2-1.3-3.3-1.9,2.3-2.7,4.6-5.5,7.3-7.9h-.1Z"/>
    <path id="p17" class="cls-1" d="M30.1,95.5c1.8,0,3.6-.3,5.4-.3,1.2,2.2,2.6,5.4,5.1,6,3.7.9,7.8.6,11.5.6,7.4-.1,31.7-1.9,39.1-1.8-.1,1.4-.1,3.2,0,5.1,0,3.6-2.8,6.5-6.4,6.5-12.5,0-32.9-.3-41.3,0-3.3-.1-8.4.3-11.1-2-2.8-3.6-2.3-9.9-2.2-14.1h-.1Z"/>
    <path id="p12" class="cls-5" d="M74.5,101.9h-22.4c-7.5,0-7,.4-11.5-.6-2.6-.6-4-4-5.1-6-.1-6.1-.1-12.4,0-18.6,1.3-2.9,2.6-6.5,6-7.2,6.3-1,12.9-.3,19.3-.4,6.3,0,12.9-.6,19.2.5,1,.3,1.9.6,2.6,1.2,1.3,1.2,1.7,2.8,1.9,4,.5,3.2.8,9.9.8,19.7s0,7.4-10.6,7.2v.3ZM60.8,75.7c-5.8.3-12.9-1-18.3,1.3-1.9,5.4-1.5,12-.4,17.5,2.7,1.8,6.8,1.5,9.9,1.7,6.9-.1,13.8,0,20.7,0,2.4-.3,5.4,0,6.3-2.7,1.3-3.7.9-8.1.6-11.9-.3-1.8-.6-5.1-2.8-5.4-5.2-.9-10.7-.3-16.1-.4h.1Z"/>
  </g>
  <path id="p75" class="cls-7" d="M78.2,68.8c.1,10.8.4,21.7-.1,32.3-.5,10.8-1.3,7.1-3.4,10-2.1,2.9,0,0,0,0-1.6,2.3-4.1,3.5-6.7,3.5h-7.2c-4.6-.1-8.7-3.3-9.9-7.9-1.7-6.8,1.3-14.2-3.4-19.4-4.7-5.2-.4-.4-.7-.5-6.7-3.5-10.7-5.9-9.1-12s1.3-2.9,2.6-3.9c5.7-4.1,11.3-8.1,17-12.1,8.4-6.3,22.2,1.6,21.2,9.8h-.3ZM65.5,62.1h-2.2c0,.1-.4.1-.5.4-7,2.3-13.7,9.6-19.3,13.8-5.7,4.3,0,0,0,0h.1c-1.1.9-.9,2.7.4,3.3,2.6,1.3,5.1,2.9,7.5,4.5s.7.9.9,1.3c1.2,5.6,1.7,11.3,3.6,16.6l.5,1.9c0,5.6,11.3,10.9,14.6,4.1,2.4-8.6,1.3-18.4,2.2-27.1.5-5.9-.7-11.4-2.9-17.2"/>
  <path id="p76" class="cls-3" d="M65.4,62l4.6.9c-10.4,4.5-14.9,11.7-26.7,12.9,5.7-4.4,13-11.4,20-13.7"/>
  <path id="p78" class="cls-8" d="M69.6,62.9h.4c3.3,5.7,3.9,11.8,3.4,17.9-.7,8.8.3,18.7-2.4,27.4-3.6,9-14.9,1.3-14.7-4.4l-.5-1.9c-1.7-4.8-1.3-8.5-3.6-13.4s-2.4-4.4-2.4-4.4c-1.6-1.1-4.2-3.2-6.2-4.3s-1.6-2.9-.4-4h0c11.8-1.2,14.4-8.5,24.7-13.1l1.4.3h.3Z"/>
</svg>