<?xml version="1.0" encoding="UTF-8"?>
<svg id="_Слой_1" data-name="Слой 1" xmlns="http://www.w3.org/2000/svg" version="1.1" viewBox="0 0 120 120">
  <defs>
    <style>
      .cls-1 {
        fill: #f07740;
      }

      .cls-1, .cls-2, .cls-3, .cls-4, .cls-5, .cls-6, .cls-7 {
        stroke-width: 0px;
      }

      .cls-2 {
        fill: #1a636e;
      }

      .cls-3 {
        fill: #00a5bb;
      }

      .cls-4 {
        fill: #80c8c2;
      }

      .cls-5 {
        fill: #ffc253;
      }

      .cls-6 {
        fill: #fff;
      }

      .cls-7 {
        fill: #002031;
      }
    </style>
  </defs>
  <path id="p1" class="cls-7" d="M50.3,10.3c5.8-.5,11.8-.1,17.6-.2,2.2-.3,3.5,1.9,4.7,3.4.3,2.7-.8,5.6-1,8.4,1.8.4,5-.3,5.9,1.6,1.7,2.2,2,5.2.4,7.6-.8,1.7-3.4,2.2-5,3.1,0,1.3,0,2.7,0,4,5.9,0,11.3.9,16.9-1.1,3.8-1.5,8.5,2,8.2,6,.4,3.6-2.8,5.3-2.3,8.9,0,2.2,0,2.4,2.1,3.3,2.8,1,3.9,3.3,5.4,5.6.9-.2,1.9-.3,2.8-.4,2.6-.2,4.3,2.9,3.7,5.1-1.5,2.6-3.6,3.1-6.3,3.8-1.7,1.3-2.4,3.4-4.5,4.4-1,.7-2.6,1.2-3.2,2.3-.1,1.4.7,2.6,1.2,3.8,1.5-.3,3.1-.8,4.6-.7,2.4,1.8,2.9,3.4,2.2,6.3-2.4,2.5-5.5,4.3-8.3,6.4,1.1,2,2.6,3.9,3.4,6.1-.3,2.7-2,5.1-4.3,6.6-2.4.8-5.5-.4-8-.1-5.4.4-10.9,0-16.3.3-1.7,3.9-5.2,5.4-7.8,8.5-1.2,1-2.4,2.2-4,1.3-1.5-1.3-2.5-2.9-4.1-4-1.2-.9-2.4-1.4-3.1-2.8-1-1.3-1.2-3.2-3.2-3.1-4.7-.1-9.3,0-14,0-3.1,0-5.7.9-8.6,0-1.9-1.5-4.2-4.1-4.2-6.7.6-2.2,2.2-4.2,3.4-6.1-2.4-1.7-4.9-3.5-7.2-5.3-2.7-1.9-1.4-6.9,1.8-7.5,1.3.2,2.6.6,3.9.9.6-1.3,1.4-2.4,1.2-3.9-.6-1.1-2.2-1.6-3.2-2.3-2.1-1-2.8-3-4.5-4.4-1.9-.8-5.4-.8-5.9-3.1-1.7-2.9.9-5.2,3.3-6.4.9.6,1.8,1.3,2.8,1.9.6-1.7,1-3.7,2.1-5.1,1.5-1.2,3.6-1.6,5.3-2.2,0-1.5.2-3,0-4.5-.6-2.2-2.1-4-2.6-6.3,0-2.4.8-4,2.6-5.6,1.4-1.9,4.5-1.2,6.5-.9,5.4,1.5,10.9,1,16.5.7-.5-1.4-.7-3.2-1.6-4.5-1.4-.9-4.4-1.7-4.5-3.7-.1-2-.7-5.2,1.2-6.5,1.3-1.6,4.1-1.1,6-1.5-.4-2.5-1.1-5-1.2-7.6.6-1.6,2-2.9,3.3-4ZM52.3,21.8l1.7.3c2.3,0,4.6,0,6.9,0,2.1,0,4.1-.2,6.2-.3h.8c.8-1.9,1.2-3.8,1.4-5.7-.5-1.4-.3-2.4-2.1-2.7-.9,0-1.9,0-2.8,0-4,.1-8,0-12.1.1l-1.4,1c0,2.5.8,5.1,1.4,7.4ZM44,28.7c.6.6,1.2,1.1,1.8,1.6,4.2.8,8.8.4,13.2.4,4.6,0,9.3.1,13.8-.4,1.8-.2,3.4-1.2,3.2-3.2-.3-2-2-2.1-3.6-2.1-7.5,0-15.1,0-22.6.2h-.8c-1.5,0-3,0-4.5.2-.2,1.1-.3,2.1-.4,3.2ZM50.3,33.2c0,3.2,0,6.4-.2,9.6-5.6-.2-11.2,0-16.9,0-.7-1-1.4-2-2.1-3-.5,1.4-1,2.7-1.4,4.1-1.7-.2-3.5-.4-5.2-.6,1.1,1.1,2.2,2.1,3.3,3.1,0,4.1,0,8.2,0,12.3-1.7-.3-3.8-1-5.4-.5-1.2,1-1.7,2.7-2.4,4.1,3.3.5,6.1.5,7.6,4,.3,4.3.4,8.9-.1,13.1-1.7,1.6-3.4,3.5-5.5,4.6-1.2,0-2.4-.2-3.6-.4,1.9,1.5,4,2.7,6,4.1.4-2.7,1.1-4.5,2.8-6.7,1.6,4.4.4,9.5.5,14.3-1.3.7-2.3,1.3-3.1,2.6,1.6-.4,3.1-.9,4.6-1.4.8,1.3,1.5,2.7,2.2,4.1l1.4.2c5.2.2,10.5.1,15.6-.2.9.3,1.8.6,2.7,1,.5.8,1.1,1.4,1.8,1.9.8,1.4,1.3,3.8,3.2,3.8,2.3,0,4.5-.2,6.8,0,1.2.2,2.1-1,3-1.7,1.2-1.1,1.9-2.8,2.7-4.2l1.6-1.2c5.6-.2,11.3-.3,16.9.2h1.3c.7-1.2,1.4-2.6,2.2-3.9,1.5.5,3,1.1,4.6,1.5-.9-.9-1.9-1.8-2.9-2.7-.1-.8-.3-1.6-.4-2.4,0-3.9.2-7.7.6-11.6,1.8,1.6,2.3,2.9,2.7,5.2-2.3,1-1.2,3.8.6,1.4,1.4-2,3.5-3,5.5-4.4-1.3,0-2.8.5-4.1.1-1.7-1.3-3.2-2.8-4.8-4.2-.3-5.5-1.2-10.7,1.2-15.8,2-.5,4.1-1,6.2-1.2-.7-1.4-1.1-3.3-2.3-4.3-1.9-.8-3.6.2-5.3.8.2-3.6.1-7.1-.7-10.6.8-2.1,2.3-3.7,3.8-5.4-1.5.3-3,.7-4.6,1l-.8-1.5-.3-.5c-.4-.8-.9-1.6-1.3-2.3-.4,1-.8,2-1.2,3-5.6-.2-11.2,0-16.9.1,0-3.3,0-6.6-.2-10-.6.5-1.3,1-1.9,1.6-.7-.5-1.4-1-2-1.5-.2,2-.3,4-.4,6-.4-2,0-5.6-2.4-6.2-4.2-.8-8.6-.6-12.9-.4v.7ZM27.3,39.2c-1.9.6-1.1,3.2.7,3,1.8-.8,1.4-3.4-.7-3ZM91.2,39.5c-.6.8-.6,1.5,0,2.3,1.3,1.2,3.4-1,2.2-2.3-.7-.5-1.4-.5-2.1,0ZM14.1,66.1c1.5,1.9,3.2,1.2,4.8,0l1.6.3c.6,1.6.6,4,2,5.1,1.1.3,2.2.6,3.3.7-1.3-1.2-3.7-2.1-3.7-4.1.4-1.1,1.1-2.2,1.7-3.2-1.7-.1-3.4-.4-5.1-.3h-.6c-1.8.2-3.5.1-5.3,0,.4.5.8,1,1.3,1.5ZM96.2,64.9c.5,1.4,1,2.8,1.4,4.3-1.1,1.1-2.3,2.1-3.4,3.2,1.1-.5,2.3-1,3.3-1.7.8-1.4,1.3-2.9,1.8-4.4,3.1.2,5.4.5,8-1.4-3.8.2-7.5-.2-11.2,0ZM24.1,67.5c-.5.8-.2,1.4.9,1.7,1.9-.3.6-2.7-.9-1.7ZM94.2,67.4c-.6,1-.3,1.7.8,2,2.1-.4.9-3.1-.8-2ZM28.2,99.3c-1.1.1-2.4,1.5-1.7,2.6,1.7,1.4,3.8-1.9,1.7-2.6ZM91.2,99.6c-.9,1.2.3,3.1,1.7,2.3,1.1-1.1-.4-3.1-1.7-2.3Z"/>
  <path id="p2" class="cls-6" d="M52.3,13.3c4-.2,8,0,12.1-.1-.6.6-1.2,1.2-1.8,1.8-3.5.2-7,.2-10.4.9.6,2.1,1.2,4.2,1.9,6.2l-1.7-.3c-.7-2.4-1.5-4.9-1.4-7.4l1.4-1Z"/>
  <path id="p3" class="cls-1" d="M64.3,13.2c.9,0,1.9,0,2.8,0-3.1,2.5-5.2,4.8-6.3,8.8-2.3,0-4.6.1-6.9,0-.6-2.1-1.3-4.2-1.9-6.2,3.5-.7,6.9-.7,10.4-.9.6-.6,1.2-1.2,1.8-1.8Z"/>
  <path id="p4" class="cls-1" d="M67.1,13.2c1.7.3,1.5,1.4,2.1,2.7-1,.4-2,.7-3,1.1.3,1.6.6,3.1.8,4.7-2.1.1-4.1.2-6.2.3,1-4,3.2-6.3,6.3-8.8ZM65.2,19.3v.5h.5v-.5h-.5Z"/>
  <path id="p5" class="cls-2" d="M69.2,15.9c-.2,2-.5,3.9-1.4,5.7h-.8c-.3-1.5-.6-3-.8-4.6,1-.4,2-.7,3-1.1Z"/>
  <path id="p6" class="cls-7" d="M65.2,19.3h.5v.5h-.5v-.5Z"/>
  <path id="p7" class="cls-1" d="M32.7,21c1.7,3.9,3.1,5.5,6.6,7.9-3.3,1.9-4.8,3.9-6.7,7.1-1.9-3.6-3.2-5.2-6.9-7.1,3.3-2.2,5-4.7,6.9-8ZM29,29.1c1.2,1.2,2.4,2.4,3.7,3.6.3-.7.5-1.5.8-2.2,1.1-.6,2.2-1.3,3.2-1.9-1.1-.9-2.3-1.8-3.5-2.6l-1.1-.7c-1.1,1.2-2.1,2.6-3.1,3.8Z"/>
  <path id="p8" class="cls-5" d="M87.8,20.9c.9,1.9,1.8,3.8,2.5,5.8,0,.7.1,1.4.2,2.1-1.2.9-2.4,1.9-3.7,2.8-1.3-.5-2.7-.9-4-1.4-.7-.4-1.4-.7-2.1-1.1,3-2.3,4.9-5.2,7-8.2ZM83.9,29c.9,0,1.9,0,2.8-.1.4-1.3.8-2.5,1.2-3.8-1.4,1.2-2.7,2.6-4,3.9Z"/>
  <path id="p9" class="cls-6" d="M32.2,25.3l1.1.7c-.2.9-.4,1.8-.5,2.7-1.2.1-2.5.3-3.7.4,1-1.3,2-2.6,3.1-3.8Z"/>
  <path id="p10" class="cls-4" d="M44.5,25.5c1.5-.2,3-.2,4.5-.2-1.5.6-3,1.4-4.4,2.2,3.4,1.1,6-.3,9.4-.5,4.9-.3,9.9,0,14.8,0v-.8c-6.2-.3-13,.9-19-.8,7.5-.3,15.1-.2,22.6-.2-1.2,2.4-1.2,4.7-4.5,5-7.3.6-14.7-.1-22.1.3-.6-.5-1.2-1.1-1.8-1.6,0-1.1.2-2.2.4-3.2Z"/>
  <path id="p11" class="cls-6" d="M49,25.3h.8c6,1.8,12.8.5,19,.8v.8c-4.9,0-9.9-.2-14.8,0-3.4.2-6.1,1.6-9.4.5,1.4-.8,2.9-1.6,4.4-2.2Z"/>
  <path id="p12" class="cls-2" d="M72.4,25.1c1.6,0,3.3.1,3.6,2.1.2,2-1.4,3-3.2,3.2-4.6.6-9.2.4-13.8.4-4.3,0-8.9.4-13.2-.4,7.4-.4,14.8.3,22.1-.3,3.2-.3,3.3-2.6,4.5-5Z"/>
  <path id="p13" class="cls-6" d="M88,25c-.4,1.3-.8,2.5-1.2,3.8-.9,0-1.9,0-2.8.1,1.3-1.4,2.6-2.7,4-3.9Z"/>
  <path id="p14" class="cls-5" d="M33.3,26c1.2.8,2.3,1.7,3.5,2.6-1.1.6-2.1,1.3-3.2,1.9-.3.7-.5,1.5-.8,2.2-1.2-1.2-2.4-2.4-3.7-3.6,1.2-.1,2.5-.3,3.7-.4.2-.9.4-1.8.5-2.7Z"/>
  <path id="p15" class="cls-1" d="M90.3,26.7c1.4.6,2.8,1.4,4.2,2.1-3,1.8-5.3,3.7-7.4,6.4-1.3-1.7-2.7-3.5-4.2-5.1,1.3.5,2.7,1,4,1.4,1.2-.9,2.4-1.9,3.7-2.8,0-.7-.1-1.4-.2-2.1Z"/>
  <path id="p16" class="cls-3" d="M50.4,32.5c4.2-.2,8.7-.4,12.9.4,2.4.6,1.9,4.2,2.4,6.2.1-2,.2-4,.4-6,.7.5,1.4,1,2,1.5.6-.5,1.3-1,1.9-1.6,0,3.3,0,6.6.2,10,5.6-.2,11.2-.4,16.9-.1.3.6.6,1.2.8,1.8,1.6,3.2,2.8,5.7,2.7,9.4.2-1.6.4-3.2.6-4.7l.4-.8c.8,3.5.9,7,.7,10.6v1.7c0,.8.3,1.5.5,2.3l1,.7c-2.4,5.1-1.5,10.4-1.2,15.8,0,.6,0,1.2.1,1.9-.4,3.9-.6,7.7-.6,11.6-1.3,1.1-2.5,2.2-3.8,3.3-5.8-.5-11.6-.4-17.4-.4-1.9,0-3.5.6-5.3,1.2-9,1.1-18.2,0-27.3.6-1.7,0-3.5,0-5.2.2-1.4-1.4-2.9-2.7-4.4-3.9-.2-10,.2-20,.2-30h1.1c0,8.3.3,16.6,0,24.9h.8c.1-4.2,1.2-8,2-12.1.2,4.7-.6,11.6,2.7,15.5,2.3,2,4.8,1.5,7.6,1.6,12,0,24,0,36.1,0,2.5,0,6,0,8-2,2.1-2.9,1.2-7.8,1.3-11.2.4-3.7-.8-7-1-10.6,0-6.9.2-13.8,0-20.7l-1.2-.8-1.3-.8c-1-.5-2.1-1-3.2-1.4-.9-.5-1.7-.4-2.3.5-4.6-.2-9.1,0-13.7,0-.7-.8-1.5-.8-2.2,0h-.5c-2.4-.3-4.8-.5-7.2-.4-5.9,0-11.8-.3-17.7,0-1.3,0-2.2.6-3.3,1.2-1.2,1.1-1.4,2.5-1.6,4-.9,8-.2,16.2-.5,24.2-.5-.4-1-.9-1.4-1.3,1.8-7.6,1.1-16,.3-23.6.2-1.8,1.2-3.6,1.9-5.3-1.3,1.5-3.3,3.2-3.3,5.3-.2,4,0,7.9-.1,11.9h-1.1c0-4.7-.1-9.3-.2-14-.2-2.1,1.2-3.1,2.3-4.6,6.7,1,13.6.7,20.3.2,1.6,0,3.1.1,4.7.3.6-1.9,1-3.9,1.3-5.9,1.1-.2,2.3-.4,3.4-.6,0-.5,0-1-.2-1.4-2.2-.8-4-1.8-5.8-3.3-1.3.4-2.5.9-3.8,1.3-.2-.6-.5-1.2-.7-1.8v-.7ZM66.3,45.6c1.9,0,3.8.2,5.7.3-1.4-.4-2.9-.8-4.3-1.4-1.2-1.1-1.9-2.8-2.7-4.2.4,1.8.9,3.5,1.3,5.3ZM59.2,41.3c-.6,1-.3,1.7.8,2,2.1-.4.9-3.2-.8-2ZM90,87.9h1c-.1-11,.4-22.1-.3-33.1-.6,1.8-.8,3.4-.8,5.2.2,9.3,0,18.6,0,27.9ZM31.6,93.4c1.4.7,2.8,1.2,4.2,1.8-1.7-1.3-3.3-2.6-5.1-3.9.3.7.5,1.4.8,2.1Z"/>
  <path id="p17" class="cls-6" d="M50.3,33.2c.2.6.5,1.2.7,1.8,1.3-.4,2.5-.9,3.8-1.3,1.8,1.5,3.5,2.5,5.8,3.3,0,.5.1,1,.2,1.4-1.2.2-2.3.4-3.4.6-.3,2-.7,4-1.3,5.9-1.6-.2-3.1-.4-4.7-.3-6.7.5-13.6.8-20.3-.2-1.1,1.5-2.5,2.5-2.3,4.6,0,4.7.2,9.3.2,14h1.1c0-4-.1-7.9.1-11.9,0-2.1,2-3.8,3.3-5.3-.6,1.7-1.6,3.5-1.9,5.3.8,7.7,1.5,16.1-.3,23.6.5.4,1,.9,1.4,1.3v.9c-.8,4-1.9,7.9-2,12h-.8c.4-8.3.1-16.6,0-24.9h-1.1c0,10-.4,20-.2,29.9,1.5,1.3,3,2.6,4.4,3.9l-.8.2c.2,1,.3,1.9.5,2.9l-1.4-.2c-.7-1.4-1.4-2.8-2.2-4.1-1.5.5-3,1-4.6,1.4.8-1.3,1.8-1.9,3.1-2.6,0-4.8,1.1-9.9-.5-14.3-1.7,2.2-2.3,4-2.8,6.7-2-1.4-4.1-2.6-6-4.1,1.2.1,2.4.3,3.6.4,2.1-1.1,3.8-3,5.5-4.6.5-4.2.4-8.9.1-13.1-1.5-3.5-4.3-3.5-7.6-4,.6-1.4,1.2-3.1,2.4-4.1,1.7-.5,3.8.2,5.4.5,0-4.1,0-8.2,0-12.3-1.1-1-2.3-2-3.3-3.1,1.7.2,3.5.4,5.2.6.5-1.4,1-2.7,1.4-4.1.7,1,1.4,2,2.1,3,5.6-.1,11.2-.2,16.9,0,.3-3.2.2-6.4.2-9.6ZM21.7,60.2c2.1,1.3,4.2,2.4,6.5,3.2-.5-1.5-.6-2.8-2.1-3.5-1.5-1.1-2.8,0-4.4.3Z"/>
  <path id="p18" class="cls-6" d="M27.3,39.2c2.1-.4,2.5,2.3.7,3-1.8.2-2.6-2.4-.7-3Z"/>
  <path id="p19" class="cls-6" d="M91.2,39.5c.7-.5,1.4-.5,2.1,0,1.2,1.3-.9,3.5-2.2,2.3-.5-.8-.5-1.6,0-2.3Z"/>
  <path id="p20" class="cls-7" d="M64.9,40.3c.8,1.4,1.5,3.1,2.7,4.2,1.4.6,2.9,1,4.3,1.4-1.9-.1-3.8-.2-5.7-.3-.5-1.8-.9-3.5-1.3-5.3Z"/>
  <path id="p21" class="cls-6" d="M88.2,39.9c.5.8.9,1.5,1.3,2.3l.3.5.8,1.5c1.5-.3,3.1-.7,4.6-1-1.4,1.7-2.9,3.3-3.8,5.4l-.4.8c-.1-1-.2-2-.4-3-1-.6-2-1.1-2.9-1.7-.3-.6-.6-1.2-.8-1.8.4-1,.8-2,1.2-3Z"/>
  <path id="p22" class="cls-6" d="M59.2,41.3c1.7-1.2,3,1.6.8,2-1.1-.3-1.4-1-.8-2Z"/>
  <path id="p23" class="cls-1" d="M89.5,42.2l.3.5-.3-.5Z"/>
  <path id="p24" class="cls-1" d="M16.2,44.8c1.6,1.8,3.9,3.8,4.7,6.1-1.5,1.8-3.2,3.6-4.8,5.4-1.4-2.5-2.9-4.2-5.1-6,1.9-1.7,3.6-3.6,5.3-5.4ZM14.7,49.1l-1.6,1.6c1,.4,1.9.9,2.9,1.3.9-.4,1.9-.8,2.8-1.2-.5-.6-.9-1.2-1.4-1.8-.7-1.1-1.7-1-2.7.1Z"/>
  <path id="p25" class="cls-7" d="M87.8,44.7c1,.6,2,1.2,2.9,1.7.1,1,.2,2,.4,3-.2,1.6-.4,3.1-.6,4.7.1-3.7-1.1-6.3-2.7-9.4Z"/>
  <path id="p26" class="cls-1" d="M103.8,44.8c1.7,2,3.3,4,5,5.9-2.3,1.6-3.6,3-4.9,5.6-1.8-2-3.6-3.9-5.7-5.6,1.7-2.1,3.4-4.2,5.6-5.9ZM103.3,48.4c-1,.1-2.4,1.5-1.8,2.5,1.3,1,3.8-2.1,1.8-2.5Z"/>
  <path id="p27" class="cls-6" d="M38.1,46.6c5.9-.2,11.8.2,17.7,0,2.4,0,4.8,0,7.2.4-7.9,1.6-16.6,0-24.7.4-1.1,0-2.3.2-3.4.3,1-.6,2-1.2,3.3-1.2Z"/>
  <path id="p28" class="cls-6" d="M65.7,47.2c-.8.7-1.5.7-2.2,0,.8-.7,1.5-.7,2.2,0Z"/>
  <path id="p29" class="cls-4" d="M81.7,46.6c-.6.9-1.4,1.1-2.3.5.6-.8,1.4-1,2.3-.5Z"/>
  <path id="p30" class="cls-5" d="M38.3,47.5c8.1-.4,16.8,1.1,24.7-.4h.5c.7.8,1.5.8,2.2.1,4.6,0,9.1-.3,13.7,0,.9.6,1.7.5,2.3-.5,1.1.4,2.2.8,3.2,1.4-.4,1.4-.8,2.8-1.3,4.2-1.2.5-2.3,1.1-3.4,1.6-.7-1.3-1.3-2.6-2.2-3.8,1.8,0,3.5-.1,5.3-.3-3.5-1-6.7-.5-10.3-.6-8,0-16,0-24,0-4.8,0-9.2-.6-13.8,1.1-.1,1-.2,2-.3,3l-1.6-1.4c.2-1.5.4-2.9,1.6-4,1.1-.1,2.3-.2,3.4-.3Z"/>
  <path id="p31" class="cls-6" d="M17.4,49c-.7,1-1.6,1.1-2.7.1,1.1-1.2,2-1.2,2.7-.1Z"/>
  <path id="p32" class="cls-1" d="M84.9,48l1.3.8c-1.2,10.8-1.6,21.3-.8,32.1,0,3.1,0,6.1,0,9.2-2,1.1-3.9,2-6.3,1.9-9,0-18,0-27.1,0-5.7,0-11-.3-16.6.4-3.3-3.8-2.4-10.8-2.7-15.5v-.9c.3-8-.4-16.2.5-24.2l1.6,1.4c.4,12-.4,24.1.4,36.1.3-.9.7-1.8,1-2.7,1.3.8,2.6,1.6,3.9,2.3l-1.4.7h0s-.2.2-.2.2l-1.2,1.1c3.7.4,7.2.2,10.9,0-.8-.6-1.5-1.1-2.3-1.6,1.1-.3,2.2-.5,3.3-.8,7.4,1.4,14.3,2.7,21.4-1,.3-2.2.2-4.4.2-6.7,1,2,1.8,4,2.5,6.1-.7.7-1.5,1.4-2.2,2.2,1.9,0,3.8,0,5.8,0-1-1.6-2.1-3.3-2.7-5.1.2-1.2.6-2.5.9-3.7,1.6.1,3.5.7,5,.1l.4-.2,1.2-.7c.6,1.2,1.1,2,2.3,2.8-.6-3.3-2.9-5.6-.6-8.7l.2-.2h0c-.5-1.5-.8-3.1-1.8-4.2-2.4-.5-4.3.3-6.5,1,.3.5.6,1,.9,1.5,1.6-.7,3.1-1.3,4.7-1.8.5,1.4.9,2.8,1.4,4.2-2.4-.3-5.3-1.3-7.7-.7-2.7,2.5-3.6,5.3-7.7,5.9,1.2-2.5,3.2-4.3,5.1-6.3,1.7-2.4,2.6-5.3,4.3-7.7,1-2,3.8-1.2,5.7-1.4-.6.9-1.2,1.7-1.8,2.5,1,.1,2,.2,3,.2h.5s0-.4,0-.4c0-2.7-1.8-3.2-3.6-4.7l1.7-.5h.5c0-.1.5-.2.5-.2l.2-.5c.9-1.7.9-2.5.2-4.3.2-1,.4-2.1.5-3.1v-.8c.6-1.4,1-2.8,1.4-4.2ZM76.1,84.2c.6,1.2,1.2,2.3,1.8,3.5.8-.1,1.6-.3,2.4-.4h.5c0,.1,0,0,0,0,0-2.5.8-3.8-1.7-5.4-1,.8-2,1.5-2.9,2.4ZM82.2,88.8v.2c-.1,0-.3.2-.3.2v.2c0,0,.2-.3.2-.3l.2-.2h0Z"/>
  <path id="p33" class="cls-6" d="M103.3,48.4c2,.4-.5,3.5-1.8,2.5-.6-1,.8-2.4,1.8-2.5Z"/>
  <path id="p34" class="cls-5" d="M14.7,49.1c1.2.9,2.1.9,2.7-.1.5.6.9,1.2,1.4,1.8-1,.4-1.9.8-2.8,1.2-1-.4-1.9-.9-2.9-1.3l1.6-1.6Z"/>
  <path id="p35" class="cls-6" d="M49,49.1c8,0,16,0,24,0,3.6,0,6.8-.4,10.3.6-1.8.2-3.5.3-5.3.3h-.9c-11.7,0-23.5,0-35.2,0h-.9c-2,.1-3,.6-4.5,1.9.4,1.2.9,2.4,1.3,3.6l.3.7-.8.2-1.5,1,.3.8c.5,1.1,1.1,2.2,1.6,3.4l-.3,1.2-.5,1.6c-1.7.4-1.9,1-.4,1.9l1.6.8-.7,2.2c-.4,1.3-.9,2.6-1.3,3.9-.6,1.6.3,3.7.9,5.2l-.4.8-.2.8-.2,2.5v1.9s0,.5,0,.5l-.2,1.8c-.3.9-.6,1.8-1,2.7-.7-12,0-24.1-.4-36.1,0-1,.2-2,.3-3,4.6-1.6,9-1,13.8-1.1Z"/>
  <path id="p36" class="cls-7" d="M86.2,48.8l1.2.8c.2,6.9,0,13.8,0,20.7.3,3.6,1.4,6.9,1,10.6-1,0-2,0-3,0-.8-10.9-.5-21.3.8-32.1Z"/>
  <path id="p37" class="cls-5" d="M41,49.9c-.3,1.3-.6,2.7-.9,4-1.2-.7-2.4-1.4-3.6-2.1,1.5-1.3,2.5-1.8,4.5-1.9Z"/>
  <path id="p38" class="cls-7" d="M41,49.9h.9c.9.8,1.4,1.6,1.5,2.4l-.2.5c-1.4,2-3.1,2.2-5.4,2.7-.5-1.2-.9-2.4-1.3-3.6,1.2.7,2.4,1.4,3.6,2.1.3-1.3.6-2.7.9-4Z"/>
  <path id="p39" class="cls-5" d="M41.9,49.9c11.7.1,23.5,0,35.2,0-.3.6-.6,1.3-1,2,1,1,1.9,2.2,3,3.1,2.3.3,2.9-.3,4.3-2.1-.1,1.1-.3,2.1-.5,3.1-1.2,1.5-2.2,3-1.4,5l-1.7.5c-2.8.6-5.6.5-8.4.4-.5-1.3-.9-2.6-1.7-3.8-1.5-1-3.4-1.2-5-2-1.5-1.6-2.4-3.8-3.9-5.4-4,.4-3.9,6.7-9.1,6.3,1.1-.6,1.8-1.4,1.9-2.3l.2-1.5c-1.2-.8-2.6-1.8-4.1-2.2-2.7-.4-5.1,1.3-5.8,4,.5.8,1.1,1.7,1.8,2.5.7-.5,1.4-1,2.1-1.4-.6-.6-1.2-1.2-1.8-1.9.7-.6,1.4-1.2,2.1-1.9.9.3,1.7.5,2.6.8-.4.8-.8,1.5-1.2,2.3l.5.9.9,1c-.8,1.5-1.6,3-2.4,4.4-3.4.9-7.3.1-10.9,1l.3-1.2c.2-1.3.4-2.6.6-3.9.9.9,1.8,1.7,2.7,2.6.9-.7,1.8-1.4,2.8-2.1-.3-.6-.6-1.1-.9-1.7-.6.5-1.2.9-1.8,1.4-1-.5-2-1.1-3-1.6l-.3-.7c2.3-.5,3.9-.6,5.4-2.7l.2-.5c-.1-.8-.6-1.6-1.5-2.4ZM54.4,51.2c-.4.8-.1,1.4.9,1.7,1.9-.3.6-2.7-.9-1.7ZM63.4,51.3c-.4.9-.1,1.4.9,1.7,1.9-.3.5-2.6-.9-1.7ZM66.1,55v.8c.8.7,1.4.5,1.7-.6,1,.3,2,.7,3,1-.6-1.1-1.1-2.2-1.7-3.3,2.1-.3,3.3-.1,5.2.9-.7.8-1.5,1.5-2.2,2.3.7.5,1.4,1,2.1,1.5.8-1.4,2.4-2.1,1.2-3.8-1.5-4.2-9.3-3-9.3,1.2ZM77.9,60.4c1.1-.9,2.2-1.9,3.2-2.9-1.8-.3-3.3-1-5.1-.4.6,1.1,1.2,2.2,1.9,3.3ZM44.4,59.2c-.5.9-.2,1.5.8,1.7,1.8-.3.7-2.7-.8-1.7ZM74.2,59.3c-.5.9-.3,1.4.7,1.7,1.8-.4.9-2.8-.7-1.7Z"/>
  <path id="p40" class="cls-7" d="M77.1,50h.9c.8,1.2,1.5,2.5,2.2,3.8,1.1-.5,2.3-1.1,3.4-1.6v.8c-1.5,1.8-2.1,2.4-4.4,2.1-1.1-.9-2-2.1-3-3.1.3-.7.6-1.3,1-2Z"/>
  <path id="p41" class="cls-7" d="M49.8,51.1c1.5.4,2.8,1.4,4.1,2.2l-.2,1.5c-1.3.1-2.6.5-3.6,1.4l-.5-.9c.4-.8.8-1.5,1.2-2.3-.9-.2-1.8-.5-2.6-.8-.7.6-1.4,1.2-2.1,1.9.6.6,1.2,1.3,1.8,1.9-.7.5-1.4,1-2.1,1.4-.6-.8-1.2-1.6-1.8-2.5.7-2.7,3-4.3,5.8-4Z"/>
  <path id="p42" class="cls-2" d="M54.4,51.2c1.5-1,2.7,1.4.9,1.7-1-.3-1.3-.9-.9-1.7Z"/>
  <path id="p43" class="cls-7" d="M60.9,50.9c1.5,1.6,2.3,3.8,3.9,5.4,1.6.7,3.6,1,5,2,.7,1.1,1.2,2.5,1.7,3.8,2.9.1,5.6.2,8.4-.4,1.8,1.5,3.7,1.9,3.6,4.7l-.4.4c-1,0-2-.1-3-.2.6-.8,1.2-1.7,1.8-2.5-1.9.3-4.6-.5-5.7,1.4-1.8,2.3-2.7,5.3-4.3,7.7-1.9,2-3.9,3.7-5.1,6.3,4.1-.6,5-3.4,7.7-5.9,2.4-.6,5.3.4,7.7.7-.4-1.4-.9-2.8-1.4-4.2-1.6.5-3.2,1.1-4.7,1.8-.3-.5-.6-1-.9-1.5,2.2-.7,4.2-1.5,6.5-1,1,1.1,1.3,2.7,1.8,4.1l-.2.3c-2.3,3.1,0,5.4.6,8.7-1.2-.7-1.7-1.6-2.3-2.8l-1.2.7-.4.2c-1.5.5-3.4,0-5-.1-.3,1.2-.8,2.5-.9,3.7.6,1.8,1.8,3.5,2.7,5.1-1.9,0-3.8,0-5.8,0,.7-.7,1.5-1.4,2.2-2.2-.7-2.1-1.5-4.1-2.5-6.1l-.5-.9-1.3.9c-6.7,2.1-13.1,1.7-19.7-.6-.8,2-1.5,4-2.2,6.1-1.7.6-1.7,1.2-.1,1.7l2.1.5c-1.1.3-2.2.6-3.3.8-.8,0-1.7-.2-2.5-.2,1.9-3.1,3.5-5.1,2-8.9-2.9.7-4.1.7-6.8-.4-.7.9-1.4,1.8-2.1,2.7l.2-2.5.2-.8.4-.8c1.6-2.2.9-3.5-.9-5.2.4-1.3.9-2.6,1.3-3.9,3.4-.7,5-.8,7.6,1.7-2.5-.3-4.7-.9-7.2.2,0,1,0,2,0,3,2.3-.4,5.3-1.4,7.6-.6,3,2.7,4.5,5.7,8.8,6.6-1.6-2.9-4.2-4.6-6.2-7.1-1.6-2.4-2.7-5.2-4.4-7.6-1-1.4-2.4-1.1-3.9-1.4-2.3-.7-2,2.3,0,.9v.9s-.8,1.6-.8,1.6l-.8-.4-1.6-.8.4-1.9.5-1.6c3.6-.8,7.5,0,10.9-1,.9-1.4,1.6-2.9,2.4-4.4h.9c5.2.3,5.1-6,9.1-6.4ZM57.1,61.2c1.2-2,1.9-3.9,3.4-5.5,0,1.1.4,4,2.1,3.1,1.1-1.5-.7-2.7-1.6-3.6-.4-.8-.7-1.5-1-2.3-2.8,2.8-3,4.5-2.8,8.4ZM52.1,64.2l-1.2.8c-1.5-.4-2.9-.8-4.4-1.2l-.4,1.8c1.7,0,3.4,0,5,0,.7.4,1.4.7,2.1.9,1.5-.2.1-1.8-.2-2.4-.3-1-.6-2.1-.9-3.1,1.1-.3,2.2-.5,3.3-.8-.5-.7-1-1.5-1.5-2.2-3.2.9-4.2,3.6-1.7,6ZM63.9,60.7c1.2,0,2.5,0,3.8,0-.3,1-.6,2.1-.8,3.2-.3,1-.5,2-.8,3.1,2.2-.3,7.4,1.3,7.6-2,.6-1.5-2.8-1.1-3.5-.8l-.7-1.4c-.7-1.7-1.1-3.3-2.6-4.5-1.2.4-2,1.7-2.9,2.5ZM53.9,71.2l-.8,1c2.8.6,5.2.8,7.9-.2.7,2.8.8,5.8,2,8.3,2.7-1.4,1.7-6.1,3.1-8.7h1.9c-.8-.6-1.7-1.3-2.5-2.1-.4-1.5-.6-3.5-1.7-4.6-2.1-.5-2.2,2.5-1.9,3.9-1.3.5-2.6,1-3.9,1.4,1.5-3.3,3.9-6,5.1-9.4h-1c-1,.1-1.8.4-2.4.9-2.4,2.7-4.2,6.2-5.9,9.4ZM49,71.1c.3,2.5,3.5,2.8,2.9-.2v-.6c0,0-.3-1.8-.3-1.8-1.1,0-2.1,0-3.2,0,.1.9.3,1.8.5,2.6ZM69,71.1l.4,1.7c.8-.4,1.6-.8,2.4-1.2,0-1.1,0-2.1-.2-3.2h-1.5c-1.2,0-1.5,1-1.1,2.7ZM40.9,79.2c.7-.8,1.4-1.6,2.1-2.4l1.8.6c.9.5,1.7,1,2.6,1.5-.5-3-2.2-5.3-5.5-4-2.4,1.1-1.3,2.4-1,4.3ZM53.2,75.6l.6.3c2.1.2,4.3.2,6.4,0-1.2-2.7-5.8-1.6-8.1-1.6l1,1.2ZM72.7,79c1.1-.7,2.2-1.4,3.3-2.1h1.9c.4.8.8,1.5,1.2,2.3-.4-1.5.4-4.1-1.6-4.5-2.7-.9-4.3,2-4.7,4.2ZM56.1,77.8c-.6,1.9,3.3,2.3,3.6.6-.1-1.2-2.9-1.2-3.6-.6Z"/>
  <path id="p44" class="cls-6" d="M63.4,51.3c1.4-1,2.8,1.4.9,1.7-1-.2-1.3-.8-.9-1.7Z"/>
  <path id="p45" class="cls-7" d="M75.4,53.7c1.2,1.7-.4,2.3-1.2,3.8-.7-.5-1.4-1-2.1-1.5.7-.8,1.5-1.5,2.2-2.3-1.9-1-3.1-1.2-5.2-.9.6,1.1,1.1,2.2,1.7,3.3-1-.3-2-.7-3-1l-1.7-.2c0-4.2,7.8-5.5,9.3-1.2Z"/>
  <path id="p46" class="cls-6" d="M43.4,52.3l-.2.5.2-.5Z"/>
  <path id="p47" class="cls-6" d="M59.9,52.8c.3.8.7,1.6,1,2.3l-.5.5c-1.5,1.6-2.2,3.6-3.4,5.5-.2-3.9,0-5.6,2.8-8.4Z"/>
  <path id="p48" class="cls-6" d="M53.7,54.8c-.1.9-.8,1.7-1.9,2.3h-.9c0,.1-.9-.9-.9-.9,1-.9,2.3-1.3,3.6-1.4Z"/>
  <path id="p49" class="cls-3" d="M61,55.1c1,.9,2.7,2.2,1.6,3.6-1.7.9-2.2-2-2.1-3.1l.5-.5Z"/>
  <path id="p50" class="cls-6" d="M66.1,55l1.7.2c-.3,1.1-.9,1.3-1.8.6v-.8Z"/>
  <path id="p51" class="cls-2" d="M90.7,54.8c.7,11,.1,22.1.3,33.1h-1c0-9.3,0-18.6,0-27.9,0-1.9.1-3.5.8-5.2Z"/>
  <path id="p52" class="cls-7" d="M37.4,56.3c.2,1.1-.2,1.7-1.2,1.7l-.3-.8,1.5-1Z"/>
  <path id="p53" class="cls-7" d="M37.4,56.3l.8-.2c1,.5,2,1,3,1.6.6-.5,1.2-.9,1.8-1.4.3.6.6,1.1.9,1.7-.9.7-1.8,1.4-2.8,2.1-.9-.9-1.8-1.8-2.7-2.6-.2,1.3-.4,2.6-.6,3.9-.6-1.1-1.1-2.2-1.6-3.4,1,0,1.4-.6,1.2-1.7Z"/>
  <path id="p54" class="cls-7" d="M81.1,57.5c-1.1,1-2.1,1.9-3.2,2.9-.6-1.1-1.3-2.2-1.9-3.3,1.7-.6,3.3,0,5.1.4Z"/>
  <path id="p55" class="cls-7" d="M82.9,56.1c.8,1.8.8,2.6-.2,4.3l-.7.6h-.5c-.8-1.8.2-3.3,1.4-4.8Z"/>
  <path id="p56" class="cls-5" d="M53.8,58.2c.5.7,1,1.4,1.5,2.2-1.1.3-2.2.5-3.3.8.3,1,.6,2.1.9,3.1h-.9c-2.5-2.5-1.5-5.2,1.7-6.1Z"/>
  <path id="p57" class="cls-5" d="M66.8,58.2c1.5,1.2,1.9,2.8,2.6,4.5l-2.6,1.2c.3-1,.6-2.1.8-3.2-1.3,0-2.5,0-3.8,0,.9-.8,1.7-2.1,2.9-2.5Z"/>
  <path id="p58" class="cls-6" d="M97.6,58.4c1.2.9,1.6,2.9,2.3,4.3-2.1.2-4.1.7-6.2,1.2l-1-.7c1.8-1,3.7-2,5.6-3-2.8-1-3.6-.6-6.1.7v-1.7c1.8-.6,3.5-1.5,5.4-.8Z"/>
  <path id="p59" class="cls-2" d="M26.1,59.8c1.5.7,1.6,2.1,2.1,3.5-2.3-.8-4.5-1.9-6.5-3.2,1.6-.3,2.9-1.5,4.4-.3Z"/>
  <path id="p60" class="cls-6" d="M44.4,59.2c1.4-1,2.6,1.4.8,1.7-1-.3-1.2-.9-.8-1.7Z"/>
  <path id="p61" class="cls-6" d="M74.2,59.3c1.5-1.1,2.5,1.3.7,1.7-1-.2-1.2-.8-.7-1.7Z"/>
  <path id="p62" class="cls-7" d="M98.3,60.2c-1.8,1-3.7,2-5.6,3-.2-.8-.4-1.5-.6-2.3,2.5-1.4,3.3-1.7,6.1-.7Z"/>
  <path id="p63" class="cls-6" d="M82.8,60.4l-.2.5h-.5c0,.1.7-.5.7-.5Z"/>
  <path id="p64" class="cls-6" d="M62.2,61c-3.1,3.2-4.3,8.3-8.3,10.1,1.7-3.2,3.5-6.6,5.9-9.4.6-.5,1.4-.8,2.4-.8Z"/>
  <path id="p65" class="cls-1" d="M62.2,61h1c-1.3,3.2-3.6,5.9-5.1,9.2,1.3-.4,2.6-.9,3.9-1.4,1.3-.4,1.6-2.8,1.9-3.9,1.1,1.1,1.3,3.1,1.7,4.6.8.7,1.7,1.5,2.5,2.2h-1.9c-1.7-.3-3.4-.3-5.1.2-2.7.9-5.1.8-7.9.2l.8-1c4-1.8,5.1-6.9,8.3-10.1Z"/>
  <path id="p66" class="cls-2" d="M69.4,62.7l.7,1.4.2.5c-.8-.1-4.3.5-2.3,1.6,1.3.3,2.6-.4,3.9-.8l1.7-.5c-.2,3.3-5.4,1.7-7.6,2,.3-1,.5-2,.8-3.1l2.6-1.2Z"/>
  <path id="p67" class="cls-6" d="M12.9,64.7c1.8,0,3.5.2,5.3,0h.6c1.7-.1,3.4.1,5.1.2-.6,1.1-1.2,2.1-1.7,3.2,0,2,2.4,2.9,3.7,4.1-1.1-.2-2.2-.4-3.3-.7-1.4-1.1-1.5-3.5-2-5.1l-1.6-.3c-1.7-.3-3.2-.6-4.8,0-.4-.5-.8-1-1.3-1.5Z"/>
  <path id="p68" class="cls-1" d="M18.8,64.6h-.6s.6,0,.6,0Z"/>
  <path id="p69" class="cls-1" d="M37.1,64.3l-.4,1.9c-1.5-.9-1.3-1.5.4-1.9Z"/>
  <path id="p70" class="cls-4" d="M39.9,63.9v.9c-2,1.4-2.3-1.6,0-.9Z"/>
  <path id="p71" class="cls-1" d="M39.9,63.9c1.5.3,2.9,0,3.9,1.4,1.7,2.3,2.8,5.2,4.4,7.6,2,2.5,4.6,4.2,6.2,7.1-4.4-.8-5.8-3.9-8.8-6.6-2.3-.8-5.3.2-7.6.6,0-1,0-2,0-3,2.5-1.1,4.7-.4,7.2-.2-2.6-2.5-4.2-2.4-7.6-1.7l.7-2.2.8.4.7.3c.9-.4,1-1.1.1-2v-.9s0-.9,0-.9Z"/>
  <path id="p72" class="cls-6" d="M46.4,63.9c1.5.3,3,.7,4.4,1.2l.2.7c-1.7,0-3.4,0-5,0l.4-1.8Z"/>
  <path id="p73" class="cls-3" d="M52.1,64.2h.9c.4.7,1.7,2.3.2,2.5-.7-.2-1.4-.5-2.1-.9l-.2-.7,1.2-.8Z"/>
  <path id="p74" class="cls-1" d="M70.1,64.2c.7-.3,4.1-.8,3.5.8l-1.7.5-1.6-.8-.2-.5Z"/>
  <path id="p75" class="cls-6" d="M107.4,64.8c-2.7,2-4.9,1.7-8,1.4-.6,1.5-1.1,3-1.8,4.4-1,.7-2.2,1.2-3.3,1.7,1.1-1.1,2.3-2.1,3.4-3.2-.4-1.4-.9-2.8-1.4-4.3,3.8-.3,7.5.2,11.2,0Z"/>
  <path id="p76" class="cls-6" d="M63.9,64.9c-.3,1.2-.6,3.5-1.9,3.9-.4-1.4-.2-4.4,1.9-3.9Z"/>
  <path id="p77" class="cls-6" d="M70.4,64.7l1.6.8c-1.2.4-2.5,1.1-3.9.8-2-1.1,1.5-1.8,2.3-1.6Z"/>
  <path id="p78" class="cls-2" d="M14.1,66.1c1.6-.7,3.1-.3,4.8,0-1.6,1.2-3.3,2-4.8,0Z"/>
  <path id="p79" class="cls-6" d="M39.9,65.7c.9.9.8,1.6-.1,2l-.7-.3.8-1.6Z"/>
  <path id="p80" class="cls-6" d="M83.5,66.2v.4s-.4,0-.4,0l.4-.4Z"/>
  <path id="p81" class="cls-6" d="M24.1,67.5c1.4-1,2.8,1.4.9,1.7-1.1-.3-1.3-.8-.9-1.7Z"/>
  <path id="p82" class="cls-6" d="M94.2,67.4c1.8-1.2,3,1.6.8,2-1.2-.3-1.4-1-.8-2Z"/>
  <path id="p83" class="cls-6" d="M48.4,68.5c1,0,2.1,0,3.2,0l.2,1.8c-1.3-1.4-3-1.4-2.8.8-.2-.9-.4-1.7-.5-2.6Z"/>
  <path id="p84" class="cls-6" d="M70,68.2c1.4,1.3,1.3,3.3-1.1,2.8-.5-1.7-.1-2.7,1.1-2.8Z"/>
  <path id="p85" class="cls-3" d="M70,68.2h1.5c0,1.2.1,2.3.2,3.3-.8.4-1.6.8-2.4,1.2l-.4-1.7c2.3.5,2.5-1.5,1.1-2.8Z"/>
  <path id="p86" class="cls-1" d="M51.8,70.3v.6c-.9,0-1.9.1-2.8.2-.1-2.2,1.6-2.2,2.8-.8Z"/>
  <path id="p87" class="cls-3" d="M49,71.1c1,0,1.9-.2,2.9-.2.6,3-2.6,2.7-2.9.2Z"/>
  <path id="p88" class="cls-1" d="M66.2,71.6c-1.4,2.6-.4,7.2-3.1,8.7-1.2-2.5-1.3-5.6-2-8.3,1.7-.5,3.4-.5,5.1-.3Z"/>
  <path id="p89" class="cls-1" d="M36.3,73.1c1.8,1.7,2.5,3,.9,5.2-.6-1.5-1.5-3.6-.9-5.2Z"/>
  <path id="p90" class="cls-6" d="M83.4,73.3h0c0,.1-.2.3-.2.3l.2-.3Z"/>
  <path id="p91" class="cls-7" d="M16.7,74.2c.7.7,1.4,1.4,2.1,2-.7.8-1.5,1.6-2.2,2.5-.8-.8-1.6-1.7-2.5-2.5.8-.7,1.7-1.4,2.6-2Z"/>
  <path id="p92" class="cls-5" d="M47.3,78.9c-.9-.5-1.7-1-2.6-1.5,0-1.7-.6-1.9-1.8-.6-.7.8-1.4,1.6-2.1,2.4-.3-1.9-1.4-3.2,1-4.3,3.3-1.3,4.9,1,5.5,4Z"/>
  <path id="p93" class="cls-3" d="M52.2,74.3c2.4,0,6.9-1.1,8.1,1.6-2.2,0-4.3.1-6.4,0l-.6-.3-1-1.2Z"/>
  <path id="p94" class="cls-6" d="M77.4,74.8c2,.4,1.2,2.9,1.6,4.5-.4-.8-.8-1.5-1.2-2.3-.6-1.6-1.2-1.5-1.9,0-1.1.7-2.2,1.4-3.3,2.1.5-2.3,2-5.1,4.7-4.2Z"/>
  <path id="p95" class="cls-7" d="M103.7,74.2c.7.7,1.4,1.4,2.1,2-.7.8-1.5,1.6-2.2,2.5-.8-.8-1.6-1.7-2.5-2.5.8-.7,1.7-1.4,2.6-2Z"/>
  <path id="p96" class="cls-6" d="M53.2,75.6l.6.3-.6-.3Z"/>
  <path id="p97" class="cls-3" d="M44.7,77.4l-1.8-.6c1.1-1.3,1.7-1.1,1.8.6Z"/>
  <path id="p98" class="cls-3" d="M77.9,76.9h-1.9c.7-1.5,1.3-1.6,1.9,0Z"/>
  <path id="p99" class="cls-6" d="M56.1,77.8c.7-.6,3.5-.6,3.6.6-.3,1.7-4.2,1.3-3.6-.6Z"/>
  <path id="p100" class="cls-1" d="M36.7,79.2l-.2.8.2-.8Z"/>
  <path id="p101" class="cls-5" d="M38.4,79.7c2.7,1.1,3.9,1.2,6.8.4,1.6,3.7,0,5.8-2,8.9.8,0,1.7.2,2.5.2.8.5,1.5,1.1,2.3,1.6-3.7.2-7.3.4-10.9,0l1.2-1.1.2-.2,1.4-.7c-1.3-.8-2.6-1.5-3.9-2.3l.2-1.8v-.2s0-.3,0-.3v-1.9c.7-.9,1.4-1.8,2.1-2.7ZM38.9,87.2c2.8,0,3.6-.3,5.6-2.2-1.1-1.1-2.2-2.2-3.4-3.3-2.5,1.5-2,2.8-2.2,5.4Z"/>
  <path id="p102" class="cls-6" d="M49.2,80.2c6.6,2.4,12.9,2.7,19.7.6-4.2,4-12.5,1.7-17.8,1.4-1.6.8-2.6,3.4-3.7,4.9l-.3-.9c.7-2,1.4-4.1,2.2-6.1Z"/>
  <path id="p103" class="cls-5" d="M70.2,79.9l.5.9c0,2.2,0,4.5-.2,6.7-7.1,3.7-14,2.4-21.4,1l-2.1-.5.5-.8c1.1-1.5,2.1-4.1,3.7-4.9,5.2.3,13.6,2.6,17.8-1.4l1.3-.9ZM52.7,84.2c-.6.7-.8,2.7-.4,3.5,2,.6,3.6-5,.4-3.5ZM54.6,87.6c1.1-.1,2.2-.3,3.3-.4.8.6,1.5,1.2,2.2,1.8.2-1,.4-2,.5-3.1.9.9,1.8,1.7,2.7,2.6.3-1.3.7-2.6,1-4-2.8.4-5.5.2-8.3.1-.6.9-1,2-1.4,3ZM65,88.2c1.5-.3,2.4-1.1,3.5-2.2-1.2-1.2-1.5-2.2-3.4-2,0,1.4,0,2.8,0,4.2Z"/>
  <path id="p104" class="cls-6" d="M80.3,80.2l-.4.2.4-.2Z"/>
  <path id="p105" class="cls-6" d="M92.5,79.7c1.6,1.3,3.1,2.9,4.8,4.2,1.3.3,2.8,0,4.1-.1-2,1.4-4.1,2.4-5.5,4.4l-.6-1.4c-.5-2.2-1-3.6-2.7-5.2,0-.6,0-1.2-.1-1.9Z"/>
  <path id="p106" class="cls-7" d="M85.4,81c1,0,2,0,3,0,0,3.4.8,8.3-1.3,11.2-2,1.9-5.5,1.9-8,2-12,0-24,0-36.1,0-2.8-.1-5.3.4-7.6-1.6,5.6-.7,10.9-.3,16.6-.4,9,0,18.1,0,27.1,0,2.4.1,4.2-.8,6.3-1.9,0-3.1.2-6.1,0-9.2Z"/>
  <path id="p107" class="cls-7" d="M41,81.8c1.2,1.1,2.3,2.2,3.4,3.3-2,1.9-2.8,2.2-5.6,2.2.2-2.6-.3-3.9,2.2-5.4ZM40.2,84.2c-.6,1-.3,1.7.8,2,2.1-.4,1-3.2-.8-2Z"/>
  <path id="p108" class="cls-7" d="M79,81.9c2.5,1.5,1.7,2.8,1.7,5.4h-.5c-.8.2-1.6.3-2.4.5-.6-1.2-1.2-2.3-1.8-3.5.9-.8,1.9-1.6,2.9-2.4ZM78.2,84.2c-.6,1-.3,1.7.8,2,2.1-.4,1-3.2-.8-2Z"/>
  <path id="p109" class="cls-2" d="M36.3,84.3v.5s0-.5,0-.5Z"/>
  <path id="p110" class="cls-1" d="M40.2,84.2c1.8-1.2,2.9,1.6.8,2-1.1-.3-1.4-1-.8-2Z"/>
  <path id="p111" class="cls-7" d="M52.7,84.2c3.2-1.5,1.6,4.1-.4,3.5-.5-.8-.2-2.8.4-3.5Z"/>
  <path id="p112" class="cls-2" d="M56,84.7c2.8.1,5.5.2,8.3-.1-.3,1.3-.6,2.6-1,4-.9-.8-1.8-1.7-2.7-2.6-.2,1-.3,2-.5,3.1-.8-.6-1.5-1.2-2.2-1.8-1.1.1-2.2.3-3.3.4.4-1,.8-2,1.4-3Z"/>
  <path id="p113" class="cls-2" d="M65.1,84.1c1.9-.2,2.3.8,3.4,2-1.1,1.1-2,1.8-3.5,2.2,0-1.4,0-2.8,0-4.2Z"/>
  <path id="p114" class="cls-1" d="M78.2,84.2c1.8-1.2,2.9,1.6.8,2-1.1-.3-1.4-1-.8-2Z"/>
  <path id="p115" class="cls-3" d="M47.1,86.3l.3.9-.5.8c-1.6-.5-1.5-1.1.1-1.7Z"/>
  <path id="p116" class="cls-4" d="M80.3,87.3h.5c0,0,0,.1,0,.1h-.5Z"/>
  <path id="p117" class="cls-2" d="M95.4,86.7l.6,1.4c-1.8,2.4-2.9-.5-.6-1.4Z"/>
  <path id="p118" class="cls-7" d="M82.2,88.8h0c0,0-.2.2-.2.2v-.2Z"/>
  <path id="p119" class="cls-2" d="M38.6,89.6h0s-.2.2-.2.2l.2-.2Z"/>
  <path id="p120" class="cls-7" d="M81.9,89.1l.2-.2-.3.3v-.2Z"/>
  <path id="p121" class="cls-6" d="M30.8,91.3c1.7,1.3,3.4,2.6,5.1,3.9-1.4-.5-2.8-1.1-4.2-1.8-.3-.7-.6-1.4-.8-2.1Z"/>
  <path id="p122" class="cls-6" d="M92.1,93.1c0,.8.2,1.6.4,2.4,1,.9,2,1.7,2.9,2.7-1.6-.4-3.1-.9-4.6-1.5-.8,1.3-1.5,2.7-2.2,4h-1.3c0,0-.1-1.2-.1-1.2l-.9-2c-5.4-.2-10.8,0-16.2,0,4.4-.1,8.7-.2,13.1-.1,1.9,0,3.6.3,5.3-.9,1.3-1.1,2.5-2.2,3.8-3.3Z"/>
  <path id="p123" class="cls-3" d="M71,96c5.8,0,11.6-.1,17.4.4-1.7,1.2-3.4.9-5.3.9-4.4-.1-8.7,0-13.1.1-1.4,0-2.9-.2-4.3-.2,1.7-.6,3.4-1.2,5.3-1.2Z"/>
  <path id="p124" class="cls-7" d="M38.3,97.7c9.1-.6,18.3.6,27.3-.6,1.4,0,2.9.2,4.3.2,5.4.1,10.8-.2,16.2,0l.9,2c-6.1.7-12.4.1-18.5.5-4-.3-7.7,1-11.7.2-3.2-.5-5.4-.3-8.4.7-5.2.3-10.5.3-15.6.2-.2-1-.4-1.9-.5-2.9l.8-.2c1.7-.1,3.5-.2,5.2-.2Z"/>
  <path id="p125" class="cls-4" d="M28.2,99.3c2.1.7,0,4-1.7,2.6-.7-1.1.6-2.5,1.7-2.6Z"/>
  <path id="p126" class="cls-6" d="M87.1,99.5v1.1c-5.5-.5-11.2-.3-16.8-.2l-1.7-.5c6.2-.4,12.4.2,18.5-.5Z"/>
  <path id="p127" class="cls-6" d="M91.2,99.6c1.3-.8,2.8,1.2,1.7,2.3-1.4.8-2.6-1.1-1.7-2.3Z"/>
  <path id="p128" class="cls-6" d="M56.9,100.1c4,.8,7.6-.5,11.7-.2l1.7.5-1.6,1.2c-3,.3-3.4,1.4-2.7,4.2-.9.7-1.7,1.9-3,1.7-2.3-.2-4.5,0-6.8,0-1.9,0-2.5-2.4-3.2-3.8,1.4-1.8-.1-2.5-1.8-1.9-.9-.3-1.8-.6-2.7-1,3-1.1,5.2-1.2,8.4-.7ZM59.1,106.1c-.3-1.6.7-4.1-1.3-4.8-2.3-.8-3.6,1.7-2.9,3.6.2,1.9,3,1,4.2,1.1ZM61,106c1.3,0,2.7,0,4,0-.2-1.9.7-4.6-2-4.8-2.8.6-1.8,2.7-2,4.8Z"/>
  <path id="p129" class="cls-7" d="M57.7,101.3c2.1.6,1.1,3.1,1.3,4.8-1.3-.1-4,.8-4.2-1.1-.7-1.9.6-4.4,2.9-3.6ZM56.2,103.2v.8l.7.4.7-.4v-.8l-.7-.4-.7.4Z"/>
  <path id="p130" class="cls-7" d="M63,101.2c2.7.2,1.8,2.9,2,4.8-1.4,0-2.7,0-4,0,.2-2.1-.8-4.2,2-4.8ZM62.3,103.2v.8l.7.4.7-.4v-.8l-.7-.4-.7.4Z"/>
  <path id="p131" class="cls-2" d="M51.2,101.8c1.7-.5,3.2.1,1.8,1.9-.7-.5-1.3-1.1-1.8-1.9Z"/>
  <path id="p132" class="cls-2" d="M68.7,101.7c-.8,1.4-1.5,3.1-2.7,4.2-.7-2.7-.3-3.9,2.7-4.2Z"/>
  <path id="p133" class="cls-6" d="M56.2,103.2l.7-.4.7.4v.8l-.7.4-.7-.4v-.8Z"/>
  <path id="p134" class="cls-7" d="M62.3,103.2l.7-.4.7.4v.8l-.7.4-.7-.4v-.8Z"/>
  <path class="cls-7" d="M76.1,74.2c0-2.4-4.3-4.6-5.2-6.8s-.3-7.4-4.8-11c-.3-1,1.8-6.4,1.1-6.9-1.2.5-6.8.6-8.4.6-6.6-.2-20.1,26.6-16.9,28.3.4,1,16.2.7,16.2,0,0,0,2.4,11.9,3.6,14.8.7,0,1-.3,2.1-.6,2.2-.6,4-2.1,5.1-4.2,1.9-3.8,7.1-13.3,7.1-14.1ZM69.3,73.8c-2.6,4.9-.8,13.7-5.9,16.5-2.2-4.8-2.5-10.6-3.8-15.8-5.2,1.8-9.8,1.4-15.1.4l1.4-1.9c3.3-6.1,6.6-12.6,11.2-17.8,1.1-1,2.6-1.4,4.5-1.4l2-.2c-2.4,6.4-6.9,11.6-9.8,17.8,2.5-.8,5-1.7,7.5-2.7-.7-2.7-.5-8.4,3.6-7.4,2.1,2.2,2.4,5.9,3.2,8.8,1.6,1.4,3.2,2.8,4.8,4.2l-3.7-.2Z"/>
  <path id="p64-2" data-name="p64" class="cls-6" d="M61.7,53.6c-5.9,6.1-8.1,15.8-15.7,19.3,3.3-6.1,6.6-12.6,11.2-17.8,1.1-1,2.6-1.4,4.5-1.4Z"/>
  <path id="p65-2" data-name="p65" class="cls-6" d="M61.7,53.6l2-.2c-2.4,6.4-6.9,11.6-9.8,17.8,2.5-.8,5-1.7,7.5-2.7,2.5-.7,3.1-5.2,3.6-7.4,2.1,2.2,2.4,5.9,3.2,8.8,1.6,1.4,3.2,2.8,4.8,4.2l-3.7-.2c-3.3-.3-6.5-.3-9.7.6-5.2,1.8-9.8,1.4-15.1.4l1.4-1.9c7.6-3.4,9.8-13.1,15.7-19.3Z"/>
  <path id="p76-2" data-name="p76" class="cls-6" d="M65,61c-.5,2.2-1.1,6.7-3.6,7.4-.7-2.7-.5-8.4,3.6-7.4Z"/>
  <path id="p88-2" data-name="p88" class="cls-6" d="M69.3,73.8c-2.6,4.9-.8,13.7-5.9,16.5-2.2-4.8-2.5-10.6-3.8-15.8,3.2-1,6.4-1,9.7-.6Z"/>
</svg>