<?xml version="1.0" encoding="UTF-8"?>
<svg id="_Слой_1" data-name=" Слой 1" xmlns="http://www.w3.org/2000/svg" version="1.1" viewBox="0 0 120 120">
  <defs>
    <style>
      .cls-1 {
        fill: #00afd9;
      }

      .cls-1, .cls-2, .cls-3, .cls-4 {
        stroke-width: 0px;
      }

      .cls-2 {
        fill: #1d4e7b;
      }

      .cls-3 {
        fill: #110224;
      }

      .cls-4 {
        fill: #fff;
      }
    </style>
  </defs>
  <path id="p1" class="cls-3" d="M55.3,5.1h17.5c5.1,0,3.2,1.2,3.5,3s.4,4.3-.8,6.6c9.7.7,6.3,10.5,2.7,11.3v8.4c0,2.8.5,2,1.3,2.7,5.1,4,12.9,10.7,13.2,16.2.3,15,0,29.9,0,44.9v6.2c0,6.6-5.4,11.5-9.6,12.8s-1.5.4-2.3.4h-35.5c-7.7-1.2-10.9-9.8-10.8-12v-51c0-17,0-1.5.3-2.2,2.6-7.8,10-12.9,13.1-15.2s1.1-1.2,1.1-2c.3-3,0-6.3-.1-9-2.7-1.6-5.4-11.5,4.3-11.3-.7-2-1.1-4.4-.8-7s1.3-2.6,2.7-2.6h.1ZM54.5,7.9c-.4,2.3.4,4.2.9,6.3,1.5-.4,3-.3,4.6.3-.8-1.1-1.6-1.9-2.7-2.8l4.4-.3v2.8c1.3-.3,2.7-.3,4-.3l-.9-2.3c1.8-.4,3.5.3,5.1,0-.9-.4-1.8-.4-2.8-1.2l-.4-.5c2-.4,3.4-.9,4-1.6,1.2-.4,1.8.4,1.8,2.6h.9c1.8.3,1.6-3.8-.3-3.2h-1.1c-.8-1.8-1.5-1.8-2.2,0-2.2-.5-3.1-.5-5.1.1-.5-1.8-1.2-1.8-2.2-.3h-1.5c-.8-1.5-1.5-1.5-2.3,0h-.5c-.9-.3-2-.3-3,0s-.7.3-.9.4h0ZM72.5,12.2c-1.6,1.2-1.9,3.4.7,2.2.7-1.5.5-2.2-.7-2.2ZM49.7,17.5c-1.8,2-1.2,3.2-.1,5.4l1.2.3c1.5.4,3.4.9,4.7,0h2.3l.5.4c2.3-1.1,4.2.5,6.6,0,2.6.5,5-.1,7.5,0,1.3,0,2.4.3,3.6-.5,2.4.9,2.8-.8,3.5-2.8-.4-.8-.7-1.8-.9-2.7-2.4-1.1-4.9-.5-7.4-.7-2.2.5-4,0-6.7.1-1.9,0-1.1-.1-3.4.1-1.5,0,0-.3-3,0-1.3-.4-3.2-.3-4.7-.3s-2.7.3-4,.5h.3ZM49.3,39.3l-1.1.9-1.2,1.2-1.1.9c-2.8,2.4-6.7,5.5-8,9.2-1.3,2.6-.7,6.1-.8,8.9.7,0,1.2-.7,1.6-1.5-.7-2.7-.1-6.2,1.3-8.5,1.1-2,3.8-4,5.9-5.9l1.5,1.2c0,.8-2.7,1.8-3.6,2.6-2.2,1.9-3.1,5-3.4,7.8v3.8h1.5c0-1.1.1-2,.4-3l.7,1.1-.5,1.3.4,1.2h1.1l2.8-.3h.9c1.6.4,3.2.4,4.6,0,3.5-3.9,7.5-7,11.3-10.8,1.5-.4,2.6,1.5,3.6,2.4,2.7,2.8,5.7,5.1,8.4,7.8,2.2,1.1,3.9.5,6.1-.4,1.5.5,2.8,1.5,4.4.8,2.4-1.5,1.1-4.6.7-6.9-.3-2.8-4.6-5.4-6.3-7.7l3-.3c1.6,2,4.4,3.5,4.9,6.1,1.8,2.2.8,5.8,1.2,8.5l1.3.3c-.5-3.6,0-6.6-1.6-10-3.9-5.1-9.6-8.8-13.5-13.8-.3-2.8-.3-5.7,0-8.4,0-1.1-.3-1.9-1.1-2.4.5,4.6-1.2,10,1.6,13.8,2.6,1.5,5,4,7.3,6.1-2.6,1.3-4.9-.4-6.6-2-1.1-1.3-2.2-2.6-3.2-3.9-2-5.4,0-8.6-.7-13.9h-2c-.7,4.6.3,9.4-.4,14l-.8.9c0-1.8-.1-3.5-.1-5.3-2.2-1.1-4.9-.7-7-.4l-.7-1.2c.8-1.1,1.3-2.2,1.5-3.5.8.8,1.6,1.6,2.4,2.6-1.2-2.7,1.3-5.8-3.2-5.4l-.4-1.3c-1.8,1.3-4.3-.4-6.6,0-.1,2.8.3,5.9-.3,9.2v.7c.9,3-2.3,4.4-4,6.3-1.3.9-2.6,2.3-3.8,3.5h-2c.7-2.2,3.6-4,5.1-5.5,4.7-2.8,2.4-9.6,2.8-14.4h-1.5v9.3c.3,2-1.6,3-2.8,4h0ZM67.6,30.5v.8h.8v-.8h-.8ZM47.2,68.3c-.9,3.4-.1,8-.4,11.6-.4,2.6,1.1,4.2,2.6,6.1-2.7,1.1-6.2.1-3.8-3.5-2,.5-3.2,0-3.8-1.3l1.2-.5,1.5,1.2.7-1.1v-13.6c-1.1-.8-.9-1.9,0-3.5,1.3-.1,5.7,1.2,4.9-1.3-4.4.5-8.5-.3-12.9-.1l.3,1.5c2.3-.4,4.3.4,6.6,0v2.3c-2.4-.1-4.6,0-6.9-.5.1,4.4,0,8.9,0,13.3.5,1.3.4,2.4-.4,3.2,1.8,2.6,4.3-.5,5.4,2,.4,2.3-3.8,1.1-4.9.8v.9c3.8,1.2,7.5.5,11.2,1.8.3-.5.5-.9.9-1.5,5.3,4.2,9.6,9.7,14.7,14.2,4.2-3.1,10.7-10.8,15.1-14.2l.8,1.9c3.1-2.7,9,.4,11.3-2.7-2.6,0-5,.7-7.5.5h-.3c-1.8.9-3.2.9-4.4.3.5-.7.9-1.3,1.5-2l.7-.9v-11.3l.5-1.3-.3-1.3c-2.6-3.8-6.9-6.6-9.7-10.2-2.6-2.2-5-5.4-7.8-7-5.1,5.7-11.3,11.1-16.6,16.7h-.1ZM78.5,62.4v1.3c3.9-.3,7.5-.7,11.3-.4.8,0,1.3-.4,1.8-.9-4.3.4-8.8.3-13.1,0ZM83.8,83.1c2.6-.9,4.4-.4,7-.3.3-5.7-.1-11.5.3-17.1-2.4.5-4.7.5-7.1.4.3,3.4-.1,6.9.3,10.2-.8,2.3.8,4.9-.3,6.9h-.1ZM37.3,88.1v16c.5,6.2,5.9,11.3,12.1,10.9,6.1,0,12.9,0,19.3-.4,2.2-1.1,2.3,1.2,3.6,0,4-.8,9.2.9,13.1-1.6,2.7-2.8,5.3-4.9,5.5-9.2,0-4.4-.1-8.9,0-13.3v-.7c0-1.2-.5-1.8-1.3-1.3.1,5.9.4,12-.3,17.9-1.1,1.9-2.4,3.8-4.2,5.3s-2.6,1.5-4,1.6c-6.2.7-13.8-.4-19.8,0-4.7-.3-10,.4-14.6-.3-5.5-.8-8.9-7.5-8.1-12.7,0-3.5-.1-7.4,0-10.8.5-1.2,0-1.6-1.5-1.5h.1ZM43.1,89.7l-.4,1.2.5,1.2.4,1.3v2.2c-.1,0-.1,1.1-.1,1.1h-.9c0-2.2-.3-4.2-.1-6.2h-1.5c0,4.7-.3,9.4.1,14,0,2.7,1.9,3.9,3.4,5.8.7-.3,1.3-.5,2-.9-2-.5-3.9-3-3.9-5,.5-1.2-1.1-6.3.9-5.9v1.1c-.4.8-.4,1.8.1,2.7l.5,1.2h-.9v1.1l.9.3v.8c0,1.3,1.1,2.3,2.7,2.8h2.7c-2,.8-2.3,1.3-2.7,3.4,5-1.1,10.5,0,15.6-.5,4.4,1.2,8-.8,12.1.3h3.8c2.6,0,4-.8,6.1-2.2,1.5-.4,2.6-3.4,2.4-5,1.8-2.2,0-4.2.5-6.6.7-1.8-.5-3.2,0-4.9.7-1.6-.3-2.4-1.6-3.1-.1,1.1-.3,2.3-.4,3.4h-.9c-.1-1.1-.4-2.2-.5-3.2-2.2-1.1-1.5,2-3,2-.3-1.1-.8-1.9-1.5-2.3-.7.4-1.2,1.1-1.5,2.2-.5,0-1.2-.3-1.9-.4-3.6,3.8-8,7.4-11.1,11.7l-1.1.5c-1.1-1.3-2.2-2.4-3-4-2.2-1.1-3.8-2.7-4.9-4.9-2.4-1.1-3.9-3.4-5.9-5.1-.7.3-1.5.5-2.2.9l-1.3-.7h-1.2c0-.1-2.4,0-2.4,0v-.3Z"/>
  <path id="p2" class="cls-4" d="M59,7.5h3.8l2.2.3c2-.8,3.1-.7,5.1-.1h3.2c-.3.9-.3,2,.3,3.2h-.9c0-2-.5-3-1.8-2.6-1.6-.1-3,.4-4,1.6l.4.5h-1.6c-1.6-3.2-6.1-1.8-8.9-1.5-.3,1.1-.3,2,0,3h.5c.9.7,1.9,1.6,2.7,2.7-1.6-.5-3.1-.5-4.6-.3-.5-2.2-1.2-4-.9-6.3.9-.4,4.4-.4,4.4-.4h.1Z"/>
  <path id="p3" class="cls-1" d="M61.3,7.5h-2.3c.7-1.5,1.5-1.5,2.3,0Z"/>
  <path id="p4" class="cls-1" d="M64.8,7.8l-2.2-.3c.8-1.5,1.5-1.5,2.2.3Z"/>
  <path id="p5" class="cls-1" d="M72.2,7.6h-2.2c.7-1.6,1.3-1.6,2.2,0Z"/>
  <path id="p6" class="cls-2" d="M73.3,7.6c1.9-.5,2,3.5.3,3.2-.5-1.2-.5-2.2-.3-3.2Z"/>
  <path id="p7" class="cls-4" d="M56.8,8.8c2.8-.3,7.3-1.8,8.9,1.5h1.6c1.1.8,1.9.8,2.8,1.2-1.6.3-3.4-.3-5.1,0l.9,2.3c-1.3,0-2.7,0-4.2.3v-2.8l-4.4.3h-.5c-.3-.8-.3-1.8,0-2.8h0ZM60.9,9.5c0,1.5,1.2,2,3.5,1.8l-.3-1.5-1.6-.7-1.8.4h.1Z"/>
  <path id="p8" class="cls-1" d="M70.8,8.3c-.5.7-1.9,1.2-4,1.6,1.1-1.2,2.4-1.8,4-1.6Z"/>
  <path id="p9" class="cls-1" d="M60.9,9.5l1.8-.4,1.6.7.3,1.5c-2.3.3-3.4-.4-3.5-1.8h-.1Z"/>
  <path id="p10" class="cls-2" d="M72.5,12.2c1.2,0,1.3.7.7,2.2-2.6,1.2-2.3-.9-.7-2.2Z"/>
  <path id="p11" class="cls-4" d="M53.7,16.9c1.5,0,15.5.5,17.8,0,2.6.1,5-.4,7.4.7,1.1.8.9,1.6.9,2.7-.7,2-1.1,3.8-3.5,2.8,1.5-.5,2.4-1.5,2.8-2.7l-1.1-1.3-.7-1.2c-3.8,0-7.4,0-11.2.4-1.5-.4-3.1-.4-4.9,0h-1.1c0,.1-1.1,0-1.1,0h-2.6c-.3,2.3,0,3,1.3,4.7h-2.3c0-1.6,0-3.2-.3-4.9-2.4-.3-4.2-.4-6.1,1.5.8,1.1,1.3,2.2,1.5,3.4l-1.2-.3c-1.1-2.2-1.6-3.4.1-5.4,1.3-.4,2.7-.5,4-.5h-.1Z"/>
  <path id="p12" class="cls-1" d="M55.3,18.3c0,1.6.1,3.2.3,4.9-1.3.9-3.4.4-4.7,0-.1-1.2-.7-2.3-1.5-3.4,1.9-1.9,3.5-1.8,6.1-1.5h-.1ZM51.8,19.6c-.5,1.2,0,1.9,1.1,2.2,2.6-.7,1.2-3.5-1.1-2.2Z"/>
  <path id="p13" class="cls-1" d="M56.5,18.4h2.6c-1.5,1.2-1.5,2,0,2.4,1.2-.3,1.6-1.1,1.1-2.3h1.1c.1,3.6-.1,4.3,3.9,5.1-2.4.5-4.4-1.1-6.6,0l-.5-.4c-1.2-1.8-1.6-2.4-1.3-4.7h-.1Z"/>
  <path id="p14" class="cls-1" d="M59,18.4h1.1c.5,1.3,0,2.2-1.1,2.4-1.3-.3-1.3-1.1,0-2.4Z"/>
  <path id="p15" class="cls-2" d="M61.1,18.3c1.8-.4,3.4-.4,4.9,0,0,1.1.3,2.2.5,3.4,3.9.4,9,1.6,11.5-2.4l1.1,1.3c-.4,1.2-1.3,2-2.8,2.7-1.2.9-2.3.5-3.6.5-2.6-.3-5,.5-7.5,0-4-.8-3.6-1.5-3.9-5.3v-.3Z"/>
  <path id="p16" class="cls-3" d="M66,18.3c3.8-.4,7.4-.4,11.2-.4l.7,1.2c-2.4,4-7.5,2.8-11.5,2.4-.3-1.1-.4-2.2-.5-3.4h.1Z"/>
  <path id="p17" class="cls-3" d="M51.8,19.6c2.3-1.3,3.8,1.5,1.1,2.2-1.2-.3-1.6-1.1-1.1-2.2Z"/>
  <path id="p18" class="cls-2" d="M37.1,21.8c1.2-.4,2.7,2.7,2.4,3.6.3,3.6,5.8,1.6,6.1,4.9h-3.2c-.5.7-1.2,1.3-2,1.9-1.1.9-1.3,4.6-3.2,4v-3.2c-1.2-.7-2.2-1.6-2.8-2.8h-3.2c-.5-1.6,2.3-2,3.4-2.7.8-.9,1.8-1.8,2.7-2.6v-3.2h0ZM36.1,29.3c.4,1.1,1.2,1.9,2.3,2.2,2.7-1.9,2.4-2.2,0-4.2-.9.3-1.6.9-2.3,2Z"/>
  <path id="p19" class="cls-2" d="M91.6,21.9v3.2c.7.5,1.3,1.2,1.9,2,.9,1.1,4.6,1.3,4,3.2h-3.2c-.7,1.2-1.6,2.2-2.8,2.8-.3,2,.7,3.5-2.2,3-.3-.9-.4-2-.3-3-1.2-.8-2.2-1.8-2.8-2.8h-3.2c-.3-1.8,3.2-2.8,4.7-2.4.1-.9.7-1.9,1.3-2.7.4-2.2-.4-3.6,2.6-3.2h0ZM88,29.3c.5.8,1.3,1.5,2.6,2.2,2.4-1.2,2.8-3,0-4-1.1.5-1.9,1.2-2.6,1.9Z"/>
  <path id="p20" class="cls-4" d="M52.1,26h1.5c-.5,4.7,1.9,11.6-2.8,14.4-1.5,1.5-6.2,5-6.2,5-.9,2.2-3.1,3.1-4.2,5.1-1.5,2.3-2.2,5.9-1.3,8.5-.4.9-.9,1.3-1.6,1.5,0-2.8-.7-6.3.8-8.9,1.2-3.8,5.1-6.7,8-9.2l1.1-.9,1.2-1.2,1.1-.9c1.2-1.2,3.1-2.2,2.8-4v-9.3h-.3Z"/>
  <path id="p21" class="cls-4" d="M55.7,26.1c2.3-.5,4.9,1.2,6.6,0l.4,1.3c.3.8.3,2.2.8,2.8-.1,1.2-.7,2.4-1.5,3.5l.7,1.2-1.3.4c.1-1.5.3-3,.3-4.4-.8.5-1.8,1.2-2.6,1.8-.8-.3-1.6-.5-2.4-.8,0,1.1-.1,2.2-.3,3.2l-.8.4c.4-3.2,0-6.5.3-9.2v-.3Z"/>
  <path id="p22" class="cls-2" d="M71.2,25.7h2c.5,5.3-1.3,8.5.7,13.8,1.2,1.2,2.3,2.4,3.2,3.9l-.3,2.3c-2.4-.4-4.7,0-7.1-.5h-1.2c-3.6.3-7.4.5-10.9,0-.7.1-1.3.4-2,.5-.9-.5-1.3-1.1-1.3-1.8.7-.8,1.3-1.3,2.3-1.5,4.3,0,8.8.1,13.1-.1l.4-1.6.8-.9c.7-4.6-.3-9.4.4-14Z"/>
  <path id="p23" class="cls-4" d="M75,25.6c.8.7,1.2,1.5,1.1,2.4-.1,2.8,0,5.7,0,8.4,3.9,5,9.6,8.8,13.5,13.8,1.6,3.4,1.1,6.3,1.6,10l-1.3-.3c-.4-2.7.5-6.3-1.2-8.5-.5-2.6-3.4-4-4.9-6.1-2.2-2-4.6-4.6-7.3-6.1-2.7-3.8-1.1-9.2-1.6-13.8h.1Z"/>
  <path id="p24" class="cls-4" d="M62.7,27.4c4.4-.4,2,2.6,3.2,5.4-.8-.9-1.6-1.8-2.4-2.6-.7-.7-.5-2-.8-2.8Z"/>
  <path id="p25" class="cls-4" d="M38.3,27.3c2.4,2,2.7,2.4,0,4.2-1.1-.4-1.8-1.1-2.3-2.2.5-1.1,1.3-1.8,2.3-2Z"/>
  <path id="p26" class="cls-4" d="M90.5,27.3c3,1.1,2.6,2.8,0,4-1.2-.5-2-1.3-2.6-2.2.7-.8,1.5-1.3,2.6-1.9Z"/>
  <path id="p27" class="cls-2" d="M67.6,30.5h.8v.8h-.8v-.8Z"/>
  <path id="p28" class="cls-1" d="M56.7,31.8c.8.3,1.6.5,2.4.8.8-.5,1.8-1.2,2.6-1.8,0,1.5,0,3-.3,4.4h-2.4l-.3-.9h-.8v.8h-1.6c0-1.1.3-2.2.3-3.2h.1Z"/>
  <path id="p29" class="cls-4" d="M57.9,34.3h.8l.3.8h-1.1s0-.8,0-.8Z"/>
  <path id="p30" class="cls-1" d="M55.5,35.4l.8-.4h5l1.3-.3c2.3-.3,5-.5,7,.4,0,1.8,0,3.5.1,5.3l-.4,1.6c-4.3.4-8.8,0-13.1.1-.8,0-1.6.7-2.3,1.5,0,.7.4,1.2,1.3,1.8.7-.1,1.3-.4,2-.5,3.5.7,7.3.4,10.9.1l.3.8h.8v-.8c2.4.4,4.7,0,7.1.5l.3-2.3c1.8,1.6,9.4,4.9,9.8,10,.1,1.9-.3,2.7-1.3,2.4-.4-2.2,0-4.2-2.7-4.9-.4,1.1.8,5.4-1.1,5,0-1.2-.3-2.3-.3-3.5l-2.2-.7c0-1.9-1.1-2.6-2.6-3.5-.8.5-1.6,1.2-2.3,1.9,1.1,1.8,2.6,2.7,3.2,4.9-.3.9-.9,1.8-1.8,2.6l.8.9v.9c.1,0-1.1.4-1.1.4-2.7-2.7-5.8-5-8.4-7.8-1.1-.8-2.2-2.8-3.6-2.4-3.8,3.6-7.8,6.7-11.3,10.8-1.5.4-3,.3-4.6,0,1.2-2.8-2.2-2.8-.9,0l-2.8.3c.3-1.3,0-2.2-.9-2.6l-.7-1.1c-.1.9-.3,1.9-.4,2.8h-1.5v-3.6c2.8-.8-.5-4.2,3.8-5.3v5.1c.8-.5,1.6-1.1,2.4-1.6-.1,2,.3,3,1.2,2.7,0-1.8-.5-4.2.3-5.8,2-1.6,3-4,5.7-4.2v-.9c-2,0-4.2.1-6.3-.3,1.2-1.2,2.4-2.6,3.8-3.5,2.8.9,7.3-4,4-6.3v-.7h.4ZM80.8,47.4v.9h.9v-.9h-.9ZM50.6,53.5v1.1h1.1v-1.1h-1.1ZM50.6,57.1c-.7,1.6-.3,2.3.9,2.2.7-1.6.3-2.3-.9-2.2Z"/>
  <path id="p31" class="cls-2" d="M35,36.6h.7c.1.9.5,1.9,1.1,2.7-.4,1.1-.8,2.2-1.1,3.1-1.5-1.1-2.6-1.1-2-3.4.9-.1,1.5-.9,1.5-2.4h-.1Z"/>
  <path id="p32" class="cls-4" d="M55.5,36.1c3.2,2.3-1.2,7.1-4,6.3,1.8-1.8,4.9-3.4,4-6.3Z"/>
  <path id="p33" class="cls-2" d="M93.8,36.6c0,1.3.5,2.2,1.5,2.4.7,1.3-.9,3.4-2.2,3.5-.5-.8-.9-1.6-1.5-2.4,1.2-.7.9-4.2,2.2-3.4h0Z"/>
  <path id="p34" class="cls-1" d="M49.3,39.3l-1.1.9,1.1-.9Z"/>
  <path id="p35" class="cls-1" d="M48.3,40.2l-1.2,1.2,1.2-1.2Z"/>
  <path id="p36" class="cls-2" d="M47.1,41.5l-1.1.9,1.1-.9Z"/>
  <path id="p39" class="cls-4" d="M68.7,45.2h1.2v.7h-.8l-.3-.7h-.1Z"/>
  <path id="p40" class="cls-1" d="M47.6,45.9c1.1.8-3.4,5.9-3.5,2.4,1.1-.8,3.5-2.4,3.5-2.4Z"/>
  <path id="p41" class="cls-4" d="M47.6,45.9c2.2.4,4.3.4,6.5.3v.9c-2.8.3-3.9,2.6-5.9,4.2-.8,1.6,0,3.9-.3,5.8-.9.3-1.3-.5-1.2-2.7-.8.5-1.6,1.1-2.4,1.6,0-1.8.1-3.4,0-5.1-4.2,1.1-.9,4.4-3.8,5.3.1-2.8,1.2-5.9,3.4-7.8,0,3.5,4.6-1.6,3.5-2.4h.3Z"/>
  <path id="p42" class="cls-2" d="M80.8,47.4h.9v.9h-.9v-.9Z"/>
  <path id="p43" class="cls-4" d="M77,48.2c1.5.9,2.4,1.6,2.6,3.5l-1.3.5-.4,2.6c-.7-2.2-2.2-3.1-3.2-4.9.8-.7,1.6-1.2,2.3-1.9h.1Z"/>
  <path id="p44" class="cls-2" d="M83.1,50.9c2.7.7,2.3,2.7,2.7,4.9,1.1.3,1.5-.5,1.3-2.4.4,2.3,1.8,5.4-.7,6.9-1.6.7-3-.4-4.4-.8-2,.9-3.9,1.5-6.1.4l1.2-.4.8-.3v-.8h-1.1l-.8-.9c.9-.8,1.5-1.8,1.8-2.6l.4-2.6,1.3-.5,2.2.7c0,1.2.3,2.3.3,3.5,1.9.4.7-3.8,1.1-5ZM79.6,53.5v.9h.9v-.9h-.9ZM80.9,57v.9l.9.4.9-.4v-.9l-.9-.4-.9.4ZM84.4,57.1c-.7,1.6-.4,2.3.9,2,.7-1.6.4-2.3-.9-2Z"/>
  <path id="p45" class="cls-4" d="M63.8,51.7c2.8,1.6,5.3,4.9,7.8,7,3,3.5,7.1,6.5,9.7,10.2-1.3.7-1.5,1.5-.3,2.7v11.3l-.7.9c-.9-5.1,0-10.8-.8-16.2-5.4-4.3-10-9.7-15.1-14.6-3.1,1.1-5.9,5.9-9,7.8-1.1,1.9-3,2.4-4,4.2l-.9.9,1.1.9,1.2-.9-1.3-.9c1.3.8,2.7.3,3.9-1.8.7,1.2,1.3,2.3,2.2,3.5,1.8-.9,3.5-1.5,5.1-2.4,1.5.5,2.8-.9,3.5.9l1.5.4c-.4-2.6.7-3.2,2.3-5,1.6,2.4,4,4.3,5.8,6.9v1.3c.4.8.8,1.6,1.2,2.6-1.8.3-5.3-1.2-5.1,1.6,1.8.4,3.6,0,5.4.3v4.7c-1.6.4-3.5-.5-5.3-.3v2.2c1.8-.3,3.2-.3,4.7,0-.1.9-.4,2-.4,3.1-1.6,1.5-2.7,4.2-4.9,4.7,2.3-3.2,0-5.7-3.2-3.8-1.3-2.4,0-1.9,1.5-3.8,0-2.3.4-4.2-1.3-6.1-1.6-1.6-3.9-1.2-5.9-1.6,2.7-3.2,7,.3,6.3-4.3-7.7-4.2-14.6,8.9-8.5,14.2l.9.4c1.9,1.5,3.4,1.5,4.7,0,.8.5,1.3,1.3,1.9,2.3-2.8.3-8.4,1.3-9.4-2.4-2.6,0-2.8,3-4.2,3.8-1.5-2.2-4.9-3.5-4.2-6.5.4-4-.8-8.6.9-12.4v-.8l-1.6.5v.8l-.9.7-1.1-.3c5.4-5.5,11.5-10.9,16.6-16.7v-.3ZM71,66.5c0-.9-.5-1.9-1.6-2.8-2.4.4-.1,3.6,1.6,2.8ZM72.5,67.1c-.8,1.2.7,3.6,2,2.8.9-1.2-.7-3.5-2-2.8ZM52.2,71.9c-.4,1.5,3.6,1.8,4.2.8.3-2.3-3-.8-4.2-.8ZM52.1,79.6c1.6,0,4.4.8,4.4-1.6l-3.4-.3.8-1.1,1.6-.4.7-1.3c-1.5,0-3.6-1.5-4.6.4,1.5,1.8.7,2.4.4,4.4h0ZM72.2,76.1c2.7.8,4,.5,4.2-1.1,0-1.2-5.3-.4-4.2,1.1ZM53.2,81.2c-.4.9,0,1.6,1.2,2.2,2.3-.1.7-3.4-1.2-2.2ZM73.5,81.4l-.4.9.5.9c1.3,0,1.5-.5.8-2h-.9Z"/>
  <path id="p46" class="cls-4" d="M50.6,53.5h1.1v1.1h-1.1v-1.1Z"/>
  <path id="p47" class="cls-2" d="M64.1,53.5c5,4.9,10.5,11.2,15.9,15.5.7,5.4-.3,9.8.7,15-.4.7-.9,1.3-1.5,2-4.4,3.5-10.9,11.2-15.1,14.2-5.1-4.4-9.4-9.8-14.7-14.2-1.5-1.9-3-3.5-2.6-6.1.3-3.6-.5-8.2.4-11.6l1.1.3.9-.7,1.8-.4c-1.6,3.6-.5,8.4-.9,12.4-.7,3,2.7,4.2,4.2,6.5,1.5-.8,1.8-3.8,4.2-3.8,1.2,3.6,6.6,2.6,9.4,2.4-.5-.9-1.2-1.6-1.9-2.3-1.3,1.3-2.8,1.3-4.7,0h4.7c1.3-.8,2.4-1.9,3.8-2.7-1.3,1.9-2.8,1.3-1.5,3.8,3.2-1.9,5.5.5,3.2,3.8,2.2-.5,3.2-3.2,4.9-4.7,0-1.1.3-2,.4-3.1-1.5-.3-3-.3-4.6,0v-2.2c1.6-.3,3.5.7,5.1.3v-4.7c-1.8-.4-3.6,0-5.4-.3,0-2.8,3.5-1.3,5.1-1.6-.4-.8-.8-1.6-1.2-2.6h.8c0-.1-.8-1.3-.8-1.3-1.8-2.4-4.2-4.4-5.8-6.9-1.6,1.6-2.7,2.4-2.3,5l-1.5-.4c-.7-1.9-2-.4-3.5-.9-1.6.9-3.5,1.6-5.1,2.4-.7-1.2-1.5-2.4-2.2-3.5-1.2,2-2.6,2.6-3.9,1.8,2-2,9.4-9.3,12.3-11.7l.3.4ZM62.9,59.5h-3.6l-.4,2.2c2.3-1.5,5,.7,6.6-.7,2.4,1.3,2,0,3.2-1.5l-3.4.3c.4-1.5,0-2.7-.9-3.6-1.3,1.2-1.5,1.6-1.6,3.5h.1ZM70,84.9v.8h.8v-.9h-.8ZM67.5,86.2v1.5h1.2v-1.6h-1.2ZM55.7,86.1c-.3,1.3.4,2.6,2,3.6,1.2,1.3,3.9,1.6,5.7,1.3v1.8c.7-.7,1.6-.3,2.7,1.3-.4-1.2-.7-2.4-.5-3.5,3,1.1,4,.4,5.7-2l-1.5-1.1c-.7.7-1.5,1.3-2.2,2-.7-.4-1.3-.7-2-1.1-2.3,2.2-2.6,1.8-3.4-1.1-3.4.7-3.5,1.2-6.2-1.3h-.3Z"/>
  <path id="p48" class="cls-1" d="M79.6,53.5h.9v.9h-.9v-.9Z"/>
  <path id="p49" class="cls-2" d="M92.8,53.1l1.2.4v46l-.9-1.6v-44.9h-.3Z"/>
  <path id="p50" class="cls-4" d="M64.5,56c.9.9,1.3,2.2.9,3.6l3.4-.3c-1.2,1.6-.8,3-3.2,1.5-1.6,1.3-4.3-.8-6.6.7l.4-2h3.6c0-1.9.1-2.4,1.6-3.6h-.1Z"/>
  <path id="p51" class="cls-2" d="M50.6,57.1c1.2-.3,1.5.5.9,2.2-1.2.3-1.5-.5-.9-2.2Z"/>
  <path id="p52" class="cls-3" d="M80.9,57l.9-.4.9.4v.9l-.9.4-.9-.4v-.9Z"/>
  <path id="p53" class="cls-3" d="M84.4,57.1c1.2-.1,1.6.5.9,2-1.3.3-1.6-.5-.9-2Z"/>
  <path id="p54" class="cls-2" d="M43.3,58c.9.4,1.2,1.3.9,2.6h-1.1l-.4-1.2s.5-1.3.5-1.3Z"/>
  <path id="p55" class="cls-4" d="M47.9,60.3h-.9c-1.2-2.8,2-2.8.9,0Z"/>
  <path id="p56" class="cls-3" d="M76.9,58.4h.9v.7l-.8.3v-.9h-.1Z"/>
  <path id="p57" class="cls-4" d="M37.3,62.1c4.4,0,8.6.7,12.9.1.8,2.6-3.5,1.2-4.9,1.3-1.1,1.6-1.1,2.7,0,3.5v13.6l-1.1-1.9c-1.3,0-2.7-.1-4-.1v-1.2c1.5,0,2.8,0,4.2-.3v-7.1c-3.5.8-.3,4.9-2.7,6.1-.7-.4-1.2-.8-1.9-1.3-.3,1.2-.7,2.3-1.2,3.4l1.2,1.6-1.3.3v1.1c.1,0,1.5.7,1.5.7l1.3-.3-.3-.9c.7-.1,1.3-.1,2,0l-1.2.5c.5,1.5,1.8,1.9,3.8,1.3-2.3,3.6,1.1,4.6,3.8,3.5-.3.5-.5.9-.9,1.5-3.6-1.2-7.5-.5-11.1-1.8v-.9c.9.4,5.1,1.5,4.7-.8-1.1-2.6-3.6.5-5.4-2,.8-.8.9-1.9.4-3.2v-13.3c2.3.7,4.4.3,6.7.5v-2.3c-2.2.4-4.2-.4-6.5,0l-.3-1.5h.1ZM39.8,68.8c.9.3,5.1.9,4.6-.9-1.5-.8-4.9-2.2-4.6.9ZM39.8,73.7c2.3-.1,3.8-4.3-.3-3.6-2.4-.1.5,2.3.3,3.6ZM43.5,84.9c.5,2,.8,1.6.5-.8l-.5.8Z"/>
  <path id="p58" class="cls-4" d="M78.5,62.4c4.3.1,8.8.4,13.1,0-.4.7-.9.9-1.8.9-3.8-.1-7.4.1-11.2.4v-1.3h-.1Z"/>
  <path id="p59" class="cls-1" d="M69.5,63.8c1.1.9,1.6,1.9,1.6,2.8-1.8.8-4-2.3-1.6-2.8Z"/>
  <path id="p60" class="cls-1" d="M50.7,66.1l.9-.9,1.3.9-1.2.9s-1.1-.9-1.1-.9Z"/>
  <path id="p61" class="cls-4" d="M83.9,66.1c2.4,0,4.7,0,7.1-.4-.4,5.7,0,11.5-.3,17.1-2.6,0-4.4-.7-7,.3,1.2-2-.5-4.6.3-6.9-.4-3.4,0-6.9-.3-10.2h.1ZM88,73.8c1.5,0,1.5-3.5,1.9-4.7-3-2.2-3.4,3.1-1.9,4.7ZM84.7,70.2l-.3,1.9.9,1.3c1.6-1.3,1.6-2.7.1-4.2l-.8.9ZM86.2,75.2l-.5.9c1.5,2.2,2.7,2.8,3.5,2,0-2-.9-3-3-3ZM84.9,76.8c-.9,2.4-.5,3.4,1.2,2.8l.7-1.8-.8-1.2h-1.1ZM87,79.1v1.9h2l-.3-2.2-1.9.3h.1Z"/>
  <path id="p62" class="cls-1" d="M44.4,67.9c.7,1.9-3.6,1.1-4.6.9-.3-3,3.1-1.8,4.6-.9Z"/>
  <path id="p63" class="cls-4" d="M72.5,67.1c1.3-.5,3,1.8,2,2.8-1.5.7-2.8-1.8-2-2.8Z"/>
  <path id="p64" class="cls-1" d="M50.6,66.3l.9.8-.7.4-1.8.4,1.3-1.8h.1Z"/>
  <path id="p65" class="cls-3" d="M68.9,68c.7,4.7-3.6,1.1-6.3,4.3,2,.4,4.3,0,5.9,1.6,1.8,1.8,1.3,3.8,1.3,6.1-1.3.8-2.4,1.8-3.8,2.7h-4.7l-.9-.4c-6.2-5.3.8-18.5,8.5-14.2h0ZM64.4,76c-1.5.3-2,.9-2.4,2.3,1.1,1.3,1.9,2.2,3.8,1.1,1.1-1.6.5-3-1.3-3.4Z"/>
  <path id="p66" class="cls-1" d="M76.2,67.6l.8,1.1h-.8c0,.1,0-1.1,0-1.1Z"/>
  <path id="p67" class="cls-2" d="M81.5,69l.3,1.3-.5,1.3c-1.2-1.2-1.2-2.2.3-2.7Z"/>
  <path id="p68" class="cls-1" d="M89.8,69.1c-.5,1.2-.4,4.9-1.9,4.7-1.3-1.6-1.1-6.9,1.9-4.7Z"/>
  <path id="p69" class="cls-1" d="M39.6,70c4-.7,2.6,3.5.3,3.6.3-1.3-2.8-3.8-.3-3.6Z"/>
  <path id="p70" class="cls-1" d="M44.4,70.3v7.1c-1.3.1-2.7.3-4.2.3v1.2c1.3,0,2.6,0,3.9.1l1.1,1.9-.7,1.1-1.5-1.2h-2l-1.2-.8-1.2-1.6c.7-.9,1.1-2.2,1.2-3.4.7.4,1.3.8,1.9,1.3,2.4-1.2-.7-5.3,2.7-6.1Z"/>
  <path id="p71" class="cls-1" d="M84.7,70.2l.8-.9c1.5,1.5,1.5,3-.1,4.2l-.9-1.3.3-1.9Z"/>
  <path id="p72" class="cls-1" d="M52.2,71.9c1.2,0,4.4-1.3,4.2.8-.7.8-4.6.5-4.2-.8Z"/>
  <path id="p73" class="cls-2" d="M56.3,74.8l-.7,1.3-1.6.4-.8,1.1,3.4.3c0,2.4-2.8,1.6-4.4,1.6.3-2,1.2-2.7-.4-4.4.8-1.9,3.1-.4,4.6-.4h0Z"/>
  <path id="p74" class="cls-1" d="M76.5,75c-.1,1.6-1.6,1.9-4.2,1.1-1.1-1.5,4.2-2.3,4.2-1.1Z"/>
  <path id="p75" class="cls-4" d="M64.4,76c1.9.4,2.3,1.8,1.3,3.4-1.8,1.1-2.6.3-3.8-1.1.4-1.3.9-2,2.4-2.3Z"/>
  <path id="p76" class="cls-1" d="M86.2,75.2c2,0,3,.9,3,3-.8.8-2,.1-3.5-2l.5-.9Z"/>
  <path id="p77" class="cls-1" d="M84.9,76.8h1.1c0-.1.8.9.8.9l-.7,1.8c-1.8.5-2.2-.4-1.2-2.8h0Z"/>
  <path id="p78" class="cls-1" d="M87,79.1l1.9-.3.3,2.2h-2.2v-1.8h0Z"/>
  <path id="p79" class="cls-1" d="M38.3,80.2l1.3-.3,1.2.8.3.9-1.3.3-1.3-.7v-1.1h-.1Z"/>
  <path id="p80" class="cls-4" d="M53.2,81.2c1.8-1.3,3.4,1.9,1.2,2.2-1.1-.5-1.5-1.2-1.2-2.2Z"/>
  <path id="p81" class="cls-4" d="M73.5,81.4h.9c.8,1.3.5,2-.8,1.9l-.5-.9s.4-.9.4-.9Z"/>
  <path id="p82" class="cls-3" d="M43.5,84.9l.5-.8c.1,2.6,0,2.8-.5.8Z"/>
  <path id="p83" class="cls-4" d="M70,84.9h.9v.9h-.9v-.9Z"/>
  <path id="p84" class="cls-1" d="M83.6,85.7h.3c2.6.1,5-.5,7.5-.5-2.3,3.1-8.4,0-11.3,2.7l-.8-1.9c1.1.7,2.6.7,4.4-.3h-.1Z"/>
  <path id="p85" class="cls-4" d="M67.5,86.2h1.2v1.3h-1.2v-1.3Z"/>
  <path id="p86" class="cls-4" d="M55.7,86.1c2.7,2.4,2.8,1.9,6.2,1.3.8,2.8,1.2,3.2,3.4,1.1.7.4,1.3.7,2,1.1.7-.7,1.5-1.3,2.2-2l1.5,1.1c-1.6,2.4-2.7,3-5.7,2,0,1.1,0,2.3.5,3.5-1.1-1.5-2-2-2.8-1.3v-1.8c-1.6.3-4.2,0-5.4-1.3-1.5-.9-2.2-2.2-2-3.6h.1Z"/>
  <path id="p87" class="cls-4" d="M37.3,88.1c1.5-.1,2,.3,1.5,1.5.1,15.1-1.5,20.9,8.1,23.5,4.6.7,10,0,14.6.3,6.7-.4,15.2.8,21.8-.3,8.1-3.1,5.9-18.3,5.8-24.3.8-.4,1.9,0,1.9,1.1v.7c-.3,4.4,0,8.9,0,13.3-.3,3.5-1.9,6.1-3.9,8.4s-2.4,1.9-3.9,2.2c-8,1.5-28.3.4-33.6.4-6.2.4-11.6-4.7-12.1-10.9v-16,.3Z"/>
  <path id="p88" class="cls-2" d="M43.1,89.7h2.4c-.5,1.1-1.3,2-2.3,2.3l-.5-1.2.4-1.2h0Z"/>
  <path id="p89" class="cls-1" d="M45.5,89.6h1.2c0,.1.5,1.2.5,1.2l.9-.3c.7-.3,1.5-.5,2.2-.9,2,1.8,3.5,4,5.9,5.1,1.1,2.2,2.7,3.8,4.9,4.9.8,1.5,1.9,2.7,3,4l1.1-.5h1.1c-.9,1.2-1.2,2.3-.9,3.2,1.1.5,2.3.9,3.4,1.5v-2l.9-.4.5,2.4c.8-.4,1.5-.7,2.3-1.1,2.2,1.3,4.6-.4,7-.3.8-.8,1.8-1.6,2.4-2.6.1-1.1.3-2.2.4-3.2.8.4,1.5.8,2.3,1.2v.8c-1.8,1.1-.7,3.2-2.2,4.2-2.3,1.8-4.6,2.3-7.4,2.3v2.2c-4.4-.9-8,1.1-12.4-.3-5.1.5-10.7-.5-15.6.5.4-2,.7-2.6,2.7-3.2-2-3.1-1.6-4.4-1.5-8-1.9,1.2-1.5,1.5-3.4.3l-1.2,1.3c-.5-.9-.5-1.9,0-2.7l.8-.4v-.8c-.1,0-.9.1-.9.1-1.9-.4-.4,4.7-.9,5.9l-1.5.3c-.4-4.6,0-9.3-.1-14h1.5c0,2,.3,4.2.1,6.2h1.8c0,.1,0-.8,0-.8l-.8-.3v-1.2c3,1.1,3-2.3.1-.9l-.4-1.3c.9-.4,1.8-1.2,2.3-2.4ZM46.8,92.2v1.1h1.2v-1.1h-1.2ZM47.1,94.7q.4.4,0,0ZM47,97c-.5,1.8-.3,2.4.9,2.2.5-1.8.3-2.6-.9-2.2ZM54,97c-1.1-.3-2.2-.3-3.4,0,.3,2.8,3.1,2.8,3.4,0ZM51.7,102.9v1.1h1.1v-1.1h-1.1ZM59,104.2v1.1h1.1v-1.1h-1.1ZM50.5,107.9c-.9,1.6,4.4,1.6,3.5,0-1.2-.4-2.4-.4-3.5,0Z"/>
  <path id="p90" class="cls-4" d="M46.7,89.7l1.3.7-.9.3-.5-.9h.1Z"/>
  <path id="p91" class="cls-2" d="M79.5,89.5c.7.4,1.2,1.2,1.5,2.3,1.5,0,.7-3.1,3-2,.1,1.1.4,2.2.5,3.2h.9c.1-1.2.3-2.3.4-3.4,1.3.7,2.3,1.5,1.6,3.1-.5,1.6.7,3.1,0,4.9-.7,2.3,1.2,4.3-.5,6.6l-1.6.8-.9.5v3.5c-2,1.3-3.5,2.3-6.1,2.2-.9-1.9-1.8-1.9-2.6,0h-1.2v-2.3c3,0,5.3-.4,7.5-2.3,1.5-.9.4-3.2,2-4.2h2.3v-.9h-2.3c-.8-.4-1.5-.8-2.3-1.2,0,1.1-.3,2.2-.4,3.2-.8.8-1.6,1.8-2.4,2.6-2.4,0-4.9,1.6-7,.3-.8.3-1.5.7-2.3,1.1l-.5-2.4v-2c.1,0-.9-.5-.9-.5l-1.1.5v.9c.1,0,1.2,1.6,1.2,1.6v2c-1.2-.5-2.3-.9-3.5-1.5-.3-.9,0-2,.9-3.2h-1.1c3.1-4.2,7.4-7.8,11.1-11.6.5,0,1.2.3,1.9.4.3-.9.8-1.8,1.5-2.2h.4ZM80.8,93.4v.9h.9v-.9h-.9ZM84.4,94.6c-.7,1.5-.4,2.2.9,2,.7-1.5.4-2.2-.9-2ZM75.7,96.7l-.9.5.5.9.7,1.2.4.8.8-.4,1.2-.5.9-.4v-.9l-.8-1.2-.5-.8h-.9c0,.1-1.3.8-1.3.8ZM69.9,100.4c1.6,0,2.4-.7,2.2-2.3-1.6,0-2.3.7-2.2,2.3ZM82.2,98.2v.9h1.1v-.9h-1.1ZM84.3,98.2v.9h.9v-.9h-.9ZM73.5,100.6v.9h.9v-.9h-.9ZM79.6,100.6c-.5,1.6-.3,2.3.9,2.2.7-1.6.3-2.3-.9-2.2ZM71.1,101.9v.9h.9v-.9h-.9ZM76.2,103.1v2h.8c1.1-.4,1.5-1.1,1.2-2.3v-.9l-1.2-.4-.9.5v1.1h.1ZM72.3,105.2c1.5,0,2.3-.7,2.3-2.3-1.6-.1-2.4.5-2.3,2.3Z"/>
  <path id="p92" class="cls-4" d="M91.1,90v.7-.7Z"/>
  <path id="p93" class="cls-4" d="M46.8,92.2h1.1v.9h-1.1v-.9Z"/>
  <path id="p94" class="cls-4" d="M43.6,93.4c2.7-1.3,2.8,2.2,0,.9v-.9Z"/>
  <path id="p95" class="cls-3" d="M80.8,93.4h.9v.9h-.9v-.9Z"/>
  <path id="p96" class="cls-1" d="M47.1,94.7q.4.4,0,0Z"/>
  <path id="p97" class="cls-3" d="M84.4,94.6c1.3-.1,1.6.5.9,2-1.3.1-1.6-.5-.9-2Z"/>
  <path id="p98" class="cls-4" d="M43.5,95.5l.8.3v.9h-.8v-1.1h0Z"/>
  <path id="p99" class="cls-4" d="M76.9,96.1l.5.8h.9l.7,1.1-.8,1.3-1.2.5-1.3-.5-.7-1.2.4-1.5,1.3-.7h.1Z"/>
  <path id="p100" class="cls-1" d="M76.9,96.1h.9c0-.1.5.7.5.7h-.9l-.5-.7Z"/>
  <path id="p101" class="cls-4" d="M47,97c1.2-.4,1.5.4.9,2.2-1.2.3-1.5-.4-.9-2.2Z"/>
  <path id="p102" class="cls-4" d="M50.6,97c1.1-.3,2.2-.3,3.4,0-.3,2.8-3.1,2.8-3.4,0Z"/>
  <path id="p103" class="cls-1" d="M74.7,97.3l.9-.5-.4,1.5s-.5-.9-.5-.9Z"/>
  <path id="p104" class="cls-4" d="M43.3,98.2h.7c0-.1.1.7.1.7l-.8.4v-1.1Z"/>
  <path id="p105" class="cls-1" d="M72,98.1c.1,1.6-.5,2.4-2.2,2.3,0-1.5.7-2.3,2.2-2.3Z"/>
  <path id="p106" class="cls-1" d="M79.2,97.9v.9l-.8.4.8-1.3Z"/>
  <path id="p107" class="cls-1" d="M82.2,98.2h.9v.9h-.9v-.9Z"/>
  <path id="p108" class="cls-3" d="M84.3,98.2h.9v.9h-.9v-.9Z"/>
  <path id="p109" class="cls-1" d="M75.8,99.3l1.3.5-.8.4-.4-.8h-.1Z"/>
  <path id="p110" class="cls-4" d="M44.7,100.6c1.9,1.2,1.5.9,3.4-.3-.1,3.5-.5,4.9,1.5,8h-2.7c0-2-.9-3-2.7-3v-2.2l-.5-1.2,1.2-1.3h-.1Z"/>
  <path id="p111" class="cls-1" d="M73.5,100.6h.9v.9h-.9v-.9Z"/>
  <path id="p112" class="cls-1" d="M79.6,100.6c1.2-.3,1.5.4.9,2.2-1.2.3-1.5-.4-.9-2.2Z"/>
  <path id="p113" class="cls-1" d="M71.1,101.9h.9v.9h-.9v-.9Z"/>
  <path id="p114" class="cls-1" d="M76.1,102l.9-.5,1.1.4v.9l-2,.3s0-1.1,0-1.1Z"/>
  <path id="p115" class="cls-3" d="M84.4,101.7h1.2v.9h-1.2v-.9Z"/>
  <path id="p116" class="cls-1" d="M85.5,101.7h.9v.9h-1.1v-.9h.1Z"/>
  <path id="p117" class="cls-1" d="M43.2,103.3h.9v1.3l-.9-.3v-1.1Z"/>
  <path id="p118" class="cls-4" d="M51.7,102.9h1.1v1.1h-1.1v-1.1Z"/>
  <path id="p119" class="cls-1" d="M67.5,103.1l1.1-.5,1.1.5v1.1h-2v-1.1h-.1Z"/>
  <path id="p120" class="cls-1" d="M74.6,103.1c0,1.5-.7,2.3-2.3,2.3,0-1.6.7-2.4,2.3-2.3Z"/>
  <path id="p121" class="cls-4" d="M76.2,103.1l2-.3c.3,1.1-.1,1.9-1.2,2.2l-.8-.9v-1.1h0Z"/>
  <path id="p122" class="cls-4" d="M41,104.4l1.5-.3c0,2.2,1.9,4.6,3.9,5-.7.4-1.3.8-2,.9-1.6-1.9-3.4-3.2-3.4-5.8h0Z"/>
  <path id="p123" class="cls-4" d="M59,104.2h1.1v1.1h-1.1v-1.1Z"/>
  <path id="p124" class="cls-4" d="M67.6,104h1.9v1.1l-.8.4-.9-1.6h-.1Z"/>
  <path id="p125" class="cls-1" d="M76.2,104l.8.9h-.8v-.9Z"/>
  <path id="p126" class="cls-1" d="M86.9,104.3c0,1.5-.9,4.4-2.4,5v-2.4l.8-.5v-1.1l1.6-.8h0Z"/>
  <path id="p127" class="cls-1" d="M44,105.4c1.9,0,2.7.9,2.7,2.8-1.8-.5-2.7-1.5-2.7-2.8Z"/>
  <path id="p128" class="cls-3" d="M84.3,105.6l.9-.5v1.1l-.9.5v-1.1Z"/>
  <path id="p129" class="cls-4" d="M50.5,107.9c1.1-.4,2.3-.4,3.5,0,.9,1.6-4.4,1.5-3.5,0Z"/>
  <path id="p130" class="cls-1" d="M78.4,111.3h-2.6c.8-1.9,1.6-1.9,2.6,0Z"/>
  <path class="cls-3" d="M80,85.2c.3-2.1.3-3.8,0-5.3-.3-2.3-1.8-9.1-5.7-12.2,0,0,3.6-6.4,3.6-7.8-9.4-6.4-20.3-5.8-26.4,2-4.7,5.5-5,9.5-5.4,12.2-.4,2.7,0,8.7.3,9.1.7,3.6,2.1,6.1,2.7,6.8,2.7,3.6,6.7,6,11.1,7.1,6,1.4,12.2-.7,16.6-4.8s.3-.3.4-.6c.9-1.1,2.1-3.6,2.8-6.5M69.9,92.6c-6.3,2.7-13.9.9-17.9-4.8-5.8-9.1-3-24,7.4-28.9,4.3-1.8,8.1-1.3,12.1.1s3.1,3.3,2.1,5.3,0,0,0,0c-.7,1.4-2.1,2.3-3.7,2.1s-3.8-.3-5.8,0-1.1.3-1.6.6c-1.6,1-3,2.4-4.4,3.7,3.7-.4,8.7-1.8,12.4-.4,8.8,3.4,8.1,18.6-.4,22v.3Z"/>
  <path id="p52-2" class="cls-4" d="M75.3,60.6c-1,2-1.8,4.1-2.8,6.1-1.8,0-3.8-.3-5.7-.3s-4.7.9-6.4,2.4-1.6,1.4-2.3,2.1c3.7-.4,8.7-1.8,12.4-.4,8.8,3.4,8.1,18.6-.4,22-6.3,2.7-13.9.9-17.9-4.8-5.8-9.1-3-24,7.4-28.9,5.7-2.6,10.7-.4,15.9,1.8h-.1ZM66.9,83.6c.1-.4.4-.7.6-1.1.6-1.1.3-2.6-.7-3.4s-2.3-1.6-3.7-1.8-1.8.1-2.3,1c-.9,1.3-1.1,2.4-1.1,4s.6,1.4,1.3,1.7,1.8.7,2.8,1,2.6,0,3.1-1.3h0Z"/>
  <path id="p71-2" class="cls-3" d="M62.5,77.2c1.8.3,3.3,1.3,4.7,2.3s1.1,1.7.6,2.7-.9,1.6-1.3,2.4-1,1-1.7.7c-1.4-.4-3-1-4.4-1.6s-.7-.6-.7-.9c-.1-2.1.1-3.4,1.4-5s.9-.7,1.4-.6h0Z"/>
</svg>