<?xml version="1.0" encoding="UTF-8"?>
<svg id="_Слой_1" data-name=" Слой 1" xmlns="http://www.w3.org/2000/svg" version="1.1" viewBox="0 0 120 120">
  <defs>
    <style>
      .cls-1 {
        fill: #a1b8b8;
      }

      .cls-1, .cls-2, .cls-3, .cls-4, .cls-5, .cls-6, .cls-7, .cls-8, .cls-9, .cls-10, .cls-11, .cls-12, .cls-13, .cls-14, .cls-15, .cls-16, .cls-17, .cls-18, .cls-19, .cls-20, .cls-21, .cls-22, .cls-23, .cls-24, .cls-25, .cls-26, .cls-27, .cls-28, .cls-29, .cls-30, .cls-31, .cls-32, .cls-33, .cls-34, .cls-35, .cls-36, .cls-37, .cls-38, .cls-39, .cls-40, .cls-41, .cls-42, .cls-43, .cls-44, .cls-45, .cls-46, .cls-47, .cls-48, .cls-49, .cls-50, .cls-51, .cls-52, .cls-53, .cls-54, .cls-55 {
        stroke-width: 0px;
      }

      .cls-2 {
        fill: #6a8689;
      }

      .cls-3 {
        fill: #8eb9bc;
      }

      .cls-4 {
        fill: #35515b;
      }

      .cls-5 {
        fill: #91bcbe;
      }

      .cls-6 {
        fill: #00aeb5;
      }

      .cls-7 {
        fill: #86b1b5;
      }

      .cls-8 {
        fill: #e7efea;
      }

      .cls-9 {
        fill: #2a5a66;
      }

      .cls-10 {
        fill: #0c5b6c;
      }

      .cls-11 {
        fill: #07495a;
      }

      .cls-12 {
        fill: #103948;
      }

      .cls-13 {
        fill: #558088;
      }

      .cls-14 {
        fill: #032d3e;
      }

      .cls-15 {
        fill: #154857;
      }

      .cls-16 {
        fill: #7bbabd;
      }

      .cls-17 {
        fill: #b4cbca;
      }

      .cls-18 {
        fill: #b8cdcc;
      }

      .cls-19 {
        fill: #002b3c;
      }

      .cls-20 {
        fill: #01bec3;
      }

      .cls-21 {
        fill: #002032;
      }

      .cls-22 {
        fill: #015568;
      }

      .cls-23 {
        fill: #001c2d;
      }

      .cls-24 {
        fill: #007987;
      }

      .cls-25 {
        fill: #43848f;
      }

      .cls-26 {
        fill: #acd6d5;
      }

      .cls-27 {
        fill: #dce8e4;
      }

      .cls-28 {
        fill: #233f4c;
      }

      .cls-29 {
        fill: #d3e2df;
      }

      .cls-30 {
        fill: #618d90;
      }

      .cls-31 {
        fill: #89afb1;
      }

      .cls-32 {
        fill: #c0d4d3;
      }

      .cls-33 {
        fill: #083c4d;
      }

      .cls-34 {
        fill: #235360;
      }

      .cls-35 {
        fill: #00a8b0;
      }

      .cls-36 {
        fill: #00394b;
      }

      .cls-37 {
        fill: #072333;
      }

      .cls-38 {
        fill: #00bec3;
      }

      .cls-39 {
        fill: #005669;
      }

      .cls-40 {
        fill: #fefefe;
      }

      .cls-41 {
        fill: #add6d5;
      }

      .cls-42 {
        fill: #9fcaca;
      }

      .cls-43 {
        fill: #faf7f1;
      }

      .cls-44 {
        fill: #2b5f6c;
      }

      .cls-45 {
        fill: #cedad7;
      }

      .cls-46 {
        fill: #8babae;
      }

      .cls-47 {
        fill: #769b9f;
      }

      .cls-48 {
        fill: #1b4553;
      }

      .cls-49 {
        fill: #002f41;
      }

      .cls-50 {
        fill: #708f92;
      }

      .cls-51 {
        fill: #133948;
      }

      .cls-52 {
        fill: #79b0b2;
      }

      .cls-53 {
        fill: #1b4554;
      }

      .cls-54 {
        fill: #0c3545;
      }

      .cls-55 {
        fill: #9fb6b6;
      }
    </style>
  </defs>
  <path id="p1" class="cls-23" d="M53.1,4c5.2-.3,11.4-.3,16.6,0,3.9,1,3.4,6.4,3.6,9.5.8.2,1.5.3,2.3.5,1.8.5,3.3,2,3.6,3.9s.3,3.1,0,4.7c-1.1,2.1-3.1,2.6-5.2,3.8.3,2.9.3,6,.8,9s1,2.4,2.1,3.1,2.9,1.5,4.2,2.1c.5-1.5,1.1-2.9,1.5-4.6s2.1-2.4,3.6-2c5.5,1.6,11.3,1.6,16.8,0s2.9.3,3.4,1.8c.7,2.1,1.5,4.2,2.6,6.2s1,2.9.3,4.4c-1.6,3.9-1.1,8.3-3.6,12.1-2.8,4.2-6.9,6.2-10.4,9.3v9.6c2,0,4.1,0,6-.3-1.3-1.1-2.8-2.3-4.2-3.4,2.1-1.8,3.9-3.8,5.7-5.9,1.8,2.1,3.4,4.1,5.5,5.9-1.3,2.1-2.6,4.1-3.8,6.4h-9.5v3.3h7.5c.2,1.1.3,2.3.5,3.3h-7.8c-.3,6,.5,11.3-3.1,16.6,4.1.2,8.2.2,12.2.2l1.5,2.1c-12.9,0-25.8,0-38.7.7-7.3-.3-14.7-.2-22.2,0-3.9-.3-7.7-.5-11.6-.3s-4.6-1.5-5.4-3.8-1.5-3.8-2-5.9c-.5-5.4,0-10.8,0-16-4.1,0-8.2,0-12.1-.2,0-.8,0-1.6-.2-2.6,4.2,0,8.3,0,12.6-.3.5-5.9,0-11.6,0-17.5s-.5-7.2,1.1-10.8c2.3-4.6,5.5-9,10.8-9.9-.7,1.3-1.1,2.6-2.4,3.4-4.7,3.3-8,9.3-7.5,15v35.6c-.2,3.6,1.3,7.7,4.2,9.8,3.4,1.1,7.7.5,11.1.7,1.1,1.3,2.3,1.5,3.1.5l.5-.5c1,1.1,2,1.1,3.3-.2,1.3,0,2.6,0,3.9.2,1.1,1,2.4,1,3.4,0,9.1-.3,18.1,0,27.2,0,2.8.3,5.2-2.9,5.9-5.4,1-5.7.5-11.9.5-17.8s.2-9.6-.3-14.5c-.8,9.8.2,19.7-.5,29.4-.2,2.8-1.8,4.7-3.1,7h-4.2c1.1-1.6,2.4-3.3,3.8-4.7l.7-1.6c.8-5.4,0-10.4.2-15.8,0-3.1-.3-6.2-.7-9.3-.7,1.5-1.1,2.8-1.8,4.2-.2-1.3-.3-2.8-.5-4.1-.3.8-.7,1.6-1,2.3-.7-.7-1.3-1.3-2-2.1-2.6,1.8-3.9,4.1-4.9,7-3.6,3.1-7.3,5.9-10.6,9.5,1,1.1,2,2.3,2.9,3.4-2,1.6-4.1,3.4-5.9,5.2-.7,1-1.3,2-1.6,3.1,1.8,0,3.4,0,5.2.2h3.8l1.8.3c4.6,0,8.8-1.1,13.2-2.1-2.8,2-4.7,4.6-8.5,4.4-11.7,0-23.7,0-35.4-.3-4.6-.3-7.5-3.9-8.3-8.2,2,1.8,3.8,4.9,6.4,5.7,2.9.5,6,.2,9,.2,3.3.3,6.5,0,9.9,0-2-3.6-5.1-5.9-8.3-8,1.1-1.3,2.3-2.6,3.4-3.8-4.1-4.4-8.5-8.6-12.6-13.2l-.5-.5c-.5-.5-.8-1.1-1.3-1.6l-2.8-1.3h-4.6c0,8.3,0,16.8.7,25.1.5,2.3,2.1,4.2,3.1,6.4-1.8-1-4.1-1.5-5.1-3.4-.8-1.3-.7-3.1-.7-4.6v-38.7c0-4.2,2.4-8.6,5.7-11.4,2.4-2.1,5.7-3.6,8.3-5.5s2.4-2.9,2.4-4.9v-7c-1.5-.8-3.1-1.6-4.2-2.8-.8-2.1-.8-5.1,0-7.3.5-2.3,3.8-2.1,5.7-2.6-.2-4.1-.7-7.8,3.8-9.5l.8-.7ZM59.5,14.5c.3-1.6.8-3.3,1.3-4.9.7,1.3,1.3,2.8,2,4.1.5-.8,1.1-1.5,1.6-2.3.8,1,1.8,2,2.6,2.9-.7-3.3-1.5-4.4-3.8-6.7h5.9c.2,2.1.5,4.1.8,6.2.5-2.8,1.5-5.2-1.3-7.2-4.1-.7-8.3-.5-12.4-.5-2.4-.3-4.9,2.3-4.2,4.9,1.8,2,5.1,2.9,7.7,3.6l-.2-.2ZM45.8,17.2v5.5c5.2.3,10.4.3,15.8.3s3.9.2,5.1-1.5l.3-.5c-3.4-1.3-8.5.3-11.7-1.8,2.3-.3,4.7-.5,7-.7h11.1c-1.6,1.1-3.1,2.1-4.7,3.3,2.1.3,4.2.7,6.4.5,2.3-1,1.5-3.9,1.8-5.9-2.1,0-4.2-.2-6.2-.2h-4.2c-6.7,0-13.7-.8-20.4.5l-.2.3ZM51,25.7c-.7,1-.7,3.3,0,4.4,1.5.7,1.5-5.1,0-4.4ZM53.1,25.2v5.4h5.1c3.1,0,6.4,0,9.5-.2v-4.9c-3.1,0-6,0-9.1-.2h-5.4v-.2ZM69.8,30.6h2.4c0-2,0-3.8-.3-5.7-2.6,1.1-1.6,3.4-2.1,5.7ZM33.4,68c1.1,0,2.6,0,3.8-.5,3.1-2.4,5.2-6.2,8.2-9,5.4-5.4,10.8-10.8,16.1-16.1,5.2,5.2,10.3,10.3,15.5,15.5,2.8,3.3,5.5,6.9,7.8,10.3,1.1-.5,3.1-.7,3.9-1.8,1-3.4-2-5.2-3.6-7.8-3.3-3.9-2.1-9-5.1-12.9-1.5-2.9-4.1-4.4-6.4-6.7-1.1-2-2-4.1-2.9-6.2,0,2.6,0,5.2.3,7.7-2.8-2.4-5.4-3.4-9.1-4.2,1.8-.3,3.8-.5,5.5-.7v-2.1c-5.4,0-10.9-.5-16.3,0-1.3,2.6-1.6,6-4.4,7.3-4.4,2.6-8.6,4.4-11.4,9-3.3,4.9-2,12.4-2.1,18.1l.2.2ZM86.2,45.4c-1.1-1.3-2.3-2.6-3.6-3.9.7,3.6,1.6,6.9,2.3,10.4.7,5.2,5.5,9.1,9.9,11.7,3.4-.8,8.8-5.5,9.8-9,.7-3.9,1-7.8,2-11.7,0-2.1-1.6-4.4-2.4-6.4-6,1.3-10.9,1.5-17.1,0-2.3-.7-2.1,1.3-2.8,2.8-1.1,2.1,1,3.9,2,5.7v.3ZM54.3,53.3c1.8-1,3.6-2.1,5.5-2.9-3.6,4.2-9,4.4-11.9,9.1,1.1-.5,2.3-1.1,3.3-1.8,1.6,1,2.8,2.1,4.9,2.1,5.5.3,10.9,0,16.5-.8-2.6-1-5.4-1.6-8.2-2.4,2-.5,3.9-1,5.9-1.5-2.3-2.4-5.2-4.4-7.2-7.2-.7-.8-1.1-1.8-2.4-1.3-2.4,1.8-4.4,4.2-6.4,6.7ZM41,67.3c1.6,2.9,4.6,6.9,8.5,6.4h23.7c3.1.3,4.7-2.1,6.7-4.2.8-.8.5-2.6-.3-3.3-1.3-1.5-2.8-3.1-4.4-4.4-5.4-.2-10.6,0-16,0s-8.3-.3-12.6,0c-2,1.6-3.8,3.6-5.5,5.4v.2ZM102.2,72.7c-.7,1.1-.3,1.8.8,2.1,2.3-.5,1.1-3.4-.8-2.1ZM48.7,77.7c1,.8,2.1,1.8,3.1,2.6l1,.8,1.1,1c.2,1,.7,2,1.3,2.4l1.6,1.6c1.5-1.3,2.8-2.8,4.2-4.1,1.5,1.3,2.9,2.4,4.4,3.8,3.4-3.1,6.7-6.2,9.6-9.8h-6c-4.1-.3-8.3-.5-12.4-.5h-1.8c-1.8.3-3.4.8-5.1,1.5l-.7.3c.7-1.6-1.5-3.3-1.8-1.1l1.1,1.3.2.2ZM57.2,90.8c1.5,1.1,2.8,2.3,4.1,3.4,1.3-1.1,2.8-2.4,4.1-3.6-1.5-1.3-2.8-2.6-4.1-3.8-1.3,1.3-2.8,2.6-4.1,3.9Z"/>
  <path id="p2" class="cls-43" d="M56,6.1c4.1,0,8.3,0,12.4.5,2.8,2,2,4.4,1.3,7.2-.3-2.1-.5-4.1-.8-6.2h-5.9c2.3,2.3,3.1,3.4,3.8,6.7-1-1-1.8-2-2.6-2.9-.5.8-1.1,1.5-1.6,2.3-.7-1.3-1.3-2.8-2-4.1-.5,1.6-.8,3.3-1.3,4.9-2.6-.7-5.9-1.6-7.7-3.6-.7-2.4,1.8-5.1,4.2-4.9l.2.2ZM54.1,8.1c-1,.3-1.3,1-.7,2,1.6,1.1,2.6-1.6.7-2ZM56.5,9.6c-1.1,1.1,0,3.9,1.6,2.8,1.1-1.1,0-4.1-1.6-2.8Z"/>
  <path id="p3" class="cls-28" d="M54.1,8.1c2,.3,1,3.1-.7,2-.5-1-.3-1.6.7-2Z"/>
  <path id="p4" class="cls-4" d="M56.5,9.6c1.8-1.1,2.8,1.6,1.6,2.8-1.8,1.1-2.8-1.6-1.6-2.8Z"/>
  <path id="p5" class="cls-43" d="M66.2,16.7l-3.9,2c-2.3,0-4.7.3-7,.7,3.4,2.1,8.3.5,11.7,1.8l-.3.5c-6.5,1.1-13.5.7-20.2.5-.2-1.6-.5-3.3-.7-4.9,6.5-1.3,13.7-.3,20.4-.5ZM49.9,21c2-.3,3.4-.3,4.7-2.1-2.3.3-5.1-1.5-4.7,2.1Z"/>
  <path id="p6" class="cls-26" d="M66.2,16.7h4.2c-.5.7-1.1,1.3-1.6,2.1h-6.5l3.9-2v-.2Z"/>
  <path id="p7" class="cls-7" d="M70.4,16.7c2.1,0,4.2,0,6.2.2-.3,2,.5,4.9-1.8,5.9-2.1,0-4.2-.2-6.4-.5,1.5-1.1,3.1-2.3,4.7-3.3h-4.6c.5-.7,1.1-1.3,1.6-2.1l.2-.2Z"/>
  <path id="p8" class="cls-14" d="M84.8,16.4c1.6,1.6,3.4,3.3,4.7,5.2-1.6,1.3-3.1,2.6-4.6,4.1-.8-.7-1.6-1.5-2.4-2.1-.7-.7-1.3-1.1-2.1-1.8,1.1-2.1,2.6-3.6,4.2-5.2l.2-.2ZM83.9,20c-.7,1.1-.3,1.8.8,2.1,2.3-.5,1-3.4-.8-2.1Z"/>
  <path id="p9" class="cls-47" d="M45.8,17.2c.2,1.6.5,3.3.7,4.9,6.7.2,13.5.7,20.2-.5-1.3,1.6-3.3,1.3-5.1,1.5-5.2,0-10.6,0-15.8-.3,0-1.8,0-3.8,0-5.5Z"/>
  <path id="p10" class="cls-13" d="M54.6,18.9c-1.3,1.6-2.8,1.8-4.7,2.1-.5-3.6,2.4-1.6,4.7-2.1Z"/>
  <path id="p11" class="cls-55" d="M83.9,20c2-1.3,3.1,1.8.8,2.1-1.1-.3-1.5-1.1-.8-2.1Z"/>
  <path id="p12" class="cls-23" d="M26,21.6c1.8,2.1,3.8,4.1,5.7,5.9-1.6,2.1-3.3,4.1-4.7,6.2-2.1-2-4.2-4.2-6.5-6.2,2.1-1.8,3.8-3.8,5.5-5.9ZM25.2,26.5c-1.3,1.3,0,3.3,1.6,2.3,1.1-1.3,0-3.3-1.6-2.3Z"/>
  <path id="p13" class="cls-16" d="M80.5,21.6c.7.7,1.5,1.1,2.1,1.8-1.8,3.4-4.1,6.4-6.7,9.3.3-4.2,2.6-7.5,4.6-11.1Z"/>
  <path id="p14" class="cls-3" d="M89.5,21.6l1,1.5c-1.3,1.1-2.8,2.1-4.2,3.3l-1.3-.7c1.5-1.3,2.9-2.8,4.6-4.1Z"/>
  <path id="p15" class="cls-23" d="M94.4,21.5c2,2.3,4.2,4.2,6,6.7-1.8,1.8-3.4,3.8-5.1,5.5l-1.6.3c-2.4-2-4.4-4.2-6.7-6.4,2.6-2,4.7-4.4,7.5-6.2h-.2ZM91.4,27.7c.7,1,1.5,2.1,2.1,3.1,1.1-1,2.1-1.8,3.3-2.8-1-.8-2-1.6-2.9-2.4-.8.7-1.6,1.3-2.3,2.1h-.2Z"/>
  <path id="p16" class="cls-51" d="M37,24.6c1.1,1,2.3,2,3.4,2.9-.8,1.3-1.6,2.6-2.4,3.8-1.3-1.3-2.6-2.6-3.9-3.8,1-1,2-2,2.9-2.8v-.2Z"/>
  <path id="p17" class="cls-43" d="M51,25.7c1.5-.7,1.5,5.1,0,4.4-.7-1.1-.8-3.3,0-4.4Z"/>
  <path id="p18" class="cls-43" d="M53.1,25.2h5.4c0,1.8-.2,3.6-.3,5.2h-5.1v-5.4.2Z"/>
  <path id="p19" class="cls-26" d="M58.5,25.4c3.1,0,6,0,9.1.2v4.9c-3.1,0-6.4.2-9.5.2,0-1.8,0-3.6.3-5.2ZM62.6,28.6q.4.3,0,0ZM64.9,28.5v.8l.8.5.8-.5v-.8l-.8-.5-.8.5Z"/>
  <path id="p20" class="cls-2" d="M71.9,24.7c0,2,.2,3.9.3,5.7h-2.4c.5-2.3-.3-4.7,2.1-5.7Z"/>
  <path id="p21" class="cls-17" d="M93.7,25.5c1,.8,2,1.6,2.9,2.4-1.1,1-2.1,1.8-3.3,2.8-.7-1-1.5-2.1-2.1-3.1.8-.7,1.5-1.5,2.3-2.1h.2Z"/>
  <path id="p22" class="cls-45" d="M25.2,26.5c1.6-1,2.9,1,1.6,2.3-1.5,1-2.9-1-1.6-2.3Z"/>
  <path id="p23" class="cls-39" d="M62.6,28.6q.4.3,0,0Z"/>
  <path id="p24" class="cls-39" d="M64.9,28.5l.8-.5.8.5v.8l-.8.5-.8-.5v-.8Z"/>
  <path id="p25" class="cls-5" d="M100.4,28.2c.7,1,1.5,1.8,2.1,2.8-2.3,1.1-4.7,2.1-7.2,2.8,1.6-2,3.4-3.8,5.1-5.5Z"/>
  <path id="p26" class="cls-23" d="M21.6,32.2c1.8,2,3.8,3.8,5.5,5.5-1.6,2-3.1,3.9-4.6,5.9-2.3-2-4.4-4.2-6.7-6.4,2-1.6,3.8-3.4,5.7-5.2v.2ZM21,36c-1.8.8-1.3,3.6.8,3.3,2-.7,1.3-3.6-.8-3.3Z"/>
  <path id="p27" class="cls-43" d="M51.3,33.4c5.4-.5,10.9,0,16.3,0v2.1c-2,.2-3.8.3-5.5.7,3.6.8,6.2,1.8,9.1,4.2,5.1,4.6,6.9,10.9,5.9,17.5-5.2-5.2-10.3-10.3-15.5-15.5-5.4,5.4-10.8,10.8-16.1,16.1-2.9,2.8-5.1,6.5-8.2,9-1.1.5-2.4.3-3.8.5.2-5.7-1.3-13.2,2.1-18.1,2.8-4.6,7-6.5,11.4-9,2.8-1.3,3.1-4.9,4.4-7.3l-.2-.2ZM54.1,36v.8l.8.5.8-.5v-.8l-.8-.5-.8.5ZM58.3,36v.8l.8.5.8-.5v-.8l-.8-.5-.8.5ZM37,54.4c3.1-3.1,6.2-6.2,9.3-9.3-4.1-1.3-6.5,2-8.8,4.7-1.3,1.5-.8,2.8-.7,4.6h.2ZM36.8,63.1c.8-2.8,1-5.2.7-8-.8.7-1.6,1.3-2.4,2-.3,2.6.3,3.9,1.8,6Z"/>
  <path id="p28" class="cls-26" d="M70.7,32.7c1,2.1,1.6,4.2,2.9,6.2,2.1,2.3,4.7,3.8,6.4,6.7,2.9,4.1,1.8,9,5.1,12.9,1.6,2.6,4.7,4.6,3.6,7.8-.8,1.1-2.6,1.3-3.9,1.8-2.3-3.6-5.1-7.2-7.8-10.3,1-6.5-.8-12.9-5.9-17.5-.2-2.6-.5-5.1-.3-7.7Z"/>
  <path id="p29" class="cls-23" d="M36.6,34c3.4,0,6.9,0,10.3.2-1.6,4.1-6.7,2.1-10.1,2.6,0-1,0-2-.2-2.8Z"/>
  <path id="p30" class="cls-33" d="M75.6,34c2.1,0,4.4-.2,6.5-.3-.3,1.1-.5,2.3-.8,3.6-1.5-.2-2.9-.3-4.4-.7-.5-.8-.8-1.8-1.3-2.6Z"/>
  <path id="p31" class="cls-1" d="M21,36c2.1-.3,2.9,2.6.8,3.3-2.1.3-2.8-2.4-.8-3.3Z"/>
  <path id="p32" class="cls-23" d="M54.1,36l.8-.5.8.5v.8l-.8.5-.8-.5v-.8Z"/>
  <path id="p33" class="cls-36" d="M58.3,36l.8-.5.8.5v.8l-.8.5-.8-.5v-.8Z"/>
  <path id="p34" class="cls-41" d="M87,36.8c6,1.5,10.9,1.1,17.1,0,.7,2,2.3,4.2,2.4,6.4-1,3.9-1.3,7.8-2,11.7-1,3.4-6.2,8.3-9.8,9-4.2-2.6-9.1-6.4-9.9-11.7-.5-3.6-1.6-7-2.3-10.4,1.3,1.1,2.4,2.4,3.6,3.9-1-1.8-3.1-3.6-2-5.7.7-1.5.5-3.4,2.8-2.8v-.3ZM88.3,39.2l-.5.8.5.8h.8l.5-.8-.5-.8h-.8ZM89.5,45.8c-1.1,3.3-3.4,5.9-1.1,9.3,2,3.9,6.7,2.9,10.3,2.9,2.8.2,4.9-2.6,5.1-5.1,0-2.9-.3-6-1.1-9-.8-4.1-6.2-5.7-9.5-3.9-2.3,1.3-2.8,3.8-3.8,5.9l.2-.2ZM88.3,42.7q.4.5,0,0Z"/>
  <path id="p35" class="cls-25" d="M88.3,39.2h.8l.5.8-.5.8h-.8l-.5-.8.5-.8Z"/>
  <path id="p36" class="cls-23" d="M102.7,43.8c.7,2.9,1.1,6,1.1,9s-2.3,5.4-5.1,5.1c-3.6,0-8.3,1-10.3-2.9-2.4-3.4,0-5.9,1.1-9.3,1-2.3,1.5-4.6,3.8-5.9,3.4-1.8,8.8,0,9.5,3.9l-.2.2Z"/>
  <path id="p38" class="cls-39" d="M88.3,42.7q.4.5,0,0Z"/>
  <path id="p39" class="cls-44" d="M97.8,43c0,1.3,0,2.6-.2,3.9-1.1-.5-2.3-1-3.4-1.6,1-1.5,2.1-1.6,3.6-2.3Z"/>
  <path id="p40" class="cls-12" d="M46.4,45.1c-3.1,3.1-6.4,6.2-9.3,9.3-.2-1.8-.7-3.1.7-4.6,2.3-2.8,4.7-6,8.8-4.7h-.2Z"/>
  <path id="p41" class="cls-7" d="M110.9,44c.7.8,1.5,1.8,2.1,2.6-1.1,3.1-2.1,6.2-2.9,9.3-2,7-7.7,11.9-14.5,13.7v-2.1c3.8-3.3,7.8-5.2,10.6-9.3,2.9-4.4,1.5-9.8,4.7-14.2Z"/>
  <path id="p42" class="cls-46" d="M60.6,46.6c1.1-.5,1.8.7,2.4,1.3,2,2.8,4.9,4.7,7.2,7.2-2,.5-3.9.8-5.9,1.5,2.8.8,5.5,1.5,8.2,2.4-5.4,1-10.9,1.1-16.5.8-2,0-3.3-1.1-4.9-2.1,2.4-.2,4.7-.3,7.2-.5-.7-.8-1.1-1.5-1.8-2.3-1.8.8-3.6,1.8-5.4,2.8-1.1.7-2.3,1.1-3.3,1.8,2.9-4.9,8.3-4.9,11.9-9.1-1.8,1-3.6,2-5.5,2.9,1.8-2.4,3.9-4.9,6.4-6.7h0ZM60.6,51v.8l.8.5.8-.5v-.8l-.8-.5-.8.5ZM65.7,52.5l-.5.8.5.8h.8l.5-.8-.5-.8h-.8ZM59.3,53.3c-1,.3-1.3,1-.8,2,1.6,1,2.6-1.6.8-2ZM62.6,53.6c-.5,1-.2,1.6.8,2,2-.3.8-2.9-.8-2ZM60.6,56.4v.8l.8.5.8-.5v-.8l-.8-.5-.8.5Z"/>
  <path id="p43" class="cls-23" d="M60.6,51l.8-.5.8.5v.8l-.8.5-.8-.5v-.8Z"/>
  <path id="p44" class="cls-23" d="M65.7,52.5h.8l.5.8-.5.8h-.8l-.5-.8.5-.8Z"/>
  <path id="p45" class="cls-49" d="M59.3,53.3c2,.3.8,2.9-.8,2-.5-1-.3-1.6.8-2Z"/>
  <path id="p46" class="cls-49" d="M62.6,53.6c1.6-1.1,2.8,1.6.8,2-1-.3-1.3-1-.8-2Z"/>
  <path id="p47" class="cls-23" d="M37.5,55.1c.3,2.8.2,5.2-.7,8-1.5-2.1-2.1-3.4-1.8-6l2.4-2Z"/>
  <path id="p48" class="cls-36" d="M56.5,54.9c.7.8,1.1,1.5,1.8,2.3-2.4,0-4.7.3-7.2.5,1.8-1,3.6-1.8,5.4-2.8Z"/>
  <path id="p49" class="cls-23" d="M19.7,55.2c2.6,2.1,4.9,4.6,7.2,7-2.3,2.3-4.2,4.9-6,7.5-2.6-2.1-6.5-4.7-7.5-8,1.8-2.4,4.2-4.6,6.5-6.5h-.2ZM17.1,62.4c1.1.8,2.4,1.8,3.6,2.6.3-.8.7-1.6,1-2.4-.3-1-.7-2-1.1-2.9-1.1.8-2.3,1.8-3.4,2.8Z"/>
  <path id="p50" class="cls-23" d="M60.6,56.4l.8-.5.8.5v.8l-.8.5-.8-.5v-.8Z"/>
  <path id="p51" class="cls-29" d="M20.5,59.6c.3,1,.8,2,1.1,2.9-.3.8-.7,1.6-1,2.4-1.1-.8-2.4-1.8-3.6-2.6,1.1-1,2.3-1.8,3.4-2.8Z"/>
  <path id="p52" class="cls-43" d="M46.8,61.9c4.1-.5,8.3,0,12.6,0s10.6-.3,16,0c1.6,1.3,3.1,2.8,4.4,4.4.7.8,1.1,2.6.3,3.3-2,2-3.4,4.6-6.7,4.2h-23.7c-3.8.5-6.7-3.4-8.5-6.4,1.8-1.8,3.6-3.8,5.5-5.4v-.2ZM46.6,64.9c0,1.8.2,3.4.3,5.1,2.6,0,5.1,0,7.5.2v-4.9c1,1.6,2,3.3,2.9,4.9.7-.8,1.5-1.8,2.1-2.8,1.3,1.1,2.6,2.3,4.1,3.3,0-2.1,0-4.4.3-6.5-2.9.5-5.2,1.5-8.2.8-3.1-.7-6.2-.5-9.5-.2l.3.2ZM65.2,64.5c0,1.8,0,3.8.2,5.5,1.1,0,2.3.2,3.4.3,0-1.6-.2-3.4-.3-5.1,1,1.8,1.8,3.6,2.8,5.5,1.1-.7,2.8-1,3.8-2,1-1.5.3-2.9-.8-3.9-2.9-.5-5.9-.3-8.8-.2l-.2-.3ZM44.3,66.5c-1.6,0-2,2.6,0,2.9,1.8-.2,2-2.6,0-2.9ZM76.9,67c-.7,1.1-.3,1.8,1,2.3,2.3-.5,1-3.4-1-2.3Z"/>
  <path id="p53" class="cls-11" d="M56,65c2.8.7,5.2-.3,8.2-.8-.2,2.1-.2,4.4-.3,6.5-1.5-1-2.8-2.1-4.1-3.3-.7,1-1.5,1.8-2.1,2.8-1-1.6-2-3.3-2.9-4.9v4.9c-2.6-.2-5.1-.3-7.5-.2,0-1.8-.2-3.4-.3-5.1,3.1-.3,6.4-.5,9.5.2l-.3-.2ZM49,66.2v.8l.8.5.8-.5v-.8l-.8-.5-.8.5Z"/>
  <path id="p54" class="cls-9" d="M65.2,64.5c2.9,0,6-.3,8.8.2,1.1,1.1,1.8,2.6.8,3.9-1,1-2.4,1.5-3.8,2-1-1.8-1.8-3.8-2.8-5.5,0,1.6.2,3.4.3,5.1-1.1,0-2.3-.2-3.4-.3,0-1.8,0-3.8-.2-5.5l.2.3ZM72,66.3l-.5.8.5.8h.8l.5-.8-.5-.8h-.8Z"/>
  <path id="p55" class="cls-53" d="M44.3,66.5c1.8.3,1.6,2.8,0,2.9-1.8-.2-1.5-2.8,0-2.9Z"/>
  <path id="p56" class="cls-32" d="M49,66.2l.8-.5.8.5v.8l-.8.5-.8-.5v-.8Z"/>
  <path id="p57" class="cls-43" d="M72,66.3h.8l.5.8-.5.8h-.8l-.5-.8.5-.8Z"/>
  <path id="p58" class="cls-48" d="M76.9,67c2-1.3,3.1,1.8,1,2.3-1.1-.3-1.5-1.1-1-2.3Z"/>
  <path id="p59" class="cls-30" d="M36.8,70.7c0,6.2.7,13-1.1,19.1-2.6-5.5-.8-13-1-19.1h2.1Z"/>
  <path id="p60" class="cls-39" d="M83,70.7c.7.7,1.3,1.3,2,2.1.3-.8.7-1.6,1-2.3.2,1.3.3,2.8.5,4.1.7-1.5,1.1-2.8,1.8-4.2.5,3.1.8,6.2.7,9.3,0,5.4.7,10.4-.2,15.8-2-.2-2.1.3-.7,1.6l-.8.3c-4.4,1.1-8.6,2.3-13.2,2.1v-.8c-.5-.8-1.1-.7-1.8.5h-3.8c1-1.6,2.1-3.3,3.1-4.9-2.3.3-4.6.8-6.7,1.5,1.8-2,3.9-3.6,5.9-5.2,1.6,1.8,3.4,3.4,5.4,5.1.7-.3,1.3-.8,2-1.1,3.1-2,5.4-4.2,8-6.9-2.6-2.1-5.1-4.2-7.5-6.4v-3.8c1-2.9,2.3-5.2,4.9-7l-.5.2Z"/>
  <path id="p61" class="cls-38" d="M39.7,70.7c.8,1,1.6,2,2.4,2.9-1.1.8-1.6,1.8-1.3,2.9,1.3,1.6,2-1.6,1.8-2.4,3.9,4.6,8.3,8.8,12.6,13.2-1.1,1.3-2.3,2.6-3.4,3.8,3.4,2.3,6.4,4.4,8.3,8-3.3.3-6.5.3-9.9,0-3.3-2-7.3-2-10.6-3.8-1-2-1.5-4.2-2-6.4,2.4,1.6,4.6,3.4,6.5,5.5,2.1-2.1,4.4-4.2,6.7-6.2-2.3-2.1-4.4-4.4-6.5-6.5-1.3,1-2.4,1.8-3.8,2.8-2.4-3.9-1-9.6-.8-14v.2ZM41.2,81.3q.3.3,0,0Z"/>
  <path id="p62" class="cls-8" d="M102.2,72.7c2-1.3,3.1,1.8.8,2.1-1.1-.3-1.5-1.1-.8-2.1Z"/>
  <path id="p63" class="cls-26" d="M42.2,73.7l.5.5c0,.8-.5,4.1-1.8,2.4-.3-1.3,0-2.3,1.3-2.9Z"/>
  <path id="p64" class="cls-42" d="M49.4,77.6l-.8.3-1.1-1.3c.3-2.1,2.6-.5,1.8,1.1l.2-.2Z"/>
  <path id="p65" class="cls-52" d="M55.2,75.8c-.3,1-.8,1.8-1.1,2.8-1.3-.3-2.6-.8-3.9-1.3,1.6-.7,3.3-1.1,5.1-1.5Z"/>
  <path id="p66" class="cls-20" d="M55.2,75.8h.8c-.8,2.4,2.3,2.1,1,0,4.1,0,8.3,0,12.4.5-4.6,4.2-9.6,3.3-15.2,2.4.3-1,.7-1.8,1.1-2.8l-.2-.2Z"/>
  <path id="p67" class="cls-26" d="M56,75.6h1c1.5,2.1-1.6,2.4-1,0Z"/>
  <path id="p68" class="cls-22" d="M69.3,76.1h6c-2.9,3.6-6.2,6.7-9.6,9.8-1.5-1.3-2.9-2.6-4.4-3.8-1.5,1.3-2.9,2.8-4.2,4.1l-1.6-1.6c1.8-1.1.3-2.6-1.3-2.4l-1.1-1c.8,0,4.1.5,3.6-1-1.3-1-3.3-.3-4.6.2-1-.8-2.1-1.8-3.1-2.6l.8-.3.7-.3c1.3.5,2.6.8,3.9,1.3,5.5.8,10.8,1.8,15.2-2.4l-.2.2Z"/>
  <path id="p69" class="cls-35" d="M78.1,77.9v3.8c-2,2.4-4.2,4.6-6.5,7,2.1,2,4.1,4.1,6,6-.7.3-1.3.8-2,1.1-1.8-1.6-3.8-3.3-5.4-5.1-1-1.1-2-2.3-2.9-3.4,3.3-3.4,7-6.4,10.6-9.5h.2Z"/>
  <path id="p70" class="cls-50" d="M51.8,80.3c1.3-.5,3.3-1.1,4.6-.2.5,1.6-2.8,1.1-3.6,1,0,0-1-.8-1-.8Z"/>
  <path id="p71" class="cls-26" d="M41.2,81.3q.3.3,0,0Z"/>
  <path id="p72" class="cls-23" d="M44.3,82c2.1,2.3,4.2,4.4,6.5,6.5-2.3,2-4.6,4.1-6.7,6.2-2-2.1-4.2-3.9-6.5-5.5l-.3-1.6c1.1-1,2.3-1.8,3.4-2.6,1.3-1,2.4-2,3.8-2.8l-.2-.2ZM41.2,88.3c1,.8,1.8,1.5,2.8,2.3.8-.8,1.8-1.6,2.6-2.4-.8-1-1.6-1.8-2.4-2.8-1,1-1.8,2-2.8,2.8l-.2.2Z"/>
  <path id="p73" class="cls-31" d="M53.9,82.1c1.6,0,3.3,1.3,1.3,2.4-.7-.7-1.1-1.5-1.3-2.4Z"/>
  <path id="p74" class="cls-23" d="M78.2,81.5c2.4,2.1,5.1,4.2,7.5,6.4-2.6,2.4-4.9,4.9-8,6.9-2-2.1-4.1-4.1-6-6,2.1-2.4,4.4-4.6,6.5-7v-.2ZM76.1,87.9c1,1,2.1,2,3.1,2.8.5-1,1.1-2.1,1.6-3.1-.7-.7-1.5-1.3-2.1-1.8-.8.7-1.8,1.5-2.6,2.1Z"/>
  <path id="p77" class="cls-18" d="M44,85.4c.8,1,1.6,1.8,2.4,2.8-.8.8-1.8,1.6-2.6,2.4-1-.8-1.8-1.5-2.8-2.3,1-1,1.8-2,2.8-2.8l.2-.2Z"/>
  <path id="p78" class="cls-43" d="M61.3,86.9c1.3,1.3,2.6,2.6,4.1,3.8-1.5,1.1-2.8,2.3-4.1,3.6-1.3-1.1-2.6-2.3-4.1-3.4,1.5-1.3,2.8-2.6,4.1-3.9Z"/>
  <path id="p79" class="cls-27" d="M78.7,85.7c.7.7,1.5,1.3,2.1,1.8-.5,1-1.1,2.1-1.6,3.1-1.1-1-2.1-2-3.1-2.8.8-.7,1.8-1.5,2.6-2.1Z"/>
  <path id="p80" class="cls-6" d="M71.2,94.4c-1,1.6-2.1,3.3-3.1,4.9-1.8,0-3.4,0-5.2-.2.5-1.1,1-2.1,1.6-3.1,2.1-.7,4.4-1.1,6.7-1.5v-.2Z"/>
  <path id="p81" class="cls-38" d="M88.5,95.5l-.7,1.6c-1.5-1.3-1.3-1.8.7-1.6Z"/>
  <path id="p82" class="cls-38" d="M74,98.8v.8l-2-.3c.7-1.1,1.3-1.5,2-.5Z"/>
  <path id="p83" class="cls-24" d="M47.6,103.8c-.8,1-1.8.8-3.1-.5,1.5-.8,2.4-.7,3.1.5Z"/>
  <path id="p84" class="cls-24" d="M51.3,103c-1.3,1.3-2.4,1.3-3.3.2.7-.8,1.8-1,3.3-.2Z"/>
  <path id="p85" class="cls-24" d="M58.7,103.2c-1.1,1.1-2.3,1.1-3.4,0,1.1-.8,2.3-1,3.4,0Z"/>
  <path id="p86" class="cls-54" d="M6,103.7c1.8,0,3.6-.2,5.4-.2-.5,1.1-1,2.1-1.6,3.3-1.5-1-2.8-1.8-3.8-3.1Z"/>
  <path id="p87" class="cls-21" d="M15.4,103.5c3.8,0,7.5-.3,11.1.3l1.1,1.6c-5.1.3-10.1.3-15.2,0,.7-1.5,1.6-2.1,2.8-2h.2Z"/>
  <path id="p88" class="cls-37" d="M107.6,103.7c2.6,0,5.4-.2,8-.2.5.7,1,1.5,1.5,2.1-2.8-.3-8.3,1.3-9.5-2Z"/>
  <path id="p89" class="cls-4" d="M16.7,107.7c2.1-.3,2.6,2.1.7,2.9-2.1.3-2.4-2.1-.7-2.9Z"/>
  <path id="p90" class="cls-34" d="M25.1,108.1c1.5-1.1,3.4.8,2.3,2.3-1.5,1.1-3.4-.8-2.3-2.3Z"/>
  <path id="p91" class="cls-19" d="M39.9,107.7h60.2l-.3,2.1c-22.8,0-45.8-.3-68.7.3l-1.6-1.8c3.4-1.1,6.9-.8,10.4-.8v.2Z"/>
  <path id="p92" class="cls-15" d="M103.5,107.9c1.6-1,2.8,1.1,1.8,2.4-1.5.8-2.9-1.1-1.8-2.4Z"/>
  <path id="p93" class="cls-15" d="M108.9,107.9c1.6-1,2.8,1.1,1.8,2.4-1.5.8-2.9-1.1-1.8-2.4Z"/>
  <path id="p94" class="cls-10" d="M31.1,110.4c22.8-.7,45.8,0,68.7-.3v1.1c-19.7.5-39.3,0-58.9.2-3.4,0-6.7.3-9.8-1Z"/>
  <path class="cls-23" d="M76.7,76.1c1.3-7.2-5.1-10.3-5.1-10.3,2.4-3.1,2.9-6.2,2.4-9.1-1.1-6-6.5-10.1-12.7-10.1s-9.6,1.8-12.1,5.4c-5.8,8,.4,12.5.4,12.5,0,0-4.9,1.4-4.3,11.2s6.9,10.7,16.1,10.7,3.6-.4,5.3-.7c5.8-1.6,9.2-3.6,10.3-9.8l-.2.2Z"/>
  <path class="cls-40" d="M66.2,66.1c-.4.2-.7.4-.7.4,3.4,2,6.7,2.9,6,8.5s-3.6,6-6.7,7.4c-3.1-1.3-4.3-1.4-7.4,0,0,0-6.2,0-8.1-6s-.4-6,.5-7.4c1.8-2.9,5.1-2.9,5.1-2.9,0,0-5.1-2.5-3.4-8s2.4-4.2,4.3-5.4,4-2,6.9-1.6c8,.7,10.7,11.4,3.6,15.4v-.4Z"/>
  <path class="cls-23" d="M56.9,57.6c.4-.7,1.1-1.4,2-1.8,4-2,6,.4,6.5,2.2.4,3.8-1.4,5.4-3.6,6-3.8.7-6.5-2.9-4.9-6.3s0,0,0,0Z"/>
  <path class="cls-39" d="M65.3,70.3c2.2,2.4,2.5,5.6-1.6,7.4s-4.7.9-6.9,0c-4-1.8-3.6-5.1-1.6-7.2s7.4-2.9,10.1,0v-.2Z"/>
  <path class="cls-38" d="M57.3,82.4c2.9-2.9,5.6-2.4,7.4,0-4.5,1.1-7.4,0-7.4,0Z"/>
</svg>