<?xml version="1.0" encoding="UTF-8"?>
<svg id="_Слой_1" data-name="Слой 1" xmlns="http://www.w3.org/2000/svg" version="1.1" viewBox="0 0 120 120">
  <defs>
    <style>
      .cls-1 {
        fill: #007284;
      }

      .cls-1, .cls-2, .cls-3, .cls-4, .cls-5, .cls-6, .cls-7 {
        stroke-width: 0px;
      }

      .cls-2 {
        fill: #00cfe7;
      }

      .cls-3 {
        fill: #fefefd;
      }

      .cls-4 {
        fill: #000e20;
      }

      .cls-5 {
        fill: #d13154;
      }

      .cls-6 {
        fill: #001412;
      }

      .cls-7 {
        fill: #ff9c00;
      }
    </style>
  </defs>
  <path class="cls-3" d="M0,0h120v120H0V0Z"/>
  <path class="cls-4" d="M61,10.2c3.6,0,8.6.8,11.1,3.8,1,2.1.4,5.2.4,7.5,2.9,2.4,6.2,4,5.8,8.4-.4,4.5-4.2,5.2-6.2,8.3-.3,1.8-.5,4.5.6,6.1,3.4,2.1,6.9,3.5,9.8,6.3,9.8,9,12.4,24.3,8.3,36.7-.9.1-1.8.2-2.7.3,1.2-8.2,2.3-15.9-.7-23.9-1.7-4.4-4.7-8.6-8.2-11.7-2.9-2.6-6.3-3.6-9.6-5.5-.9-1.9-.8-4.3-1.1-6.4-.6.3-1.2.7-1.8,1-1.9,1-3.8,2.1-5.6,3.2l-1.2.7c-1.9-1.8-3.8-3.4-5.9-4.9,1.3-1,2.3-2.2,3.3-3.5-1.4-.3-2.9-.6-4.3-.9,7-1.8,14,1,20.2-2.2,1.3-.5,2-1.9,2.2-3.2.2-.9.3-1.7.5-2.6l-.6-.6c-.7-.7-1.5-1.5-2.2-2.2-1.6,1.1-3.1,2.2-4.6,3.5-6.9-.3-14.9,1.4-20.7-3.3-2.3,2.5-2.3,3.9-1.6,7.1,1.8.8,3.7,1.4,5.6,1.7l.4,1.8c.3,1.4.6,2.7.8,4.1-.4,2.2-.8,4.4-1.2,6.7-6.3,2.4-11.7,5.9-15.3,11.8-5.9,8.7-5.2,19.9-3.2,29.7-1.1-.6-2.1-1.2-3.2-1.8-3.1-9.6-2.1-20.5,3.1-29.2,3.9-5.7,9.1-10.5,15.8-12.6,0-2.3.1-4.7.1-7-3.1-2.2-6.7-3.8-6.5-8.2.2-4,3.2-5.5,5.9-7.7,0-2.7-1.3-7,1.4-8.7,2.9-2.3,7.6-2.5,11.1-2.6Z"/>
  <path class="cls-3" d="M65.7,13.3l.3.7c-4.6-.1-9-.3-13.3,1.6,2.8.3,5.6.6,8.4.9-2.9,1.3-5.3,1.5-8.5,1.2.4,2.3.9,4.5,1.3,6.8l.2,1.4-1.7-.4c-1.1-3.1-2.1-6.9-1.6-10.2,3.6-3.1,10.4-2.2,14.8-1.9Z"/>
  <path class="cls-3" d="M65.7,13.3c1.4.5,2.7,1.2,4,1.9v1.6c-.8,1-1.6,2-2.3,3.1-.8-1-1.7-1.6-2.9-2.1.8-.6,1.7-1.2,2.5-1.8-.3-.7-.7-1.4-1-2.1l-.3-.7Z"/>
  <path class="cls-7" d="M66.1,13.9c.3.7.7,1.4,1,2.1-.8.6-1.6,1.2-2.5,1.8l-1.6.4c-2.2.5-4.6,1-6.7,2-1.1,1.2-1.7,2.8-2.4,4.2-.4-2.3-.9-4.5-1.3-6.8,3.1.3,5.6.2,8.5-1.2-2.8-.3-5.6-.6-8.4-.9,4.3-2,8.7-1.8,13.3-1.6Z"/>
  <path class="cls-2" d="M69.7,16.8c-.2,3-.6,5.9-1.1,8.8-.7-.1-1.4-.3-2-.4.3-1.8.6-3.6.9-5.3.7-1.1,1.4-2.1,2.2-3.1Z"/>
  <path class="cls-4" d="M23.8,17.7c2.2,3.9,4.9,6.5,8.5,9.1-3.9,2.2-6.5,5-9.2,8.5-2-4.1-3.9-6.4-7.4-9.2,3.6-2.2,5.8-5,8.2-8.5Z"/>
  <path class="cls-5" d="M63,18.2c.7.7,1.5,1.4,2.1,2.2.4,1.8-.2,3.8-.3,5.5-3.6.4-7,.4-10.6-.2l-.2-1.4c.6-1.5,1.3-3,2.4-4.2,2.1-1,4.5-1.4,6.7-2Z"/>
  <path class="cls-4" d="M97.3,18.6c2.2,3.1,4.1,5.9,7.5,7.8-3.1,2.7-5,5.4-6.9,9-2.3-3.9-4.2-5.9-8.2-8.2,3.8-2.4,5.5-4.8,7.5-8.7Z"/>
  <path class="cls-3" d="M24.6,23.9c-1.2,1.2-2.3,2.4-3.5,3.6l-.9-1.4c1.3-1.1,2.5-3.8,4.4-2.2Z"/>
  <path class="cls-2" d="M97.2,23.7c1.3,1,2.4,2.1,3.6,3.2-1.1,1.2-2.2,2.4-3.3,3.6-1.1-1.2-2.1-2.5-3.2-3.7,1-1.1,1.9-2.2,2.9-3.2Z"/>
  <path class="cls-2" d="M24.6,23.9c.9.7,1.8,1.4,2.6,2.2-1.2,1.6-2.5,3.2-3.9,4.7-.8-1.1-1.5-2.2-2.2-3.2,1.2-1.2,2.3-2.4,3.5-3.6Z"/>
  <path class="cls-3" d="M47.6,25.1c5.8,4.7,13.8,3,20.7,3.3l-1.2,1.1c-6.5,1.2-13.5.5-19.9-1.1-.4,1.2-.9,2.5-1.3,3.8-.6-3.2-.7-4.6,1.6-7.1Z"/>
  <path class="cls-2" d="M72.9,24.9c.7.7,1.5,1.5,2.2,2.2l-1.6.8c-2.9,2.1-5.2,4.9-9,4.9-4.3.1-8.6.3-12.9,1.2-2-.3-3.8-.9-5.6-1.7.4-1.2.9-2.5,1.3-3.8,6.3,1.5,13.4,2.3,19.9,1.1l1.2-1.1c1.4-1.3,3-2.4,4.6-3.5Z"/>
  <path class="cls-3" d="M97.2,26.2q.5.5,0,0Z"/>
  <path class="cls-3" d="M75.1,27.1l.6.6c-.5.8-1.2.9-2.1.2l1.6-.8Z"/>
  <path class="cls-1" d="M73.5,27.9c.9.7,1.6.7,2.1-.2-.2.8-.3,1.7-.5,2.6-2.1-.2-4,1.2-2.2,3.2-6.1,3.2-13.2.4-20.2,2.2h-.8c0,.1-.4-1.7-.4-1.7,4.3-.9,8.5-1,12.9-1.2,3.8,0,6.1-2.8,9-4.9Z"/>
  <path class="cls-3" d="M75.2,30.3c-.2,1.3-.8,2.7-2.2,3.2-1.8-2,0-3.4,2.2-3.2Z"/>
  <path class="cls-4" d="M83.1,29.8c1.7,1.5,3.2,3.5,5.1,4.8,2,1.2,4.2,2,6.3,3-2.1,2.2-4.2,4.5-5.9,7,2.2,2,4.4,4.1,6.6,6.2-1.3,1.8-2.6,3.5-3.9,5.3-1.5-1.4-3-2.8-4.5-4.2.7-1,1.3-2,2-3-3.6-.8-4.9-4.1-8.2-5.5-1.6-.8-3.2-1.4-4.8-2.1,1.8-1.6,4-3.1,5.3-5.2.9-2,1.3-4.2,2.1-6.3Z"/>
  <path class="cls-1" d="M29.2,32.3c1.5.2,1.4,2.2,0,2.4-1.5-.2-1.4-2.2,0-2.4Z"/>
  <path class="cls-4" d="M36.1,31.4c2.2,4.2,4.2,7.2,8.4,9.7-3.9,2.3-6.8,4.6-9.5,8.3-2.2-4.5-4.2-6.7-8.3-9.5,1.9-1.1,4-2.1,5.7-3.5,1.4-1.5,2.5-3.3,3.7-4.9Z"/>
  <path class="cls-4" d="M90.4,33l.7-.4.7.4v.8l-.7.4-.7-.4v-.8Z"/>
  <path class="cls-3" d="M84.3,35.5l1,.5c-.2,1.2-.4,2.4-.6,3.7-1.2.2-2.4.4-3.6.6,1-1.6,2-3.2,3.2-4.7Z"/>
  <path class="cls-3" d="M35.9,36.5l.5.6c-.7,2.1-1.7,3.1-3.3,4.5l-1-1.6c1.2-1.2,2.4-2.4,3.8-3.5Z"/>
  <path class="cls-3" d="M52,35.8h.8c1.4.2,2.8.5,4.3.8-1,1.3-2,2.5-3.3,3.5l-1-.2c-.2-1.4-.5-2.7-.8-4.1Z"/>
  <path class="cls-3" d="M61.1,36.1c-.2.9-.4,1.8-.5,2.7-1,0-2.1-.2-3.1-.3,1.1-1.4,1.7-2.4,3.7-2.4Z"/>
  <path class="cls-7" d="M61.1,36.1h1.8c.6,2.1.5,3.6,0,5.7-1.6,0-3.2,0-4.8,0-.3-1-.5-2.1-.8-3.2,1,0,2.1.2,3.1.3.2-.9.4-1.8.5-2.7Z"/>
  <path class="cls-5" d="M64,35.9c1.8.3,3.5.6,5.3,1-.8.9-1.6,1.7-2.4,2.6-1-1.2-1.9-2.4-2.9-3.6Z"/>
  <path class="cls-2" d="M85.3,36c1.4.7,2.7,1.5,4.1,2.2-1,2-1.9,4.1-2.7,6.2-1.9-1.4-3.8-2.8-5.7-4.1,1.2-.2,2.4-.4,3.6-.6.2-1.2.4-2.4.6-3.7Z"/>
  <path class="cls-2" d="M36.4,37.1c1.1,1.2,2.1,2.5,3.2,3.7-1.4,1.5-2.9,3-4.3,4.5-.7-1.3-1.5-2.5-2.2-3.8,1.7-1.3,2.7-2.4,3.3-4.5Z"/>
  <path class="cls-3" d="M52.8,39.9c1.2,2.1,3.5,5,1.5,7.3-3,2.8-7.4,3.8-10.6,6.5-2.8,2.3-4.2,5.2-6,8.2-1.2.9-3,1.8-3.6,3.3,0,1.6.5,3.2.8,4.8-.2,5.6-.8,11.5,1.1,17,1.3,3.6,4.2,6.6,6.2,9.9-2.1-.7-4.6-1.3-6.3-2.7-1.5-1.6-2.1-4.1-2.7-6.2-2-9.8-2.7-21,3.2-29.7,3.6-5.8,8.9-9.4,15.3-11.8.4-2.2.8-4.5,1.2-6.7Z"/>
  <path class="cls-2" d="M52.8,39.9l1,.2c2.1,1.5,4,3.1,5.9,4.9,0,1.6,0,3.2,0,4.8,1-.5,2.1-1.1,3.1-1.7,1.8.9,3.6,1.7,5.4,2.6l-1.2,1.2c.1,2.1,2.2.6,1.9-.9,3.1,1.4,5.3,3.5,7.4,6.1-1,.7-2.1,1.3-3.1,2-1.4.8-2.8,1.5-4.2,2.2-2.2-1.8-4.6-4-7.2-5-2.2-.2-4.6,1.1-6.7,1.8-2.7.2-5.5.2-8.2.3h-.8c-3.4-.2-5.1,1.4-7.7,3.3l-.7.4c1.8-3.1,3.2-6,6-8.2,3.1-2.7,7.6-3.7,10.6-6.5,2-2.3-.3-5.2-1.5-7.3Z"/>
  <path class="cls-2" d="M68.4,40c.3,2.1.2,4.5,1.1,6.4,3.2,2,6.7,3,9.6,5.5,3.6,3.1,6.5,7.3,8.2,11.7,3,8,1.9,15.7.7,23.9.9-.1,1.8-.2,2.7-.3-.4,1.7-.6,3.3-1,5-4,6.5-11.5,10.6-18.7,12.7-14.7,4.5-32.5-.9-41.2-13.8.5-.5,1-1,1.6-1.5-.5-1.2-1-2.3-1.5-3.5,1.1.6,2.1,1.2,3.2,1.8.6,2,1.2,4.6,2.7,6.2,1.7,1.5,4.2,2.1,6.3,2.7-2-3.3-4.9-6.3-6.2-9.9-1.8-5.5-1.3-11.4-1.1-17,.9,1.1,1.8,2.1,2.7,3.1-1.5.9-1.4,1.4.4,1.5-.4,1.9-.7,3.8-.4,5.7,0,0,0,.2,0,.3.4,1.2.8,2.3,1.2,3.5-2.3,0-.8,3,.3.8.3.7.5,1.3.8,2-2.5.2-1.8,3.3,0,3.7.5-.2.9-.7,1-1.5,2.5,2.9,5.6,5.4,8.6,7.7.3,1.5.7,3.1,1,4.6.7-.2,1.3-.5,2-.8.9,1.1,1.8,3.2,3.4,3.3,4.8.7,10-.2,14.7-1.2,4.7-1,8.6-3.3,12.3-6.3-2.3-.3-4.6-.6-6.9-.9,1.7-2.1,3.4-4.1,5.2-6.1.6.4,1.3.8,1.9,1.2,3.5-6.8,2.9-13.5,2.7-20.8.4-1.5.8-3,1-4.6-1.1-1.3-2.5-2.2-4-3.1-1.5-3.1-3.1-6.1-5.8-8.3-3.3-3-7.3-3.9-10.9-6.2-.4-2.1,0-4.4.3-6.6.6-.3,1.2-.7,1.8-1Z"/>
  <path class="cls-1" d="M66.5,41c-.3,2.1-.7,4.5-.3,6.6,3.6,2.4,7.6,3.2,10.9,6.2,2.7,2.3,4.3,5.2,5.8,8.3-3.2-1.4-6.2-3.5-9.8-3.1,1.1-.6,2.1-1.3,3.1-2-2.1-2.6-4.3-4.7-7.4-6.1l-.7-.3c-1.8-.9-3.6-1.7-5.4-2.6-.6-1.3-1.3-2.5-1.9-3.8,1.9-1.1,3.7-2.2,5.6-3.2Z"/>
  <path class="cls-3" d="M60.9,44.2c.7,1.3,1.3,2.5,1.9,3.8-1.1.5-2.1,1.1-3.1,1.7,0-1.6,0-3.2,0-4.8l1.2-.7Z"/>
  <path class="cls-4" d="M30.8,46c1.2,2,2.2,4.1,3.4,6.1-1.7,1.4-3.4,2.8-5.1,4.1-1.1-1.8-2.2-3.6-3.3-5.4,1.7-1.7,3.3-3.3,5-4.9Z"/>
  <path class="cls-3" d="M54.7,49.1c.5.7,1.1,1.3,1.6,2-1.1.7-2.2,1.4-3.3,2.1-.8-.5-1.5-1-2.3-1.5,1.3-.9,2.6-1.7,3.9-2.5Z"/>
  <path class="cls-3" d="M29.1,50.2h.9c0,.9-.4,1.4-1.1,1.7l-.4-.9.6-.9Z"/>
  <path class="cls-2" d="M30.1,50.3c3,.2.2,4.5-1.1,1.7.7-.3,1.1-.9,1.1-1.7Z"/>
  <path class="cls-2" d="M90.1,50.4c1.5-1,2.6,1.4.7,1.7-1-.3-1.2-.9-.7-1.7Z"/>
  <path class="cls-3" d="M68.2,50.6l.7.3c.3,1.4-1.7,3-1.9.9l1.2-1.2Z"/>
  <path class="cls-3" d="M49.1,51.9c.7,1,1.3,1.9,1.9,2.9-.9.7-1.9,1.4-2.8,2.1-.8-1-1.7-2-2.5-3.1,1.1-.7,2.3-1.4,3.4-2Z"/>
  <path class="cls-4" d="M61.7,56.2c2.7,1.1,5,3.3,7.2,5,1.4-.7,2.8-1.5,4.2-2.2,3.6-.4,6.6,1.7,9.8,3.1,1.5.9,2.8,1.8,4,3.1-.2,1.6-.6,3.1-1,4.6-1.2,1.8-2.6,3-2.5,5.3,0,4.2-.5,8.2-2.5,11.9-1.8,3.9-5.7,6.4-8.9,9.1-3.3,2.6-7.6,6.2-12,6.4-3.8-.2-7.4-3.6-10.4-5.6-3-2.3-6.1-4.8-8.6-7.7-.4-.7-.8-1.5-1.1-2.2-.3-.7-.5-1.3-.8-2l-.3-.8c-.5-1.2-.9-2.3-1.2-3.5v-.3c-.3-1.9,0-3.8.4-5.7l.2-.9-.6-.7c-.9-1-1.8-2.1-2.7-3.1-.3-1.5-.8-3.2-.8-4.8.6-1.4,2.5-2.3,3.6-3.3l.7-.4c2.7-.8,5.2-2,7.7-3.2h.8c1.1.9,2.2,1.8,3.3,2.7.9,1.4,2,1.5,2.8,0,.7-1,1.4-2,2.2-3,2.1-.7,4.5-1.9,6.7-1.8Z"/>
  <path class="cls-4" d="M23,56.9c1.6,2.5,3.1,4.9,4.9,7.3-1.7,2-3.3,4-4.9,6-1.7-2.1-3.4-4.1-5.1-6.1,1.8-2.3,3.4-4.8,5.1-7.2Z"/>
  <path class="cls-4" d="M97.3,57.1c2,2.2,3.7,4.7,5.6,7-1.9,2-3.7,4-5.3,6.2-1.6-2-3.2-4-4.7-6,1.5-2.3,2.9-4.7,4.4-7.1Z"/>
  <path class="cls-3" d="M46.1,58.3c-2.5,1.2-5,2.4-7.7,3.2,2.5-1.9,4.3-3.5,7.7-3.2Z"/>
  <path class="cls-3" d="M55,58c-.8,1-1.5,2-2.2,3-.9-.6-1.8-.6-2.8,0-1.1-.9-2.2-1.8-3.3-2.8,2.7,0,5.5,0,8.2-.3Z"/>
  <path class="cls-3" d="M62,58.7c-.8.5-1.8.6-2.9.2.8-1.5,1.9-1.6,2.9-.2Z"/>
  <path class="cls-7" d="M59.1,58.9c1.1.4,2.1.3,2.9-.2,3,2.6,6.4,4.5,9.8,6.6,2,1.2,2.5,3.9,3.1,6-2.4-1.7-4.3-3.8-6.5-5.7-3.6-2.6-5.7-6-10.7-5.3l.4-.5,1-1Z"/>
  <path class="cls-3" d="M58.1,59.9l-.4.5c-2.1,2.9-4.1,4.5-7.6,5.6l-1.9.4c3.1-2.4,6.6-4.2,9.8-6.5Z"/>
  <path class="cls-5" d="M68.3,65.6c-4.3-.2-9.3-1-13.5.3-3.3.7-4.2,4.2-7.3,6l.3-.5c.9-1.8,1.6-3.6,2.3-5.5,3.4-1,5.5-2.6,7.6-5.6,5-.7,7.1,2.7,10.7,5.3Z"/>
  <path class="cls-7" d="M46.8,61c.9.6,1.7,1.3,2.5,2-2.8.6-4.1.4-6.7-.9,1.3-.4,2.7-1.1,4.1-1.2Z"/>
  <path class="cls-2" d="M50.1,61c.9-.6,1.8-.6,2.8,0-.8,1.6-1.9,1.5-2.8,0Z"/>
  <path class="cls-3" d="M60,61.2h1l.5.7c-.7.5-1.4.5-2,0l.5-.8Z"/>
  <path class="cls-3" d="M75,61.1c-.6.9-1.3,1.7-2.1,2.4-2-.8.7-3.4,2.1-2.4Z"/>
  <path class="cls-7" d="M75,61.1c1.1.4,2.1,1,3.1,1.6-1.7.3-3.4.7-5.2.8.8-.7,1.5-1.5,2.1-2.4Z"/>
  <path class="cls-2" d="M21.2,62.2c1.3.3,2.6.6,3.8,1-.8,1.2-1.1,2.4-2.8,2.5-.5-1.2-.8-2.3-1-3.6Z"/>
  <path class="cls-7" d="M59.5,61.9c.7.5,1.4.5,2,0,.5.6.5,1.2,0,1.9-1.4,1.2-3.4-.4-2.1-1.9Z"/>
  <path class="cls-2" d="M100,63c-1,1-2,2-3,3-.2-.9-.4-1.9-.6-2.9.8-1.5,2.3-.2,3.6-.1Z"/>
  <path class="cls-3" d="M22.3,63.3q.5.4,0,0Z"/>
  <path class="cls-3" d="M44.2,64.3c-2.6,2.1-5.1,2.4-8.3,2.5,1.3-3.5,5.4-2.6,8.3-2.5Z"/>
  <path class="cls-5" d="M44.2,64.3c1.4-.2,1.6,2.3,2.1,3.2-1.4.2-2.8.5-4.2.7,1,.5,2,.9,3,1.4-.9,1.1-1.9,2.4-3.1,3.1-3.1-.4-4.5-3.6-6-5.9,3.2-.1,5.7-.4,8.3-2.5Z"/>
  <path class="cls-3" d="M81.2,64.3c-2.5,1.6-3.8,2-6.8,2,2.1-2.7,3.7-2.3,6.8-2Z"/>
  <path class="cls-5" d="M81.2,64.3c1.3.1,2.6.4,3.9.6-.7,1.6-1.3,3.4-2.3,4.8-1.2,1.4-3,2.3-4.5,3.2-.8-1-1.6-2-2.4-3,.9-.5,1.9-1.1,2.8-1.6-1.5-.6-3-1.2-4.3-2.1,3,0,4.3-.4,6.8-2Z"/>
  <path class="cls-3" d="M68.3,65.6c2,2.9,3.5,5.8,6.6,7.6,1,5.4.7,11-4.1,14.5-4.6,2.1-10.5,1.7-15.5,1.7-6.5,0-11.4-6.9-10-13.1.4-1.4,1-2.7,1.6-4.1l.6-.4c3.1-1.8,4-5.3,7.3-6,4.2-1.2,9.2-.5,13.5-.3Z"/>
  <path class="cls-7" d="M48.2,66.3l1.9-.4c-.7,1.9-1.4,3.7-2.3,5.5-2.5-.9-.8-3.8.4-5Z"/>
  <path class="cls-1" d="M56.2,67c2.5-.4,2.1,2.2,3,3.8-1.1,0-2.3,0-3.4,0,.1-1.3.3-2.6.4-3.9Z"/>
  <path class="cls-4" d="M63.1,67.6c-.2,1.2-.4,3.2-2,3.1-.7-.2-1.1-.7-1.2-1.4,0-1.6,2-1.5,3.1-1.7Z"/>
  <path class="cls-4" d="M63.7,67.3h2.4c0,1.3,0,2.7-.2,4.2-2.4-.7-1.8-2.2-2.3-4.2Z"/>
  <path class="cls-4" d="M53.1,68.6c1.2-.6,2.4,2.1,1.6,2.9-1.4.6-2.5-2-1.6-2.9Z"/>
  <path class="cls-4" d="M68.2,68.2c.8.6,1.2,2.7.4,3.4-2,.5-2.5-3.7-.4-3.4Z"/>
  <path class="cls-1" d="M85.9,69.8c.3,7.3.8,14.1-2.7,20.8-.6-.4-1.3-.8-1.9-1.2-1.8,2-3.5,4-5.2,6.1,2.3.3,4.6.6,6.9.9-3.7,3-7.6,5.3-12.3,6.3-4.7,1-9.9,2-14.7,1.2-1.5-.1-2.5-2.2-3.4-3.3-.7.2-1.3.5-2,.8-.4-1.5-.7-3-1-4.6,3,2.1,6.7,5.4,10.4,5.6,4.3-.2,8.7-3.8,12-6.4,3.2-2.7,7.1-5.2,8.9-9.1,1.9-3.8,2.5-7.8,2.5-11.9-.2-2.3,1.3-3.5,2.5-5.3Z"/>
  <path class="cls-5" d="M46.9,72.2c-.6,1.3-1.2,2.7-1.6,4.1-1.5,6.2,3.4,13.1,10,13.1,5,0,10.9.5,15.5-1.7,4.9-3.5,5.1-9.1,4.1-14.5,2.1.7,4.2,1.1,6.2,2,.4.7.5,1.5.4,2.4-.8,5.1-2.6,9.9-6.7,13.2-3.8,3.1-7.7,7-12.3,8.8-3.9,1.4-6.7-1.5-9.6-3.6l1.9-.2c-2.6-2.7-5.7-4.8-8.5-7.3-3.3-2.9-4.6-7.9-5.4-12l.3-1.8c1.9-.7,3.8-1.6,5.7-2.5Z"/>
  <path class="cls-2" d="M67,72.9c1.7.9,1.8,3.5,2.2,5.2-.6-.6-1.2-1.2-1.8-1.8-.3.8-.5,1.7-.8,2.5-.4-1.9-1-2.9-2.3-4.2-.1,1.8-.3,3.7-.3,5.6-.9-1.2-1.9-2.3-2.9-3.4,0-.9,0-1.8,0-2.7,1.7-.5,4.5-2.5,6-1.1Z"/>
  <path class="cls-7" d="M37.6,73.1l.6.7-.2.9c-1.8-.1-1.9-.6-.4-1.5Z"/>
  <path class="cls-2" d="M56.1,72.3c1.5,2.2,1.3,4.1,1.1,6.5-.8.3-1.5.6-2.3.9,0-1.1,0-2.1,0-3.1-1.1,0-2.3,0-3.4-.2,1-2.9,1.5-3.2,4.5-4.2Z"/>
  <path class="cls-3" d="M41.3,74.7l-.3,1.8-1.6.6c-.5-1.9,0-2.6,1.9-2.5Z"/>
  <path class="cls-3" d="M64.3,74.6c1.3,1.3,1.9,2.4,2.3,4.2-.6.8-1.3,1.5-1.9,2.2l-.6-.9c0-1.9.1-3.7.3-5.6Z"/>
  <path class="cls-4" d="M23.3,76.2c1.8-1.2,2.9,1.6.8,2-1.1-.3-1.4-1-.8-2Z"/>
  <path class="cls-1" d="M67.4,76.3c.6.6,1.2,1.2,1.8,1.8,0,3.1-1.7,5.6-5,5-3.6-.8-2.8-3.5-3.1-6.3,1,1.1,2,2.2,2.9,3.4l.6.9c.7-.7,1.4-1.4,1.9-2.2.3-.8.5-1.7.8-2.5Z"/>
  <path class="cls-1" d="M96.2,75.9c1.7-.4,2.4,1.6.8,2.3-1.8.4-2.4-1.6-.8-2.3Z"/>
  <path class="cls-7" d="M39.3,77.1l1.6-.6c.8,4.2,2.1,9.2,5.4,12,2.8,2.5,5.9,4.6,8.5,7.3l-1.9.2c-3-2.3-6.3-4.4-8.9-7.2-3-3.4-4-7.4-4.8-11.8Z"/>
  <path class="cls-1" d="M57.2,78.8c.6,1.4,1.2,2.8,1.8,4.2-2.1,0-4.2,0-6.3-.2.7-1,1.4-2.1,2.1-3.1.7-.3,1.5-.7,2.3-.9Z"/>
  <path class="cls-1" d="M24.2,80.3c1.7-.3,2.2,1.9.7,2.5-1.7.3-2.2-1.9-.7-2.5Z"/>
  <path class="cls-7" d="M37.5,80.4v.3c0-.1,0-.2,0-.3Z"/>
  <path class="cls-4" d="M96.1,80.3c1.7.2,1.5,2.5-.1,2.7-1.7-.2-1.5-2.4.1-2.7Z"/>
  <path class="cls-4" d="M25.1,84.2c1.7-.3,2.2,1.8.7,2.4-1.7.3-2.3-1.8-.7-2.4Z"/>
  <path class="cls-3" d="M38.8,84.2l.3.8c-1.2,2.2-2.6-.7-.3-.8Z"/>
  <path class="cls-1" d="M94.3,84.3c1.5-.8,2.7,1,1.6,2.2-1.4.8-2.7-1-1.6-2.2Z"/>
  <path class="cls-1" d="M51.3,85.2c1.5-.8,2.6,1.2,1.5,2.3-1.5.9-2.6-1.2-1.5-2.3Z"/>
  <path class="cls-4" d="M53.5,85.2c3.4-.6,6.3-.8,9.5.6-1.2.5-2.4,1.2-3.7,1.3-2.1.2-4-1-5.8-2Z"/>
  <path class="cls-1" d="M63.6,85.3c1.3-1,2.9.9,1.9,2.1-1.3,1-2.8-.9-1.9-2.1Z"/>
  <path class="cls-4" d="M67.6,85.1c1-.9,2.9-.4,3.3.9,0,1.9-4.1.8-3.3-.9Z"/>
  <path class="cls-7" d="M40,87c.4.7.8,1.5,1.1,2.2-.2.8-.5,1.3-1,1.5-1.9-.4-2.6-3.6,0-3.7Z"/>
  <path class="cls-4" d="M27.1,88c1,1,1.9,2.1,2.7,3.2,8.7,12.9,26.5,18.3,41.2,13.8,7.2-2.1,14.6-6.2,18.7-12.7,1.4-1.7,2.7-4.8,5.3-4.3.3,3.4-2.8,6.7-4.8,9.2-11.6,12.7-31,15.8-46.5,9.2-8.2-3.3-14.7-9.6-18.8-17.4.7-.3,1.5-.7,2.2-1Z"/>
  <path class="cls-3" d="M85.5,89.1c1.5-1,2.5,1.5.7,1.8-1-.3-1.2-.9-.7-1.8Z"/>
  <path class="cls-3" d="M60.2,92.1c1.8.3.8,2.7-.8,1.7-.5-.9-.2-1.4.8-1.7Z"/>
  <path class="cls-3" d="M44.4,97.3c1.5-1.3,3.5.5,2.2,2.1-1.5,1.3-3.4-.6-2.2-2.1Z"/>
  <path class="cls-6" d="M79.8,67c-9-8.4-20.2-5.8-19.5-2-1.1.4-3.9-3.5-12.3-1.5-5.6,3.4-9.9,4.7-7.9,11.5,2.3,2.4,4.4,7.3,4.7,11.5.3,3.5,3.8,5.9,7.2,5s3.4-1.1,6.1-1.8c2.2.4,4.8,3.1,7.3,3.5,8.1,1.2,14.8-3,16.8-11.6,1.5-6.3-.8-13.8-2.4-14.6Z"/>
  <path class="cls-3" d="M56.2,67c0,5.8.5,12.6-1.5,18.1-1,3.2-5.2,2-5.2-.8-.6-4.9-1.6-8-4.6-12,3.4-4.4,5.7-5.4,11.3-5.3Z"/>
  <path class="cls-3" d="M65.2,68.5c3.9-1.2,7.8-.6,10.3,2.8,3.8,6.2,1.6,18.4-7.5,17.7-10.5-1-11.7-16.6-2.8-20.5Z"/>
  <path class="cls-6" d="M68.1,73.8c3.7,3,4,10.3-2.3,9.3,0-3.8-.2-6.2,2.3-9.3Z"/>
</svg>