<?xml version="1.0" encoding="UTF-8"?>
<svg id="_Слой_1" data-name=" Слой 1" xmlns="http://www.w3.org/2000/svg" version="1.1" viewBox="0 0 120 120">
  <defs>
    <style>
      .cls-1 {
        fill: #09c300;
      }

      .cls-1, .cls-2, .cls-3, .cls-4, .cls-5, .cls-6, .cls-7, .cls-8, .cls-9, .cls-10, .cls-11, .cls-12, .cls-13, .cls-14, .cls-15, .cls-16, .cls-17, .cls-18, .cls-19, .cls-20, .cls-21, .cls-22, .cls-23, .cls-24, .cls-25, .cls-26, .cls-27, .cls-28, .cls-29, .cls-30, .cls-31, .cls-32, .cls-33, .cls-34, .cls-35, .cls-36, .cls-37, .cls-38, .cls-39, .cls-40, .cls-41, .cls-42, .cls-43, .cls-44, .cls-45, .cls-46, .cls-47, .cls-48, .cls-49, .cls-50, .cls-51, .cls-52, .cls-53, .cls-54, .cls-55, .cls-56, .cls-57, .cls-58, .cls-59, .cls-60, .cls-61, .cls-62, .cls-63, .cls-64 {
        stroke-width: 0px;
      }

      .cls-2 {
        fill: #01c8ea;
      }

      .cls-3 {
        fill: #98b8ca;
      }

      .cls-4 {
        fill: #00c9eb;
      }

      .cls-5 {
        fill: #839caa;
      }

      .cls-6 {
        fill: #2fbbd7;
      }

      .cls-7 {
        fill: #a4b7c7;
      }

      .cls-8 {
        fill: #7699aa;
      }

      .cls-9 {
        fill: #04c3e6;
      }

      .cls-10 {
        fill: #9dc8d1;
      }

      .cls-11 {
        fill: #010117;
      }

      .cls-12 {
        fill: #a3e2e6;
      }

      .cls-13 {
        fill: #0d2341;
      }

      .cls-14 {
        fill: #f1df42;
      }

      .cls-15 {
        fill: #a4c4cc;
      }

      .cls-16 {
        fill: #8ce9ea;
      }

      .cls-17 {
        fill: #f71ebb;
      }

      .cls-18 {
        fill: #f8cf00;
      }

      .cls-19 {
        fill: #3c7aa0;
      }

      .cls-20 {
        fill: #00c300;
      }

      .cls-21 {
        fill: #f2f6ef;
      }

      .cls-22 {
        fill: #0d2442;
      }

      .cls-23 {
        fill: #e72dba;
      }

      .cls-24 {
        fill: #c8e0e4;
      }

      .cls-25 {
        fill: #3986a8;
      }

      .cls-26 {
        fill: #aecfd8;
      }

      .cls-27 {
        fill: #184160;
      }

      .cls-28 {
        fill: #194464;
      }

      .cls-29 {
        fill: #b7cad4;
      }

      .cls-30 {
        fill: #cecf6a;
      }

      .cls-31 {
        fill: #eb34bd;
      }

      .cls-32 {
        fill: #a5b7c7;
      }

      .cls-33 {
        fill: #db4dbd;
      }

      .cls-34 {
        fill: #9ee3cf;
      }

      .cls-35 {
        fill: #ff6b00;
      }

      .cls-36 {
        fill: #02041b;
      }

      .cls-37 {
        fill: #3b789e;
      }

      .cls-38 {
        fill: #eaf9f7;
      }

      .cls-39 {
        fill: #b6cbd4;
      }

      .cls-40 {
        fill: #c5ebec;
      }

      .cls-41 {
        fill: #5c87a0;
      }

      .cls-42 {
        fill: #1c4766;
      }

      .cls-43 {
        fill: #f8b811;
      }

      .cls-44 {
        fill: #bed6dd;
      }

      .cls-45 {
        fill: #9bb5c5;
      }

      .cls-46 {
        fill: #abdae0;
      }

      .cls-47 {
        fill: #8be9ea;
      }

      .cls-48 {
        fill: #11c400;
      }

      .cls-49 {
        fill: #dd23b1;
      }

      .cls-50 {
        fill: #f8c900;
      }

      .cls-51 {
        fill: #f5d61b;
      }

      .cls-52 {
        fill: #cedfe4;
      }

      .cls-53 {
        fill: #efa81c;
      }

      .cls-54 {
        fill: #3e6680;
      }

      .cls-55 {
        fill: #0e523e;
      }

      .cls-56 {
        fill: #f3f4ea;
      }

      .cls-57 {
        fill: #f8d000;
      }

      .cls-58 {
        fill: #3a79a0;
      }

      .cls-59 {
        fill: #b1dcc2;
      }

      .cls-60 {
        fill: #0f2a48;
      }

      .cls-61 {
        fill: #7097aa;
      }

      .cls-62 {
        fill: #83aeb0;
      }

      .cls-63 {
        fill: #f1e147;
      }

      .cls-64 {
        fill: #eee65d;
      }
    </style>
  </defs>
  <path class="cls-57" d="M65,8.2c-.5,4.5-8.6,11.5-10.5,5-1.2-.9-2.3-2-3.3-3,2.8.8,10.2-4.9,9.5-6.9,1.1,2.6,2.9,4.1,4.2,4.9Z"/>
  <path class="cls-35" d="M65,8.2c1.3.8,2.6,1.5,4.1,2.1-1.9,2.4-3.7,3.7-4.2,7.7-3.6-.8-3.3-2.1-9.4,0,0-2.9-.5-3-.8-4.6s0,0,0,0c3.8,2.6,9.9-.5,10.3-5.2Z"/>
  <path class="cls-11" d="M51.3,10.4c1.1,1.1,2.3,2.1,3.3,3,1.2,2.6,1.3,2.9.8,4.6,4.1-1.3,4.1-1.9,9.4,0,.7-4.5,2.4-5.2,4.2-7.7.9.1,1.9.3,2.9.4l.3,1.5c-1.3.9-2.8,1.7-4.1,2.5v3.8c2.1,1.3,6.6,2.4,7.1,5.3-.7,5.2-3,10.2-4.2,15.4,6.5,3.8,12.4,7.5,16.1,14.4,4.8,8.3,4.6,18.4.5,26.9-3.8,6.8-9.7,11.3-16.9,13.8-7.1,1.3-13,1.3-20.1,0-6.8-2-11.5-6-16.1-10.9-2.1-4.9-4.1-9.4-4.2-14.8-.4-7,2-13.8,6.5-19.1,3.7-4.5,8.2-7.1,13.1-10.2-1.1-4.2-2.4-8.5-3.4-12.6-.3-1.3-.5-2.5-.9-3.8,2.6-1.6,5.4-3.2,8.1-4.6-.5-1.6-1.1-3.2-1.6-4.8-2.1-.8-4.2-1.3-6.5-.8-1.1,2-1.6,4.1-2.3,6.2-.9-.3-1.9-.4-2.8-.7-1.9-1.1-3.6-2.3-5.2-3.6v-1.7c-1.5,1.6-2.8,3.3-4.4,4.9l-1.3,1.3c1.5,1.7,2.8,3.4,4.1,5-.9-.1-1.7-.4-2.6-.5.5,2.1,1.2,4.1,1.7,6.2-1.2-.4-2.4-.7-3.6-1.1-.9-.9-1.9-2-2.8-2.9-.9.1-1.7.3-2.6.5-.9.4-1.9.8-2.8,1.2,1.6,2.1,3,4.1,4.6,6.2-1.2.9-2.3,1.9-3.6,2.6-.7-2-1.6-3.8-2.6-5.6-1.3,1.2-2.5,2.3-3.7,3.4.8.9,1.5,1.9,2.3,2.9h-4.5c1.1,1.7,2.1,3.3,3.2,5-1.7,1.1-3.8,2.1-5.3,3.4-.5,1.2-.8,2.6-1.1,3.8,2.6.9,5.3,1.9,8.1,2.1,2.1.1,4.1.3,6.2.5-.7.9-1.3,1.9-2.3,2.5-2.3.4-4.5.3-6.8.5-1.5.3-2.9.7-4.4,1.1-.3,2.1-.3,4.4-.3,6.5h8.2c-.4.8-.8,1.7-1.2,2.6-2.5,1.2-5,2.3-7.3,3.8-.5,2,.5,4.4,1.1,6.4-.7.7-1.2,1.3-1.7,2-.1-15.5,0-31-.5-46.5.7-7.7,5.2-14.7,12.4-17.7,9.4-4.5,19.7-.9,29.5-2.9v-.3Z"/>
  <path class="cls-22" d="M72,10.9h6.4c-.5,2.1-.9,4.2-1.5,6.4,1.2-.7,2.4-1.3,3.6-2l-.5.8c1.1,1.6,2.3,2.9,3.4,4.4.7-.5,1.2-1.2,1.9-1.7l-.5,1.5c1.7-.7,3.6-1.5,5.3-2.1.4.7.8,1.3,1.2,2-.5,1.2-1.1,2.5-1.6,3.7,1.1.8,2,1.7,3,2.5,1.2-1.2,2.5-2.4,3.7-3.6,1.1-.1,2.1-.3,3.3-.4.4,1.7.8,3.4,1.3,5.2-.7.8-1.3,1.6-2,2.4h3.3c-.4,1.2-.9,2.4-1.3,3.6-.9.7-1.9,1.3-2.8,2,2.1,2.1,4.2,4.2,6,6.8l.5.8c1.2-1.1,2.3-2.3,3.4-3.4,1.1.4,2.1.8,3,1.2v-6.8l-1.5.9c-2-1.3-3.7-2.8-5.4-4.5v-.7c1.9-.3,3.6-.7,5.4-1.1v3.2c.7-1.2,1.3-2.5,2-3.7.7,4.5.4,9.3.3,13.9-.3,1.3-.5,2.6-.8,4-2-.5-4-1.6-6.1-1.1-2.8.5-5.2,1.2-8.1.3,1.6-1.9,3.2-3.6,4.6-5.4-3-1.2-6.1-2-9.3-2.6,1.9-2.8,3.6-5.7,4.9-8.7-1.2-.1-2.3-.3-3.4-.4-2.5,1.9-5,3.4-7.7,4.8.5-3,1.3-6.1,2.1-9.1-2.8.8-5,1.7-7.5,3.3.4-2.4.7-4.6,1.1-7-1.5-.4-2.9-.9-4.4-1.5-1.6-2-3.2-4-4.9-6l-.3-1.5h-.3Z"/>
  <path class="cls-11" d="M78.3,10.9c7.8,0,15-1.1,22.1,2.8,6.1,2.8,8.9,8.3,11,14.3-.7,1.2-1.3,2.5-2,3.7v-3.2c-1.9.4-3.6.8-5.4,1.1-.7,0-1.2,0-1.9.1h-3.3c.7-.8,1.3-1.6,2-2.4.8-.9,1.6-1.9,2.4-2.8-.4-.9-.8-1.9-1.2-2.8-.8,0-1.6.3-2.5.4-1.1.1-2.1.3-3.3.4-1.7-.9-3.3-1.9-5-2.8-.4-.7-.8-1.3-1.2-2-1.7.7-3.4,1.5-5.3,2.1l.5-1.5c.5-.8,1.2-1.6,1.7-2.4-.4-.5-.9-.9-1.3-1.5-.7-.8-1.5-1.6-2.1-2.4-1.1.9-2,1.9-3,2.6-1.2.7-2.4,1.3-3.6,2,.4-2.1.9-4.2,1.5-6.4v.4Z"/>
  <path class="cls-63" d="M83.4,12.5c.7.8,1.5,1.6,2.1,2.4-1.9.4-3.7.8-5.7,1.1l.5-.8c1.1-.9,2-1.9,3-2.6Z"/>
  <path class="cls-30" d="M35.1,13.1v6c-1.5-.4-2.9-.8-4.2-1.1,1.5-1.6,2.8-3.2,4.2-4.9Z"/>
  <path class="cls-42" d="M45.4,12.7c2.3-.7,4.4,0,6.5.8-2.6,1.9-5,4-7.1,6.4-.5.3-1.1.5-1.6.9-.9.5-1.7,1.1-2.5,1.7-.7,1.2-.3,2.9,0,4.2.4,1.5.9,2.8,1.3,4.2-.7-.3-1.3-.5-2.1-.8,0-1.1-.5-1.9-1.2-2.4l-1.5-1.3c-2.5,3.2-.7,5.7,0,9.1-2.4-1.1-4.8-2.1-7.1-3.3-.7.4-1.5.8-2.1,1.2.7,1.7,1.5,3.3,2.3,4.9.3.9,1.2,1.3,2.4,1.3l.4,1.9c-4.2,0-7.7-1.9-11.4-3.7-1.3,1.6-2.6,3.3-3.8,5-.5.7-1.1,1.3-1.6,2.1.5,1.1,1.1,2.1,1.5,3.2.3,1.2.5,2.3.8,3.4-2.8-.3-5.4-1.1-8.1-2.1.3-1.3.5-2.6,1.1-3.8,1.6-1.5,3.6-2.4,5.3-3.4-1.1-1.7-2.1-3.3-3.2-5h4.5c1.3-.1,2.8-.4,4.1-.8,1.2-.8,2.4-1.7,3.6-2.6-1.6-2-3-4.1-4.6-6.2.9-.4,1.9-.8,2.8-1.2.5,1.6.9,3,1.5,4.6,1.3-.8,2.6-1.5,3.8-2.3,1.2.4,2.4.7,3.6,1.1-.5-2.1-1.2-4.1-1.7-6.2.9.1,1.7.4,2.6.5.5.4.9.8,1.5,1.2,1.7-2.4,3.6-4.6,5.2-7,.9.3,1.9.4,2.8.7.7-2.1,1.3-4.2,2.3-6.2h.1Z"/>
  <path class="cls-19" d="M72.2,12.3c1.6,2,3.3,4,4.9,6,1.5.5,2.9.9,4.4,1.5-.3,2.4-.7,4.6-1.1,7,2.4-1.5,4.8-2.5,7.5-3.3-.8,3-1.6,6.1-2.1,9.1,2.8-1.3,5.3-2.9,7.7-4.8,1.2.1,2.3.3,3.4.4-1.3,3-3,6-4.9,8.7,3.2.7,6.4,1.5,9.3,2.6-1.6,1.9-3.2,3.6-4.6,5.4,2.8.8,5.3.3,8.1-.3,2.1-.5,4.1.4,6.1,1.1.3-1.3.5-2.6.8-4v5.3c-3.2,1.2-6.2,2.5-9.3,3.8.5.5,1.1,1.1,1.5,1.5-2.4,1.2-4.8,2.6-7.1,3.8-.1-1.1-.3-2.1-.4-3,1.9-1.5,3.7-2.9,5.6-4.4-2.1-.8-3.6-1.2-5.8-.5-.9-.7-1.9-1.3-2.6-2.1,1.6-1.7,3.3-3.6,4.9-5.4-.8-.5-1.6-1.1-2.4-1.6-2.8,1.3-5.4,2.6-8.3,3.7l-1.1-1.2c1.7-1.5,3.4-2.9,5.2-4.4-1.2-1.3-2.5-2.5-3.7-3.8-1.6.9-3.2,2-4.8,2.9-.3-.5-.5-.9-.8-1.5.9-2.3,1.9-4.5,2.6-6.8-2.5,0-5,.3-7.5.7.7-1.5,1.2-2.9,1.9-4.4-3-3.6-6-7-10.1-9.5-.4.5-.8,1.2-1.1,1.7v-2.4c1.3-.8,2.8-1.7,4.1-2.5v.5Z"/>
  <path class="cls-32" d="M51.9,13.5c.7,1.6,1.1,3.2,1.6,4.8-2.6,1.6-5.4,3.2-8.1,4.6-.3-1.1-.5-2.1-.8-3.2,2.1-2.4,4.5-4.5,7.1-6.4h.1Z"/>
  <path class="cls-18" d="M35.2,14.9c1.6,1.3,3.3,2.6,5.2,3.6-1.6,2.4-3.3,4.8-5.2,7-.5-.4-.9-.8-1.5-1.2-1.5-1.6-2.8-3.3-4.1-5l1.3-1.3c1.5.4,2.9.8,4.2,1.1v-4.2h0Z"/>
  <path class="cls-38" d="M69.1,15.5c4,2.5,7,6,10.1,9.5-.7,1.5-1.2,2.9-1.9,4.4-.5,1.3-1.1,2.6-1.6,4,1.5.4,3,.8,4.5,1.3v3.6c2.5,1.9,4.5,3.8,6.4,6.5,1.6-.4,3.2-.8,4.8-1.3-.5,2-1.3,4.1-1.5,6.1.3,1.3,1.7,2.5,2.5,3.6-.3,1.1-.5,2.1-.8,3.3,1.6,0,3.3.1,4.9,0,2.4-1.3,4.8-2.6,7.1-3.8,1.5,1.5,2.9,3,4.4,4.6-.7,0-1.5,0-2.1.1-1.3-1.2-2.6-2.4-4-3.4-.3,1.2-.5,2.4-.8,3.6h-3.2c-.7.8-1.3,1.6-2.1,2.4l-.5.7c-.7.8-1.5,1.7-1.7,2.8.4,1.9,1.3,3.7,2.1,5.6-3.7,4.2-4.2,9.4-6.6,14.3-.5-.7-1.1-1.5-1.7-2.1,4-8.6,4.2-18.7-.5-26.9-3.7-6.9-9.7-10.6-16.1-14.4,1.2-5.2,3.6-10.2,4.2-15.4-.5-2.8-5-3.8-7.1-5.3v-1.5c.4-.5.8-1.2,1.2-1.7v-.4Z"/>
  <path class="cls-48" d="M85.5,14.9c.4.4.9.9,1.3,1.5-.5.8-1.2,1.6-1.7,2.4-.5.5-1.2,1.2-1.9,1.7-1.2-1.5-2.4-2.9-3.4-4.4,1.9-.4,3.7-.8,5.7-1.1h0Z"/>
  <path class="cls-33" d="M96.1,22.7c-1.2,1.2-2.5,2.4-3.7,3.6-.9-.8-2-1.7-3-2.5.5-1.2,1.1-2.5,1.6-3.7,1.7.9,3.4,1.9,5,2.8h.1Z"/>
  <path class="cls-41" d="M43.2,20.8c.5-.3,1.1-.7,1.6-.9.3,1.1.5,2.1.8,3.2.3,1.3.5,2.5.9,3.8-.8-1.2-1.5-2.3-2.3-3.3-1.2,1.1-2.4,2.3-3.4,3.3-.1-1.3-.7-3,0-4.2.8-.7,1.6-1.2,2.5-1.7h-.1Z"/>
  <path class="cls-64" d="M68.2,21.9c-4.9,4.4-11.1,4.2-16.9,1.7l-.4-1.3c5.7-2.3,11.5-2.3,17.3-.3h0Z"/>
  <path class="cls-44" d="M19.6,21.2c1.6,2.4,1.6,3.3.9,6-1.1-.8-2.1-1.7-3.2-2.5.8-1.2,1.5-2.4,2.4-3.4h-.1Z"/>
  <path class="cls-35" d="M68.2,21.9c.7.1,1.3.4,1.9.7,0,1.5-.3,3-.4,4.5-.9,0-1.9,0-2.8.1.5-.9,1.1-1.7,1.6-2.6-2.4.7-4.8,1.2-7.1,1.9.9.4,1.9.7,2.9,1.1-1.6,1.2-5.2,3.4-6.8,4.5.7.5,2.6.5,4,.5-2.1-.3-4.8-.1-6.6-1.2-.9-1.1-1.7-2.3-2.4-3.4-.1-.7-.4-1.3-.5-2.1l-.5-2.4c5.7,2.6,12,2.6,16.9-1.7v.3Z"/>
  <path class="cls-39" d="M101.9,21.9c.4.9.8,1.9,1.2,2.8-.8.9-1.6,1.9-2.4,2.8-.5-1.7-.9-3.4-1.3-5.2.8,0,1.6-.3,2.5-.4Z"/>
  <path class="cls-12" d="M50.9,22.1l.4,1.3.5,2.4c-1.3.4-2.6.8-4,1.2.4-2.5.8-3.4,3-4.9Z"/>
  <path class="cls-10" d="M70,22.4c.9.5,1.9,1.1,2.6,1.6,0,.9.3,1.9.4,2.8-1.2,0-2.3,0-3.4.1,0-1.5.3-3,.4-4.5Z"/>
  <path class="cls-7" d="M44.1,23.6c-.4,4.2-.4,8.3,0,12.6-1.2-.5-2.4-.9-3.6-1.5-.3,1.6-.5,3-.8,4.6-1.7,0-3.4-.1-5.2-.3.5,1.9,1.1,3.7,1.6,5.6-2,.5-3.8.7-6,.5.1,2.1.3,4.1.4,6.1-.8.3-1.6.5-2.4.8-.5,3.3-2.4,6.2-3.2,9.5-1.1,2.1-2.4,4.1-3.4,6.2.5,2.1,2.8,3.8,3.7,6,0,1.5-.5,2.9-.8,4.2-.3.9-.7,2-.9,2.9-.4-2.1-.9-4.4-.9-6.5s0-3.4-2-2.9c-.8.5-1.3,1.3-1.5,2.4-.9-.1-1.9-.3-2.9-.4-.3-1.3-.5-2.8-.4-4.2,1.7-1.7,4.1-3,6.2-4.4-.5-1.6-1.1-3-1.5-4.6.3-.7.5-1.3.8-2h-6.9c.4-1.1.9-2,1.3-3,2.3-.3,4.6-.1,6.8-.5.9-.7,1.6-1.6,2.3-2.5,1.5-2.1,2.5-4.4,3.6-6.6-.9-.5-1.9-1.1-2.8-1.5-1.3-1.2-2.5-2.4-3.7-3.6-.5,1.1-1.2,2.1-1.7,3.2-.8-.1-1.6-.4-2.3-.5,1.3-1.7,2.5-3.3,3.8-5,3.7,1.9,7.1,3.7,11.4,3.7l-.4-1.9c0-1.6-1.2-2.9-2.4-1.3-.8-1.6-1.6-3.3-2.3-4.9.7-.4,1.5-.8,2.1-1.2,2.4,1.2,4.8,2.3,7.1,3.3-.7-3.4-2.5-6,0-9.1l1.5,1.3c-1.5.4-2.1,1.2-2.1,2.4.5,1.7,2.5.9,3.4,0,.7.3,1.3.5,2.1.8-.5-1.5-.9-2.8-1.3-4.2,1.2-1.1,2.3-2.3,3.4-3.3h-.4Z"/>
  <path class="cls-38" d="M44.1,23.6c.8,1.1,1.6,2.3,2.3,3.3,1.1,4.2,2.4,8.5,3.4,12.6-4.9,2.9-9.4,5.7-13.1,10.2-4.5,5.3-6.9,12-6.5,19.1,0,5.4,2.1,9.9,4.2,14.8-4.1-1.5-4.5-4.9-6.5-8.3-1.1-2.1-2.4-4.1-3.2-6.2,0-2.4,1.1-4.8,1.7-7l-1.6-.5c.8-3.3,2.6-6.1,3.2-9.5.8-.3,1.6-.5,2.4-.8,0-2-.3-4.1-.4-6.1,2.1,0,4,0,6-.5-.5-1.9-1.1-3.7-1.6-5.6,1.7,0,3.4.1,5.2.3.3-1.6.5-3,.8-4.6,1.2.5,2.4.9,3.6,1.5-.3-4.2-.3-8.3,0-12.6h.1Z"/>
  <path class="cls-53" d="M26.6,26c.9.9,1.9,1.9,2.8,2.9-1.3.8-2.6,1.5-3.8,2.3-.5-1.6-1.1-3-1.5-4.6.8-.1,1.7-.4,2.6-.5h-.1Z"/>
  <path class="cls-31" d="M38.7,28c.7.5,1.1,1.3,1.2,2.4-.9,1.1-2.9,1.7-3.4,0,0-1.2.8-2,2.1-2.4h.1Z"/>
  <path class="cls-16" d="M52.3,27.8c.8,1.2,1.5,2.4,2.4,3.4,2,1.1,4.5.9,6.6,1.2,3.6,0,6-3.2,9.3-3.2.3.9.4,1.9.5,2.8-2.8.7-5.4,1.5-8.2,2-2.8.4-5.6.5-8.3.7,1.2.5,2.3,1.2,3.4,1.7-1.5.3-3,.5-4.5.8-.3,1.9-.4,3.7-.7,5.6,1.6.9,3.3,1.9,4.9,2.6-1.1,1.7-2.3,3.3-3.4,4.9-1.1.4-2.1.9-3,1.3l.5,2.1c-2,.5-4.1.9-6.1,1.5-.3-.9-.4-1.9-.7-2.8-5.4,2.1-8.5,5-9,11.1-1.2,6.1,1.1,11.1,3.2,16.7l.5,1.6c-2.3-3-3.8-6.4-5.4-9.8-.3,1.6-.4,3-.5,4.6-2.5-6.6-2.4-14,.8-20.4,2.9-5.6,7.4-9.8,12.8-12.8,1.7-1.2,4.4-2.1,4.1-4.6-.3-2.8-1.6-5.4-2-8.2.8-1.1,1.6-1.9,2.5-2.6h.3Z"/>
  <path class="cls-32" d="M84.9,28.8c-.9,2.3-1.9,4.5-2.6,6.8.3.5.5.9.8,1.5,1.1,1.7,2.1,3.6,3.3,5.3l1.1,1.2c2.9-1.1,5.6-2.4,8.3-3.7.8.5,1.6,1.1,2.4,1.6-1.6,1.9-3.2,3.6-4.9,5.4-.7.7-1.3,1.3-1.9,2,.4,1.1.8,2.1,1.2,3.3,1.2-1.1,2.3-2.1,3.4-3.2,2.3-.8,3.7-.3,5.8.5-1.9,1.5-3.7,2.9-5.6,4.4.1,1.1.3,2.1.4,3h-4.9c.3-1.1.5-2.1.8-3.3-.8-1.1-2.3-2.3-2.5-3.6.1-2.1.9-4.1,1.5-6.1-1.6.4-3.2.9-4.8,1.3-1.9-2.5-3.8-4.5-6.4-6.5v-3.6c-1.5-.4-3-.8-4.5-1.3.5-1.3,1.1-2.6,1.6-4,2.5-.4,5-.5,7.5-.7v-.4Z"/>
  <path class="cls-29" d="M103.9,29.6v4.6c-1.1-.3-2.1-.7-3.2-.9.4-1.2.9-2.4,1.3-3.6.7,0,1.2,0,1.9-.1Z"/>
  <path class="cls-17" d="M103.9,30.3c1.7,1.6,3.4,3.2,5.4,4.5-2.5,2.1-4.2,4.4-5.6,7.4-1.7-2.5-3.7-4.6-6-6.8.9-.7,1.9-1.3,2.8-2,1.1.3,2.1.7,3.2.9v-4h.1Z"/>
  <path class="cls-61" d="M9.4,31c.4,15.5.3,31,.5,46.5v.9c-.4,2.6-.7,5.4-.8,8.1-.4-2.5-.4-5.2-.4-7.8.3-8.2,0-16.5,0-24.8s-.5-15.1.5-22.9h.1Z"/>
  <path class="cls-6" d="M19.6,30.9c1.1,1.7,2,3.7,2.6,5.6-1.3.3-2.8.5-4.1.8-.8-.9-1.5-1.9-2.3-2.9,1.2-1.2,2.4-2.4,3.7-3.4Z"/>
  <path class="cls-20" d="M79.7,31.4c1.7-1.2,2.6,1.5.8,1.9-1.1-.3-1.3-.9-.8-1.9Z"/>
  <path class="cls-25" d="M71.2,32.2c-.8,1.6-1.7,3.2-2.6,4.9h-.8c-1.1,0-2.1,0-3.2-.3-.5-.9-1.1-1.7-1.6-2.6,2.8-.5,5.4-1.2,8.2-2Z"/>
  <path class="cls-57" d="M87.8,33.9c1.3,1.2,2.5,2.5,3.7,3.8-1.7,1.5-3.4,2.9-5.2,4.4-1.2-1.7-2.3-3.4-3.3-5.3,1.6-.9,3.2-2,4.8-2.9Z"/>
  <path class="cls-36" d="M110.8,33.8v6.8c-1.1-.4-2.1-.8-3-1.2-1.2,1.2-2.3,2.3-3.4,3.4l-.5-.8c1.3-3,3-5.3,5.6-7.4l1.5-.9h0Z"/>
  <path class="cls-9" d="M54.7,34.8c2.8-.1,5.6-.4,8.3-.7.5.9,1.1,1.7,1.6,2.6-2.1-.1-4.2-.3-6.5-.3-1.2-.5-2.4-1.1-3.4-1.7Z"/>
  <path class="cls-13" d="M58.3,36.4c2.1,0,4.2.1,6.5.3,1.1,0,2.1.1,3.2.3l-.7.7c-.9.5-1.7,1.1-2.8,1.6-2.3.3-4.6.4-6.9.5-.8-.9-1.7-1.6-3-2.1l-.8-.4c1.5-.3,3-.5,4.5-.8Z"/>
  <path class="cls-46" d="M67.8,37.1h.8c.5,1.5.4,3.4,1.9,4.4,4.1,2.8,8.3,4.9,11.5,8.9,6,6.6,8.1,15.5,5.7,24.1-.5-4.1-.9-8.2-1.2-12.4-.4,3.8-.5,7.4-1.6,11.1,0-3.3,0-6.5.3-9.8v-1.9c.4-3.2-.1-4.6-2.1-7-2-2.6-4.1-5.2-6.9-7.1-2.4-1.9-5.4-3.2-7.5-5.3-.8-1.3-1.2-2.9-1.6-4.4l.7-.7h.1Z"/>
  <path class="cls-17" d="M32.6,39.9c-1.3,0-2.1-.4-2.4-1.3,1.2-1.7,2.4-.3,2.4,1.3Z"/>
  <path class="cls-4" d="M53.6,37.4l.8.4c0,1.3-.3,3.8,1.5,4.1.8-.3,1.3-.9,1.6-2,2.3-.1,4.6-.3,6.9-.5,0,4.1.7,5.3,3.4,8.5.7-.3,1.3-.5,2.1-.7,0,1.2-.1,2.5-.3,3.7-4.6-1.3-9.4-1.2-14.2-.4h-1.1c1.2-1.5,2.4-3,3.4-4.8-1.6-.9-3.3-1.9-4.9-2.6.1-1.9.4-3.7.7-5.6h0Z"/>
  <path class="cls-40" d="M54.4,37.6c1.3.5,2.3,1.2,3,2.1-.3,1.1-.8,1.7-1.6,2-1.7-.3-1.5-2.8-1.5-4.1Z"/>
  <path class="cls-58" d="M67.1,37.6c.5,1.5.8,3.2,1.6,4.4,2.1,2.1,5.2,3.6,7.5,5.3,2.8,2,4.8,4.5,6.9,7.1-3.6-1.6-7.3-2.4-11-3-.8-.3-1.6-.5-2.5-.8,0-1.2.1-2.5.3-3.7-.7.3-1.3.5-2.1.7-2.8-3-3.4-4.4-3.4-8.5.9-.5,1.9-1.1,2.8-1.6h0Z"/>
  <path class="cls-57" d="M21.9,40.3c1.3,1.2,2.5,2.4,3.7,3.6-1.1,1.3-2.1,2.9-3.4,4.1-1.5.1-2.9.1-4.4.3-.5-1.1-1.1-2.1-1.5-3.2.5-.7,1.1-1.3,1.6-2.1.8.1,1.6.4,2.3.5.5-1.1,1.2-2.1,1.7-3.2Z"/>
  <path class="cls-35" d="M25.6,44c.9.5,1.9.9,2.8,1.5-1.1,2.4-2.1,4.6-3.6,6.6-2.1-.1-4.1-.3-6.2-.5-.3-1.2-.5-2.3-.8-3.4,1.5,0,2.9,0,4.4-.3,1.3-1.2,2.4-2.6,3.4-4.1v.3Z"/>
  <path class="cls-43" d="M93.3,46.4c.9.7,1.9,1.3,2.6,2.1-1.2,1.1-2.3,2.1-3.4,3.2-.4-1.1-.8-2.1-1.2-3.3.7-.7,1.2-1.3,1.9-2h.1Z"/>
  <path class="cls-13" d="M111.6,47.2c.1,6.2-.3,12.6,0,18.8-.4-2.6-1.2-5.2-2.5-7.5l-.9-1.3c-1.5-1.6-2.9-3-4.4-4.6-.5-.5-1.1-1.1-1.5-1.5,3-1.5,6.1-2.8,9.3-3.8Z"/>
  <path class="cls-34" d="M69.8,50.6c.8.3,1.6.5,2.5.8-3.3,0-6.6,0-9.8-.3-2.3-.3-4.5-.7-6.8-.8,4.8-.8,9.5-.9,14.2.4h-.1Z"/>
  <path class="cls-57" d="M54.6,50.5h1.1c2.3,0,4.5.4,6.8.7-.7.3-1.2.5-1.9.9.9.7,1.9,1.3,2.9,2-6.9,0-12.8,3.2-19.6,2.6-.9-.1-2-.4-2.9-.5-1.7,2.8-2.5,5.7-3.3,8.7l-1.2-1.3c.5-6.1,3.6-9,9-11.1.3.9.4,1.9.7,2.8,2-.5,4.1-.9,6.1-1.5l-.5-2.1c1.1-.4,2.1-.9,3-1.3h-.1Z"/>
  <path class="cls-20" d="M62.4,51.1c3.3.3,6.6.3,9.8.3,3,1.3,6.1,2.6,9,4.1-1.1.5-2.3,1.2-3.3,1.7.3.8.5,1.7.8,2.5l-1.3.7c-9.1,2.5-18.1,2-27.4,1.9h-.7c-1.6-.9-3.2-1.7-4.9-2.5-.3-1.1-.4-2.3-.7-3.3,6.8.5,12.7-2.6,19.6-2.6-.9-.7-1.9-1.3-2.9-2,.7-.3,1.2-.5,1.9-.9v.3Z"/>
  <path class="cls-62" d="M72.2,51.5c3.8.7,7.5,1.5,11,3,2,2.5,2.5,3.8,2.3,7-.9-1.9-2-3.8-3.3-5.6l-.9-.4c-2.9-1.5-6-2.9-9-4.1Z"/>
  <path class="cls-38" d="M69.1,53.2c1.3.8,2.6,1.9,4,2.8-1.1,1.1-2.1,2.1-3,3.3-1.5-.8-2.8-1.7-4.2-2.5,1.1-1.2,2.3-2.5,3.4-3.6h-.1Z"/>
  <path class="cls-50" d="M102.2,53.8c1.3,1.2,2.6,2.3,4,3.4-1.1,1.3-2.1,2.6-3.3,3.8-1.9.4-4.1-.1-6-.4l-.8-.9c.7-.8,1.3-1.6,2.1-2.4h3.2c.3-1.2.5-2.4.8-3.6Z"/>
  <path class="cls-54" d="M11.3,56.2c1.5-.4,2.9-.8,4.4-1.1-.4,1.1-.9,2-1.3,3,.8,1.6,1.7,3,2.5,4.6h-5.8c0-2.1,0-4.4.3-6.5h0Z"/>
  <path class="cls-38" d="M40.8,56.2c.9.1,2,.3,2.9.5.3,1.1.4,2.1.7,3.3,1.6.8,3.2,1.6,4.9,2.3-2.1-.3-4.2-.4-6.2-.5-.5,2.5-2.3,4.5.5,6.4-.4,3.2-1.2,6.6.3,9.8,1.3,2.8,3.8,5,5.8,7.3-2.6-1.6-5.3-4.8-8.6-3.7,4.8,5.8,11.8,8.2,19.1,8.1,6.4-.5,13.2-1.5,18.1-5.7,1.9-1.5,2.5-3.4,3.4-5.6-2.4,1.6-4.2,3.6-6,5.8-.5-.5-.9-1.2-1.5-1.7l-.3-.3c-1.2-2-2.5-4-3.8-5.8,2-2,4-4.1,6-6.1,2.1,3.3,4,5.4,7.5,7-1.3,3.2-2.4,7-5.7,8.7-7.3,4.1-15.9,6.2-24.2,4.5-5.6-1.1-10.7-3.3-14-8.2l-.5-1.6c1.2-.3,2.4-.4,3.4-.7-1.6-2.3-3.4-4.5-4.5-7-.8-2.4-.7-5.2-.9-7.7.8-3,1.7-6.1,3.3-8.7l.3-.4Z"/>
  <path class="cls-5" d="M75.5,56.3c1.9.3,1.6,2.6,0,2.9-1.9-.3-1.6-2.6,0-2.9Z"/>
  <path class="cls-55" d="M81.2,55.6l.9.4c-1.2,1.3-2.3,2.5-3.4,3.8-.3-.8-.5-1.7-.8-2.5,1.1-.5,2.3-1.2,3.3-1.7Z"/>
  <path class="cls-35" d="M82.1,56c1.3,1.6,2.4,3.7,3.3,5.6v1.9c-3.2,1.6-6.4,3.4-9.7,4.8-4.8,1.7-9.9,2.3-15,2,.5-.9,1.2-1.7,1.7-2.6.5,0,1.2.3,1.7.4.3-.7.7-1.2.9-1.9.4.9.8,1.7,1.3,2.6,0-1.2.1-2.4.3-3.4l1.6.8c.9-.8,1.9-1.6,2.8-2.5,2.1-1.1,4.2-2,6.4-3l1.3-.7c1.2-1.2,2.3-2.5,3.4-3.8h-.1Z"/>
  <path class="cls-35" d="M106,57.2c.7,0,1.5,0,2.1-.1l.9,1.3c-1.1,2-2.1,4.1-3,6.1h-6.8c-.8-1.3-1.6-2.6-2.4-4,1.9.3,4,.8,6,.4,1.2-1.2,2.3-2.5,3.3-3.8h-.1Z"/>
  <path class="cls-17" d="M14.3,58.1h6.9c-.3.7-.5,1.3-.8,2-.4.9-.8,1.7-1.3,2.6h-2.4c-.8-1.6-1.7-3-2.5-4.6h.1Z"/>
  <path class="cls-28" d="M109.1,58.4c1.2,2.4,2,4.9,2.5,7.5,0,1.1,0,2.3.1,3.3-1.6,0-3.3-.1-4.9-.3-1.9-.3-3.6-.5-5.4-.8-3.7-1.6-4.6-4.4-6-7.8l.5-.7.8.9c.8,1.3,1.6,2.6,2.4,4h6.8c1.1-2,2.1-4.1,3-6.1h.1Z"/>
  <path class="cls-58" d="M20.4,60.1c.5,1.6,1.1,3,1.5,4.6-2.1,1.3-4.5,2.6-6.2,4.4,0,1.5.3,2.8.4,4.2.9.1,1.9.3,2.9.4,1.2.4,2.3.5,3.4.4,0,2.3.4,4.4.9,6.5.7,2.5-.7,4.2-1.6,6.5,1.1,1.1,2.3,2.1,3.3,3-.4,1.3-.9,2.8-1.5,4.1-.7-1.5-1.5-2.9-2.3-4.4-.9,1.6-1.9,3-2.8,4.6-1.7-1.3-4.2-2.6-4-5.3,1.3-2.4,4.4-4.1,6.4-5.8-.9-1.7-1.9-3.6-2.8-5.3-1.3-1.7-2.8-3.3-4.2-4.9-.8.7-1.7,1.3-2.5,2-.5-2-1.6-4.4-1.1-6.4,2.3-1.6,4.9-2.6,7.3-3.8.4-.9.8-1.7,1.2-2.6.4-.9.8-1.7,1.3-2.6l.3.4Z"/>
  <path class="cls-59" d="M77.3,60.5c-2.1,1.1-4.2,2-6.4,3-7.4,0-14,1.3-21-1.2,9.3,0,18.3.5,27.4-1.9Z"/>
  <path class="cls-47" d="M95.5,60.3c1.3,3.4,2.3,6.2,6,7.8-1.9,2.4-3.2,3.6-6,4.6v3l.4,2.1-.4.8c-.4.7-.7,1.3-1.1,2,.4,1.1.8,2.1,1.2,3.2-.8,1.2-1.5,2.3-2.3,3.3-1.5,1.2-3,2.3-4.8,3.2l-1.2-.5c.5,2.6,3,10.7,3.6,13.5-6.8,1.5-29.3-4.6-35.6-8.2,15.9.9,24.6-2.3,32.4-14.4.5.7,1.1,1.5,1.7,2.1,2.4-4.9,2.9-9.9,6.6-14.3-.8-1.7-1.9-3.6-2.1-5.6.1-1.1,1.1-2,1.7-2.8h-.3Z"/>
  <path class="cls-47" d="M24.9,61.4l1.6.5c-.7,2.3-1.7,4.6-1.7,7,.8,2.3,2.1,4.2,3.2,6.2,2,3.4,2.4,6.9,6.5,8.3,10.5,10.7,16.1,10.9,25.1,12.2-4.6,0-18.9,1.1-23.6,2,0-.8.5-3.6.4-4.5v-.8c-.1,0-.9-.4-.9-.4-.7-.4-1.5-.7-2.1-.9-1.6,1.2-2.8,3-4,4.6.4-2.1.7-4.4,1.1-6.5.8-.5,1.6-1.1,2.5-1.5-1.2-.9-2.4-1.7-3.6-2.6-.7-1.1-1.2-2.1-1.9-3.2-1.1,1.5-2,3-2.9,4.5-.9.3-1.9.5-2.9.8.9-2.3,2.3-4,1.6-6.5,1.1,0,2.3-.3,3.3-.4v-2.8c-.8,0-1.6,0-2.3.1.4-1.3.9-2.9.8-4.2-.9-2-3-3.8-3.7-6,1.1-2.1,2.4-4.1,3.4-6.2h0Z"/>
  <path class="cls-57" d="M43,61.7c2.1,0,4.2.3,6.2.5h.7c7,2.5,13.6,1.5,21,1.3-.9.8-1.9,1.6-2.8,2.5l-1.6-.8c0,1.2-.1,2.4-.3,3.4-.4-.9-.8-1.7-1.3-2.6-.3.7-.7,1.2-.9,1.9-.5,0-1.2-.3-1.7-.4-.5.9-1.2,1.7-1.7,2.6-2.4,0-4.8,0-7-.3h-.8c-3.2-.7-6.2-1.3-9.4-2-2.8-1.9-1.1-3.8-.5-6.4h.1Z"/>
  <path class="cls-2" d="M86.6,62.1c.3,4.1.7,8.2,1.2,12.4-1.7,7.7-7.4,14.2-14.7,16.9-8.7,3.3-19.3,3.2-27.5-1.2-5.4-2.8-9.5-7.7-11.5-13.4.1-1.6.4-3.2.5-4.6,1.6,3.4,3.2,6.8,5.4,9.8,3.2,4.9,8.3,7.1,14,8.2,8.3,1.6,16.8-.4,24.2-4.5,3.3-1.6,4.4-5.6,5.7-8.7.4-1.2.8-2.5,1.2-3.7.9-3.7,1.2-7.3,1.6-11.1h-.1Z"/>
  <path class="cls-23" d="M36.3,63.6l1.2,1.3c.3,2.5.1,5.3.9,7.7,1.1,2.5,2.9,4.9,4.5,7-1.2.1-2.4.4-3.4.7-2.1-5.6-4.4-10.6-3.2-16.7Z"/>
  <path class="cls-17" d="M85.3,63.4c-.1,3.3-.1,6.5-.3,9.8-.4,1.2-.8,2.5-1.2,3.7-3.6-1.6-5.6-3.7-7.5-7-2,2.1-4,4.1-6,6.1,1.3,1.9,2.6,3.8,3.8,5.8,0,0,0,.1.3.3.5.5.9,1.2,1.5,1.7,1.7-2.3,3.6-4.2,6-5.8-.9,2.1-1.6,4.1-3.4,5.6-5,4.4-11.8,5.2-18.1,5.7-.4-2.1-.8-4.2-1.2-6.4-.7.8-1.3,1.5-2,2.3-2.1-1.9-3.8-3-6.5-3.7-.3,1.2-.5,2.3-.7,3.4-2-2.3-4.5-4.5-5.8-7.3-1.5-3-.7-6.5-.3-9.8,3,.7,6.2,1.3,9.4,1.9-.8,1.2-1.6,2.4-2.3,3.6,1.1.9,2,2,3,2.9.7-1.1,1.3-2.3,2-3.3-.5-1.1-1.2-2.1-1.7-3.2,2.4,0,4.8.1,7,.3,5,.1,10.2-.3,15-2,3.3-1.2,6.5-3.2,9.5-4.8l-.5.3Z"/>
  <path class="cls-13" d="M82,68.1q.4.4,0,0Z"/>
  <path class="cls-8" d="M101.4,68.2c1.9.3,3.6.5,5.4.8-.1,1.2-.4,2.5-.5,3.7-3,.4-6.1,1.1-9.1,2.1l-1.7,1.1v-3c2.8-1.1,4.1-2.3,6-4.6Z"/>
  <path class="cls-37" d="M106.8,69c1.6,0,3.3.3,4.9.3,0,2.3.1,4.6.1,6.9-3-1.2-5.6-1.7-8.9-1.6-.3,1.6-.7,3-.9,4.6-2.3,0-4.4-.3-6.6-.4l.4-.8c1.7-.7,2.1-1.7,1.3-3.2,2.9-1.1,6-1.6,9.1-2.1.1-1.2.4-2.5.5-3.7Z"/>
  <path class="cls-52" d="M52.8,69.9h.8c.7,1.2,1.2,2.3,1.7,3.3-.7,1.1-1.3,2.3-2,3.3-1.1-.9-2-2-3-2.9.8-1.2,1.5-2.4,2.3-3.6h.3Z"/>
  <path class="cls-51" d="M20.5,71.4c2-.5,2.1,1.5,2,2.9-1.2,0-2.3,0-3.4-.4,0-1.1.7-1.9,1.5-2.4h0Z"/>
  <path class="cls-13" d="M83,71.4q.4.4,0,0Z"/>
  <path class="cls-17" d="M14.2,73.5c1.6,1.6,2.9,3.2,4.2,4.9-1.5,1.1-2.9,2-4.4,3-1.5-1.1-2.9-2.1-4.2-3v-.9c.7-.7,1.2-1.3,1.9-2,.8-.7,1.6-1.3,2.5-2Z"/>
  <path class="cls-38" d="M66.7,74.6h.9l.4.8-.4.8h-.9l-.4-.8.4-.8Z"/>
  <path class="cls-60" d="M111.9,76.1c-.3,8.5.3,19.6-7.4,25.1-4.1,3.4-27.7,3.7-32.6,3,1.2-.4,21.6-1.2,22.8-1.5-.8-2.6-1.5-5.3-2.4-7.9.7-.5,1.3-1.1,1.9-1.6,1.7,2.1,3.6,4,5.6,5.7.7-.8,1.3-1.5,2-2.3.7-.7,1.2-1.3,1.9-2,1.3-1.7,4.8-3.4,3-5.8-1.3-1.2-3-2.1-4.6-2.8,1.1-1.2,2.1-2.3,3.2-3.4-.7-.8-1.3-1.6-2-2.3s-.8-.9-1.1-1.3c.4-1.6.7-3,.9-4.6,3.3,0,5.8.4,8.9,1.6h0Z"/>
  <path class="cls-57" d="M95.6,75.7l1.7-1.1c.8,1.3.4,2.4-1.3,3.2l-.4-2.1Z"/>
  <path class="cls-38" d="M24.4,77.9c.8,0,1.6,0,2.3-.1v2.8c-1.1,0-2.3.3-3.3.4.3-.9.7-2,.9-2.9h.1Z"/>
  <path class="cls-27" d="M9.8,78.4c1.5,1.1,2.9,2.1,4.2,3,1.5-1.1,2.9-2,4.4-3,1.1,1.7,2,3.4,2.8,5.3-2,1.7-5,3.4-6.4,5.8-.3,2.5,2.3,3.8,4,5.3.9.7,2,1.3,2.9,2.1.7-.8,1.3-1.6,2-2.4.5-1.3.9-2.6,1.5-4.1.7.5,1.2,1.1,1.9,1.6,1.2-.9,2.3-1.9,3.4-2.8-.3,2.1-.7,4.4-1.1,6.5,1.2-1.6,2.4-3.4,4-4.6.7.3,1.5.5,2.1.9-1.3.1-3.3,1.9-1.3,2.8.9,0,1.7-.5,2.3-1.5.1.8.3,1.7.4,2.5-3,1.3-4.9,3.4-6.5,6.2-.8-1.5-1.7-2.9-2.6-4.4-.9,1.3,10.1-3.3,9.1-2,1.3.8,39.3-3.7,54.9,7.9-4.5.3-68.4,3.2-75-2.1-5.2-3.6-7-9.1-7.7-15.2.1-2.6.4-5.4.7-8.1h.1Z"/>
  <path class="cls-3" d="M49.7,78.7c2,.4.9,2.9-.8,1.9-.5-.9-.3-1.6.8-1.9Z"/>
  <path class="cls-45" d="M95.5,78.8c2.3,0,4.4.3,6.6.4.4.4.8.8,1.1,1.3-1.9.8-3.7,1.7-5.6,2.5.1.7.3,1.3.4,2.1,0,2.1-.1,3.6-1.2,5.6-1.2-1.1-2.4-2.3-3.4-3.3.8-1.1,1.6-2.3,2.3-3.3-.4-1.1-.8-2.1-1.2-3.2.4-.7.7-1.3,1.1-2h0Z"/>
  <path class="cls-49" d="M49.7,85c.3-1.2.5-2.3.7-3.4,2.6.8,4.5,1.9,6.5,3.7.7-.8,1.3-1.5,2-2.3.4,2.1.8,4.2,1.2,6.4-7.3,0-14.4-2.3-19.1-8.1,3.3-1.2,6.1,2.1,8.6,3.7h.1Z"/>
  <path class="cls-4" d="M103.1,80.4c.7.8,1.3,1.6,2,2.3-1.1,1.2-2.1,2.3-3.2,3.4-1.3-.4-2.6-.8-4-1.1,0-.7-.3-1.3-.4-2.1,1.9-.8,3.7-1.7,5.6-2.5Z"/>
  <path class="cls-14" d="M27.7,82c.7,1.1,1.2,2.1,1.9,3.2-1.6.4-3.2.9-4.8,1.5.9-1.5,2-3,2.9-4.5h0Z"/>
  <path class="cls-15" d="M68.7,81.7c.8.7,1.6,1.2,2.3,1.9-.8.5-1.7,1.2-2.5,1.7-.4-.5-.9-1.2-1.3-1.7l-.4-.5c.7-.4,1.3-.9,2-1.3Z"/>
  <path class="cls-13" d="M74.1,81.8l.3.3-.3-.3Z"/>
  <path class="cls-13" d="M61.6,83.2q.4.4,0,0Z"/>
  <path class="cls-13" d="M64.8,83.2q.4.4,0,0Z"/>
  <path class="cls-1" d="M29.5,85c1.2.9,2.4,1.7,3.6,2.6-.8.5-1.6.9-2.5,1.5-1.2.9-2.4,1.9-3.4,2.8-.7-.5-1.3-1.1-1.9-1.6-1.2-1.1-2.3-2-3.3-3,.9-.3,1.9-.5,2.9-.8,1.6-.4,3.2-.9,4.8-1.5h-.1Z"/>
  <path class="cls-13" d="M65.9,85.3q.4.4,0,0Z"/>
  <path class="cls-13" d="M71.2,85.3q.4.4,0,0Z"/>
  <path class="cls-58" d="M98,85c1.3.3,2.6.7,4,1.1,1.6.8,3.3,1.6,4.6,2.8,1.7,2.5-1.7,4.2-3,5.8-.8-1.2-1.7-2.5-2.5-3.7-.7.8-1.5,1.7-2.1,2.5.9,1.1,1.9,2,2.8,3-.7.7-1.3,1.5-2,2.3-2.1-1.7-3.8-3.6-5.6-5.7.9-.9,1.9-1.7,2.6-2.6,1.1-1.9,1.3-3.4,1.2-5.6h0Z"/>
  <path class="cls-57" d="M93.2,87.3c1.2,1.1,2.4,2.3,3.4,3.3-.8.9-1.7,1.9-2.6,2.6-.7.5-1.3,1.1-1.9,1.6-1.1-1.6-2.3-3-3.6-4.5,1.6-.9,3.2-2,4.8-3.2h-.1Z"/>
  <path class="cls-58" d="M87.4,89.9l1.2.5c1.3,1.5,2.5,2.9,3.6,4.5.9,2.6,1.6,5.3,2.4,7.9-1.2.4-2.3.8-3.4,1.2-.8-2-1.7-4-2.4-6-.4-2.6-.8-5.4-1.5-8.1h.1Z"/>
  <path class="cls-26" d="M21.6,90c.8,1.5,1.5,2.9,2.3,4.4-.7.8-1.3,1.6-2,2.4-.9-.7-2-1.3-2.9-2.1.9-1.6,1.9-3.2,2.8-4.6h-.1Z"/>
  <path class="cls-24" d="M101,91.2c.9,1.2,1.7,2.4,2.5,3.7-.7.7-1.3,1.3-1.9,2-.9-1.1-1.9-2-2.8-3,.7-.9,1.5-1.7,2.1-2.5h0Z"/>
  <path class="cls-17" d="M35.6,91.9l.8.4v.8c-.4,1.1-1.2,1.5-2.1,1.5-2-.8,0-2.6,1.3-2.8h0Z"/>
  <path class="cls-58" d="M27.8,97.6c.9,1.5,1.7,2.9,2.6,4.4-.5.8-.9,1.6-1.5,2.3-1.3-.8-2.6-1.7-4-2.5.9-1.3,1.9-2.8,2.9-4.1h-.1Z"/>
  <path class="cls-27" d="M52.2,59.8c8.1-.5-1.4,13.2,18,1.9,19.4-11.3,3.3,0,3.6,1.6,1,4.3,1.7,8.7,2.3,13.2.5,4.5.5,9.7-.3,14.4s-1,6.1-1.7,9.2-2.8,4.3-5,4.5c-6.9.3-5.4-12.5-7.8-19.9s-3.5-1.9-4,.2c-2.3,10.1.7,19.2-3.8,20.1l-2.9-1.6c-3.3-1.7-5.4-5-5.5-8.7s0-9.2-1.6-11.3c-1.7-2.8-4.3-2.6-5.4-3.8-1.9-2.1-2.3-6.8-.3-8.8,4.5-4.5,10.1-8.8,14.4-11.3l.2.3Z"/>
  <path class="cls-56" d="M52.4,63.9c1.2,12.1,1.7,24.3-1,36.2-4.5-2.4-3.1-13.3-5-19.8s-5.5-2.8-7.1-5.4c4.3-3.8,8.7-7.6,13.2-11.3v.2Z"/>
  <path class="cls-21" d="M71.3,65c.9,12.5,1.2,24.8-1.2,36.9-4.7-5.4-2.9-16.1-5.4-22.9s-5.9-2.4-7.3-5.2c4.5-2.6,9.2-5.2,14-8.8h-.2Z"/>
</svg>