<?xml version="1.0" encoding="UTF-8"?>
<svg id="_Слой_1" data-name=" Слой 1" xmlns="http://www.w3.org/2000/svg" version="1.1" viewBox="0 0 77.8 120">
  <defs>
    <style>
      .cls-1 {
        fill: #d15400;
      }

      .cls-1, .cls-2, .cls-3, .cls-4, .cls-5, .cls-6, .cls-7, .cls-8 {
        stroke-width: 0px;
      }

      .cls-2 {
        fill: #a7ddde;
      }

      .cls-3 {
        fill: #007381;
      }

      .cls-4 {
        fill: #00d3fa;
      }

      .cls-5 {
        fill: #96ab9f;
      }

      .cls-6 {
        fill: #00172c;
      }

      .cls-7 {
        fill: #feffff;
      }

      .cls-8 {
        fill: #fff;
      }
    </style>
  </defs>
  <path id="p1" class="cls-6" d="M24.6,1.3c4.5-.8,9.4-.3,14.1-.4,4.7,0,9.4-.4,14,.4,4.4,1.8,2,8.2,1.8,11.8,2.4,2.3,5.8,4,5.4,7.9.4,4.2-4.3,5.5-6.5,8.2-.4,2.6-.3,5.4-.3,8.1,3.9.5,7.3.5,10.3,3.4,4.5,3.8,6.4,8.9,6.3,14.7,0,10.4-.8,41.2-1,56.1-.3,15-2.3,5.5-3.8,5.2s.5-4.7.4-4.7c.3-10.8,0-42.4,0-53.2,0-4.9,0-9.4-3.3-13.5-3-3.9-8.4-3.5-12.6-5.3-1.5-2.9-1.1-6.8-1.3-9.9h-6.2c-3.9-1.4-7.7-2.6-11.8-2.5l-.3,2c-.3,3.6-.5,7.2-.8,10.8-4.8,1.1-10.3,1.3-13.6,5.4-2.9,3.4-2.5,7.7-2.6,11.8,0,11.5,0,22.9.3,34.4,0,4-.3,8.2.3,12.1.5,3.6,2.8,6.9,6.5,7.6,3.9.6,8.1.3,12.1.3,6.2-.3,28.4-.4,34.6,0,.8,1.5-2.1,3.1-1.3,4.7-10.3-.3-33.1,0-43.5,0-7.2.4-14.1-7.3-13.3-14.3v-46.8c-.1-5,.9-9.7,4.4-13.5,3.4-3.8,7.7-4.2,12.3-4.8,0-2.9,0-5.9-.3-8.8-2-1.1-5.4-2-6.2-4.4-.5-2.3-.3-4.7-.3-7,1.8-1.3,3.5-2.4,5.3-3.6-.8-4.2-3.4-8.6.6-12h0l.2-.3ZM42.6,4.6c-5,0-10.2.3-15.2.6,0,1.1-.3,2.3-.4,3.3.6,2,.9,5.7,3.5,5.8,6,1.1,12.7-.4,18.9-.8.4-2.4,3.4-7,.5-8.6-2-1.1-5.2-.4-7.4-.5h0v.2ZM24,18.4c-.6,1.1-1.3,2.4-1.9,3.5,5.3,2.6,10.3,1.5,16,1.6,5.8,0,11.5,0,17.2-.6-.3-1.6-.5-3.3-.8-4.9-6.8-.9-13.6-.5-20.4-.6-3.4,0-6.8,0-10.2.9h.1Z"/>
  <path id="p2" class="cls-1" d="M50,5c2.9,1.5-.3,6.2-.5,8.6-6.2.4-12.8,1.9-18.9.8-2.6-.3-2.9-3.8-3.5-5.8,4.8-3.4,11.5-1.8,17.1-2.3l-1.5-1.8c2.3,0,5.4-.6,7.4.5h0ZM43.2,11.5c1,.6,2.1,1.1,3.1,1.6.3-1.6.4-3.3.5-4.9-1.4,0-2.6-.1-4-.1,0,1.1,0,2.3.3,3.4h0ZM33.1,9.2c-1.3,1.3,0,3.4,1.8,2.4,1.3-1.3,0-3.4-1.8-2.4Z"/>
  <path id="p3" class="cls-8" d="M27.4,5.2c5-.4,10.1-.5,15.2-.6l1.5,1.8c-5.7.5-12.5-1.1-17.1,2.3,0-1.1.3-2.3.4-3.3h0v-.2Z"/>
  <path id="p4" class="cls-6" d="M43,8.1c1.4,0,2.6,0,4,.1,0,1.6-.4,3.3-.5,4.9-1-.5-2.1-1.1-3.1-1.6,0-1.1-.3-2.3-.3-3.4h0Z"/>
  <path id="p5" class="cls-6" d="M33.1,9.2c1.6-.9,3,1.1,1.8,2.4-1.6,1-3-1.1-1.8-2.4Z"/>
  <path id="p6" class="cls-3" d="M34.1,17.6c6.8,0,13.6-.3,20.4.6-2.1.4-4.4.6-6.5,1-8.1-.6-16-.4-24-.6,3.4-.9,6.8-1,10.2-.9h0Z"/>
  <path id="p7" class="cls-6" d="M8.3,18.6c2.3,4.2,4.4,6.3,8.3,8.9-3.6,2.4-5.9,4.5-8.2,8.2-2.5-3.1-5.4-5.9-8.4-8.7,4.3-2.1,6-4.4,8.4-8.4h-.1ZM5.2,27.2c.9,1.1,1.8,2.1,2.5,3.3,1.3-1.3,2.5-2.5,3.9-3.8-1.4-.8-2.6-1.5-4-2-.9.8-1.6,1.6-2.4,2.5Z"/>
  <path id="p8" class="cls-8" d="M24,18.4c8.1.4,16,0,24,.6-8.2,3.8-17.1.3-25.9,2.9.6-1.3,1.1-2.4,1.9-3.5Z"/>
  <path id="p9" class="cls-2" d="M48,19.1c2.1-.4,4.4-.6,6.5-1,.3,1.6.5,3.3.8,4.9-5.8.5-11.5.6-17.2.6s-10.6,1-16-1.6c8.8-2.6,17.7.9,25.9-2.9Z"/>
  <path id="p10" class="cls-6" d="M69.8,18.4c2.4,3.5,4.7,6.5,7.9,9.2-3.4,2.3-5.7,4.5-7.9,7.9-2.4-3-4.9-5.5-7.9-8.1,3.3-2.6,5.5-5.7,7.9-9.2h0v.2ZM66.6,27.2c1,1.1,2,2.3,3,3.4,1-1.3,2-2.5,3-3.9-1-.8-2-1.5-3-2.3-1,.9-2,1.8-3,2.6h0v.2Z"/>
  <path id="p11" class="cls-8" d="M7.7,24.7c1.4.6,2.6,1.4,4,2-1.3,1.3-2.5,2.5-3.9,3.8-.9-1.1-1.8-2.1-2.5-3.3.8-.9,1.5-1.8,2.4-2.5Z"/>
  <path id="p12" class="cls-8" d="M69.6,24.6c1,.8,2,1.5,3,2.3-1,1.3-2,2.5-3,3.9-1-1.1-2-2.3-3-3.4,1-.9,2-1.8,3-2.6h0v-.2Z"/>
  <path id="p13" class="cls-2" d="M30.1,27.5c4.3,0,7.9,1.1,11.8,2.5.5,3.3.8,6.9,2,10.1,1.4,2,3.6,3.4,5.5,4.9-.6.4-1.4.9-2,1.3-9.3.3-18.6,0-27.9,0,8.4-1.6,17.2,0,25.8-.9-2.1-1.6-4.3-3.1-6.3-4.8-.4-2.8-.3-6-1.6-8.6-1.8-1.8-5.2-1.9-7.6-2.4,0,0,.3-2,.3-2Z"/>
  <path id="p14" class="cls-8" d="M29.9,29.5c2.4.5,5.8.6,7.6,2.4,1.3,2.5,1.1,5.8,1.6,8.6,2.1,1.6,4.3,3.1,6.3,4.8-8.6.8-17.5-.6-25.8.9-4.9,3.8-3.6,9.7-3.8,15.1-.4,6.9-.9,13.8-.4,20.8.3,3.6.3,7.3.3,10.9-.8-.4-1.6-.8-2.5-1.1-.4-11.5,0-22.9-.3-34.4,0-4.2-.3-8.4,2.6-11.8,3.3-4.2,8.8-4.3,13.6-5.4.4-3.5.5-7.2.8-10.8h0Z"/>
  <path id="p15" class="cls-5" d="M48.1,30.1c0,3.1,0,7,1.3,9.9,4.2,1.8,9.6,1.4,12.6,5.3,3.4,4,3.3,8.4,3.3,13.5,0,10.8,0,21.5,0,32.3h-2.5c-.5-7.8.4-15.6,0-23.5-.3-5,0-10.1-.3-15.2,0-2.8-1.8-5.3-4.4-6.4-2.5-.4-5.3,0-7.7,0-1,0-1.9,0-2.9.3.6-.4,1.4-.9,2-1.3-1.9-1.5-4-3-5.5-4.9-1.3-3.1-1.5-6.7-2-10.1,2,.1,4.2,0,6.2,0h0,0Z"/>
  <path id="p18" class="cls-6" d="M58.1,46c2.6,1,4.3,3.5,4.4,6.4.4,5,0,10.1.3,15.2.4,7.9-.5,15.7,0,23.5-2.1,0-3.4-1-4.9-2.3-7.2.5-14.2.5-21.4.5s-10.4.5-15.5-.4c-3.4-.6-4.5-3.9-5.5-6.8-.5-6.9,0-13.8.4-20.8,3.8-1.3,7.7-2.1,11.7-2h31.7c0-2.4,0-5.4-1.3-7.7-2-2.3-5-3.8-7.6-5.5,2.5,0,5.3-.6,7.7,0h0ZM19.4,63.9c-.4,6.5-1.6,14.5,1,20.6,8.6,1.1,17.4.4,26.1.5,3.6-.3,8.3.4,11.7-1.4,1.3-6,1.4-14-.5-19.9-.9-.3-1.9-.5-2.9-.8-6.4-.8-13.1-.3-19.5-.4-5.5,0-10.4-.8-15.9,1.1h0v.3Z"/>
  <path id="p19" class="cls-4" d="M19.5,46.1c9.3,0,18.6.4,27.9,0,1,0,1.9,0,2.9-.3,2.5,1.6,5.7,3.1,7.6,5.5,1.3,2.1,1.1,5.2,1.3,7.7h-31.7c-4,0-7.8.8-11.7,2,0-5.4-1.1-11.2,3.8-15.1h-.1ZM21.2,48.9c-2.8,2-1.5,6.9,2.4,5.8,3.4-1.8,1.4-6.8-2.4-5.8ZM31.4,56.9c0-1.4.3-2.6.4-3.9-1.1.3-2.1.5-3.3.8.9,1.1,1.9,2.1,2.9,3.3h0v-.2Z"/>
  <path id="p21" class="cls-8" d="M21.2,48.9c3.8-1,5.8,4,2.4,5.8-3.9,1.1-5.2-3.8-2.4-5.8Z"/>
  <path id="p23" class="cls-6" d="M3.3,50.1q.3.3,0,0Z"/>
  <path id="p24" class="cls-6" d="M74.4,50.1q.3.3,0,0Z"/>
  <path id="p25" class="cls-8" d="M28.5,53.8c1.1-.3,2.1-.5,3.3-.8,0,1.4-.3,2.6-.4,3.9-1-1-2-2-2.9-3.3h0v.2Z"/>
  <path id="p30" class="cls-8" d="M35.3,62.7c6.4,0,13.1-.4,19.5.4,0,1,.4,2.1.6,3.1-1.3-.3-2.6-.4-3.9-.5.5,1.8,1,3.4,1.5,5.2.5,2.5.8,5,.8,7.7-1.1-2.1-2-4.3-3-6.5-1.4,2.8-2.8,5.4-4,8.3-7.9-1-16-1-23.9-.5v2.8c7.7,0,15.5,0,23.2-.3,1.4.3,2.6.6,3.9.9-9.7,2-19.9,0-29.7,1.3-2.6-6.2-1.4-14.1-1-20.6,5.3-1.9,10.2-1,15.9-1.1h.3l-.2-.2ZM21.7,71.2c1.6-.4,3.1-.8,4.8-1.1-.5-1.5-1-3-1.6-4.5h-2.8c-.3,1.9-.3,3.6-.4,5.5h0ZM27.1,66.8c-.9,1-.4,2.9.9,3.4,1.9,0,1-4.3-.9-3.4ZM32.6,68.4c.6.9,1.1,1.6,1.8,2.5,1.1,0,2.3-.3,3.4-.3-.4-1.4-.9-2.8-1.4-4.2l-3.8,1.9h0ZM38.9,67.9c-.4.6-.6,1.3-1,1.9,3.3.4,6.3,1.3,9.4,2.4,0-1.5,0-3.1.3-4.7-1.8,0-3.6-.3-5.4-.3-1.1,0-2.1.4-3.1.6h-.2ZM48.9,66.9c-1,1.1-.6,3.4.9,3.8,2.3-.3,1.4-5-.9-3.8ZM30,67.9c-1.1,1.3,0,3.5,1.6,2.5,1.1-1.3,0-3.5-1.6-2.5ZM22.2,75.3c.6,1.6,1.6,2.4,3.1,2.4,5.3.4,11.3.4,16.6,0,1.4,0,2.4-.8,3.1-2.3-7.6-.8-15.2-.8-22.8,0h0,0Z"/>
  <path id="p31" class="cls-8" d="M54.8,63.1c1,.3,1.9.5,2.9.8,1.9,5.8,1.8,13.8.5,19.9-3.4,1.8-8.1,1.1-11.7,1.4-8.7-.3-17.5.6-26.1-.5,9.9-1.1,20,.6,29.7-1.3,1.9-.4,3.5-1,5.3-1.6-.5-1-1-2-1.6-3,0-2.5-.4-5.2-.8-7.7l-.3-1.8c1.3.5,2.6,1.1,3.9,1.6-.5-1.5-.9-2.9-1.4-4.4-.3-1-.5-2.1-.6-3.1v-.3h.2Z"/>
  <path id="p33" class="cls-6" d="M22.1,65.6h2.8c.6,1.5,1.1,3,1.6,4.5-1.6.4-3.1.8-4.8,1.1,0-1.9,0-3.6.4-5.5h0Z"/>
  <path id="p34" class="cls-6" d="M51.5,65.9c1.3,0,2.6.4,3.9.5.5,1.5.9,2.9,1.4,4.4-1.3-.5-2.6-1.1-3.9-1.6l.3,1.8c-.5-1.8-1.1-3.4-1.5-5.2h-.2Z"/>
  <path id="p36" class="cls-4" d="M27.1,66.8c1.8-.9,2.8,3.4.9,3.4-1.1-.5-1.6-2.5-.9-3.4Z"/>
  <path id="p37" class="cls-6" d="M36.4,66.5c.5,1.4.9,2.8,1.4,4.2-1.1,0-2.3.3-3.4.3-.6-.9-1.1-1.6-1.8-2.5l3.8-1.9h0Z"/>
  <path id="p38" class="cls-6" d="M42.1,67.3c1.8,0,3.6,0,5.4.3,0,1.5,0,3.1-.3,4.7-3.1-1.1-6.2-2-9.4-2.4.4-.6.6-1.3,1-1.9,1-.3,2.1-.5,3.1-.6h.2Z"/>
  <path id="p39" class="cls-4" d="M48.9,66.9c2.3-1.3,3.1,3.4.9,3.8-1.6-.4-2-2.6-.9-3.8Z"/>
  <path id="p41" class="cls-3" d="M30,67.9c1.8-1,2.9,1.3,1.6,2.5-1.6,1-2.9-1.3-1.6-2.5Z"/>
  <path id="p43" class="cls-3" d="M50.9,72.2c1,2.1,2,4.4,3,6.5.5,1,1,2,1.6,3-1.8.6-3.5,1.3-5.3,1.6-1.3-.3-2.6-.6-3.9-.9l.6-2c1.3-2.8,2.6-5.5,4-8.3h0,.1Z"/>
  <path id="p46" class="cls-4" d="M45,75.3c-7.6,0-15.2,0-22.8,0,7.6-.8,15.2-.8,22.8,0Z"/>
  <path id="p47" class="cls-6" d="M22.2,75.3c7.6,0,15.2,0,22.8,0-.8,1.5-1.8,2.3-3.1,2.3-5.3.4-11.3.4-16.6,0-1.4,0-2.5-.8-3.1-2.4h0-.1Z"/>
  <path id="p48" class="cls-6" d="M22.9,79.8c7.9-.5,16-.5,23.9.5l-.6,2c-7.7,0-15.5.4-23.2.3v-2.8h-.1Z"/>
  <path id="p49" class="cls-4" d="M59.1,103.5c-2.5,2.8-13.2,1.3-17.2,1.6-7,.8-14.2.5-21.3-.3-.3-.9-.5-1.8-.9-2.6,2.9.5,3.8,0,5.9-2-.6-.9-1.3-1.9-2-2.8-1.6.6-3.1,1.5-4.7,2.4-1-.4-2.1-.9-3.3-1.3,0-1.9,0-3.6,0-5.5,0-3.6,0-7.3-.3-10.9,1,2.9,2.1,6.2,5.5,6.8,5,.9,10.3.4,15.5.4s14.3,0,21.4-.5M19.5,94.3c2,0,4.2-.3,6.2-.4-1.6-2.4-2.5-2.6-5.3-2.8-.3,1-.6,2.1-.9,3.1h0ZM29,92.3c-1.4,1.8.8,3.8,2.4,2.4,1.5-1.8-.6-3.8-2.4-2.4ZM77.8,100.7l-46.8-1.6c-1.4,1.4,0,3.6,1.8,2.6,1.4-1.4,0-3.8-1.8-2.6l46.8,1.6Z"/>
  <path id="p52" class="cls-8" d="M20.3,91.2c2.8,0,3.8.3,5.3,2.8-2,0-4.2.3-6.2.4.3-1,.5-2.1.9-3.1h0Z"/>
  <path id="p53" class="cls-8" d="M13.1,91.9c.9.4,1.6.8,2.5,1.1,0,1.9.3,3.6,0,5.5,0,3.5-1,7.2,2.6,9.2,3.6,1.6,8.3,1.1,12.2,1.4.5.9.9,1.8,1.4,2.6-4,0-8.1.4-12.1-.3-3.8-.6-6-3.9-6.5-7.6-.5-4-.3-8.1-.3-12.1v.2Z"/>
  <path id="p54" class="cls-2" d="M29,92.3c1.8-1.4,3.9.6,2.4,2.4-1.8,1.4-3.8-.6-2.4-2.4Z"/>
  <path id="p56" class="cls-8" d="M23.6,97.5c.6.9,1.4,1.8,2,2.8-2.1,1.8-3,2.5-5.9,2l-.6-2.4c1.5-.9,3-1.6,4.7-2.4h-.2Z"/>
  <path id="p58" class="cls-6" d="M15.8,98.6c1.1.4,2.1.8,3.3,1.3l1.5,5c.3.8,23.2,0,32.8-.4s4.3-1.9,4.7-4.2c.5-3.3,0-6.9,0-11.6,4-.4,1.3,1.6,4.9,2.3,0,5.3-.3,9.3-.4,12.5s-2.8,5.8-5.9,5.8c-8.3,0-20.9,0-25.7-.3-3.9-.3-8.6.3-12.2-1.4-3.6-2-2.6-5.8-2.6-9.2h-.3v.2Z"/>
  <path id="p59" class="cls-2" d="M31,99.1c1.9-1.1,3.1,1.3,1.8,2.6-1.9,1-3.3-1.3-1.8-2.6Z"/>
  <path id="p63" class="cls-8" d="M32,111.8c-.5-.9-.9-1.8-1.4-2.6"/>
  <path id="p33-2" class="cls-6" d="M26.6,93.4c-.6-.4-3.9-2.8-4.6-7.3s1.7-7.7,2.1-8.3c4-5.9,14.1-8.8,15.6-16-4.3,0-7.2,5-11.1,3.2-4.8-.4-5.9-6.5-3.6-9.4s5.7-5.8,9.4-6.1h1c.7-.3,1.4-.3,2.2-.3,3.3,0,6.9,0,9.9,2.1,5.8,4,7.6,10.1,5.5,16.7,0,0-1.8,2.6-1.8,2.8-1.8,1.9-2.3,2.5-3.9,3.9-2.6,1.9-3.9,3.3-6.1,5.3h5.3c1.8,0,2.5.4,3.6,1h0c1,.6,1.9,1.2,2.6,2.1,1.5,1.8,1.1,4.3.6,6.8-.4,1.8-1,1.9-3.7,3.6-6.2,1.9-13,3.2-22.9,0h-.1ZM27.8,59.2c1,3.7,5.4.8,8.8-.7,3.9-2.5,8.2,4,5.9,7.2-3.3,4.7-8.2,7.9-12.4,11.3-3.9,2.2-5.7,7.9-1.8,10.5,5.9.8,11.5,1.2,17.5.8,2.9-.4,2.2-1.7,2.2-4-5.4-.7-9.7.7-15.1,0l-1.4-1.9c4.6-4.6,10.4-8.6,14.8-13.4,4.6-4.7,3.7-13.1-2.3-14.9-.8-.8-2.6-2.6-5.7-2.5s-3.3.3-4.8.8c-4.6,1.5-7.2,4.3-5.9,6.6h.2ZM41.8,52.1h.7M28,91.4q.2.2,0,0Z"/>
  <path id="p36-2" class="cls-7" d="M38.6,51.8h.6c4.8,0,9.3,3,10.8,7.6s.4,7.2-2.3,10.1c-4.4,4.8-10.1,8.7-14.8,13.3l.6,1.1c5.4.7,10.8,0,16.2.6,0,2.3,0,4.6-2.8,5-6.1.4-12.6.6-18.5-.3-3.9-2.8-1.9-9.9,1.9-12.2,4.3-3.5,9.1-6.6,12.4-11.3,2.2-3.2-1.1-8.4-6.6-6.1-.8.4-4,1.2-4.7,1.5-3,1.5-5.1-2.6-2.8-5.1s4.1-3.5,6.6-3.7l3.6-.3h0v-.2Z"/>
</svg>