<?xml version="1.0" encoding="UTF-8"?>
<svg id="_Слой_1" data-name=" Слой 1" xmlns="http://www.w3.org/2000/svg" version="1.1" viewBox="0 0 120 120">
  <defs>
    <style>
      .cls-1 {
        fill: #012021;
      }

      .cls-1, .cls-2, .cls-3, .cls-4 {
        stroke-width: 0px;
      }

      .cls-5 {
        stroke: #012021;
        stroke-miterlimit: 10;
        stroke-width: 2px;
      }

      .cls-5, .cls-4 {
        fill: #fff;
      }

      .cls-2 {
        fill: #02d6cd;
      }

      .cls-3 {
        fill: #000204;
      }
    </style>
  </defs>
  <path id="p1" class="cls-3" d="M51.1,2.9c5.9-.9,12.1-.7,18-.5,2.6.1,6,.5,7.7,2.9,1.4,2.1,0,5.4-.4,7.6,1.7.9,3.7,1.6,5.1,3,1.4,2.5,1.2,5.7.7,8.4-.5,2.4-3.7,3.2-5.6,4.4v4c4.1,1.5,8.1,2.7,11.8,5.4,6.9,4.9,11.3,13,11.1,21.4v37.4c0,5.4-2.1,10.1-6,13.7-4.2,4-9.6,5.9-15.3,6.5-9.8,1.1-19.8,1-29.7.4-6.2-.6-12.6-1.6-17.6-5.7-4.6-3.6-7.4-8.9-7.1-14.8v-40.6c1.5-12.3,11.3-20.8,23.1-23.3-.1-1.4-.2-2.7-.6-4-1.7-1.4-4.6-2.4-5.2-4.6-.5-2.4-.5-5.1.1-7.4,1.1-2.2,3.5-2.7,5.6-3.7-.4-2.1-1.4-4.6-1-6.9.9-2.1,2.9-2.7,5-3.1l.2-.2ZM48.9,6.9c.5,3.2,1.5,6.1,2.9,9.1.2-1.7.6-3.5.9-5.2,1,1.5,1.9,3.1,2.9,4.7,1.7-.1,3.6-.1,5.4-.6,1.2-1,2.5-2.1,3.6-3.2-2-.7-4-1.5-6-2.1,4.2-1.2,8.4-2.6,12.6-3.7-7.2-1-15.3-1.4-22.2,1.1ZM68.4,10.7c-.6,1.4-1.2,2.7-1.7,4.1,1.1-.9,2.2-1.9,3.2-2.7.9.9,1.9,1.7,2.7,2.6.4-1.9.7-3.7,1.1-5.6-1.9.5-3.6,1-5.5,1.6h.1ZM44.6,23.8c6.2,1.1,12.6,1.4,19,1,1.6,0,2.7-.9,4-1.7-2.9-.9-8.1.4-9.5-2.9,6.2-.4,12.6-.9,18.8-1.4.2,2,.6,4,1,5.9.6-2.9.5-5.7,0-8.6-2.9.9-5.5,1.9-8.6,1.9-8,0-15.6.6-23.4-1.7-1.9,2.4-1.2,4.7-1.4,7.5h.1ZM73,22.5c-.7,1.2-.4,2,.9,2.4,2.4-.5,1.2-3.7-.9-2.4ZM50.1,35.7c-6.5,1.4-12.5,3.6-17,8.6-3.7,4.1-5.9,9.6-5.7,15.1v36.3c0,3.9.7,7.5,3.4,10.5,4.5,5.6,11,7.1,17.7,7.6,10.3.6,21.1.6,31.4-.9,6.1-.6,12.3-4.6,14.8-10.3,1.2-2.6,1.1-5.2,1.1-8.1v-36.3c.1-7-3.9-13.1-9.4-17.1-4-3-8.6-3.6-13.1-5.6-1.4-2-.5-5.6-1-8.1-.9,3.4-1.2,6.7-2.9,9.8-3.7-2.5-3.1-5-3.5-8.9-5,.2-9.8,0-14.8,0-.6,2.4-.9,4.6-1.1,7.1v.2Z"/>
  <path id="p2" class="cls-4" d="M71.1,5.7c-4.2,1.1-8.4,2.5-12.6,3.7h-.9c1.4,1.5,2.6,3,3.5,4.9-1.9.5-3.7.7-5.6,1.1-.9-1.6-1.9-3.1-2.9-4.7-.4,1.7-.6,3.5-.9,5.2-1.5-3-2.4-5.9-2.9-9.1,6.9-2.6,15-2.1,22.2-1.1ZM52.2,8.4c-1,1.9,1.7,3.1,3.2,2.1,1-1.6-2-3.4-3.2-2.1Z"/>
  <path id="p3" class="cls-3" d="M52.2,8.4c1.2-1.2,4.2.4,3.2,2.1-1.4,1.1-4.2-.1-3.2-2.1Z"/>
  <path id="p4" class="cls-2" d="M58.5,9.5c2,.7,4,1.5,6,2.1-1.2,1.1-2.4,2.2-3.6,3.2-1.7.5-3.6.5-5.4.6,1.9-.4,3.7-.7,5.6-1.1-.9-1.9-2.1-3.4-3.5-5h.9Z"/>
  <path id="p5" class="cls-4" d="M73.9,9.1c-.4,1.9-.7,3.7-1.1,5.6-.9-.9-1.9-1.7-2.7-2.6-1.1.9-2.1,1.9-3.2,2.7.5-1.4,1.1-2.9,1.7-4.1,1.7-.6,3.6-1.1,5.5-1.6h-.1Z"/>
  <path id="p6" class="cls-3" d="M31.6,10.6c1.6,2.2,3.4,4.1,5.5,5.9-2.1,1.7-3.7,3.6-5.4,5.9-1.6-2.2-3.4-4.1-5.5-5.9,2-1.7,3.7-3.7,5.5-5.9h-.1ZM29.9,16.7c.5.6,1.1,1.4,1.6,2,.7-.9,1.5-1.7,2.4-2.7-1-.5-2-1.1-3-1.6-.4.7-.6,1.5-.9,2.4h-.1Z"/>
  <path id="p7" class="cls-3" d="M91.8,10.7c1.7,1.9,3.5,3.9,5.5,5.6-2.1,1.7-3.7,3.5-5.4,5.7-1.7-2.2-3.5-4-5.9-5.6,2.2-1.7,4-3.6,5.7-5.7ZM90,16.1c.5.9,1,1.7,1.5,2.6.9-.9,1.6-1.7,2.5-2.7-2.2-1.4-2-2.4-4,0h0Z"/>
  <path id="p8" class="cls-4" d="M30.9,14.3c1,.5,2,1,3,1.6-.7.9-1.5,1.7-2.4,2.7-.5-.6-1.1-1.4-1.6-2,.2-.7.6-1.6.9-2.4h.1Z"/>
  <path id="p9" class="cls-4" d="M94,16.1c-.9.9-1.6,1.7-2.5,2.7-.5-.9-1-1.7-1.5-2.6,2-2.4,1.7-1.4,4,0h0Z"/>
  <path id="p10" class="cls-4" d="M46,16.3c7.7,2.2,15.5,1.6,23.4,1.7,3.1,0,5.7-1,8.6-1.9.4,2.9.5,5.7,0,8.6-.4-2-.7-4-1-5.9-6.2.5-12.6,1-18.8,1.4,1.4,3.1,6.6,1.9,9.5,2.9-1.2.9-2.4,1.7-4,1.7-6.4.2-12.6,0-19-1,0-2.7-.5-5.1,1.4-7.5h-.1ZM53.3,22.3c-.4-3.9-4.2-2.6-7-2.9-.5,3.6,4.7,2.2,7,2.9Z"/>
  <path id="p11" class="cls-3" d="M46.2,19.3c2.9.2,6.6-1,7,2.9-2.2-.7-7.5.6-7-2.9Z"/>
  <path id="p12" class="cls-2" d="M73,22.5c2.1-1.5,3.4,1.7.9,2.4-1.2-.4-1.6-1.1-.9-2.4Z"/>
  <path id="p13" class="cls-3" d="M34.5,26.8c3.1-2,4.6,4.6.9,4.2-2.5.5-3.6-3.6-.9-4.2Z"/>
  <path id="p14" class="cls-3" d="M89.7,26.8c.4,1.1.7,2.2,1,3.5-1.2.4-2.5.9-3.9,1.2-.5-1.4-1-2.7-1.5-4.1,1.5-.2,2.9-.5,4.4-.6Z"/>
  <path id="p15" class="cls-4" d="M51.2,28.6c5-.1,9.8.1,14.8,0,.4,3.9-.2,6.4,3.5,8.9,1.6-3.1,2-6.5,2.9-9.8.5,2.4-.4,6.1,1,8.1,4.4,2,9,2.6,13.1,5.6,5.6,4,9.5,10,9.4,17.1v36.3c0,2.9,0,5.5-1.1,8.1-2.4,5.7-8.6,9.7-14.8,10.3-10.3,1.5-20.9,1.5-31.4.9-6.9-.5-13.3-2-17.7-7.6-2.6-3-3.4-6.6-3.4-10.5v-36.3c0-5.6,2.1-11,5.7-15.1,4.6-5,10.5-7.2,17-8.6.2-2.4.5-4.7,1.1-7.1v-.2ZM52.8,36.2c2.2-1,3.7-4.9,0-4.7v4.7ZM57.7,30.8c-.2,2.9-.4,5.9-.2,8.7.9-.5,1.6-1.1,2.5-1.7-.4-2.7.5-5.4-2.2-7.1h0ZM44.3,41.4c3.4-.4,5.7-.5,7.9-3.4-3.2.2-6.6-.4-7.9,3.4ZM71.3,39.2c5.4,2.6,10.6,3.4,15.1,7.7,2.9,2.5,4,5.7,5,9.2-3.5-4.5-5.9-8.9-11.3-11.1-6.4-2.6-11.6-.6-17.8.7-5.6-.9-10.1-3.1-16-1.5-6.1,1.1-10.1,5.5-12.5,11-1.4,0-2.9-.2-4.2-.2-.2,13.5,0,26.9,0,40.5-.2,6.9,4.7,12.8,11.2,14.6,7.6,1.7,16.1,1.1,23.9,1.7,5.5.6,10.6-.4,16.2-1,7.1-1.1,13.2-6.7,13.3-14.2.1-12.8,0-25.8,0-38.7-.4-11.2-10.2-18.6-20.4-20.3l-2.5,1.4h0ZM32.5,50.6c3.7-2.7,8.2-5.7,10.5-9.8-4.7,1.1-9.7,4.7-10.5,9.8ZM30.9,51.4c-.6,1.2-.4,2,1,2.4,2.5-.5,1-3.7-1-2.4Z"/>
  <path id="p16" class="cls-3" d="M28.5,29.1c1.2,1.4,2.6,2.9,4,4.2-1.4,1.1-2.6,2.2-3.9,3.5-1.2-1.2-2.5-2.4-3.7-3.5,1.2-1.4,2.4-2.7,3.6-4.1h0Z"/>
  <path id="p17" class="cls-3" d="M94.8,29.1c1.2,1.4,2.5,2.7,3.7,4.1-1.2,1.1-2.5,2.4-3.9,3.6-1.2-1.2-2.6-2.4-4-3.5,1.4-1.4,2.7-2.7,4-4.1h.1Z"/>
  <path id="p18" class="cls-3" d="M52.9,31.4c3.6-.1,2.2,3.7,0,4.7v-4.7Z"/>
  <path id="p19" class="cls-3" d="M57.7,30.8c2.7,1.7,1.9,4.4,2.2,7.1-.9.5-1.6,1.1-2.5,1.7,0-3,0-5.9.2-8.7h0Z"/>
  <path id="p22" class="cls-3" d="M52.2,38c-2.1,2.9-4.6,3-7.9,3.4,1.2-3.7,4.6-3.1,7.9-3.4Z"/>
  <path id="p23" class="cls-3" d="M73.9,37.8c10.2,1.9,20.2,9.1,20.4,20.3v38.7c-.1,7.5-6.2,13.1-13.3,14.2-5.6.6-10.8,1.6-16.2,1-7.9-.7-16.3,0-23.9-1.7-6.6-1.6-11.5-7.7-11.2-14.6v-40.5c1.5,0,2.9.1,4.2.2,2.4-5.5,6.4-9.8,12.5-11,5.7-1.6,10.3.6,16,1.5,6.2-1.4,11.5-3.4,17.8-.7,5.5,2.2,8,6.6,11.3,11.1-1.1-3.5-2.1-6.7-5-9.2-4.5-4.4-9.6-5.2-15.1-7.7l2.5-1.4h0ZM37.4,54.2l-.4,1.7c.7.1,1.5.2,2.2.4,1.9.2,3.7.5,5.6.7l-.5,2.2c-4.1-.2-8.2-.7-12.3-1.4-.2,9.7-.2,19.5,0,29.1,19.9,3.7,39,2.2,59.1.2.1-9.7,0-19.5,0-29.1-3.5.5-6.7,1.2-10.2,1.4-11,.2-22.1.2-33.2,0-.1-1-.2-2-.5-2.9,12.5.6,25.1.6,37.5-.5-.6-1.2-1.2-2.4-2-3.5-2.5-1.1-5.4-1.5-8.1-2.2,2.1-.7,4.1-1.4,6.2-2.1-3.5-1.1-6.9-2-10.5-1.5-3.9.6-7.6,3-11.2,1.5-4.5-1.2-8.7-2.4-13.5-1-3.7.9-6.5,3.5-8.4,6.7h0ZM41.3,107.7c4.9,1.1,10.1.9,15.1,1.1,7.1.2,14.2,0,21.3-.4,4.9,0,9.6-2.1,12.2-6.4,2.2-4,1.9-8.5,1.4-12.8-1.2,4-1.2,8.5-3,12.3-2.7,4.7-7.5,5.1-12.3,5.5,2.5-2.1,5.2-4,8.1-5.5-.4-1.4-.6-2.7-1-4.1-1.6,1.6-3.2,3.2-5,4.9-1.4-1.6-2.7-3.2-4.2-4.7,1.2-1.6,2.4-3.2,3.6-4.9,1.5.7,3,1.6,4.6,2.4-.4-1-.7-2-1.1-3-4.2,0-8.5-.2-12.7,0h-12.8c-7.2,0-14.1-.7-21.2-1.9h-2.1c-.1,4-.5,9.2,2.1,12.6,1.7,2.6,4.4,4.1,7.4,5h-.2ZM82.9,95.5c.9.5,1.6,1,2.5,1.4.7-.6,1.6-1.2,2.4-1.7-.7-.7-1.6-1.5-2.4-2.2-.9.9-1.6,1.7-2.5,2.6ZM77.9,95.6c-2,.6-1.5,4,.7,3.5,2.1-1,1.9-3.7-.7-3.5Z"/>
  <path id="p24" class="cls-3" d="M43,40.8c-2.2,4.1-6.9,7.1-10.5,9.8.9-5.1,5.7-8.7,10.5-9.8Z"/>
  <path id="p27" class="cls-4" d="M59.3,48.5c3.6,1.5,7.4-.9,11.2-1.5-.6.9-1.1,1.7-1.7,2.7-6.9-.1-13.7-.1-20.6,0-4.2-.1-6.5,3.9-9,6.7-.7,0-1.5-.2-2.2-.4,1,.1,1.5-.4,1.5-1.4l-1.1-.4c1.9-3.2,4.6-5.9,8.4-6.7,4.7-1.5,8.9-.4,13.5,1h.1Z"/>
  <path id="p28" class="cls-2" d="M81,48.6c-2,.7-4.1,1.5-6.2,2.1,2.7.7,5.6,1.1,8.1,2.2.7,1.1,1.4,2.4,2,3.5-12.5,1.1-25.1,1-37.5.5v-1c2.5-1.1,5.1-2.1,7.5-3.5-2.5-.6-4.7-1.4-7.2-1-2.2,1.4-2.4,3.4-2.7,5.7-1.9-.2-3.7-.5-5.6-.7,2.5-2.7,4.7-6.9,9-6.7,6.9-.2,13.7-.2,20.6,0,.6-.9,1.1-1.7,1.7-2.7,3.6-.5,7,.4,10.5,1.5h0ZM56.7,51.5c-1.4,1.2-.4,3.6,1.5,2.5,1.5-1.2.4-3.5-1.5-2.5ZM60.4,53.4c3.1.9,6.2,1.1,9.5,1.1-2.1-4.5-6-3.5-9.5-1.1Z"/>
  <path id="p31" class="cls-3" d="M30.9,51.4c2-1.4,3.5,1.9,1,2.4-1.4-.4-1.6-1.1-1-2.4Z"/>
  <path id="p32" class="cls-4" d="M47.7,51.5c2.6-.4,4.7.4,7.2,1-2.5,1.4-5.1,2.4-7.6,3.5v1c.2,1,.4,2,.5,2.9,11,.2,22.1.1,33.2,0,3.5,0,6.7-.9,10.2-1.4v29.1c-19.9,2-39.2,3.5-59.1-.2-.2-9.7-.2-19.5,0-29.1,4.1.5,8.2,1.1,12.3,1.4l.5-2.2c.5-2.4.6-4.4,2.7-5.7h0ZM33.5,60.7c-1.5,1.4,0,3.9,1.9,2.7,1.4-1.5.1-4-1.9-2.7ZM88.1,61.1c-.6,1.2-.4,2.1.9,2.5,2.2-.5,1.1-4-.9-2.5ZM63.5,66.8l-.4.9.6.7h1l.4-.9-.6-.7h-1ZM33.5,83.7c-.6,1.2-.2,2,1,2.4,2.5-.4,1-3.6-1-2.4ZM88.2,83.7c-.6,1.2-.4,2,1,2.4,2.4-.5,1.1-3.9-1-2.4Z"/>
  <path id="p33" class="cls-4" d="M56.7,51.5c1.9-1,3,1.2,1.5,2.5-1.9,1.1-2.9-1.2-1.5-2.5Z"/>
  <path id="p34" class="cls-4" d="M69.9,54.5c-3.2,0-6.4-.2-9.5-1.1,3.5-2.4,7.2-3.5,9.5,1.1Z"/>
  <path id="p36" class="cls-2" d="M37.4,54.2l1.1.4c0,1.1-.5,1.6-1.5,1.4,0,0,.4-1.7.4-1.7Z"/>
  <path id="p38" class="cls-3" d="M33.5,60.7c2-1.2,3.2,1.4,1.9,2.7-1.9,1.1-3.4-1.4-1.9-2.7Z"/>
  <path id="p39" class="cls-3" d="M88.1,61.1c2.1-1.5,3.1,2,.9,2.5-1.2-.4-1.5-1.2-.9-2.5Z"/>
  <path id="p40" class="cls-3" d="M50.7,84.3c4.5,1,9.4.5,14,.6,4.9,0,9.8.1,14.7-.6,2.6-1.2,4.9-3.4,7.4-4.7-.7-4-.4-7.7,0-11.7-2.1-1.1-4.1-2.2-6.1-3.4-3.5-.5-7.2.2-10.7.2,0,.6,0,0,0,0h-2.2c-1.5,0-4.7.2-4.7.2h-.5c-1.6-.2-3.4-.4-5.1-.6h0c-3.1-.5-6.5,0-9.6,0,0-.7.1-1.6.2-2.4,7.6.4,15.1.2,22.7.2s9-2.1,13.7.2c.5-.6,1-1.2,1.5-1.9,1.4,2.1,3,4.1,4.2,6.2.5,3.5.7,7.6.4,11.1,0,2.9-2.6,5.2-4,7.7-6.4,1.5-12.7,2.5-19.3,1.9-9.4-.6-20.1.9-29.1-2.1-1.5-1.6-3.2-3.5-4.1-5.5-.2-4-.2-9,0-13,1.2-1.9,3-3.5,4.7-5,2.5,0,5,0,7.4.4-3.4,2.7-6.5,4.5-10.5,5.9.5,2.2,1.2,4.1,2.2,6.1-.9,1.5-1.6,3-2.4,4.5,5.5,2.4,8.6,7.2,14.7,5.5"/>
  <path id="p49" class="cls-3" d="M33.5,83.7c2-1.2,3.5,2,1,2.4-1.2-.4-1.6-1.1-1-2.4Z"/>
  <path id="p50" class="cls-3" d="M88.2,83.7c2-1.5,3.4,1.9,1,2.4-1.2-.4-1.6-1.1-1-2.4Z"/>
  <path id="p51" class="cls-4" d="M32,90.3h2.1c-.5,3.4-.7,7.1.9,10.2,1.6,2.7,4.4,4.9,6.5,7.2-3-.9-5.6-2.4-7.4-5-2.6-3.2-2.2-8.6-2.1-12.6h0Z"/>
  <path id="p52" class="cls-2" d="M91.2,89.3c.5,4.4.9,8.9-1.4,12.8-2.6,4.2-7.4,6.4-12.2,6.4h-9.5c1.4-2.9,3.2-6.2,3.2-9.4-.2-2.5-2-4.9-3.2-7,4.2-.1,8.5,0,12.7,0,.4,1,.7,2,1.1,3-1.5-.7-3-1.6-4.6-2.4-1.1,1.6-2.4,3.2-3.6,4.9,1.4,1.6,2.9,3.2,4.2,4.7,1.6-1.6,3.2-3.2,5-4.9.2,1.4.6,2.7,1,4.1-2.9,1.5-5.6,3.4-8.1,5.5,4.9-.4,9.6-.9,12.3-5.5,1.7-3.9,1.7-8.4,3-12.3ZM72,94.5v1l.9.5.9-.5v-1l-.9-.5-.9.5ZM73.1,102.9c-1.5,1.4.2,3.4,1.9,2.4,1.4-1.4-.1-3.5-1.9-2.4Z"/>
  <path id="p53" class="cls-2" d="M34,90.3c7.1,1.1,14,1.9,21.2,1.9-1.7,2.5,6.8,4.4,7,7.4.6,2.7-7.5,6.9-5.9,9.3-5-.2-10.2,0-15.1-1.1-2.1-2.2-4.9-4.5-6.5-7.2-1.6-3.1-1.4-6.9-.9-10.2h.1ZM36.9,93.6c-.6.9-.6,1.7,0,2.6,1.6,1.4,4.1-.9,2.5-2.6-.9-.7-1.6-.7-2.5,0ZM40.1,97.1c2.2,2.2,3.5,4.7,7.1,4.6,2.1.5,3-1.6,1.9-3.2-1-1.9-1.7-5.1-4.1-5.5-1.7,1.2-3.2,2.7-4.7,4.1h-.1ZM49.7,94.5v1l.9.5.9-.5v-1l-.9-.5-.9.5ZM47.6,106.1c-3-2.7-6.4-5.9-10.1-7.5,1.7,5.2,5,6.6,10.1,7.5ZM48.7,102.9c-1.5,1.4.1,3.4,1.9,2.4,1.4-1.4,0-3.5-1.9-2.4Z"/>
  <path id="p54" class="cls-4" d="M55.3,92.3h12.8c1.2,2.1,3,4.5,3.2,7,0,3.2-1.9,6.6-3.2,9.4,3.1,0,6.4.1,9.5,0-7.1.4-14.2.6-21.3.4-1.6-2.4,6.5-6.5,5.9-9.4-.4-3.1-8.8-4.9-7-7.3h.1Z"/>
  <path id="p55" class="cls-4" d="M36.9,93.6c.9-.6,1.6-.6,2.5,0,1.5,1.6-.9,4-2.5,2.6-.6-.9-.6-1.7,0-2.6Z"/>
  <path id="p56" class="cls-3" d="M45,93c2.4.5,3.1,3.6,4.1,5.5-1.4.6-2,1.6-1.9,3.2-3.6,0-4.7-2.4-7.1-4.6,1.6-1.4,3.1-2.9,4.7-4.1h.1ZM43.7,96.1c-1.5,1.5,1,4.4,2.5,2.6,1.4-1.9-.5-4-2.5-2.6Z"/>
  <path id="p57" class="cls-4" d="M85.4,92.9c.7.7,1.6,1.5,2.4,2.2-.7.6-1.6,1.2-2.4,1.7-.9-.5-1.6-1-2.5-1.4.9-.9,1.6-1.7,2.5-2.6Z"/>
  <path id="p58" class="cls-4" d="M49.7,94.5l.9-.5.9.5v1l-.9.5-.9-.5v-1Z"/>
  <path id="p60" class="cls-4" d="M72,94.5l.9-.5.9.5v1l-.9.5-.9-.5v-1Z"/>
  <path id="p61" class="cls-4" d="M43.7,96.1c2-1.5,3.9.6,2.5,2.6-1.5,1.7-4-1.1-2.5-2.6Z"/>
  <path id="p62" class="cls-4" d="M77.9,95.6c2.6-.2,2.9,2.5.7,3.5-2.2.5-2.7-2.9-.7-3.5Z"/>
  <path id="p63" class="cls-4" d="M37.4,98.6c3.7,1.7,7.1,4.7,10.1,7.5-5.1-.9-8.4-2.4-10.1-7.5Z"/>
  <path id="p64" class="cls-4" d="M49.1,98.5c1.1,1.6.2,3.7-1.9,3.2,0-1.5.5-2.6,1.9-3.2Z"/>
  <path id="p65" class="cls-3" d="M48.7,102.9c1.7-1,3.1,1,1.9,2.4-1.6,1-3.2-1.1-1.9-2.4Z"/>
  <path id="p66" class="cls-3" d="M73.1,102.9c1.7-1.1,3.2,1,1.9,2.4-1.6,1-3.2-1-1.9-2.4Z"/>
  <path class="cls-1" d="M2.1,69.3"/>
  <path class="cls-5" d="M68.3,79c.1-3.5-2.5-5.2-5-5.5-1.6-.1-2.9-.1-3.9,0h0l-6.4,1.5c-1.6-3.5-2.5-7.6-2.1-11,.4-3.3,2.7-6.2,5.9-7.1l1.2-.4c.7-.3,1.3-.3,2-.3h9.2c1.2,0,2.1.7,2.4,1.9l.3.9v1.6l-.4.8c-.1.4-.5.8-.9,1.2-.7.5-1.5.7-2.3.4-4.3-1.1-11.4-.8-8.3,5.2,2.7,1.6,8.2-.1,11.8-1.9,2.3,6,3.1,10.6,1.3,17.2l-1.2,3.8c-2.7,7-15,5-21.8,3.2l.8-3.2,1.7-3.9c.4,0,5.4,1.2,6.2,1.2,7.8.7,9.2-2,9.5-5.4v-.3Z"/>
</svg>