<?xml version="1.0" encoding="UTF-8"?>
<svg id="_Слой_1" data-name="Слой 1" xmlns="http://www.w3.org/2000/svg" version="1.1" viewBox="0 0 1024 1024">
  <defs>
    <style>
      .cls-1 {
        fill: #02212a;
      }

      .cls-1, .cls-2, .cls-3, .cls-4, .cls-5, .cls-6, .cls-7, .cls-8, .cls-9, .cls-10, .cls-11, .cls-12, .cls-13, .cls-14, .cls-15, .cls-16, .cls-17, .cls-18, .cls-19, .cls-20, .cls-21, .cls-22, .cls-23, .cls-24, .cls-25, .cls-26, .cls-27, .cls-28, .cls-29, .cls-30, .cls-31, .cls-32, .cls-33, .cls-34, .cls-35, .cls-36, .cls-37, .cls-38, .cls-39, .cls-40, .cls-41, .cls-42, .cls-43, .cls-44, .cls-45, .cls-46, .cls-47, .cls-48, .cls-49, .cls-50, .cls-51, .cls-52, .cls-53, .cls-54, .cls-55, .cls-56, .cls-57, .cls-58, .cls-59, .cls-60, .cls-61, .cls-62, .cls-63, .cls-64, .cls-65, .cls-66, .cls-67, .cls-68, .cls-69, .cls-70, .cls-71, .cls-72, .cls-73, .cls-74, .cls-75, .cls-76, .cls-77, .cls-78, .cls-79, .cls-80, .cls-81, .cls-82, .cls-83, .cls-84, .cls-85, .cls-86, .cls-87, .cls-88, .cls-89, .cls-90, .cls-91, .cls-92, .cls-93, .cls-94, .cls-95, .cls-96, .cls-97, .cls-98 {
        stroke-width: 0px;
      }

      .cls-2 {
        fill: #021e28;
      }

      .cls-3 {
        fill: #04202b;
      }

      .cls-4 {
        fill: #c7d6d8;
      }

      .cls-5 {
        fill: #d4dee8;
      }

      .cls-6 {
        fill: #c6d8dc;
      }

      .cls-7 {
        fill: #fee7c1;
      }

      .cls-8 {
        fill: #02202a;
      }

      .cls-9 {
        fill: #fad6c5;
      }

      .cls-10 {
        fill: #d5ebf0;
      }

      .cls-11 {
        fill: #fdd8cb;
      }

      .cls-12 {
        fill: #021f2a;
      }

      .cls-13 {
        fill: #6b8692;
      }

      .cls-14 {
        fill: #fad8ca;
      }

      .cls-15 {
        fill: #c8d9db;
      }

      .cls-16 {
        fill: #f2f3e3;
      }

      .cls-17 {
        fill: #b2b5b0;
      }

      .cls-18 {
        fill: #d5eaec;
      }

      .cls-19 {
        fill: #01212e;
      }

      .cls-20 {
        fill: #fdfffe;
      }

      .cls-21 {
        fill: #aea49a;
      }

      .cls-22 {
        fill: #c7d4d5;
      }

      .cls-23 {
        fill: #fdd6c8;
      }

      .cls-24 {
        fill: #c7d8da;
      }

      .cls-25 {
        fill: #c4d5d9;
      }

      .cls-26 {
        fill: #fbd8ca;
      }

      .cls-27 {
        fill: #02212c;
      }

      .cls-28 {
        fill: #032129;
      }

      .cls-29 {
        fill: #cad7d9;
      }

      .cls-30 {
        fill: #fee8c3;
      }

      .cls-31 {
        fill: #021f29;
      }

      .cls-32 {
        fill: #c4cfc3;
      }

      .cls-33 {
        fill: #032130;
      }

      .cls-34 {
        fill: #bbcdd4;
      }

      .cls-35 {
        fill: #c4d1d2;
      }

      .cls-36 {
        fill: #c4d5d8;
      }

      .cls-37 {
        fill: #02222a;
      }

      .cls-38 {
        fill: #c3d1d5;
      }

      .cls-39 {
        fill: #000505;
      }

      .cls-40 {
        fill: #cad9da;
      }

      .cls-41 {
        fill: #1f2b24;
      }

      .cls-42 {
        fill: #feffff;
      }

      .cls-43 {
        fill: #fed6c9;
      }

      .cls-44 {
        fill: #c7d8db;
      }

      .cls-45 {
        fill: #031f29;
      }

      .cls-46 {
        fill: #032833;
      }

      .cls-47 {
        fill: #c8d7d7;
      }

      .cls-48 {
        fill: #c8d9d9;
      }

      .cls-49 {
        fill: #c3d4d6;
      }

      .cls-50 {
        fill: #03212d;
      }

      .cls-51 {
        fill: #02171c;
      }

      .cls-52 {
        fill: #041e26;
      }

      .cls-53 {
        fill: #b2b0a7;
      }

      .cls-54 {
        fill: #fee7c2;
      }

      .cls-55 {
        fill: #c3d3d9;
      }

      .cls-56 {
        fill: #b3c1bf;
      }

      .cls-57 {
        fill: #042029;
      }

      .cls-58 {
        fill: #c9d9d9;
      }

      .cls-59 {
        fill: #c2c3bd;
      }

      .cls-60 {
        fill: #c8d8db;
      }

      .cls-61 {
        fill: #c1d3d5;
      }

      .cls-62 {
        fill: #c6d2db;
      }

      .cls-63 {
        fill: #c7d9da;
      }

      .cls-64 {
        fill: #c3d5d7;
      }

      .cls-65 {
        fill: #c6d5d8;
      }

      .cls-66 {
        fill: #0c181d;
      }

      .cls-67 {
        fill: #c6d8da;
      }

      .cls-68 {
        fill: #c7d9db;
      }

      .cls-69 {
        fill: #feeac0;
      }

      .cls-70 {
        fill: #c2d2d4;
      }

      .cls-71 {
        fill: #f8f9fe;
      }

      .cls-72 {
        fill: #c9d8d9;
      }

      .cls-73 {
        fill: #c3d6d8;
      }

      .cls-74 {
        fill: #a7a9a6;
      }

      .cls-75 {
        fill: #041a24;
      }

      .cls-76 {
        fill: #faf1db;
      }

      .cls-77 {
        fill: #fed6c8;
      }

      .cls-78 {
        fill: #e2ecf2;
      }

      .cls-79 {
        fill: #c8d8d9;
      }

      .cls-80 {
        fill: #041f28;
      }

      .cls-81 {
        fill: #8e958f;
      }

      .cls-82 {
        fill: #fdd7c9;
      }

      .cls-83 {
        fill: #ffe6bd;
      }

      .cls-84 {
        fill: #e5e2cc;
      }

      .cls-85 {
        fill: #fee8c2;
      }

      .cls-86 {
        fill: #a5b5b9;
      }

      .cls-87 {
        fill: #02202b;
      }

      .cls-88 {
        fill: #ffe8bd;
      }

      .cls-89 {
        fill: #fff;
      }

      .cls-90 {
        fill: #dfedf1;
      }

      .cls-91 {
        fill: #cbdbdb;
      }

      .cls-92 {
        fill: #feeac2;
      }

      .cls-93 {
        fill: #c4cfd2;
      }

      .cls-94 {
        fill: #041b22;
      }

      .cls-95 {
        fill: #f7ecd8;
      }

      .cls-96 {
        fill: #f9f2db;
      }

      .cls-97 {
        fill: #fcfefe;
      }

      .cls-98 {
        fill: #b0aa9c;
      }
    </style>
  </defs>
  <path class="cls-12" d="M520.8,175.2c8.9,5.5,14.4,13.8,19.2,22.8.7,1.4.9,3.2,1.2,4.7,4.1-6.2,9.2-13.2,15.9-16.8,6.3-3.6,14-4.7,21-2.4,9.3,2.8,16.5,11.1,20.8,19.5,3.3,6.9,6.1,14.3,7.1,21.9,4.2-4.4,8.7-8.3,14.5-10.5,6.6-3,14.4-3,21-.2,8.1,3.3,14.2,10.6,17.7,18.4,5.5,12.2,6.2,26.5,5.4,39.7,2.1,0,4.3-.2,6.4-.4,10.6-1.2,22.6,1,31,7.9,11.9,9.3,16.8,25.2,13.9,39.8-1.8,8.6-4.6,17.3-9,25-1.4,2.4-2.7,4.9-3.6,7.5,8.8,2.1,17.2,4.4,24.9,9.3,9.3,5.9,16.6,15.6,18.9,26.5,3.6-7.1,7.4-13.5,14.3-17.9,7.2-4,15.9-4.8,23.4-1.2,9.3,4.4,16.8,13.3,22.3,21.7,1,1.4,1.5,3,2,4.7,4.4-6.4,11.1-10.7,18.9-11.6,9.6-1.3,18.9,2.6,25.3,9.7,8.9,9.3,11.9,21.7,13.5,34.1,10.2.2,20.5,1.6,29.4,7,8.6,5.2,14.7,14.4,16.5,24.3,1.7,8.1.5,16.3-2.7,23.9-2.8,6.4-6,12.3-11,17.2,1.7,4.6,3.9,8.9,5.2,13.7,1.4,4.6,1.6,9.3,2.1,14,10,5.7,18.1,14.5,22,25.4,1.4,4,1.9,8.7.8,12.9-2.6,7.5-9.8,12.3-16.7,15.5,4.8,6.2,7,13.6,8,21.3,1,6.7-2.3,13.8-6.9,18.5-7,5.9-16.5,7.4-25.4,7.8,4.2,8.1,6.5,17.1,10.1,25.4,4.9,13,13.5,26,14.8,40.2.2,8.7-6.1,15.5-14.2,17.7,3.7,9.1,8.8,19.4,8.7,29.3.2,7.9-3.6,15.1-9.4,20.3-4,3.5-9.1,5.5-14,7.4,0,17-1.2,33.2-9.8,48.3-4,6.5-9.6,12.9-17,15.5-12.5,4.5-26.6,5.1-39.4,1.4-6.7-1.9-12.6-5.9-16.4-11.7-2.2-3.7-3.8-7.7-4.8-11.9-3.5,0-7.1.2-10.6.3-1.7,7.5-5.2,14.7-11.9,18.9-8.4,5.7-19.5,7.6-29.4,7.9-9.7.1-20.8-1-29.2-6.4-.9,7.8-3.3,15.2-8.9,20.9-5.9,5.4-15.2,7.4-22.9,8.3-8.8.6-19.3-.4-26.9-5.3-6.1-4-8.8-10.3-10.2-17.2-1.7,0-3.4,0-5.1,0-1.5,6-2.6,11.4-7.7,15.4-8.7,6.3-20.6,8-31.1,7.2-5.8-.7-12.1-1.9-17.2-4.9-2.5-1.4-4.3-3.4-6.6-4.9-13.5,1.3-28,1.7-41.3-1.2-7.9-1.7-14.9-5.8-20.7-11.3-4.2-4.4-7.3-9.9-9.2-15.6-1-3.9-1.2-8-2.4-11.8-1.2.4-2.4.7-3.7,1.1-.6,3.6-1,7.3-1.8,10.8-2.3,6.5-5.5,12.2-10.9,16.7-10.7,9.3-24.5,11.3-38.1,12.2-9.7.3-20.6.4-29.8-2.7-9.6-3.4-18.2-9.5-24.3-17.7-.7,7.3-3,15.4-8.5,20.5-7.4,6.4-18,8.4-27.4,8.7-8.7,0-18-2.3-24.5-8.3-4.2-3.9-5.9-8.8-6.5-14.4l-2.3-.3c-1,2.2-1.6,4.4-2.3,6.7-1.7,4.3-4.5,7.7-8.4,10.1-9.4,5.9-21.2,7.4-32,5.2-6.3-.9-12.1-3.1-16.5-7.7-4-4-6.7-9.5-8.1-14.9-10.3.8-21.6-.3-30.9-5-8.4-4.3-12.9-12.4-14.7-21.3-3.2,0-6.5-.1-9.7.1-1.4,5.5-2.9,10.6-7.1,14.6-5.8,6-13.2,8.8-21.2,10.4-9.6,1.5-19.3,1.2-28.6-1.5-3.9-1.3-7.3-3.4-10.6-5.8-5.2-3.8-8-8.9-10.8-14.5-7.2-14.1-7.9-29.3-7.9-44.9-4.2-1.5-8.3-2.8-11.9-5.5-6.2-4.2-10.2-10.9-11.3-18.2-.8-6.7.2-13.4,2.8-19.6,1.6-4.6,4.4-8.6,5.6-13.3-3.4-.9-6.5-2.3-9-4.9-4.7-4.6-6.2-11.6-4.8-18,2.3-11.2,8.2-19.2,12.5-29.5,4.5-10.1,7.3-21,11.9-31.1-7.5-.1-15.2-1.1-21.6-5.3-7.5-4.7-11.7-14-10.1-22.7,1.4-6.9,3.7-14.2,8.6-19.4-7.5-2.9-15.3-8.8-17.1-17-1.7-6.8.8-12.8,3.8-18.8,4.3-7.8,10.9-13,18.1-18,.4-9.6,3.1-18.7,7.6-27.1-3.9-3.9-7-8.6-9.7-13.4-4-7.2-5.4-15.4-4.9-23.6.2-8.6,3.5-17,9.6-23.1,6.5-7.2,15.6-11.1,25.1-12.3,4.2-.5,8.2,0,12.2-.9.8-13.7,5.8-27,16.2-36.3,7.3-6.8,17.9-9.8,27.5-6.4,5.6,1.9,10.1,5.7,13.5,10.5,2.5-4.3,4.5-8.5,7.8-12.3,3.7-4.1,7.1-8.2,11.7-11.2,6.6-4.4,15.6-6.4,23.3-3.9,5.2,1.5,9.4,4.9,12.6,9.2,4.9,6.4,7.7,14,8.7,22,1.6-1.9,1.3-4.9,1.9-7.2,1.6-10,7-18.6,14.2-25.5,9-7.9,20.2-11.4,31.7-13.9-.5-1.1-1-2.2-1.6-3.3-5.1-8.6-9.3-18-11.1-27.8-1.3-6.5-1.5-13.5.2-19.9,3-12,11.5-22.5,23.1-27.1,9.5-3.9,18.9-3.1,28.8-2.2-.6-12.6,0-25.6,4.3-37.5,2-5.8,5.5-10.8,9.8-15.2,5.9-5.9,15.1-8.4,23.3-7,8.9,2.1,17,7.8,22.5,15.1,1.1-5.6,1.4-10.6,3.2-15.8,2.7-8.2,6.7-16.2,13.3-22,7.1-6.7,17.7-9.4,27-6.2,9.5,2.7,16.5,10.7,21.9,18.5,5.6-11.6,13.8-23.2,25.9-28.7,7.8-3.8,17.8-3,25,1.6Z"/>
  <path class="cls-89" d="M514.7,196.3c6.1,6.1,9.9,14.9,12.3,23.1,2.8,8.9,4.5,18.3,5.3,27.6.3,3.6-1.1,8.3,1.3,11.3,3.2,4.5,9.9,4.6,14.1,1.4,4.6,1.3,9.2,2.9,13.9,3.9,6,1.4,11.7,4.1,17.5,6.2.9.4,1.8.8,2.7,1.2,2.2-2.8,2.1-5.8,3-9.1.8-2.9,1.5-5.8,1.7-8.8.4-.2.8-.4,1.2-.4-.2.9-.4,1.7-.6,2.6-1.1,4.6-2.3,9.3-3.4,13.9-.9,2.6,2,5,3.5,6.7,2.9,2.8,6.3,3,10,1.7,2.5,4.4,6.6,5.5,10.7,7.7,2.4,1.2,4.9,2.7,7.5,3.5,2,.5,3.5-.3,5.4-.9l-.3,1.1c-.4,1.1-1.8,2-.7,3.1,2,2.5,2.3,5.1,2.9,8.1,1,4.6,6.8,7.8,11,5.5,4.5-2.1,8.8-4.5,13.4-6.3,10.5-4.4,21.9-8.9,33.6-7.1,9.4,1.5,15.9,10.2,15.7,19.5-3.4,3.6-6.5,7.4-10.4,10.4-7.7,6.3-16.1,10.4-24.6,15.5-1.5,1-3.7,2.4-3.8,4.4,1.7,3.8,4.2,6.9,5.3,11,1,3.4,1.2,7.9,3.4,10.6,1.9,2.7,6.4,1.9,9.3,2.2,3.4,3.7,7.6,3.7,12.2,4.4,6.9.7,13.7,2.1,20.2,4.6,6.1,2.4,12.6,6.2,16.3,11.8-1.7,2.6-3.2,5.3-5,7.9-2,3.1-6.1,4.4-9.4,5.6-4.6,1.7-9.2,2.4-14.1,2.5-9.7.9-19.3.7-29,.7-3.5,0-5.9,2.2-7.9,4.7-2.8,3.8-2.6,9.8-3.9,14.3-1.9,6.6-3.6,13.1-6.5,19.4-4.7,11.9-12.2,22.9-20.7,32.4-1.9,2.2-3.5,4.5-5.4,6.6-8,7.3-16.1,14.1-25.6,19.3-8.9,5.7-19.1,9.6-29,13-6.1,2.2-12.4,3.2-18.9,4.9-5.6,1.5-11.4,1.8-17.1,3-6.6.9-13.3.8-20,1.4-10.6.1-21.5.3-32-1.3-4-.5-8-.5-12-1.4-9-2.2-18.1-3.6-27-6.6-5.8-2.1-11.4-4.7-17.1-6.9-9.6-4.1-18.6-9.9-27-16-4.1-3.9-8.7-7.3-12.8-11.2-4.5-4.8-9-9.9-12.5-15.4-2.5-3.8-5.2-7-6.9-11.1-2-4.6-3.9-9.3-6.2-13.8-3-5.7-3.7-11.9-5.5-18.4-1.6-5.9-1.4-12.2-7.2-15.7-4.7-3-8.7-.8-13.7-.9-5.7-.1-11.3.1-17-.5-4-.4-7.8-.2-11.5-1.5-5.2-1.8-10.2-2.6-14.4-6.5-2.9-2.5-4.1-5.8-5.6-9.2,2.1-3.4,5-5.8,8.5-7.7,8.7-4.7,19.1-6.9,28.8-8.1,4-.6,7.6-.6,10.9-3.2,3-.2,8,.6,10.2-1.9,2.7-4.1,3-9.9,4.7-14.5,1-3.2,3.1-6,4-9.2-1.6-3.9-4.9-4.8-8.3-6.7-5.8-3.6-11.7-6.8-17.1-10.9-4.4-2.6-7.4-6.4-10.6-10.4-.8-.6-1.6-1.3-2.5-1.9-.2-6.9,3.1-13.7,9.2-17.1,4.5-2.7,9.5-2.8,14.6-2.4,12.1.8,23.7,5.8,34.2,11.6,2.8,1.4,5.7,3.4,8.9,2.7,5.2-1.7,8.7-8,6.6-13.2,1-.5,2.1-1,3.1-1.5.9.5,1.6,1.4,2.6.7,5-2.8,9.1-7.1,14.1-9.9,2.4-1.3,3.9-2.7,5.6-4.8,2.1.6,4.2,1,6.5.4,2.7-.5,4.6-3.2,6.5-5.1,2.1-1.1,4.8-1.7,6.6-3.2,1-.8.1-2.5,0-3.7-.4-1.7-.9-3.3-1.3-4.9,1.2,2.1,1.8,4.9,3.5,6.6,8.1-1.7,15.7-6.6,24-7.7,1.8-2.4,3.1-5,2.6-8-.6-3.9-1.1-7.4-.2-11.3-2.5-.2-5-.4-7.5-.6,2.8,0,5.5-.4,8.2-1,.1,3.4.3,6.8.6,10.2.2,4.5,1.3,8.5,5.5,10.9,5.3,4,14.9-1.4,13.8-8.1-.3-6.8.6-13.5,2-20.2,2-8.9,4-17.4,8.5-25.4,2.8-5.2,6.7-11.3,12.5-13.6,4.5-1.6,8.7.2,11.9,3.4Z"/>
  <path class="cls-95" d="M569.2,202.8c2.5-.3,5.3,1.3,7.2,2.8,3.7,3.8,6.2,9,7.9,14-.7,2.8-.7,5.6-.6,8.4.3,6.1-.5,12-.3,18.1-.4.3-.7.6-1,1,.2-2.5.3-5,.4-7.5-8.5-5.8-18.6-8.4-28.9-7.8l-.9.3-2.2.6c-.2-1.8-.5-3.8-.3-5.6.8-2.5,2.5-4.7,3.7-7.1,1.5,3.3-2.1,5.7-1.9,9.4,5.4,1.1,10.8.2,16.1,1.1,4.7,1.2,8.6,3.9,13.5,4.3-.5-4.3-.6-8.6-.9-12.8-.2-3.9-2.1-7.4-3.4-11.1-.7-2.9-4.4-4.6-7-5.5-3.6-1.2-5.7,3-9.6,3.6,2.2-2.6,4.9-5.7,8.4-6.3Z"/>
  <path class="cls-76" d="M444.7,204.3c8.7,5.8,11.2,16.2,16.5,24.1-.3,1.1-.7,2.1-1,3.2-3.1-.2-6.2-.1-9.3.3-6.5.6-12.8,2.4-18.5,5.4-1.9,1-3.4,2.5-4.8,4.1-.2-2.1-.4-4.2-.7-6.3l.3-1.8c1.6.5,3.2,1.1,4.8,1.4,2.2-.3,4.3-1.5,6.4-2.3,5.4-2.3,11.9-1.2,17.2-2.9,1.4-.5,2.4-2.6,1.7-3.9-1.5-3-3.5-5.8-5.1-8.8-2.6-4.4-4.4-8.6-9.4-10.6-3.3-1.9-6.4.4-10.3.2,3.3-3.6,7.9-4.8,12.2-2.1Z"/>
  <path class="cls-88" d="M442.7,206.2c5.1,2,6.8,6.2,9.4,10.6,1.6,3,3.6,5.8,5.1,8.8.8,1.3-.3,3.5-1.7,3.9-5.3,1.7-11.9.6-17.2,2.9-2.1.8-4.2,2-6.4,2.3-1.6-.3-3.2-.9-4.8-1.4l-.3,1.8c-.8-4.7-.3-9.3-1.5-14,1.4-5.3,3.3-10.6,7-14.7,3.9.1,7-2.1,10.3-.2Z"/>
  <path class="cls-83" d="M570.4,205.5c2.6.8,6.3,2.5,7,5.5,1.3,3.7,3.2,7.3,3.4,11.1.3,4.3.4,8.6.9,12.8-4.9-.5-8.8-3.2-13.5-4.3-5.3-.8-10.7,0-16.1-1.1-.2-3.7,3.4-6.1,1.9-9.4,1.8-3.9,3.9-7.7,6.7-11,3.9-.6,6-4.8,9.6-3.6Z"/>
  <path class="cls-74" d="M584.3,219.6c3.8,10.4,5.3,22,3.5,33-.4,0-.9.2-1.2.4-.2,3-1,5.9-1.7,8.8-.9,3.3-.8,6.3-3,9.1-.9-.4-1.8-.8-2.7-1.2.5-4.8,1.4-9.5,2.1-14.2.4-2.7,0-5.9,1.1-8.4.4-.3.7-.7,1-1-.2-6.1.6-12.1.3-18.1-.1-2.9-.1-5.6.6-8.4Z"/>
  <path class="cls-98" d="M425.4,221.1c1.2,4.6.7,9.3,1.5,14,.3,2.1.5,4.2.7,6.3.1,1.9.4,3.9.8,5.8h1.5c-.8.5-1.6,1-2.4,1.5.5,4.2.7,8.3,2,12.4.5,1.6.9,3.3,1.3,4.9-2,1.4-3.2.6-4.2-1.4-1.5-4.4-2-9.1-2.4-13.7-.4-4.2,0-7.9-2.4-11.6.5-6.2,1.4-12.5,3.7-18.3Z"/>
  <path class="cls-81" d="M461.2,228.4l.5.8c-1.3,6.7-.5,13.3-1.1,20.1-.3-3.4-.5-6.8-.6-10.2-2.7.5-5.4.9-8.2,1h-1.2c2.8-.7,5.5-1.1,8.3-1.4-.1-1.8.5-5.1-.8-6.5-2.3-.5-4.8-.4-7.1-.3,3.1-.4,6.2-.5,9.3-.3.3-1.1.6-2.1,1-3.2Z"/>
  <path class="cls-75" d="M450.9,231.9c2.3,0,4.8-.2,7.1.3,1.4,1.4.7,4.7.8,6.5-2.8.3-5.6.7-8.3,1.3-7.3,1.1-14.2,3.6-20.7,7.2h-1.5c-.3-1.9-.6-3.9-.8-5.8,1.4-1.7,2.8-3.2,4.8-4.1,5.8-3,12.1-4.8,18.5-5.4Z"/>
  <path class="cls-94" d="M553,232.1l.9-.3c10.3-.7,20.3,1.9,28.9,7.8,0,2.5-.2,5-.4,7.5-5.4-.8-9.5-4.5-14.8-5.5-5.2-1.6-11-1.1-16-3.2.4-2.1.9-4.2,1.5-6.3Z"/>
  <path class="cls-16" d="M377,233.2c5.1-.2,8.2,2.9,11.5,6.4,5.5,6.4,10.6,13.3,14.1,21h.4c.6,3.7,1.6,7.2,2.9,10.6-2.3-2.9-2.4-6.2-3.3-9.7-.9.1-1.7.2-2.5.4,1.1-.4,1.7-1.4,1.6-3-.9-1.5-1.8-2.9-2.7-4.3-1.5,0-2.8,0-4.2.3l-2.6.7c1-1.5,2.1-3,3.1-4.4-3.9-5.7-9-11.4-15.1-14.8-1.5-.6-4.2-2.3-5.5-.7-2.8,2.7-5.5,5.1-6.5,9.1-.1-1.3-.2-2.6-.3-3.8,1.7-3.6,4.6-8,9.1-7.8Z"/>
  <path class="cls-92" d="M630,232.8c4.7-.1,8,2.8,10.3,6.6-.4,4.8-.2,9.6-.8,14.3-.7.6-1.4,1.1-2.1,1.7-.6,2-.5,5.7-2.4,6.9-3.5-.1-5.8-4.6-9.2-4.7-.8.3-1.6.7-2.3,1.1-3.3-1.6-6.7-2.8-10.3-3.8-.9-.4-1.7-.9-2.6-1.3,0-.9.2-1.9.2-2.8,2.1-3.7,5.1-7,7.7-10.3,3.1-3.5,6.5-7.2,11.4-7.7Z"/>
  <path class="cls-69" d="M380.2,236.5c6.1,3.4,11.1,9.1,15.1,14.8-1,1.5-2.1,3-3.1,4.4-3.3,1.1-6.3,2.6-9.3,4.3-.8-.1-1.6-.2-2.4-.2-3,1.4-5.4,3.3-8.8,3.8-.9-6.5-2.9-12.6-5.1-18.8.4-1.3.9-2.5,1.4-3.8.1,1.3.2,2.6.3,3.8,1-3.9,3.7-6.4,6.5-9.1,1.3-1.6,4,.1,5.5.7Z"/>
  <path class="cls-30" d="M551.5,238.4c5,2.1,10.8,1.5,16,3.2,5.4,1,9.4,4.7,14.8,5.5-1.1,2.5-.8,5.7-1.1,8.4-.6,4.8-1.6,9.4-2.1,14.2-5.8-2.1-11.5-4.7-17.5-6.2-4.7-1-9.3-2.6-13.9-3.9,6.2-6,3.7-13.6,3.8-21.2Z"/>
  <path class="cls-59" d="M421.8,239.4c2.4,3.7,1.9,7.4,2.4,11.6.4,4.6,1,9.3,2.4,13.7,1,1.9,2.2,2.8,4.2,1.4,0,1.1,1,2.9,0,3.7-1.8,1.6-4.5,2.1-6.6,3.2,2.4-3.7.5-7.8-.3-11.7-1.5-7.1-2.4-14.5-2-21.8Z"/>
  <path class="cls-7" d="M450.6,240h1.2c2.5.2,5,.4,7.5.6-.9,3.9-.3,7.5.2,11.3.5,3-.9,5.6-2.6,8-8.3,1.1-15.9,6-24,7.7-1.6-1.8-2.3-4.5-3.5-6.6-1.3-4.1-1.5-8.1-2-12.4.8-.5,1.6-1,2.4-1.5,6.5-3.6,13.4-6.1,20.7-7.2Z"/>
  <path class="cls-17" d="M640.3,239.4c1.7,2.8,2.5,5.9,3.2,9.1,1.6,6.9,2.5,14.6,1.2,21.6-.7,3.8-1.2,8.2-3.2,11.5-3.5,2.2-7.7,3.3-11.3,5.3-1.5-.9-2.9-1.7-4.4-2.5,2.6-3.2,4.3-6.8,5.8-10.6,4,.1,4.2-2.9,4.3-6.1,2.8-4.4,2.8-9,3.6-13.9.6-4.8.4-9.6.8-14.3Z"/>
  <path class="cls-53" d="M366.5,244.7c2.3,6.1,4.3,12.3,5.1,18.8.3,1.5.6,3.1.9,4.6.8,2.4,2.3,4.2,3.8,6.1.7,2,1.7,3.7,3.1,5.3,3.3,3.9,6.2,8,9.2,12.1-1,.5-2,1-3.1,1.5-3.1-4.4-7.4-7.3-12.3-9.5-3-1.7-6.7-2.7-7.8-6.3-3.6-10.7-2.1-21.9.8-32.5Z"/>
  <path class="cls-85" d="M610.8,250.8c0,.9-.2,1.9-.2,2.8.9.4,1.7.9,2.6,1.3-1.1-.1-2.2-.2-3.3-.2-1.3,2.4-3.5,4.4-1.4,7.1,4.1,1.4,8.2,2.4,12.1,4.5,3.8,1.8,6.8,4.4,10.1,6.9l.9.6c-1.4,3.8-3.2,7.4-5.8,10.6-1.6,1.6-3.3,3.1-5.1,4.6l.3-1.1c-1.9.6-3.4,1.4-5.4.9-2.6-.8-5.1-2.3-7.5-3.5-4.1-2.3-8.2-3.4-10.7-7.7,3.6-2.5,5.4-6.2,6.7-10.3,1.6-5.7,3.9-11.2,6.8-16.3Z"/>
  <path class="cls-96" d="M639.5,253.7c-.8,5-.8,9.6-3.6,13.9-3.4-4.2-7.8-6.5-12.4-9,.8-.4,1.5-.8,2.3-1.1,3.4.1,5.7,4.6,9.2,4.7,1.9-1.2,1.9-4.9,2.4-6.9.7-.6,1.4-1.1,2.1-1.7Z"/>
  <path class="cls-41" d="M392.2,255.7l2.6-.7c-.2.5-.4.9-.7,1.4-6.7,4.7-14.1,6.1-19.5,12.7.8.8,1.6,1.6,2.4,2.4,2-.3,2.8-3.2,4.8-3.9,6.7-2.8,13.1-6,19.9-8.6,0,1.6-.5,2.6-1.6,3-3.7,1.3-7.4,2.6-10.9,4.1-4.8,2.1-8.4,5.4-12.7,8.2-1.5-1.9-3-3.7-3.8-6.1,3-3.4,6.3-5.9,10.2-8.1,3-1.7,6.1-3.2,9.3-4.3Z"/>
  <path class="cls-46" d="M394.7,255c1.4-.4,2.8-.3,4.2-.3.9,1.4,1.8,2.9,2.7,4.3-6.8,2.6-13.2,5.8-19.9,8.6-2,.7-2.8,3.6-4.8,3.9-.8-.7-1.7-1.5-2.4-2.4,5.4-6.6,12.8-8,19.5-12.7.2-.5.5-.9.7-1.4Z"/>
  <path class="cls-39" d="M609.9,254.7c1.1,0,2.2.1,3.3.2,3.5.9,7,2.1,10.3,3.8,4.7,2.5,9,4.8,12.4,9,0,3.2-.2,6.2-4.3,6.1l-.9-.6c1.1-.8,2.2-1.6,3.3-2.4-1.7-3.5-3.8-6.4-7.3-8.2-4.3-2.2-8.9-4.9-13.6-5.8-2.6-.4-3.5,3.4-4.5,5.1-2.1-2.7.1-4.7,1.4-7.1Z"/>
  <path class="cls-52" d="M613,256.7c4.8.9,9.3,3.6,13.6,5.8,3.5,1.9,5.6,4.7,7.3,8.2-1.1.8-2.2,1.6-3.3,2.4-3.3-2.5-6.3-5.1-10.1-6.9-3.9-2.1-8-3-12.1-4.5,1.1-1.7,1.9-5.5,4.5-5.1Z"/>
  <path class="cls-84" d="M380.4,259.8c.8,0,1.6.1,2.4.2-3.9,2.2-7.2,4.7-10.2,8.1-.4-1.5-.7-3-.9-4.6,3.4-.5,5.8-2.3,8.8-3.8Z"/>
  <path class="cls-66" d="M403,260.7l2.1.6c1.4,3.5,2.6,7.2,4.1,10.7-.3.8-.6,1.7-1,2.5-.8-1.1-1.5-2.2-2.3-3.4-1.3-3.4-2.3-6.9-2.9-10.5Z"/>
  <path class="cls-54" d="M402.6,261.5c1,3.5,1,6.7,3.3,9.7.7,1.1,1.5,2.3,2.3,3.4.9,1.1,1.9,2,2.9,3.1-1.7,2.2-3.2,3.5-5.6,4.8-5.1,2.8-9.1,7-14.1,9.9-1,.7-1.8-.2-2.6-.7-3-4.1-5.9-8.2-9.2-12.1-1.4-1.6-2.4-3.2-3.1-5.3,4.3-2.8,8-6,12.7-8.2,3.6-1.6,7.2-2.9,10.9-4.1.8-.2,1.7-.3,2.5-.4Z"/>
  <path class="cls-32" d="M625.8,284.4c1.5.8,2.9,1.6,4.4,2.5-2.3,1.4-4.6,3.1-6.2,5.3-1.4,2.3-1.5,5.4-1.2,8-.5-3-.9-5.6-2.9-8.1-1-1.1.3-2,.7-3.1,1.8-1.4,3.5-2.9,5.1-4.6Z"/>
  <path class="cls-58" d="M312.2,311.4c.8.6,1.7,1.2,2.5,1.9,3.2,4,6.1,7.8,10.6,10.4,5.4,4.1,11.3,7.3,17.1,10.9,3.4,1.9,6.7,2.8,8.3,6.7-.8,3.2-2.9,6-4,9.2-1.7,4.6-2,10.4-4.7,14.5-2.2,2.4-7.3,1.6-10.2,1.9,1.9-2.3,3.2-4.7,2.2-7.8-1.6-4.2-6-7.6-8.6-11.4-4.7-7-8.7-14.7-11.1-22.8-1.4-4.4-2.4-8.8-2.1-13.4Z"/>
  <path class="cls-67" d="M696.5,311.7c-.3,6.9-2.3,13.7-4.8,20.1-2.8,6.5-6.7,12.5-10.6,18.4-1.9,3-4.7,5.6-6.1,8.9-1,2.4-.2,4.5.7,6.7-2.9-.4-7.4.4-9.3-2.2-2.2-2.8-2.4-7.3-3.4-10.6-1.1-4.2-3.6-7.2-5.3-11,0-2,2.3-3.4,3.8-4.4,8.5-5.1,16.9-9.1,24.6-15.5,4-3,7-6.8,10.4-10.4Z"/>
  <path class="cls-87" d="M451.7,379.3c3.8,3.9,7.1,9,5.8,14.7-1.2,4.5-6.9,7.7-11,4.5-4.2-3.1-8.2-5.6-13.6-4.5-3,.5-4.4,2.5-6.5,4.4-4.6,4-10.4,1.1-12.8-3.8-1.1-10.4,6.9-18.4,16.4-21,7.5-2.5,16.1.5,21.7,5.7Z"/>
  <path class="cls-8" d="M575,372.9c5.9.8,11.3,3.4,15.2,8,3.2,3.5,5.7,8.7,4.8,13.5-1.9,2.5-4,5-7.2,5.9-2.8.4-5.7-1.4-7.8-3.1-2.9-2.5-6.1-4-10-3-5.5,1-8,6.8-13.8,5.5-4.8-1.2-6-5.8-5.2-10.2,2.3-10.7,13.5-17.5,24-16.5Z"/>
  <path class="cls-27" d="M499.5,385.8c4.7-1,11.1-.7,14.7,3,1.9,1.8,3.2,5.5,1.3,7.8-2.8,4.4-8.7,5.4-13.5,5.2-3.8-.4-8.6-2.4-9.1-6.7-.8-4.6,2.4-8.1,6.6-9.2Z"/>
  <path class="cls-68" d="M283.5,385.7c1.5,3.5,2.7,6.7,5.6,9.2,4.2,3.8,9.2,4.7,14.4,6.5,3.8,1.2,7.5,1.1,11.5,1.5,5.7.6,11.3.3,17,.5,5.1.2,9.1-2,13.7.9,5.8,3.5,5.7,9.9,7.2,15.7,1.9,6.6,2.5,12.7,5.5,18.4,2.3,4.5,4.2,9.2,6.2,13.8,1.8,4.2,4.5,7.4,6.9,11.1,3.6,5.5,8.1,10.6,12.5,15.4,4.1,3.9,8.6,7.3,12.8,11.2,8.4,6.2,17.4,11.9,27,16,5.8,2.2,11.3,4.8,17.1,6.9,8.9,3,18,4.4,27,6.6,4,.9,8,.9,12,1.4,10.5,1.7,21.4,1.5,32,1.3,6.6-.6,13.4-.5,20-1.4,5.7-1.2,11.4-1.5,17.1-3,6.5-1.7,12.8-2.7,18.9-4.9,9.9-3.4,20.1-7.3,29-13,9.6-5.1,17.7-12,25.6-19.3,1.9-2.1,3.6-4.5,5.4-6.6,8.5-9.5,16-20.4,20.7-32.4,2.9-6.2,4.6-12.8,6.5-19.4,1.3-4.5,1.1-10.5,3.9-14.3,2.1-2.5,4.4-4.8,7.9-4.7,9.7,0,19.3.3,29-.7,4.9,0,9.5-.7,14.1-2.5,3.3-1.2,7.4-2.6,9.4-5.6,1.8-2.6,3.3-5.3,5-7.9,3.8,6.4,5.4,15.2,2.5,22.2-2.6,7.6-9.8,13.6-16.6,17.5-8.7,5-18.1,6.7-27.8,8.5-4.2.4-7.8,6.1-5.2,9.8,2.2,3.4,5.3,6.2,7.6,9.5,4.3,6.1,8.5,12.5,11.3,19.4,1.9,4.9,2.2,10.3-.6,15-2.3,4-7.2,5.6-11.4,6.4-8.6,1.4-17.5.8-26.1-.3-2.8-.1-5.6-.7-7.2,2.2-2.1,3.8,1,6.5,2.8,9.5,5.4,7.5,9.9,15.2,10.9,24.6,0,1.4.2,3.5-1.1,4.4-3.6,2.8-7.3,5.4-10.5,8.8-2-4.5-6.4-8-10.1-11-11-8.6-28.6-8-38.2,2.5-8.1,8.3-10.8,20.1-12.2,31.2-6.4-.9-13-1.9-19.5-2-9.4.5-18.4,2.2-25.9,8.2-4,3-6.5,7-9.9,10.7-6.2-1.4-11.6-4.8-14.3-10.6-1.8-4.1-1.2-7.9-1.8-12.2-.9-2.3-2.6-3.1-5-2.9-7.8.7-15.3.6-23.1,0-2.1-.2-4.4.8-4.9,2.9-.7,4,.1,7.6-1.6,11.5-2.4,5.2-7.8,9.2-13.4,10.2-6.3,1.4-12.9.3-19-1.5-7.5-2.2-13.3-8.1-18.4-13.8-2.1-2.3-4.6-5.5-7.8-6.3-4.3-1.3-9.4,2.3-9.4,6.8-.6,5.9,2.9,11,6,15.6,13.2,18.6,39.6,25.3,60.4,16,8.6-3.4,15.5-10.2,19.2-18.7.7,1,1.4,2,2,3.1,5.5,9.4,15.4,17.6,26.3,19.6,1.4,12,8.6,22,17.9,29.4-5.4,4.9-10.6,10-15.1,15.7-1.8-4.5-3.3-9-5.6-13.2-3.1-5.6-5.7-11.1-10-15.9-2.5-2.8-4.6-6.4-8-7.9-2.6-1.3-5.5-2.5-8.4-3-2,0-4.1.8-5.9,1.5-5.7,2.4-11.5,5-17.5,6.4-9.1,1.8-17.9,2.9-27.1,1.3-7.3-.6-14.2-3.1-20.4-7-2.5-1.6-4.7-3.8-5.4-6.8-.7-4.3-.5-8.7.6-12.9-.7.4-1.3.8-2,1.3-1.7-7.3-4.9-14.1-11.1-18.6-7.8-6.3-17.9-8-27.6-6.5-.7-6.8-.2-13.6,0-20.4.4-3.1-2.5-5.8-5.6-5-8.4,1.5-18.3,5.6-27,4.2-7.4-1.8-11.3-9.6-9.9-16.7,1.6-7.3,4.7-14.2,8.9-20.5,2-3,4.6-6.4,5.4-10-.5-2.3-2.7-4.7-5.3-4.4-10.6,1-22.6,2.7-33-.4-5.5-1.6-9.8-6.3-9.8-12.2-.3-5.7,2.1-10.3,4.7-15.2,3.7-6.5,7.7-12.8,12.7-18.3,1.9-2.5,5.1-6.1,3.3-9.4-1.8-4.1-6-4.1-9.8-5-11.1-1.9-21.6-5.6-30.6-12.4-5.9-4.7-10.3-11-11.4-18.6-.3-6,1.4-12.1,4.4-17.3Z"/>
  <path class="cls-42" d="M228.9,387.4c2.2.3,3.6,1.7,5.1,3.2-1.1,5,1.2,8.9,1.5,13.9.5,8.5.1,17.1.1,25.6-.1,1.9,1.9,2.8,3.5,3.2,1.3-.2,2.3-1.6,3.3-2.4,2.2,3.4,6.2,4.9,10,3.5,2.1-1.3,3.5-3.7,4.6-5.8,4.6,7.9,11.9,15.4,19.4,20.5,1.4-3.3,2.6-6.6,3.9-9.9,3.1,2.1,6.1,4.2,9.5,5.9-4.1.1-7.7,0-11.1,2.7-4,3.3-5.8,9.6-7.6,14.3-3.6,9.7-4.2,20.2-2.5,30.3,1.1,5.5,3.4,10.2,7.2,14.4-4.6-1.8-10.7-1.1-14,2.8-5.2,5.4-4.5,15.7,1.7,20.1,3.1,2.3,7.3,2.3,10.8,1.2,4.5-1.5,7.7-5.5,8.8-10,.4-.5.8-1,1.3-1.6,5.1,3,11.5,5.5,15.4,10,1.9,2.6,4.3,6.6,1.7,9.5l-1.7-2.8c-3.1-4.9-6.9-8.1-12.4-9.9-3.4,3.1-7.6,5-11,8-3.8,7.1-.7,17.4,7.6,19.6-7.7,6-12,16.3-12.5,26-8.5-2.4-16.8-3.2-25.2.3-9.8,3.9-17.3,12.7-18.8,23.3-.6-1-1.2-1.9-1.8-2.9-13.3,2.3-27.2,1.3-40.3-1.3-7.6-2.8-15.2-4.2-22.3-8.1-6.6-2.8-12.7-6.4-18.4-10.7-8.7-7.4-16.2-16-22.1-25.8-1-1.3-2.5-4.4-4.4-4-4,2-7.5,7.1-12,7.7-4.6.3-6.8-3.6-10.7-5.8,3.5-6,8.9-9,14.6-12.6,2.2-1.7,4.7-2.5,4.1-5.8-1.4-13,2.8-26.1,9.1-37.4.4-.8.9-1.5,1.3-2.2,2.9-.3,6-.3,8.9-1.1,3.2-1.1,5.4-5,3.6-8.1-2.4-4-7.9-5.9-11.8-8.3-5.5-3.1-10-7.2-14.2-11.8-.9.2-1.7.4-2.6.6-.3-7.1,4-13,10.2-16,6.2-3.1,13-2.8,19.6-1.6,3.6.6,7.3,2,10.9,2.2,2.4-1.1,5.1-3.4,5.1-6.3,0-3.7-.7-7.2-.1-10.9.9-7.6,2.2-16.2,6.2-22.9,2.1-3.3,5.6-7,9.8-6.9,3-.2,5.9,1.6,7.9,3.7,4.4,5.1,6.9,11.2,8.5,17.7,1,3.4,1.3,6.4,4.7,8.3,4.5,3.1,10.5-.4,11.7-5.2,1.5-5.9,2.4-11.8,4.8-17.6,3.1-7.3,6.1-14.1,12-19.7,2.6-2.3,5.6-3.9,9.2-3.2Z"/>
  <path class="cls-89" d="M773,387.4c4.8-.6,9.2,3.1,12.1,6.5,5.5,7.1,9.3,15.6,11.8,24.2,1.1,3.7,1.4,7.6,2.7,11.3,1.2,3.3,4.9,5.6,8.4,4.9,2.9-.8,5.1-3.1,6.1-5.9,1.9-5.6,3.1-11,6-16.2,1.8-3.4,4.2-6.6,7.7-8.4,3-1.2,6.7-1,9.3,1,4.6,3,6.9,9.2,8.6,14.2,1.9,6.8,3.2,13.8,2.8,20.9,0,3.5-1,6.9,2.4,9.2,2.6,2.2,5.7.5,8.5,0,8-2.5,17.7-3.1,25.2,1.2,4.2,2.2,7.5,5.8,9,10.4-.5,1.7-.6,3.6-1.9,4.9-4.5,4.8-9.1,9.1-15.1,11.9-3.9,2-9.1,3.6-12,6.9-2.6,3.4.1,9.1,4.5,9.1,4.3.2,8.8,0,12.9-1.6-1.3,1.5-2.7,2.7-2.3,5,.7,2,1.8,3.9,2.8,5.8,2.9,5.6,4.7,11.9,5.9,18.1,1,5.1.4,10.1.6,15.2.4,1.6,2.4,2.6,3.6,3.5,5.3,3.1,11.7,6.6,14.8,12.2.1,1,.2,1.9.3,2.9-4.1,2.1-7.8,4.6-12.6,3.7-3.8-1.1-6.9-5.3-10.2-7-.9-.4-1.7-.4-2.5-.1-2.9,2.7-4.6,6.8-7,10-5.2,7.3-11.7,13.7-18.8,19.2-7.2,4.9-14.5,9.2-22.7,12.2-8.9,3.2-18.1,5.6-27.3,7.6-10,2-19.5,1.4-29.5,1.4-8.5.5-17.7-2.7-25.8-3.8-.4-.9-.9-1.8-1.2-2.8-3.2-12.7-14.4-22.9-27-25.8-6.2-1.6-13.2-1.1-19.6-.9-.8-5.6-1-10.9-3.1-16.2.8,0,1.6,0,2.3-.1,0,.9,0,1.8,0,2.6,4.6-1.3,9.4-.4,14-1.3,6.7-2.7,9.2-10.6,6-17-1.6-2.8-4-5.5-6.8-7.2-3.4-1.7-8.2-.7-11.8-.2,3.8-4.5,7.6-9.1,11.6-13.3-.8,4.4-.4,8.5,2.9,11.8,5.1,5.8,14.7,5.3,19.6-.5,4.3-4.4,3.2-12.2-.6-16.6-3-3.7-7.9-5.1-12.4-3.9,4.5-5,5.9-11.1,6.7-17.5,1.5-12.6-2-25.9-7.8-37-1.9-3.1-2.9-6.5-6.9-7.2.9-.5,1.8-1,2.7-1.5,1.1.8,2.2,1.6,3.2,2.4,7.2-2.4,13.6-8,18.5-13.7-.6-1.8-1.2-3.7-1.8-5.5.8-1,1.6-2.1,2.4-3.1.3,2.6-.1,5.7,1.8,7.7,1.9,2.4,4.5,3.2,7.2,4.2,2.7-.8,4.9-2.1,7.2-3.6,1.9.5,3.9,1.6,5.7.4,1.6-1.2,1.4-3.4,1.4-5.1-.3-6.7-.2-13.3-.2-20,0-5.2,1.3-10.1,1.5-15.2,1.7-2,3.4-4.2,6.2-4.4Z"/>
  <path class="cls-34" d="M233.9,390.6c3.4,3.8,5,9.6,6.4,14.4,2.5,8.8,1.7,17,2,25.9-1,.8-2,2.2-3.3,2.4-1.6-.4-3.6-1.3-3.5-3.2,0-8.5.4-17.1-.1-25.6-.3-5-2.5-8.8-1.5-13.9Z"/>
  <path class="cls-35" d="M766.8,391.8c-.3,5.1-1.6,10-1.5,15.2,0,6.7,0,13.3.2,20,0,1.7.2,4-1.4,5.1-1.8,1.3-3.8,0-5.7-.4.5-5.9-.2-11.8.7-17.8.9-7.9,3.2-15.6,7.7-22.2Z"/>
  <path class="cls-43" d="M413.6,394.6c2.3,4.9,8.2,7.8,12.8,3.8,1.7.1,3.8-.3,5.1,1.1,4.3,4.4,6.7,10.3,6.2,16.5.1,5.2-2.9,9.7-6.9,12.8-4.9,3.9-11.8,5.1-17.8,5.3-3.4-.6-6.6-1.9-9.9-3-7.1-2.8-12.2-10-11.7-17.8,0-6.4,4.5-11.8,9.5-15.4,3.9-2.4,7.9-4.5,12.6-3.4Z"/>
  <path class="cls-43" d="M615.6,407.3c1.5,3.3,2.1,7.2,1.3,10.7-.9,5.5-5.1,10.3-9.6,13.3-5.4,2.6-12.2,4.1-18.1,2.5-3.7-1-7.5-2.2-10.6-4.4-5.1-3.8-7.5-10.1-7.2-16.3-.2-6.2,4.6-11.5,8.5-15.9,2.1,1.7,4.9,3.6,7.8,3.1,3.2-.8,5.3-3.4,7.2-5.9,9-.3,16.5,5.2,20.7,12.9Z"/>
  <path class="cls-8" d="M484.2,400.7c3.7,2.5,5.9,7,9.7,9.4,3.3,2,7.2,2.4,11.1,2.4,3.7-.1,7.5-.7,10.6-2.9,3.6-2.5,4.9-7,8.9-9.1,3.2-1.3,7.1.1,9,2.9,2.6,3.8,2.2,8.3.2,12.3-2.9,5.7-8.2,10.2-14.1,12.5-9.7,3.8-20.4,4.3-30.1.2-5.7-2.1-10.3-6.3-13.6-11.4-2.2-3.6-2.9-7.8-1.5-11.8,1.7-3.8,5.8-6.2,9.9-4.7Z"/>
  <path class="cls-38" d="M261.8,416.2c3.5,9.3,10.4,17.3,18.5,22.9-1.4,3.3-2.6,6.6-3.9,9.9-7.5-5.1-14.8-12.6-19.4-20.5,1.8-4,2.9-8.3,4.9-12.3Z"/>
  <path class="cls-93" d="M739.7,426.6c.6,1.8,1.2,3.7,1.8,5.5-4.8,5.7-11.2,11.4-18.5,13.7-1.1-.8-2.2-1.6-3.2-2.4,7.8-4,14.8-9.7,19.8-16.8Z"/>
  <path class="cls-44" d="M289.7,445c4.2,2.1,8.7,3.5,13.2,4.8-2.9,5.1-6.5,10-8.8,15.3-3.4,8.6-5.7,18.9-3.3,28,1.6,6.9,6.9,12.6,12.4,16.8,6.8,4.2,15.7,5.7,23.6,6-1.7,7.1-3.6,15-2.8,22.2.5,5.2,3,9.3,6,13.4-3.3,2.1-6.5,4.2-9.3,6.9-4.6-3.7-8.9-7.4-14.7-9.2-3.4-.9-7.2-.6-10.7-.4,1.4-.3,2.8-.5,4.1-.8.7-.2,1.4-.3,2.1-.5.2-2.9.3-5.7-.1-8.5,2.5-3,.1-6.9-1.7-9.5-4-4.4-10.3-7-15.4-10-.4.5-.8,1-1.3,1.6.6-6.3-2.7-10.4-7.3-14.1-3.8-4.2-6-8.9-7.2-14.4-1.8-10.2-1.2-20.6,2.5-30.3,1.8-4.7,3.6-11,7.6-14.3,3.4-2.7,7-2.6,11.1-2.7Z"/>
  <path class="cls-22" d="M717.1,444.8c4.1.6,5,4.1,6.9,7.2,5.8,11.1,9.2,24.4,7.8,37-.9,6.5-2.3,12.6-6.7,17.5-4.3,2.4-6.8,5.1-9.4,9.2-4,4.3-7.8,8.9-11.6,13.3-3.4,4.4-4.9,10-4.5,15.5.7,2.6,2.6,4.7,3.1,7.5-.8,0-1.6,0-2.3.1-3.2-7.9-9-13.8-17-17,0-6.5-.4-13-2-19.3,8.7-.5,18.3-2.8,25.5-8,6.9-5.4,11.4-14,11-22.9.2-13.1-5.1-24.5-12.1-35.2,3.9-1.4,7.7-3,11.4-4.9Z"/>
  <path class="cls-64" d="M893.5,460.7c1.8,5,1.2,10.3-.6,15.3-2.3,6.3-6.4,11.3-11.1,16-4,1.5-8.6,1.8-12.9,1.6-4.3,0-7.1-5.7-4.5-9.1,3-3.3,8.2-4.9,12-6.9,6-2.9,10.6-7.2,15.1-11.9,1.3-1.3,1.4-3.2,1.9-4.9Z"/>
  <path class="cls-91" d="M110.9,465.1c4.3,4.6,8.7,8.7,14.2,11.8,3.9,2.4,9.4,4.2,11.8,8.3,1.8,3.1-.4,7.1-3.6,8.1-2.8.8-5.9.9-8.9,1.1-.4.7-.9,1.5-1.3,2.2,0-.6,0-1.3.1-1.9-2.5-2.5-4.9-5.1-7.2-7.9-4.7-6-7.8-13.5-7.8-21.2.9-.2,1.7-.4,2.6-.6Z"/>
  <path class="cls-50" d="M160.5,506.6c7.9-2.1,14.8,4.6,15,12.3.3,6.4-4.9,12.4-11.5,12.5-6.8.9-13-4.8-13.3-11.5-.4-6.2,3.8-11.7,9.7-13.4Z"/>
  <path class="cls-80" d="M275.7,506.8c4.6,3.7,7.9,7.9,7.3,14.1-1.2,4.5-4.3,8.5-8.8,10-3.5,1.1-7.7,1.1-10.8-1.2-6.2-4.4-6.9-14.7-1.7-20.1,3.3-3.9,9.4-4.6,14-2.8Z"/>
  <path class="cls-3" d="M725,506.5c4.6-1.1,9.4.3,12.4,3.9,3.8,4.4,4.8,12.1.6,16.6-4.9,5.7-14.5,6.2-19.6.5-3.3-3.3-3.7-7.4-2.9-11.8,2.6-4.1,5.1-6.8,9.4-9.2Z"/>
  <path class="cls-57" d="M834.1,507c8.9-3.6,17.5,4.6,17,13.4-1.6,8.1-10.3,13.3-18.2,10.5-6.3-3-8.1-10.7-6-16.9,1.4-3.1,4-5.8,7.2-7.1Z"/>
  <path class="cls-51" d="M201.9,516.1c5.9-.9,7.3,8.1,13,8.5,2.3.1,5.5.1,7.4-1.4,2.3-2.4,4-6.6,7.4-7.5,5.1-1.1,8.9,4.8,8.7,9.2-.3,7-6.5,12.2-12.7,14.4-4.2,1.8-9.3,1.6-13.8,1.4-7.9-.4-15.7-7-17.1-14.8-1-4.2,2.4-10,7.1-9.9Z"/>
  <path class="cls-31" d="M772.1,516.9c2.9,2.3,5.2,6.6,9.1,7.7,2.8.4,6.5.3,8.9-1.5,2.9-2.7,4.1-7.6,9-7.5,3.8-.3,6.3,3.2,7.4,6.4,1.3,5.7-2.2,11.5-6.8,14.6-9.2,5.6-21.5,6.9-30.8.7-4.9-3.1-9.2-9.4-7.6-15.4,1.2-4.7,6.5-7.4,10.9-5.1Z"/>
  <path class="cls-19" d="M229.4,519.5c1.9-.4,5.7-.9,6.1,1.8.8,2.6,1.1,5.3-.4,7.8-3.4,5.1-8.9,9.2-15.1,9.7-5,.5-11.1.4-15.5-2.3-4-2.5-3.8-6.8-7.1-10.5,1.2-1.8,2.4-3.6,3.7-5.4,3.9,1.3,3.4,5.6,7.1,7.1.6-.7,1.2-1.3,1.9-1.9,1.3.7,2.6,1.6,4,1.9,2,.2,4.2-.8,6-1.3,2-.7,4.1-.6,6.1-1,1.1-1.7,1.6-4.5,3.3-5.7Z"/>
  <path class="cls-14" d="M287.3,526.2c5.5,1.8,9.3,5,12.4,9.9-2.1,3.3-.6,8-.3,11.8-1.4.3-2.8.5-4.1.8-4.2,1-8.1,2.3-11.5,5.2-8.2-2.3-11.3-12.5-7.6-19.6,3.4-3,7.6-4.9,11-8Z"/>
  <path class="cls-82" d="M146.4,528.4c5.8-.5,8.6,3.3,12.2,7,2.3,2.5,2.5,6,2,9.2-.7,4.5-4.6,7.8-8.7,9.2-6.6,2.1-14.4-1.7-16.7-8.3-1.4-3.9-.4-8.4,1.5-11.9,2.1-3.1,5.9-5.1,9.6-5.2Z"/>
  <path class="cls-77" d="M715.8,529.2c2.8,1.7,5.1,4.4,6.8,7.2,3.1,6.4.7,14.3-6,17-4.6.9-9.3,0-14,1.3,0-.9,0-1.8,0-2.6-.6-2.7-2.4-4.9-3.1-7.5-.4-5.5,1-11.1,4.5-15.5,3.6-.6,8.4-1.6,11.8.2Z"/>
  <path class="cls-23" d="M848.5,529.6c5.3-2.7,12.6-.9,15.9,4.1,2.5,4.1,4.2,8.6,1.6,13.2-2.8,6.5-10.5,8.8-16.9,6.9-6.2-1.6-10.6-8.3-8.9-14.6.9-4.5,4.6-7.2,8.3-9.5Z"/>
  <path class="cls-21" d="M299.7,536.1l1.7,2.8c.4,2.8.3,5.7.1,8.5-.7.2-1.4.3-2.1.5-.3-3.8-1.9-8.5.3-11.8Z"/>
  <path class="cls-89" d="M623,545.3c4.7-.8,8.8,1.5,11.9,4.8,4.6,4.9,6.9,11.2,10.5,16.4,2.2,2.9,5.9,4.4,9,1.8,5-4.4,9.1-13.3,15.7-16.2,5.3-2.2,10.9.7,12.8,5.9,2.9,8.7.5,16.4-.8,25-.8,4.3,4.2,7.6,8,6.3,6.3-1.9,12-4.5,18.8-4.8,8.3-.7,17.8,3.3,22.2,10.6-.2,1.8.3,3.5-1.3,4.7-3.4,3-7.6,5.1-11.5,7.4-4.4,2.5-9.4,3.8-13.8,6.2-3.5,2-6.4,5.9-4.9,10.1,1.4,3.1,4.8,5.5,7.6,7.3,1.8,1,3.8,2.4,5.8,2.6,2.4,0,3.1-1.7,4.3-3.3,3.3,5.9,5.1,11,6.3,17.7,4,1.9,7.8,3.2,11.2,6.2-1.3,1.6-2.8,1.7-4.8,2.1-2.9.4-5.5,2.6-6.8,5.1-1,1.6,0,3.8.2,5.6-.5,1.7-.9,3.4-1.2,5.1-2.1,3.7-2.6,7.7-5,11.2-4.2,6.8-10,11.8-15.8,17.3-7.6,6.4-18.1,9.2-26.7,13.1-6.2-2.1-12.2-3.6-18.7-2-5.6,1-8.8,2.8-12.5,7.1-4.9-5.2-11.5-7.7-18.5-8-5.4,0-10.7,1.5-15.6,3.8-5.1-3.3-10.8-5.2-16.2-7.8-9.5-5.3-18.3-12.4-24.9-21-3.5-4.6-5.1-10-7.6-15.1-.2-1.3-.4-2.6-.6-3.9-.8-.2-1.6-.4-2.4-.6h2.5c0-2.4-.2-4.7-.4-7-3.3-1.7-6.5-3.5-9.7-5.4,2.8-3,7.1-3.7,9.9-6.4,1-2.3,1.3-4.9,2-7.3,1-4.4,2.8-8.3,4.5-12.5,2,.9,4.1,2.1,6.3,2,4.3-.1,8.3-3.9,10-7.7,1.4-3.3-1.4-7.1-4-8.8-4.8-3-10.2-5-14.9-8.1-4.8-3.1-10.2-5.9-13.4-10.7,2.4-6.2,8.2-9.4,14.3-11,7.1-1.8,14.8-.2,21.9,1.2,6.5,1.4,12.8,5.2,19.3,5,.5-.4.9-.8,1.4-1.2,1.9,4.1,6.5,4.6,10.5,4.3,2.4-.1,4.8-2.2,4.7-4.7.1-4.3-2.4-8.9-3.6-13.1-2.4-7.9-4.2-16.6-3.3-24.9,2.1-2.2,4-4.3,7.2-4.7Z"/>
  <path class="cls-47" d="M615.8,550c-.9,8.3.9,17,3.3,24.9,1.2,4.2,3.7,8.7,3.6,13.1.1,2.5-2.3,4.5-4.7,4.7-4,.2-8.6-.3-10.5-4.3,3.9-3.2,2.4-9.8,2.6-14.3.3-7.8,1.1-17.3,5.7-24Z"/>
  <path class="cls-63" d="M118,550.6c1.9-.3,3.4,2.7,4.4,4,5.9,9.8,13.4,18.4,22.1,25.8,5.8,4.3,11.8,7.9,18.4,10.7,7.1,3.9,14.8,5.3,22.3,8.1,13.1,2.6,27.1,3.6,40.3,1.3.6,1,1.2,1.9,1.8,2.9-1.1,6.3-.2,13.5,3.1,19.1,2.6,4.2,5.4,8.2,9.8,10.8-7.8,1.3-14,5.8-18.6,12.1-4.5-6.4-11.8-11.5-19.7-12.5-9.6-1.1-19.6,1.1-27.1,7.4-5.7-.2-9-3.7-13.9-5.9-5.9,5.6-10.9,11-18.8,13.8-3,.9-6.8,1-9.5-.9-2.2-1.4-3.4-3.4-4.8-5.6,1-3.6,3.1-7,3.5-10.7,0-4.4-4-7.1-7.7-8.8.2-3.4,2-9.5-.9-12.1-4.2-1.5-9.4.5-13.9,0-3.2,0-6.6-2.4-7.7-5.3-.7-3.9.4-7.8,2.1-11.3,2.3-4.8,5.1-9.5,8.5-13.5,1.6-2,3.5-4.3,3.4-7,.1-2.1-1.8-3.9-3.6-4.5-4-1-7.8-.8-11.6-2.7-2.7-1.2-4.9-3.1-5.9-6-1.1-2.6-.1-4.9,1-7.3,4,2.2,6.1,6.2,10.7,5.8,4.5-.6,8-5.6,12-7.7Z"/>
  <path class="cls-68" d="M882.2,551.2c.8-.3,1.6-.2,2.5.1,3.4,1.7,6.4,5.9,10.2,7,4.8.9,8.5-1.6,12.6-3.7,0-1-.2-1.9-.3-2.9.9,1.7,2.2,3.9,1.9,5.9-.8,3.7-3,7.4-6.8,8.6-3.7,1.6-7.5,1.6-11.3,2.7-3.2.9-4.2,4.8-2.5,7.5,3.9,6.6,10,13.7,12.7,21.3.9,3.4,1.4,7.4-1.5,9.9-3,3-7.8,2.5-11.7,2.3-2.4,0-5.6-.9-7.7.3-2.7,2.8-1.7,8.5-1.8,12.1-3.1,1.7-5.9,3.4-7,7.1-1,3.4,1.1,7.1,2.2,10.2-2.2,3.8-4.9,8.8-9.9,9-5.3,0-10.7-3.6-14.9-6.7-3.1-2.1-5.5-6-9-7.2-4.4,2-7.5,5.2-12.5,5.8-8.1-6.9-19.1-9.2-29.5-7.3-6.6,1.2-12.6,5.3-16.3,10.9-4.5-5.8-10.3-9.9-17.7-11-8-1.5-14.7,1-22.1,3.7-2.4-.6-4.5-3-6.8-4.2,3.8-2.4,6.8-6.4,9.6-10,5.8-8.2,6.9-18,5.2-27.7.4.9.8,1.9,1.2,2.8,8.1,1.1,17.3,4.3,25.8,3.8,10,0,19.5.6,29.5-1.4,9.2-1.9,18.4-4.3,27.3-7.6,8.2-3,15.5-7.3,22.7-12.2,7.1-5.5,13.5-11.9,18.8-19.2,2.4-3.2,4-7.3,7-10Z"/>
  <path class="cls-42" d="M351.2,566.8c3.7,5.9,3.6,14.5,3.1,21.2-.2,3.8-2.1,7.3-2,11,0,3.2,3.1,5.6,5.9,6.6,3.2.8,6.2-.9,8.6-2.9,3.3-2.8,4.7-7.6,5.4-11.7.5-1.8,0-4.1,2.4-4.6,6.5-2.3,13.7-3.5,20.6-2.6,5.1.8,9.6,3.4,12.3,8,.2,2.2,1.3,4.1-.7,5.8-4.9,4.9-11.4,8.1-17.2,11.8-4.1,2.6-10.4,4.9-12.6,9.5-2,3.7.9,7.6,4.2,9.1,3.4,1.9,6.5,1.2,10.2.8,3.8,4.6,5.9,10.7,7.3,16.4.4,1.4.5,2.6,1.8,3.4,3.4,2.1,7.2,3,10.2,5.9-3.5,1.7-7.2,3.4-10.1,5.9-3.1,6.6-2.3,16.1-6.8,22.2-4.8,6.8-10.4,13-16.9,18.1-4,3.1-8.9,5.5-13.5,7.6-4.5,2-9.5,4-14.4,4.3-6-.4-12.2.4-17.2,4.1-1.3.9-2.3,2.5-3.8,3.1-1.2-.4-2.1-1.9-3.2-2.6-5.4-3.9-12-5.3-18.6-4.6-6.2-.2-11.5-2.4-17.2-4.5-12.1-4.3-22.4-14.1-29.7-24.4-3.1-5.7-5.5-12.2-5.5-18.8-.2-1.6.2-3.4-1.2-4.5-3.3-2.9-7.9-4-11.5-6.6,3.1-3,7-4.1,10.7-6.2,1.8-.8,2.1-3.2,2.8-4.9,1.1-4,3.1-7.6,5.3-11.2,3-1.6,6.7-2.2,8.5-5.4,1-2.1.9-4-1.2-5.2-6.8-4.5-13.4-9.2-19.8-14.2-.9-.5-1.8-1-2.8-1.5,1.2-7,8.5-11.7,15.4-10.4,9.1,1.2,15.3,7.1,23.7,10.3,4.7,2.2,10.3-3.6,8.6-8.2-1.5-7.1-3.7-13.6-3-21,.2-4.5,2.4-9.2,6.9-10.8,3.2-1.4,6.9.3,9.3,2.4,4.4,4,7.3,9.9,10.4,14.5,1.3,1.9,3.7,4.1,6.2,2.9,3.5-1.2,4.5-4.9,6-7.9,2.2-4.8,5.5-10.1,10.1-12.8,4-2,10.6-2.1,13,2.5Z"/>
  <path class="cls-89" d="M427.3,591.1c-1.1,4.2-1.3,8.7-.6,12.9.7,3,2.9,5.2,5.4,6.8,6.2,3.9,13.1,6.4,20.4,7,9.2,1.6,18,.5,27.1-1.3,6-1.4,11.9-4,17.5-6.4,1.8-.7,3.9-1.5,5.9-1.5,2.9.4,5.8,1.7,8.4,3,3.4,1.5,5.5,5.2,8,7.9,4.3,4.8,7,10.3,10,15.9,2.3,4.2,3.8,8.7,5.6,13.2-3.3,4.8-6,9.6-4.3,15.6,1.4,3.6,4,7.6,7.8,8.8-3.7,4.7-7.2,10-8,16-.8,6,3.6,11.9,8.6,14.7-1.8,3.7-2.9,7.9-5,11.5-9.3,12.7-25.7,19.2-41.2,16.8-6.8-.5-12.9-3-19-6-4.9-2.7-9.3-6.8-13.5-10.4-1.6-1.2-3.3-2.6-5.3-1.4-4.5,2.8-7.2,6.8-12.7,8.1-3.2.6-6.9.7-10,0-3.9-1.5-7.7-5-8.4-9.3-.5-3.5-.7-6.9-1.4-10.3,4.1-2.7,8.4-7.4,7.9-12.7-.2-6.6-4.3-12.9-8-18.1,2.8-2.2,5.3-4.4,6.4-7.9,1.9-5.4-1.1-10.5-4.3-14.8-5-6.2-10.9-11.8-16.5-17.4,6.4-5.6,11.9-11.6,14.9-19.7,2.7-6.3,3-13,2.1-19.8.7-.4,1.3-.8,2-1.3Z"/>
  <path class="cls-49" d="M407.3,591.8c1.8,3.2,1.5,6.5,1.1,10-1.8,9.2-7.6,17.1-15.7,21.9-2.2,1.5-3.5,2.5-1.6,5.1-3.6.4-6.8,1.1-10.2-.8-3.3-1.6-6.2-5.4-4.2-9.1,2.2-4.5,8.5-6.8,12.6-9.5,5.8-3.7,12.3-7,17.2-11.8,2-1.7.9-3.6.7-5.8Z"/>
  <path class="cls-40" d="M550.6,594.3c3.2,4.8,8.7,7.6,13.4,10.7,4.8,3.1,10.2,5,14.9,8.1,2.6,1.8,5.5,5.6,4,8.8-1.7,3.8-5.7,7.6-10,7.7-2.2.1-4.3-1.2-6.3-2l.5-1.5c-3.2-4-7.4-6.7-10.6-10.7-4.7-6.1-7.7-13.3-6-21.1Z"/>
  <path class="cls-36" d="M731.2,595.2c2.8,5.5,1.9,12.5-1.3,17.7-2.9,5.3-7.4,8.3-11.9,12-2,1.7-1.7,3-.6,5.2-1.2,1.7-1.9,3.3-4.3,3.3-2.1-.2-4.1-1.6-5.8-2.6-2.8-1.8-6.2-4.2-7.6-7.3-1.5-4.2,1.4-8.1,4.9-10.1,4.5-2.4,9.4-3.7,13.8-6.2,3.9-2.3,8.1-4.4,11.5-7.4,1.7-1.2,1.1-2.9,1.3-4.7Z"/>
  <path class="cls-4" d="M244.5,605.3c.9.5,1.9,1,2.8,1.5,6.4,5,13,9.7,19.8,14.2,2.1,1.2,2.3,3.2,1.2,5.2-1.8,3.2-5.5,3.8-8.5,5.4l.6-1.6c-4.9-5-10.2-8.6-13.7-14.8-1.9-3.2-2.6-6.2-2.3-9.9Z"/>
  <path class="cls-42" d="M161,634.4c4.9,2.2,8.2,5.7,13.9,5.9-4,3.1-9.3,6.9-8.7,12.7.3,6.1,8.5,9.2,12.9,5.2,5.7-4.3,11.3-8.8,18.9-8.3,5.2.4,8.8,3.8,11.1,8.3-2.1,5.9-6.4,10-11.1,14-8.5,7.2-19.1,11.7-30.1,13.3-4.7.8-8.2-1.2-12.7-1.9-1.8-.4-3.4,1.2-5,2-.6,3.5-.3,4.8,1.4,7.8-1.2,2.6-2.1,4.9-.7,7.7,2.9,5.1,7.7,6.8,12.5,9.3,4.7,6.6,13.5,8.4,21,9.8,7.3,1,15.2,1,22.4-.8,3.5-.7,6.5-2.7,9.9-3.6,1.6,0,3.2,1,4.4,2,3.1,2.8,5.2,6.4,6.1,10.4.9,3.9,2.2,8,2.5,12,.2,2.8-2,4.5-3.9,6.1-3.8,3-8.4,4.5-13.1,5.1-6.6,1-13.1-.5-19.7-1.7-4.3-.8-8.2-3.6-12.5-4.1-3.8,0-5.3,3.6-6.9,6.3-2.5,5-5.9,9.4-10.5,12.5-2.1,1.3-4.9,2.3-7.4,2-3.2-.7-5.9-3.9-7.4-6.8-1.9-5.5-.3-12.4-1.2-18.1-.6-2.2-2.7-3.7-5-3-5.2,2.3-9.5,6.7-14.7,9.1-2.8.5-5.7.5-8.5,1,.9.8,1.8,1.6,2.7,2.3-4.7-2.1-9-6.4-8.5-11.9.9-10.6,7.3-19.3,11.1-28.5,1.6-3.8.8-8.1-2.8-10.3-2.7-.6-5.6-.2-8.3-.8-3.2-1.2-5.6-3.8-4.9-7.5,1-5.8,4.7-11.1,6.9-16.5,5.2-10.9,8.9-22.3,12.4-33.8,1.4,2.1,2.5,4.2,4.8,5.6,2.7,1.9,6.5,1.8,9.5.9,7.9-2.8,12.9-8.2,18.8-13.8Z"/>
  <path class="cls-28" d="M593.5,635.6c3.8-1.7,8.3-1.3,11.6,1.3,5.6,4.1,7.6,12.5,3,18.2-4.8,6.8-16.2,6.5-20.4-.8-4.1-6.6-1.3-15.6,5.7-18.7Z"/>
  <path class="cls-1" d="M682.4,635.5c5.9-2.6,12.3.4,15.4,5.8,3.2,5.2,2,12.7-3.4,16-4.1,2.8-10.2,3.8-14.4.7-7.5-5.2-6.4-19.2,2.4-22.5Z"/>
  <path class="cls-42" d="M840,634.8c3.5,1.2,5.9,5.1,9,7.2,4.1,3,9.6,6.6,14.9,6.7,5-.1,7.7-5.2,9.9-9,3.7,10.5,6.8,21,11.4,31.2,2.9,6.8,7.3,14,8.9,21.2.8,2.8-.9,5.2-3.3,6.5-3,2-7.4.6-10.7,1.5-2.3,1.2-4.2,4.2-3.5,6.9.9,3.4,3,6.7,4.7,9.8,3.9,6.8,7.1,14.5,8.2,22.2.5,3.7-1.4,6.5-3.6,9.3-3.1.3-5.8.8-8.8-.3-5.5-2-10.1-7.2-15.3-9.7-2.2-1.1-5.5.1-6,2.7-1.1,4.9,0,10.1-1,15-.5,2.9-1.7,6.7-4.3,8.4-3.2,1.9-7.3,2.9-10.7.8-2.6-1.6-4.7-3.9-6.7-6.2-3-3.5-4-7.8-6.5-11.6-1.7-2.5-4.7-3.7-7.6-2.4-4.4,1.7-8.8,3.6-13.4,4.7-7.9,2.3-15.5,2-23.7,2-3.5,0-6.4-1.8-10-2.8-4.1-1.1-7.9-4-11.4-6.5-3.7-3-7.7-7.3-7.8-12.3-.3-3.8,2.1-7.2,5.2-9,4.4-1.3,9.5-.5,13.9-2.2,3.1-1.1,5.8-3.7,9-4.5,3.6.8,6.8,3.1,10.2,4.3,8.7,3.2,18.8,5.1,27.9,3.1,7.5-1.4,15.3-4.2,20.5-10,.5-.9.9-1.9,1.3-2.9,5.3-2.6,9.1-5.9,10.5-11.9-.7-1.3-1.4-2.5-2.1-3.8.9-1.6,2.5-3.3,2.8-5.2-.7-2.5-2.4-4.8-5.2-4.8-4.5.2-8.3,2.4-13,1.9-12.6-.8-24.5-8-33.6-16.5-2.5-3-6.6-5.7-7.6-9.5,2.3-6.8,9.2-10.6,16.2-8.8,6.3,1.5,9.5,5.9,14.8,9,5.8,3.8,14-4,11.1-10.1-1.5-3.3-4.8-6.1-7.4-8.5,5-.6,8.2-3.9,12.5-5.8Z"/>
  <path class="cls-2" d="M633.9,642.3c3.6.3,4.4,6.3,7.1,7.8,1.8.6,3.5-.3,5.2-.8,1.2-2.5,2.5-4.8,4.2-7,3.2,0,5.8-.6,8.1,2.1,4.4,4.9,1.3,12.1-3.7,15.1-5.8,3.3-13.3,5.2-19.8,2.4-5-1.9-10.2-6.2-9.8-12.1-.3-4.7,3.9-8.7,8.6-7.7Z"/>
  <path class="cls-33" d="M367,649.1c5.7-1.1,11.6.3,14.8,5.5-1.2,2-2.2,4.7-4.5,5.6-2,.5-4.1.6-6.2.9-2.7.3-5.3.6-7.6,2.3-2.6,1.5-4.4,3.6-7.5,1.7-3.4-2-2.8-6.1-1-9,2.8-4.1,7.2-6,12-6.9Z"/>
  <path class="cls-37" d="M279.9,649.6c7.2-1.3,16.2.4,20.6,6.8,2.7,2.9-.3,10.1-4.6,9.1-4.5-1.3-7.5-4.5-12.4-4.6-4.1-.2-7.9-.8-9.8-4.9.6-3.3,2.8-5.7,6.1-6.4Z"/>
  <path class="cls-97" d="M759,649.7c4.9.2,8.5,3.2,11.3,7,0,1.8.1,3.6.2,5.4-4.5,5.5-8.8,10.7-15,14.4-2.2,1.4-5.3,1.4-7.8,1.8-.8-1.9-1.9-3.7-3.1-5.4,3.3-2.7,6.7-6,8.5-10,.6-3.7-.8-7.9-1.7-11.5,2-1.7,5.1-1.9,7.6-1.8Z"/>
  <path class="cls-45" d="M323.2,654.7c.5,1.9,1,3.8,1.5,5.7,1.9,0,3.8.1,5.8.1.8-2,1.2-4.9,2.7-6.5,2.3-1.4,6-1.3,7.8.9,3.5,3.7,3,9.2,0,13-6.1,7.8-18.5,8.3-25.7,1.8-3.3-3.5-5.2-9.3-2-13.5,2.4-3.2,6.5-3.5,9.9-1.6Z"/>
  <path class="cls-72" d="M241,653.9c3.6,2.6,8.2,3.7,11.5,6.6,1.4,1.1,1,2.9,1.2,4.5,0,6.5,2.4,13.1,5.5,18.8,7.3,10.3,17.6,20.1,29.7,24.4,5.7,2.2,11,4.3,17.2,4.5-7.2,1.3-13.3,5-18.6,10-2.7,2.6-4,5.9-5.3,9.3-2.6,3.1-5.6,6.1-9,8.4-2.7,2-6.3,1.5-9.5,1.7,2.1-5.5,4.7-10.6,7.3-15.8,2.1-3.7-2-9-6.1-7.5-2.4.4-5.2,1.9-7.4.8-3.5-2.5-3.9-6.4-3.3-10.3.6-4,4.5-7,4.9-11-.6-2.4-2.9-4.3-5.3-4.8-2.8-.5-5.9,0-8.7-.7-2-.8-3.6-2.7-4.7-4.4,0-2.8,2.2-5.7,3.8-7.9,2.6-3.7,6.8-5.6,9.5-9.1,0-1.7.3-4.6-1.9-4.9-4.5-1.3-8.6-1.2-11.8-5.3-2-2.5-.6-4.9,1-7.1Z"/>
  <path class="cls-25" d="M550.2,653.7c3.2,1.9,6.5,3.6,9.7,5.4.2,2.3.4,4.6.4,7h-2.5c-4.1-.9-8.2-1.5-10.2-5.8-1.2-2.9.6-4.7,2.5-6.5Z"/>
  <path class="cls-55" d="M734.8,654c2.2,2.6,2.3,5.3.2,8.1-2.9,3.9-7.3,3.9-11.6,4.7-.2-1.8-1.2-4-.2-5.6,1.4-2.5,3.9-4.7,6.8-5.1,1.9-.4,3.4-.5,4.8-2.1Z"/>
  <path class="cls-9" d="M381.8,654.6c.9.3,1.7.7,2.6,1,3.2,1.1,5.8,3.8,7.2,6.8.8,4.6-1.6,9.5-5.9,11.4-4.6,2.6-11.5,1.5-14.8-2.7-2.3-3.4-1-6.4.1-9.9,2.1-.3,4.2-.4,6.2-.9,2.3-.9,3.3-3.6,4.5-5.6Z"/>
  <path class="cls-15" d="M410.6,654.5c2,1.6,3,4.2,1.5,6.5-2.7,3.4-6.5,4-10,6-1.8,1.2-1.1,3.4,0,4.9,3.9,4.6,9.6,7.9,11.8,13.8,1.2,2.4-.9,4.4-2.7,5.5-3.5,1.9-8.4,1.3-12.3,1.5-1.3,1.7-2.9,2.9-2.9,5.2-.3,2.6,2.6,5,3.8,7.1,2.1,2.9,2.4,6.4,1.8,9.9-.6,2.4-3.2,4.4-5.6,4.5-2.9-.3-6-1.8-8.9-.3-2.8,2-3.4,5.5-1.8,8.5,5.6,11.7,12,23,14.6,36.2.7,3-.7,5.6-3.1,7.2-2.2,1-5.6-.3-7.7,1.1-2.4,1.7-4.4,4.7-2.9,7.6,2.4,5.1,7.4,10.5,8.9,16.2.8,3.4-.3,7-3.4,8.9-2.2,1.5-5.6.1-8.1.9-1.6.9-3,2.5-3.5,4.3.6,4.2,2.3,7.6,2,12-.5,6.8-1.8,14.4-7.3,18.9-4.9,3.5-12.1,4.2-17.9,3.6-5-.5-9.9-2.9-11.4-8-1.2-3.4-.5-7.8-2.3-10.8-3-3-7.6-1.1-11.2-.5-5.4,1.3-9.9-1-15.1-.7-3,.8-3.6,4-4.2,6.6-.9,4.2-1.3,8.7-5.5,11-5.2,2.9-12.2,3.3-17.9,2.2-6.2-1.1-11.6-6.1-13.1-12.2-1-3.9-1.2-8.1-.9-12.1.2-3.2,1.5-6,1.9-9.1-.1-1.7-1.5-3.2-2.4-4.6-1-.2-1.9-.4-2.9-.5.5-.3,1-.6,1.5-1-.5-.6-.9-1.2-1.4-1.8.5-.4,1.1-.8,1.6-1.1.8,1,1.7,2,2.5,3,.1-.5.2-1,.4-1.5,1.2-.3,2.4-.6,3.6-1,0,2.2-.7,5.5,1.3,7.1,2.4,2.3,6.1,1.1,8.2-.9,1.6-1.1,3.4-3.7,5.3-3.9,3.5,1.8,6.4,4.5,10.1,6.1,9.9,4.4,20.4,4.3,31,3.3,9.1-1.5,17.8-3.7,25.2-9.3,2.3,2,4.6,5.5,7.7,6.1,2.4.5,5.6.4,7.1-1.9,2.2-3.1,1-7,2.5-10.6,2.4-5.2.9-12.1-.8-17.3-6.9,4.5-14.5,7-22.8,6.7-8.6.4-17-3-23.8-8.1-1.3-.9-2.7-2-4.2-2.4-2.8.9-5.2,2.7-8.1,3.5-6.1,1.7-12.6,2.2-18.9,1.7-4.7-.3-7.7-3.7-11.2-6.5,13.9,5.2,30.8-2.8,38.9-14.5,6.6,10,19.2,17,31.3,15.8,5-.8,10.9-2,13.5-6.9,1.4-3-.9-4.7-2.3-7-3.8-.3-7.5.3-11.2.2-7.7-.7-14.5-5.8-18.5-12.2-2.8-4.6-4.7-9.7-3.2-15.1,2.9,3.4,4.9,7.5,8.2,10.2,4.5,3.8,9.9,6.5,15.4,8.6,4.4,1.7,9.8,2.4,14.4,1.1,4.6-2.6,8.5-8.3,7.2-13.8-1.2-4.1-4-7.9-6.8-11.1-.5.6-1,1.1-1.5,1.7-.3-3.6-1.3-5.8-3.6-8.5-5.4-6.5-13.1-10.9-21.6-11.9,5-.2,9.9-2.3,14.4-4.3,4.6-2.1,9.5-4.5,13.5-7.6,6.5-5.2,12.2-11.3,16.9-18.1,4.4-6.1,3.7-15.6,6.8-22.2,2.9-2.5,6.7-4.2,10.1-5.9Z"/>
  <path class="cls-11" d="M581.3,655.4c4.7-.4,8.3,2.8,10.8,6.4,1,2.5.2,6.1-.9,8.5-2.5,3.5-7.4,3.7-11.3,3.3-4.3-.3-7.8-4.4-7.8-8.6-.5-5.1,4.4-9.4,9.2-9.6Z"/>
  <path class="cls-26" d="M273.8,656c1.9,4.1,5.7,4.7,9.8,4.9.6,3.1,2,7.2.4,10.1-1.8,2.8-5.9,4-9,4.2-5,.2-11.2-3.6-11.2-9.1-.3-5.7,4.4-10.1,10-10Z"/>
  <path class="cls-82" d="M699.4,656.5c2.7-1.5,7.5-1.4,10.2,0,3.1,2.3,4.8,6.7,3.6,10.4-1,5.1-7.6,8.4-12.4,6.8-2.8-.8-6.4-1.9-7.1-5.2-.4-2.5-.8-5.5,0-7.9,1.6-1.7,3.6-3.1,5.7-4.2Z"/>
  <path class="cls-65" d="M770.3,656.7c1.6,3.9,1.8,8.6,1.2,12.7-1.6,7.8-7.5,14.7-13.7,19.5-1.7-.9-3.2-1.4-5.1-1.7-.5-1-1.1-2-1.6-3-.2,3-.7,5.8.7,8.6-.8.6-1.6,1.3-2.4,2,.8-5.6,1-11.1-1.6-16.4,2.5-.4,5.6-.5,7.8-1.8,6.2-3.8,10.5-8.9,15-14.4,0-1.8-.1-3.6-.2-5.4Z"/>
  <path class="cls-73" d="M209.2,658.1c1.9,7.4-.2,14.6-4.1,21-4.9,8.1-13.7,14.2-23.1,15.5-6.9,1.3-14.2,0-20.6-2.5-1.7-.6-3.7-1.4-5.5-1.3-1.6.4-2.8,1.4-4.1,2.4-1.7-3-2-4.3-1.4-7.8,1.5-.8,3.2-2.4,5-2,4.4.8,8,2.7,12.7,1.9,11-1.6,21.6-6.1,30.1-13.3,4.7-4,8.9-8.1,11.1-14Z"/>
  <path class="cls-48" d="M792.8,659.1c1,3.8,5.1,6.6,7.6,9.5,9.1,8.4,21,15.6,33.6,16.5,4.7.5,8.5-1.7,13-1.9,2.8,0,4.5,2.3,5.2,4.8-.3,1.9-1.8,3.6-2.8,5.2-.3-.5-.7-1.1-1-1.6-5.9-1.9-9.6,1.7-15.4,2.6-9.2,2.3-19.3.5-27-5.1-5.2-3.9-9.3-9.3-12-15.1-2.2-4.6-2.4-9.9-1.2-14.8Z"/>
  <path class="cls-13" d="M227.6,669.1c2.2.6,5.3,6,2.4,7.3-1.7-1.9-2.1-4.9-2.4-7.3Z"/>
  <path class="cls-79" d="M560.8,670.6c2.5,5.1,4.1,10.4,7.6,15.1,6.6,8.6,15.4,15.8,24.9,21,5.4,2.6,11.1,4.5,16.2,7.8-6,3.5-11.4,7.9-15,13.9-1.2,2.4-1.4,4.9-.6,7.4-.5-.5-1.1-1-1.6-1.6-3.9,3.6-6.7,7.6-12,9.1-1.7.6-3.1.1-4.8-.2,2-5,4-10,5.8-15.1,1.2-3.7,0-7.9-3.6-9.5-4.3-1.7-8,3-12.5.4-3.6-1.7-3.9-5.4-3.6-9,.4-3.7,2.6-6.1,4-9.4,1.2-3.1-.5-6.5-3.6-7.5-4-.9-8.3.4-12-1.9-2.2-1.2-2.5-3.9-1.6-6,2.7-6.3,7.8-10.1,12.6-14.6Z"/>
  <path class="cls-60" d="M722.2,671.9c2.5,1.9,4.9,3.9,7.1,6.3-.2,3.6,1.6,6.2,2.6,9.8-2.7,2.9-6.2,3.5-9.4,5.4-2.8,1-5,2.3-4.8,5.7,1.2,3.6,4.3,6.2,5.4,10,1.1,3.7-.3,8.6-4,10.4-3.2.9-6.9-1.3-10.1-.5-2.2.6-4.4,4-4.1,6.2,1,4.3,3.7,8.1,5.3,12.2-2.6,2.8-5,7.4-9.2,7.9-6.6,1-13.1-1.4-18.1-5.7,5.3.9,11.7-4.2,9.5-9.9-3.1-7.2-10.8-12.7-17.7-16,8.6-3.9,19.1-6.7,26.7-13.1,5.8-5.4,11.6-10.5,15.8-17.3,2.4-3.5,2.9-7.6,5-11.2Z"/>
  <path class="cls-18" d="M729.3,678.2c2.5,2.6,4.9,6.2,5.2,9.9.1.9-.2,1.8-.9,2.6-2.8,3-7.3,2.8-11.1,2.8,3.3-2,6.8-2.5,9.4-5.4-1-3.5-2.8-6.2-2.6-9.8Z"/>
  <path class="cls-90" d="M751.1,684.2c.5,1,1,2,1.6,3,1.9.3,3.4.8,5.1,1.7-2,1.3-4,2.5-6,3.9-1.4-2.8-.9-5.6-.7-8.6Z"/>
  <path class="cls-68" d="M220.9,685.5h.2c0,0,.3-.2.3-.2,2,5,3,10.6,6.5,14.7,3,3.9,7.1,5.5,11.5,7.5-.2,5.6-.7,11.1,1.9,16.3,2.3,4.1,5.2,7.9,10.3,8.1-4.3,9-8.7,17.4-11.3,27.2-1.1,4.5-1.6,9.4-.8,13.9,1.3,5.8,6.6,10.6,12.4,11.8-4.2,6.3-5.4,13.9-4.2,21.3.9,4.1,3.5,7.3,6.8,9.7-.9.7-1.7,1.3-2.6,1.9-2.9,0-5.7-.5-8.5.3-3.9-1.4-7.9-4-9.7-7.8-1.9-4-1.3-9.1-2.7-13.2-2.2-3.9-5.6-2.3-9.2-1.9-3.2-1.7-6.2-1-9.7-1.1-3.4,0-6.5-.5-9.7,1-3-.4-6.9-1.4-9.8-.3-3.7,2.7-2.7,9.5-4.5,13.4-2.1,5.8-7.6,8.3-13,10-8,2.1-17.7,1.2-24.5-3.7-6-4.3-9.1-10.8-10.9-17.7-3-11.9-3.5-23.6-3.2-35.8-.1-2.5.5-5-1.8-6.6-3.7-2.1-8.8-1.8-12.6-3.5-.9-.8-1.8-1.5-2.7-2.3,2.8-.5,5.7-.6,8.5-1,5.2-2.5,9.4-6.8,14.7-9.1,2.2-.7,4.4.8,5,3,1,5.7-.6,12.5,1.2,18.1,1.4,2.9,4.1,6,7.4,6.8,2.5.3,5.2-.7,7.4-2,4.7-3.1,8.1-7.5,10.5-12.5,1.6-2.8,3.1-6.3,6.9-6.3,4.3.5,8.2,3.3,12.5,4.1,6.6,1.2,13.1,2.7,19.7,1.7,4.8-.6,9.3-2.1,13.1-5.1,1.9-1.6,4.1-3.3,3.9-6.1-.2-4-1.5-8.1-2.5-12-.9-4-3.1-7.7-6.1-10.4-1.2-1-2.8-2.1-4.4-2-3.4.9-6.4,2.9-9.9,3.6-7.2,1.7-15.1,1.8-22.4.8-7.5-1.4-16.3-3.1-21-9.8,5.1,1.2,10.1,2.1,15.4,2.1,8.3.2,16.4-2.6,23.6-6.6,8-4.8,14.7-11.5,18.2-20.2Z"/>
  <path class="cls-68" d="M781.1,687.2c3.8,4.7,6.5,9.6,11,13.8,13.1,11.8,32.8,14.9,48.9,7.9-.3,1-.8,2-1.3,2.9-5.2,5.9-13,8.7-20.5,10-9.2,2-19.2,0-27.9-3.1-3.5-1.2-6.7-3.5-10.2-4.3-3.2.8-5.9,3.4-9,4.5-4.4,1.7-9.5.9-13.9,2.2-3.2,1.8-5.6,5.2-5.2,9,0,5,4.1,9.3,7.8,12.3,3.5,2.5,7.2,5.4,11.4,6.5,3.6,1,6.4,2.9,10,2.8,8.1,0,15.8.3,23.7-2,4.6-1.1,9-3,13.4-4.7,2.8-1.2,5.9,0,7.6,2.4,2.5,3.7,3.5,8,6.5,11.6,2,2.3,4.1,4.6,6.7,6.2,3.4,2,7.5,1.1,10.7-.8,2.6-1.7,3.8-5.5,4.3-8.4,1-4.9-.1-10.2,1-15,.5-2.6,3.8-3.8,6-2.7,5.2,2.5,9.8,7.7,15.3,9.7,3,1.2,5.8.6,8.8.3-3,2-6.3,3.6-10,4.1-2.8.5-5.2,0-7.2,2.5-2.8,3.6-1.5,8-1.8,12.2-.5,11.7-.7,24.1-4.9,35.1-2.7,7.4-8.2,13.7-16,15.8-6.1,1.5-13,1.9-19.1,0-4.5-1.7-9.9-4.4-11.8-9.2-1.7-3.9-1-8.5-2.6-12.4-2-3.2-5.4-2.2-8.5-1.7-8.4,2-16.7,2.1-25.2.5-2.3-.3-5.2-1.2-6.8,1-3.2,4.6-1.6,10.9-5.3,15.7-4.8,6.3-13.5,7.7-21,8.1-8.3.5-15.4-1.2-22.6-5.4,4.7-4.8,6.6-12.1,5.3-18.7-.5-4.3-2.7-7.7-3.8-11.8,3.2-1.2,6-2.3,8.1-5.2,3.9-4.6,4.3-10.2,3.5-16-1.8-11.2-6.1-20.9-11-31.1,3.2-1.3,6.2-2.1,8.4-5,3.3-3.9,4.2-8.6,4.7-13.6,10.4-.5,21.5-3.5,29.9-9.9,5.5-4.5,10.3-9.3,12.7-16.2Z"/>
  <path class="cls-68" d="M422.7,702.7c.7,3.4.9,6.9,1.4,10.3.6,4.3,4.4,7.8,8.4,9.3,3.1.6,6.9.6,10,0,5.5-1.4,8.2-5.4,12.7-8.1,2-1.2,3.7.2,5.3,1.4,4.2,3.6,8.6,7.7,13.5,10.4,6,3,12.2,5.5,19,6,15.5,2.4,31.9-4.1,41.2-16.8,2.2-3.5,3.2-7.7,5-11.5,2.4,1.2,4.9,2.2,7.5,3.1,0,5-.5,10.3,1.5,14.9,2.7,6.1,8.3,10.8,15.3,10.3-6.1,12.1-12.2,23-13,37-.3,6.9,4.8,13.9,11.5,15.6-1.2,1.8-2.3,3.6-2.9,5.6-1.7,5.9-2.8,12-.1,17.8,2.4,4.7,6.8,8.5,11.7,10.5,0,4.7.3,9.3.7,13.9-8.2.6-16.5.4-24.6-.8-6.9-1.2-13.3-4.2-17.5-10-3.9-5.3-4.4-11.3-4.6-17.6,0-3.2,0-5.9-2.8-8.1-3.1-1.8-7.6-.3-11,0-6.1,1.1-11.9.3-18-.5-2.4-.2-5.5-.8-7.1,1.4-2.2,2.2-1.7,5.4-2,8.3-.4,7.1-2.1,15-7.9,19.8-7,6.3-16.9,7.4-26,7.7-10.5.4-20.6,0-29.6-6-4.6-3.1-10-8-11.2-13.7.5-3,1.8-5.8,2-8.9.8-6.7-1.3-13.9-4.1-20,7.2-2.8,10.9-10.6,10.1-18.1-1.6-12.4-6.4-23.3-12.4-34.1,6.1-2.1,10.6-7.6,11.7-13.9.5-3.9,0-8.1-.4-12,2.3-1,4.5-2.1,6.7-3.4Z"/>
  <path class="cls-87" d="M625,710.7c7,.3,13.6,2.8,18.5,8,3.7-4.3,6.9-6.1,12.5-7.1,6.5-1.7,12.6-.1,18.7,2,6.9,3.3,14.6,8.8,17.7,16,2.3,5.7-4.2,10.8-9.5,9.9-5.6-4.1-8.3-10.1-15.4-11.8-5.8-1.6-12.1.9-14.3,6.7-2.1,5.8-1.4,13,2.5,18,3.9,5.3,9.8,9.7,16.3,11.2,5.2,1.2,9.7-1,14.7-.4,2,1.2,2.7,3,3.7,5-1.1,3.1-2.8,5.2-5.1,7.4-6.4,2.7-13.3,3.8-20.1,1.8-9.4-2.3-17.1-7.5-23.4-14.7-5,7.1-12.4,12.2-20.9,14.1-7.2,2-14.7,2.1-21.6-1-2.7-1.2-4-3.3-5.8-5.5,0-1.1.1-2.1.2-3.2l.8-1.6c1-.8,1.9-2,3.3-1.8,4.8.1,9.3.8,14-.2,8.2-1.5,15.6-6.4,19.4-13.9,2.2-4.6,3.5-10.1,1.4-14.9-1.2-2.6-2.4-5-5.2-6.2-5.8-2.5-12.1-.4-16.8,3.4-3.2,2.4-5.8,6.8-9.7,7.8-3,.7-5.4-1.8-7.3-3.6-.7-2.6-.5-5,.6-7.4,3.7-6,9-10.4,15-13.9,4.9-2.3,10.1-3.7,15.6-3.8Z"/>
  <path class="cls-12" d="M306.1,712.6c6.6-.7,13.2.8,18.6,4.6,1.1.7,2,2.2,3.2,2.6,1.4-.6,2.5-2.2,3.8-3.1,4.9-3.6,11.2-4.5,17.2-4.1,8.5.9,16.2,5.3,21.6,11.9,2.4,2.7,3.3,4.9,3.6,8.5-1.9,3.6-4.8,6.6-9.2,6.2-3.8-1.9-6.3-6-9.8-8.4-3.3-2.6-7.6-3.1-11.7-2.2-3.7,1.2-5.3,4.3-6.2,7.8-1.5,5.4.4,10.5,3.2,15.1,4,6.4,10.8,11.5,18.5,12.2,3.8,0,7.5-.5,11.2-.2,1.5,2.3,3.7,4,2.3,7-2.6,4.9-8.5,6.1-13.5,6.9-12.1,1.2-24.7-5.8-31.3-15.8-8.1,11.8-25,19.7-38.9,14.5-2.1-1.7-4.2-3.2-4.6-6.1-.4-2.3.7-3.8,2-5.5,3.7-2,8.8,0,12.9-1.4,7-2.2,14-6.8,17.2-13.7,2.4-4.8,3.3-11.5.7-16.4-1.6-1.8-3.2-3.7-5.6-4.4-3.3-.8-6.8-.5-9.8,1.2-3,1.7-4.9,4.4-7.4,6.7-1.5,1.4-3.6,2.2-5.5,3-3.3-1.4-7.6-3.2-6.7-7.6,1.3-3.4,2.7-6.7,5.3-9.3,5.3-5,11.4-8.7,18.6-10Z"/>
  <path class="cls-42" d="M627.6,728.3c2.8,1.2,4,3.5,5.2,6.2-2.8,4.8-5,9.3-9.5,12.8-4.1,3.1-8.7,5.5-13.2,7.8-5.1,2.6-11,1.1-16.2,2.8-1.3.6-1.7,1.9-2,3.2.3,1.6,1.9,3,2.8,4.3l-.8,1.6c-1.5,3-3,5.6-2.2,9.1.6,4.6,4.3,7.3,8.3,9.1,11.1,4,22.4,2,33-2.4,3.6-1.5,6.1-4,9.1-6.4,5.2,5.6,11.9,7.3,19.1,8.9,5.4.9,11.4-1,16.4-2.9,3.6-1.3,5.6-4,7.9-6.9,2.4-2.2,4-4.3,5.1-7.4-1-2-1.7-3.8-3.7-5,1.1-.7,2.3-1.3,3.3-2.2.8-1,.6-2.6.9-3.7-3.6-.5-7.1.3-10.6-.5-9.6-2.6-18.3-7.6-24.2-15.7-1.2-2.1-2.1-4.4-2.9-6.6,2.2-5.8,8.5-8.3,14.3-6.7,7.1,1.7,9.8,7.7,15.4,11.8,5,4.3,11.5,6.7,18.1,5.7,4.2-.5,6.5-5,9.2-7.9,3.4,7.3,6.3,15,8.5,22.8.8,3.5,2,6.9-.9,9.7-2.9,3.8-7.6.6-11.2,3-2.2,2.2-3,5.5-1.6,8.4,2.7,5.1,7.3,11,7.8,16.9.2,2.9-.6,4.5-2.6,6.4-4.4.8-6.1,0-9.2-2.8-1.5-1.4-3.2-2.4-5-3.4-1.5,3.5-1.6,9.7-6,10.7-3.4,1.6-6.2-3.5-8.7-5.1-1.2-1.2-2.5.3-3.5,1-3.8,3.3-8.3,5.2-13,6.9-12.3,4.1-26.1,4.2-38.4,0-4.6-1.7-8.8-4.8-13.2-7.1-2.2,2.5-4.2,5.6-7,7.5-3.8,2.2-8.3,1-10.9-2.4-3.1-3.6-2.4-7.5-4.3-11.7-4.7,2.5-7.6,6.1-13.1,6.7-2.5-1.5-3.9-3.8-3.7-6.8,0-6.6,4.2-11.4,7.2-16.7,1.8-3.1,1.3-6.7-1.5-9-2.9-1.6-7.5.2-9.9-2-2.4-1.9-1.8-5.5-1.4-8.1,1.6-6.5,4.4-12.7,6.9-18.9,1.7.3,3.1.8,4.8.2,5.3-1.4,8.1-5.5,12-9.1.5.5,1,1.1,1.6,1.6,1.9,1.9,4.3,4.3,7.3,3.6,3.9-1,6.5-5.4,9.7-7.8,4.7-3.8,11-5.9,16.8-3.4Z"/>
  <path class="cls-42" d="M311.5,728.6c2.4.7,4,2.6,5.6,4.4.1,1.7.3,3.3.5,5-3,4.4-5.3,9.9-9.9,12.6-3.4,2-7,3.8-10.8,5-3.9,1.2-8.6.2-12.2,2.1-2.3,2.5,0,4.8,1.6,6.8-1.3,1.8-2.5,3.2-2,5.5.3,3,2.4,4.4,4.6,6.1,3.4,2.8,6.5,6.1,11.2,6.5,6.3.4,12.8,0,18.9-1.7,2.9-.8,5.3-2.6,8.1-3.5,1.5.4,2.9,1.5,4.2,2.4,6.8,5.1,15.2,8.5,23.8,8.1,8.3.2,15.9-2.3,22.8-6.7,1.7,5.2,3.1,12.1.8,17.3-1.5,3.6-.3,7.6-2.5,10.6-1.5,2.4-4.6,2.5-7.1,1.9-3.1-.6-5.4-4.1-7.7-6.1-7.5,5.7-16.1,7.9-25.2,9.3-10.6,1-21.1,1-31-3.3-3.7-1.5-6.6-4.3-10.1-6.1-1.9.2-3.7,2.8-5.3,3.9-2.2,2-5.9,3.2-8.2.9-2-1.6-1.4-4.9-1.3-7.1.1-1.5.3-3,.4-4.4-2.5.9-4.8,2.3-6.9,3.9-.5.4-1.1.8-1.6,1.1.5.6.9,1.2,1.4,1.8-.5.3-1,.6-1.5,1-3.6-.7-8.4-1.2-9-5.8-.3-6.6,4.6-13.7,7.7-19.2,1.6-2.7.2-6.4-2.1-8.2-3.1-2-8.2.8-10.7-2.4-2.6-2-1.6-6.2-1.1-9,1.8-6.6,4.4-13,7.1-19.3,3.2-.2,6.8.3,9.5-1.7,3.4-2.3,6.3-5.3,9-8.4-.9,4.4,3.4,6.2,6.7,7.6,1.8-.9,4-1.7,5.5-3,2.5-2.3,4.3-5,7.4-6.7,2.9-1.7,6.5-2,9.8-1.2Z"/>
  <path class="cls-20" d="M343.5,728.6c4-.9,8.3-.4,11.7,2.2,3.5,2.4,6,6.5,9.8,8.4,4.4.5,7.3-2.5,9.2-6.2.5-.6,1-1.2,1.5-1.7,2.8,3.2,5.6,7,6.8,11.1,1.4,5.5-2.5,11.2-7.2,13.8-4.6,1.3-10,.6-14.4-1.1-5.5-2.1-10.9-4.8-15.4-8.6-3.3-2.7-5.3-6.8-8.2-10.2.9-3.5,2.5-6.6,6.2-7.8Z"/>
  <path class="cls-61" d="M317.1,733c2.6,4.9,1.7,11.6-.7,16.4-3.2,6.9-10.2,11.5-17.2,13.7-4.1,1.4-9.1-.6-12.9,1.4-1.6-2-3.9-4.3-1.6-6.8,3.6-1.8,8.3-.9,12.2-2.1,3.8-1.1,7.4-3,10.8-5,4.6-2.7,6.9-8.2,9.9-12.6-.2-1.7-.3-3.3-.5-5Z"/>
  <path class="cls-70" d="M632.7,734.5c2.2,4.9.8,10.3-1.4,14.9-3.8,7.6-11.2,12.4-19.4,13.9-4.8,1-9.3.3-14,.2-1.4-.2-2.3,1-3.3,1.8-.9-1.3-2.5-2.7-2.8-4.3.3-1.3.7-2.6,2-3.2,5.2-1.7,11.1-.2,16.2-2.8,4.5-2.3,9.1-4.7,13.2-7.8,4.5-3.5,6.7-8,9.5-12.8Z"/>
  <path class="cls-29" d="M653.2,734.3c.8,2.2,1.7,4.6,2.9,6.6,5.9,8.1,14.6,13.1,24.2,15.7,3.5.9,7,0,10.6.5-.3,1.2-.1,2.8-.9,3.7-1,.8-2.2,1.5-3.3,2.2-5.1-.6-9.6,1.6-14.7.4-6.5-1.5-12.4-5.9-16.3-11.2-3.9-4.9-4.6-12.2-2.5-18Z"/>
  <path class="cls-6" d="M641.8,762.6c6.2,7.2,14,12.5,23.4,14.7,6.8,2,13.6.8,20.1-1.8-2.3,2.9-4.3,5.6-7.9,6.9-5,1.9-11,3.8-16.4,2.9-7.2-1.6-13.9-3.3-19.1-8.9-3,2.4-5.5,4.8-9.1,6.4-10.6,4.4-21.9,6.4-33,2.4-3.9-1.8-7.7-4.5-8.3-9.1-.8-3.5.7-6.1,2.2-9.1,0,1.1-.2,2.1-.2,3.2,1.8,2.2,3.1,4.3,5.8,5.5,6.9,3.1,14.4,3,21.6,1,8.5-1.9,15.9-7,20.9-14.1Z"/>
  <path class="cls-10" d="M212,794c3.5.1,6.5-.5,9.7,1.1-6.3,1.1-13.1.9-19.4,0,3.2-1.6,6.3-1,9.7-1Z"/>
  <path class="cls-56" d="M280.6,798.1c-.1,1.5-.3,3-.4,4.4-1.2.3-2.4.6-3.6,1-.1.5-.3,1-.4,1.5-.8-1-1.7-2-2.5-3,2.2-1.6,4.4-3,6.9-3.9Z"/>
  <path class="cls-24" d="M590.9,798.1c1.9,4.2,1.2,8.1,4.3,11.7,2.6,3.3,7.1,4.6,10.9,2.4,2.8-1.9,4.8-5,7-7.5,4.5,2.3,8.6,5.4,13.2,7.1,12.3,4.2,26.1,4.1,38.4,0,4.7-1.7,9.2-3.6,13-6.9,1-.6,2.3-2.2,3.5-1,2.5,1.7,5.3,6.7,8.7,5.1,4.4-1,4.5-7.2,6-10.7,1.8,1,3.5,2,5,3.4-.8.5-1.5,1-2.3,1.5.4,1.1.8,2.2,1.2,3.3-1.3,1.4-2.1,2.7-2,4.6.6,3.5,2.4,6.3,2.4,9.9.2,5.5-.4,12.1-3.5,16.8-3.3,4.9-9.1,6.7-14.8,7.1-5.8.5-12.6-.6-16.8-4.9-3.2-3.6-2.4-7.6-3.3-11.9-.2-2.6-3.5-3.9-5.8-3.8-4.4.3-8.5,1.7-13,1.6-4.5,0-7.8-2.2-12.1-1.3-3.4,1.3-3.6,6.1-4.5,9.1-.7,3.8-2.3,7.2-5.9,8.9-7.1,3.4-16,3.6-23.2.3-4.2-1.9-7.4-5.4-8.7-9.9-1.3-4.8-1.4-10-.8-14.9.3-3,2.3-6.9,1-9.8-1.6-3.9-7.5-2.3-11-3.4,5.6-.6,8.4-4.2,13.1-6.7Z"/>
  <path class="cls-86" d="M700.9,801.5c3.1,2.9,4.8,3.6,9.2,2.8-2.8,2-6.8,1.2-10.2,2-.4-1.1-.8-2.2-1.2-3.3.8-.5,1.5-1,2.3-1.5Z"/>
  <path class="cls-62" d="M205.1,811.4c3.2-.3,6.5-.2,9.7-.1,1.8,9,6.3,17,14.7,21.3,9.3,4.7,20.7,5.8,30.9,5,1.4,5.4,4.1,10.9,8.1,14.9,4.4,4.7,10.3,6.8,16.5,7.7,10.8,2.2,22.6.7,32-5.2,3.9-2.4,6.7-5.8,8.4-10.1,1.3,1.8,2.7,3.5,4,5.3.7,0,1.5.2,2.2.2,1,1.4,2,2.8,3,4.2.6-.6,1.3-1.2,1.9-1.7,6.5,6,15.9,8.2,24.5,8.3,9.5-.4,20-2.4,27.4-8.7,5.5-5.2,7.8-13.3,8.5-20.5,6.1,8.2,14.6,14.3,24.3,17.7,9.2,3.2,20.1,3.1,29.8,2.7,13.6-.9,27.4-2.9,38.1-12.2,5.4-4.5,8.6-10.2,10.9-16.7,1-.5,2.1-1,3.2-1.6h.7c1.3.5,2.6,1,4,1.5,1.9,5.7,5,11.2,9.2,15.6,5.8,5.5,12.8,9.6,20.7,11.3,13.4,2.9,27.8,2.6,41.3,1.2,2.3,1.6,4.2,3.6,6.6,4.9,5.1,3,11.4,4.2,17.2,4.9,10.5.9,22.4-.9,31.1-7.2,5.1-4,6.3-9.5,7.7-15.4,1.7,0,3.4,0,5.1,0,1.4,6.9,4.1,13.2,10.2,17.2,7.6,5,18.1,5.9,26.9,5.3,7.7-.9,17-2.9,22.9-8.3,5.7-5.7,8-13.1,8.9-20.9,8.3,5.4,19.5,6.6,29.2,6.4,10-.4,21-2.3,29.4-7.9,6.7-4.2,10.3-11.4,11.9-18.9,3.5-.1,7.1-.3,10.6-.3,1,4.2,2.5,8.2,4.8,11.9,3.8,5.9,9.7,9.9,16.4,11.7,12.7,3.7,26.9,3.1,39.4-1.4,7.4-2.6,13-9.1,17-15.5,1.3,1.3,2.7,2.7,4,4-.6,2.9-1.2,6.3-2.9,8.8-1,1.3-2.6,2.1-3.9,3.1-2.4,1.6-3.9,3.5-6.7,4.2-5.2,1.2-9.8,3.9-15,5-4.1,1.1-8.3,1.2-12.2,2.6-2.5,1-5.1,1.1-7.8,1.3-11.6,1.6-23.3,2.6-35,2.9-5.4-.4-10.6.5-16,0-9.1,1.2-18.9.7-28,.7-4.4,0-8.6-.8-12.8.9-1.9,1.3-2.7,4-4.7,5.3-6.9,4.5-14.6,5.7-22.5,7.4-5,1-10,1.1-15.1,1.7-10.1,1.5-20.5.9-30.9,1.3-11.8.6-23.5.5-35.2.5-1.6-.2-3.4-1.1-5-.7-2.6.5-5.1.9-7.8.6-5.3-.7-10.6-.5-15.9-.6-8-.6-16.2-1.5-24.3-1.2-6.3,0-12.5-.7-18.7-.2-23.7.2-47.4.2-71,.1-5.7-.2-11.3.6-17,0-20,.1-40-.3-60-.2-3.4,0-6.4-1.1-9.8-.2-6.1,1.2-12.1-.5-18.2.7-5.8,1.2-11.5.2-17.2,1-2.9.3-5.8,0-8.8.2-4.8.5-9.4-.4-14.2.3-9.9,0-19.9.2-29.8-.2-7.1.4-14-.9-21-.8-7-1-14.1-.7-21-2.4-3.6-.3-6.7-.7-10.1-2-5.8-.4-10.9-2.6-16.1-5-3-1.3-4.1-5-6.7-6.4-5.4-.5-10.9.2-16.2,0-9.6-.7-19.2-.8-28.8-1.7-7.1,0-13.9-1.8-21-2.5-4.5-.4-8.6-1.9-13-2.7-4.1-.8-8.1-2.1-11.8-4.1-3.4-2-7.4-2.1-10.8-4.2-4.1-2.4-8.5-4.5-9.7-9.6-.7-2.4,0-3.9,1.3-6,3.2,2.8,5,6.6,8.4,9.3.7-.1,1.5-.2,2.2-.3,3.3,2.4,6.6,4.6,10.6,5.8,9.3,2.8,19.1,3.1,28.6,1.5,8-1.6,15.4-4.4,21.2-10.4,4.2-4,5.7-9.1,7.1-14.6Z"/>
  <path class="cls-71" d="M505.5,811.5c1.3,3.8,1.4,7.9,2.4,11.8-1.3-.5-2.7-1-4-1.6h-.7c-1.1.6-2.2,1.1-3.2,1.7.8-3.6,1.2-7.2,1.8-10.8,1.2-.4,2.4-.8,3.7-1.1Z"/>
  <path class="cls-78" d="M254.5,815.8c1.8,1,3.5,2,4.8,3.7-5.5.3-10.7.2-16-1.5,2.9-.8,5.6-.3,8.5-.3.9-.6,1.8-1.3,2.6-1.9Z"/>
  <path class="cls-5" d="M327.7,838.2l2.3.3c.6,5.6,2.3,10.5,6.5,14.4-.6.6-1.3,1.2-1.9,1.7-1-1.4-2-2.8-3-4.2-.7,0-1.5-.2-2.2-.2-1.3-1.8-2.7-3.5-4-5.3.7-2.3,1.3-4.5,2.3-6.7Z"/>
</svg>