<?xml version="1.0" encoding="UTF-8"?>
<svg id="_Слой_1" data-name=" Слой 1" xmlns="http://www.w3.org/2000/svg" version="1.1" viewBox="0 0 96 96">
  <defs>
    <style>
      .cls-1 {
        fill: #303;
      }

      .cls-1, .cls-2, .cls-3 {
        stroke-width: 0px;
      }

      .cls-2 {
        fill: #c99;
      }

      .cls-3 {
        fill: #fff;
      }
    </style>
  </defs>
  <path class="cls-1" d="M38.7,8.3c3.9.9,6.5,4,9.3,6.6,2.8-2.6,5.4-5.8,9.3-6.6,5.5-1.3,11.3,1.6,13.6,6.7,1.4,3,1,5.8.7,8.9h16.4v23.8c-1.3,0-2.7.2-4,.3v26.9c0,2.8-.5,5.4-2.8,7.2-2.1,1.8-4.5,1.7-7.1,1.8H21c-2.8,0-5.4-.5-7.2-2.8-1.8-2.1-1.7-4.5-1.8-7.2v-25.9c-1.3,0-2.7-.2-4-.3v-23.8h16.4c-.3-3.1-.7-6,.7-8.9,2.3-5.2,8.1-8,13.6-6.7Z"/>
  <path class="cls-2" d="M34.5,16.3c2.9-1.2,6,1.4,5.4,4.5-.6,2.7-3.8,4.1-6.1,2.5-2.7-1.8-2.2-5.7.7-7Z"/>
  <path class="cls-2" d="M58.5,16.3c2.9-1.2,6,1.4,5.4,4.5-.6,2.7-3.8,4.1-6.1,2.5-2.7-1.8-2.2-5.7.7-7Z"/>
  <path class="cls-3" d="M16,32h64v8H16v-8Z"/>
  <path class="cls-2" d="M20,48h24v28h-24v-28Z"/>
  <path class="cls-2" d="M52,48h24v28h-24v-28Z"/>
</svg>