<?xml version="1.0" encoding="UTF-8"?>
<svg id="_Слой_1" data-name=" Слой 1" xmlns="http://www.w3.org/2000/svg" version="1.1" viewBox="0 0 36 65.9">
  <defs>
    <style>
      .cls-1 {
        fill: #fff;
        stroke-width: 0px;
      }
    </style>
  </defs>
  <path class="cls-1" d="M3.8,0c2,1.1,3.6,3.1,5.3,4.7l21.5,21.5c1.8,1.8,3.9,3.6,5.2,5.8.5,2-1,3.2-2.2,4.5-9.2,9.1-18.4,18.3-27.5,27.5-.9.7-1.9,2-3.1,1.9-2.1,0-3.5-2-2.9-3.9,1.4-2.1,3.5-3.9,5.3-5.7l23.4-23.4L5.4,9.5C3.6,7.7,1.5,5.9.1,3.8-.5,1.5,1.5-.6,3.9.1h0c0,0,0-.1-.1-.1Z"/>
</svg>