<?xml version="1.0" encoding="UTF-8" standalone="no"?>
<!DOCTYPE svg PUBLIC "-//W3C//DTD SVG 1.1//EN" "http://www.w3.org/Graphics/SVG/1.1/DTD/svg11.dtd">
<svg xmlns="http://www.w3.org/2000/svg" version="1.1" viewBox="0 0 1024 1024" width="1024.0pt" height="1024.0pt">
<path d="M 0.00 0.00 L 503.42 0.00 C 459.06 0.95 414.89 7.23 372.20 19.40 C 282.86 44.61 201.01 94.85 137.77 162.77 C 108.16 194.42 82.64 229.85 61.91 267.92 C 33.67 319.81 14.57 376.60 5.78 435.03 C 2.28 457.87 0.51 480.92 0.00 504.01 L 0.00 0.00 Z" fill="#ffffff" />
<path d="M 503.42 0.00 L 521.84 0.00 L 522.68 0.03 C 557.28 0.94 591.76 4.89 625.52 12.59 C 688.15 26.69 747.98 52.83 800.94 89.11 C 867.01 134.22 922.32 194.98 960.92 265.07 C 993.32 323.58 1013.91 388.52 1021.25 454.99 C 1022.58 466.43 1023.31 477.91 1024.00 489.40 L 1024.00 535.79 C 1021.93 575.72 1015.71 615.36 1004.60 653.79 C 981.45 734.80 937.73 809.63 878.86 869.86 C 821.02 929.25 748.70 974.35 669.76 999.75 C 626.36 1013.84 581.16 1021.75 535.61 1024.00 L 489.06 1024.00 C 442.22 1021.73 395.75 1013.41 351.24 998.60 C 273.52 973.00 202.40 928.27 145.36 869.64 C 82.62 805.43 37.21 724.60 15.43 637.49 C 5.91 599.90 1.01 561.32 0.00 522.58 L 0.00 504.01 C 0.51 480.92 2.28 457.87 5.78 435.03 C 14.57 376.60 33.67 319.81 61.91 267.92 C 82.64 229.85 108.16 194.42 137.77 162.77 C 201.01 94.85 282.86 44.61 372.20 19.40 C 414.89 7.23 459.06 0.95 503.42 0.00 Z" fill="#26a5e4" />
<path d="M 521.84 0.00 L 1024.00 0.00 L 1024.00 489.40 C 1023.31 477.91 1022.58 466.43 1021.25 454.99 C 1013.91 388.52 993.32 323.58 960.92 265.07 C 922.32 194.98 867.01 134.22 800.94 89.11 C 747.98 52.83 688.15 26.69 625.52 12.59 C 591.76 4.89 557.28 0.94 522.68 0.03 L 521.84 0.00 Z" fill="#ffffff" />
<path d="M 736.82 311.16 C 742.10 313.52 745.77 317.96 747.39 323.47 C 749.80 332.00 750.14 341.22 749.16 350.00 C 745.70 383.75 740.87 417.41 735.93 450.97 C 722.70 538.89 707.87 626.60 691.71 714.03 C 689.18 727.50 685.46 742.34 677.86 753.91 C 673.17 760.98 666.71 766.88 658.06 768.27 C 645.10 770.08 632.13 766.29 620.73 760.27 C 608.56 753.89 597.03 745.14 585.75 737.25 C 579.08 732.53 572.23 728.09 565.40 723.61 C 531.24 701.23 497.88 677.71 463.80 655.21 C 454.95 649.39 445.25 642.68 439.14 633.87 C 435.48 628.63 433.61 622.36 435.14 616.01 C 436.94 608.16 442.95 601.09 448.34 595.34 C 456.37 587.04 464.92 579.27 473.05 571.06 C 509.29 537.11 546.11 503.41 581.63 468.63 C 589.99 460.34 598.41 452.06 606.33 443.34 C 608.77 440.46 611.80 437.53 613.32 434.05 C 613.94 430.44 612.67 425.53 608.89 424.10 C 604.59 422.60 599.33 424.19 595.62 426.61 C 578.71 436.85 562.29 447.92 545.76 458.76 C 490.92 495.11 436.45 532.11 381.87 568.84 C 369.08 577.34 354.36 584.87 339.02 587.07 C 328.33 588.71 317.69 586.82 307.19 584.80 C 287.26 580.68 267.60 574.83 248.22 568.66 C 236.74 564.95 225.00 561.70 213.78 557.25 C 207.97 554.83 201.28 551.76 197.13 546.89 C 193.33 542.58 192.35 536.18 194.99 531.03 C 197.21 526.66 201.37 523.09 205.30 520.28 C 212.71 515.06 221.21 511.07 229.53 507.54 C 328.93 464.55 428.12 421.07 527.84 378.83 C 571.79 360.62 615.67 342.07 660.12 325.13 C 675.61 319.41 691.38 313.38 707.49 309.70 C 717.48 307.49 727.27 306.85 736.82 311.16 Z" fill="#ffffff" />
<path d="M 0.00 522.58 C 1.01 561.32 5.91 599.90 15.43 637.49 C 37.21 724.60 82.62 805.43 145.36 869.64 C 202.40 928.27 273.52 973.00 351.24 998.60 C 395.75 1013.41 442.22 1021.73 489.06 1024.00 L 0.00 1024.00 L 0.00 522.58 Z" fill="#ffffff" />
<path d="M 1024.00 535.79 L 1024.00 1024.00 L 535.61 1024.00 C 581.16 1021.75 626.36 1013.84 669.76 999.75 C 748.70 974.35 821.02 929.25 878.86 869.86 C 937.73 809.63 981.45 734.80 1004.60 653.79 C 1015.71 615.36 1021.93 575.72 1024.00 535.79 Z" fill="#ffffff" />
</svg>