<?xml version="1.0" encoding="UTF-8"?>
<svg id="_Слой_1" data-name=" Слой 1" xmlns="http://www.w3.org/2000/svg" version="1.1" viewBox="0 0 120 120">
  <defs>
    <style>
      .cls-1 {
        fill: #f6e7a5;
      }

      .cls-1, .cls-2, .cls-3, .cls-4, .cls-5, .cls-6, .cls-7, .cls-8 {
        stroke-width: 0px;
      }

      .cls-2 {
        fill: #00effb;
      }

      .cls-3 {
        fill: #290e22;
      }

      .cls-4 {
        fill: #feffff;
      }

      .cls-5 {
        fill: #00a8e3;
      }

      .cls-6 {
        fill: #b85262;
      }

      .cls-7 {
        fill: #eba368;
      }

      .cls-8 {
        fill: #fff;
      }
    </style>
  </defs>
  <path id="p43" class="cls-5" d="M92.2,15.4c4.6,4,18.5,16.9,21.1,37.5.5,4.4.8,11.1-.9,18.8-3.2,14.7-13.1,28.8-26.7,35.4-5,2.5-9.5,5-15.1,6.1-6.2,1.1-12.8,1.3-19,.1-16.6-4.1-31.6-14-39.1-29.6-5.3-11.2-7.9-24.8-4.2-37,2.1-10.7,7.9-19.1,14.9-27.2,1.3-1.5,3.3-3.4,6.1-5.4,0,0,4.2-2.9,9.6-5,20.3-8.2,40.4-2.5,53.2,6.2h0ZM26.3,67.3c-1.2-.4-2.2-.9-3.3-1.5.5-.9,1.1-1.8,1.6-2.8-3.7,2.2-7.3,1.6-11.4,1.3-2,2-2,3.4-1.3,5.9,1.3,9.9,6.2,20.1,14,26.4,7.3,7.8,18.1,12.3,28.3,14.1,3.8,0,9.8,1.7,12.7-1.2,2,.9,2.9,1.1,5,.5,12.3-3.3,23-11,30.4-21.3,3.2-5,4.9-11.1,6.6-16.8.7-1.8-.8-2.5-2-3.4-1.5-1.1-3,0-4.6,0-2.6-.8-5-2.2-7-4.1-.1-5.5.7-12-1.5-17-3.6-9-9.9-16.8-18.9-20.7-7-2.5-13.6-4.5-21-2.1-8.1,1.5-14.5,5.8-19.8,11.9-7.1,8.6-9.4,19.7-7.5,30.6h-.3ZM25.3,28v.7h.7v-.7h-.7ZM93.9,29.4v.7h.7v-.7h-.7ZM17.2,37.1c1.8,2.1,3.7,4.4,5.3,6.6,1.8-2.9,3-4.6,6.1-6.5-2.6-2-4.4-4.5-6.2-7.1-1.7,2.4-3.4,4.6-5.1,7ZM99,43.7c1.8-2,3.6-4,4.9-6.3-2-1.8-3.4-3.7-4.9-5.8-2.1,1.8-4.1,3.7-5.9,5.7.7,2.2,4.4,4.6,6.1,6.5h-.1ZM15.1,55.9c1.1,1.7,2.2,3.3,3.7,4.6,1.2-1.2,2.1-2.5,2.9-4-.5-1.6-1.5-3.2-2.4-4.6-1.5,1.2-2.9,2.5-4.2,4ZM97.8,59.5c1.3,1.7,2.6,3.4,4.2,5,2.1-.8,3.7-3,5-4.9-1.3-1.7-2.8-3.4-4.2-5-1.8.4-3.6,3.4-4.9,4.8h-.1Z"/>
  <path id="p8" class="cls-5" d="M54.2,5.5l.9,1.1h-1.1v-1.1h.1Z"/>
  <path id="p30" class="cls-1" d="M68.8,11l.7.3c.9.5,1.7.9,2.6,1.3s2.1,1.1,3.2,1.6c-1.3,2-3.3,6.3-6.2,4.5-1.2-1.8-2.1-4.1-3-6.2.9-.5,1.8-1.1,2.9-1.6h-.1Z"/>
  <path id="p35" class="cls-1" d="M58.2,11c-.5.8-.8,1.5-.9,2.2,1.1.3,2.1.7,3,.9.9,3.7-4.6,3.3-6.9,3.2-.8-1.7-1.3-3.4-1.8-5.3,2.1-.5,4.4-.8,6.6-1.1Z"/>
  <path id="p36" class="cls-1" d="M83.2,17.6c1.3.9,2.8,1.7,4.1,2.6-.4,1.1-.3,1.7.3,2.1,1.5,1.7,3,2,2.4,4.6-2.6-.1-5.5-.8-7.4-2.9-.5-2,.3-4.5.8-6.5h-.1Z"/>
  <path id="p38" class="cls-1" d="M38.7,15.1c1.1,1.6,1.5,3,3.4,3.4,1.1.4,2.1.9,2.9,1.7-3.4,1.8-4.5,2.6-8.1.3-.4-.9-.7-1.7-1.1-2.6,1.3-.7,2.1-1.6,2.6-2.8h.1Z"/>
  <path id="p46" class="cls-3" d="M74.7,27c9,4,15.3,11.8,18.9,20.7,2.2,5.1,1.3,11.5,1.5,17-2.1,10.6-9.2,19.4-18.8,24.2l-.8.4c-2.5,1.1-5.1,1.7-7.9,2.1-1.5-.7-2.4-.3-2.9,1.1-3.7,0-7.3-.4-10.8-.7h-.9c-7.4-1.8-13.6-5.4-18.8-11.1-3.3-4.1-5.5-8.7-7.7-13.5-1.8-11,.4-22.1,7.5-30.6,5.4-6.1,11.8-10.3,19.8-11.9,7.4-2.4,14-.3,21,2.1h-.1ZM62,26.8h-4.9c-9.1.9-17.2,6.1-22.2,13.7l-1.1,1.5c-2.9,3-4.1,6.3-4.8,10.4-4.6,15.4,7.8,33.3,23.4,36,8.5,2.4,18.1.5,25.6-3.8,11.8-6.6,17.6-22.2,13.2-35-.7-1.7-1.7-3.4-2.6-5.1-.5-.8-.9-1.7-1.5-2.5-1.5-2.8-3.4-5-5.7-7l-.7-.5c-1.5-1.2-3-2.4-4.6-3.4l-.8-.4c-2.6-1.5-5.4-2.4-8.2-3.3"/>
  <path id="p47" class="cls-7" d="M31.5,25.5c2.2-.3,4.5-.4,6.7-.3-2,3-4.8,4.1-6.7.3Z"/>
  <path id="p48" class="cls-4" d="M57.1,27.1c.1.4.5.4,1.1,0h1.3c.4.5.8.5,1.2,0h1.3l1.3.4c1.2.5,2.6.5,4.1,0,2.8.9,5.7,1.8,8.2,3.3l.8.4c1.6,1.1,3.2,2.2,4.6,3.4l.7.5c2.4,2,4.2,4.4,5.7,7v5.1c-1.8-.3-1.6-4-2.4-5.4-1.1-.8-2.1-1.6-3.3-2.2l-.9-.7-.4-.8c-2.5-5.8-11.4-8.7-17.2-9.1-2.1-.1-4.1-.3-6.2,0-5.3,1.1-10.4,3.4-14.8,6.6-2.5,1.7-4,5-5.7,7.5-.7-.4-1.2-1.2-1.5-2.2,4.9-7.7,13.1-12.8,22.2-13.7h-.1Z"/>
  <path id="p53" class="cls-4" d="M25.3,28h.7v.7h-.7v-.7Z"/>
  <path id="p54" class="cls-1" d="M55.4,74.8c-.8,1.1-3.4-2.2-4.9-2.1.5-4.2.5-8.8-3.6-11.4-4.2-.9-8.8.8-11.9-2.8l1.7-1.3c2.1.4,3.8,1.1,5.9.1,1.6-.5,3.2-1.2,4.6-2-.7-1.3-1.5-2.5-2.6-3.3-1.3.3-2.6.5-4,.9-2.8-1.2-5.4-1.8-6.9-4.8-.1-2,0-4.1.3-6.1l1.1-1.5c.3,1.2.7,2,1.5,2.2,1.7-2.5,3.3-5.7,5.7-7.5,4.4-3.2,9.4-5.5,14.8-6.6l-.4,1.1-1.5,1.6c-2.1,2.4-.9,6.9,2.1,8.1,3.3,1.6,5.7-.5,7.9-2.6,2.1-1.8,1.8-3.4-.3-5-.5-.9-1.1-1.8-1.6-2.8,5.8.5,14.7,3.3,17.2,9.1-2-.7-3.6-.8-5,1.1l-1.5,1.5c-2,1.8-3.2,3.6-2.2,6.3,1.1,4.8,8.2,6.6,11.1,2.4,2.1-3.6.3-6.5-1.1-9.9,1.2.7,2.2,1.5,3.3,2.2.9,1.5.5,5.1,2.4,5.4v-5.1c.5.8.9,1.7,1.5,2.5-.8,5.5.9,11.1-3.7,14.9-1.7-.8-3.7-2.9-5.5-1.6-3.2,1.7-1.6,4.5,0,6.9.3.9.5,1.8.7,2.6-2.1-.7-4-1.6-5.9-2.2-2,1.7-4.1,7.8-6.1,9.4M68.7,35.8c.9,1.6,1.6,3.3,3.7,3.4,1.3-.9,2.1-2,2.8-3.4-2.6-2-3.7-1.7-6.5,0ZM50.6,40.8l-1.6-1.7c-4.4-3.4-11,1.5-9,6.7.8,5,7.7,6.1,10.4,2,1.1-2,2-5.1.1-6.9h0ZM71.2,58.1c1.3,3.8,6.5-1.3,2.5-2.5-2.4-.7-3.2.3-2.5,2.5Z"/>
  <path id="p55" class="cls-3" d="M56.8,29.1c2.1-.3,4.1,0,6.2,0,.5.9,1.1,1.8,1.6,2.8-.5,1.8-.4,3.6.3,5-2.2,2.2-4.6,4.2-7.9,2.6-3-1.2-4.2-5.7-2.1-8.1.7,1.7,1.3,3.4,2.2,5.1,3.3.7,6.1.4,5.8-3.7v-.7l-.5-.5c-.8-1.1-2-1.5-3.4-1.5l-2.6-.3.4-1.1h.1Z"/>
  <path id="p56" class="cls-4" d="M93.9,29.4h.7v.7h-.7v-.7Z"/>
  <path id="p57" class="cls-7" d="M22.4,30.1c1.8,2.8,3.6,5.1,6.2,7.1-3,1.8-4.2,3.4-6.1,6.5-1.6-2.4-3.4-4.5-5.3-6.6,1.7-2.4,3.4-4.6,5.1-7Z"/>
  <path id="p58" class="cls-6" d="M56.4,30l2.6.3c.3,1.6,1.3,2.4,3.2,2.2l.8.3c.3,4.1-2.5,4.5-5.8,3.7-.9-1.7-1.6-3.4-2.2-5.1l1.5-1.6v.3ZM57,32v.7h.8v-.7h-.8Z"/>
  <path id="p59" class="cls-1" d="M59.1,30.4c1.5,0,2.6.4,3.4,1.5l-.3.9c-1.8,0-2.9-.7-3.2-2.2h0Z"/>
  <path id="p60" class="cls-2" d="M75.6,30.8l.8.4-.8-.4Z"/>
  <path id="p63" class="cls-6" d="M64.6,31.9c2.1,1.6,2.4,3.3.3,5-.7-1.6-.8-3.3-.3-5Z"/>
  <path id="p64" class="cls-7" d="M99,31.6c1.5,2.2,3,4.1,4.9,5.8-1.3,2.2-3,4.4-4.9,6.3-1.7-1.7-5.4-4.2-6.1-6.5,1.8-2,4-4,5.9-5.7h.1Z"/>
  <path id="p65" class="cls-4" d="M75.1,35.8c-.7,1.5-1.5,2.5-2.8,3.4-2.1-.3-2.8-1.8-3.7-3.4,2.8-1.7,3.7-1.8,6.5,0Z"/>
  <path id="p66" class="cls-2" d="M81,34.6l.7.5-.7-.5Z"/>
  <path id="p67" class="cls-3" d="M48.9,39.1c-2.5.5-5,0-6.6,2.2-.3,2.4-.7,4.5,1.6,5.9,2.9.9,5.3-1.3,5.8-4.1l.3-1.1.5-1.3c1.8,1.7.9,5-.1,6.9-2.8,4.1-9.6,3-10.4-2-2-5.3,4.6-10.2,9-6.7h0Z"/>
  <path id="p68" class="cls-7" d="M80.2,38.3l.4.8c-1.6.7-3.4.8-5.4.3,1.5-1.7,3-1.7,5-1.1Z"/>
  <path id="p69" class="cls-6" d="M48.9,39.1l1.6,1.7-.5,1.3-.9.7.5.4c-.5,2.8-2.9,5-5.8,4.1-2.2-1.5-1.8-3.6-1.6-5.9,1.7-2.2,4.1-1.7,6.6-2.2h.1Z"/>
  <path id="p70" class="cls-3" d="M75.2,39.3c2,.5,3.8.4,5.4-.3l.9.7c1.3,3.3,3.2,6.3,1.1,9.9-2.8,4.2-10,2.4-11.1-2.4-.9-2.8.3-4.5,2.2-6.3-.4,1.3-.7,2.8-.7,4.1,0,2,2.5,4.4,4.5,4,1.8-.5,3.3-2.1,4.1-4-.5-1.5-1.2-3.3-2.9-3.7-1.6-.5-3.3-.7-5.1-.4l1.5-1.5h.1Z"/>
  <path id="p71" class="cls-1" d="M73.7,40.8c1.8-.1,3.6,0,5.1.4-1.8,1.3-3.8,2.5-5.8,3.7,0-1.3.3-2.8.7-4.1Z"/>
  <path id="p72" class="cls-6" d="M78.9,41.2c1.7.4,2.4,2.2,2.9,3.7-.8,1.8-2.2,3.4-4.1,4-2,.4-4.6-2-4.5-4,2-1.2,3.8-2.4,5.8-3.7h-.1Z"/>
  <path id="p73" class="cls-7" d="M34,42.3c-.1,2-.4,4.1-.3,6.1,1.6,2.8,4.1,3.6,6.9,4.8.7,1.5,1.5,2.9,2.1,4.4-2.1.9-3.8.3-5.9-.1.4-.9.8-2,1.2-2.9-1.5-1.5-2.2-3.3-4.6-2.1-.5,1.1-.8,2.1-.9,3.2.7,1.1,1.6,2.1,2.6,3,3,3.6,7.7,1.8,11.9,2.8,4.1,2.6,4.1,7.1,3.6,11.4,1.5,0,2.5-.5,3.3-1.6.7-3.7.4-7.5.1-11.2,3,3.8-.8,10.2,3.8,14.3l-.8,1.3c2.4,2.6,4.2,2.9,7.7,2.8-2,1.5-3.3,2.6-3.8,5.3,1.6,0,3-.1,4.6-.4,1.6-2,1.3-2.8.5-5,.8-1.3,1.6-2.5,2.4-3.8h-3.7c.8-1.3,1.6-2.8,2.4-4.1l1.5.8c2-1.7,3.6-3.8,5.5-5.4,2,.8,4,1.7,5.9,2.2-.3-.9-.4-1.8-.7-2.6,4.8-.4,4.9-.7,5.7-5.3,4.6-3.8,2.9-9.5,3.7-14.9.9,1.6,2,3.3,2.6,5.1-.8,2.4-1.3,4.6-1.2,7.1,0,7-2.1,13.9-7.8,18.4-1.2-5-4.8-8.6-9.9-5.9l-1.7,1.7c-2.4,4.4.4,8.1,4.6,9.8-4.9,3.3-11.6,5-17.4,4,0-1.8,1.2-5-.7-6.2-1.7-2.1-4.5-.5-6.5.3l-1.3.7c0,1.2,0,2.4.1,3.6-3.4-.1-2.4-2.8-3.8-5-2.6-2.4-6.9-2.8-9.6-4.8-5.1-6.6-3.4-13.7-6.9-20.6.7-4.1,1.8-7.4,4.8-10.4v-.3ZM46.3,63.3c-3.8-4.1-8.8,1.1-9.1,5.1,1.2,3.6,6.2,6.1,9.4,3.4,3-2.2,3.6-6.9-.3-8.6Z"/>
  <path id="p79" class="cls-6" d="M91.3,49.8c4.4,12.7-1.5,28.4-13.2,35-7.5,4.4-17,6.2-25.6,3.8-15.6-2.6-27.9-20.5-23.4-36,3.4,7,1.7,14.1,6.9,20.6,2.8,2,7,2.4,9.6,4.8,1.5,2.2.4,4.8,3.8,5,0-1.2,0-2.4-.1-3.6l1.3-.7c.7,2.2,0,5.4,2.5,6.2,1.5,0,3,0,4.5-.1,5.8,1.1,12.5-.7,17.4-4,2.5-1.6,4.9-3.4,7-5.5,5.7-4.5,7.8-11.4,7.8-18.4s.5-4.8,1.2-7.1h.3Z"/>
  <path id="p80" class="cls-4" d="M19.3,52.1c.8,1.5,1.8,3,2.4,4.6-.8,1.5-1.8,2.8-2.9,4-1.3-1.5-2.6-2.9-3.7-4.6,1.3-1.3,2.8-2.6,4.2-4Z"/>
  <path id="p81" class="cls-3" d="M33.3,52.1c2.4-1.2,3.2.7,4.6,2.1-.4.9-.8,2-1.2,2.9l-1.7,1.3c-1.1-.9-2-2-2.6-3,0-1.1.4-2.1.9-3.2h0ZM34.5,54.4v.8h.8v-.7h-.8Z"/>
  <path id="p82" class="cls-4" d="M44.7,52.1c1.3.8,2,2,2.6,3.3-1.5.8-3,1.5-4.6,2-.7-1.5-1.3-2.9-2.1-4.4,1.3-.4,2.6-.7,4-.9h.1Z"/>
  <path id="p83" class="cls-1" d="M34.5,54.4h.8v.7h-.8v-.7Z"/>
  <path id="p84" class="cls-7" d="M102.7,54.6c1.6,1.6,2.9,3.2,4.2,5-1.2,1.8-2.8,4.1-5,4.9-1.5-1.6-2.9-3.3-4.2-5,1.3-1.5,3-4.5,4.9-4.8h.1Z"/>
  <path id="p85" class="cls-3" d="M73.7,55.5c-.4,1.3-1.2,2.1-2.5,2.5-.7-2.2.1-3.2,2.5-2.5Z"/>
  <path id="p86" class="cls-6" d="M73.7,55.5c4,1.2-1.2,6.3-2.5,2.5,1.3-.4,2.2-1.2,2.5-2.5Z"/>
  <path id="p87" class="cls-3" d="M79.4,58.1c1.8-1.3,4,.8,5.5,1.6-.9,4.6-1.1,4.9-5.7,5.3-1.5-2.2-3-5,0-6.9h.1ZM80.6,59.6c-2.1.9-.9,3,1.1,2.6,2.2-.8.9-3-1.1-2.6Z"/>
  <path id="p88" class="cls-6" d="M80.6,59.6c2-.4,3.2,1.8,1.1,2.6-2,.4-3.2-1.7-1.1-2.6Z"/>
  <path id="p89" class="cls-3" d="M46.3,63.3c-1.8-.3-3.2,0-4.1,1.1-1.1.9-2,2-2.9,3,1.5,2.8,3.6,3.3,6.3,2.1l.9-2.4c.8-.4.8-.8,0-1.2v-2.5c3.7,1.7,3.2,6.3,0,8.6-3.2,2.6-8.2.1-9.4-3.4.3-4.1,5.3-9.2,9.1-5.1h0Z"/>
  <path id="p90" class="cls-2" d="M13.3,64.5c4.1.3,7.7.9,11.4-1.3-.5.9-1.1,1.8-1.6,2.8,1.1.5,2.2.9,3.3,1.5,2.1,4.9,4.4,9.5,7.7,13.5,5.1,5.7,11.4,9.2,18.8,11l.5.3h.4c3.6,0,7.1.5,10.8.5,1.3.4,2.4,0,2.9-1.1,2.8-.4,5.4-1.1,7.9-2.1l.8-.4c9.5-4.8,16.8-13.7,18.8-24.2,2.1,1.8,4.4,3.3,7,4.1,1.6,0,3.3-1.1,4.6,0,1.3.9,2.6,1.6,2,3.4-1.7,5.7-3.4,11.8-6.6,16.8-7.4,10.3-18.1,17.8-30.4,21.3-2.1.5-3,.5-5-.5,0-3.3,2.2-5.9,2.6-9-2.6-2.1-5.3-4.2-7.9-6.3-3.4.7-6.9,4.4-9.9,6.3,1.1,3.7,2.9,6.2,2.5,10.3-10.3-1.8-21.1-6.3-28.3-14.1-7.8-6.5-12.7-16.5-14-26.4-.7-2.5-.7-4,1.3-5.9l.4-.3ZM16.3,76.2c1.1,1.1,2.2,2,3.4,2.9,1.2-.9,2.2-1.8,3.3-3,0-1.7-2-3.4-3-4.6-1.3,1.5-2.6,3-3.7,4.8ZM101.7,77.7c1.2-.8,2.2-1.7,3.3-2.6-.5-1.5-2.1-2.5-3.3-3.4-.9.8-1.7,1.7-2.4,2.6-.3,1.3,1.6,2.5,2.4,3.4ZM88.8,87.6c1.3,2.2,3,4.4,4.8,6.2,1.8-1.7,3.6-3.6,5.3-5.4-1.5-2.2-3-4.2-4.9-6.2-1.7,1.8-3.6,3.6-5.3,5.3h.1ZM22.5,88.6c1.5,2,3.2,3.8,5,5.4,1.8-2,3.7-4.1,5-6.5-1.7-1.5-3.8-4-6.1-4.4-1.6,1.6-2.8,3.6-4,5.4ZM36.8,96.4c.4,2.5,1.1,5.1,1.8,7.7,2.8.5,5.8.8,8.6.9.9-2.8,1.8-5.5,2.8-8.3-2-2-4.2-4-6.6-5.5-2.4,1.6-4.8,3.3-6.7,5.4h.1ZM75.2,105.2c2.9-.3,5.8-.7,8.3-2.2l.5-.7-.4-.4c0-2.1.8-4.4.4-6.3-2-1.6-4.1-3.2-6.3-4.4-2.2,1.7-4.4,3.7-6.2,5.7-.1,1.6,2.2,7.5,3.6,8.3h.1Z"/>
  <path id="p91" class="cls-7" d="M46.3,63.3v2.5c-1.3-.4-2.8-.9-4.1-1.6,1.1-.9,2.4-1.2,4.1-1.1h0Z"/>
  <path id="p92" class="cls-6" d="M42.2,64.3c1.5.7,2.9,1.1,4.4,1.6v1.2l-.9,2.4c-2.8,1.2-4.9.7-6.3-2.1.9-1.1,1.8-2.1,2.9-3Z"/>
  <path id="p93" class="cls-2" d="M46.5,65.8"/>
  <path id="p95" class="cls-3" d="M82.3,75.4c-2.1,2.1-4.4,4-7,5.5-4.2-1.6-7-5.3-4.6-9.8.4,4.4,4,8.2,8.2,4.9.4-1.3.4-2.8.1-4.4-2.1-1.2-4.4-1.7-6.6-2.4,5.3-2.5,8.7.9,9.9,5.9h0Z"/>
  <path id="p96" class="cls-6" d="M72.4,69.5c2.2.7,4.5,1.2,6.6,2.4.3,1.6.3,3-.1,4.4-4.1,3.3-7.7-.7-8.2-4.9l1.7-1.7h0Z"/>
  <path id="p97" class="cls-4" d="M20,71.6c1.1,1.2,3,2.9,3,4.6-1.1,1.1-2.1,2.1-3.3,3-1.2-.9-2.4-1.8-3.4-2.9,1.1-1.7,2.2-3.3,3.7-4.8Z"/>
  <path id="p98" class="cls-4" d="M101.7,71.6c1.2.8,2.8,2,3.3,3.4-1.1.9-2.1,1.8-3.3,2.6-.8-.9-2.5-2.1-2.4-3.4.7-.9,1.5-1.8,2.4-2.6Z"/>
  <path id="p99" class="cls-1" d="M57.9,74c2.2.3,4.5.3,6.7.1h3.7c-.8,1.3-1.6,2.6-2.4,3.8l-1.3.3c-3.4,0-5.3,0-7.7-2.8l.8-1.3h.1Z"/>
  <path id="p100" class="cls-3" d="M57.2,78.6c1.8,1.2.7,4.5.7,6.2-1.5,0-3,.3-4.5.1-2.6-.8-2-4-2.5-6.2,2-.8,4.8-2.4,6.5-.3h-.1ZM53.3,79.7c-1.3,1.7.9,4.2,2.8,2.8,1.6-2-.8-4.1-2.8-2.8Z"/>
  <path id="p101" class="cls-6" d="M64.8,78.1l1.3-.3c.8,2.2,1.1,3-.5,5-1.5.3-3,.4-4.6.4.7-2.5,1.8-3.7,3.8-5.3h0Z"/>
  <path id="p102" class="cls-6" d="M53.3,79.7c2-1.5,4.4.8,2.8,2.8-1.7,1.6-4.1-1.1-2.8-2.8Z"/>
  <path id="p103" class="cls-1" d="M94.1,82.3c1.8,1.8,3.4,4,4.9,6.2-1.7,1.8-3.6,3.7-5.3,5.4-1.7-1.8-3.6-4-4.8-6.2l5.3-5.3h-.1Z"/>
  <path id="p104" class="cls-1" d="M26.5,83.1c2.2.4,4.4,2.9,6.1,4.4-1.3,2.4-3.2,4.5-5,6.5-1.8-1.6-3.6-3.4-5-5.4,1.2-1.8,2.4-3.8,4-5.4Z"/>
  <path id="p106" class="cls-7" d="M76.2,88.9l-.8.4.8-.4Z"/>
  <path id="p108" class="cls-3" d="M43.5,91.2c2.4,1.6,4.6,3.4,6.6,5.5-.9,2.8-1.8,5.5-2.8,8.3-2.9,0-5.8-.4-8.6-.9-.8-2.5-1.3-5-1.8-7.7,2-2.1,4.4-3.8,6.7-5.4h-.1ZM39.1,96.8c.4,1.7.9,3.6,1.6,5.1,1.6.5,3.3.5,4.9.4.5-1.6.9-3.2,1.2-4.9v-.5l-.3-.4c-.9-1.1-1.8-2-2.9-2.8-1.6.9-3,1.8-4.4,3h-.1Z"/>
  <path id="p109" class="cls-7" d="M52.7,91.7h.9l-.4.3s-.5-.3-.5-.3Z"/>
  <path id="p110" class="cls-6" d="M67.5,91.4c-.7,1.2-1.6,1.6-2.9,1.1.5-1.3,1.6-1.7,2.9-1.1Z"/>
  <path id="p111" class="cls-3" d="M77.8,91.2c2.2,1.2,4.4,2.8,6.3,4.4.3,2.1-.3,4.4-.4,6.3v1.1c-2.6,1.6-5.5,2-8.5,2.2-1.5-.8-3.8-6.9-3.6-8.3,1.8-2.1,4-4,6.2-5.7h-.1ZM75.8,96l-.8.5c-1.8.7,0,4.6.5,5.8,1.8,0,5,.7,5.9-1.3v-4.1l-.5-.5c-1.1-1.1-2.1-2-3.2-2.9-.7.8-1.3,1.7-2,2.5Z"/>
  <path id="p112" class="cls-7" d="M43.6,93.8c1.1.8,2,1.7,2.9,2.8l.3.9c-.3,1.6-.7,3.3-1.2,4.9-1.6,0-3.3,0-4.9-.4-.7-1.6-1.2-3.4-1.6-5.1,1.3-1.2,2.9-2.1,4.4-3h.1Z"/>
  <path id="p113" class="cls-3" d="M61.6,94.3c2.6,2.1,5.3,4.2,7.9,6.3-.4,3-2.6,5.7-2.6,9-2.9,3-8.8,1.2-12.7,1.2.4-4.2-1.5-6.6-2.5-10.3,3-2,6.5-5.7,9.9-6.3h0ZM58.9,98.8l-1.2,1.5-2.2.3-.9.3c.3,2.6,1.1,5.4,2.1,7.9,2.1.8,5.3.3,7.7.3,1.1-2.6,2.1-5.4,2.6-8.2l-2.1-.3h-1.1c0-.1-1.3-1.7-1.3-1.7-1.2-1.6-2.4-1.6-3.4,0h-.1Z"/>
  <path id="p114" class="cls-6" d="M77.8,93.5c1.1.9,2.2,1.8,3.2,2.9l.5,1.2v3.4c-.9,2-4.1,1.5-5.9,1.3-.4-1.2-2.2-5.1-.5-5.8.7.7.9.4.8-.5.7-.8,1.3-1.7,2-2.5Z"/>
  <path id="p115" class="cls-2" d="M46.5,96.6l.4.4v.5s-.4-.9-.4-.9Z"/>
  <path id="p116" class="cls-4" d="M75.1,96.7l.8-.5c.1,1.1,0,1.2-.8.5Z"/>
  <path id="p117" class="cls-4" d="M81,96.6l.4.5v.7l-.4-1.2Z"/>
  <path id="p119" class="cls-1" d="M62.4,98.8c-.9,2.8-3.2,3.4-3.4,0,1.1-1.6,2.2-1.6,3.4,0Z"/>
  <path id="p120" class="cls-6" d="M58.9,98.8c.4,3.4,2.5,2.9,3.4,0l1.3,1.6.7.7.4-.5,2.1.3c-.5,2.8-1.6,5.5-2.6,8.2-2.4,0-5.5.5-7.7-.3-.9-2.5-1.8-5.3-2.1-7.9l.9-.3c.3,3,3.3,3,2.2-.3l1.2-1.5h.1Z"/>
  <path id="p121" class="cls-1" d="M55.5,100.5l2.2-.3c1.1,3.3-2.1,3.3-2.2.3Z"/>
  <path id="p122" class="cls-4" d="M63.7,100.4h1.1c0,.1-.4.7-.4.7l-.7-.7Z"/>
  <path id="p124" class="cls-7" d="M83.6,102l.4.4-.5.7v-1.1h.1Z"/>
  <path id="p75" class="cls-3" d="M73.1,31.2c.2,9.7.3,19.6-.2,29.4-.5,9.7-1.3,6.4-3.1,9.1s0,0,0,0c-1.4,2-3.8,3.1-6.1,3.1h-6.6c-4.2-.2-8-3-9.1-7.1-1.6-6.1,1.3-12.9-3.1-17.6s-.3-.3-.6-.5c-6.1-3.1-9.7-5.3-8.3-10.8s1.3-2.7,2.4-3.5c5.2-3.8,10.4-7.4,15.6-11,7.7-5.7,20.4,1.4,19.5,9l-.2-.2ZM41.4,37.9h0c-.9.9-.8,2.5.3,3.1,2.4,1.3,4.7,2.7,6.9,4.1s.6.8.8,1.3c1.1,5,1.6,10.2,3.3,15.1l.5,1.7c0,5,10.4,9.9,13.4,3.8,2.2-7.9,1.3-16.7,2-24.7.5-5.3,0-10.7-2.7-15.6-2.7-4.9-.8-.9-1.4-.9l-3-.6h-2c0,.2-.3.2-.5.3-6.4,2-12.6,8.6-17.8,12.6s0,0,0,0l.2-.2Z"/>
  <path id="p76" class="cls-4" d="M59.5,25.2h.8c0,.2.6.5.6.5l.5-.6,3.9.5c-9.6,4.1-13,10.8-23.9,11.9,5.2-3.9,11.6-10.2,18.1-12.3Z"/>
  <path id="p78" class="cls-8" d="M65.3,25.8v-.3c3,5.2,3.8,11,3.3,16.5-.6,8,.3,16.8-2,24.7-2.9,6.9-13.4,2.1-13.4-3.8l-.5-1.7c-1.6-4.4-2.4-8.7-3-13.4s-1.8-2.8-3.2-3.8-3.4-2-5.1-2.9-1.1-2.8,0-3.7h0c9.7-3,14.5-7.9,23.9-11.9v.3Z"/>
</svg>