<?xml version="1.0" encoding="UTF-8"?>
<svg id="_Слой_1" data-name=" Слой 1" xmlns="http://www.w3.org/2000/svg" version="1.1" viewBox="0 0 100.2 107.1">
  <defs>
    <style>
      .cls-1 {
        fill: #001989;
      }

      .cls-1, .cls-2, .cls-3, .cls-4, .cls-5, .cls-6, .cls-7, .cls-8, .cls-9 {
        stroke-width: 0px;
      }

      .cls-2 {
        fill: #e75047;
      }

      .cls-3 {
        fill: #00af98;
      }

      .cls-4 {
        fill: #fefefd;
      }

      .cls-5 {
        fill: #d7ddbb;
      }

      .cls-6 {
        fill: #880527;
      }

      .cls-7 {
        fill: #fffffe;
      }

      .cls-8 {
        fill: #001412;
      }

      .cls-9 {
        fill: #ffae91;
      }
    </style>
  </defs>
  <path class="cls-3" d="M50.8,0h-2C49.6-1.5,50.3-1.5,50.8,0Z"/>
  <path class="cls-1" d="M48.8-.1h2c3.4.2,3.5,2.8,5.9,4.3,2.1-1.1,3.5-2.4,6.1-2,3-.2,3.5,3.5,4.2,5.6-1.7,2.5-3.1,5-5,7.3,0-1-.2-2-.3-2.9.6-1,1.3-1.9,1.9-3-.8-1.1-1.6-2-2.5-3-1,.9-2,1.9-2.9,3,.6,1.1,1.4,2.2,2.1,3.3-3.3,1.3-3.4-1.8-5-3.8-.8-.2-1.7-.5-2.5-.6-.4-1-.8-2-1.2-3-.3-1.3-.9-2.1-1.8-2.4-2,0-1.8,1.7-1.8,3.2-.2.7-.5,1.4-.7,2.1-.9.2-1.9.4-2.8.6-1.2,1.3-1.5,4.2-3.7,3.9.5-1.3,1-2.3.5-3.8l-.9-1.6h-.8c-2.5.9-3.1,2.9-1.8,5.2v2.6c-2-2.1-3.3-4.6-4.8-7,.6-2.1,1.6-5.5,4.1-5.9,2.9-.5,4.2,1.3,6.7,2.1,1.6-1.8,2.7-3.6,5-4.5V-.1Z"/>
  <path class="cls-3" d="M49.7,2.8c.9.3,1.5,1.1,1.8,2.4-1.6-.2-2.2-.1-3.6.8,0-1.4-.2-3.1,1.8-3.2Z"/>
  <path class="cls-7" d="M51.5,5.2c.4,1,.8,2,1.2,3-.3.5-.5,1.1-.8,1.6l-.6,1.3c.6,1.4,1.4,2.6,2.1,4-.7.7-1.4,1.3-2.1,1.9-.4-.8,0-3.9-1.3-3.6,0,1.1,0,2.1-.2,3.2-.6-.3-1.3-.6-1.9-.9-1.2,2-1.6,4.5-2.8,6.6-2.5,1.4-5.2,2.2-7.8,3.3-2.5,1.1-4,4.2-6,6.1-3.3,1.8-6.6,2.7-9,5.9-2.6,3.3-5.1,8.2-4.4,12.5v.8c.3,1.7,1.2,3.1,2.2,4.5l.4.6,1,1.4.4.8c0,2.1,0,4.1.2,6.2l.2.8.8,2.1.3.8.3.8c-.9,1.3-1.3,1.7-2.9,2-1.3-2.9-2.8-5.5-2.8-8.8-.2-1.4,0-3.1-1-4.2-1.3-1.7-3-1.5-4.9-2.1,0-1.4.7-2.4,1.1-3.8l.3-.9v-5.4c-1.7,0-3.3.2-5,.2.1-.8.2-1.5.4-2.3,1.9,0,4.3,1.3,5.6-.6,1.8-2.9,3.4-5.9,5.3-8.8-1.2-1.4-2.6-2.7-3.9-4.1,2.1.5,4.4,1.6,6.6,1.6,2-.9,4-2,5.5-3.5-.7-2.4-2.3-4.6-3.4-6.9,1.9,1.4,3.5,3.1,5.3,4.7,2-2.6,2.9-3,6-3.7,1.6-.5,3.2-.7,4.5-1.9,1.8-1.7,3.8-3.1,5.5-4.9,1.2-2.4,1.5-4.8,1.2-7.4.2-.7.5-1.4.7-2.1,1.3-.9,2-1,3.6-.8h0Z"/>
  <path class="cls-5" d="M61,6.3c.9.9,1.8,1.9,2.5,3-.6,1-1.2,2-1.9,3l-1.5.3c-.7-1.1-1.4-2.2-2.1-3.3.9-1.1,1.9-2,2.9-3h0Z"/>
  <path class="cls-1" d="M30.8,9.5c.6,1.6,1.2,3.1,2,4.7v4c-.4-.7-.8-1.4-1.2-2-.8-1.4-1.8-2.7-3-3.8-1,1.1-2,2.3-2.6,3.6.6.9,1.2,1.7,1.9,2.5-.7.5-1.3,1.1-2,1.6-1.7-1.3-3.3-2.7-5.2-3.8,1.2,3.4,3.5,5.7,3.4,9.5-.9-.4-1.4-1.1-2.4-.6-.7-.8-1.3-1.5-2-2.2-1.5,1.5-3.8,2.4-2,4.8-2.4-.8-4.8,0-7.1-1.3-.8-3.1-1.8-6.1.9-8.6,2.2-2.6,5-2.1,8-2.9.6-2.3.1-4.4,2-6.1,2.4-3,7-2,9.3.6Z"/>
  <path class="cls-7" d="M39.6,7.4c0,1.1.7,1.6,1.7,1.4.5,1.5,0,2.5-.5,3.8-1,0-2,0-3-.2-1.3-2.3-.6-4.3,1.8-5.1h0Z"/>
  <path class="cls-3" d="M39.6,7.4h.8c0-.1.9,1.4.9,1.4-1,.1-1.6-.4-1.7-1.4Z"/>
  <path class="cls-1" d="M78.4,8.6c1.6,2,1.2,4,1.7,6.4,3,.7,5.7.3,8,2.9,3.2,2.3,1.2,6.8.9,10.1,1.8.5,3.8.8,5.5,1.5,2.5,1.7,3.5,4.8,3.4,7.7.2,2.7-2,4.9-3.2,7.1,1.4,2,4.8,2.9,5.5,5.4.6,2-.8,4.4-2.3,5.7-.7,0-1.4-.2-2.1-.3-.3-.6-.5-1.2-.8-1.7-2.6-.8-5.4-.8-8-1.9-.2-1.4-.2-2.8-.2-4.2.7.5,1.2,1.4,1.4,2.5l.7-.7c.8.5,1.8,2.1,2.8,1.8,1.5-1.6,2-2.5,1.5-4.7,0-1.2.2-2.5.3-3.7-1.1-.4-2.2-.7-3.4-.9-.4.5-.9,1.1-1.3,1.6l-.7.3c0-2,.4-4.4-.7-6.2-.4,1.1-1,2-1.8,2.8.2-1.4.5-2.7,1-4,1.1-.4,2.7-.9,1.7-2.4-.7-.4-1.5-.3-2.5.5-1.6.5-3.2,1-4.9,1.4l-.6-1.1.6-1.3c1-.2,2.1-.5,3-.9,1-.2,1.2-.9.7-2.1,1.1-1,2.2-1.9,3.3-2.9l-1.1-1c-1.4-1.1-2.5-2.2-3.4-3.8l-.5-1.5-1.1,1c-.7,1.2-1.3,2.3-2.2,3.4-1.3-.7-2.5-1.4-3.6-2.3.5-1.7,1.6-2.6,3-3.6l.8-.4,1.3-.9-1.2-1.1-.8-.3-1.3-.4c-1.6,1.4-2.3,3.1-3,5.1l-.6-.2c-.8-.2-1.6-.5-2.4-.7l1.1-1.5c1.6-.5,1.7-1.2,0-1.9-.9-.5-1.8-1.5-2.9-1.7-.8.6-1.7,1.2-2.5,1.9-.3-.8-.7-1.6-1-2.4l.4-.8c1-1.6,1.6-3,1.9-4.9,2.5-2.8,6.5-3.2,9.5-.8h0Z"/>
  <path class="cls-3" d="M32.9,8.1c1.5,2.4,2.8,4.9,4.8,7v-2.6c1,0,2,.2,3,.2,2.2.4,2.5-2.6,3.7-3.9.9-.2,1.9-.4,2.8-.6.3,2.6,0,5-1.2,7.4-1.7,1.8-3.7,3.2-5.5,4.9-3.6-1.3-4.3-6.7-7.6-8l-.2,1.8c-.7-1.5-1.4-3.1-2-4.7.7-.5,1.4-.9,2.1-1.4h.1Z"/>
  <path class="cls-3" d="M52.7,8.1c.8.2,1.7.4,2.5.6,1.6,2,1.7,5,5,3.8l1.5-.3c0,1,.2,1.9.3,2.9,1.9-2.3,3.3-4.8,5-7.3.6.5,1.3,1.1,2,1.6-.4,1.8-1,3.3-1.9,4.9,0-1-.2-1.9-.4-2.8h-.7c-2,3-2.7,6.3-5.6,8.8,0-.8,0-1.7-.2-2.5-1.6-1-3.4-1.8-4.8-3-.7-1.2-.9-2.7-1.4-3.9-.6-.4-1.3-.7-1.9-1,.3-.5.5-1.1.8-1.6l-.2-.2Z"/>
  <path class="cls-5" d="M51.8,9.8c.6.3,1.3.7,1.9,1,.5,1.3.8,2.7,1.4,3.9,1.4,1.2,3.2,2,4.8,3,0,.8.2,1.7.2,2.5,2.9-2.5,3.6-5.7,5.6-8.8h.7c.2,1,.3,1.9.4,2.9l-.4.8c-1.5,2.9-3.5,5.2-.9,8.3-3.4-1.1-6.5-2.6-9.6-4.3-1.4-.9-2.6-.1-4,.2,1.9,1.7,3.9,3,6,4.3-2.1,2.1.8,2.6,1.7.5.7.2,1.3.4,1.9.7-1,1.6.8,1.8,1.7,2.9,1.5,1.2,2.2,2.9,3.4,4.5,2.6,1.9,6.2,2.8,9.2,3.9.6.6,1.3,1.3,1.8,1.9.6,2.6,1.8,5.3,1.8,8s-2,3.5-3.3,5.3c0,1.5.4,3,.7,4.4-.8-.6-1.6-1.1-2.5-1.6-1.4,1.8-2.1,3.8-2.9,5.8-1.8.2-2.4.7-3.4,2.2l-1.7-.2-1.7.3c-3.2,1.4-6.3,3.2-9.5,4.4-4.2,1.7-9.2,1.1-13.1-1-3.4-1.8-6.9-3.1-10.4-4.6l-.8-.4c-3.2-1.2-3.7-3.9-5.4-6.4-1,.5-1.9,1.1-2.8,1.7.3-1.5.8-3.1.8-4.7-1.2-2-4-3.5-3.4-6.1.7-3.8,2.8-7.7,6.1-9.8,2.1-1.3,4.6-1.9,6.6-3.3,1.6-2,2.8-4.7,5.1-5.9,2.2-1.1,4.6-1.7,6.8-2.6,2.5,4.5-.3,8.2.4,13.3-.2,1.9-.5,3.8-.3,5.7,1,.7,2.1,1,2.9,1.9l-.9.3c-3.6.8-4.1,3-5,6.2.8-.9,1.6-1.8,2.4-2.7,1,.6,1.8,1.3,2.7,2-1.4.6-2.8,1.2-4.2,1.7-1.7.6-1.7,1.2,0,1.8,2.6,1.1,4.9,2.4,7.2,4.1-3.7.7-6.2-1.2-9.4-2.8-.7-1.2-1.5-2.4-1.9-3.7.7-7,3.2-12.8,5.1-19.4,0-.7-.2-1.5-.6-2.2l-.3-.8c.6-.7,1.2-1.4,1.8-2-1.6.5-3.4,1.2-4.7,2.3-1.1,1.3-1.8,2.8-2.7,4.2-3.8,1.2-7.1,1.1-8.6,5.5-1.4,3.2.3,4.7,1.7,7.3-.9,2.7-2.9,4.6-2.5,7.6.2,2.5,2.2,4.1,4.1,5.5l.7.2c1.9.3,3.9.4,5.8.8,3,1.2,5.7,3.5,8.5,5l.7.2c1.5,0,2.9.2,4.3,0l.7-.2c2.6-1.2,4.7-3,7.2-4.4,2.3-1.6,5.9-.6,8.3-1.7,2.7-1.6,4.2-4.2,3.8-7.4,0-2.1-1.6-3.5-2.5-5.3.4-1.8,2.6-3.4,2.4-5.7,0-2.4-2-4.9-3.9-6.2-1.7-.8-3.8-.8-5.6-1.3-.8-1.5-1.4-3.3-2.5-4.7-1.1-.8-2.5-1.4-3.7-1.9.2.7.4,1.4.6,2v1c-.3,1.1-.3,2.1,0,3,1.4,5.5,3.4,10.8,4.5,16.3.5,2.5-.8,4.1-2.2,6-2.8,1.8-5.1,3.5-8.6,2.7,2.5-2.2,5.9-3,8.1-5.3.4-1.5-.4-3.3-.8-4.8-1.1-3.3-2.2-6.6-3.1-9.9.3-1,0-1.8-1-2.1l.2-.8.2-.8c.7-3.4-1.2-6,.8-9.1.9-1.4-1-2.4-2-2.9-1.6,1.5-1.9,2.4-1.8,4.7h-1.8c-.3-2.5-1.4-3.1-3.4-4.2l-1-.6c1.2-2.1,1.5-4.6,2.8-6.6.6.3,1.3.6,1.9.9,0-1.1,0-2.1.2-3.2,1.3-.4.9,2.8,1.3,3.6.8-.6,1.5-1.2,2.1-1.9-.7-1.4-1.5-2.6-2.1-4l.6-1.3.3.4Z"/>
  <path class="cls-9" d="M28.6,12.3c1.2,1.1,2.1,2.4,3,3.8l-.8,1.1c-1,.3-1.3.9-1,1.8-.6-.2-1.2-.3-1.8-.5-.7-.8-1.3-1.7-1.9-2.5.6-1.3,1.6-2.5,2.6-3.6h0Z"/>
  <path class="cls-5" d="M32.9,12.4c3.3,1.3,4,6.7,7.6,8-1.3,1.2-2.9,1.4-4.5,1.9-.8-2.8-1.8-5.6-3.3-8.1,0,0,.2-1.8.2-1.8Z"/>
  <path class="cls-3" d="M32.8,14.2c1.5,2.6,2.4,5.3,3.3,8.1-3.1.7-4,1.1-6,3.7-1.8-1.6-3.4-3.3-5.3-4.7,1.1,2.3,2.7,4.5,3.4,6.9-1.6,1.5-3.6,2.7-5.5,3.5-2.2,0-4.5-1.1-6.6-1.6,1.3,1.4,2.7,2.7,3.9,4.1-1.8,2.9-3.4,5.9-5.3,8.8-1.2,1.8-3.7.5-5.6.6-.1.8-.3,1.5-.4,2.3-1.3,0-2.5-.5-3.8-.8l-.3-1.8c3.1-1.4,6.2-1.3,9.5-1.8.7-1.5.5-3,0-4.5l-.2-.7c1.4-.9,3.2-1,2.9-3-1.7-2-3.9-3.7-5.8-5.4l-.3-1.5c2.3,1.3,4.6.5,7.1,1.3.7.4,1.4.8,2.1,1.1,1.1-1,1.5-2.2,1.9-3.7,1-.5,1.5.2,2.4.6,0-3.8-2.2-6.1-3.4-9.5,1.9,1.1,3.5,2.5,5.2,3.8.7-.5,1.4-1.1,2-1.6.6.2,1.2.4,1.8.5,1,.2,1.4-.4,1-1.8l.8-1.1c.4.7.8,1.4,1.2,2v-4,.2Z"/>
  <path class="cls-3" d="M66.5,15.1c.3.8.7,1.6,1,2.4,1,2,1.6,3.8,4.2,3.2.8.2,1.6.5,2.4.7-1.1,1.6-3,4.4-5.1,4.5-1.2-.8-2.2-1.7-3.3-2.5-2.6-3-.7-5.3.9-8.3h0Z"/>
  <path class="cls-9" d="M70,15.5c1,.2,1.9,1.1,2.9,1.7v1.9c0,0-1.2,1.5-1.2,1.5-2.6.6-3.2-1.2-4.2-3.2.8-.6,1.6-1.3,2.5-1.9Z"/>
  <path class="cls-5" d="M40.9,16.5h.8l.4.7-.4.7h-.8l-.4-.7.4-.7Z"/>
  <path class="cls-3" d="M77.7,16.4l1.3.4c-1.6.9-1.6,1.8-.2,2.7-1.4,1-2.5,1.9-3,3.6,1.1,1,2.3,1.7,3.6,2.3l-.7.9-.8,1c.8,1.4,2.1,2.7,2.5,4.2-3.8.8-5.9-1.8-9.4-2.5,1.3-2.5,2.8-4.8,3.7-7.5.7-1.9,1.4-3.7,3-5.1Z"/>
  <path class="cls-1" d="M30.8,17.2c.4,1.4,0,2-1,1.8-.3-.9,0-1.5,1-1.8Z"/>
  <path class="cls-5" d="M39,17.4q.3.3,0,0Z"/>
  <path class="cls-3" d="M72.9,17.2c1.5.8,1.5,1.4,0,1.9v-1.9h0Z"/>
  <path class="cls-7" d="M79,16.8l.8.3v2c0,0-1,.4-1,.4-1.5-.9-1.4-1.8.2-2.7Z"/>
  <path class="cls-3" d="M79.9,17.1l1.2,1.1-1.3.9v-2h.1Z"/>
  <path class="cls-7" d="M56,19c3.2,1.7,6.2,3.2,9.6,4.3,1.1.8,2.2,1.8,3.3,2.5,2.1,0,4-3,5.1-4.5l.6.2c-.9,2.7-2.4,5-3.7,7.5,3.6.8,5.6,3.3,9.4,2.5l.4,1.6-.6,1.3.6,1.1c2.1,2.7,3,6.1,4.9,8.8.8-.3,1.5-.6,2.2-.9l.7-.3c0,.8-.3,1.6-.4,2.4-.8,0-1.6,0-2.5.2,0,3.4,0,6.8-.9,10.1-.9,1-2.2,2-2.6,3.3-.9,2.1-.7,4.4-.6,6.7l-1.1,1.2c-1.3.6-2.6,1.1-3.9,1.6v-.6l.4-.9.3-.8c.4-1.2.7-2.3.9-3.5v-1.7c0-.6,0-.8-.4-.8.2-.9.2-1.9,0-2.9,3.1-2.4,3.9-4.7,4.4-8.5v-.6l-.6-2.1c-.8-3-1.6-5.9-3.9-8.1-.6-.7-1.2-1.3-1.8-1.9-2-2.4-4.8-3.2-7.4-4.8-2.4-2.4-3.4-5.3-6.9-6.6-.6-.2-1.3-.5-1.9-.7l-1.7-.5c-2.1-1.3-4.2-2.7-6-4.3,1.5-.4,2.6-1.1,4-.2h0Z"/>
  <path class="cls-9" d="M82.9,21l.5,1.5-1.7-.5,1.1-1h0Z"/>
  <path class="cls-2" d="M45,22.3l1,.6-1.1,1c-2.2.9-4.7,1.5-6.8,2.6-2.4,1.2-3.5,3.9-5.1,5.9-2,1.4-4.6,1.9-6.6,3.3-3.4,2.1-5.4,6-6.1,9.8-.6,2.6,2.2,4.1,3.4,6.1,0,1.5-.4,3.2-.8,4.7l-1.3,1.2-1-1.4-.4-.6c-1-1.4-1.9-2.7-2.1-4.5.5-.3.4-.5-.1-.8-.7-4.3,1.8-9.2,4.4-12.5,2.4-3.2,5.7-4.1,9-5.9,1.9-1.9,3.4-5,6-6.1s5.3-2,7.8-3.3h-.2Z"/>
  <path class="cls-7" d="M53,22.4c1,.5,2.9,1.5,2,2.9-2,3.1,0,5.7-.8,9.1l-1.1-1.4-.5-1.9c-.4-1.4-.9-2.7-1.4-4,0-2.2,0-3.1,1.8-4.7Z"/>
  <path class="cls-5" d="M81.7,22l1.7.5c.9,1.5,2,2.6,3.4,3.8-2.2,1.6-3.3,3-4.4,5.5-1.2-1.8-2.3-3.7-3.6-5.5l.7-.9c.9-1.1,1.5-2.2,2.2-3.4Z"/>
  <path class="cls-7" d="M19.7,23c.7.7,1.3,1.5,2,2.2-.4,1.4-.8,2.6-1.9,3.7-.7-.3-1.4-.7-2.1-1.1-1.8-2.4.5-3.3,2-4.8Z"/>
  <path class="cls-7" d="M46,22.9c2,1.2,3.1,1.7,3.4,4.2-1.4,2-1.4,3.5-1.4,5.8-.7,1.5-1.9,2.8-2.8,4.2-.7-5.1,2.1-8.7-.4-13.3l1.1-1h.1Z"/>
  <path class="cls-9" d="M68,23.4h.5v.5h-.5v-.5Z"/>
  <path class="cls-2" d="M58.1,23.6l1.7.5c-.8,2-3.8,1.5-1.7-.5Z"/>
  <path class="cls-9" d="M61.7,24.8c3.5,1.3,4.5,4.2,6.9,6.6,2.6,1.5,5.4,2.3,7.4,4.8-3.1-1.1-6.6-2-9.2-3.9-1.2-1.6-1.9-3.3-3.4-4.5-.9-1.1-2.7-1.3-1.7-2.9h0Z"/>
  <path class="cls-9" d="M78.8,26.3c1.3,1.8,2.4,3.6,3.6,5.5,1.1-2.5,2.1-3.9,4.4-5.5l1.1,1c-1.1,1-2.2,2-3.3,2.9-.9.5-1.1,1.2-.7,2.1-1,.4-2,.7-3,.9l-.4-1.6c-.5-1.5-1.7-2.8-2.5-4.2l.8-1h0Z"/>
  <path class="cls-5" d="M26,27.4q.3.3,0,0Z"/>
  <path class="cls-6" d="M44.7,27.2c-.6.7-1.2,1.4-1.8,2-2.9.9-2.9,2.8-3.9,5.3-2.5,1-6.2.6-7.8,3.1-.9,1.1-1.5,2.2-1.4,3.6-.4,2.5,2.2,3.4,3.6,5-1.6,1.9-3.3,3.2-3.8,5.9-.4,2-.6,2.8,1.2,4.2,3,3,6.7,1.1,9.9,3.2,3.3,2,6.1,4.8,10.2,4.5,3.7-.2,6.2-3.7,9.4-5.2,2.3-.6,4.7-.4,6.9-1.1,2.9-1.1,4.2-4.6,3.1-7.5-1.3-1.4-2.7-2.6-4.1-3.9,1-1,2.5-1.9,3.3-3.1.7-2.3-.3-5-1.8-6.8-1.8-1.1-4.2-1.2-6.2-1.9-1.6-2.3-1.2-5.5-4.7-5.3-.2-.7-.4-1.4-.6-2,1.3.6,2.6,1.1,3.7,1.9,1.1,1.4,1.6,3.2,2.5,4.7,1.8.5,3.9.5,5.6,1.3,1.9,1.3,3.8,3.8,3.9,6.2.2,2.2-2,3.9-2.4,5.7,1,1.8,2.5,3.2,2.5,5.3.4,3.2-1.1,5.8-3.8,7.4-2.4,1.2-6,0-8.3,1.7-2.5,1.4-4.6,3.2-7.2,4.4l-.7.2c-1.4,0-2.9,0-4.3,0l-.7-.2c-2.8-1.5-5.6-3.9-8.5-5-1.9-.4-3.9-.5-5.8-.8l-.7-.2c-1.9-1.4-3.9-3-4.1-5.5-.4-3,1.5-5,2.5-7.6-1.4-2.6-3.1-4.2-1.7-7.3,1.5-4.4,4.9-4.3,8.6-5.5.9-1.4,1.7-2.9,2.7-4.2,1.3-1.1,3.1-1.7,4.7-2.3v-.2Z"/>
  <path class="cls-3" d="M49.4,27.1h1.8c.5,1.3,1,2.7,1.4,4l-1.5.5c-.5,3.8,0,7.8-.3,11.6-1,.5-1.9,1.1-2.9,1.5-.8-1-1.9-1.2-2.9-1.9-.2-1.9,0-3.8.3-5.7.9-1.4,2-2.7,2.8-4.2,0-2.3,0-3.8,1.4-5.8h0Z"/>
  <path class="cls-3" d="M9,28.3c-.6,1-1.4,1.1-2.4.6.6-.8,1.4-1,2.4-.6Z"/>
  <path class="cls-1" d="M9,28.3l1.9-.3c2,1.7,4.2,3.4,5.8,5.4.3,2-1.6,2.1-2.9,3l-1.1-1.2-.2-1.8h-.8c-1.4,1.5-3.2,2.8-2.4,5.2l.9,1.6h.8c1.3-.2,2.2-2.2,3-3,.5,1.5.8,2.9,0,4.5-3.3.5-6.4.3-9.5,1.8-1-1.9-2.5-4-2.7-6.2.3-3.5,1.2-6.8,4.8-8.3,1,.6,1.8.4,2.4-.6h0Z"/>
  <path class="cls-9" d="M42.9,29.2l.3.8c-.9.7-1.6,1.6-2,2.5,0,1.5,2.1,0,2.6-.3-1.9,6.7-4.4,12.5-5.1,19.4.5,1.3,1.2,2.5,1.9,3.7-4.5,0-7.5-.3-11-3.4.4-2.6,2.2-4,3.8-5.9-1.4-1.5-4-2.5-3.6-5,0-1.4.5-2.5,1.4-3.6,1.6-2.4,5.3-2.1,7.8-3.1,1-2.5,1-4.4,3.9-5.3v.2Z"/>
  <path class="cls-9" d="M56.8,29.2c3.5-.2,3.1,3,4.7,5.3,2,.7,4.4.9,6.2,1.9,1.5,1.7,2.5,4.5,1.8,6.8-.7,1.3-2.2,2.1-3.3,3.1,1.3,1.3,2.8,2.5,4.1,3.9-.7,5.3-7.2,4.9-11.2,5.3,1.4-1.9,2.7-3.5,2.2-6-1.1-5.5-3.1-10.9-4.5-16.3,3.2.3,2-2.4,0-3v-1h.1Z"/>
  <path class="cls-2" d="M43.1,30c.4.7.6,1.5.6,2.2-.5.4-2.6,1.8-2.6.3.4-1,1.1-1.8,2-2.5Z"/>
  <path class="cls-1" d="M56.7,30.1c2.1.6,3.3,3.3,0,3-.3-.9-.4-1.9,0-3Z"/>
  <path class="cls-3" d="M84.6,30.1c.6,1.2.3,1.9-.7,2.1-.4-.9-.2-1.6.7-2.1Z"/>
  <path class="cls-1" d="M51,31.7l1.5-.5.5,1.9c-.4,1.1-.2,1.8.9,2.2l-.2.8c-.4,1,0,1.7,1,2.1.9,3.4,1.9,6.6,3.1,9.9.4,1.4,1.2,3.3.8,4.8-2.3,2.3-5.7,3.1-8.1,5.3h-.5c-2.3-1.6-4.6-2.9-7.2-4v-1.8c1.4-.5,2.8-1.1,4.2-1.7,1.1-.5,2.3-1,3.3-1.7.3-1.8.3-3.7.4-5.6.2-3.9-.2-7.8.3-11.6h0Z"/>
  <path class="cls-9" d="M11.7,33.3c-.2,1,.1,1.6,1,1.9l1.1,1.2.2.7c-.8.8-1.7,2.9-3,2.9,0-1.1-.6-1.6-1.7-1.5-.9-2.4,1-3.6,2.4-5.3h0Z"/>
  <path class="cls-3" d="M11.7,33.3h.8c0,0,.2,1.9.2,1.9-.9-.3-1.3-1-1-1.9Z"/>
  <path class="cls-3" d="M53.1,33.1l1.1,1.4-.2.8c-1-.4-1.3-1.1-.9-2.2Z"/>
  <path class="cls-5" d="M88.3,33.7c1.1,1.5-.5,2-1.7,2.4-.3-.6-.5-1.2-.8-1.9,1-.8,1.8-.9,2.5-.5Z"/>
  <path class="cls-3" d="M85.8,34.2c.3.6.5,1.3.8,1.9-.5,1.3-.8,2.6-1,4,.7-.8,1.3-1.7,1.8-2.8,1.1,1.8.7,4.1.7,6.2-.7.3-1.5.6-2.2.9-1.9-2.8-2.8-6.1-4.9-8.8,1.7-.4,3.3-.9,4.9-1.4h-.1Z"/>
  <path class="cls-3" d="M53.8,36.1c1,.3,1.3,1,1,2.1-1-.4-1.4-1.1-1-2.1Z"/>
  <path class="cls-1" d="M26,37.2c1,0,1.5.3,1.5,1.3l-.5.7c-1.7.7-2.7-1.1-1-2Z"/>
  <path class="cls-1" d="M72.9,37.4c1.7-1.1,3,1.7.9,2-1.1-.3-1.4-1-.9-2Z"/>
  <path class="cls-3" d="M9.3,38.5c1,0,1.6.4,1.7,1.5h-.8s-.9-1.5-.9-1.5Z"/>
  <path class="cls-3" d="M27.5,38.4v.6l-.5.2.5-.7h0Z"/>
  <path class="cls-2" d="M77.8,38.1c2.4,2.2,3.1,5.1,3.9,8.1-1.8,3.3-3.5,6.7-4.2,10.4l-.4-.8c-.4-1.4-.8-3-.7-4.4,1.3-1.8,3.3-2.9,3.3-5.3s-1.2-5.4-1.8-8h-.1Z"/>
  <path class="cls-2" d="M37.8,39.2v2.9c-1.3,0-2.5,0-3.7,0-1-2,2.5-2.7,3.8-2.8h0Z"/>
  <path class="cls-6" d="M65.7,42.1c-1.5,0-3.5.3-3.5-1.8,1.6-1.4,3.9-.6,3.5,1.8Z"/>
  <path class="cls-3" d="M90,41.6c1.2,0,2.3.5,3.4.9,0,1.2-.2,2.5-.3,3.7-.8-.7-1.7-1.4-2.6-2.1-1.1,1.5-1.4,3.2-1.7,5.1l-.7.7c-.2-1.2-.7-2-1.4-2.5,0,1.4,0,2.8.2,4.2,2.6,1.1,5.4,1.1,8,1.9.3.6.5,1.2.8,1.7.7,0,1.4.2,2.1.3-.7.8-1.5,1.5-2.2,2.3-2.2,0-4.4-.3-6.6,0-.7,0-1.4.3-2.1.5,1.9,3,4.4,5.3,7.3,7.3-.5,1.1-1.1,2.5-2.2,3.2-1.8.5-4,0-5.8-.2-.7,2.9,1,4.2,2.2,6.7-.2.5-.4,1-.7,1.5-4.3,1.1-7.9-.8-11.8,2.3.8.2,1.6.3,2.4.5l-.4,1.1h-4.8c-.8,1.2-1.4,2.4-2.1,3.7-.2-.9-.4-1.7-.6-2.6-1.5,2.3-1.8,5.6-3.5,8.1-2-1.6-3.3-3.5-6.1-3.3h-22c-2,0-3.4,1-5,1.8-.4-.8-.8-1.6-1.3-2.3-.9,0-1.7,0-2.6-.2.5-.9,1.1-1.7,1.6-2.5-1.2.3-2.4.6-3.6.9-.7-1.6-1.3-3.2-2.1-4.8-1,1-1.9,2.1-2.8,3.2.3-1.5.6-3.1.9-4.6-1.7.3-3.3.3-5,.9l-.4-1.4c-1.6-1.9-3.1-3.4-3.6-5.9.5-.5,1.1-1,1.6-1.5-.1-.7-.3-1.4-.5-2.1-2.6.5-5,1.3-7.7,1-.5-1.2-1-2.4-1.2-3.7,1.6-1.4,3.3-2.4,4.5-4.3.6-1,1.5-1.1,2.5-1.6-1.8-2.4-6.3-1.3-8.9-2.6-.8-.4-1.5-.7-2.2-1.1.7-.8,1.5-1.6,2.2-2.5,1,1.1,2,2.2,3,3.2,1-.9,1.9-1.8,2.6-2.9-.5-.9-1-1.8-1.5-2.6,1.5.5,2.9.9,4.4,1.3-.4,1.3-1.1,2.4-1.1,3.8,1.9.6,3.7.4,4.9,2.1,1,1,.8,2.8,1,4.2,0,3.3,1.5,5.9,2.8,8.8-1.1.5-2.2,1.1-3.2,1.8,4.1-.2,5.9,1.9,8.9,4.2l-.3,1.2c4,2.3,8.2,2.3,12.7,1.9.6.4,1.2.8,1.7,1.2,1.3,3.1,4.3,3.5,7.3,3.9,4.8.4,9.2-.5,13.2-3.4,3.3-2.6,8.3-.8,12.1-2.9,2.7-1.7,6-3.2,5.7-6.9.5-1,1-2.1,1.5-3.1.9,0,3.1,0,2.8-1.4-.4-.6-1-1.1-1.8-1.4,0-2.2-.3-4.6.6-6.7,2.6,1.4,4.1-1.1,2.6-3.3.8-3.4.8-6.7.9-10.1.8,0,1.6,0,2.5-.2.2-.8.3-1.6.4-2.4.4-.6.8-1.1,1.3-1.6l-.2-.4Z"/>
  <path class="cls-7" d="M50.8,43.3c0,1.9-.2,3.7-.4,5.6-1,.7-2.2,1.2-3.3,1.7-.5-1.1-.8-2.2-1.1-3.3.3-.8.6-1.5,1-2.2l.9-.3c1-.4,2-.9,2.9-1.5Z"/>
  <path class="cls-5" d="M90.6,44c.9.7,1.8,1.4,2.6,2.1.4,2.2,0,3.1-1.5,4.7-1,.4-2-1.3-2.8-1.8.3-1.8.6-3.5,1.7-5.1h0Z"/>
  <path class="cls-1" d="M4.9,45.1c1.3.3,2.5.6,3.8.8,1.7,0,3.3-.2,5-.2v2.6c-2.2-1-2.3,1.7,0,.9v1c-2.2-.9-2.3,1.8,0,.9l-.3.9c-1.5-.4-2.9-.8-4.4-1.3l-.4-.5c-.5-1.6-1.1-1.7-1.8,0-.6,1-1.3,2-1.9,2.9-.7.8-1.4,1.7-2.2,2.5-1-.5-1.9-1.1-2.7-1.7-.3-1.7-.4-3.6,0-5.2,1-1.8,3-2.5,4.8-3.5h0Z"/>
  <path class="cls-6" d="M24.9,45.5c1.8-1.2,3,1.6.8,2-1.2-.3-1.4-1-.8-2Z"/>
  <path class="cls-3" d="M46.9,45.1c-.4.7-.7,1.5-1,2.2.2,1.1.6,2.2,1.1,3.3-.9-.7-1.8-1.4-2.7-2-.8.9-1.6,1.8-2.4,2.7.9-3.2,1.4-5.4,5-6.2Z"/>
  <path class="cls-2" d="M75.3,46.4v.7l-1.6.7-.8-.4c-.6-1.8,1.4-2.3,2.3-.9h0Z"/>
  <path class="cls-3" d="M75.3,46.4l.2.2-.3.4v-.7h.1Z"/>
  <path class="cls-6" d="M81.7,46.2l.6,2.1v.6c-.5,3.8-1.3,6.1-4.4,8.5l-.5-.9c.8-3.7,2.4-7.1,4.2-10.4h.1Z"/>
  <path class="cls-1" d="M73,47.3l.8.4h-.6c0,0-.2-.4-.2-.4Z"/>
  <path class="cls-3" d="M13.7,48.3v.9c-2.3.8-2.2-1.9,0-.9Z"/>
  <path class="cls-6" d="M36.7,48.3c0,.8-.2,1.6-.4,2.4-1.1,1-2,1.4-3.5,1.4.2-2.8.6-4.4,3.8-3.9h.1Z"/>
  <path class="cls-6" d="M64.7,48c1.8.9,3.6,3,1.2,4.3-1-.4-1.8-1.2-2.4-2.2,0-1.1.5-1.8,1.2-2.1Z"/>
  <path class="cls-3" d="M82.3,48.3v.6-.6Z"/>
  <path class="cls-3" d="M8.7,50.2h-1.8c.7-1.7,1.3-1.6,1.8,0Z"/>
  <path class="cls-5" d="M6.8,50.1h1.8l.4.6c.5.8,1,1.7,1.5,2.6-.8,1-1.7,2-2.6,2.9-1-1-2-2.1-3-3.2.6-1,1.3-2,1.9-2.9Z"/>
  <path class="cls-3" d="M13.7,50.2v.9c-2.3.8-2.2-1.9,0-.9Z"/>
  <path class="cls-1" d="M17.9,50.2c.5.2.6.5.1.8v-.8h-.1Z"/>
  <path class="cls-2" d="M70.3,50.1c1.1,2.8-.2,6.4-3.1,7.5-2.2.6-4.7.5-6.9,1.1-3.2,1.6-5.7,5-9.4,5.2-4.1.4-6.9-2.5-10.2-4.5-3.2-2.1-6.9-.2-9.9-3.2-1.7-1.3-1.5-2.2-1.2-4.2,3.5,3.1,6.5,3.3,11,3.4,3.2,1.5,5.7,3.5,9.4,2.8h.5c3.5.7,5.8-.9,8.6-2.7,4-.4,10.5,0,11.2-5.3h0Z"/>
  <path class="cls-3" d="M42.8,52.3v1.8c-1.7-.6-1.7-1.2,0-1.8Z"/>
  <path class="cls-5" d="M88,53.2c1.2.7,2.1,1.7,2.8,2.9h-3.8c-.2-.9,0-1.8,1-2.8h0Z"/>
  <path class="cls-3" d="M14,54.4h.5v.5h-.5v-.5Z"/>
  <path class="cls-9" d="M25.6,54.4c1.8,2.5,2.2,5.2,5.4,6.4-1.7,0-2.9,1.2-1,2.3,1.2.3,1.8-.4,1.8-1.9,3.5,1.4,7,2.8,10.4,4.6,3.9,2.1,9,2.8,13.1,1,3.2-1.2,6.4-3,9.5-4.4-.7,2.7,1.9,1.8,1.7-.3l1.7.2c2.5,1.8,3.7.5,3.4-2.2.8-2.1,1.5-4.1,2.9-5.8.8.5,1.7,1.1,2.5,1.6l.4.8.5.9c-1.2.6-1.4,1.5-.8,2.8l-.3.8c-2.6,2.8-5.1,5.3-8.9,6.3-2.2.6-4.7,0-6.8.6-2.5,1.3-4.6,3.5-7.5,4.1-4.9.8-9.6,0-13.6-3.1-2-1.6-4.3-1-6.8-1.4-3.6-.3-6.8-3.3-9.6-5.3-.5-1.3-1.1-2.7-1.8-4l-.4-.8,1.3-1.2c.9-.6,1.9-1.2,2.8-1.7v-.3Z"/>
  <path class="cls-5" d="M10,55.4q.3.3,0,0Z"/>
  <path class="cls-1" d="M20.1,55.5l.4.6-.4-.6Z"/>
  <path class="cls-1" d="M4.9,56.7c2.6,1.3,7.1.2,8.9,2.6-1,.5-2,.6-2.5,1.6-1.1,1.9-2.9,2.9-4.5,4.3.3,1.3.7,2.5,1.2,3.7,2.7.2,5.1-.5,7.7-1,.2.7.4,1.4.5,2.1-.5.5-1,1-1.6,1.5-.7-.4-1.3-.8-2-1.2-.5.9-.9,1.8-1.3,2.8-.9.5-1.2,1.2-.8,2.2-.7.4-1.4.8-2.1,1.2-.6.7-.9,1.6-1,2.7-2.2-.6-3.4-1.4-4.2-3.6-1.4-2.1,1.1-4.9,1.5-7.2-1.4-2.4-3.8-3.7-3-6.8.8-1.7,2-3.2,3-4.8h.2Z"/>
  <path class="cls-1" d="M84.9,55.9c1.5,2.2,0,4.7-2.6,3.3.4-1.3,1.7-2.3,2.6-3.3Z"/>
  <path class="cls-2" d="M77.9,57.5c.2,1,.3,2,0,2.9h-.9c-.6-1.4-.4-2.3.8-2.9h0Z"/>
  <path class="cls-1" d="M89,57.7c2.2-.2,4.4,0,6.6,0,.9,1.4,2.3,2.7,2.3,4.5.4,2.6-1.9,4.6-3,6.8,1.2,2.5,3.1,4.5,1.1,7.3-1.8,2.8-4.5,2.5-7.2,3.8.4,2.4,1.7,5,.4,7.3-.6,1.8-2.1,2.3-3.6,3.1l-.7.2c-1.8.4-3.9.2-5.6,1-.8,2.3-1.1,5.4-2.8,7.2-2.4,2.1-5.5,3.1-8.7,3.4-.4-1-1.2-1.3-2.3-.9-2.1-.5-4-1.4-6-2.2-2,2-3.8,5.5-6.7,6.2-5,2.3-10.1-1.8-12.5-6-2,0-4.3,1.7-6.3,2.1-3.3,1.5-6.7-.2-9.7-1.6l-.5-.4c-2.4-2.1-2.4-6.2-4.5-8.1-3.8-.4-6.8-.4-9-4-1.4-2.4-.4-4.2.3-6.5.8,1,1.4,4.3,2.9,4.2.5-.6,1-1.2,1.5-1.8.8-.7.9-1.5.4-2.3,1.1-.8,2.2-1.6,3.3-2.4,1.6-.6,3.3-.6,5-.9-.3,1.5-.7,3.1-.9,4.6v.8c.5,1.1,1.6,2,2.6,2.8.8-.7,1.6-1.3,2.3-2,1.2-.3,2.4-.6,3.6-.9-.5.8-1.1,1.7-1.6,2.5.9,0,1.7,0,2.6.2.5.7.9,1.5,1.3,2.3-.5,1.6-1.2,3.3-.9,5,.3,1.9,1.7,3.1,2.9,4.5.8,1.5,1.4,1.5,2,0,6.3.7,12.7.2,19,.4,2.6,0,6.2.5,8.2-1.5s1.7-4.4,1.9-7c1.7-2.5,2-5.8,3.5-8.1.2.8.4,1.7.6,2.6.7-1.2,1.2-2.5,2.1-3.6h1.9c-.2,3.1-2,3.9-4.3,5.5l-.7.5v.8h1.8c2.1,1.2,2.9,2.1,3.8,4.4l.7,1.6c1.2-1.7,1.8-3.8,3.4-5.1.9-1,1.9-1.5,2-2.9,0-1-.5-1.3-1.8-.9l-1.2-.9c.4-1,.2-1.8-.8-2.2l.2-.8.4-1.1c-.8-.2-1.6-.3-2.4-.5,3.9-3.1,7.4-1.2,11.8-2.3.3-.5.5-.9.7-1.5-1.2-2.4-2.9-3.7-2.2-6.7,1.8,0,4,.8,5.8.2,1.1-.6,1.7-2.1,2.2-3.2-2.9-2-5.4-4.3-7.3-7.3.7-.2,1.4-.4,2.1-.5v.3Z"/>
  <path class="cls-6" d="M21.9,58.2c.6,1.3,1.2,2.6,1.8,4,.6,2.3,1.2,4.4,3.1,6.1,2.9,2.8,7.2,2.5,10.9,3,1.9,0,3.5,1.8,5.2,2.7,5.1,2.2,11.1,2.3,15.9-.8,4.1-3.2,9.3-1.2,13.7-4.4,3.1-1.8,3.4-4.6,4.4-7.8l.3-.8h.9l.3.9v1.7c-.2,1.2-.6,2.4-.9,3.5l-.3.8-.4.9-.6.8c-1.2,1.2-2.3,2.5-3.7,3.6l-.5.3c-1.5.9-2.9,1.7-4.6,1.8h-.5c-1.8.3-3.5.3-5.3,0h-.6c-1.8,1.2-3.5,2.6-5.6,3.6l-.6.2c-1.4.4-2.9.7-4.3.9h-.5c-3.1-.3-6-.8-8.5-2.8l-.4-.3c-.8-.6-1.7-1.2-2.5-1.7h-.2c0,0-.4,0-.4,0-1.8.3-3.5.4-5.3,0l-.8-.2-2.1-.8-.7-.4c-.8-.5-1.6-1.1-2.4-1.7l-.5-.4c-.8-.8-1.6-1.7-2.4-2.5l-.3-.8-.3-.8-.8-2.1-.2-.8c-.3-2.1-.2-4.1-.2-6.2v.5Z"/>
  <path class="cls-3" d="M32,59.6l.7.2-.7-.2Z"/>
  <path class="cls-2" d="M71.7,60.1c.3,2.8-.9,4-3.4,2.2.9-1.6,1.6-2,3.4-2.2Z"/>
  <path class="cls-3" d="M78,60.3c.4,0,.5.3.3.8l-.3-.8Z"/>
  <path class="cls-6" d="M31.1,60.8l.8.4c0,1.6-.6,2.2-1.8,1.9-1.8-1.2-.7-2.4,1-2.3Z"/>
  <path class="cls-2" d="M76.9,61c-1,3.2-1.3,6-4.4,7.8-4.4,3.1-9.6,1.1-13.7,4.4-4.8,3.1-10.8,3-15.9.8-1.7-.9-3.2-2.6-5.2-2.7-3.7-.5-8-.2-10.9-3-1.9-1.7-2.5-3.8-3.1-6.1,2.8,2,6,5.1,9.6,5.3,2.5.4,4.8-.2,6.8,1.4,3.9,3,8.7,3.9,13.6,3.1,2.8-.6,5-2.8,7.5-4.1,2.2-.5,4.6,0,6.8-.6,3.8-1,6.3-3.6,8.9-6.3h0Z"/>
  <path class="cls-5" d="M82.8,61.6c2,0,4,0,6,0,0,1.9,0,3.9-1,5.6-1.6-.6-3.2-1.4-4.7-2.3-.2-1-.3-2.1-.2-3.2h-.1Z"/>
  <path class="cls-3" d="M16,62.5q.3.3,0,0Z"/>
  <path class="cls-6" d="M64.9,62.4l1.7-.3c.2,2.1-2.4,3-1.7.3Z"/>
  <path class="cls-3" d="M78.4,62.2v.7-.7Z"/>
  <path class="cls-7" d="M12.1,63.3l.7-.4.7.4v.8l-.7.4-.7-.4v-.8Z"/>
  <path class="cls-3" d="M84,63.4q.3.3,0,0Z"/>
  <path class="cls-3" d="M86,63.4c1.7-1.1,2.4,1.2.6,1.7-1-.2-1.2-.8-.6-1.7Z"/>
  <path class="cls-3" d="M22.1,64.4l.2.8-.2-.8Z"/>
  <path class="cls-5" d="M11,65.4q.3.3,0,0Z"/>
  <path class="cls-7" d="M12.9,65.5h.8l.4.7-.4.7h-.8l-.4-.7.4-.7Z"/>
  <path class="cls-3" d="M47,65.6l.7.2-.7-.2Z"/>
  <path class="cls-3" d="M52.7,65.7l-.7.2.7-.2Z"/>
  <path class="cls-3" d="M77.4,66.4l-.3.8.3-.8Z"/>
  <path class="cls-1" d="M81.7,65.9c.8.4,1.4.8,1.8,1.4.2,1.4-1.9,1.4-2.8,1.4v-1.7l1-1.2h0Z"/>
  <path class="cls-3" d="M6.1,67.3q.3.3,0,0Z"/>
  <path class="cls-3" d="M23.1,67.3l.3.8-.3-.8Z"/>
  <path class="cls-5" d="M80.6,67.1v1.7c-.5,1-1,2.1-1.5,3.1-2,2.6-4.1,4.3-7.1,5.5-3.5.3-7.2.4-10.7,1.2-.6.5-1.1,1.1-1.6,1.6l-1.2,1.2-.5.3c-2.6,1.2-5.3,1.7-8.1,2.3-.5-1-1.2-1.2-2.2-.7-2.5-.4-4.7-1-6.9-2.2-.6-.4-1.1-.8-1.7-1.2-1.6-1.1-3.3-.8-5.2-1-2.7,0-4.8-1.2-7.2-2.2-2.9-2.3-4.8-4.3-8.9-4.2,1-.8,2.1-1.3,3.2-1.8,1.6-.3,2-.7,2.9-2,.8.8,1.6,1.7,2.4,2.5l.5.4c.8.6,1.6,1.2,2.4,1.7l.7.4,2.1.8.8.2c1.8.3,3.5.2,5.3,0h.6c.8.6,1.7,1.2,2.5,1.8l.4.3c2.6,2,5.4,2.5,8.5,2.8h.5c1.5-.3,2.9-.6,4.3-.9l.6-.2c2-1,3.7-2.4,5.6-3.6h.6c1.8.2,3.5.2,5.3,0h.5c1.7-.2,3.1-1,4.6-1.9l.5-.3c1.3-1.1,2.5-2.3,3.7-3.6l.5-.2c1.3-.5,2.6-1.1,3.9-1.6h-.1Z"/>
  <path class="cls-3" d="M76.7,68.2v.6l-.6.2s.6-.8.6-.8Z"/>
  <path class="cls-5" d="M12.8,70.2c.7.4,1.3.8,2,1.2.5,2.6,2,4,3.6,5.9-2.9,1.3-3.7,2.6-5,5.4-1.6-2.1-3-4.4-4.8-6.3.7-.4,1.4-.8,2.1-1.2,1-.4,1.3-1.1.8-2.2.4-.9.8-1.9,1.3-2.8Z"/>
  <path class="cls-5" d="M82,70.4q.4.3,0,0Z"/>
  <path class="cls-3" d="M26.2,71.4l.5.4-.5-.4Z"/>
  <path class="cls-3" d="M72.5,72.5l-.5.3.5-.3Z"/>
  <path class="cls-1" d="M79.1,71.9c.3,3.7-3,5.2-5.7,6.9-3.8,2.2-8.8.3-12.1,2.9-4,2.9-8.4,3.8-13.2,3.4-3-.4-6-.8-7.3-3.9,2.2,1.2,4.4,1.8,6.9,2.2.5.9,1.3,1.1,2.2.7,2.8-.6,5.5-1,8.1-2.3l.5-.3,1.2-1.2c4.2-1.5,8.3-.6,12.3-2.8,3.1-1.2,5.1-2.9,7.1-5.5h0Z"/>
  <path class="cls-5" d="M80.9,72.5h.8l.4.7-.4.7h-.8l-.4-.7.4-.7Z"/>
  <path class="cls-5" d="M83,72.4q.3.3,0,0Z"/>
  <path class="cls-3" d="M11.6,73c.5,1.1.2,1.8-.8,2.2-.4-.9,0-1.7.8-2.2Z"/>
  <path class="cls-3" d="M29,73.5l.7.4-.7-.4Z"/>
  <path class="cls-5" d="M19,74.4q.3.3,0,0Z"/>
  <path class="cls-3" d="M31.8,74.6l.8.2-.8-.2Z"/>
  <path class="cls-3" d="M38.4,74.7h.2c0,0-.6,0-.6,0,0,0,.4,0,.4,0Z"/>
  <path class="cls-3" d="M61.2,74.8h.4-.6c0,0,.2,0,.2,0h0Z"/>
  <path class="cls-3" d="M67.5,74.7h-.5.5Z"/>
  <path class="cls-9" d="M8.7,76.4c1.8,2,3.1,4.2,4.8,6.3,1.4-2.8,2.1-4.1,5-5.4l.4,1.4c-1.1.8-2.2,1.6-3.3,2.4-1,.5-1.1,1.3-.4,2.3-.5.6-1,1.2-1.5,1.8-1.4,0-2-3.2-2.9-4.2-.6-1.2-2.1-1.4-3.2-1.9.1-1.1.5-2,1-2.7h0Z"/>
  <path class="cls-3" d="M41.1,76.6l.4.3-.4-.3Z"/>
  <path class="cls-1" d="M26.7,76.9c2.4,1,4.5,2.2,7.2,2.2,1.9.2,3.5-.2,5.2,1-4.5.4-8.6.4-12.7-1.9l.3-1.2h0Z"/>
  <path class="cls-9" d="M72,77.4c-4,2.3-8.1,1.3-12.3,2.8.5-.6,1.1-1.1,1.6-1.6,3.4-.9,7.1-.9,10.7-1.2Z"/>
  <path class="cls-3" d="M55.5,78.5l-.6.2.6-.2Z"/>
  <path class="cls-9" d="M25.8,79.2c.8,1.6,1.5,3.2,2.1,4.8-.8.7-1.6,1.4-2.3,2-1-.8-2.1-1.7-2.7-2.8v-.8c1-1.1,2-2.2,2.9-3.2Z"/>
  <path class="cls-3" d="M50,79.7h.5-.5Z"/>
  <path class="cls-5" d="M75,80.3h2.9l-.2.8c-.4,1,0,1.7.8,2.2l1.2.9,1,1.3c-2.7,1.3-3.9,3.6-5.3,6-.9-2.3-1.7-3.2-3.8-4.4l-1.1-1.3c2.3-1.6,4.1-2.4,4.3-5.5h.2Z"/>
  <path class="cls-3" d="M15.6,81.1c.5.9.4,1.7-.4,2.3-.7-1.1-.6-1.8.4-2.3Z"/>
  <path class="cls-2" d="M58.5,81.5l-.5.3.5-.3Z"/>
  <path class="cls-3" d="M77.8,81.2c1,.4,1.3,1.2.8,2.2-1-.5-1.2-1.2-.8-2.2Z"/>
  <path class="cls-1" d="M34.9,83.5h.8l.4.7-.4.7h-.8l-.4-.7.4-.7Z"/>
  <path class="cls-3" d="M47.6,83.4c1-.5,1.8-.3,2.2.7-1,.4-1.7.2-2.2-.7Z"/>
  <path class="cls-1" d="M65.4,84.3c1.3-.9,3.3,1,2.3,2.3-.9.6-2.9-1.5-2.3-2.3Z"/>
  <path class="cls-3" d="M79.9,84.3c1.3-.4,1.9,0,1.8.9l-.8.4-1-1.3Z"/>
  <path class="cls-9" d="M80.9,85.6l.8-.4c0,1.4-1.1,1.9-2,2.9-1.5,1.3-2.2,3.4-3.4,5.1l-.7-1.6c1.4-2.4,2.7-4.7,5.3-6Z"/>
  <path class="cls-7" d="M38.8,86.2h22c2.8-.2,4.1,1.7,6.1,3.3-.2,2.6,0,5-1.9,7-2,1.9-5.6,1.4-8.2,1.5-6.3-.2-12.8.3-19-.4h-2c-1.2-1.5-2.6-2.6-2.9-4.5-.3-1.7.4-3.4.9-5,1.7-.9,3-1.9,5-1.8h0Z"/>
  <path class="cls-3" d="M70,86.3l.7-.5,1.1,1.3h-1.7v-.8h0Z"/>
  <path class="cls-6" d="M34.8,89.3c3,0,.9,3.3,3.7,4.2v.8c-1.3,0-2.6-.6-3.8-1v-3.9h0Z"/>
  <path class="cls-2" d="M39,89.4l.9-.2v5.6c-1.6,0-3.2.2-4.8,0l-.4-1.7c1.2.4,2.5,1.1,3.7,1v-.8c.2-1.4.4-2.7.6-4.1v.2Z"/>
  <path class="cls-6" d="M39.9,89.2c1,0,2,0,3,0l-1.2.9-.8,1.2,1,1.3c.3.6.6,1.2.8,1.8-.6.4-1.3.6-2.2.6l-.6-.6v-5h0Z"/>
  <path class="cls-2" d="M42.9,89.1l.7.2v1.8l-.7.3-1.2-1.4,1.2-.9Z"/>
  <path class="cls-6" d="M43.7,89.3l.7.3c.3.7.5,1.4.7,2.1.7-.8,1.3-1.6,2-2.3,1.9-.5,3.1-.3,4.8.5l-1.5.5c.2.7.4,1.3.7,2v.6c0,0,.2.7.2.7-.7.5-1.6.7-2.7.5v-3c0,0-.5-.7-.5-.7l-.3.4-.8,1.4c-.5,1-.9,1.9-1.4,2.9-1.4-1.1-1.5-2.5-2-4.1v-1.8h0Z"/>
  <path class="cls-6" d="M53.6,89.5c.6,1.6,1.3,3.2,1.7,4.8l-.4.5-1.9.2c-.2-1.4-.4-2.8-.7-4.2v-.7c0,0,1.3-.6,1.3-.6Z"/>
  <path class="cls-6" d="M59.7,89.2c0,1.4.7,4.6-.8,5.4-.7-1.4-1.4-2.9-1.9-4.4.9-.8,1.8-1.1,2.7-.9h0Z"/>
  <path class="cls-6" d="M61.9,89.3c2-.5,3.7-.4,4,2.1,0,2.6-1,3.9-3.7,3.5-.9-1.9-.9-3.5-.3-5.5h0Z"/>
  <path class="cls-3" d="M41.7,90l1.2,1.4-1,1.1-1-1.3.8-1.2Z"/>
  <path class="cls-3" d="M48.1,90.6l.4.7-.7-.3s.3-.4.3-.4Z"/>
  <path class="cls-9" d="M50.5,90.4l1.5-.5.3.8c.2,1.4.4,2.8.7,4.2-1.6,0-2.8,0-4.3-.8,1.1,0,2,0,2.7-.5v-.7l-.2-.6c-.2-.7-.5-1.3-.7-2h0Z"/>
  <path class="cls-3" d="M52,90l.5.2v.7c0,0-.5-.8-.5-.8h0Z"/>
  <path class="cls-7" d="M63,90.6c2-1,1.7,1.9.7,2.8l-.6-.2c-.4-1-.4-1.8,0-2.6h0Z"/>
  <path class="cls-2" d="M85.6,90.6l-.7.2.7-.2Z"/>
  <path class="cls-2" d="M47.9,91l.7.3v2.2l-.6.2-.9-1.3s.8-1.4.8-1.4Z"/>
  <path class="cls-3" d="M51.2,92.4v.6c0,0,0-.6,0-.6Z"/>
  <path class="cls-3" d="M48,93.7l.6-.2v.8l-.3-.2s-.3-.4-.3-.4Z"/>
  <path class="cls-3" d="M63,93.2l.6.2-.2.3-.4-.5Z"/>
  <path class="cls-3" d="M40,94.3l.6.6h-.6v-.6Z"/>
  <path class="cls-3" d="M55.3,94.4v.4h-.4l.4-.5h0Z"/>
  <path class="cls-3" d="M35.8,97.5h2c-.6,1.5-1.3,1.5-2,0Z"/>
  <path class="cls-2" d="M24,99.6l.5.4-.5-.4Z"/>
  <path class="cls-3" d="M65.6,101.4c1.1-.5,1.8-.2,2.3.9-1,.3-1.7,0-2.3-.9Z"/>
  <path class="cls-8" d="M73.4,73.2c-10.5-9.7-23.4-6.7-22.6-2.4-1.3.5-4.6-4.1-14.2-1.7-6.5,4-11.4,5.5-9.1,13.3,2.6,2.7,5.1,8.5,5.5,13.4.3,4.1,4.4,6.8,8.3,5.8s3.9-1.3,7.1-2.1c2.6.4,5.6,3.6,8.5,4.1,9.4,1.4,17.1-3.5,19.5-13.4,1.7-7.3-.9-16-2.8-16.9h-.2Z"/>
  <path class="cls-4" d="M46.1,73.2c0,6.7.6,14.6-1.8,21-1.1,3.7-6,2.3-6-.9-.7-5.7-1.9-9.3-5.3-13.9,3.9-5.1,6.6-6.2,13.1-6.2Z"/>
  <path class="cls-4" d="M56.5,74.9c4.5-1.4,9.1-.7,12,3.2,4.4,7.2,1.9,21.3-8.7,20.6-12.1-1.1-13.6-19.2-3.3-23.8Z"/>
  <path class="cls-8" d="M59.9,81c4.2,3.5,4.6,11.9-2.6,10.8,0-4.4-.2-7.1,2.6-10.8Z"/>
</svg>