<?xml version="1.0" encoding="UTF-8"?>
<svg id="_Слой_1" data-name=" Слой 1" xmlns="http://www.w3.org/2000/svg" version="1.1" viewBox="0 0 120 120">
  <defs>
    <style>
      .cls-1 {
        fill: #d02d00;
      }

      .cls-1, .cls-2, .cls-3, .cls-4, .cls-5, .cls-6, .cls-7, .cls-8, .cls-9, .cls-10, .cls-11, .cls-12, .cls-13, .cls-14, .cls-15, .cls-16, .cls-17, .cls-18, .cls-19, .cls-20, .cls-21, .cls-22, .cls-23, .cls-24, .cls-25, .cls-26, .cls-27, .cls-28, .cls-29, .cls-30, .cls-31, .cls-32, .cls-33, .cls-34, .cls-35, .cls-36, .cls-37, .cls-38, .cls-39, .cls-40, .cls-41, .cls-42, .cls-43, .cls-44, .cls-45, .cls-46, .cls-47, .cls-48, .cls-49, .cls-50, .cls-51, .cls-52, .cls-53, .cls-54, .cls-55, .cls-56, .cls-57, .cls-58 {
        stroke-width: 0px;
      }

      .cls-2 {
        fill: #fa7d00;
      }

      .cls-3 {
        fill: #ad471e;
      }

      .cls-4 {
        fill: #ffbe1a;
      }

      .cls-5 {
        fill: #ed6a10;
      }

      .cls-6 {
        fill: #390202;
      }

      .cls-7 {
        fill: #ed5f00;
      }

      .cls-8 {
        fill: #c82100;
      }

      .cls-9 {
        fill: #d43400;
      }

      .cls-10 {
        fill: #d5a586;
      }

      .cls-11 {
        fill: #ba2d12;
      }

      .cls-12 {
        fill: #f97300;
      }

      .cls-13 {
        fill: #c82000;
      }

      .cls-14 {
        fill: #ffba13;
      }

      .cls-15 {
        fill: #ffd600;
      }

      .cls-16 {
        fill: #f46b00;
      }

      .cls-17 {
        fill: #eadec8;
      }

      .cls-18 {
        fill: #c11f00;
      }

      .cls-19 {
        fill: #ffbd0c;
      }

      .cls-20 {
        fill: #f2f6ef;
      }

      .cls-21 {
        fill: #4e1d1b;
      }

      .cls-22 {
        fill: #ff9523;
      }

      .cls-23 {
        fill: #fdc674;
      }

      .cls-24 {
        fill: #f66e00;
      }

      .cls-25 {
        fill: #f3f0e0;
      }

      .cls-26 {
        fill: #e3650f;
      }

      .cls-27 {
        fill: #623833;
      }

      .cls-28 {
        fill: #816158;
      }

      .cls-29 {
        fill: #ede2ca;
      }

      .cls-30 {
        fill: #f77100;
      }

      .cls-31 {
        fill: #f3f3e6;
      }

      .cls-32 {
        fill: #491715;
      }

      .cls-33 {
        fill: #f5ead1;
      }

      .cls-34 {
        fill: #b41c00;
      }

      .cls-35 {
        fill: #ffca04;
      }

      .cls-36 {
        fill: #e95800;
      }

      .cls-37 {
        fill: #ddc39e;
      }

      .cls-38 {
        fill: #5d322d;
      }

      .cls-39 {
        fill: #ffc21a;
      }

      .cls-40 {
        fill: #ffc00f;
      }

      .cls-41 {
        fill: #ff7d00;
      }

      .cls-42 {
        fill: #ff7e00;
      }

      .cls-43 {
        fill: #cd2900;
      }

      .cls-44 {
        fill: #e44f00;
      }

      .cls-45 {
        fill: #f6e4c0;
      }

      .cls-46 {
        fill: #eae6d9;
      }

      .cls-47 {
        fill: #f0ecdc;
      }

      .cls-48 {
        fill: #f3f4e9;
      }

      .cls-49 {
        fill: #5d2b26;
      }

      .cls-50 {
        fill: #4a1512;
      }

      .cls-51 {
        fill: #d5741d;
      }

      .cls-52 {
        fill: #f3f4ea;
      }

      .cls-53 {
        fill: #ede8d7;
      }

      .cls-54 {
        fill: #521712;
      }

      .cls-55 {
        fill: #551c18;
      }

      .cls-56 {
        fill: #dddbd4;
      }

      .cls-57 {
        fill: #602d26;
      }

      .cls-58 {
        fill: #ffbf62;
      }
    </style>
  </defs>
  <path class="cls-35" d="M62.5,1.3c1.6,1.5,3.1,3,4.6,4.4-2.3.9-4.7,1.9-6.9,2.7-.9-.9-1.7-1.7-2.6-2.6,1.5-.4,2.8-.7,4.3-1.1.2-1.1.4-2.2.6-3.3h0Z"/>
  <path class="cls-30" d="M67.2,5.8c-1.5,1.9-2.8,3.6-4.3,5.4-.9-.9-1.7-1.9-2.6-2.7,2.3-.9,4.7-1.7,6.9-2.7Z"/>
  <path class="cls-4" d="M42.4,6.7c.9.9,1.6,1.9,2.5,2.7-.9,1-1.7,2-2.7,3-1-1-2-2-3-3,1-1,2-2,3.1-2.8h.1Z"/>
  <path class="cls-15" d="M91.4,8.1c1.9,2.8,3.1,5.7,6.2,7.5-2.1,1.2-4.2,2.6-6.3,3.8-1.6-.9-3.3-1.7-5.1-2.6,1.2-.5,2.6-1,3.8-1.4.5-1.2,1-2.6,1.5-3.8-1.5,2.1-6.1,4.9-7,4.6,1.2-.4,5.8-4.6,6.8-8h.1Z"/>
  <path class="cls-39" d="M26.6,12.4c1.2,1,2.3,2.1,3.5,3.1-1.1,1.2-2.1,2.3-3.2,3.6-1.1-1.2-2.2-2.6-3.2-3.8,1,0,2-.2,3.1-.2v-2.6h-.1Z"/>
  <path class="cls-6" d="M61.9,15.6c2.6.9,5.2,1.1,7.8,1.6,2.8.4,4.6,2.7,6.9,4.2,3.1,1.6,6.1,2.2,7.4,5.8,1.5,4.1,4.8,6.5,5.6,10.9.7,3.5,2.8,5.6,2.3,9-.7,3.8-.2,8.5-2.5,11.7-1.4,2.2-2.2,4.6-3.5,6.8-2,2.5-5.1,3.7-7.4,5.9-3,3-6.7,3-10.5,4.9-2.5,1.2-4.1,1.5-6.9,1.1-4.1-.6-7.3,1.1-11.2-1-4-2.1-7.9-2-11.1-5.3-2.8-2.8-6.5-3.5-8-7.3-1.1-2.6-2.8-5.1-3.8-7.7-.7-2.6-.5-5.4-1.1-8-1.1-4,1.4-6.9,2-11.1.4-3.3,3-4.8,4.3-7.7.9-1.7,1.6-4.1,3.2-5.3,2.5-1.9,5.4-2.3,7.8-4.4,2-1.7,3.6-2.6,6.3-2.8,4.8-.2,8-2.8,12.4-1.2h.1Z"/>
  <path class="cls-41" d="M84.6,16.1c.6.2,1.1.5,1.6.7,1.7.9,3.3,1.7,5.1,2.6,2.1-1.2,4.2-2.6,6.3-3.8.7.5,1.6,1,2.3,1.5-1.6,1-3.7,1.7-4.9,3.2-1.2,2.1-2.2,4.3-3.5,6.5-1.2-2.2-2-4.7-3.5-6.7-1.5-1.2-3.5-2-5.2-2.8.6-.4,1.1-.7,1.7-1.1h0Z"/>
  <path class="cls-29" d="M61.6,17.7c4.4,2.1,8.3-.5,11.7,4-6.5-.7-13-2.6-19.5-3.2l.6-.2c2.6-1.2,4.4-1.6,7.2-.5Z"/>
  <path class="cls-46" d="M51.9,19c-2.6,1.6-5.2,2.5-8.2,3.2,2.8-3.2,4-3.3,8.2-3.2Z"/>
  <path class="cls-58" d="M51.9,19l.9-.2c.4,0,.7-.1,1.1-.2,6.5.6,13,2.5,19.5,3.2l1,1.1c2.2,2.7,4,3.7,7.3,4.6,1,2.7,1.9,5.1,4,7l-.5,1.6c.4,4,2.2,6.9,1.7,10.9-1.6,0-3.2-.2-4.7-.2h-.9c-1.5-.2-2.8.2-3.3,1.7-.5,1-1,2.1-1.5,3.1.6.9,1.1,1.7,1.7,2.6.7,1.6,2.2,1.2,3.1,0l1.2.2c-2.6,2.2-6.7,2.5-9.8,4v-10.5c2.5-.2,3-2,3.5-4.1l.7-1.2c1.1-.4,1.5-1.1,1.2-2.1-.2-1.9,0-3.5-1.5-4.8-2-1.9-5.2-2.5-7.7-3.6-3.3-.9-4.7-5.3-6.9-7.7,2.6-.5,1-2.7-1-1.6-1.6.1-3.8-.2-4.9,1-2.5,2.1-3.7,5.2-5.8,7.5-4.3,1.7-8.4,2.7-11.7,6.2,1.2,3.3,2.7,5.9,4.9,8.8,1.1,1.4,1.4,3,1.6,4.6-1.7,2-1.9,3.8-.4,6.1.7,1.4,1.6,2.6,2.3,3.8,3.7,0,7-1.4,10.6-2.1,3-.4,6.2,1,9,1.5h.9c1.5.5,3,.7,4.4,1-.6.5-1.2,1.1-1.9,1.6-1.7-.4-3.6-.6-5.4-1-.4.7-.9,1.5-1.4,2.2-1.4-.6-2.8-1.2-4.3-1.6h-1.5l-1.4.2c-.7.9-1.4,1.9-2,2.8-2.2-1.2-4.6-2-6.8-3.1-2.3-1.1-4-4-6.1-5.6-2.2-.2-4.6,0-6.8-.1l-.5-.7v-1.2h5.6c.4-1.1.7-2.3,1.1-3.5-.7-1.6-1.9-2.8-3-4.1-1.4.1-2.6.4-4,.5-1,0-1.9.2-2.8.2-.1-3,0-5.8.2-8.8-.2-.5-.5-1-.7-1.5l-.2-.4c1.7-.9,2.7-2,3.2-3.8.7-2.1,1.2-4.4,2.3-6.5,2-2,5.1-2.7,7.5-4.1,3-.7,5.6-1.6,8.2-3.2l.2-.5Z"/>
  <path class="cls-15" d="M17.8,20.5c1.6,2.7,2.6,5.4,5.2,7.4-.6.6-1.2,1.4-1.9,2l-1.1,1.4c-4,.4-7.5-.9-11.2-2.2,2.3-.1,4.6,0,6.8,0,.9-1.9,1.6-3.7,2.3-5.6-.2,1-7.8,6.4-9.3,5.6,2.2,0,9.5-6.4,8.9-8.4h.2Z"/>
  <path class="cls-50" d="M61.3,22.6l1,1.6c2.1,2.5,3.6,6.8,6.9,7.7,2.5,1.1,5.7,1.7,7.7,3.6,1.5,1.4,1.1,3.1,1.5,4.8-1,.4-1.5,1-1.2,2.1l-.7,1.2c-1.5,1.1-3.6,2-3.5,4.1v10.5c-1.6.6-3.2,1.4-4.9,1.9h-.9c-2.7-1-5.4-2.8-8.3-3-3.8.9-7.7,2.3-11.4,3.6-.7-1.2-1.6-2.6-2.3-3.8.6-2,.7-4,.4-6.1-.2-1.7-.5-3.2-1.6-4.6-2.2-2.8-3.7-5.4-4.9-8.8,3.3-3.5,7.4-4.4,11.7-6.2,2.2-2.3,3.3-5.3,5.8-7.5,1.1-1.4,3.3-.9,4.9-1h-.1Z"/>
  <path class="cls-45" d="M62.3,24l-1-1.6c2-1.2,3.7,1.1,1,1.6Z"/>
  <path class="cls-20" d="M51.4,23.3l-.2.9c-2.5,0-1.6-2.3.2-.9Z"/>
  <path class="cls-44" d="M51.4,23.3c2.5,0,1.6,2.5-.2.9l.2-.9Z"/>
  <path class="cls-56" d="M74.4,22.7c2.8,1.4,5.6,1.7,7.3,4.6-3.3-.9-5.1-1.9-7.3-4.6Z"/>
  <path class="cls-48" d="M58.7,24c3.5,2.1,4.6,5.3,6.8,8.4,2.3,1.4,5.2,1.7,7.7,2.7.2.9.6,1.7.9,2.6-2.8-1-5.8-1.9-8.4-3.5-2.5-2.2-4-5.3-6.1-7.9-2.1,2.2-3.5,5.1-5.6,7.3-3.3,2-7.3,3-11,4.3l-1.5-1.1c2.5-1.4,4.8-2.3,7.5-3.1,1.5-.6,3-.6,3.8-2.2,1.6-2.7,3.3-5.3,5.7-7.5h.1Z"/>
  <path class="cls-13" d="M43.5,26.4c1.1.5,2.1,1.5,3.1,2.1-1.6,1.2-3.3,2.5-5.1,3.7-.2-1.4-.9-2.2-1.9-2.5,1.2-1.1,2.5-2.3,3.8-3.3Z"/>
  <path class="cls-3" d="M76.3,27.7l-.2,1.9c-1.6-1-3.1-2-4.7-2.8,2.2-.4,3.3-1.2,4.8,1h.1Z"/>
  <path class="cls-15" d="M59.7,26.4c2.1,2.5,3.6,5.7,6.1,7.9,2.6,1.6,5.6,2.5,8.4,3.5-.2-.9-.6-1.7-.9-2.6,1.1.9,2.2,1.7,3.2,2.6-3.2,1.9-6.1,4.1-8.3,7.2-.7.9-1.4,1.7-2.1,2.6-.2-1.7-.5-3.3-.6-5.1-.2-2.5-4.1,3.7-5.6,4.9,1,1.6-6.8-4.7-5.7-3-1,1-.9,2.1.2,3.3l.5.9c-.7.1-1.5.4-2.2.5-1.5-2.5-3-4.8-4.9-6.9-1.4-1.5-3-2.8-4.6-4.2,3.7-1.2,7.7-2.3,11-4.3,2.1-2.2,3.5-5.1,5.6-7.3h-.1Z"/>
  <path class="cls-21" d="M71.4,26.9c1.6,1,3.1,1.9,4.7,2.8l.2-1.9c.6.6,1.2,1.4,1.9,2-.9.7-1.7,1.5-2.5,2.2-2-1.5-3.6-2.6-4.2-5.2h-.1Z"/>
  <path class="cls-2" d="M23,27.9c1.1.5,2.3,1.1,3.5,1.6-1.6.9-3.3,1.7-4.9,2.6,0-.7-.1-1.5-.2-2.2.6-.6,1.2-1.4,1.9-2h-.1Z"/>
  <path class="cls-12" d="M8.8,29c3.7,1.4,7.3,2.6,11.2,2.2-1.2,2-2.3,4.1-3.2,6.2-.9-1.6-1.6-3.3-2.7-4.7-1.7-1.4-3.6-2.5-5.2-3.8h-.1Z"/>
  <path class="cls-9" d="M21.1,29.8c0,.7.2,1.5.2,2.2-1.4,2.3-2.3,4.8-3.7,7.2l-1-1.7c.9-2.1,2-4.2,3.2-6.2l1.1-1.4h.1Z"/>
  <path class="cls-45" d="M34,32.8c-.5,1.9-1.5,3-3.2,3.8-1.1-2,1.6-3.6,3.2-3.8Z"/>
  <path class="cls-20" d="M85.7,34.3l.7.4.2.9-1.5.4.5-1.6Z"/>
  <path class="cls-36" d="M34.3,35.5c1.1-1.1,3.1,0,2.2,1.6-1.2,1.1-3.1,0-2.2-1.6Z"/>
  <path class="cls-16" d="M80.4,35.3c1.1-1.2,3.1-.1,2.2,1.5-1.1,1.2-3.1.1-2.2-1.5Z"/>
  <path class="cls-8" d="M86.7,35.5c.9,3.1,2,6.1,2.8,9.1.9,2.8-1,5.6-2.2,8-1.7,3-3.2,6.3-5.4,8.9-4.4,4.7-10.7,7.7-17,9.3-3.8.5-8,.5-11.7,0-6.4-1.5-13-4.7-17.5-9.5-2.2-2.7-3.7-5.9-5.3-9-1.1-2.2-2.7-5.2-2.1-7.8s1.9-5.1,2.8-7.5c.2.5.5,1,.7,1.5-.2,3-.4,5.8-.2,8.8,0,3.2,1.4,5.6,3.1,8l.5.7c3.5,6.2,10.7,9.9,17.2,11.9,2.5.7,5.2.4,7.7.2h.9c4.2.7,7.4-1,11.2-2.5,7.9-3.3,13.7-10.5,15.1-19,.5-4-1.4-6.9-1.7-10.9l1.5-.4h-.1Z"/>
  <path class="cls-19" d="M104.3,36.6c1,.6,2,1.5,3,2.2-1,1.1-2,2.3-3,3.5-1-1-2-2.1-3-3.1,1-.9,2-1.9,3-2.6Z"/>
  <path class="cls-13" d="M41.8,36.9l1.5,1.1c1.5,1.4,3.1,2.7,4.6,4.2,2.1,3.7.4,7.7,2,11.2,3.2-.4,6.4-2,9.8-2,3.2.5,6.4,1.6,9.5,2.3-.1-3-.4-6.1-.9-9,2.2-3,5.1-5.2,8.3-7.2-1.5,2.8-3.3,5.2-5.2,7.8-1.2,1.7-.6,4.4-.7,6.4.2,2.1-.6,3.8-1.4,5.8-3.3-1.1-6.8-3-10.4-3.3-3.8.7-7.2,2.6-11.2,2.6,0-3.3.1-6.9-.5-10.3-1.6-3.7-5.2-5.4-5.4-9.9h.1Z"/>
  <path class="cls-44" d="M78.3,40.1c.2,1.1-.1,1.7-1.2,2.1-.2-1.1.2-1.9,1.2-2.1Z"/>
  <path class="cls-51" d="M81.3,40.7c1.5-1,2.6,1.5.7,1.7-1-.2-1.2-.9-.7-1.7Z"/>
  <path class="cls-24" d="M37.7,41.1c-.6,1.1-1.4,2.1-2,3.1-2,0-3.5.7-3.7-1.9,1.9-.6,3.7-1,5.7-1.2Z"/>
  <path class="cls-42" d="M47.7,42.2c2,2.1,2.7,3,4.2,5.3.7-.1,1.4-3.1,2.1-3.2,6.9-6.1,14.7-2.3,16.2-2,.7-.9-2.8,3.3-2.1,2.5.5,3,.7,5.9.9,9-3.2-.7-6.3-1.9-9.5-2.3-3.2,0-6.5,1.6-9.8,2-1.6-3.7,0-7.5-2-11.2Z"/>
  <path class="cls-5" d="M76.3,43.4c-.5,2.1-1,3.8-3.5,4.1-.1-2.2,2-3.1,3.5-4.1Z"/>
  <path class="cls-7" d="M78.3,43.4c1.9.4.9,2.8-.7,1.7-.5-.9-.2-1.5.7-1.7Z"/>
  <path class="cls-13" d="M54,44.3c.9,1,1,2.1.2,3.3-1.2-1.4-1.2-2.5-.2-3.3Z"/>
  <path class="cls-22" d="M34.2,47c0,2.3,0,4.8.1,7.2v1.2c-1.6-2.6-3-4.9-3-8,1,0,1.9-.2,2.8-.2h0Z"/>
  <path class="cls-55" d="M38.2,46.5c1.1,1.2,2.3,2.5,3,4.1-.2,1.2-.7,2.3-1.1,3.5h-5.7c0-2.3-.1-4.8-.1-7.2,1.4-.1,2.6-.4,4-.5h0Z"/>
  <path class="cls-28" d="M81.4,46.4v.7c-1,.7-2,1.2-3.1,1.5l-.2-.5c.5-1.5,1.9-2,3.3-1.7Z"/>
  <path class="cls-54" d="M81.4,46.4h.9c2.2,3.1,1.6,4.3.4,7.7l-1.2-.2c-1.1-.4-2.2-.4-3.1,0-.5-.9-1.1-1.7-1.7-2.6.5-1.1,1-2.1,1.5-3.1l.2.5c.9,1.4,1.7,2.8,2.7,4.2,0-1.9.2-3.8.2-5.7v-.7h.1Z"/>
  <path class="cls-42" d="M82.2,46.5c1.6,0,3.2.2,4.7.2-1.4,8.5-7.2,15.7-15.1,19-3.8,1.5-7,3.2-11.2,2.5,1.1-1.6,2.1-3.2,3.1-4.8.5-.7.9-1.5,1.4-2.2,1.7.4,3.6.6,5.4,1,.6-.5,1.2-1,1.9-1.6-1.5-.2-3-.5-4.4-.7,1.7-.5,3.3-1.2,4.9-1.9,3.1-1.4,7.2-1.7,9.8-4,1.4-3.3,1.9-4.6-.4-7.7h0Z"/>
  <path class="cls-43" d="M37.2,47.1c.9,1.7,1.6,3.5,2.5,5.2-1.5-.6-3.1-1.4-4.6-2,.7-1.1,1.5-2.2,2.1-3.3h0Z"/>
  <path class="cls-43" d="M81.3,47.1c0,1.9-.1,3.8-.2,5.7-.9-1.4-1.9-2.7-2.7-4.2,1.1-.2,2.1-.7,3-1.5Z"/>
  <path class="cls-42" d="M45.3,50.6c.4,2,.2,4.1-.4,6.1-1.5-2.1-1.4-4.1.4-6.1Z"/>
  <path class="cls-13" d="M29.2,54.3c1.4-.6,2.5,2,1.6,2.8-1.5.6-2.6-1.9-1.6-2.8Z"/>
  <path class="cls-28" d="M78.2,53.9c.9-.5,2-.5,3.1,0-.9,1.2-2.3,1.7-3.1,0Z"/>
  <path class="cls-34" d="M88.8,54.8c.7,1.1-1.6,4.4-3,3.6-.7-1.1,1.6-4.4,3-3.6Z"/>
  <path class="cls-42" d="M35,56.2c2.2,0,4.6-.1,6.8.1,2.1,1.6,3.7,4.4,6.1,5.6,2.2,1.1,4.7,2,6.8,3.1,1.7,1,3.5,2.1,5.2,3.2-2.6,0-5.2.5-7.7-.2-6.5-2-13.8-5.7-17.2-11.9h0Z"/>
  <path class="cls-26" d="M58.7,56.9c2.8.2,5.6,2,8.3,2.8-3-.5-6.2-1.7-9-1.5-3.6.9-6.9,2.1-10.6,2.1,3.7-1.2,7.5-2.7,11.4-3.6h0Z"/>
  <path class="cls-18" d="M32.5,62.1c3.7,2.1,6.8,4.9,10.4,7.2,4.9,2.6,10.1,4.6,15.8,4.2,5.6.4,10.3-1.6,15.3-3.7,4.2-2.1,7.5-5.7,11.7-7.8-5.4,7-13.5,11.1-22,12.8-3.8.2-7.9.4-11.6-.4-7.7-2.1-14.8-5.7-19.5-12.4h-.1Z"/>
  <path class="cls-32" d="M56.6,62.2l1.4-.2c.2,1.5.6,3.3,2.6,3.2,1.7-.9,0-2.6-1.1-3.2,1.5.4,2.8,1,4.3,1.6-1,1.6-2,3.2-3.1,4.8h-.9c-1.7-1.1-3.5-2.3-5.2-3.3.6-1,1.2-1.9,2-2.8Z"/>
  <path class="cls-11" d="M73.1,61.6c1.7-.4,2.5,1.6.9,2.5-1.7.4-2.5-1.6-.9-2.5Z"/>
  <path class="cls-1" d="M57.9,62h1.5c1,.6,2.7,2.3,1.1,3.2-1.9.1-2.3-1.7-2.6-3.2Z"/>
  <path class="cls-14" d="M22,69.7c1.4,1.2,2.6,2.7,4,4-1.2,1.5-2.5,3-3.6,4.4-1.4-1.5-2.7-3-4.1-4.4h3.1c.1-1.4.4-2.6.6-4Z"/>
  <path class="cls-40" d="M97.1,72.8c1.2,1.1,2.5,2.3,3.7,3.5-1.1,1.1-2.2,2.2-3.3,3.3-1.1-1.2-2.3-2.5-3.5-3.7h3.1v-3h0Z"/>
  <path class="cls-6" d="M32.2,86.6c17.3-.1,34.7,0,52,0,4.6.1,7.3,2,9.5,5.9,3-.9,4.6-.9,7.5,0,.4,1.1.9,2.2,1.4,3.3-1.2,2.2-2.5,4.3-3.8,6.4,1.6,2.1,3.1,4.2,4.3,6.4-2.1,2.2-3.7,4.3-6.8,4.9-3.2.5-6.5.5-9.8.1-2.3-.5-3.8-3.6-5.1-5.4h-46.5c-1,2.3-1.5,4.3-4.3,5.1-6.3,1.2-12.8,1-16.8-4.8,1.1-2.3,2.5-4.4,4-6.7-2-2.7-3.2-4.8-3.3-8.3,1.2-.7,2.3-1.6,3.7-2.2,1.6,0,3.2.4,4.7.7,2.7-3.2,4.8-5.6,9.4-5.7h-.1Z"/>
  <path class="cls-17" d="M31.5,88.4c-1.4,1.1-2.7,2.2-4.1,3.3-1,.9-2,1.7-3,2.5.6-1.9,1.2-3.6,2.7-4.8,1.4-.5,2.8-.7,4.3-1Z"/>
  <path class="cls-15" d="M31.5,88.4h.9c.5,1.6,1.2,1.6,1.9,0h1c.6,1.7,1.2,1.7,2,0h1c.9,1.2,2.8,2,3.1,0h.9c1.1,1.2,3.6,2.2,4,0h.9c5.6,1.5,11.7,1.5,17.3.1h.9c.5,1.6,3.1,1.5,3.7,0h.7c2.1,1.6,3.5,1.6,5.7.1h.9c.1,1.7,2.2,1.1,3,0h.9c.9,1.2,3.1,1.9,2.8-.2h1c2.1,1.4,4.2,2.6,6.2,4.1-2.5,2.3-4.7,4.3-8.2,4.6-1.6.2-2.5-1-3.6-1.9-.9-.9-1.6-1.7-2.6-2.5-4.8-.7-10.3.4-15.2,0-4.7-.4-8.8.4-13.2-1.2-2.2-.6-4-1.4-6.1,0-1.9.7-1.9,2.3-2.2,4.1-2.5.1-5.3.2-7.7-.6-1.5-.7-2.7-2-4-3.1,1.4-1.1,2.7-2.2,4.1-3.3h.1Z"/>
  <path class="cls-20" d="M32.4,88.3h1.9c-.7,1.7-1.4,1.7-1.9,0Z"/>
  <path class="cls-20" d="M35.2,88.4h2c-.7,1.6-1.4,1.6-2,0Z"/>
  <path class="cls-20" d="M38.2,88.5c1.1-.4,2.1-.4,3.1,0-.1,2-2.2,1.2-3.1,0Z"/>
  <path class="cls-20" d="M42.1,88.5c1.4-.4,2.7-.5,4-.2-.4,2.2-2.8,1.2-4,.2Z"/>
  <path class="cls-20" d="M46.9,88.5c5.7-.4,11.6-.4,17.3,0-5.6,1.2-11.7,1.2-17.3,0Z"/>
  <path class="cls-20" d="M65.1,88.4c1.4-.2,2.6-.2,3.7,0-.6,1.6-3.2,1.7-3.7,0Z"/>
  <path class="cls-20" d="M69.7,88.5c2-.5,3.6-.5,5.7,0-2.1,1.5-3.5,1.5-5.7,0Z"/>
  <path class="cls-20" d="M76.2,88.4c.9-.2,1.9-.2,3,0-.7,1.2-2.8,1.9-3,0Z"/>
  <path class="cls-20" d="M80.1,88.7c1-.4,2-.5,2.8-.4.2,2.1-2,1.6-2.8.4Z"/>
  <path class="cls-10" d="M83.9,88.3c3,0,5.8.5,7.4,3.2.9,2.3.7,5.2.9,7.7v.9c-.2-2.8-.1-5.4-2.1-7.7-2-1.5-4.1-2.8-6.2-4.1Z"/>
  <path class="cls-57" d="M47.3,91.4c4.4,1.5,8.5.9,13.2,1.2,4.9.4,10.3-.7,15.2,0,.9.7,1.7,1.6,2.6,2.5-2,2.2-3.5,5.1-5.7,7-3.1.4-6.7-.5-9.8-.6-2-.1-3.8,1.6-5.4,2.6h-.6c-1.6-.7-3.3-1.6-4.9-2-3.8-.7-7.4.5-11.2-.6-.7-1.9-1.1-4.1-1.4-6.1.5-1.7.4-3.3,2.2-4.1,2.1-1.4,3.8-.6,6.1,0h-.2Z"/>
  <path class="cls-42" d="M27.4,91.7c1.2,1.1,2.5,2.3,4,3.1,2.3.9,5.2.7,7.7.6.2,2,.6,4.2,1.4,6.1,3.8,1,7.5-.1,11.2.6,1.7.4,3.3,1.2,4.9,1.9-10,1.1-20.8,1.6-30.6-.9-.5,1-.9,2-1.4,3-.4-4-.5-7.8-.4-11.7,1-.9,2-1.7,3-2.5h.2Z"/>
  <path class="cls-31" d="M46.3,92.4v1.7c-1.1,0-2.3.1-3.6.1,1.9,1.1,3.6,2.2,5.4,3.3-.7,1-1.4,2-2.1,2.8-1.9.2-3.8,0-5.7,0,1.4-1.7,3-1.7,4.9-2.2-1.7-.9-3.5-1.9-5.1-3,1.5-3.2,2.8-3,6.2-2.8h-.1Z"/>
  <path class="cls-58" d="M46.3,92.4h.9l.4.9-.4.7h-.7v-1.6h-.1Z"/>
  <path class="cls-42" d="M90.1,92.4c2,2.2,1.9,4.8,2,7.7-.2,1.2-.5,2.5-.7,3.7-.4-.7-.6-1.5-1-2.2-2.1,1.7-4.1,3.1-6.9,3.1-8.6.4-17.4.7-25.9-.4,1.6-1,3.5-2.7,5.4-2.6,3.1,0,6.7.9,9.8.6,2.2-2,3.7-4.7,5.7-7,1.1.9,2,2.1,3.6,1.9,3.5-.2,5.8-2.2,8.2-4.6h0Z"/>
  <path class="cls-23" d="M17.9,93.7c.7,1.2,2.6,1.6,2.6-.2.7.2,1.4.6,2.1.9v1.6c-2.2,0-4.4-.1-6.7-.4.6-.7,1.2-1.4,2-1.9Z"/>
  <path class="cls-20" d="M17.9,93.7c.7-.7,1.6-.7,2.6-.2,0,1.9-1.9,1.5-2.6.2Z"/>
  <path class="cls-47" d="M48.7,93.2c1.4,1.7,2.2,3.7,3.1,5.7.7-2.2,1.2-4.3,2.5-6.2.4,2.6.5,5.2.5,7.9-2-.2-5.1.6-6.2-1.4-.2-2,0-4.1,0-6.1h.1Z"/>
  <path class="cls-53" d="M61,94.1c1.2.9,1.7,3,2.3,4.3-2.5,1.5-4.9,2.8-7.4,4.3-.2-3-.2-6.1,0-9,1.6,0,3.6-.2,5.1.4Z"/>
  <path class="cls-25" d="M66.8,93.5c1,.4,2,.7,3,1.1.2.9.4,1.7.6,2.7-1.6.4-3.2.6-4.8,1,1.6.4,3.2.7,4.8,1.1-1.9.7-3.8,2.1-5.6.2-2.2-2.6-.9-5.3,2.1-6.3h-.1Z"/>
  <path class="cls-33" d="M71,93.7c1.7,0,3.3.2,5.1.4-1.7,2.2-3.2,4.7-4.9,7-.2-2.5-.5-4.9-.2-7.4h.1Z"/>
  <path class="cls-13" d="M94,93.5h1c1.6,1.1,3.3,2.1,4.9,3.2-.7,2-1.6,4-2.3,5.9,1.1,2.2,2.3,4.6,3,7-3.8,3.2-8.4,2.5-13,2.5,1.9-1.4,4.3-2.8,5.6-4.8,1-4.4.2-9.3.9-13.8Z"/>
  <path class="cls-37" d="M94.9,93.5c2,0,4,0,5.9.2-.4,1-.6,2-1,3-1.6-1.1-3.2-2.1-4.9-3.2Z"/>
  <path class="cls-13" d="M15.9,95.6c2.2.1,4.4.2,6.8.4.1,3.7-.1,7.8.6,11.4,1,3.2,4.1,3.2,6.7,4.4-2.3.2-4.8.7-7.2.5-2.6-.4-5.1-2.1-7.3-3.5,1.2-2.1,2.6-4.3,3.8-6.4-1.2-2.2-2.3-4.6-3.6-6.8h.1Z"/>
  <path class="cls-27" d="M59.1,95.6c2.1-.5,2.5,2.5.6,3.1-2.1.2-2.6-2.2-.6-3.1Z"/>
  <path class="cls-38" d="M66.2,95.6l.7-.4.7.4v.9l-.7.4-.7-.4v-.9Z"/>
  <path class="cls-13" d="M92,100v-.9c.2,3.2,0,5.9-1,9-6.1-2.1-11.7-1.5-18-1.5h-24.6c-7.9,0-15.7-.4-23.6.6v-1.4c.4-1,.9-2,1.4-3,9.9,2.5,20.6,2,30.6.9h.6c8.5,1.2,17.4.9,25.9.5,2.8,0,4.8-1.4,6.9-3.1.4.7.6,1.5,1,2.2.2-1.2.5-2.5.7-3.7v.2Z"/>
  <path class="cls-13" d="M30.3,108.9l.7-.4.7.4v.9l-.7.4-.7-.4v-.9Z"/>
  <path class="cls-49" d="M50.8,51.3c7.9-.5-1.4,12.8,17.6,1.9,18.9-11,3.2,0,3.5,1.5,1,4.2,1.7,8.4,2.2,12.8s.5,9.5-.3,14-1,5.9-1.7,8.9-2.7,4.2-4.9,4.4c-6.8.3-5.2-12.2-7.6-19.4s-3.4-1.9-3.9.2c-2.2,9.8.7,18.7-3.7,19.6l-2.9-1.5c-3.2-1.7-5.2-4.9-5.4-8.4s0-8.9-1.5-11c-1.7-2.7-4.2-2.5-5.2-3.7-1.9-2-2.2-6.6-.3-8.6,4.4-4.4,9.8-8.6,14-11l.2.3Z"/>
  <path class="cls-52" d="M50.8,55.4c1.2,11.8,1.7,23.6-1,35.3-4.4-2.4-3-13-4.9-19.2s-5.4-2.7-6.9-5.2c4.2-3.7,8.4-7.4,12.8-11v.2Z"/>
  <path class="cls-20" d="M69.4,56.4c.8,12.2,1.2,24.1-1.2,36-4.6-5.2-2.9-15.7-5.2-22.3s-5.7-2.4-7.1-5.1c4.4-2.5,8.9-5.1,13.7-8.6h-.2Z"/>
</svg>