<?xml version="1.0" encoding="UTF-8"?>
<svg id="_Слой_1" data-name=" Слой 1" xmlns="http://www.w3.org/2000/svg" version="1.1" viewBox="0 0 120 120">
  <defs>
    <style>
      .cls-1 {
        fill: #2c0725;
      }

      .cls-1, .cls-2, .cls-3, .cls-4, .cls-5, .cls-6, .cls-7 {
        stroke-width: 0px;
      }

      .cls-2 {
        fill: #00b99a;
      }

      .cls-3 {
        fill: #feffff;
      }

      .cls-4 {
        fill: #fff194;
      }

      .cls-5 {
        fill: #b3d2dc;
      }

      .cls-6 {
        fill: #ffaa41;
      }

      .cls-7 {
        fill: #c54a46;
      }
    </style>
  </defs>
  <path id="p1" class="cls-1" d="M58.2,102l1.3-1.8c0-.8-2.2-1.4-3.4-1.8l-.7-.4c-1-.7-2-1.3-3-2l-.5-.4-1.7-1.6c-.9-1.8-1.7-1.8-2.4,0-1.7,0-3.4-.3-5.1-.5l-.8-.3c-3.7-1.6-6.2-3.4-7.9-7.1-1.4-3.3-4.5-3.5-7.1-5.6l-.5-.5c-3.1-3.3-3.5-6.8-3.4-11.1,0-2.1-2.6-3-4.1-3.9-1-3-2.4-5.8-2-9,.5-4.5,3.5-7.3,6.5-10.2-.8-1-1.6-2-2.5-2.9-2.2.3-4.3.7-6.5.8-2.5-1.6-.9-4.5-1-6.8-1-1.3-2.1-2.6-3.1-3.9l-.3-2.5c2.1-1.8,4.6-2,7.2-2.8,2-1.6,2.9-4.3,4.6-6.3,1.8,0,2.9-.7,4.2.9,2.2,2.1,1.6,7.6,5,8.5,1.6-1.7,2-4.5,3.3-6.4,1.8-2.6,4.5-5,7.6-5.8,2.2-.3,4.5,0,6.7-.3,1.8-1.2,3.4-3,4.8-4.6-1-1.8-3-3.5-3.3-5.6,1.6-1.4,3.5-2.1,5.4-3,2-1.7,3.1-5.6,6.2-5.2l.5-.3c1.6,1.7,2.8,3.9,3.9,5.9,1,1.8,1.7,1.8,2.2,0,1.6.7,2.8,1.6,2.8,3.4-.7,1.6-1.4,3-2.2,4.5,2,1.7,3.8,3.5,5.9,5.1,1.2,0,2.4-.3,3.5-.4h.8c2.4.5,4.8,1.2,7.2,1.6,2.1-3.5,1.7-8.8,7.1-8.3,1.7,2,3,4.3,4.7,6.3,3.1,1.3,6.2.9,7.7,4.5-1.3,1.7-2.6,3.4-4.1,5.1v5.5c-1,1-2.9,1.3-4.2,1.7,2.9,4.1,3.4,7.5,3.5,12.4,2.2,2.5,4.6,4.6,5.5,7.9.9,3-.3,6.3-.9,9.3l-1.8,1.4-.7.5c-1.6,1.4-3.3,2.4-4.2,4.3l-.4.7c-1,3-3.1,4.6-5.5,6.8l-.4.4v2.4c-1.8,5.5-4.3,8.9-10.1,10.3-1.3-.5-2.5-.7-3.7-.3l-1,.4c-1,.7-2,1.4-2.9,2.2l-.5.5-1.7,1.7-.7.5c-2.5,1.6-5.4,2.4-8,3.9,0,.8.5,1.5,1.4,2.1l1.7,1.4c.9.8,3.5,1.6,4.5,2.4l-2.6,2.4c-3.3,1.4-3.4,2.4-7.2,8.1-1.8-2.5-1.6-3-4.3-6.5-2.9-4.1-5.2-2.5-5.9-4.2M59.9,5.2c-.8.8-1.6,1.7-2.2,2.6h-2.4l-1,.3c.7.8,1.3,1.7,2,2.5.5,1.6.9,3,1.3,4.6,2.4.3,4.7.4,7.2.4,0-1.3.4-2.6.5-3.9.7-1.2,1.3-2.4,1.8-3.7-1.3-.1-2.6-.3-4.1-.4-.5-1.3-1.2-2.6-1.8-3.9,0,0-1.3,1.6-1.3,1.6ZM91.2,17c-.9,1.7-2,3.3-2.9,5,1,1.7,2.1,3.5,3,5.2.8,3.9,4.1,2.5,7.1,2.9v-5.6c1-.7,2.8-1.2,3.3-2.5l-.9-.5c-1.2-.4-2.2-.7-3.4-.8-.7-1.2-1.4-1.4-2.6-.9-.8-1.6-1.7-3.1-2.6-4.6-.7.3-.9.9-1.2,1.8h.3ZM51.2,22.7h-.9l-1-.3c-1.2-.4-2.5-.8-3.7-1h-.7c-1.4.5-2.8,1.2-4.1,1.8-3.7,2-3.8,5.6-5.2,9-2.1,2.1-5.8,3.4-6.9,6.3-1.7,3.1-1.2,6.2-1.3,9.4-1.2,1.3-2.4,2.5-3.8,3.7-2.8,1.7-2.9,5.9-1.8,8.6.8,2.9,4.3,3.5,6.8,5-1,3.3-2.2,5.9-.8,9.3,1.6,4.1,4.8,4.5,8.6,4.6.8,2.9.9,5.5,3.4,7.5,1.6,1.3,3.8,3.1,5.9,3.3,2-.4,3.8-1,5.8-1.4,3,3,5.5,6.2,10,6.7,6.2.3,11.1-3.3,13.4-8.9,4.1,0,7.7,1.4,11.3-1,3.1-2.8,3.1-6.3,3.3-10.1,1.4-1,3-1.7,4.5-2.5,1.8-1.7,1.4-5.2,1.8-7.5,1.6-.4,3.1-.8,4.7-1.3,3.1-2.6,4.2-7.9.8-10.7-1.3-1.6-3-3-4.1-4.7-.3-3.4.7-6.4-1.2-9.4-1.6-3.1-4.6-4.1-6.8-6.4-1.8-3.7-1.7-7.6-6-9.3-1.7-.8-3.4-1.3-5.2-1.7h-.7c-1.4.5-2.9,1-4.3,1.7-2-1.2-2.9-4.8-5.4-4.6-1.2.1-2.4.4-3.5.8-3.1-2.2-5.5-.4-8.9-.3-2-.1-2.8,2.2-3.9,3.4h.1ZM23.4,25.5c-1,1.6-2.1,3-3.1,4.5-1.6.3-3,.4-4.6.7h-1.2c.5,1.8,1.8,2.6,3.3,3.7-.4,1.8-.7,3.5-.7,5.5,2.2,0,4.3,0,6.5-.4.9-1.3,2-2.8,2.9-4.1.5-.9,1.2-1.7,1.8-2.6-2.2-2.5-3.1-5.4-4.2-8.5,0,0-.8,1.3-.8,1.3ZM59.6,105h-.8l-.5.3-1.6.4c1.7,2,3.4,3.9,5.1,5.9,2-2,3.9-3.9,5.9-5.8-.9-.5-2-.9-3.3-.9-.8-.8-1.4-3.1-2.6-3.1-.7,1-1.4,2.2-2.1,3.4h-.1Z"/>
  <path id="p2" class="cls-4" d="M61.3,3.7c.7,1.3,1.2,2.6,1.8,3.9-.8,1-1.4,3.7-3,3.7,0-2-.3-4.1-.3-6l1.3-1.6h.1Z"/>
  <path id="p3" class="cls-6" d="M59.9,5.2c0,2,0,4.1.3,6,1.6,0,2.2-2.5,3-3.7,1.3,0,2.6.3,4.1.4-.5,1.3-1.2,2.5-1.8,3.7-3.7.7-5.6.7-9-1-.7-.8-1.3-1.7-2-2.5l1-.3c.5,1.8,1.3,1.8,2.4,0,.8-.9,1.6-1.7,2.2-2.6h-.1Z"/>
  <path id="p4" class="cls-7" d="M66,5.4h2.2c-.5,1.8-1.2,1.8-2.2,0Z"/>
  <path id="p5" class="cls-2" d="M55.4,7.8h2.4c-.9,1.8-1.7,1.8-2.4,0Z"/>
  <path id="p6" class="cls-7" d="M56.2,10.5c3.3,1.7,5.4,1.7,9,1-.3,1.3-.4,2.6-.5,3.9-2.4,0-4.8-.1-7.2-.4-.4-1.6-.8-3-1.3-4.6Z"/>
  <path id="p7" class="cls-4" d="M92.4,15.1c.9,1.4,1.8,3,2.6,4.6.4,1.2,1.3,1.6,2.6.9,1.2.3,2.2.5,3.4.8-2.5.7-4.7,1.7-7.2,2.4-2.6-.3-1.8-5.1-2.5-6.9,0-1,.5-1.6,1.2-1.8h-.1Z"/>
  <path id="p8" class="cls-6" d="M78.6,17.7h.5c0,.1-.8.1-.8.1h.3Z"/>
  <path id="p9" class="cls-6" d="M91.2,17c.8,1.8,0,6.7,2.5,6.9,2.4-.7,4.7-1.7,7.2-2.4l.9.5c-.4,1.2-2.2,1.8-3.3,2.5-2.4,1-4.7,1.8-7.2,2.8-.9-1.8-2-3.5-3-5.2.9-1.7,2-3.3,2.9-5h0Z"/>
  <path id="p10" class="cls-4" d="M55.2,19.2c3.4-.1,5.9-2,8.9.3,1,1.2,1.8,2.2,3.5,2.2,1.6-.3.4-2.2,0-3.1,2.5-.3,3.4,3.4,5.4,4.6,3.4.7,6.8.5,10.1,0,.9,3.3,3.4,6.2,3.4,9.6-1.6,0-3,.3-4.5.5,0,1.6-.3,3-.3,4.6-.8-.5-1.7-1-2.5-1.6-.5-1.2-1.3-1.4-2.4-.8l17.5,8.1c2.8,4.6,4.2,20.6,1.6,19.5-4.3-1.7-11.8,1-16,2.9-2.6,1.2-8.8-4.8-11.5-4.2,0,0-8.8-.8-9-.8-3.7.8-3.5-5.6-5-2.8-4.3.5-20.6-5.4-24.2-2.5-.3-6-3.4-20.7,7.3-22.8,1.2-3.5,2-6.3,4.8-8.9,2.5-.3,5-.7,7.5-1.2h.7l.9-.4c1.3-1.2,2.1-3.7,3.9-3.4h-.3,0ZM58.7,22.1l-1.3,1.2c-1.7.9-1.7,1.7,0,2.4l1.4,1.6,1.2,1.3,1.2-1.3c.7-1.3.9-2.6,1-3.9,0-2.1-2.6-2.8-3.8-1h.3ZM44.7,30.5c2.4,1.3,5.2-2.2,2.6-3.8l-1.6-1c-2.4.5-3.5,3.8-1.2,4.8h.1ZM75.2,26.7c-.9,1-.9,2.1,0,3.3,1.7.5,2.5,0,3.9-.9-.3-.7-.5-1.4-.7-2.1-.8-1.8-1.8-1.8-3-.3h-.3ZM39.7,38.7l1.7-.8-1-1.4c-1.4-1.7-3.5-1-3.3,1.3.5,1,1.4,1.3,2.8,1h-.1Z"/>
  <path id="p11" class="cls-3" d="M67.6,18.7c.4.8,1.6,2.8,0,3.1-1.7,0-2.5-1.2-3.5-2.2,1.2-.4,2.4-.7,3.5-.8h0Z"/>
  <path id="p12" class="cls-7" d="M94.9,19.6c1.2-.5,2-.1,2.6.9-1.3.5-2.1.3-2.6-.9Z"/>
  <path id="p13" class="cls-2" d="M45.5,21.4h-.7.7Z"/>
  <path id="p14" class="cls-5" d="M64.6,23.5c-1.3,1.3-2.9,2.4-4.5,3-1-.9-1.7-2.6-2-5.1,2.2-2.6,6.2-1.6,6.4,1.7v.3h0Z"/>
  <path id="p15" class="cls-2" d="M77.8,21.4h-.7.7Z"/>
  <path id="p16" class="cls-3" d="M45,21.4h.7c1.3.3,2.5.7,3.7,1l.4.5c-2.5.5-5,.9-7.5,1.2l-1.4-.9c1.3-.7,2.8-1.3,4.1-1.8h.1Z"/>
  <path id="p17" class="cls-2" d="M49.3,22.5l1,.4h-.7l-.4-.4Z"/>
  <path id="p18" class="cls-1" d="M58.2,21.8c0,2.4.9,3.9,2,5.1,1.6-.9,3-1.7,4.5-3,0,2.2-.7,4.5-1.7,6.5h-4.2l-2.4-2.6v-3.9c-.3,0,2-2,2-2h-.1Z"/>
  <path id="p19" class="cls-3" d="M77.3,21.5h.7c1.8.3,3.5.8,5.2,1.7-3.4.7-6.8.8-10.1,0,1.4-.7,2.9-1.2,4.3-1.7h-.1Z"/>
  <path id="p20" class="cls-6" d="M40.8,23.2l1.4.9c-2.9,2.6-3.7,5.4-4.8,8.9-3.8,3.5-7.6,5.6-7.2,11.7v3.3c-.9,1.2-2.4,2.4-2.2,3.9,0,1.8,1.3,2.6,2.4,3.9,0,2.4.3,4.7.4,7.2-.7.4-1.4.4-2.1.3-3.7-2.8-4.1-7.5-4.7-11.8,1.3-1.2,2.6-2.4,3.8-3.7,0-3.4-.4-6.3,1.3-9.4,1.2-2.8,4.8-4.2,6.9-6.3,1.4-3.4,1.6-7.1,5.2-9h-.4Z"/>
  <path id="p21" class="cls-7" d="M56.1,23.8v3.9c-2.9-1-2.9-2.4,0-3.9Z"/>
  <path id="p22" class="cls-6" d="M83.1,23.1c4.5,1.6,4.3,5.6,6,9.3,2.2,2.4,5.2,3.4,6.8,6.4,1.7,3,.9,6,1.2,9.4,1,1.7,2.6,3.1,4.1,4.7-1.3,3.8-1.2,7.9-5.1,10.1l-1.3-1.4c-1-1.8-2-3.7-2.9-5.6,1-1,2-2,3-3,.4-3.3,0-6.3-.5-9.4,0-3.7-2.1-7.7-5.4-9.4-.8.7-1.6,1.3-2.4,2v-3.5c0-3.4-2.5-6.3-3.4-9.6h-.1ZM96.3,51.3c-.8.9-.8,1.7,0,2.5,2,.5,1.8-3.1,0-2.5Z"/>
  <path id="p23" class="cls-6" d="M24.3,24.2c1,3.1,2,5.9,4.2,8.5-.7.9-1.2,1.7-1.8,2.6-4.1,1.4-5.2.9-8.9-1-1.4-1-2.6-1.8-3.3-3.5h1.2c2.5.8,5,2,7.5,3,1.7-2.9,1.4-5.2.3-8.3l.8-1.3h.1Z"/>
  <path id="p24" class="cls-7" d="M98.5,24.4v5.6c-3-.4-6.3,1-7.1-2.9,2.5-.8,4.8-1.7,7.2-2.8h-.1Z"/>
  <path id="p25" class="cls-4" d="M23.4,25.5c1.2,3,1.3,5.4-.3,8.3-2.5-1-4.8-2.2-7.5-3.1,1.6-.3,3-.4,4.6-.7,1-1.4,2.2-3,3.1-4.5Z"/>
  <path id="p26" class="cls-7" d="M46.3,25.3l2.5,1.7c-1.8,1.7-3.3,3.7-4.2,6-3.7-1.7-2.1-6.8,1.8-7.7h-.3.1Z"/>
  <path id="p27" class="cls-7" d="M78.7,27.2c-1.7,1.4-3.4,1.4-5-.4,2-2.6,3.7-2.6,5,.4Z"/>
  <path id="p28" class="cls-1" d="M48.8,27c4.2,2.5-.4,8.1-4.2,6,1-2.2,2.5-4.2,4.2-6Z"/>
  <path id="p29" class="cls-6" d="M58.8,30.3h4.2l-2,2.2-2-2.2h-.3Z"/>
  <path id="p30" class="cls-1" d="M73.8,26.8c1.4,2,3.3,2,5,.4.4,1,.9,2.4,1,3.4-2.4,1.3-3.7,2.4-6.4,1.4-1.3-2-1.3-3.7.3-5.4h.3-.1Z"/>
  <path id="p31" class="cls-7" d="M10.5,30.3l.3,2.5c-1.8-.5-1.8-1.4-.3-2.5Z"/>
  <path id="p34" class="cls-1" d="M79.8,33.3c2.1-.4,4.5-.7,6.7-.8v5.6l-2.4,2.1c-1.6,0-3.3.3-4.8.4,0-2.5.1-4.8.4-7.3h.1ZM81.8,35c-.8,1.7-.4,2.8,1.3,3.3,3.3-.7,1.2-5.2-1.3-3.3Z"/>
  <path id="p35" class="cls-7" d="M17.7,34.2c3.7,2,4.8,2.4,8.9,1-.9,1.4-2,2.8-2.9,4.1-2.2.4-4.3.4-6.5.4,0-1.8.3-3.7.7-5.5h-.1Z"/>
  <path id="p37" class="cls-4" d="M65.3,34.2h.7v.7h-.7v-.7Z"/>
  <path id="p38" class="cls-7" d="M81.5,34.4c3.1-2.5,5.9,3.9,1.7,4.6-2.2-.8-2.9-2.2-1.7-4.6Z"/>
  <path id="p39" class="cls-4" d="M89,34.2c3.3,1.7,5.5,5.6,5.4,9.4-3.7-1.6-7.3-1.2-11.1-1.4-.5-1.4-1-3-1.6-4.5,1.2,0,2.2,0,3.3-.3l1.6-1.3c.8-.7,1.6-1.3,2.4-2h.1Z"/>
  <path id="p40" class="cls-1" d="M42.5,36.7l-.9,4.3c-2.5.8-4.1,0-5.1-2-.5-4.3,3.4-5.6,6-2.5h0Z"/>
  <path id="p41" class="cls-2" d="M47.7,35.8h-.5.5Z"/>
  <path id="p42" class="cls-2" d="M76.9,35.4v.8l-.8-.3s.8-.5.8-.5Z"/>
  <path id="p43" class="cls-6" d="M74.4,36c2.2-1.7,3.8-1,4.8,2h-4.8v-2Z"/>
  <path id="p44" class="cls-6" d="M42.5,36.7l2,2.6-3.1,1.4.9-4.3.3.3Z"/>
  <path id="p47" class="cls-5" d="M46.1,40.1s-.3.4-.3.5l.3-.5Z"/>
  <path id="p49" class="cls-5" d="M45.5,43.9l.8.7h-.7v-.7h-.1Z"/>
  <path id="p52" class="cls-5" d="M41.8,47.9l-.5.3s.3,0,.5-.3Z"/>
  <path id="p53" class="cls-5" d="M83.1,48.8l-2.9-.9c1.8-5.9,10.3-2.4,2.9.9Z"/>
  <path id="p54" class="cls-4" d="M30,48v7.9c-1-1.3-2.4-2.1-2.4-3.9s1.3-2.8,2.2-3.9h.1Z"/>
  <path id="p57" class="cls-3" d="M52.3,46.7l2.9,2.5c1.4,5.2-3.4,3.7-6,1.2,1.2-1.2,2-2.5,3.1-3.7Z"/>
  <path id="p62" class="cls-3" d="M42.3,50.9h4.6c-1.2.8-2.4,1.6-3.5,2.4,1,.5,2.1,1,3.1,1.6v1c-1.2-.7-3.9-.4-2.6,1.7.8.7,1.7.8,2.9.5v1.2h-4.5c-.3-2.8-.3-5.4,0-8.1h0v-.3Z"/>
  <path id="p65" class="cls-4" d="M96.3,51.3c2-.5,2,3,0,2.5-.8-.8-.8-1.7,0-2.5Z"/>
  <path id="p66" class="cls-7" d="M94.6,61.9l1.3,1.4c3.9-2.2,3.7-6.2,5.1-10.1,3.4,2.9,2.4,8.1-.8,10.7-1.6.5-3.1.9-4.7,1.3-.5,2.4,0,5.9-1.8,7.5-1.4.9-3,1.6-4.5,2.5,0,3.8,0,7.3-3.3,10.1-3.5,2.5-7.3,1.3-11.3,1-2.2,5.6-7.3,9.2-13.4,8.9-4.6-.5-7.1-3.7-10-6.7-2,.5-3.8,1-5.8,1.4-2.1,0-4.3-2-5.9-3.3-2.5-2-2.5-4.6-3.4-7.5-3.8-.3-7.1-.7-8.6-4.6-1.6-3.4-.3-6,.8-9.3-2.4-1.4-6-2.1-6.8-5-1-2.8-.9-6.9,1.8-8.6h0c.7,4.1,1,8.8,4.7,11.7.7,0,1.3,0,2.1-.3,1.4,1.3,2.9,2.5,4.6,3.5l-.4,1.6c-1.6-.5-3.1-1-4.7-1.4,0,4.2,1.4,5.9,4.8,8.1,3.8,1.7,3.7,5.1,6.2,8.1.8-1,1.6-2.1,2.4-3.1-1,3,.9,4.2,3.4,2.4l.5,1.4c2,.3,3.9,0,5.8.4,3.4,2,5.4,4.7,9.7,4.7,6.4-.4,8.3-7.3,14.9-6.3.5-.4,1-.8,1.7-1.3,1.4-.5,3-.9,4.6-1.3l1.4.5c1.4-2.2,2-4.8,3-7.3,1.6-1.3,3.4-2.4,5-3.5,0-.9.3-1.7.4-2.6"/>
  <path id="p67" class="cls-7" d="M34.4,52.3c3-1.3,4.1,2.4,2.1,4.5-.5-1.4-1.3-2.6-2.2-3.7v-.7h.1Z"/>
  <path id="p68" class="cls-3" d="M86.7,52.1h1.7c1.2-.3,2.2.7,2.2,1.8,0,3,.4,5.5-.8,8-2.6-1.2-3.9-1.4-4.5-3.9s-.1-1.2,0-1.7.3-1.2.3-1.7c0-.9.4-1.7,1-2.4h.1-.1Z"/>
  <path id="p69" class="cls-3" d="M34.2,53c.9,1.2,1.7,2.4,2.2,3.7l.5,1.7c1,.8,2.1,1.6,3.1,2.2-1.3.3-2.6.7-3.9,1-.9-.9-1.8-1.8-2.8-2.9,0-2,.4-3.9.8-5.8Z"/>
  <path id="p70" class="cls-1" d="M85.4,53.4c.4,1.2.3,2.4-.3,3.5-1.7-1.2-1.8-2.6.3-3.5Z"/>
  <path id="p72" class="cls-6" d="M46.7,55.7v2.2c-1,.3-2,0-2.8-.5-1.3-2.1,1.4-2.4,2.8-1.7Z"/>
  <path id="p74" class="cls-6" d="M33.4,58.7c.9,1,1.8,2,2.8,2.9,1.3-.4,2.6-.7,3.9-1-1.2,2-3,2.2-5,2.9-1-1.6-1.7-2.9-1.7-4.7Z"/>
  <path id="p75" class="cls-6" d="M27.8,51.9c1,3.1,11.3-2.9,14.5-1,8.3-1.3,10.9,7.1,13.2,5.9,5.6-1.7,6.7-4.1,12.8-4.1,3-1.6,7.1,3.4,12.6,3.7,3.5.8,10.2,4.3,13.8,5.2,1.7.5-2.2,5.6-.7,5.1,0,.9-.3,1.7-.4,2.6-1.7,1.2-3.4,2.4-5,3.5-1,2.5-1.6,5-3,7.3l-1.4-.5c-.4-.9-.8-1.8-1.2-2.6-.8-1.4-1.7-1.4-2.9,0-.5,1.3-.7,2.6-.5,4.1-.5.4-1.2.8-1.7,1.3-6.7-1-8.6,5.9-14.9,6.3-4.3,0-6.3-2.9-9.7-4.7-2-.3-3.8,0-5.8-.4l-.5-1.4c-.4-1.6-1.4-3.7-3.4-2.4-.8,1-1.6,2.1-2.4,3.1-2.5-3-2.5-6.4-6.2-8.1-3.4-2.1-4.8-3.9-4.8-8.1,1.6.5,3.1,1,4.7,1.4l.4-1.6c-6.7-3.3-10.6-14.8-7.3-14.7h-.3,0ZM79.4,73.4h4.6c.3-2.9,0-3.3-2.4-4.8-2.5,1.6-2.5,2-2.4,4.8h.1ZM43.5,70c-1.2.3-1.6,1-.9,2.1,1.8,1.2,3.1-1.6.9-2.1ZM60.7,78.6c.3.7.9,1.2,2.1,1.3-3.5,1.6-2.6,3.1-2.1,6.4,1.7.3,2.9.3,4.6-.3,2.1-2.5,1.3-3.3,0-5.8v-.8l.3-1.2c-1.3-.8-3.4-.7-4.6,0h-.3v.3Z"/>
  <path id="p76" class="cls-5" d="M105.9,63.8c.4,2.6-.7,4.1-2.1,6.2-.5.4-1.2.9-1.7,1.3,1.2,3.1,3.5,2.8,6,4.3-2.2.7-4.5,1-6.7,1.8-1.8,1.2-3,3.8-4.1,5.6,0,1,0,2.1.3,3,1.2,0,2.4,0,3.7-.5-2.5,4.6-7.2,5.1-11.8,6.3-.3,1-.5,2.1-.8,3.1l-.4,1-.4.7c-.7.7-1.4,1.3-2.2,2-.8-.4-1.6-.7-2.4-.9-4.1,2.2-9.4,3.1-11.3,7.6-.9-.8-1.8-1.7-2.8-2.4l-.7-.4c-1.7-.8-3.1-1.6-4.2-3.1,2.5-1.6,5.4-2.5,8-3.9l.7-.5,1.7-1.7.5-.5c.9-.8,1.8-1.6,2.9-2.2l.8.3c1.4.8,2.8.7,3.9-.5,5.6-1.6,8.3-4.8,10-10.3v-1.7l.4-.9c2.2-2.1,4.5-3.7,5.5-6.8l.4-.7c1-2,2.6-3,4.2-4.3l.7-.5,1.8-1.4v.3Z"/>
  <path id="p77" class="cls-5" d="M19.4,64.9c1.4.9,4.2,1.8,4.1,3.9,0,4.3.4,7.9,3.4,11.1l.5.5c2.8,2,5.8,2.2,7.1,5.6,1.7,3.7,4.2,5.5,7.9,7.1l.8.3c1.7.3,3.4.4,5.1.5h2.4l1.7,1.6.5.4c.9.7,2,1.3,3,2l.7.4c1.3.5,2,1.2,2.1,2l-.3.8c-1.8,1.4-4.1,2.5-5.8,4.1l-.5.5c-3.7-2.8-7.7-3.3-11.9-4.6-.5-.9-1.2-1.8-1.7-2.6l-.4-.7c-.7-.9-1.4-1.8-2.1-2.6l-.3-.4h-.4l-2-.5c-3-1.6-4.6-3.4-8.1-3.1-.5-.7-1-1.2-1.6-1.8l2.2-.5h.5v-.7c.4-1.3.3-2.4-.4-3.3-1-1.7-2.2-3.8-3.8-5.1-2-.9-3.7-1.7-5.2-3.4,2.5-.4,6.2-1.6,5-4.8-1.2-2.1-2-4.2-2.4-6.5h-.1Z"/>
  <path id="p78" class="cls-2" d="M104.2,65.4l-.7.5.7-.5Z"/>
  <path id="p79" class="cls-1" d="M104.2,70.9c3.9-1.4,4.7-2.9,6.3-5.9,1.6,4.5,3.4,4.8,4.8,6.4l-2.4,2c-1.6,1.6-1.8,2.2-2,3.9l-2.5-4.1M109.7,70.1c-1.2,1.3.3,3.7,2,2.8,1.2-1.3,0-3.8-2-2.8Z"/>
  <path id="p80" class="cls-1" d="M16.8,76.3h-.8M14.1,79.8c-1.8-3.4-2.1-3.9-5.8-6l.4.8-.4-.8c1.8-.9,4.8-3.4,5.2-6.7,2.2,3.3,3.3,5.2,6,5.9M12.5,72.6c-1.2,2,1.3,3,2.6,1.4,1.2-2-1.3-2.8-2.6-1.4Z"/>
  <path id="p81" class="cls-3" d="M45.2,62.1c-2.8,3.1-5.4,5.9-8.1,9-1.2-1.7-2-3.7-3.1-5.4,3.7-1.4,7.3-2.5,11.3-3.7Z"/>
  <path id="p82" class="cls-1" d="M53.2,69.1q.3.3,0,0Z"/>
  <path id="p83" class="cls-7" d="M82.8,65c4.5,2.9,4.7,3.7,4.5,9h-8.5c-.5-5.4-.3-6.2,4.5-9h-.4Z"/>
  <path id="p84" class="cls-1" d="M43.8,67.5c4.8.8,1.7,7.1-2,4.5-1.2-2.2-.5-3.7,2-4.5Z"/>
  <path id="p85" class="cls-2" d="M99.3,70.3l-.4.7.4-.7Z"/>
  <path id="p86" class="cls-6" d="M110.4,67.3c.4,2,1.8,3.7,3,4.1,0,0-2.4,2-2.8,4.1-1.4-2.4-3.5-4.5-3.5-4.5,0,0,2.8-1.8,3.3-3.7Z"/>
  <path id="p88" class="cls-6" d="M11.3,73.5c1.8-.9,2.6-2.6,2.6-3.4s.5,2.5,2.6,3.4c-2.6,1.2-2.4,3.4-2.4,4.3s-1.2-3.4-2.8-4.3h-.1Z"/>
  <path id="p92" class="cls-7" d="M83.7,76.5c-2.1,3.9-3.7,4.8-5,0,2.1-2.5,3.7-2.5,5,0Z"/>
  <path id="p94" class="cls-1" d="M78.7,76.5c1.3,5,3,3.9,5,0,.7,1.6,1.3,3.1,2.1,4.6-2.8.7-5.2,1.3-8,2.2-.3-2.5,0-4.8.9-7.1v.3Z"/>
  <path id="p95" class="cls-2" d="M93.2,78l.4-.4-.4.9v-.7h0Z"/>
  <path id="p96" class="cls-2" d="M111.1,77.6l-.5.7.5-.7Z"/>
  <path id="p97" class="cls-4" d="M60.7,78.6c1.2-.9,3.4-.9,4.6,0v1.2l-2.6.4c-1.2-.3-1.8-.7-2.1-1.3h0v-.3Z"/>
  <path id="p98" class="cls-6" d="M110.4,78.3l-.4.9.4-.9Z"/>
  <path id="p100" class="cls-2" d="M26.9,80l.5.5-.5-.5Z"/>
  <path id="p101" class="cls-1" d="M42.6,76c4.3-3,7.1,1.6,8,5.5-5.9,4.3-10.5,1.6-8-5.5Z"/>
  <path id="p102" class="cls-7" d="M64.5,75.8l3.8-.7v1.3c-.4,1.7-.9,3.4-1.3,5.1-1.7.7-3.1,1.3-4.8,2,1.3,1.3,3.1,2.1,6.2,2.6-2.6.9-4.7.9-7.5.4-.9-5.4-2.1-7.9,3.4-10.5,0,0,.3-.3.3-.3Z"/>
  <path id="p103" class="cls-2" d="M93,79.7v.7-.7Z"/>
  <path id="p104" class="cls-1" d="M68.1,76.4c2.4,4.3,3.7,5.4,0,9.4-2.8-.3-4.8-1-6.2-2.6,1.7-.7,3.1-1.3,4.8-2,.4-1.7.7-3.4,1-5.1,0,0,.3.3.3.3Z"/>
  <path id="p106" class="cls-2" d="M26.2,87.9v.5h-.7l.7-.5Z"/>
  <path id="p107" class="cls-2" d="M79.3,90.4l-.3.8-.8-.3,1-.4h0Z"/>
  <path id="p108" class="cls-7" d="M79.3,90.4c1.2-.4,2.4-.3,3.7.3-1.2,1-2.5,1.2-3.9.5l.3-.8Z"/>
  <path id="p109" class="cls-2" d="M42.5,93.2l.8.3-.8-.3Z"/>
  <path id="p110" class="cls-7" d="M50.6,93.8h-2.4c.5-1.8,1.3-1.8,2.4,0Z"/>
  <path id="p111" class="cls-3" d="M75.3,93.1l-.5.5.5-.5Z"/>
  <path id="p112" class="cls-1" d="M39.7,100.4c.5.4-1.4.5-2.6,1.4-1.6,1.2-2,3.1-2.1,4.7-.4-.9-1-2.4-2.2-3.7-1.4-1.6-3.1-2.4-4.1-2.8,3.5-2.5,4.5-3.7,4.5-4.3,0,0,.1-.8.4-1.6,0-.3.1-.4.4-.7h-.3c2.8,6.3,1.6,3.7,6,7.1v-.3ZM34,98.9c-2,.8-1.2,3.3.8,3,2-.8,1.2-3.3-.8-3Z"/>
  <path id="p113" class="cls-2" d="M35,94.6h.4l.3.4-.7-.4Z"/>
  <path id="p114" class="cls-1" d="M91.8,105.8c-.9-2.4-2-3.5-2.6-4.2-1.7-1.4-2.4-1.7-2.4-1.7-.7-.5-1.6-.8-1.2-.9,4.5-1.7,3.5-2.2,5.6-5.8,0-.1.3-.3.3-.3.4.8.1.4,1,2.2s1.2,2.4,4.1,4.1c2.9,1.7-.3-.4-1.8,1.2s-1,1-3,5.4ZM90.3,98.2c-1.2,1.3,0,3.8,2,2.8,1.2-1.3-.3-3.7-2-2.8Z"/>
  <path id="p115" class="cls-2" d="M52.3,95.4l.5.4-.5-.4Z"/>
  <path id="p116" class="cls-2" d="M73.1,95.4l-.7.5.7-.5Z"/>
  <path id="p117" class="cls-2" d="M88.3,96.3l-.4.7.4-.7Z"/>
  <path id="p118" class="cls-3" d="M37.8,97.8l.4.7-.4-.7Z"/>
  <path id="p119" class="cls-3" d="M55.7,97.8l.7.4-.7-.4Z"/>
  <path id="p120" class="cls-6" d="M91.3,95.9c.8,1.6,1.3,2.6,2.5,3.1s-.5-.4-1.8,3.5c-2.8-3.9-3.5-2.8-3.1-3.4s1.2-1,2.6-3.4h-.1Z"/>
  <path id="p121" class="cls-6" d="M34,97.9c1,1.4,2.6,2.4,2.6,2.4-1.3,1.2-2.1,2.4-2.1,2.4l-2.6-2.4s2-1.3,2.1-2.4Z"/>
  <path id="p122" class="cls-2" d="M58.4,100.1l-.3.8.3-.8Z"/>
  <path id="p125" class="cls-2" d="M95.6,101.3l-.4.5.4-.5Z"/>
  <path id="p126" class="cls-2" d="M30.6,102.7l.5.7-.5-.7Z"/>
  <path id="p127" class="cls-2" d="M38.3,102.6l-.5.5.5-.5Z"/>
  <path id="p128" class="cls-2" d="M68.8,102.9l.7.4-.7-.4Z"/>
  <path id="p130" class="cls-2" d="M52.4,105.1l-.5.5.5-.5Z"/>
  <path id="p131" class="cls-7" d="M58.2,105.2h0"/>
  <path id="p131-2" class="cls-7" d="M61.9,100.1c.4-.9.9,1.3,2.1,2.8,1.4,1.8,3.4,2.6,4.7,3.1-.9.4-2,1-3,2-2.4,2.1-3.5,4.5-3.9,5.8-.3-1.2-.9-2.8-2.1-4.3-1.7-2.2-4.8-3.5-3.4-3.8,2.4-.4,4.7-3.8,5.5-5.5h.1Z"/>
  <path id="p131-3" class="cls-7" d="M61.9,100.1"/>
  <path id="p132" class="cls-5" d="M58.2,105.2h.5-.5Z"/>
  <path id="p133" class="cls-2" d="M90.1,105.5"/>
  <path id="p134" class="cls-2" d="M35.7,106l-.7.5.7-.5Z"/>
  <path id="p33" class="cls-1" d="M50.4,73.7c-.5-.4-3.6-2.6-4.3-6.9s1.6-7.2,1.9-7.8c3.8-5.6,13.2-8.3,14.6-15-4,0-6.7,4.7-10.4,3-4.5-.4-5.6-6.1-3.4-8.8s5.3-5.4,8.8-5.7h.9c.6-.3,1.3-.3,2.1-.3,3.1,0,6.5,0,9.3,1.9,5.4,3.8,7.1,9.4,5.2,15.7,0,0-1.7,2.5-1.7,2.6-1.7,1.8-2.2,2.3-3.6,3.6-2.5,1.8-3.6,3.1-5.7,4.9h4.9c1.7,0,2.3.4,3.4.9h0c.9.5,1.8,1.2,2.5,1.9,1.4,1.7,1,4,.5,6.3-.4,1.7-.9,1.8-3.5,3.4-5.8,1.8-12.2,3-21.5,0h-.1ZM51.6,41.7c.9,3.5,5,.8,8.3-.6,3.6-2.3,7.6,3.8,5.6,6.7-3.1,4.4-7.6,7.4-11.6,10.6-3.6,2.1-5.3,7.4-1.7,9.8,5.6.8,10.7,1.2,16.4.8,2.7-.4,2.1-1.6,2.1-3.8-5-.6-9.1.6-14.1.1l-1.3-1.8c4.3-4.3,9.7-8,13.8-12.6,4.3-4.4,3.5-12.3-2.2-14-.8-.8-2.5-2.5-5.3-2.3s-3.1.3-4.5.8c-4.3,1.4-6.7,4-5.6,6.2h.1ZM64.6,35h.6M51.7,71.9q.3.3,0,0Z"/>
  <path id="p36" class="cls-3" d="M61.7,34.7h.5c4.5,0,8.7,2.8,10.1,7.1s.4,6.7-2.2,9.4c-4.1,4.5-9.4,8.2-13.8,12.4l.5,1c5,.6,10.1,0,15.1.5,0,2.2.1,4.3-2.6,4.7-5.7.4-11.8.5-17.3-.3-3.6-2.6-1.8-9.3,1.8-11.4,4-3.2,8.5-6.2,11.6-10.6,2.1-3-1-7.9-6.2-5.7-.8.4-3.8,1.2-4.4,1.4-2.8,1.4-4.8-2.5-2.6-4.8s3.9-3.2,6.2-3.5l3.4-.3h-.1Z"/>
</svg>