<?xml version="1.0" encoding="UTF-8"?>
<svg id="_Слой_1" data-name=" Слой 1" xmlns="http://www.w3.org/2000/svg" version="1.1" viewBox="0 0 120 120">
  <defs>
    <style>
      .cls-1 {
        fill: #958cbe;
      }

      .cls-1, .cls-2, .cls-3, .cls-4, .cls-5, .cls-6, .cls-7, .cls-8, .cls-9 {
        stroke-width: 0px;
      }

      .cls-2 {
        fill: #012021;
      }

      .cls-3 {
        fill: #ff2d52;
      }

      .cls-10 {
        stroke: #012021;
        stroke-miterlimit: 10;
        stroke-width: 2px;
      }

      .cls-10, .cls-9 {
        fill: #fff;
      }

      .cls-4 {
        fill: #daf0f7;
      }

      .cls-5 {
        fill: #00a2f5;
      }

      .cls-6 {
        fill: #ffe07f;
      }

      .cls-7 {
        fill: #ffad00;
      }

      .cls-8 {
        fill: #380a3e;
      }
    </style>
  </defs>
  <path id="p2" class="cls-8" d="M60.7,2.1c1.1,1,2.1,1.9,3.3,2.9l.6.5c1.4.6,2.8,1.4,4,2.3.3,1.1.1,2.4-.4,3.6l-.5.9-.6.9c-1,1-1,1.9.3,2.8l-.5.9-.5.6c-.9,1.3-2.3,1.6-4.2,1h-1.1c-2-.1-4,.4-6,.3-1.1-.8-1.1-2.8-1.6-4-.4-2.3-1.8-4.7-1.8-7,1.4-1.4,3.4-1.9,5-3,1.3-.8,2.5-2.5,4.2-2.4h-.1ZM53.4,8.7l.6,1.5c.8,1.9,1.5,3.9,2.3,5.8,2.5.1,5,0,7.5-.1.9-2.4,1.8-4.7,2.9-6.9l-.8-.4c-2.4-1-3.9-2-5.5-4-2.3,1.5-4.5,2.9-7,4.2Z"/>
  <path id="p3" class="cls-6" d="M60.3,4.4c1.6,2,3.1,3,5.5,4-2.1,1.6-3.1,2.5-3.5,5.2-3.8.3-4.7-1.9-6.8-4.4l-1.6.9-.6-1.5c2.4-1.3,4.7-2.6,7-4.2Z"/>
  <path id="p4" class="cls-3" d="M63.8,5l.6.5-.6-.5Z"/>
  <path id="p5" class="cls-8" d="M35.6,8.3c2.9.3,5.7,1.3,8.6,1.9,2.1.3,2.3,1.5,3,3.1-2.1,2-2.5,3.3-.5,5.7v2.6l-.9.9-2.5.5c-1.3-.6-2.3-.4-2.9.9l-1,.3-2.1,1.1-.9.4h-.6l-1.8-1.4c.6-1.3.3-2.3-1-2.8-1.4-1.3-2.6-2.5-3.8-3.9.9-3.4,4.7-5.8,6.3-9.1v-.3ZM31.9,16.4l.8,1c1.4,1.9,2.6,3.6,4.3,5.3.9-.4,1.8-.8,2.6-1.3,1.9.4,3.3.3,4.3-.6v-9.2c-.9-1-1.6-.8-2.3.8-1.8-.5-3.9-1.9-5.7-1.6-1.1,2.6-2,4-4.3,5.7h.3Z"/>
  <path id="p6" class="cls-7" d="M55.5,9.2c2.3,2.5,3,4.5,6.8,4.4.4-2.8,1.4-3.5,3.5-5.2l.8.4c-1,2.3-2,4.5-2.9,6.9-2.5.3-5,.3-7.5.1-.8-1.9-1.5-3.9-2.3-5.8,0,0,1.6-.9,1.6-.9Z"/>
  <path id="p7" class="cls-8" d="M83.4,8.4l1,.3c2,2.6,4.2,5.3,6.3,7.8,0,1.8-2.5,3.6-3.5,5-1.8,1-2.9,2.1-4.2,3.9l-.5-.5-1.9-.9-1-.4c-.9-1.4-2-1.8-3.6-1.1l-.9.3c-.5-1.1-1.1-2.1-2-2.9l.5-.6.6-1.9v-.9l-.9-2-.4-.9-.3-.9c2.4-3.1,7-2.9,10.7-4.2h0ZM75.1,12.5l.5,1.6.3,1v4.8c.5,2.1,1.3,2.4,2.4.5,1.6.8,3.1,1.6,4.9,2.3,1.5-1.8,4-3.6,4.7-5.9l-.6-.6c-1.5-1.6-2.9-3.5-4.2-5.4-2.6,1-5.3,1.4-8.1,1.9h.1Z"/>
  <path id="p8" class="cls-6" d="M36.3,10.7c1.8-.3,3.9,1.1,5.7,1.6l2.1.3v.8c-2.4,1-1.9,2.9-2.6,4.9-1.1.6-2.8,1.3-4,.9-1.8-1.3-2.3-2.8-4.7-1.9l-.8-1c2.3-1.6,3.3-3,4.3-5.7h0Z"/>
  <path id="p9" class="cls-6" d="M83.1,10.6c1.3,1.9,2.5,3.6,4.2,5.4-3.1,2-4.4,5-8.3,2.4-1-2.3,0-4.5-3.4-4.3l-.5-1.6c2.8-.5,5.4-.9,8.1-1.9Z"/>
  <path id="p10" class="cls-1" d="M44.1,11.7v1l-2.3-.3c.6-1.4,1.4-1.6,2.3-.8Z"/>
  <path id="p11" class="cls-5" d="M68.1,11.3l-.5.9.5-.9Z"/>
  <path id="p13" class="cls-5" d="M69.6,12.8h1l.5.9-.5.9h-1l-.5-.9.5-.9Z"/>
  <path id="p15" class="cls-7" d="M43.9,13.5v6.5c-2-.5-3.3-.5-4.3,1.5-.9.4-1.8.8-2.6,1.3-1.6-1.6-3-3.4-4.3-5.3,2.4-.9,2.9.6,4.7,1.9,1.3.4,2.9-.3,4-.9.8-2,.3-3.9,2.5-4.9h0Z"/>
  <path id="p16" class="cls-5" d="M47.2,13.3c1.1,2,0,3.6-.5,5.7-2-2.4-1.5-3.5.5-5.7Z"/>
  <path id="p18" class="cls-7" d="M75.6,14.1c3.3-.1,2.3,2,3.4,4.3,3.9,2.6,5.3-.4,8.3-2.4l.6.6c-.6,2.3-3.1,4.2-4.7,5.9-1.8-.6-3.3-1.4-4.9-2.3l-2.3-.5-.3-2.4c2-.8,2-1.5,0-2.4l-.3-1h0Z"/>
  <path id="p20" class="cls-3" d="M75.9,15.1c2,.9,2,1.6,0,2.4v-2.4Z"/>
  <path id="p22" class="cls-5" d="M66.7,16.7l-.5.6.5-.6Z"/>
  <path id="p24" class="cls-5" d="M60.8,18.2h1.1c0,.1-1.1,0-1.1,0Z"/>
  <path id="p28" class="cls-8" d="M20.5,20.3c2.9.9,5.3,2.1,8.4,1.8,1.8,1.6,1.8,3,1.9,5.3v1.5c-.5,2-.8,4-.5,6-3.5.1-6.4,2.1-9.7,2.6-2.1-2.8-4.2-5.2-6.8-7.5.6-3.5,4.9-6.4,6.7-9.7ZM16.5,28.8c-.6.6-.5.9.4.9,1.5,1.8,3,3.5,4.7,5.3,2.3-1.4,4.4-1.5,6.8-2.1,1.1-1.4-.3-4.5-.3-6.2.5-.8.6-1.5.6-2.3l-2-.5h-2.3c-.9-.4-1.9-.8-2.8-1.1-1.6,2.1-3.1,4.3-5.2,6.2h0Z"/>
  <path id="p29" class="cls-3" d="M43.9,20v.9c-1,.9-2.4,1.1-4.3.6,1.1-2,2.3-2,4.3-1.5Z"/>
  <path id="p33" class="cls-3" d="M76,19.9l2.3.5c-1.1,1.9-1.9,1.8-2.3-.5Z"/>
  <path id="p34" class="cls-8" d="M98.4,20.5c2,0,2.5,2.3,3.6,3.5,1.3,1.9,4.3,3.5,4.2,5.9-1.6,1.8-3.5,3.3-4.9,5.3-1,1.3-1.6,3-3.6,1.9-2.6-1.4-5.8-1.8-8.4-3.3.5-1.3.5-2.5.3-3.9v-1.1c.3-2,.5-4,.3-6.2,3-.6,5.8-1.3,8.7-2.3h0ZM91.6,24.4v7.9c2.5.6,4.8,1.4,7.2,2.6,1.6-2,3.3-4,4.8-6.2-1.9-1.8-3.5-3.6-5-5.8-2.3.4-4.5.9-6.8,1.4h-.1Z"/>
  <path id="p36" class="cls-3" d="M33.1,21.4c1.3.6,1.6,1.5,1,2.8-1.1-.6-1.5-1.6-1-2.8Z"/>
  <path id="p37" class="cls-5" d="M46.6,21.5v.9h-.8l.8-.9Z"/>
  <path id="p38" class="cls-5" d="M54.6,22.6c-.5.8-1.4,1.3-2.5,1.4"/>
  <path id="p41" class="cls-6" d="M21.7,22.6c1,.4,1.9.6,2.8,1,.8,2.1,1.5,2.1,2.3,0l2,.5c0,.8-.1,1.5-.6,2.3-2.1,1.6-3.5,3.6-5.2,5.8-2-1.6-3.8-3-6.4-3.5,1.9-1.9,3.4-4,5.2-6.2h0Z"/>
  <path id="p42" class="cls-5" d="M43.3,22.9c-.8,1.1-1.8,1.4-2.9.9.6-1.3,1.6-1.5,2.9-.9Z"/>
  <path id="p43" class="cls-5" d="M46.7,22.4q.8.6,0,0Z"/>
  <path id="p45" class="cls-8" d="M84.3,34c.9,1.3,1.8,2,3,2.3l1,.3c1.1,1.4.8,1,1.9,2.1,2.4,2.1,1.8,4.7,2.5,7.4.9,2.8,2.9,5,3.8,7.8-.3,4.9-.5,10.4-4,14.1-2.4,2.9-2,6.5-4.3,9.6-1.5,2-4.2,4-6.5,4.9-1.3.5-3.3.6-4,1.9,4.5-.8,8.9-2.3,12.8-4.5.3-1.8.5-3.5.9-5.3,4-2.6,8.9-3.6,13.2-5.8,2.1-1.3,3.5-.3,5.4.8.6,2.4-1,3.6-1.9,5.7,1,1,2.1,2,3.1,3,0,4.3-4.9,4.8-7.9,6.4.9,1.8,2.6,3.9,2.5,5.9-.9,2-3,3.6-4.8,4.8-14.8,9.2-33.2,12.1-50.3,9.8-10.4-1.4-21.8-4-30.4-10.1-2.1-1.6-4.8-2.6-4.9-5.8.6-1.6,1.8-3.3,2.6-4.9-2.3-1-4.9-1.6-6.9-3-1.9-2.9.5-4,2-6-.4-1.6-3.8-5.5-1.1-6.3,3.1-2.4,5.8.6,9.1,1.6,3,1.1,5.9,2,8.7,4,.4,1.8.6,3.5.9,5.3,3.9,2.1,8.4,3.3,12.8,4.4-1.9-2.3-6-1.9-8.2-4.2-1.5-1.5-2.8-3.1-3.9-4.9-1.1-2-.9-4.5-2.3-6.4-1.9-2.6-3.4-5.3-4.4-8.6,0-1.4-.1-2.8-.3-4.3,1.1-2.5,2.3-4.9,3.6-7.2,1.8-2.6,1.6-5.8,2.3-8.8l.6-.5c1.1-.9,2-1.9,2.6-3.3l1-.8c1.9-1.1,3.9-1.8,5-3.8.5-.9,1.1-1.8,1.6-2.6l.9-.5,1.3-1.1c3.4-1.3,6.5-.6,9.1-3.4,1.1-.3,1.9-.6,2.5-1.4,4.5-.5,8.7-.5,13.1.9l.6.8c3.5,1.4,2.8,1.1,6.2,2l.9.3,2,1,1,.4c1.8,1.3,1.5,2.3,2.8,2.8M55.9,85.8l1.5-.3c1.3-1,1.8-.6,3.1,0,1.6,2.3,3.8,1.4,5.7,0h3.1c2-.3,3.6.3,5-1.4.8-1,.9-2.6,1.3-3.8,1-.5,2.5-.1,3.6-.3,1-.9,2-2.3,3.1-2.9,1.5-.6,3.5-.4,4-2.4.5-1.8,1.5-4.2.6-5.9l-.4-.8c3.4-.6,5.8-4.8,5.8-7.9.3-4.3.8-8.2-3-11.2l-1.1-1.1c-.1-2.8.3-5.3-1.6-7.7l-.9-1.1c-2.1-2.6-5.4-3.6-7.2-6.7-2.5-4.5-8.4-3.1-12.8-6-4.3-2.5-7.8-2.4-12.1,0-3.4,2.4-7.7,1.5-10.8,4.2-2.1,1.8-3,4.4-5.4,5.8-2.5,1.6-4.9,2.6-5.4,5.8-.4,1.8-.6,3.5-1,5.3-1.6,3.4-4.4,5.4-3.4,9.6,0,0,.3.4,0,2.4v1.3c.1,1.1.3,2.1.5,3.1,1.3,1.1,2.5,2.3,3.6,3.5.8,1.9-.3,3.9,1.1,5.7,1,1.4,1.8,4.2,3.8,4.3,2.4.3,3,2.4,5.3,2.8,2,.3,2.6,2.1,3.9,3.5.8,0,1.6.3,2.4.4l1,.6c1.3.9,3.3,2.5,4.9,1.8M13.4,71.6c.8,1.5,3.3,3.5,2.8,5.2l-.6.8c-1,.6-1.9,1.1-2.9,1.8,1.5,1.9,3.9,2.8,6.3,2.5,2.6-1.6,5.2-3.3,7.8-4.9-1.4-2.9-7.5-3.6-10.3-5.3-.5-1.9-3.8-2.4-3.1,0h.1ZM93.6,76.9c1.6,1.6,4.2,2.3,5.9,3.9,1.6,2.5,8.7,0,8.7-2.5l-2.1-.4q-1.3-.3-2.4-1.3c-.5-2.1,3.4-3.1,3.3-5.2v-.9c-4.7.8-8.9,3.6-13.2,5.3v1h-.1ZM22.7,82.5c-1.9,2.4-4.4,4.8-5.4,7.7,8.2,6.9,17.9,9.7,28.2,12,7.3,1.6,15.3,1,22.9,1,12.1-1.1,23.7-4.7,33.5-12,2-3.6-2.3-6.3-4.3-8.8l-1.8-1.8c-3.6,1-7.2,2.8-10.8,4-5.8,2.1-11.7,3.1-17.9,3.6-11.4.9-22.9-.4-33.7-4.4-2.9-1.1-5.8-2.9-8.8-3.3-.6.5-1.4,1.1-1.9,1.9Z"/>
  <path id="p46" class="cls-5" d="M75.9,22.6c1.5-.6,2.8-.3,3.6,1.1-1.9.9-3,.5-3.6-1.1Z"/>
  <path id="p47" class="cls-5" d="M89.7,22.8c.3,2.1,0,4.2-.4,6.2-1.4-1.5-2.3-5.7.4-6.2Z"/>
  <path id="p48" class="cls-6" d="M98.4,23c1.5,2,3.1,3.9,5,5.8-2.1.6-3.8,1.8-5.4,3-1.4-.1-3-.5-4.2-1.4-.5-2.1-.9-3.8-2.4-5.4v-.6c2.4-.5,4.8-1,7-1.4h-.1Z"/>
  <path id="p49" class="cls-5" d="M24.4,23.8h2.3c-.8,2.1-1.5,2.1-2.3,0Z"/>
  <path id="p51" class="cls-9" d="M66.1,26.2c4.3,2.9,10.3,1.5,12.8,6,1.8,3,5,4,7.2,6.7-1.9-.5-4.2-.6-5.8-1.6-1.5-1.4-2.6-3-3.9-4.7l-.6-.9-1-.3c-1.4-.5-2.8-.6-4.3-.8-3.8-.5-7.2-3-10.9-3.1-2.5,0-3.6,1.6-5.7,2.9-1.8.1-3.3,0-4.9.9-1.1,0-2.3,0-3.4.4-2.9.6-3.1,3-4.8,5.2-2.4,1.8-5.3,3-7.8,4.4l-1,.5c.6-3.1,3-4.3,5.4-5.8,2.4-1.3,3.3-4,5.4-5.8,3.1-2.6,7.4-1.8,10.8-4.2,4.3-2.4,7.8-2.5,12.1,0h.4Z"/>
  <path id="p54" class="cls-3" d="M35.9,25.5h.6c-.3.3-.4.3-.6,0Z"/>
  <path id="p57" class="cls-7" d="M91.4,25c1.5,1.6,1.9,3.3,2.4,5.4,1.1.9,2.8,1.3,4.2,1.4,1.8-1.3,3.4-2.4,5.4-3-1.5,2.1-3.3,4.2-4.8,6.2-2.3-1.3-4.5-2-7.2-2.6.1-2.4,0-4.8,0-7.3Z"/>
  <path id="p58" class="cls-7" d="M28.1,26.5c0,1.6,1.4,4.8.3,6.2-2.4.6-4.5.8-6.8,2.1-1.6-1.6-3.1-3.5-4.7-5.3l-.4-.9c2.6.5,4.4,1.9,6.4,3.5,1.6-2,3-4.2,5.2-5.8h0Z"/>
  <path id="p61" class="cls-6" d="M76.3,32.6c1.3,1.5,2.4,3.3,3.9,4.7,1.8,1,3.9,1.1,5.8,1.6l.9,1.1c-.8,3-1,5.5,1.6,7.7l1.1,1.1c-.9,2.6,1.3,3.9.3,6.8-1.4,0-2.8,0-4-.1.5,3.4-.6,3.1-2.6,2.4.9.6,1.1,1.6,0,2.4l1.4,1.9.4.9c-1.3,3.4-1.9,4.8-5.5,6.2l-1.1-.3-5.4,1c-.4,1.4-.8,2.9-1,4.4-.5.6-1,1.1-1.4,1.8-2.3.5-4.3.3-6,2-4.8-1.8-6.5-1.8-11.3-.1-1.1-1.4-1.9-1.6-3.6-1.9l-.5-1.6v-2.3l-.6-1.8c-1.5-4.7-5.8-4.7-8.3-.8-2.6-1.3-3.3-4.3-4.5-6.5.4-.9.8-1.8,1-2.6-1-2.5-3-3-5.4-3.6-.3-2.3-.8-4.3.1-6.5,1-3.1,2.9-5.3,1.8-8.7,2.5-1.5,5.4-2.6,7.8-4.4,1.6-2.1,1.8-4.5,4.8-5.2,0,0,.1-.3,1.8-.4h1.5c1.6-.8,3.1-.8,4.9-.9,1.9-1.3,3.1-2.9,5.7-2.9,3.8.1,7.2,2.5,10.9,3.1M58.9,33.7h-.9c-2.1.1-3,.5-3.8,2.6-.4.9-.8,1.8-1,2.6.3.9.6,1.8,1,2.6.6,2,2.1,2.5,4,2.5h1.1c1.3-1.3,1.3-4.8,3.6-2.6.9-.8,1.5,1.3,1.8.3.8-1.3,1.1-2.6,1.1-4-.5-3.9-3.8-4.8-7-4ZM73.1,40.1c-.3.9-.5,1.6-.8,2.5l1.1,1.5.8.6,1,.5c2.5,2.1,5.3-1.4,4.2-3.8-.3-1.3-2-2-3-2.8-1.8-1.6-2.8-.6-3.1,1.4h-.1ZM36.8,42.9c-1.9.6-2,1.5-.3,2.5,1.3,1.5,2,3.6,4.2,3.6,3.5.4,5.4-2.8,5-5.9-1.5-1.4-3.1-2.3-5-2.8-1.4.8-2.6,1.6-3.9,2.6h0ZM48.6,45.7c-1.3,1.8.9,4.2,2.6,2.6,1.5-1.8-.9-3.9-2.6-2.6ZM68.6,45.7c-.8,1-.8,1.9,0,2.9,1.6,1.4,4.4-1,2.8-2.8-.9-.8-1.9-.8-2.8-.1ZM55.3,49.1c-1.5,2.8-1.6-3.3,6.9-2.9.4-.8-2.3,5.9-1.9,5.2v-.8c.6-2,0-2.9-2.1-2.6-1.4,0-2.3.4-2.9,1.3h0ZM38,53.7c-.8,1.1-2.6-1.4-1.4-1.1,2.3-.5,3.6-.3,1.4,1.1ZM82.4,50.7c-1.4,0-3.3,1.3-2.1,2.8,1.8,1.8,4.7-2.1,2.1-2.8ZM44.1,60.5c-.8.8-1.5,1.5-2.3,2.4l1,1.4c1.1,1.9-4-4-2.9-6.2.5-.8,9.3,2.9,9.8,4.2,1.3-1.5,4-3.1,3.5-5.4-.5-3.6-4.3-6.5-7.7-4-3.6,1.9-2.5,4.8-1.5,7.9v-.3ZM70.5,62.1c.4.6.9,1.4,1.3,2,1,2,4.3,2.1,5.4.1l-8.6.3c-.8-.9,1.6-4.8,7.3-4,1.4-3,1.6-5.8-1.3-7.8-2.6-2.4-8.2.6-7.8,4-.3,2.8,1.9,3.8,3.6,5.5h0ZM54.6,61.6c.4,2.4,2,5.4,4.9,5.3,3,.5,6.4-2.3,6-5.3v-1l-.9-.5-1.3,1.6c-1.1,1.8-1.6,2.6-3.8,3.1-1-1-2-2.1-3-3.3-.4-1.6-1.1-2-2.3-1.1v1h.3ZM64.7,70.4v2.3c.5,2.1-2.9-.6-1.9-2.6,1-.9,1.4,0,1.1-.9,0-2.3.8-1,.8,1.1h0ZM58.4,72.8c-1.1,2-3.5,1-2.1-.5,1.1-2,3.5-.9,2.1.5Z"/>
  <path id="p63" class="cls-5" d="M16.5,28.8l.4.9c-.9,0-1-.3-.4-.9Z"/>
  <path id="p64" class="cls-3" d="M30.9,28.9c1.1,2,3.6,5.7-.4,6-.3-2,0-4,.4-6Z"/>
  <path id="p68" class="cls-9" d="M81,31.2v-.6l2.1-.9c.9.8,1.8,1.4,2.8,1.9-.5.8-1.1,1.6-1.8,2.4"/>
  <path id="p69" class="cls-5" d="M89.5,30.2c.4,1.4.3,2.6-.3,3.9-1.9-.9-1.6-3.1.3-3.9Z"/>
  <path id="p77" class="cls-5" d="M58,33.8h.9c1.1-.4,6-1.6,7,3.9,0,1.4-.3,2.6-1.1,4-1.9-.4-2.8.3-2.9,2l-2.5.5h-1.1c-.6-2.4-1.9-2.9-4-2.6-.4-.9-.6-1.8-1-2.6.4-.9.6-1.8,1-2.6.1-.4,0-2.8,3.8-2.5Z"/>
  <path id="p79" class="cls-5" d="M34.1,35.4l-1,.8,1-.8Z"/>
  <path id="p86" class="cls-5" d="M76.4,38.7c1,.9,2.8,1.5,3,2.8-1.5,1.3-2.9,2.5-4.2,3.8l-1-.5-.8-.6-1.1-1.5c.3-.9.5-1.8.8-2.5.8-3.4,2-2.3,3.1-1.4h.1Z"/>
  <path id="p88" class="cls-3" d="M40.7,40.3c2,.5,3.5,1.4,5,2.8.4,3.3-1.5,6.3-5,5.9-2.3,0-3-2.1-4.2-3.6l.3-2.5c1.3-.9,2.5-1.9,3.9-2.6h0Z"/>
  <path id="p89" class="cls-7" d="M86.8,40c1.9,2.4,1.5,4.8,1.6,7.7-2.6-2.1-2.4-4.7-1.6-7.7Z"/>
  <path id="p90" class="cls-7" d="M32.2,41.9l1-.5c1.3,3.4-.8,5.5-1.8,8.7-.9,2.1-.5,4.3-.1,6.5-1.1,1.3-2.3,2.6-3.4,3.9v-1.3l-.3-2.4c-.9-4.2,1.8-6.2,3.4-9.6.5-1.8.6-3.5,1-5.3h.1Z"/>
  <path id="p91" class="cls-8" d="M54.3,41.6c2.3-.1,3.4.3,4,2.5-1.9,0-3.5-.5-4-2.5Z"/>
  <path id="p92" class="cls-8" d="M64.9,41.8c-.4,1-.8.9-1.6,1.6l-1.3.4c0-1.6,1.1-2.3,2.9-2Z"/>
  <path id="p93" class="cls-3" d="M79.4,41.6c1,2.4-1.6,5.9-4.2,3.8,1.3-1.4,2.8-2.6,4.2-3.8Z"/>
  <path id="p94" class="cls-7" d="M36.8,42.9l-.3,2.5c-1.8-1-1.8-1.8.3-2.5Z"/>
  <path id="p96" class="cls-8" d="M73.5,44.3l.8.6-.8-.6Z"/>
  <path id="p97" class="cls-8" d="M48.6,45.7c1.8-1.3,4.2.9,2.6,2.6-1.8,1.5-3.9-.9-2.6-2.6Z"/>
  <path id="p98" class="cls-8" d="M68.6,45.7c1-.6,1.9-.6,2.8.1,1.5,1.8-1.1,4-2.8,2.8-.8-1-.8-1.9,0-2.9Z"/>
  <path id="p99" class="cls-5" d="M58.2,47.8c1,0,2.8-.9,1.5,2.8v.8c-2.4.4-3.8.1-4.4-2.3.6-.9,1.5-1.3,2.9-1.3Z"/>
  <path id="p102" class="cls-7" d="M89.6,48.8c3.8,3,3.3,6.9,3,11.2-2,2.4-4.3,4.4-6.5,6.5l.8,1.4.4.8c-3.9,3.4-6.3,7.3-11.1,9.6-1.6.8-2.1,2.3-3.1,3.8-.9.3-1.6.6-2.5.9-.4.9-.8,1.6-1.1,2.5h-3.1l-1.6-1.6v-.6c.8-1.8.4-3.5.1-5.3,1.8-1.8,3.8-1.5,6-2,.5-.5,1-1.1,1.4-1.8,1.5.8,3.1,1.6,4.8,2.1,1.6-1.3,3-2.8,4-4.5-.4-.9-.9-1.8-1.3-2.5,3.5-1.4,4.2-2.8,5.5-6.2,2.1,0,4.3-.3,4.4-2.8.1-1.5.3-3,.5-4.5,1-2.9-1.1-4.2-.3-6.8h-.3Z"/>
  <path id="p105" class="cls-7" d="M82.4,50.7c2.5.5-.4,4.4-2.1,2.8-1.1-1.5.8-2.6,2.1-2.8Z"/>
  <path id="p106" class="cls-8" d="M53.1,56.7c.5,2.3-2.3,3.9-3.5,5.4-1.9-.5-3.8-1.1-5.5-1.6-1.1-3.1-2.1-6,1.5-7.9,3.3-2.4,7.2.5,7.7,4h-.1ZM48.7,54.3c-.8,1.1,0,3.4,1,4.3,2.4,0,1.6-5.8-1-4.3ZM47.2,58q.4.4,0,0Z"/>
  <path id="p107" class="cls-8" d="M74.6,52.6c2.9,2.1,2.6,4.9,1.3,7.8-1.8.5-3.6,1.1-5.4,1.6-1.6-1.8-3.9-2.6-3.6-5.5-.4-3.4,5.2-6.4,7.8-4h0ZM70.9,58.4c1.3,0,2.5.1,3.6.1.1-1.4.1-2.8,0-4.2-2.1-1-2.9,2.6-3.6,3.9h0Z"/>
  <path id="p108" class="cls-9" d="M48.7,54.3c2.6-1.6,3.4,4.3,1,4.3-.9-.9-1.8-3-1-4.3Z"/>
  <path id="p109" class="cls-9" d="M74.5,54.3c.1,1.4.1,2.8,0,4.2-1.3,0-2.5,0-3.6-.1.8-1.4,1.6-4.9,3.6-3.9h0Z"/>
  <path id="p111" class="cls-5" d="M85.8,55.5c1.4,0,2.8.1,4,.1-.1,1.5-.3,3-.5,4.5-1.8.4-3.4.9-4.8,2l-1.4-1.9v-2.4c.1-2.5,1.1-2.4,2.5-2.4h.1Z"/>
  <path id="p113" class="cls-3" d="M31.4,56.5c2.4.6,4.4,1.1,5.4,3.6-.4.9-.8,1.8-1,2.6-1.8-.3-3.6-.5-5.4-.8,2.8,3,3.8,4.8,4.7,8.8,2.3,3.6,7.4,5.4,10.6,8.3,1.4,1.4,3.4,2.3,2.9,4.5-.8,0-1.5-.3-2.4-.4-1.3-1.4-1.9-3.1-3.9-3.5-2.1-.4-2.9-2.5-5.3-2.8-2-.1-2.8-2.9-3.8-4.3-1.3-1.9-.4-3.8-1.1-5.7-1.1-1.3-2.4-2.3-3.6-3.5-.3-1-.4-2.1-.5-3.1,1.1-1.3,2.3-2.6,3.4-3.9h.1Z"/>
  <path id="p114" class="cls-1" d="M47.2,58q.4.4,0,0Z"/>
  <path id="p116" class="cls-9" d="M24.2,60.1c.9,3.1,2.5,5.8,4.4,8.6,1.4,2,1.1,4.5,2.3,6.4,1.1,1.8,2.5,3.4,3.9,4.9,2.1,2.3,6.3,1.9,8.2,4.2-4.3-1.1-8.8-2.3-12.8-4.4-.3-1.8-.5-3.5-.9-5.3-2.6-2-5.5-2.8-8.7-4,1.8-.8,3.5-1.3,4.5-2.9-.4-2.5-.8-4.9-.9-7.4Z"/>
  <path id="p118" class="cls-1" d="M54.5,60.6c1-.9,1.8-.5,2.3,1.1h-2.1v-1.1h-.1Z"/>
  <path id="p119" class="cls-1" d="M64.7,60.1l.9.5v1h-2.1s1.3-1.5,1.3-1.5Z"/>
  <path id="p121" class="cls-1" d="M89.5,60.3c0,2.6-2.3,2.9-4.4,2.8l-.4-.9c1.4-1.1,3-1.6,4.8-2h0Z"/>
  <path id="p122" class="cls-3" d="M92.6,60c0,3.3-2.5,7.3-5.8,7.9l-.8-1.4c2.3-2,4.5-4.2,6.5-6.5Z"/>
  <path id="p123" class="cls-7" d="M30.2,62.1c1.8.3,3.6.4,5.4.8,1.3,2.4,1.9,5.4,4.5,6.5v1c-3.1-.6-2.5,2.5.4,2.3l1.4,1.4,1.5,1.6,1.1-.4,1.1-.4,1-.4,1.1-.4h1.1l.5,1.5c1.8.3,2.5.5,3.6,1.9-.3,1.4-.6,2.5,0,3.9l.5,1.9c-1.8-.3-2.8,0-4.4.8l-1-.6c.5-2.3-1.5-3-2.9-4.5-3.1-2.9-8.3-4.7-10.6-8.3-.9-4-1.9-5.9-4.7-8.8v.3Z"/>
  <path id="p124" class="cls-8" d="M54.6,61.6h2.1c1,1.3,1.9,2.3,3,3.3,2.1-.5,2.6-1.4,3.8-3.1h2.1c.4,3-3.1,5.8-6,5.3-2.8,0-4.5-2.9-4.9-5.3h-.1Z"/>
  <path id="p125" class="cls-1" d="M48.2,64.3c-1.1,2.1-4.3,1.8-5.4,0,2.1-1.5,3.3-1.3,5.4,0Z"/>
  <path id="p126" class="cls-1" d="M77.3,64.3c-1.1,1.9-4.4,1.9-5.4-.1,2-1.5,3.4-1.1,5.4.1Z"/>
  <path id="p129" class="cls-5" d="M46.8,67.3c1.1.9,1.4,1.9,1.8,2.8l.8,1.8c0,2.9.4,2.4-1.3,2.4l-1.1.4-1,.4-1.1.4c-.5-1.3-1.4-1.6-2.6-1.3l-1.4-1.4-.3-2.3v-1c.3-.9,1-1.4,1.6-2,1.4-1.1,3.4-1.1,4.8,0h-.1Z"/>
  <path id="p131" class="cls-3" d="M78.4,68.9l1.1.3c.4.9.9,1.8,1.3,2.5-1,1.9-2.3,3.3-4,4.5-1.6-.5-3.3-1.3-4.8-2.1.3-1.5.6-2.9,1-4.4.6-2.6,3.4-1.5,5.4-1v.3Z"/>
  <path id="p132" class="cls-3" d="M87.1,68.7c.9,1.8,0,4.2-.6,5.9-.5,2-2.5,1.8-4,2.4-1.3.6-2.1,2-3.1,2.9-1.1,0-2.6-.3-3.6.3-.4,1.3-.5,2.8-1.3,3.8-1.4,1.8-3,1.3-5,1.4.4-.9.8-1.8,1.1-2.5.9-.3,1.6-.6,2.5-.9,1-1.4,1.5-3,3.1-3.8,4.8-2.3,7.2-6.2,11.1-9.6h-.1Z"/>
  <path id="p134" class="cls-3" d="M40.4,70.4l.3,2.3c-2.9.4-3.5-2.9-.3-2.3Z"/>
  <path id="p137" class="cls-9" d="M106.8,70.6v.9c-4.5,1.6-8.4,4.3-13.1,5.4v-1c4.3-1.6,8.6-4.5,13.1-5.3Z"/>
  <path id="p138" class="cls-3" d="M13.4,71.6c-.6-2.4,2.8-2.6,3.1,0,4.3,1.6,8.8,2.4,10.3,5.3-2.6,1.5-5.3,3.1-7.8,4.9-2.4.3-4.8-.6-6.3-2.5,1-.6,1.9-1.1,2.9-1.8l.4-.5.3-.3c.5-1.6-2-3.6-2.8-5.2h-.1Z"/>
  <path id="p142" class="cls-3" d="M106.8,71.5c.3,2-3.6,3-3.3,5.2,1.5,1,.6.8,2.4,1.3l2.1.4c0,2.5-7,4.9-8.7,2.5-1.8-1.5-4.3-2.3-5.9-3.9,4.8-1.1,8.6-3.8,13.2-5.4h.1Z"/>
  <path id="p144" class="cls-8" d="M42,74.1c1.3-.4,2.1,0,2.6,1.3l-1.1.4s-1.5-1.6-1.5-1.6Z"/>
  <path id="p145" class="cls-8" d="M46.8,74.6l-1,.4,1-.4Z"/>
  <g>
    <path id="p146" class="cls-4" d="M15.5,77.5"/>
    <path id="p146-2" class="cls-4" d="M16.1,76.7"/>
  </g>
  <path id="p147" class="cls-5" d="M64.6,77.9c.3,1.8.6,3.5,0,5.3l-1.1.5c-1.1.4-2.1,1-3,1.8-1.4-.5-1.8-.9-3.1,0l-3.6-1.9c-.9-.9-.5-1.9-.5-1.9-.5-1.4-.3-2.5,0-3.9,4.8-1.5,6.7-1.6,11.3.1h.1Z"/>
  <path id="p149" class="cls-9" d="M24.6,80.6c3,.3,5.9,2.1,8.8,3.3,10.8,4,22.3,5.3,33.7,4.4l-.3.9c-3.4,0-7.3-.9-10.2.9-10.3-1.1-20.1-2.6-29.6-7.4-1.6-1-2.8-.5-4.4-.1.6-.6,1.3-1.3,1.9-1.9Z"/>
  <path id="p150" class="cls-9" d="M95.8,80.6c.6.5,1.3,1.1,1.8,1.8-3.9-.4-7.7,2.4-11.3,3.4-6.4,2.6-13,3-19.6,4.4l.3-.9.3-.9c6-.5,12.1-1.5,17.9-3.6,3.6-1.3,7.2-3.1,10.8-4h0Z"/>
  <path id="p151" class="cls-3" d="M27.1,82.7c9.4,4.8,19.2,6.3,29.6,7.4,3.3.5,6.7.8,9.9,0,6.7-1.5,13.2-1.9,19.6-4.4,3.6-1,7.5-3.8,11.3-3.4,2,2.5,6.3,5.2,4.3,8.8-9.8,7.3-21.4,10.8-33.5,12-7.5,0-15.6.5-22.9-1-10.3-2.3-20-5-28.2-12,1-2.9,3.5-5.3,5.4-7.7,1.6-.3,2.8-.9,4.4.1h0ZM25.7,87.9c-.3,2.6-.3,3.9,2.3,5.3,2.5,1.8,3.6-.9,4.8-2.6-.4-1.1-.8-2.3-1.4-3.4-1.1,0-5.9-1-5.7.9h0ZM89.1,91.7c.6.8,1.3,1.5,1.9,2.3,1.5-.6,2.9-1.4,4.3-2.4l-.5-1.6-.3-.9-.3-1-.3-1h-4c-1.4,1.8-1.6,2.6-.9,4.7h0ZM36,96.5c3.9,1.4,8.9,2.8,13.1,2.8.1-2,.3-4,.4-6,2.8,0,2.9,5,4.2,6.9,3.1,1,3.3-4.9,5.7-5.7.3,1.9.4,3.9.5,5.8h5.7c-.1-2-.6-3.9-1-5.9.9.4,1.8.8,2.5,1.1.3,2,0,3.5,1.6,4.8,1.8-.1,3.6-.5,4.8-2-.9-.9-2-1.5-3.4-2-.5-1.5-1-3.1-1.8-4.5l-1.4,1.5c-3.6-1.9-8.7-1.4-12.3.6-2.8-2.4-6.2-2.6-9.7-2.8-.6,1.9-1.3,3.9-1.9,5.8-1.4-.8-2.8-1.3-3.4-2.8,0-1.5.3-3,.4-4.5-3.4-.6-3.8,4.7-4,7h.1ZM77.7,91c0,2.3,1.5,4.8,2.5,6.8,2.5.9,4.3.3,5.2-2.3-.9-2-1.6-4.8-3.4-6.2-1.5.4-2.9,1-4.3,1.8h0Z"/>
  <path id="p152" class="cls-1" d="M7.5,82.7c1.9,1.1,4,2.3,5.4,4-.4,1.4-.9,2.8-1.4,4-3.8-.8-5.8-4.7-4-8.1Z"/>
  <path id="p153" class="cls-3" d="M53.7,83.7c.5.9.6,1.8.5,2.5-1.6.6-3.6-.9-4.9-1.8,1.5-.8,2.6-1,4.4-.8Z"/>
  <path id="p154" class="cls-8" d="M64.6,83.3v.6c-.1,0-1.1-.3-1.1-.3l1.1-.5h0Z"/>
  <path id="p155" class="cls-1" d="M113.6,82.8c0,1.6,0,3.3-.5,4.8-1,1.8-3,3-4.5,4.3-.4-2-.6-4-.9-6.2,1.8-1.5,3.8-2.1,5.9-2.9Z"/>
  <path id="p156" class="cls-3" d="M53.7,83.7l3.6,1.9-3.1.6-.5-2.5Z"/>
  <path id="p157" class="cls-3" d="M63.6,83.7l.9.3,1.6,1.6c-1.9,1.3-4,2.1-5.7,0,1-.8,1.9-1.4,3-1.8h.1Z"/>
  <path id="p158" class="cls-9" d="M31.4,87.2c.5,1.1,1,2.3,1.4,3.4-1.6.3-3.1.4-4.8.4-.1-.9-.3-1.9-.5-2.8l-1.8-.3c-.3-1.9,4.5-.8,5.7-.9h0Z"/>
  <path id="p159" class="cls-9" d="M90,87.1c1.4-.1,2.6-.1,4,0l.3,1c-3-.9-2.4,2.6.3,1l.3.9c-1.9.5-3.8,1.1-5.7,1.8-.8-2.1-.5-2.9.9-4.7h0Z"/>
  <path id="p160" class="cls-7" d="M25.7,87.9l1.8.3c.1.9.4,1.9.5,2.8,1.6,0,3.1-.3,4.8-.4-1.1,1.8-2.3,4.4-4.8,2.6-2.5-1.4-2.5-2.6-2.3-5.3Z"/>
  <path id="p162" class="cls-4" d="M40,89.4c0,1.5-.3,3-.4,4.5.6,1.5,2,2.1,3.4,2.8.6-1.9,1.3-3.9,1.9-5.8,3.5,0,6.9.3,9.7,2.8,3.5-2,8.6-2.5,12.3-.6v2.3c-.8-.4-1.5-.8-2.4-1.1.4,2,.9,3.9,1,5.9h-5.7c-.3-1.9-.4-3.9-.5-5.8-2.4.8-2.5,6.7-5.7,5.7-1.3-1.9-1.5-6.9-4.2-6.9-.1,2-.3,4-.4,6-4.2,0-9.1-1.4-13.1-2.8.3-2.3.6-7.5,4-7h-.1Z"/>
  <path id="p164" class="cls-4" d="M81.9,89.3c1.8,1.4,2.5,4.2,3.4,6.2-.9,2.5-2.6,3.1-5.2,2.3-1-2-2.6-4.5-2.5-6.8,1.4-.8,2.8-1.3,4.3-1.8h0ZM81.4,95h0Z"/>
  <path id="p165" class="cls-7" d="M94.8,89.9l.5,1.6c-1.4,1-2.8,1.8-4.3,2.4-.6-.8-1.3-1.5-1.9-2.3,1.9-.6,3.8-1.3,5.7-1.8Z"/>
  <path id="p166" class="cls-4" d="M68.3,91.7c.6,1.5,1.1,3,1.8,4.5,1.4.4,2.5,1.1,3.4,2-1.1,1.5-3.1,1.9-4.8,2-1.8-1.3-1.4-2.8-1.6-4.8v-2.3s1.3-1.5,1.3-1.5Z"/>
  <path id="p167" class="cls-1" d="M12.9,94.2c4.9,2,9.1,5.4,14,7.5,11.2,4.7,23.1,6.8,35.2,6.3,9.9.4,19.6-1.5,28.9-5,5.8-2.4,10.9-5.9,16.6-8.7-.4,2.5,0,5.2-2,6.9-9.9,7.5-21,10.3-33,12.3-7.7,1.5-15.3,1-23-.3-7.7.1-14.3-2.6-21.5-4.9-4.9-1.6-9.6-4.5-13.3-7.9-1.9-1.6-1.3-3.9-1.6-6.2h-.3Z"/>
  <path id="p168" class="cls-5" d="M81.4,95h0Z"/>
  <path class="cls-2" d="M-16.7,66.5"/>
  <path class="cls-10" d="M67,38.2c.1-3.5-2.5-5.2-5-5.5-1.6-.1-2.9-.1-3.9,0h0l-6.4,1.5c-1.6-3.5-2.5-7.6-2.1-11,.4-3.3,2.7-6.2,5.9-7.1l1.2-.4c.7-.3,1.3-.3,2-.3h9.2c1.2,0,2.1.7,2.4,1.9l.3.9v1.6l-.4.8c-.1.4-.5.8-.9,1.2-.7.5-1.5.7-2.3.4-4.3-1.1-11.4-.8-8.3,5.2,2.7,1.6,8.2-.1,11.8-1.9,2.3,6,3.1,10.6,1.3,17.2l-1.2,3.8c-2.7,7-15,5-21.8,3.2l.8-3.2,1.7-3.9c.4,0,5.4,1.2,6.2,1.2,7.8.7,9.2-2,9.5-5.4v-.3Z"/>
</svg>