<?xml version="1.0" encoding="UTF-8"?>
<svg id="_Слой_1" data-name=" Слой 1" xmlns="http://www.w3.org/2000/svg" version="1.1" viewBox="0 0 120 120">
  <defs>
    <style>
      .cls-1 {
        fill: #fd0661;
      }

      .cls-1, .cls-2, .cls-3, .cls-4, .cls-5, .cls-6, .cls-7, .cls-8, .cls-9 {
        stroke-width: 0px;
      }

      .cls-2 {
        fill: #042b4a;
      }

      .cls-3 {
        fill: #d9bca7;
      }

      .cls-4 {
        fill: #110224;
      }

      .cls-5 {
        fill: #ffb300;
      }

      .cls-6 {
        fill: #fff;
      }

      .cls-7 {
        fill: #f9f9de;
      }

      .cls-8 {
        fill: #da3906;
      }

      .cls-9 {
        fill: #28779c;
      }
    </style>
  </defs>
  <path id="p1" class="cls-2" d="M46.9,7.5h25c2.5,2.4,4.9,3.7,8.2,4.9,2.7,1,4.1,3.1,5.9,5.2,3.5-.1,7.2-.7,10.1,2,2.8,2.8,2.3,7.6,3.4,11.1,1.1,2.3,3.2,3.9,4.5,6.1,1.7,2.5,2,5.8,2.8,8.7.6,2.3,1.7,4.1,2.5,6.2,0,4.1-1.8,7-4.1,10.3.3,1,.7,2,1,3.1.4,1.3.8,2.5,1.1,3.8-.1,2.8-.4,6.3-1.8,8.9-1.5,2.7-4.2,4.2-6.1,6.3-1.4,2.7-1.4,6.1-3.1,8.6-1.8,3.1-4.9,5.9-8.6,6.8-4.2,1-9,1.8-12.9,3.7-2,1.4-3.1,3.8-4.9,5.3-1.7.8-4.1.8-5.9,1-6.1,0-11.4.6-17.2-1.7-.3-.6-.7-1.1-1-1.7-.6-1-1-2-1.5-3.1-6.8-2-14.1-3.1-20.1-6.5-3.1-3.5-4.1-7.5-5.5-11.8-1.8-3.1-5.9-4.2-7.3-8.2-2.3-6.2,0-11.4,1-17.4-.4-4.2-3.7-8.9-3.2-13.2.8-3,3.1-5.6,4.6-8.3,2.1-3.5,5.3-5.3,5.8-9.7.7-3.1.3-6.9,3.2-8.9,2.8-2.1,5.8-1.7,9.1-1.4,2.1-2.3,4.1-4.5,7-5.6,3.1-1.1,5.2-2.4,7.6-4.6l.3.3ZM39.9,97.3c3.2,1.3,5.1.8,8-.6,0,1.7-.1,3.5.4,5.1.6,1.3,1.7,2.4,2.7,3.2,5.2,1.1,10.7,1.1,15.9,0,2.4-.4,2.7-2.3,3.5-4.2.6-1,1-3.1,2.3-3.4,1.8,0,3.8.7,5.5.4,1.3-.4,2.5-1.4,3.7-2.3,3.9.6,6.8,0,9.7-3,3.7-3.2,3.7-7.2,4.1-11.5,2.8-2,6.3-3.7,7.5-7.2,1.4-4.4-.3-8.9-2.5-12.5,1.8-2.1,3.4-4.4,4.8-6.8,1-3.2-1-4.5-2.3-7-.8-2.7-.4-6.1-1.7-8.7-1.4-2.5-4.2-4.1-5.8-6.5-.8-3.1-.3-6.3-.8-9.4-2.1-3.5-6.5-1.1-9.7-1.5-2-1.1-3.2-3.8-5.1-5.2-1.5-.8-3.4-1.4-5.1-2.1-2.7-1.1-4.6-3.9-7.3-4.8-2.5-.3-5.3.6-7.9.7-2.7,0-5.6-1-8.3-.7-2.1.7-4.1,2.5-5.9,3.8-2,1.4-4.5,2-6.5,3.1-2,1.3-3.4,3.7-5.3,5.1-3,1-7.2-2-9.3,1.1-1.8,3-.7,7.5-2.3,10.7-3,3.8-7.2,7.9-9.1,12.7,0,4.1,3,8.2,3.5,12.1-.6,5.3-4.1,10.7-1.8,16.3,1.5,3.8,5.5,4.6,8,7.2.8,3.8,0,7.2,3.1,10.3,3.9,4.6,8.7,3.9,14.1,5.9v-.3Z"/>
  <path id="p2" class="cls-7" d="M51.3,9.1c2.7-.3,5.5.7,8.3.7s5.3-1,7.9-.7c2.7,1,4.6,3.7,7.3,4.8,1.7.7,3.5,1.3,5.1,2.1,2,1.4,3.1,3.9,5.1,5.2,3.2.4,7.6-2,9.7,1.5.6,3.1,0,6.3.8,9.4,1.4,2.4,4.4,3.9,5.8,6.5,1.3,2.7.8,6.2,1.7,8.7,1.3,2.7,3.2,3.9,2.3,7h-3.4c.6-1,1-2.1,1.5-3.2-1.5,0-3.2-.1-4.8-.1,0-.4-.3-.7-.3-1.1,1.4-3.2,2.3-6.6.7-10-1.3-2.8-3.8-3.8-6.3-5.1v-8.6c-.4,0-1,.3-1.4.4-.8-.3-1.5-.7-2.4-1,.4-.8.7-1.7,1.1-2.5-1,.4-2.1,1-3.1,1.4-1.7-.3-3.2-.7-4.9-1-.7-1.4-1.3-3-2-4.4l-.3-.7h-.7c-2-.7-3.9-1.1-6.1-1.7l-.6-.4c-1.5-1.5-3.2-4.2-5.5-4.6-2.4-.3-5.1,1.4-7.5,1.5-2.3-.3-4.8-1.8-7-1.5-2.3.6-3.9,3.2-5.9,4.6-2,1-4.5,1.1-6.3,2.3-1.4,1.3-2.3,3.2-3.1,4.8-1.5.3-3.2.7-4.8,1-.6,0-1-.3-1.5-.3h-.3c-1,.7-2,1.5-3.1,2.3l-.8.3c0,.7-.1,1.4-.3,2.1-.1,2-.3,4.1-.3,6.1-1.7,1.1-3.5,2.1-4.9,3.7-1.3,1.5-1.8,3.7-2.5,5.5l-.6.3c-2.8.7-1,3.7-.7,5.6.8,2.8,2.1,5.5,3.5,8-2.1,4.1-4.1,9.4-3.4,14.1,1,3.8,5.9,5.8,8.9,7.5-.4,4.2,0,7.5,2.4,11.1l.4.7h.7c.8.4,1.7.6,2.4.7,2.1.6,4.2.8,6.5,1.1l1,.6c.8,1.3,1.7,2.4,3.4,2.1-.3.6-.6,1.1-.7,1.8h-1.8c-5.3-1.8-10.1-1.3-14.1-5.9-3.1-3.1-2.3-6.5-3.1-10.3-2.5-2.7-6.6-3.4-8-7.2-2.3-5.6,1.3-11,1.8-16.3-.7-3.9-3.5-8-3.5-12.1,2-4.8,6.3-8.9,9.1-12.7,1.5-3.2.4-7.6,2.3-10.7,2.1-3.2,6.3-.1,9.3-1.1,2-1.4,3.2-3.7,5.3-5.1,2-1.1,4.5-1.8,6.5-3.1,1.8-1.3,3.8-3.1,5.9-3.8l-.7-.3Z"/>
  <path id="p3" class="cls-2" d="M52.1,11.7c2.3-.3,4.8,1.3,7,1.5,2.4-.1,5.1-1.8,7.5-1.5,2.3.4,3.9,3.2,5.5,4.6-1.8,1.1.4,2.4.6.4,2,.4,3.9,1,6.1,1.4-.7,1.4-.3,1.7,1,.8.7,1.4,1.3,3,2,4.4,1.7.3,3.2.6,4.9,1-1.5.7-3.1,1.4-4.6,2.1-1.3-1.7-2.5-3.5-3.7-5.2-1.8-2.7-4.1-2.4-7-2.7-1.5-1.8-3.5-5.1-6.1-5.5-2.1,0-4.2,2.1-5.9,3.2-2-1.3-4.1-2.5-6.3-3.5-2,1.4-3.5,3.4-5.3,5.1-1.1,1.3-3.2,1.1-4.8,1.4h-.8l-.4.6c-1.3,1.5-2,3.2-2.7,5.1l-1,.7c-2.1,0-4.1-.4-6.1-1,1.7-.3,3.2-.7,4.8-1,.8-1.7,1.7-3.5,3.1-4.8,2-1.1,4.4-1.4,6.3-2.3,2-1.3,3.5-3.9,5.9-4.6v-.3Z"/>
  <path id="p4" class="cls-5" d="M53,12.7c2.3,1,4.2,2.3,6.3,3.5,1.7-1.1,3.8-3.2,5.9-3.2,2.5.4,4.5,3.7,6.1,5.5,3,.1,5.1,0,7,2.7-1.7-.1-3.5-.3-5.2-.4-.8,2.1-1.4,4.2-2,6.3-.6-.1-1-.4-1.5-.6-.3-.7-.4-1.3-.6-2,.4-4.1,0-5.8-2.1-9.4-2.5,1-4.8,2.3-7,3.8-1.8-1.1-3.8-2.5-5.9-3.1-2.1,0-3.4,2.5-3.9,4.2-.8,2.1,1.5,3.9,2.7,5.5v-6.5c.8.4,1.5.8,2.4,1.1,1.7,1.7,2.7,3.7,5.2,3.8,2.4.4,3.1-2,4.5-3.5.6.6,1.1,1.1,1.5,1.7-.1,1-.3,1.8-.4,2.8v.7c-.8-.7-1.4-1.4-2.1-2.1-.7,2.3-1.4,4.5-2.1,6.8.7.4,1.3,1,2,1.4.6-1,1-2,1.5-3,.4-.7.8-1.4,1.1-2,.6,0,1.1.3,1.7.4-.8,2.1-1.4,4.2-2.1,6.5h3.1c.4-.8.8-1.7,1.1-2.5,1.3-.4,2.5-.8,3.8-1.4-1,2.1-1.8,4.1-2.7,6.2,1.3-.8,2.5-1.8,3.7-2.8.7-.7,1.3-1.4,2-2.1,1,1.3,2.3,1,3.5.6l1.3-.4c-1.8,2.5-3.7,5.1-5.5,7.5,1.4,1,2.5,1.8,4.2,1.8.8-.1,1.5-.3,2.4-.6.4.7,1,1.4,1.4,2.3-1,0-2,.3-3,.4.7.4,1.3.8,2,1.3,2.7-1,4.5-2.7,7-.7-3.5.7-6.3,2-9.1,4.2,1.4,0,2.8-.3,4.2-.4,1.7-.3,3.4-.6,5.1-1,.4.6.7,1.1,1.1,1.7-1.3.7-2.5,1.3-3.7,2,.3,1,.4,2,.7,3-1.5.4-3,1-4.5,1.5.6.8,1.1,1.7,1.7,2.5,2,1.3,4.1,2.3,6.1,3.4-.4.6-.7,1-1.1,1.5l-.4.3c-2-1.1-3.9-1.8-6.2-2.3,0-2.5-.4-5.1-1.3-7.5-2.5-3.2-4.1-7-6.2-10.6-3.4-3.2-8.3-5.2-12.4-7.3-3-1.4-5.5-1.4-8.4-.3-4.4,1.8-8.4,4.1-12.4,6.6-2.1,1.3-2.5,3.2-3.5,5.3-1.4,3.2-3.2,5.9-4.2,9.3,0,4.5,1.8,8.2.6,12.8-.1-1-.3-2-.4-3-3.2.6-5.3,2.1-7.6,4.5,0-3.2-.3-6.2-.8-9.4,1.7-.4,3.5-.7,5.2-1.1.8-.1,1.5-.4,2.4-.6-.7-.7-1.3-1.4-2-2-1.8.4-3.7.8-5.5,1.4,0-1,0-2.1.1-3.1,1.8-.3,3.5-.7,5.3-1.1.8-1.1,1.7-2.4,2.5-3.7-3.1-1.3-6.2-2.5-9.4-3.8l1.5.3c-.3-.8-.6-1.7-.7-2.5,2.4,1.4,3.2,2.3,5.9,1.1,1.8.6,3.5.8,5.3,1.3-2.3-2-4.6-3.5-7.2-5.1,1.8-1.3,3.9-2,6.2-2.5.7.8,1.4,1.5,2.3,2.3.8-.8,1.8-1.7,2.7-2.7-2-2.5-3.8-5.1-5.6-7.6,1-.3,2-.6,2.8-1,.7-.1,1.5-.4,2.3-.6-.7,1.7-1.5,3.2-2.3,4.9l1.7.3h.7c.4-.6.6-1.4.4-2.3.7-.7,1.4-1.5,2.1-2.3.6,2.5,2.1,4.4,3.9,6.1-.8-3-2.1-5.2-4.2-7.5v-1.1h4.8c.7,2.5,1.7,4.8,2.8,7,.4-1,1.4-2.1,1.4-3.2-.3-2.1-1.4-4.1-2.3-6.1-.7.6-1.4,1-2.1,1.5-.3-1.1-.6-2.3-.8-3.4-.3-1-.6-2-.8-3h-1.3c-2.3,1.1-4.2,2.5-6.2,3.9.7-1.8,1.4-3.5,2.7-5.1,1.1,1.1,1.5.8,1.3-.6,1.5-.1,3.7,0,4.8-1.4,1.8-1.7,3.2-3.7,5.3-5.1l-.6.6ZM53.8,25.9c0,2,.4,3.8.6,5.6,1,0,2.1-.1,3.1-.3-.4-2.4-1-4.8-1.5-7.2-.7.6-1.4,1.1-2.1,1.7h0ZM59.2,25.9c-1.1,1.3.6,3,1.8,1.8,1.1-1.3-.6-3-1.8-1.8ZM34,40.4c-1.4.6-1,2.4.6,2.1,1.4-.6,1-2.4-.6-2.1ZM27.7,63.8c.8.8,1.7,1.8,2.4,2.7,1.8-1.8,2.1-3,2.3-5.5-1.7.7-3.2,1.7-4.8,2.8h.1Z"/>
  <path id="p5" class="cls-1" d="M53.7,15.8c2.1.7,4.1,2,5.9,3.1,2.3-1.5,4.5-2.7,7-3.8,2.1,3.5,2.5,5.3,2.1,9.4-1.1.1-2.1.3-3.2.4.1-1,.3-1.8.4-2.8.1-1,.3-2.1.6-3.1-3,.1-5.3,1.3-7.7,2.8-1.4-1.4-2.8-2.8-4.5-4.1-.7,0-1.4-.1-2-.3v7.9c-1.1-1.5-3.5-3.4-2.7-5.5.6-1.7,1.8-4.2,3.9-4.2h.1Z"/>
  <path id="p6" class="cls-8" d="M72.1,16.4l.6.4c-.1,2.1-2.4.7-.6-.4Z"/>
  <path id="p7" class="cls-8" d="M52.3,17.8c.7,0,1.4.1,2,.3,1.5,1.3,3,2.7,4.5,4.1,2.5-1.5,4.8-2.7,7.7-2.8-.1,1-.3,2.1-.6,3.1-.6-.6-1.1-1.1-1.5-1.7-1.4,1.4-2.1,3.9-4.5,3.5-2.5-.1-3.7-2.1-5.2-3.8-.8-.4-1.5-.7-2.4-1.1v-1.4h0Z"/>
  <path id="p8" class="cls-1" d="M78.7,18.2h.7c0,.1.3.8.3.8-1.3.8-1.7.6-1-.8Z"/>
  <path id="p9" class="cls-6" d="M41.6,19.8l.4-.6h.8c.3,1.4,0,1.7-1.3.6Z"/>
  <path id="p10" class="cls-1" d="M45.2,20.7h1.3c.3,1,.6,2,.8,3-3.5,1.3-5.9,3.7-8.4,6.3-1,.3-2,.6-2.8,1-.4-.4-.8-1-1.1-1.4,0-.8-.3-1.8-.4-2.7h4.4c-.3-.6-.6-1.1-.8-1.7l1-.7c2-1.4,4.1-2.8,6.2-3.9h0Z"/>
  <path id="p11" class="cls-1" d="M73,20.9c1.7,0,3.5.3,5.2.4,1.3,1.8,2.4,3.5,3.7,5.2.7,1,1.3,2,1.5,3.2-.7.6-1.4,1.3-2.1,1.8l-1.3.4c-.8-1-1.5-2.1-3.1-1.8-.4-1.7-1-3.4-1.8-4.9-1.5,1.3-3,2.4-4.5,3.7l.4-1.4c.6-2.1,1.1-4.2,2-6.3v-.3Z"/>
  <path id="p12" class="cls-5" d="M30.2,24.1h.3c.6,0,1,.3,1.5.4,2,.6,3.9,1.1,6.1,1,.3.6.6,1.1.8,1.7h-4.4c0,.8.3,1.8.4,2.7,0,1.4.1,2.7.3,4.1-.8-.1-1.8-.3-2.7-.4l.6.8c-2.3-2.5-4.2-4.9-6.1-7.7,1-.7,2-1.5,3.1-2.3v-.3Z"/>
  <path id="p13" class="cls-5" d="M89.7,23c-.4.8-.7,1.7-1.1,2.5.8.3,1.5.7,2.4,1-1.5,2.4-3.2,4.6-5.2,6.8-.7,0-1.4-.1-2.3-.3v-3.4c-.3-1.1-.8-2.3-1.5-3.2,1.5-.7,3.1-1.4,4.6-2.1,1-.4,2.1-1,3.1-1.4h0Z"/>
  <path id="p14" class="cls-8" d="M47.4,23.8c.3,1.1.6,2.3.8,3.4v.6h-4.8v1.1c.1,0,.4,1.5.4,1.5-.7.7-1.4,1.5-2.1,2.3-1.1.7-1.4,1.4-1,2.3l-1.7-.3c.7-1.7,1.5-3.2,2.3-4.9-.7.1-1.5.3-2.3.6,2.5-2.7,4.9-5.1,8.4-6.3h-.1Z"/>
  <path id="p15" class="cls-7" d="M63.5,23.7c.7.7,1.3,1.4,2,2.1-.1,1-.4,2.1-.6,3.1-.6,1-1,2-1.5,3-.7-.4-1.3-1-2-1.4.7-2.3,1.4-4.5,2.1-6.8Z"/>
  <path id="p16" class="cls-8" d="M68.9,24.5c-.4.8-.7,1.8-1.1,2.7-.6,0-1.1-.3-1.7-.4-.4.7-.8,1.4-1.1,2,.3-1,.4-2.1.6-3.1v-.7c1.3-.1,2.3-.3,3.4-.4Z"/>
  <path id="p17" class="cls-7" d="M55.9,24.3c.6,2.4,1.1,4.8,1.5,7.2-1,0-2.1.1-3.1.3-.1-1.8-.4-3.8-.6-5.6.7-.6,1.4-1.1,2.1-1.7h0Z"/>
  <path id="p18" class="cls-7" d="M68.9,24.5c.1.7.4,1.3.6,2,.6.1,1,.4,1.5.6l-.4,1.4c-.3.8-.4,1.7-.8,2.5-.3.8-.7,1.7-1.1,2.5h-3.1c.6-2.1,1.3-4.4,2.1-6.5.4-1,.7-1.8,1.1-2.7h.1Z"/>
  <path id="p19" class="cls-8" d="M75.2,25c.8,1.5,1.4,3.2,1.8,4.9l-.4,1.3c-.6.7-1.3,1.4-2,2.1v-2.4c-.3-.4-.6-.7-1-1-1.3.4-2.5.8-3.8,1.4.3-.8.6-1.7.8-2.5,1.5-1.1,3-2.4,4.5-3.7h0Z"/>
  <path id="p20" class="cls-1" d="M26.3,26.6l.8-.3c1.8,2.8,3.8,5.3,6.1,7.7.7,1,1.4,2,2,3-4.2,2.4-8.3,4.9-11.5,8.7l-1.1-.6c.3-1.4.4-3.2,1.5-4.4,2.1-1.7,5.2-2.4,7.7-3.2-1.1-1.7-2.1-3.2-3.2-4.9-.8-1.4-1.7-2.7-2.7-3.9,0-.7.1-1.4.3-2.1h.1Z"/>
  <path id="p21" class="cls-7" d="M50.3,25.7c1,1.8,2,3.9,2.3,6.1,0,1.1-1,2.3-1.4,3.2-1.1-2.3-2.1-4.6-2.8-7v-.6c.6-.6,1.3-1,2-1.5h0Z"/>
  <path id="p22" class="cls-8" d="M59.2,25.9c1.4-1.1,3,.6,1.8,1.8-1.4,1.1-3-.6-1.8-1.8Z"/>
  <path id="p23" class="cls-1" d="M92.4,26.2v2.5c-.4.4-1,1-1.4,1.5-3.1,3.5-4.2,7.5-8.6,9.9-.8.1-1.5.4-2.4.6,1.7-2.7,3.5-5.1,5.6-7.5,2-2.1,3.7-4.4,5.2-6.8.4,0,.8-.3,1.4-.4h.1Z"/>
  <path id="p24" class="cls-2" d="M26,28.6c1,1.3,1.8,2.5,2.7,3.9.3,1.1.4,2.3.7,3.4-2,.7-4.1,1.4-5.8,2.7-1.7,1.4-3,3.5-4.6,4.9l-.7.3c.7-1.8,1.3-3.9,2.5-5.5,1.4-1.4,3.2-2.5,4.9-3.7,0-2,0-4.1.3-6.1Z"/>
  <path id="p25" class="cls-7" d="M43.6,28.8c2,2.3,3.4,4.5,4.2,7.5-1.8-1.7-3.4-3.5-3.9-6.1v-1.5h-.3Z"/>
  <path id="p26" class="cls-2" d="M92.4,28.8v3.5c-.6,1.8-1.7,3.5-3,4.9.1-2.4.7-4.8,1.4-7,.4-.6.8-1,1.4-1.5h.1Z"/>
  <path id="p27" class="cls-6" d="M34.8,29.7c.4.4.8,1,1.1,1.4,2,2.5,3.8,5.1,5.6,7.6-.8.8-1.8,1.7-2.7,2.7-.7-.7-1.4-1.5-2.3-2.3-.6-.7-1.1-1.3-1.8-2-.7-1-1.4-2-2-3l-.6-.8c.8.1,1.8.3,2.7.4,0-1.4-.1-2.7-.3-4.1h.1Z"/>
  <path id="p28" class="cls-7" d="M73.8,29.9c.3.3.7.7,1,1v2.4c-1.1,1-2.4,1.8-3.7,2.8.8-2.1,1.7-4.2,2.7-6.2Z"/>
  <path id="p29" class="cls-9" d="M77.2,30c1.4-.3,2.3.8,3.1,1.8-1.3.4-2.5.7-3.5-.6,0,0,.4-1.3.4-1.3Z"/>
  <path id="p30" class="cls-7" d="M83.5,29.6v3.4c.7,0,1.4.1,2.3.3-2.1,2.4-3.9,4.8-5.6,7.5-1.7,0-2.8-.8-4.2-1.8,2-2.4,3.7-4.9,5.5-7.5.7-.6,1.4-1.3,2.1-1.8Z"/>
  <path id="p31" class="cls-8" d="M91.1,30.3c-.8,2.3-1.3,4.6-1.4,7,1.3-1.5,2.3-3.1,3-4.9v2.5c1,2.8,3.7,4.4,5.2,6.8.3,3-1,6.1-1.3,9-.7.3-1.4.6-2.1.8-2,.4-3.9.6-6.1,1.1-.3-1-.4-2-.7-3,1.3-.7,2.5-1.3,3.7-2-.4-.6-.7-1.1-1.1-1.7.7-.1,1.3-.3,2-.4.7,1.8,1.3,3.7,2,5.5.3-2.8,1.1-6.5.1-9.3-1.7-3.1-4.6-3.2-7.7-3.7,1.4,1.5,5.5,3.5,4.6,5.9l-1.3-.7c-2.5-2-4.5-.3-7,.7-.7-.4-1.3-.8-2-1.3,1,0,2-.3,3-.4-.4-.7-1-1.4-1.4-2.3,4.4-2.4,5.3-6.5,8.6-9.9h0ZM89.6,49.9c-.4.7-.1,1.3.7,1.5,1.5-.3.7-2.4-.7-1.5Z"/>
  <path id="p32" class="cls-5" d="M28.6,32.6c1,1.7,2.1,3.2,3.2,4.9-2.5.8-5.8,1.5-7.7,3.2-1,1.1-1.1,3-1.5,4.4-1.3-.6-2.4-1.1-3.7-1.7,1.7-1.5,3-3.5,4.6-4.9,1.7-1.3,3.8-2,5.8-2.7-.1-1.1-.4-2.3-.7-3.4h0Z"/>
  <path id="p33" class="cls-2" d="M41.7,32.6c.3,1,0,1.7-.4,2.4h-.7c-.4-1,0-1.7,1-2.4h.1Z"/>
  <path id="p34" class="cls-2" d="M64,34.4c4.2,2.1,9,4.1,12.4,7.3,2.1,3.5,3.7,7.2,6.2,10.6-.6,3.1-1.3,6.1-1.3,9.1s0,3.8-.6,5.6c-.7,1.7-2.5,3-3.8,4.1-2.1,1.7-3.8,3.7-5.9,5.3-2.1,1.3-4.6,1.8-6.8,2.8-2.3.7-4.2,2-6.6,1.1-2.5-.8-4.9-2-7.5-2.7-3.2-1-5.2-3.8-7.9-5.9-1.8-1.7-4.4-3-4.5-5.8-.4-3.7-.7-7.2-2.4-10.6,1-3.4,2.8-6.1,4.2-9.3,1-2.1,1.4-4.1,3.5-5.3,3.9-2.5,8.2-4.8,12.4-6.6,3-1.1,5.6-1.1,8.4.3h0ZM41.7,47.1v.6c-1.5,1.8-3.1,3.7-3.8,5.9.4,2.3,1.1,4.4,1.5,6.6.4,2.3,0,5.6,1.8,7.2,2.5,2.3,4.9,4.8,7.6,6.9,3,1.7,6.3,2.7,9.6,3.5,1.7.6,2.8-.4,4.4-1.1,2.5-1.4,5.2-2.8,7.9-3.9v-2.1c.7-.8,1.4-1.5,2.3-2.4-1-.8-2-1.7-3-2.5-.6.7-1.1,1.3-1.7,2-2.8,2.7-6.9,3.9-10.7,3.1-2.8-.7-5.5-3-7.6-4.9-.8-1.1-1.7-2.3-2.5-3.4v-.8c1.4-4.9-2-3.9,1.5-8,1.5-1.8,4.2-3.9,9.9-4.9,6.5-.4,8.6,2.7,9.1,4.6.6,2.1,1.4,4.1,2,6.2.3,1.1.6,2.4,1.1,3.4,1.3,1,3,1.7,4.4,2.3.7-2.1,1.4-4.2,2-6.5h-6.1c.8-.7,1.7-1.5,2.5-2.4.7.3,1.5.6,2.3.8-.1-1-.4-2.1-.6-3.1.7,1,1.4,2.1,2.1,3.1.3-.7.4-1.4.7-2.1.4.8.8,1.7,1.3,2.4.3-2.4.6-4.5-.7-6.8-1.7-3.1-3-7.2-5.6-9.6l-1.1-.7c-1-.6-2-1.1-2.8-1.8-1.3-1-2.5-1.4-4.1-1.3l-.8-.7c-1.7-1.1-3.4-1.8-5.2-2.4-5.3,2.1-10.7,4.8-15.5,7.9-2,1.1-1.7,2.8-2,4.8v.3ZM52.3,64.2c2.5,3.7,7.3,4.8,11.4,3.1,5.3-2.3,5.9-11.8.3-13.9-2.3-1-5.3,0-7.7.3,1-1,2.1-2,3.2-2.7M78,60.6c-.7.6-.7,1.1,0,1.7,1.5.3,1.5-2,0-1.7Z"/>
  <path id="p35" class="cls-7" d="M59.2,34.4c1.8.4,3.7,1.3,5.2,2.4-4.5-1.3-8.4,1.5-12.5,3.1-3.8,1.8-8.3,3.1-10.3,7.2.3-2,0-3.5,2-4.8,4.8-3.1,10.3-5.8,15.5-7.9h.1Z"/>
  <path id="p36" class="cls-2" d="M92.5,34.8c2.5,1.3,5.1,2.4,6.3,5.1,1.5,3.4.6,6.8-.7,10l-1.5.7c.3-3,1.5-6.1,1.3-9-1.5-2.5-4.4-3.9-5.2-6.8h-.1Z"/>
  <path id="p37" class="cls-1" d="M64.4,36.8l.8.7c1.1,1.5,2.3,2.7,4.1,1.3,1,.6,1.8,1.3,2.8,1.8-1.1.1-2.3,1.7-.4,1.8.7,0,1.1-.4,1.5-1.1,2.7,2.4,3.9,6.3,5.6,9.6,1.3,2.3.8,4.4.7,6.8-.4-.8-.8-1.5-1.3-2.4-.3.7-.4,1.4-.7,2.1-.7-1-1.4-2.1-2.1-3.1.1,1,.4,2,.6,3.1-.7-.3-1.5-.6-2.3-.8-.8.8-1.7,1.7-2.5,2.4l-1.5.8c-.6-2.1-1.4-4.1-2-6.2s-1.8-3.4-5.6-4.5c-5.1.3-5.2-.3-11,2.7-3.5,4.1-2.5,5.2-3.8,10.1l-.6-.3c-2.4-1.8-4.8-1.4-7.5-1.1-.4-2.3-1.1-4.4-1.5-6.6,2.1-1.8,3.8-3,3.8-5.9v-.6c2-4.1,6.5-5.5,10.3-7.2,4.1-1.5,8-4.2,12.5-3.1v-.3ZM59.9,38.7c-1.5.6-1,2.7.6,2.4,1.4-.6,1-2.7-.6-2.4ZM65.5,41.1c-1.1,1.5.7,1.7,1.7,2.4.3-.8.4-1.7.6-2.7-.8-1.1-1.5-1-2.3.3ZM52.1,41.4c-1.4.4-1.3,2.4.4,2.1,1.4-.4,1.3-2.3-.4-2.1ZM44,47.2c1.3.7,2.7,2,4.2,2,.8-.8,1.4-1.8,2.1-2.7-1-.7-2.1-1.4-3.2-2-1.1.7-2.1,1.8-3.2,2.7h.1ZM69.5,51.6c.6,1,1.3,2,1.8,3,2.4-1.3,3.8-1.8,4.5-4.6l.3-.6c-.6-.7-1.3-1.1-2.1-1.1h-2.4c-1.1.7-1.7,2.3-2.1,3.4ZM41.4,55.6c2-.4,3.9-.8,5.9-1.4-1.3-1-2.4-1.8-3.7-2.7-.8,1.3-1.5,2.7-2.3,3.9h0ZM78,52.5l-.4.6.4.6h.7l.4-.6-.4-.6h-.7ZM71.1,55.2c-1,.3-1.5,1.8-.8,2.5,1.3.6,2.4-2.5.8-2.5ZM44.7,58.4c0,.8.3,1.3,1.1,1.1,1.4-.8-.3-2.4-1.1-1.1Z"/>
  <path id="p38" class="cls-8" d="M35.1,37.1c.6.7,1.1,1.3,1.8,2-2.3.6-4.2,1.3-6.2,2.5-.7.4-1.3,1-2,1.4,1.3.8,2.5,1.5,3.8,2.4-2.8,1.1-3.7.3-5.9-1.1.3.8.6,1.7.7,2.5l-1.5-.3-1.5-.6-.6-.3c3.2-3.8,7.2-6.3,11.5-8.7h-.1Z"/>
  <path id="p39" class="cls-3" d="M65.2,37.5c1.7-.1,2.8.3,4.1,1.3-1.8,1.4-3,.3-4.1-1.3Z"/>
  <path id="p40" class="cls-1" d="M94.5,41.8c1,2.8.1,6.3-.1,9.3-.7-1.8-1.4-3.7-2-5.5-.7.1-1.3.3-2,.4-1.7.4-3.4.7-5.1,1,2.1-1,4.1-2,6.1-3.1.8-2.4-3.2-4.4-4.6-5.9,3.1.4,6.1.6,7.7,3.7h0Z"/>
  <path id="p41" class="cls-5" d="M59.9,38.7c1.5-.3,2.1,1.8.6,2.4-1.5.3-2.1-1.8-.6-2.4Z"/>
  <path id="p42" class="cls-8" d="M34,40.4c1.4-.3,1.8,1.7.6,2.1-1.5.3-1.8-1.7-.6-2.1Z"/>
  <path id="p43" class="cls-7" d="M67.9,40.9c-.6.7-1.3.8-2.3.3.7-1.3,1.4-1.4,2.3-.3Z"/>
  <path id="p44" class="cls-3" d="M52.1,41.4c1.5-.3,1.7,1.5.4,2.1-1.7.3-1.7-1.5-.4-2.1Z"/>
  <path id="p45" class="cls-5" d="M65.5,41.1c1,.6,1.8.4,2.3-.3-.1.8-.4,1.8-.6,2.7-1-.7-2.8-.8-1.7-2.4Z"/>
  <path id="p46" class="cls-7" d="M72.3,40.4l1.1.7c-.4.6-.8,1-1.5,1.1-1.8-.1-.6-1.7.4-1.8Z"/>
  <path id="p47" class="cls-7" d="M30.8,41.6c2.5,1.5,4.9,3.2,7.2,5.1-1.8-.4-3.5-.8-5.3-1.3-1.3-.7-2.5-1.5-3.8-2.4.7-.4,1.3-1,2-1.4Z"/>
  <path id="p48" class="cls-1" d="M17.5,44.1c.1,1.4.4,2.8.8,4.1,2.3,1.4,5.2,1.8,7.7,2.5,2.3.8,4.4,2,6.5,3.1-1.7.4-3.5.7-5.3,1.1,0,1,0,2.1-.1,3.1v.8c1.7.1,3.4.3,5.1.3-1.7.4-3.5.7-5.2,1.1-1.5,1.1-2.8,2.4-4.1,3.8,0-2.1,0-4.2-.3-6.2.3-.4.6-.8.8-1.1.6-.8,1.3-1.8,1.8-2.7-2.1-1.3-4.2-2.4-6.3-3.4-.7-.4-1.4-.7-2-1-.3-2-2.1-4.9.7-5.6h-.1Z"/>
  <path id="p49" class="cls-5" d="M17.5,44.1l.6-.3.7-.3c1.3.6,2.5,1,3.7,1.7l1.1.6.6.3c1,.8,1.8,1.8,2.7,2.8-.3.7-.4,1.3-.7,2-2.5-.8-5.5-1.1-7.7-2.5-.4-1.3-.7-2.8-.8-4.1h0Z"/>
  <path id="p50" class="cls-5" d="M47.2,44.4c1.1.6,2.1,1.3,3.2,2-.7,1-1.4,1.8-2.1,2.7-1.5,0-3-1.3-4.2-2,1-1,2-2,3.2-2.7h-.1Z"/>
  <path id="p51" class="cls-7" d="M90.1,43.4l1.3.7c-2,1.1-4.1,2.1-6.1,3.1-1.4.3-2.8.4-4.2.4,2.8-2.3,5.6-3.4,9.1-4.2h-.1Z"/>
  <path class="cls-5" d="M63.8,53.4c-2.3-.8-5.1,0-7.5.1-.7.3-1.4.4-2.3.4-2.3-.6-3.2.7-3.7,2.7-.1,2.7.4,5.5,1.8,7.7,2.5,3.7,7.3,4.8,11.4,3.1,5.3-2.3,5.9-11.8.3-13.9h-.1ZM61.1,63c-1.3-.4-2.7-.8-3.9-1.4-.3-1.7,0-2.7,1.1-4.1,1.8,0,3,1.1,4.4,2.1-.6,1.1-1.1,2.1-1.7,3.2h.1Z"/>
  <path id="p53" class="cls-6" d="M24.3,46.1l1.5.6c3.1,1.1,6.3,2.4,9.4,3.8-.8,1.3-1.7,2.4-2.5,3.7-2.1-1.1-4.2-2.3-6.5-3.1.3-.7.4-1.3.7-2-.8-1-1.7-1.8-2.7-2.8h0Z"/>
  <path id="p54" class="cls-7" d="M74,48.3c-1.5,1.1-3,2.3-4.5,3.4.4-1.1,1-2.8,2.1-3.4h2.4Z"/>
  <path id="p55" class="cls-7" d="M41.6,47.6c0,3-1.7,4.1-3.8,5.9.8-2.3,2.3-4.1,3.8-5.9Z"/>
  <path id="p56" class="cls-5" d="M74,48.3c.1,1.1.8,1.7,1.8,1.7-.7,2.8-2.1,3.4-4.5,4.6-.6-1-1.3-2-1.8-3,1.5-1.1,3-2.3,4.5-3.4Z"/>
  <path id="p57" class="cls-3" d="M74,48.3c.8,0,1.5.3,2.1,1.1l-.3.6c-1,0-1.7-.4-1.8-1.7Z"/>
  <path id="p58" class="cls-2" d="M16.8,49.6c.7.3,1.4.7,2,1,1.3,2.3,2.7,4.4,4.5,6.1-.3.4-.6.8-.8,1.1-3,3.7-5.2,9.7-3.4,14.2,1.8,2.5,6.2,3.5,9,4.6-.4,3.8-2,7.7,1.4,10.7,1.7,2.1,3.8,1.8,6.2,2.1,2.4.1,4.4,2.3,6.6,2.8,1.4.3,3.1.3,4.5.4l.6.4c-.3.4-.6.7-.8,1.1-1.7-.6-2.5-.3-3.8.8l-.3-.3c-1-1-2.1-1.3-3.5-1.5l-1-.6c-2.1-1.7-3.9-1.3-6.5-1.1-.8-.1-1.7-.4-2.4-.6.6-1.4.1-1.8-1.1-.8-2.4-3.7-2.8-6.9-2.4-11.1-3.1-1.8-8-3.8-8.9-7.5-.7-4.6,1.3-10,3.4-14.1-1.4-2.7-2.7-5.2-3.5-8h.3Z"/>
  <path id="p59" class="cls-2" d="M89.6,49.9c1.3-.8,2.3,1.1.7,1.5-.8-.3-1.1-.7-.7-1.5Z"/>
  <path id="p60" class="cls-5" d="M98.2,49.9c0,.4.3.7.3,1.1.3,1,.6,2,.8,3.1-1.8.3-3.8.7-5.6,1-1.4-.3-2.8-.6-4.2-.8,1.7-1,3.2-1.8,4.9-2.7.7-.3,1.4-.6,2.1-.8l1.5-.7h.1Z"/>
  <path id="p61" class="cls-8" d="M18.9,50.7c2.1,1.1,4.4,2.3,6.3,3.4-.6.8-1.3,1.8-1.8,2.7-1.8-1.8-3.2-3.8-4.5-6.1Z"/>
  <path id="p62" class="cls-1" d="M103.4,51.3c-.4,1.1-1,2.1-1.5,3.2-.7,1-1.4,2-2.1,3.1l-.7-1.3c-1.8-.3-3.9.6-5.8.8-2.1.4-4.1,0-6.2-.3,2.3-.6,4.5-1.3,6.9-1.7,1.8-.3,3.8-.7,5.6-1-.3-1-.6-2-.8-3.1,1.5,0,3.2,0,4.8.1h-.1Z"/>
  <path id="p63" class="cls-3" d="M43.6,51.7c1.3.8,2.5,1.7,3.7,2.7-2,.6-3.9,1-5.9,1.4.7-1.4,1.4-2.7,2.3-3.9h0Z"/>
  <path id="p64" class="cls-6" d="M94.5,51.6c-1.7.8-3.4,1.8-4.9,2.7,1.4.3,2.8.6,4.2.8-2.3.4-4.5,1.1-6.9,1.7h-1.4c-.6-1-1.1-1.8-1.7-2.7,1.5-.6,3-1.1,4.5-1.5,2-.4,3.9-.7,6.1-1.1h.1Z"/>
  <path id="p65" class="cls-3" d="M109.3,51.4c1.3,2.8,1.7,5.8.7,8.7-.7,1.8-2.4,3.4-3.8,4.6-.3-1-.7-2-1-3.1,2.1-3.2,3.9-6.3,4.1-10.3Z"/>
  <path id="p66" class="cls-2" d="M78,52.5h.7l.4.6-.4.6h-.7l-.4-.6.4-.6Z"/>
  <path id="p67" class="cls-8" d="M82.5,52.3c.8,2.4,1.3,4.9,1.3,7.5l-.6,1.4c-1,2.3-.8,4.4-1,6.8,2.3,1.5,4.5,3.1,6.9,4.4,1.1.6,2.5,1.4,3.8,1.5,1.4.3,1.8-1.7,2.7-2.5-1.1-.3-2.3-.4-3.2-.7-.7-.7-1.4-1.5-2.4-2l-1-.4c.7-1.3,1.4-2.7,2-3.9,1.5.6,3,1,4.5,1.5-.8-2.3-1.3-4.4-3.8-5.5-2-1.1-4.1-2.1-6.1-3.4h1.4c2.1.4,4.1.8,6.2.4,1.8-.3,3.9-1.1,5.8-.8l.7,1.3c-.4,1.7-.8,3.4-1,5.2.8,2.8,2.4,6.2,2,9.1-.8,3.9-4.8,5.6-7.9,7.5-.1,3.2.1,7.6-2,10.1-1.5,2-3.7,2.5-6.1,3.2-2.5.6-4.9,1.5-7.3,2.5-2.1,1-4.1.3-6.2,0,.7-2.8,3.7-7.9.8-10.3-2.5-1.5-6.6-.8-9.6-.8-4.8.4-9.1-1-13.8-1.4-2-1.8-3.8-3.9-5.6-5.9-.6,1.3-1,2.7-1.5,3.9-.4,1.1-.7,2.3-1.1,3.5,1.3-.1,2.4-.4,3.7-.6.6.6,1,1.3,1.5,1.8,0,2.7.3,5.2,1.3,7.6-1.5-.1-3.1,0-4.5-.4-2.3-.6-4.2-2.7-6.6-2.8-2.4-.3-4.5,0-6.2-2.1-3.4-3.1-1.8-6.9-1.4-10.7-3-1-7.2-2-9-4.6-1.8-4.6.4-10.6,3.4-14.2.1,2.1.3,4.2.3,6.2,1.3-1.4,2.5-2.7,4.1-3.8.6,3.1.8,6.2.8,9.4v1.1c-1.7.7-3.4,1.4-5.2,2.1,3.1.6,6.1.8,9.3.4.4.4,1,.8,1.4,1.1.7,0,1.4-.3,2.3-.4.3.6.6,1.3,1,1.8l-.4.3c-2,0-3.2.4-2.1,2.5.4,1.3,1,2.4,1.4,3.7-.7.3-1.4.4-2.1.7-.6-2.7-1.3-5.3-2.1-8-.4,3-.8,6.2.1,9,.4,1.5,2.4,3,3.9,1.8,2.8-1.3,3.8-3.7,5.2-6.2.8-1.5,1.5-3.2,2.1-4.9-1-.4-2-.8-2.8-1.1-1.4-1.5-2.5-3.2-3.8-4.9v-.8c1.5-4.5-.4-8.3-.4-12.8,1.7,3.4,2,6.9,2.4,10.6.1,2.8,2.7,3.9,4.5,5.8,2.7,2.1,4.6,4.9,7.9,5.9,2.5.8,4.9,1.8,7.5,2.7,2.4.8,4.4-.3,6.6-1.1,2.3-1,4.8-1.5,6.8-2.8,2.1-1.5,3.8-3.7,5.9-5.3,1.3-1.1,3.1-2.4,3.8-4.1.6-1.8.4-3.8.6-5.6,0-3.1.8-6.1,1.3-9.1h-.1ZM81.7,73.1c-.8.3-1.5.6-2.4.8-1.3.3-2.4.6-3.7.8,1,1.5,1.8,3.1,2.7,4.8.4,1.7.4,4.2,1.7,5.5,1.8,1.4,5.5,1.8,7.2,0,1.7-2.5.8-5.2,0-7.9,0,1.5-.1,3.1-.1,4.6-1.1.4-2.3.7-3.4,1,.1-1,.3-2,.4-2.8,0-.7.3-1.4.4-2.1.3-1.1.4-2.1.7-3.2.1-1,.3-2,.4-3-1.8,0-2.4,0-3.8,1.4h-.1ZM74.7,81.2c-.8.8,0,2.4,1.1,1.7,1-.8,0-2.3-1.1-1.7Z"/>
  <path id="p68" class="cls-9" d="M101.8,54.4h3.4c-1.4,2.4-3,4.6-4.8,6.8-.6.4-1.1,1-1.7,1.4,0-1.8.6-3.4,1-5.2.7-1,1.4-2.1,2.1-3.1h0Z"/>
  <path id="p69" class="cls-2" d="M71.1,55.2c1.7,0,.6,3.1-.8,2.5-.7-.7,0-2.3.8-2.5Z"/>
  <path id="p70" class="cls-7" d="M32.6,56.6l2,2c-.8.1-1.5.4-2.4.6-1.7,0-3.4,0-5.1-.3v-.8c1.8-.6,3.7-1.1,5.5-1.4Z"/>
  <path id="p72" class="cls-2" d="M44.7,58.4c.8-1.3,2.5.3,1.1,1.1-.8,0-1.3-.3-1.1-1.1Z"/>
  <path id="p73" class="cls-3" d="M74.4,58.6c.4.7,1,1.4,1.4,2.1-1.4.6-2.8,1-4.2,1.5.1-1.3.3-2.4.6-3.7h2.3Z"/>
  <path id="p74" class="cls-9" d="M74.4,58.6h3c-.7,2.1-1.3,4.4-2,6.5-1.4-.7-3.1-1.3-4.4-2.3-.6-1-.8-2.3-1.1-3.4l1.5-.8h.8c-.1,1.1-.3,2.4-.6,3.7,1.4-.6,2.8-1,4.2-1.5-.4-.7-1-1.4-1.4-2.1h-.1Z"/>
  <path id="p75" class="cls-9" d="M46.9,61.3c-.6.3-1.1.4-1.5.7-.3-1.4-2.1-1.1-2.3.3-.1.8-.3,1.7-.4,2.5v3c1.3,0,2.5.1,3.7,0,1.1-.6,2.3-1.4,3.4-2.1,2.1,2.1,4.6,4.2,7.6,4.9,3.8.8,7.9-.3,10.7-3.1.8,1,1.5,2,2.4,3v2.1c-2.7,1.1-5.3,2.5-7.9,3.9-1.4.7-2.7,1.7-4.4,1.1-3.2-1-6.6-1.8-9.6-3.5-2.7-2.1-5.1-4.6-7.6-6.9-2-1.5-1.4-4.9-1.8-7.2,2.8-.3,5.1-.7,7.5,1.1h.3ZM50.6,69.1c-1.5,1-.6,2.7,1,1.8,1.7-1,.6-2.5-1-1.8ZM58.3,73.1v.7l.6.4.6-.4v-.7l-.6-.4-.6.4Z"/>
  <path id="p76" class="cls-1" d="M78,60.6c1.5-.3,1.5,2,0,1.7-.7-.6-.7-1.1,0-1.7Z"/>
  <path id="p77" class="cls-7" d="M83.8,59.7c2.3.4,4.2,1.1,6.2,2.3-.8.3-1.7.6-2.4.8-1.4-.6-3-1.1-4.4-1.7,0,0,.6-1.4.6-1.4Z"/>
  <path id="p78" class="cls-1" d="M91.7,60.1c2.5,1.1,3,3.2,3.8,5.5-1.5-.4-3-1-4.5-1.5-1.1-.4-2.3-.8-3.4-1.3.8-.3,1.7-.6,2.4-.8l.4-.3c.4-.6.7-1,1.1-1.5h.1Z"/>
  <path id="p79" class="cls-8" d="M32.4,61c-.3,2.5-.6,3.7-2.3,5.5-.8-.8-1.7-1.8-2.4-2.7,1.5-1.1,3.1-2.1,4.8-2.8h-.1Z"/>
  <path id="p80" class="cls-1" d="M45.2,62.1c-.7.4-1.4.6-2.3.3,0-1.4,1.8-1.7,2.3-.3Z"/>
  <path id="p81" class="cls-7" d="M46.9,61.3l.6.3v.8c-1.7.8-3.2,1.7-4.8,2.5,0-.8.3-1.7.4-2.5.7.3,1.4.1,2.3-.3s1.1-.6,1.5-.7h0Z"/>
  <path id="p82" class="cls-5" d="M83.2,61.1c1.4.6,3,1.1,4.4,1.7,1.1.4,2.3.8,3.4,1.3-.7,1.3-1.4,2.7-2,3.9-1.5-.7-3.1-1.3-4.6-1.7-.7.6-1.3,1-2,1.5,0-2.4,0-4.5,1-6.8h-.1Z"/>
  <path id="p83" class="cls-7" d="M100.4,61.3c2.4,3.7,3.9,8.3,2.5,12.5-1.1,3.5-4.6,5.3-7.5,7.2-.4,4.5-.4,8.4-4.1,11.5-3,2.8-5.6,3.4-9.7,3l3-3c2.3-.7,4.4-1.3,6.1-3.2,2.1-2.5,1.8-6.9,2-10.1,3.1-1.8,7-3.5,7.9-7.5.4-3-1.1-6.3-2-9.1.6-.4,1.1-1,1.7-1.4h.1Z"/>
  <path id="p84" class="cls-5" d="M47.2,62.4c.8,1.1,1.7,2.3,2.5,3.4-1.1.7-2.1,1.5-3.4,2.1h-3.7v-3c1.5-.8,3.1-1.7,4.6-2.5h-.1Z"/>
  <path id="p85" class="cls-7" d="M35.4,65.2c.1,1,.3,2,.4,3v.8c-1.1.3-2.1.7-3.1,1.1l-1,.6c-1.3-1.3-3.1-1.1-3.8.7l-.3-.4v-1.1c2.1-2.4,4.4-3.9,7.6-4.5h.1Z"/>
  <path id="p86" class="cls-1" d="M69.7,65.8c1,.8,2,1.7,3,2.5-.7.8-1.4,1.5-2.3,2.4-.8-1-1.5-2-2.4-3,.6-.7,1.1-1.3,1.7-2Z"/>
  <path id="p87" class="cls-7" d="M84.2,66.3c1.5.4,3.1,1.1,4.6,1.7l1,.4c-.7.6-1.3,1.4-.6,2.3.4.6.7,1.3,1.1,1.8l-1.1-.4c-2.4-1.3-4.6-2.8-6.9-4.4.7-.6,1.3-1,2-1.5h-.1Z"/>
  <path id="p88" class="cls-5" d="M35.7,69c1.3,1.7,2.4,3.4,3.8,4.9-1,.7-2.1,1.5-3.1,2.3-.3-.6-.6-1.3-1-1.8-.7,0-1.4.3-2.3.4-.4-.4-1-.8-1.4-1.1.3-1.1.7-2.3,1-3.4,1-.4,2-.7,3-1.1h0Z"/>
  <path id="p89" class="cls-3" d="M50.6,69.1c1.5-.7,2.7,1,1,1.8-1.7.7-2.5-.8-1-1.8Z"/>
  <path id="p90" class="cls-5" d="M90,68.4c1,.4,1.7,1.3,2.4,2-1,.1-2,.3-3,.3-.7-1-.1-1.7.6-2.3Z"/>
  <path id="p91" class="cls-3" d="M107.4,68.6c1,3.8,2.1,7.2.6,11.1-1.4,3.7-4.5,5.1-6.8,7.9-1.3,2.5-1.5,5.6-3,8.2-1.1,2.1-3,3.9-4.9,5.2-2.4,1.5-5.8,1.7-8.6,2.7-2.5.8-5.1,1.5-7.5,2.3-2.1.4-2.7,2.5-3.7,4.1-8.3.3-16.6,0-24.9,0-.6-.8-1.1-1.7-1.7-2.5,5.6,2.4,11.1,1.7,17.2,1.7s4.2,0,5.9-1c2-1.4,3-3.9,4.9-5.3,3.9-1.8,8.9-2.7,12.9-3.7,3.5-.8,6.6-3.7,8.6-6.8,1.7-2.7,1.7-5.9,3.1-8.6,1.7-2.3,4.5-3.7,6.1-6.3,1.4-2.5,1.5-5.9,1.8-8.9h-.1Z"/>
  <path id="p92" class="cls-8" d="M31.9,70.6c-1,.7-2.8,2.1-3.8.7.6-1.8,2.4-2,3.8-.7Z"/>
  <path id="p93" class="cls-1" d="M31.9,70.6l1-.6c-.3,1.1-.7,2.3-1,3.4-3.1.3-6.2,0-9.3-.4,1.7-.7,3.5-1.4,5.2-2.1l.3.4c.8,1.4,2.8,0,3.8-.7Z"/>
  <path id="p94" class="cls-1" d="M89.3,70.7c1,0,2-.1,3-.3,1.1.3,2.3.4,3.2.7-.7.8-1.3,2.8-2.7,2.5-1.3,0-2.7-.8-3.8-1.5l1.1.4c-.4-.6-.7-1.3-1.1-1.8h.3Z"/>
  <path id="p95" class="cls-9" d="M85.5,71.8c0,1-.3,2-.4,3-1.1-.6-2.3-1.1-3.5-1.5,1.4-1.3,2-1.5,3.8-1.4h.1Z"/>
  <path id="p96" class="cls-7" d="M58.3,73.1l.6-.4.6.4v.7l-.6.4-.6-.4v-.7Z"/>
  <path id="p97" class="cls-5" d="M81.7,73.1c1.1.6,2.3,1,3.5,1.5-.1,1.1-.4,2.1-.7,3.2-1.7-1.3-3.4-2.5-5.2-3.9.8-.3,1.5-.6,2.4-.8Z"/>
  <path id="p98" class="cls-7" d="M39.5,73.9c1,.4,2,.8,2.8,1.1-.6,1.7-1.3,3.4-2.1,4.9-1.7,1.1-3.2,2-5.1,2.7-.4-1.3-.8-2.4-1.4-3.7,1.1-.6,1.5-1.5,2.1-2.5l.4-.3c1-.7,2-1.5,3.1-2.3h.1ZM36.1,78.4c0,.8.3,1.3,1.1,1.1,1.4-1-.3-2.4-1.1-1.1ZM35.7,80.1c-.4.8-.1,1.3.7,1.4,1.5-.4.7-2.4-.7-1.4Z"/>
  <path id="p99" class="cls-7" d="M79.3,74.1c1.7,1.3,3.4,2.7,5.2,3.9-.1.7-.3,1.4-.4,2.1-.3-.6-.6-1.1-.8-1.8-.7,1.1-1.4,2.4-2,3.5-1-.7-1.8-1.4-2.7-2.1-.8-1.5-1.8-3.2-2.7-4.8,1.3-.3,2.4-.6,3.7-.8h-.3ZM80.7,78.4l-.3.7.4.6h.7l.3-.7-.4-.6h-.7Z"/>
  <path id="p100" class="cls-1" d="M31,75.3c.8,2.7,1.5,5.3,2.1,8,.7-.3,1.4-.4,2.1-.7,1.8-.6,3.4-1.5,5.1-2.7-1.3,2.5-2.3,5.1-5.2,6.2-1.5,1-3.5-.3-3.9-1.8-1-2.8-.6-6.2-.1-9Z"/>
  <path id="p101" class="cls-2" d="M36,76.5c-.6,1-1,2-2.1,2.5-1.1-2.1.1-2.5,2.1-2.5Z"/>
  <path id="p102" class="cls-5" d="M43.3,76.6c1.8,2,3.7,3.9,5.6,5.9-1,.8-2,1.8-3.1,2.8-.6-.6-1-1.3-1.5-1.8-.8-1-1.7-2-2.5-2.8.4-1.3,1-2.7,1.5-3.9h0Z"/>
  <path id="p103" class="cls-1" d="M87.2,77.2c1,2.7,1.8,5.3,0,7.9-1.5,2-5.3,1.5-7.2,0-1.3-1.3-1.1-3.8-1.7-5.5.8.7,1.8,1.4,2.7,2.1.8.4,1.5.8,2.4,1.1,1.1-.3,2.3-.7,3.4-1,0-1.5,0-3.1.1-4.6h.3Z"/>
  <path id="p104" class="cls-5" d="M36.1,78.4c.8-1.3,2.5.1,1.1,1.1-.8,0-1.3-.3-1.1-1.1Z"/>
  <path id="p105" class="cls-5" d="M80.7,78.4h.7l.4.6-.3.7h-.7l-.4-.6.3-.7Z"/>
  <path id="p106" class="cls-7" d="M83.1,78.3c.3.6.6,1.1.8,1.8-.1,1-.3,2-.4,2.8-.8-.3-1.7-.7-2.4-1.1.7-1.1,1.3-2.4,2-3.5Z"/>
  <path id="p107" class="cls-5" d="M35.7,80.1c1.3-1,2.3,1.1.7,1.4-.8-.1-1.1-.7-.7-1.4Z"/>
  <path id="p108" class="cls-9" d="M41.7,80.5c.8,1,1.7,1.8,2.5,2.8-1.3.1-2.4.4-3.7.6.3-1.1.7-2.3,1.1-3.5h0Z"/>
  <path id="p109" class="cls-2" d="M74.7,81.2c1.1-.7,2.1.8,1.1,1.7-1.1.7-2.1-.8-1.1-1.7Z"/>
  <path id="p110" class="cls-7" d="M48.8,82.5c4.6.4,9,1.8,13.8,1.4,3,0,7-.7,9.6.8,2.8,2.4-.1,7.5-.8,10.3-.4,2-.6,3.8-1,5.8-.8,2-1,3.8-3.5,4.2-5.3-.3-10.6-.6-15.9,0-1-1-2.1-2-2.7-3.2-.6-1.5-.4-3.4-.4-5.1v-3.1l-.4-.3-.6-.4c-1-2.5-1.1-5.1-1.3-7.6,1-1,2-1.8,3.1-2.8h.1ZM49.6,85c-.1,2-.3,3.8-.6,5.8,1.1-.6,2.4-1,3.5-1.5,3.9,1.5,6.5,1.7,10.6.4.8.4,1.7.8,2.7,1.1.4-.4.7-.8,1.1-1.4.6.3,1.3.6,1.8.7.6-1,1-2.1,1.5-3.1-3.8,0-7.7.3-11.5.3s-6.1-1.3-9-2.4h-.1ZM51.4,91.8c0,1.8-.1,3.7-.3,5.5h3.7c-1.1-1.8-2.3-3.7-3.4-5.5ZM55.7,93.9v3.1c4.1-.8,8-.4,12.1-.1,0-1.4,0-2.8.1-4.2-3.9,2.5-7.9,1.3-12.2,1.3ZM51.3,100c0,.7,0,1.4-.1,2.1h.7c5.2.6,9.9.6,15.2,0h.7c0-.6,0-1.3-.1-2h-16.3Z"/>
  <path id="p111" class="cls-2" d="M49.6,85c3.1,1.1,5.8,2.4,9,2.4s7.7-.3,11.5-.3c-.6,1-1,2.1-1.5,3.1-.6-.3-1.3-.6-1.8-.7-.4.4-.7.8-1.1,1.4-.8-.4-1.7-.8-2.7-1.1-4.1,1.3-6.5,1.1-10.6-.4-1.1.4-2.4,1-3.5,1.5.1-2,.3-3.8.6-5.8h.1ZM50.6,87v.7l.6.4.6-.3v-.7l-.6-.4-.6.3ZM55.7,88.7q.3.3,0,0Z"/>
  <path id="p112" class="cls-9" d="M50.6,87l.6-.3.6.4v.7l-.7.3-.6-.4v-.7h.1Z"/>
  <path id="p113" class="cls-9" d="M55.7,88.7q.3.3,0,0Z"/>
  <path id="p114" class="cls-8" d="M29.3,91.2h-.7c0-.1-.4-.8-.4-.8,1.3-1,1.7-.7,1.1.8Z"/>
  <path id="p115" class="cls-8" d="M38.2,93.1c-2.1-.4-4.4-.7-6.5-1.1,2.5,0,4.4-.6,6.5,1.1Z"/>
  <path id="p116" class="cls-2" d="M51.4,91.8c1.1,1.8,2.3,3.7,3.4,5.5h-3.7c0-1.8.1-3.7.3-5.5Z"/>
  <path id="p117" class="cls-2" d="M67.9,92.5c0,1.4,0,2.8-.1,4.2-4.1-.1-8-.7-12.1.1v-3.1c4.4,0,8.3,1.1,12.2-1.3Z"/>
  <path id="p118" class="cls-9" d="M84.9,92.6l-3,3c-1.1.8-2.3,1.8-3.7,2.3-1.8.3-3.8-.4-5.5-.4-1.3.3-1.7,2.4-2.3,3.4.3-2,.6-3.8,1-5.8,2.1.3,4.2,1.1,6.2,0,2.4-1,4.8-2,7.3-2.5h-.1Z"/>
  <path id="p119" class="cls-3" d="M47.6,93.3l.4.3v3.1c-3,1.4-4.8,1.8-8,.6h1.8c.3-.6.6-1.1.7-1.8l.3-.6.3.3c1.4,1.3,3,.6,3.8-.8.3-.4.6-.7.8-1.1h-.1Z"/>
  <path id="p120" class="cls-8" d="M39.2,93.6c1.4.3,2.5.4,3.5,1.5l-.3.6c-1.7.3-2.5-.8-3.4-2.1h.1Z"/>
  <path id="p121" class="cls-8" d="M46.9,94.5c-.8,1.4-2.5,2.1-3.8.8,1.3-1.3,2.3-1.4,3.8-.8Z"/>
  <path id="p122" class="cls-3" d="M24.4,96.3c6.1,3.4,13.5,4.6,20.1,6.5.4,1,1,2,1.5,3.1-4.6-1.1-9.3-2.5-13.9-3.7-3.5-.8-5.5-3.2-7.7-6.1h0Z"/>
  <path id="p123" class="cls-2" d="M51.3,100h16.2c0,.7,0,1.4.1,2.1h-.7c-4.2-1.1-8.6-1.3-12.8-.7-.8.1-1.5.4-2.4.6h-.7c0-.6,0-1.3.1-2h.1Z"/>
  <path id="p124" class="cls-8" d="M54.1,101.4c4.2-.7,8.6-.6,12.8.6-5.2.7-9.9.7-15.2,0,.8-.1,1.5-.4,2.4-.6Z"/>
  <path id="p125" class="cls-9" d="M51,105.2c5.3-.6,10.6-.3,15.9,0-5.2,1.1-10.7,1.1-15.9,0Z"/>
  <path id="p71-2" class="cls-1" d="M58.6,57.6c1.8,0,3,1.1,4.4,2.1-.6,1.1-1.1,2.1-1.7,3.2-1.3-.4-2.7-.8-3.9-1.4-.3-1.7,0-2.7,1.1-4.1h.1Z"/>
  <path class="cls-4" d="M75.1,99.9c.3-2.1.3-3.8,0-5.3-.3-2.3-1.8-9.1-5.7-12.2,0,0,3.6-6.4,3.6-7.8-9.4-6.4-20.3-5.8-26.4,2-4.7,5.5-5,9.5-5.4,12.2-.4,2.7,0,8.7.3,9.1.7,3.6,2.1,6.1,2.7,6.8,2.7,3.6,6.7,6,11.1,7.1,6,1.4,12.2-.7,16.6-4.8s.3-.3.4-.6c.9-1.1,2.1-3.6,2.8-6.5M65,107.3c-6.3,2.7-13.9.9-17.9-4.8-5.8-9.1-3-24,7.4-28.9,4.3-1.8,8.1-1.3,12.1.1s3.1,3.3,2.1,5.3,0,0,0,0c-.7,1.4-2.1,2.3-3.7,2.1s-3.8-.3-5.8,0-1.1.3-1.6.6c-1.6,1-3,2.4-4.4,3.7,3.7-.4,8.7-1.8,12.4-.4,8.8,3.4,8.1,18.6-.4,22v.3Z"/>
  <path id="p52-2" class="cls-6" d="M70.4,75.3c-1,2-1.8,4.1-2.8,6.1-1.8,0-3.8-.3-5.7-.3s-4.7.9-6.4,2.4-1.6,1.4-2.3,2.1c3.7-.4,8.7-1.8,12.4-.4,8.8,3.4,8.1,18.6-.4,22-6.3,2.7-13.9.9-17.9-4.8-5.8-9.1-3-24,7.4-28.9,5.7-2.6,10.7-.4,15.9,1.8h-.1ZM62,98.3c.1-.4.4-.7.6-1.1.6-1.1.3-2.6-.7-3.4s-2.3-1.6-3.7-1.8-1.8.1-2.3,1c-.9,1.3-1.1,2.4-1.1,4s.6,1.4,1.3,1.7,1.8.7,2.8,1,2.6,0,3.1-1.3h0Z"/>
  <path id="p71-2-2" data-name="p71-2" class="cls-4" d="M57.6,91.9c1.8.3,3.3,1.3,4.7,2.3s1.1,1.7.6,2.7-.9,1.6-1.3,2.4-1,1-1.7.7c-1.4-.4-3-1-4.4-1.6s-.7-.6-.7-.9c-.1-2.1.1-3.4,1.4-5s.9-.7,1.4-.6h0Z"/>
</svg>