<?xml version="1.0" encoding="UTF-8"?>
<svg id="_Слой_1" data-name=" Слой 1" xmlns="http://www.w3.org/2000/svg" version="1.1" viewBox="0 0 120 120">
  <defs>
    <style>
      .cls-1 {
        fill: #f4b700;
      }

      .cls-1, .cls-2, .cls-3, .cls-4, .cls-5, .cls-6, .cls-7 {
        stroke-width: 0px;
      }

      .cls-2 {
        fill: #316d63;
      }

      .cls-3 {
        fill: #fb1e37;
      }

      .cls-4 {
        fill: #38061d;
      }

      .cls-5 {
        fill: #fefefe;
      }

      .cls-6 {
        fill: #00c2e9;
      }

      .cls-7 {
        fill: #cad67d;
      }
    </style>
  </defs>
  <path class="cls-1" d="M32.8,15.3c.6.9,1.1,2,1.7,2.9-.6,1.4-1.2,2.6-2.4,3.5-1.2-.6-2-1.5-2.7-2.6.3-1.4,2-4.4,3.5-4v.2Z"/>
  <path class="cls-4" d="M81,22.3c2,2.3,2.6,5.2,4.3,7.6,2.9,0,6.1,0,9,.5,7,2,11.7,8.2,12.9,15.2.5,3.5-1.2,6.1-2.3,9.3,0,1.8,1.4,3.7,1.8,5.3,2.3,7.9-.8,17.2-8.2,21.2-.9,2.7-.9,5.5-2.3,8.2-2.9,6.5-10.2,10.7-17,11-2.7,0-5.5-1.2-8.2-1.8-1.2.8-2.4,1.5-3.7,2.3l-1.2.8c-6.5,2.6-13.8,1.7-19.3-2.9-3.3-2.1-3.3-6.1-7.8-6.5-4.1-.6-7.8-2.9-10.2-6.2-2.1-3-2-6.5-5.3-8.8-4.3-3.7-5.3-9-4.6-14.3,0-5.5,4.4-9.4,8.1-12.9-.8-2.7-1.2-5.3-.9-8.2,1.2-9.6,10.2-17.3,19.9-16.6,3.5.5,3.7-1.7,5.5-4,7.8-8.4,22.2-7.9,29.4.9l.2.2Z"/>
  <path class="cls-6" d="M80.1,26.9c.9,2.1-.3,6.1,1.7,7.5.6-.2,1.4-.5,2-.6,1.1,1.1,2.7,4.3,4.6,3.2.6-1.4-1.8-3-2.3-4.3h1.1c2.7,1.4,5.8,1.8,8.5,3.3-.6-1.4-1.4-2.3-2.4-3.3,3,.6,5.8,2.7,7.6,5.2.8,3.2,1.7,6.4,2.3,9.6-1.5-.5-2.1-1.8-4-2-3.2-.2-3.7-2.6-4.9-5v-3h-2l-.6.8c-.8,1.8-1.2,4-2.3,5.6-1.2,1.2-2.7,2-4.1,3v1.8c-.3,2.3,2.6,2.7,4.3,2.7l.5.9.6,1.4.3,1.1c.2,1.4.8,2.4,1.5,3.3,1.4.2,2.7-1.8,3.8-2.6-.2-1.1-.5-2.3-.8-3.3.9-.3,1.8-.6,2.6-1.1.8.3,1.5.8,2.1,1.2-.6,1.4-2.1,1.7-2.4,3.3.6.9,1.4,1.8,2.1,2.7-.3.8-.5,1.4-.8,2.1-1.1,1.1-1.7,3-2.7.6-2.9.5-5-.6-7.6.8-3.8,2-7.2,2.9-11.4,1.1.6-3.2,4.1-3.2,4.9-6.4.2-1.4.6-3.5-.6-4.4l-1.4-1.2c-1.7-4.6-8.1-1.4-11-3.3.6-1.1.3-2-.8-2.6-1.1-1.5-2.1-2.9-3.8-3.8-1.5-.8-3.2-.6-4.9.2-3.7,1.1-4.9,3.8-6.1,7.2h-2.1c-3.8,0-6.5-.5-9.6,2.4-1.1.5-1.4,1.2-1.1,2.4v2.1c0,2.4,1.4,4.1,2.4,6.1-1.4,4.3-7.2,1.7-9.6,4.4-2.9,1.8-2.6,5.2-1.1,7.9l.3.6c-.8.5-1.5.9-2.3,1.2-2.3-1.8-2.7-2.6-2.9-5.5-.5.5-.9.9-1.2,1.5-2.1-1.1-3.2-4.9-2.9-7.3-.9-.5-1.7-1.1-2.4-1.7.3-2.9,2-5.6,3.5-7.9,1.5-2.7,6.5-3.2,7.8-6.2v-.8l-.9-.2c.8-2,1.7-3.5,1.4-5.6,1.1-1.1,2.3-2,3.3-3,1.7.8,2.7.5,3.7-.8,2-1.2,3.3-3,5-4.6,2.3-2.1,5.9-1.7,8.1.6,0,1.4.9,1.8,2.3,1.5h1.1c.6,1.8,2.7,2,3.5,0,.8-.5,1.7-.9,2.4-1.4,1.5.3,2.1,0,2.1-1.4l.3-2.1c1.8-.8,1.7-2.6.2-3.7-2.1-3.8-5.9-4.1-9.9-4.4-1.1-.6-1.2-1.2-.3-1.8,1.8-2,4-2.6,6.5-2.9-1.1.9-3.8,1.8-3.5,3.3,2.6.2,4.9,0,7.5-.6,2.1-.6,4.3.5,6.5.3-.9-4.4-5.9-1.1-8.5-3.3,6.7-2,14.2,2.4,16.6,8.8l.2.2Z"/>
  <path class="cls-5" d="M61.6,18.5l2-.3c2.6,2.3,7.6-1.1,8.5,3.3-2.3.2-4.4-.9-6.5-.3-2.6.8-4.9.9-7.5.6-.3-1.5,2.6-2.6,3.5-3.3Z"/>
  <path class="cls-1" d="M93.8,19.8c1.2-.9,3.3-.2,2.3,1.5-1.1,1.4-3.2,0-2.3-1.5Z"/>
  <path class="cls-7" d="M13.2,23.3c1.4,0,1.5,3.3,2,4.4-1.5.6-2.9,1.4-4.4,1.8l-.6-.8c.9-2,1.5-3.8,2.9-5.5h.2Z"/>
  <path class="cls-1" d="M55.5,23.3c4,.3,7.8.6,9.9,4.4-.5,1.2-.6,2.4-.2,3.7l-.3,2.1c-1.2-.3-1.8.2-2.1,1.4-.8.5-1.7.9-2.4,1.4-1.1-.3-2.3-.5-3.5,0h-1.1c-.3-1.1-1.1-1.7-2.3-1.5-2.1-2.1-5.8-2.7-8.1-.6-1.7,1.7-3,3.3-5,4.6-1.7-.9-2.9-.6-3.7.8-1.1,1.1-2.3,2-3.3,3-1.4-.6-2.7-1.2-4-1.8.5-4.4,2.9-6.7,6.2-9.3-.5,1.4-1.8,3.2-1.2,4.7.8,0,1.5-.5,2.1-1.2,1.2-.9,2.6-.9,3.7-2.1.8,0,1.5.3,2.1.3.8-1.4,1.1-2.7,1.4-4.3-1.2,0-2.4-.2-3.7-.2,4.9-1.5,9,.8,12.9-3.2,1.2,2.9,5.3,1.4,2.6-1.4v-.8h-.2Z"/>
  <path class="cls-5" d="M55.6,24.2c2.7,2.7-1.4,4.1-2.6,1.4.6-.6,1.5-1.1,2.6-1.4Z"/>
  <path class="cls-1" d="M104.2,25.2c1.7,1.2.6,2.3-.5,3.5-1.1,0-2-.5-3-1.1.6-1.7,1.4-4,3.5-2.4Z"/>
  <path class="cls-1" d="M15.3,27.7c1.1.9,4,1.2,3,3.2-.9.6-1.8,1.1-2.7,1.5-.3-1.5-2.9.3-3.8.3-1.1-.5-2.1-1.1-3.2-1.7-.2-.9.3-1.7,1.7-2.3l.6.8c1.5-.5,2.9-1.2,4.4-1.8Z"/>
  <path class="cls-2" d="M65.2,27.8c1.5,1.1,1.7,2.9-.2,3.7-.5-1.2-.3-2.4.2-3.7Z"/>
  <path class="cls-5" d="M40.1,28.6c1.2,0,2.4,0,3.7.2-.3,1.5-.6,2.9-1.4,4.3-.8,0-1.5-.3-2.1-.3-1.1,1.2-2.4,1.2-3.7,2.1-.6.8-1.4,1.2-2.1,1.2-.6-1.4.8-3.3,1.2-4.7l1.1-.9c1.1-.8,2.3-1.4,3.5-1.8h-.2Z"/>
  <path class="cls-6" d="M36.6,30.4l-1.1.9,1.1-.9Z"/>
  <path class="cls-7" d="M68.7,30.4h.9l.5.9-.5.9h-.9l-.5-.9.5-.9Z"/>
  <path class="cls-3" d="M15.6,32.4c-1.1,1.1-1.1,4.4-2.4,4.6-1.1-1.2-1.1-2.6-1.4-4.3.9,0,3.7-1.8,3.8-.3Z"/>
  <path class="cls-5" d="M86.1,32.7c.5,1.2,2.9,3,2.3,4.3-1.8,1.1-3.5-2.1-4.6-3.2.8-.5,1.5-.8,2.3-1.1Z"/>
  <path class="cls-5" d="M87.1,32.5c2-.2,4,0,6.1,0,1.2,1.1,2,1.8,2.4,3.3-2.7-1.5-5.8-2-8.5-3.3Z"/>
  <path class="cls-2" d="M64.8,33.6c0,1.2-.6,1.7-2.1,1.4.2-1.2.9-1.7,2.1-1.4Z"/>
  <path class="cls-5" d="M76,34.7c-.6,1.1-1.1,2.1-1.7,3.3-.6-.3-1.4-.6-2-.9l-.5-.9c1.2-.8,2.6-2.6,4.1-1.4v-.2Z"/>
  <path class="cls-2" d="M53.4,34.7c1.2-.2,2,.3,2.3,1.5-1.4.3-2.1-.2-2.3-1.5Z"/>
  <path class="cls-1" d="M76,34.7c.8.5,1.5.9,2.3,1.4-.8,1.5-1.7,3-2.7,4.4l-.9.5c-.5-1.2-1.4-1.8-2.7-1.5l.3-2.4c.6.3,1.4.6,2,.9.6-1.1,1.1-2.1,1.7-3.3l.2.2Z"/>
  <path class="cls-5" d="M89.9,35.3h.9l.5.9-.5.9h-.9l-.5-.9.5-.9Z"/>
  <path class="cls-2" d="M56.7,36c1.2-.3,2.3-.3,3.5,0-.8,1.8-2.9,1.7-3.5,0Z"/>
  <path class="cls-2" d="M71.9,36.2l.5.9-.3,2.4c-1.8-.5-1.7-2.6-.2-3.3Z"/>
  <path class="cls-3" d="M78.3,36c1.7.6.9,3.3.5,4.6h-3.2c1.1-1.4,1.8-2.9,2.7-4.4v-.2Z"/>
  <path class="cls-1" d="M92.3,37.4h1.1c.3,2.3-.3,2.6-1.7.8l.6-.8Z"/>
  <path class="cls-7" d="M93.4,37.4h.9v3.2l-.9.3c-1.5.3-1.8,1.4-.9,3.3-1.2,1.5-2.3,2.7-4,3.8h-3.2v-.9c1.4-1.1,2.9-1.8,4.1-3,1.1-1.7,1.5-3.8,2.3-5.6,1.4,1.7,1.8,1.4,1.7-.8v-.3Z"/>
  <path class="cls-2" d="M40.3,38.6c-.8,1.2-2,1.5-3.7.8.6-1.4,1.8-1.5,3.7-.8Z"/>
  <path class="cls-1" d="M49.7,40.9c-1.2.3-2.4.8-3.5,1.4-3.5-2.6,3.3-5.9,3.5-1.4Z"/>
  <path class="cls-3" d="M72.1,39.4c1.4-.3,2.3.3,2.7,1.5l-.5,1.1c-1.7,0-2.4-.8-2.3-2.6Z"/>
  <path class="cls-7" d="M29.3,40.6c1.4.6,2.6,1.2,4,1.8.3,2.1-.6,3.8-1.4,5.6-2.3-2-3.7-4.6-2.6-7.5Z"/>
  <path class="cls-3" d="M49.7,40.9c.8,2.3-2.3,3.3-3.5,1.4,1.1-.6,2.3-1.1,3.5-1.4Z"/>
  <path class="cls-5" d="M65.1,41.5h-2c.2,1.1.3,1.8.5,2.7-.6,1.1-2.6,1.2-3.8,1.8-1.7,2.4-2,5.3-4.6,7.2-2.3-.2-4.4-1.2-6.7-1.1-1.5.5-3,1.1-4.6,1.5.6-1.2,1.4-2.3,2.4-3.2,2.7-1.1,6.1,1.4,8.7.6,1.5-3.3,2.7-6.4,5-9.4,1.5-.8,3.2-1.1,4.9-.2h.2Z"/>
  <path class="cls-4" d="M74.8,41.1l.9-.5c1.1,0,2.1.2,3.2,0-.2,1.7-3.8,3.7-4.6,1.4l.5-1.1v.2Z"/>
  <path class="cls-5" d="M93.4,40.9c.6,1.7.3,2.7-.9,3.3-.8-2-.5-3,.9-3.3Z"/>
  <path class="cls-1" d="M93.4,40.9l.9-.3c1.2,2.4,1.7,4.7,4.9,5,.5.8.8,1.5,1.1,2.1-3.7,0-5,1.8-7,4.4-1.7-1.2-2.9-3-4.7-4.3,1.7-.9,2.7-2.3,4-3.8,1.2-.6,1.5-1.7.9-3.3v.2Z"/>
  <path class="cls-2" d="M41.3,43.2h-2.3c.9-2,1.7-1.8,2.3,0Z"/>
  <path class="cls-1" d="M60.2,41.8c-2.3,3-3.3,6.1-5,9.4-2.6.8-5.9-1.8-8.7-.6-1.2.8-1.8,2-2.4,3.2,1.5-.5,3-1.1,4.6-1.5,2.3,0,4.4.9,6.7,1.1,2.4-1.7,2.7-4.7,4.6-7.2,1.1-.6,3.2-.8,3.8-1.8,0-.9-.3-1.7-.5-2.4h2c1.5.8,2.6,2.3,3.8,3.7-.6,1.2-.3,2.1.8,2.6,2.9,2.1,9.3-1.2,11,3.3-.6,1.4-.2,2.1,1.1,2.3v1.1c-.6,3.2-2.3,4.1-5.6,6.2.5.6.9,1.8,1.5,2.4-.9,0,1.4,2.7.5,2.9.2.6.2,1.4,1.1,1.7-.5,1.2.9.9-.5,1.2-.8-2.1-.3.5-.9,2.3-.8,2.3-10,2-12,2.3-.6,1.2-1.4,1.1-2,2.3-1.2-1.1-2.4-2.6-3.8-3-1.7-.9,1.8,4,1.8,2.4-1.8,0-.8-1.5-2.4-.9.2,2.7-3.3,17.5-8.1,0-.3.6-.5-1.8-1.1-1.4-.9-1.5-5-6.8-2.9-8.4-.2-1.7.9-3,2-4.6-2.7-2.1-5.5-2.6-6.5-6.4v-2.3c3-2.9,5.8-2.4,9.6-2.3.9,2,1.7,1.8,2.1,0,1.1-3.3,2.4-6.1,6.1-7.2l-.5-.5Z"/>
  <path class="cls-7" d="M80.6,42.3c.8-.2,1.5.3,2,1.2,1.1,2.4-3,3.2-3.5.9,0-.9.6-1.7,1.4-2.1h.2Z"/>
  <path class="cls-1" d="M14.5,43.6c1.4-.5,1.4,3.2,1.8,4.1-1.7,1.7-2.9,5.3-5.6,2.7,3-1.5,3-4,4-6.8h-.2Z"/>
  <path class="cls-3" d="M38,43.3v.8h.9v-.8h2.4l.3.9c-.3.9-.8,1.8-1.5,2.3-1.2-.3-2.3-.6-3.5-1.1,0-1.5.5-2.1,1.4-2.1Z"/>
  <path class="cls-5" d="M38,43.3h.9c0-.2,0,.6,0,.6h-.6l-.2-.6h-.2Z"/>
  <path class="cls-4" d="M41.6,44.3c.9,1.7.5,3-1.5,3.7-2,.3-2.7-.8-3.5-2.4,1.2.5,2.3.8,3.5,1.1.6-.6,1.2-1.4,1.5-2.3Z"/>
  <path class="cls-2" d="M68.7,45.5c1.1.6,1.4,1.4.8,2.6-1.2-.5-1.4-1.2-.8-2.6Z"/>
  <path class="cls-2" d="M99.2,45.6c1.8,0,2.3,1.5,4,2l1.7.5c-.3.5-.9.9-1.4,1.4.6,2.7-.8,4.4-1.8,6.7,4.4,5.2,4.7,11.9,1.4,17.7-.5-2.6-2.1-3.3-4-4.7-1.1-3-1.5-3.7-4.4-5-1.4-1.5-3.7-1.7-4.9,0-3.8.5-6.4,2.9-10.3,2.1l-.5.6c-.3-1.2-.8-2.4-1.2-3.5,4.1,1.8,7.5.8,11.4-1.1,2.4-1.4,4.7-.3,7.6-.8,1.1,2.4,1.7.5,2.7-.6-.5,1.4-.2,2.1,1.1,2,.6-1.1.2-1.7-1.1-2,.3-.8.5-1.4.8-2.1-.8-.9-1.5-1.8-2.1-2.7.2-1.7,1.7-2,2.4-3.3-.6-.5-1.4-.9-2.1-1.2-.9.3-1.8.6-2.6,1.1.6-2.7,4.3-2.4,4.7-4.6-.3-.8-.6-1.5-1.1-2.1l-.3-.2Z"/>
  <path class="cls-1" d="M16.4,47.8c1.2,1.8,3.8,2.6,4.6,4.4-4,.8-4.1,1.5-5,5.2-.5-1.8-.8-3-2.7-3.7-1.4-.6-2.9-1.1-4.3-1.7.3-.8.9-1.2,1.7-1.7,2.7,2.6,4.1-1.1,5.6-2.7l.2.2Z"/>
  <path class="cls-1" d="M31.9,48.1h.8v.9l-.9-.9h.2Z"/>
  <path class="cls-3" d="M85.3,47.9h3.2c1.8,1.1,3,3,4.7,4.3,2.1-2.6,3.3-4.6,7-4.4-.6,2.1-4.1,2-4.7,4.6-.6,1.4-1.4,2.6-2.1,3.8-.9-.5-1.7-.9-2.6-1.2l-.3-1.1-.6-1.4-.5-.9c-.6-2-2.4-2.6-4.3-2.7v-.9h.2Z"/>
  <path class="cls-2" d="M52,49.1h2.1c-.6,1.8-1.2,2-2.1,0Z"/>
  <path class="cls-2" d="M85.3,48.8c2,0,3.7.6,4.3,2.7-1.7,0-4.6-.5-4.3-2.7Z"/>
  <path class="cls-7" d="M76.6,50.2c-.3,2.4-5.8,1.7-7.6,2.3,0-2.4,5.9-2.4,7.6-2.3Z"/>
  <path class="cls-1" d="M113.8,50.6c1.7,1.5,2.9,3.7,4.3,5.5-1.2,1.8-2,4.1-3.5,5.6.6-1.5.2-4.4-1.7-2-.9-1.2-1.8-2.3-2.7-3.7,1.7-2,3.2-2.7,3.5-5.5h.2Z"/>
  <path class="cls-2" d="M42.4,51.4v2.3h-1.1c-.3-1.2,0-2,1.1-2.4v.2Z"/>
  <path class="cls-3" d="M80.4,51.4l1.4,1.2-.3,1.1c-1.2-.2-1.7-.9-1.1-2.3Z"/>
  <path class="cls-5" d="M33,52.6c-.6,3.2-4.4,3.8-6.8,4.4,0-3.3,4.3-4.1,6.8-4.4Z"/>
  <path class="cls-2" d="M82,52.6c1.2.9.8,3,.6,4.4-.8,3.2-4.3,3.2-4.9,6.4-.3-.8-.5-1.7-.6-2.4,1.8-2.4,4.7-2.3,4.6-6.2v-1.1l.5-1.1h-.2Z"/>
  <path class="cls-4" d="M90,52.5l.6,1.4-.6-1.4Z"/>
  <path class="cls-4" d="M95.4,52.3c.3,1.1.6,2.1.8,3.3-1.1.8-2.4,2.7-3.8,2.6-.8-.9-1.4-2-1.5-3.3.8.5,1.7.9,2.6,1.2.8-1.2,1.4-2.6,2.1-3.8h-.2Z"/>
  <path class="cls-3" d="M13,53.8c2,.5,2.4,1.8,2.7,3.7l-.5,1.7-1.4-.5c.5-1.2.2-2.1-.9-2.7v-2.1Z"/>
  <path class="cls-3" d="M81.5,54.8c-.6,2.6-.8,2.7-5.6,5.8,4.9,11.1.2,12.8-6.7,12.3-6.8-.5-6.1-3.2-6.8-3.5-.6,1.1-5.5,4.7-7.3,4.7-8.1,0-10-9.3-6.1-14-2.6-2.1-5.5-2.6-6.5-6.2h-1.1v2.3c1.4,2.1,3.2,4,4.6,6.1-1.8,4-5.6,3.8-9.3,4.9l-1.4.6c-.8.6-1.5,1.2-2.1,1.8-.5,1.5.8,3.7-.3,4.9l.3.6.6.3c-.6,4-1.5,4.4-5.2,5.8.8,2,1.5,3.8,4,4.1.5.8,1.1,1.4,1.7,2.1.6,0,1.2,0,1.8.2,1.5,1.8,1.8,2.1,4.3,2.3,3.8,0,4.4,3.2,5.9,6.1.6-.3,1.2-.9,2-1.7.9,1.1.5,2.3.9,3.7,1.4,2,3.8,1.7,5.9,2.3,2.6.5,5,1.2,7.3-.3,1.2-.9,4.4-.3,4.4-2.1-3.3-.3-6.1-.6-8.1-3.7-1.2-1.4-1.8-3-2.4-4.9-1.8-.6-1.8-2.7,0-3.3v-.9c-1.4-2.1,2.3-4.9,2.9-7,2.7.8,4.1.6,6.8-.3,4.1.5,3,6.8,6.8,5.5.6-3.3-2.4-7.8-4.3-10.2,1.2-1.7,2.7-.2,4.4,0,1.7.3,3.3-1.5,4.7-2.3-.5-1.2,0-2,1.1-2.4l-.3-.9c-.3-1.2-.8-2.4-1.2-3.5-.3-.8-.5-1.7-.6-2.4,1.8-2.4,4.7-2.3,4.6-6.2l.3-.3Z"/>
  <path class="cls-7" d="M13.2,56c1.1.6,1.4,1.5.9,2.7-1.1-.5-1.4-1.4-.9-2.7Z"/>
  <path class="cls-2" d="M41.5,56c1.4,2.1,3.2,4,4.6,6.1-1.8,4-5.6,3.8-9.3,4.9h-.8l-.6.6c-.8.6-1.5,1.2-2.1,1.8-.5,1.5.8,3.7-.3,4.9-1.5-2.6-1.8-6.1,1.1-7.9,2.6-2.7,8.4-.2,9.6-4.4-1.1-2-2.3-3.7-2.3-6.1l.2.2Z"/>
  <path class="cls-3" d="M62.6,56.1c1.7,1.5,3.7,2.9,4.9,4.7-2.3,1.7-2.4,3-2.7,5.8-1.7.3-3.3.5-5,0-.8-2.1-1.5-3.8-2.9-5.6,1.8-1.7,3.8-3.2,5.8-4.7v-.2Z"/>
  <path class="cls-5" d="M25.2,58.6c2.3.2.6,3.2-1.1,2.1-.5-.9,0-1.7,1.1-2.1Z"/>
  <path class="cls-1" d="M34.2,58.9c0,2.7-1.1,2.4-3.2,3-.6-3.5.3-3.2,3.2-3Z"/>
  <path class="cls-4" d="M34.2,58.9h.8c2.4,2.9-2.9,6.7-4,3,2.3-.6,3.2-.3,3.2-3Z"/>
  <path class="cls-3" d="M84.1,58.9h.9l.5.9-.5.9h-.9l-.5-.9.5-.9Z"/>
  <path class="cls-3" d="M114.5,61.8c-.8,0-1.4-.6-1.7-2,1.8-2.4,2.3.5,1.7,2Z"/>
  <path class="cls-6" d="M99.2,60.8c1.4.3,1.7.9,1.1,2-1.2,0-1.7-.6-1.1-2Z"/>
  <path class="cls-7" d="M94.6,64c-1.5.6-3.2.6-4.9,0,1.2-1.8,3.5-1.5,4.9,0Z"/>
  <path class="cls-1" d="M89.7,64.2c1.7.5,3.3.5,4.9,0,3,1.2,3.3,2,4.4,5-.6.5-1.1.9-1.5,1.4v1.8c-1.1.8-2.1,1.4-3.2,2.1,0,3.2-2,4.6-3.7,7.2l-1.2-.9c.8-1.5,2.1-2.9,2.6-4.6-2,.8-3.2,2.3-4.4,4-.8-1.2-.6-2.3-.6-3.7-1.4-2-4.3-2-4.4.9-1.4-1.8-2.7-3.3-4.6-4.9v-2.1c1.4-.5,1.7-1.4,1.1-2.4l-.3-.9.5-.6c4,.9,6.5-1.5,10.3-2.1l.2-.2Z"/>
  <path class="cls-7" d="M36,67.1h.8l-1.4.5.6-.5Z"/>
  <path class="cls-3" d="M67.5,67.1h.9l.5.9-.5.9h-.9l-.5-.9.5-.9Z"/>
  <path class="cls-1" d="M7.9,70.1c-.9,1.8-3.7.9-3.8-.8,1.2-2,3.7-1.5,3.8.8Z"/>
  <path class="cls-6" d="M79.1,67.8c.6,1.2.2,2-1.1,2.4-.5-1.2,0-2,1.1-2.4Z"/>
  <path class="cls-5" d="M89.1,68.6h0Z"/>
  <path class="cls-6" d="M21.5,69.4h.6v.6h-.6v-.6Z"/>
  <path class="cls-7" d="M39.5,70.3c-.9.9-1.8,1.2-3,1.1.5-1.7,1.8-2.9,3-1.1Z"/>
  <path class="cls-2" d="M91.9,70.3l-1.1-.3c.5-1.1.9-.9,1.1.3Z"/>
  <path class="cls-3" d="M99,69.1c2,1.4,3.7,2.1,4,4.7-1.8,2.9-4.6,4.1-7,6.2-2,2.4,0,4.6-1.4,7-1.1,1.8-1.1,4-3.3,4.6-.5-1.2-1.2-2.3-2.1-3.2-1.4-1.1-.9-2.7-1.5-4.4v-.8c.5-.9,1.2-1.7,1.7-2.7l1.2.9c1.5-2.4,3.7-4,3.7-7.2,1.1-.8,2.1-1.5,3.2-2.1v-1.8c.5-.5,1.1-.9,1.5-1.4l.2.2Z"/>
  <path class="cls-1" d="M39.5,70.3c1.4,1.4,0,3.5-1.7,3.7-1.5-.3-2.6-1.2-1.4-2.6,1.2.2,2.1,0,3-1.1Z"/>
  <path class="cls-4" d="M46.4,70.6c1.7-1.1,3.3,2,1.1,2.1-1.2-.5-1.5-1.2-1.1-2.1Z"/>
  <path class="cls-4" d="M78,70.3v2.1l-.2,1.1c-1.7.5-3.5.6-5.2.9-.9,1.1.5,2.6.8,3.7,1.1,1.8.6,3.8.5,5.9-1.5.3-3.2.6-4.3-.8-.8-1.1-.9-3.2-2.3-3.7-1.8.6-4.1.6-3.7,3.2,1.1,0,2.1-.2,3.2-.3l.3,1.8h-4.4c0-1.4,0-2.4-.5-3.5-3.5-2-4.3,1.8-5.9,4-1.2-2.1,2.3-4.9,2.9-7,2.7.8,4.1.6,6.8-.3,4.1.5,3,6.8,6.8,5.5.6-3.3-9-11-10.8-13.5,8.2,4.9,11,3.2,11,3.2,4.3-1.2,3.3-1.5,4.7-2.3h.2Z"/>
  <path class="cls-6" d="M86.7,70.6h.9c0-.2-.9.9-.9.9v-.9Z"/>
  <path class="cls-3" d="M87.4,70.4c1.1-.3,2.1-.5,3.3-.5l1.1.3v1.1c-1.2.3-2,1.2-1.8,2.6-1.1-.6-2.1-1.2-3.5-1.5v-.9l1.1-1.1h-.2Z"/>
  <path class="cls-6" d="M22.9,71.8c1.2-1.1,4.3,3,3.2,4.1-1.2.6-4-3-3.2-4.1Z"/>
  <path class="cls-4" d="M92,71.3c.5,1.7-.2,2.6-2.1,2.6,0-1.4.6-2.3,2.1-2.6Z"/>
  <path class="cls-4" d="M50,72.9q.4.4,0,0Z"/>
  <path class="cls-4" d="M52.3,72.9q.4.4,0,0Z"/>
  <path class="cls-4" d="M54.6,72.9c1.7-1.1,3.2,2,1.1,2.1-1.2-.5-1.5-1.2-1.1-2.1Z"/>
  <path class="cls-2" d="M78,72.4c1.8,1.4,3.2,2.9,4.6,4.9,1.4,1.7,1.2,3.7,1.5,5.6,1.8-.6,3-.8,3.5-2.9,1.2-1.7,2.4-3.2,4.4-4-.3,1.7-1.8,3-2.6,4.6-.6.9-1.2,1.8-1.8,2.7h-.6c0,.2.9.8.9.8.6,1.7.2,3.3,1.5,4.4.9.9,1.7,2,2.1,3.2-.3.9-.5,2-.8,2.9-2.6,1.7-5.5,2.7-8.4,3.7-3.5,1.1-6.5,0-9.9-.9.6-1.1,1.5-1.7,2.1-2.7-1.2-.2-2.6-.3-3.8-.3-1.8-.3-3.7,1.7-5.5,1.5-2.1-.6-4.1-1.4-6.2-1.7-1.2-1.4-1.8-3-2.4-4.9l.3-2.4c.6.6,1.4,1.1,2,.9,1.2-1.7,1.7-3,4-3.3l-.3.9c-1.4,1.7-1.4,3.3.9,4.3,2,1.2,3.3-.3,4.6-1.8-.2-1.1-.5-2.1-.8-3.3,2,1.8,4.6,1.7,6.8,3,1.5-1.1,2.6-2.7,4-4,1.1.3,2.1,1.1,3,1.7-.6-3,.8-5.6-.9-7.9-.8-1.4-1.7-2.6-2.6-3.8v-1.1h.3Z"/>
  <path class="cls-2" d="M86.5,72.4c1.2.3,2.4.9,3.5,1.5-1.2,2.3-3.8.6-3.5-1.5Z"/>
  <path class="cls-6" d="M77.9,73.6c.9,1.2,1.8,2.4,2.6,3.8,1.7,2.4.3,5,.9,7.9-1.1-.6-2-1.4-3-1.7-1.5,1.2-2.4,2.9-4,4-2.3-1.4-4.9-1.2-6.8-3l-.3-1.8c-1.1,0-2.1.2-3.2.3-.5-2.6,1.8-2.6,3.7-3.2,1.4.5,1.5,2.6,2.3,3.7,1.1,1.4,2.9,1.1,4.3.8.2-2,.6-4-.5-5.9-.3-1.1-1.7-2.6-.8-3.7,1.7-.3,3.5-.5,5.2-.9l-.3-.2Z"/>
  <path class="cls-5" d="M44.8,75.1l1.4.8c-1.8,1.5-3.5,3.2-5.2,5l-.8-1.2c1.1-1.8,2.6-3.5,4.4-4.6h.2Z"/>
  <path class="cls-4" d="M67.7,75.3q.4.4,0,0Z"/>
  <path class="cls-7" d="M86.8,76.2c0,1.4,0,2.4.6,3.7-.5,2.1-1.5,2.3-3.5,2.9-.3-2.1,0-4-1.5-5.6,0-2.9,2.9-2.9,4.4-.9Z"/>
  <path class="cls-7" d="M13.3,76.4c1.4,0,1.5,3.5,2,4.6-2,.8-4.3,3.3-6.1,1.1,1.5-1.7,2.7-3.7,4-5.6h.2Z"/>
  <path class="cls-1" d="M46.2,75.8c1.4,1.1,2.6,2.3,3.5,3.8-1.5,1.4-3,2.4-4,4.3-1.7-.2-3.3-2-4.7-3,1.5-1.8,3.3-3.5,5.2-5Z"/>
  <path class="cls-4" d="M57,76.5q.4.4,0,0Z"/>
  <path class="cls-1" d="M110,76.2c2.4,1.7,4.1,3.3,1.5,5.9-1.4-1.7-2-1.4-1.7.9-2.6-1.8-1.5-4.9.2-6.8Z"/>
  <path class="cls-2" d="M85.3,80q.4.4,0,0Z"/>
  <path class="cls-1" d="M15.3,80.9c.9.8,2,1.5,2.9,2.3-.6.9-1.5,1.7-2.4,2.4-1.4-1.1-4.4,0-6.2-1.2l-1.4-1.2,1.2-1.2c1.8,2.1,4.1-.3,6.1-1.1h-.2Z"/>
  <path class="cls-6" d="M62.5,80.9c.3,1.1.5,2.1.5,3.3-2.3.3-2.7,1.7-4,3.3-.6,0-1.4-.3-2-.9l-.5-.9v-.9c1.5-2.1,2.4-5.9,5.9-4Z"/>
  <path class="cls-3" d="M111.5,82.1l-1.7.9c-.3-2.1.3-2.4,1.7-.9Z"/>
  <path class="cls-4" d="M39.4,82.5c1.2-.5,4.1.9,2.7,2.4-1.5,1.4-3.2-1.1-2.7-2.4Z"/>
  <path class="cls-4" d="M48.8,82.5c2.1-.5.3,5-1.2,4-.6-1.2.3-3.2,1.2-4Z"/>
  <path class="cls-1" d="M86.7,83.5h.6c0-.2.2.6.2.6l-.9-.6h.2Z"/>
  <path class="cls-3" d="M9.5,84.6c2,1.2,4.9,0,6.2,1.2-.9,1.4-1.2,2.9-1.5,4.6-.6-.6-1.4-.9-2.3-1.2-.3-2-1.2-3.2-2.6-4.6h.2Z"/>
  <path class="cls-5" d="M62.8,84.3h2.1c-.5,1.4-1.4,1.7-2.6.9l.3-.9h.2Z"/>
  <path class="cls-1" d="M65.1,84.4h2.3c.3,1.1.6,2.1.8,3.3-1.2,1.4-2.6,2.9-4.6,1.8-2.1-.9-2.3-2.6-.9-4.3,1.2.6,2,.5,2.6-.8l-.2-.2Z"/>
  <path class="cls-1" d="M83.9,84.7c1.7-.9,3.3,2,1.1,2.1-1.2-.5-1.5-1.2-1.1-2.1Z"/>
  <path class="cls-4" d="M42.7,85.8h.9l.5.9-.5.9h-.9l-.5-.9.5-.9Z"/>
  <path class="cls-4" d="M45.1,86h.9l.5.9-.5.9h-.9l-.5-.9.5-.9Z"/>
  <path class="cls-4" d="M56.5,85.8l.5.9-.3,2.4c-1.8-.6-1.8-2.7,0-3.3h-.2Z"/>
  <path class="cls-6" d="M77.1,86.9h.6v.6h-.6v-.6Z"/>
  <path class="cls-7" d="M81.8,88.2q.4.4,0,0Z"/>
  <path class="cls-1" d="M85.3,88.2q.4.4,0,0Z"/>
  <path class="cls-1" d="M12,89c.9.2,1.7.6,2.3,1.2l-1.1,1.4c-1.1-.3-1.4-1.2-1.2-2.6Z"/>
  <path class="cls-1" d="M79.5,90.7q.4.4,0,0Z"/>
  <path class="cls-1" d="M106.2,92c1.1,1.7,1.8,2.4,0,4-3,.8-2.4-4.3,0-4Z"/>
  <path class="cls-4" d="M51.2,96.3c1.7-1.1,3.2,2,1.1,2.1-1.2-.5-1.5-1.2-1.1-2.1Z"/>
  <path class="cls-4" d="M54.7,97.7q.4.4,0,0Z"/>
  <path class="cls-4" d="M57,97.5c1.7-1.1,3.2,2,1.1,2.1-1.2-.5-1.5-1.2-1.1-2.1Z"/>
  <path class="cls-4" d="M60.7,97.7q.4.4,0,0Z"/>
  <path class="cls-7" d="M99.2,99.6c2.6,1.2,4.4,4.4,5.6,7-3.2.8-7,3.3-10,3.3-1.1-2.6,3.8-4.6,5.3-5.8-.2-2.1-1.8-1.5-3.3-1.5.2-1.5.9-2.4,2.3-3h.2Z"/>
  <path class="cls-6" d="M67.4,101.2l-1.2.8,1.2-.8Z"/>
  <path class="cls-7" d="M38.7,102.4c2.7,1.4.6,4.4,0,6.4-1.4.9-3.7-.5-5-.9.6-2.7,1.2-6.8,5.2-5.5h-.2Z"/>
  <path class="cls-6" d="M120.8,104.8q.4.4,0,0Z"/>
  <path class="cls-7" d="M85.3,105.9c2-.3,2.7,2.1.8,2.9-2,.3-2.6-2.3-.8-2.9Z"/>
  <path class="cls-7" d="M45,106.8c1.2.5,2,1.2,2.4,2.4-.5,1.2-1.2,2-2.4,2.4-1.2-.5-2-1.2-2.4-2.4.5-1.2,1.2-2,2.4-2.4Z"/>
  <path class="cls-7" d="M65.2,108.2c2.1-1.4,3.5,1.8.9,2.3-1.4-.3-1.7-1.2-.9-2.3Z"/>
  <path class="cls-7" d="M73.4,109.4c2.1.2.6,3.2-1.1,2.1-.5-.9,0-1.7,1.1-2.1Z"/>
  <path class="cls-4" d="M77.4,68.5c1.3-7.2-5-10.3-5-10.3,2.3-3.1,2.9-6.1,2.3-9-1.1-5.9-6.5-10.1-12.6-10.1s-9.5,1.8-12.1,5.4c-5.8,7.9.4,12.4.4,12.4,0,0-4.9,1.4-4.3,11.2.5,9.7,6.8,10.6,16,10.6s3.6-.4,5.2-.7c5.8-1.6,9.2-3.6,10.3-9.7l-.2.2Z"/>
  <path class="cls-5" d="M67,58.6c-.4.2-.7.4-.7.4,3.4,2,6.7,2.9,5.9,8.5s-3.6,5.9-6.7,7.4c-3.1-1.3-4.3-1.4-7.4,0,0,0-6.1,0-8.1-5.9s-.4-5.9.5-7.4c1.8-2.9,5-2.9,5-2.9,0,0-5-2.5-3.4-7.9s2.3-4.1,4.3-5.4,4-2,6.8-1.6c7.9.7,10.6,11.3,3.6,15.3v-.4Z"/>
  <path class="cls-4" d="M57.8,50c.4-.7,1.1-1.4,2-1.8,4-2,5.9.4,6.5,2.2.4,3.8-1.4,5.4-3.6,5.9-3.8.7-6.5-2.9-4.9-6.3s0,0,0,0Z"/>
  <path class="cls-2" d="M66.1,62.8c2.2,2.3,2.5,5.6-1.6,7.4s-4.7.9-6.8,0c-4-1.8-3.6-5-1.6-7.2s7.4-2.9,10.1,0v-.2Z"/>
  <path class="cls-1" d="M58.1,74.8c2.9-2.9,5.6-2.3,7.4,0-4.5,1.1-7.4,0-7.4,0Z"/>
</svg>