<?xml version="1.0" encoding="UTF-8"?>
<svg id="_Слой_1" data-name="Слой 1" xmlns="http://www.w3.org/2000/svg" version="1.1" viewBox="0 0 120 120">
  <defs>
    <style>
      .cls-1 {
        fill: #00caec;
      }

      .cls-1, .cls-2, .cls-3, .cls-4, .cls-5, .cls-6 {
        stroke-width: 0px;
      }

      .cls-2 {
        fill: #fbd093;
      }

      .cls-7 {
        stroke: #fff;
        stroke-miterlimit: 10;
        stroke-width: 2px;
      }

      .cls-7, .cls-4 {
        fill: #17052a;
      }

      .cls-3 {
        fill: #0068a3;
      }

      .cls-5 {
        fill: #feffff;
      }

      .cls-6 {
        fill: #d1273d;
      }
    </style>
  </defs>
  <path class="cls-5" d="M0,0h120v120H0V0Z"/>
  <path class="cls-4" d="M62,3.1c3.8,1.1,4.4,4.3,6.9,7,3.7,1.6,8.3.4,10.1,5,.1,4.4-5.7,5.7-5,9.9.2,2.1.4,4.1.8,6.2,0,.9.6,1.5,1.4,1.8,3.8,1.6,6.8,3.1,8.6,7l.5.6c1.5,2.2,4.2,4.2,5.1,6.8,1.1,6.8,4.7,11.2,1.5,18.3l-1,1.4c-.8,2.3-.9,4.7-1.7,7l-.5.5c-.8.8-1.7,1.6-2.6,2.5l-.5.7c-1.3,1.9-2.1,3.8-4.5,4.5-4.2,1.1-6,4.9-10.4,5.5h-.8c-.5-.8-1.2-1.1-2.3-.8l-2-.2-.2-.4-.4.6-.7.2c-.9.2-1.8.4-2.7.6l-.8-.5h-1.9c-1.1-.4-2.2-.8-3.2-1.1h-1.8c0-.1-.9,0-.9,0l-1.8.2c-2.2-.7-3.7-2.1-5.4-3.6-2.9-1.4-5.6-2.3-7.6-5l-.2-.8c-.6-2.7-2.6-3.9-4.1-6-1.1-1.8-1.2-4.2-1.3-6.2.2-1.2.2-2.5.3-3.7l-.8-1.4-.4-.7c0-3.5-.4-6.6,1.7-9.6,1.8-2.7,1.8-6.7,4.3-8.7,3.1-2.7,5.6-5.6,9.4-7.4l1.3-1c2.3-1.9,1.7-4.3,1.4-6.9.4-.7.8-1.4,1.2-2.1-1.1-1.1-2.3-2.2-3.3-3.3l-.4-.5c-.8-1-1.5-2.2-2.3-3.3.7-1.3,1.2-2.9,2.3-3.8,2.5-1.3,5.3-1.1,7.8-2.1,2.6-2.6,2.9-6,6.9-7Z"/>
  <path class="cls-2" d="M62.6,5.5c1.6,2.2,2.8,5.2,4.9,6.8,3,.7,5.9.5,8.6,2.3-1.1.1-2.2.2-3.3.4-1.2,2.2-3.2,3.4-4.7,5.2-.6,1.3-.8,2.9-1.1,4.3-3.8-.5-6.3-.5-9.9,1-.5-1.2-1.1-2.3-1.7-3.5-.8,1.8-1.7,3.5-2.8,5.2.1-2,.3-4.1.4-6.1-1.6-2-5.2-4.2-5.1-7,1.3-.5,2.7-.9,4-1.3-.2.7-.5,1.3-.8,2,2.8.6,5.4,1.3,7.9,2.7,2.3-3.1,1.9-8,2.5-11.7l.9-.5Z"/>
  <path class="cls-5" d="M61.7,5.9c-.7,3.7-.2,8.6-2.5,11.7-2.5-1.3-5.2-2-7.9-2.7.2-.7.5-1.3.8-2,.9,0,1.9,0,2.8-.1,1.1.4,1.8.2,2.1-.8,1.2-2,2.5-5.2,4.8-6.1Z"/>
  <path class="cls-2" d="M57,12c-.3,1-1,1.2-2.1.8.5-1,1.2-1.3,2.1-.8Z"/>
  <path class="cls-6" d="M72.8,15.1c1.1-.2,2.2-.3,3.3-.4l.9.4c-1.2,2.9-3.6,4.2-5.7,6.4-.9,2.6,2,7.7-.6,9.4-3.1.7-6.4-3.3-9.5-2.8-3,1-4.6,3.4-8,2.9-.4-1.2-.7-2.3-.5-3.6,1.1-1.7,2-3.4,2.8-5.2.6,1.1,1.2,2.3,1.7,3.5,3.5-1.6,6.1-1.5,9.9-1,.3-1.4.5-3,1.1-4.3,1.5-1.8,3.5-3,4.7-5.2Z"/>
  <path class="cls-4" d="M36.2,19c2.5-.1,2.8.3,4.2,2.3-1.2,0-2.3.1-3.5.3-.7,1.7-1.3,3.4-1.9,5.1-3-.6-5.4-1-8.3.3l-.8.3.2-.7c.5-1.1.8-3.2-1-3.2-1.4.6-1.2,2.2-.9,3.4v.8c-1,2.2-2.3,4.1-4.2,5.8.8-2.5,1.7-4.9,2.3-7.4l.2-.3v-.2c.2-1.8.8-4.9,3.3-4.2,2.7,1.8,4.6,2.5,7.8,2.8.8-1.7,1.6-3.3,2.6-4.9Z"/>
  <path class="cls-6" d="M47.2,19.4l.4.5-.4-.5Z"/>
  <path class="cls-4" d="M87.7,19c1,1.5,1.8,3.1,2.6,4.8,1.8-.2,3.6-.3,5.4-.2,1.6-1.1,2.7-3.1,4.9-2.5,2.4,2.5,1.1,7.9,4,10.3,1.7,1.9,4.8,2.3,7.1,3.1,0,.8.2,1.6.2,2.4-1.6.7-3.2,1.4-4.8,2.2.7,2.8,1.2,6,.6,8.8-1,2.1-2.1,3.6-1.9,6,2.2.9,4.5,1.6,6.7,2.6,1.7.8,1.2,1.9,1.4,3.5-2.2,1.3-4.6,2.2-7,3.2.4,1.4.4,3.2,1.3,4.4,1.4,1.2,2.8,2.3,4,3.6-1.3,1.2-2.8,2.3-4.3,3.2,1,2.2,2.7,4.4,3,6.8-.3,3.8-3,5.4-5.9,7.3,0,2.5-.1,5-.2,7.5-1.2,1.2-2.5,2.2-3.8,3.2-1.3-.7-2.6-1.3-3.9-1.9-.4.6-.9,1.3-1.3,1.9,2.3,2.9,5.4,5.5,3.8,9.6-1.6,2.2-3.6,4.8-6.6,4.5-21,0-42.1,0-63,0-5-.4-7.1-5.1-5.8-9.6,1.2-1.4,2.5-2.8,3.8-4.2-.7-.6-1.5-1.3-2.2-1.9-1.3.6-2.5,1.3-3.8,1.9-1.4-1.1-2.8-2-3.7-3.6-.5-2.3-.3-4.9-.4-7.3-2-1.4-4.3-2.5-5.3-4.9-1.8-2.7,1.3-6.5,2.3-9.1-1.5-1-3-2-4.3-3.2,1.6-1.6,3.3-3,5.2-4.2,0-1.2,0-2.5,0-3.7-2.6-1.6-5.2-2.5-7-5,2.3-2.5,5.4-2.5,8.4-4.2,0-1.8-.2-3.1-1.2-4.7-2-3.1-.3-7.3,0-10.7-1.4-.5-2.7-1-4-1.6,0-.8.2-1.7.3-2.5,1.3-.3,2.5-.7,3.8-1.1l1.2.6c-.8.8-1.6,1.5-2.4,2.3,1.5.7,2.9,1.3,4.4,2,.5,2.4,0,3.6-1.2,5.7-.8,1.3-1.1,2.3,0,3.6,2.3,2.7,2.4,4.8,1.3,8-1,.9-2.4,1.4-3.6,2,0,.8,0,1.6-.1,2.4,1,.1,2.1.3,3.1.4-.2,3-.4,5.9-.4,8.9-.6.4-1.3.7-1.9,1-1.2-.2-2,.2-2.4,1l1.3.8h.7c.8.7,1.6,1.3,2.4,1.9-.8,2.5-1.9,4.8-2.7,7.3.2,2.9,3,3,4.8,4.5,1,3.4.6,7,1.8,10.4,2-1.2,2.7-3,3.8-5,.7,2,1.5,3.6,3.2,5,2.6-.8,5.1-1.8,7.8-1.5,4.1.5,8.1.4,12.2.2-.3.7-.7,1.4-1,2.1h-1.1c-.2-.9-.8-1.2-1.9-.7l-.9.5h-1s-.6-.4-.6-.4v.4c-1.3,0-2.4,0-3.5,0-.2-.2-.5-.2-.8,0-1.9.3-3.6.2-5.3,1.2-2.4,1.5-4.1,3.9-6,6-1.9,2.3-.5,5.4,2,6.5.7.3,1.5.4,2.4.4h.8s2.1,0,2.1,0h.8s2.2,0,2.2,0h.8s2.2,0,2.2,0h3.8s2.2,0,2.2,0h3.1s.8,0,.8,0h2.2s.8,0,.8,0h1s.8,0,.8,0h2.3s.9,0,.9,0h2.2s.8,0,.8,0h4.2s.8,0,.8,0h1s.7,0,.7,0c.9,0,1.8,0,2.6,0h.7c4.9.9,10,.3,15,.5,2.8,0,5.8.4,8.4-.8l.8-.4.5-.5c.5-.7,1-1.5,1.4-2.2,1.4-.7,1.4-1.4,0-2-1.7-2.3-3.6-4.5-5.2-6.8-.4-1-1.1-1.3-2.1-.9-2-.2-4-.4-6-.6l-.5-.4-.2.4c-1.1,0-2.3.1-3.4.2l-.8-.6h-1.9s-1,.5-1,.5h-1.2s.5-1.7.5-1.7c4-.4,8.1.2,12.1-.4,2.9-.4,5.2.6,8.2,1.1,0-.9-.1-1.7-.2-2.6,1-.4,1.9-.8,2.9-1.3,0,.8,0,1.6.1,2.3,1.2-.4,2.5-.3,3.1-1.6,1.5-2.7.3-4.8-.3-7.5,2,0,3.5,1,5-.7,2.7-2.8.3-6.6-1.3-9.3.7-.7,1.4-1.3,2.2-1.9l-1-.9c0-.7.1-1.3.2-1.9-2.3-2.5-1.9-5.5-1.6-8.7.7-1.6,2-1.8,3.4-2.5-1.3-1.4-2.9-2.5-4.3-3.8-1.8-3.9-.5-6.9,1.1-10.5,1-1.9-.8-3.4-1.5-5.2,1.8-2,4-2.7,6.4-4.2-3.3-1.2-6.4-1.9-7.7-5.5-.9-1.7-1.2-5.5-3.1-6.1-.3,1.1-.7,2.2-1,3.3l-.2.7c-3-2.3-6.1-1.7-9.6-1.9-.5-1.6-1-3.2-1.6-4.8l-.9,1c-.7.9-1.2,1.8-1.7,2.8-.6-.4-1.2-.7-1.8-1,.3-.6.5-1.2.8-1.8,1.4-1.8,2-3.5,4.7-3.1Z"/>
  <path class="cls-3" d="M37,21.5c1.2-.1,2.3-.2,3.5-.3l.8,1.1v.5c-.1,0-.4.4-.4.4l.3-.4.5-.6c.8-.4,1.5-.7,2.3-1.1,2.1,1.1,3.6,2.3,5.1,4l-.5.3c-2.6,1.3-4.4,2-5.8,4.8-.4-.3-.9-.6-1.3-.9-2.3,1.7-1.8,3.8-2.2,6.2-.7-.4-1.4-.9-2.1-1.3-.1.9-.2,1.9-.3,2.8-2.7,1-5,2.5-7.4,3.9.4,1.2.8,2.5,1.3,3.7-.9,2.1-2.4,3.2-4.2,4.4.8.7,1.5,1.4,2.3,2.1-.3.7-.5,1.3-.8,2-.8,0-1.6.2-2.4.3l-.3.4c-.8,1.3-1.5,2.7-2.2,4,1,1.2,1.9,2.5,2.8,3.8l1.1,1.5c-1.3.8-2.7,1.1-4.2,1.5,1.5,1.7,3.1,3.3,4.2,5.4-1.5-.7-3-1.4-4.5-2.1-.1-1.7-.4-3.3-.8-5-1.6.9-1.2,1.3-1,3-.9,1-1.7,2-2.5,3,0-3,.2-5.9.4-8.9-1-.1-2.1-.3-3.1-.4,0-.8,0-1.6.1-2.4,1.2-.6,2.6-1.1,3.6-2,1.1-3.2,1.1-5.3-1.3-8,3.1-.4,2.4-2.7,0-3.6,1.1-2.1,1.7-3.3,1.2-5.7,4.4,2.3,4.2,6.1,6.5,9.9.8-3.2,1.4-6.9,4.2-9.2,2-1.3,4.2-2.1,6.2-3.5-2.2-.9-4.6-1.5-6.6-2.7-1.1-1.7-1.8-3.8-2.7-5.6,2.9-1.3,5.3-.9,8.3-.3.6-1.7,1.2-3.5,1.9-5.1Z"/>
  <path class="cls-3" d="M83.1,22.1c-.3.6-.6,1.2-.8,1.8.6.3,1.2.7,1.8,1l.7,1.1c-1.2,1-2.5,2-3.8,2.9-1.5-1.5-2.5-3.5-4-5,2.1-2.7,2.9-2.8,6.1-1.8Z"/>
  <path class="cls-3" d="M86.7,21.1c.6,1.6,1.1,3.2,1.6,4.8,3.5.2,6.6-.4,9.6,1.9-.4,1.5-1.1,2.9-1.9,4.2-.7-.7-1.4-1.4-2.2-2.1-1.3,1.8-2.5,3.1-2.4,5.5-.8-.1-1.6-.2-2.4-.2,1.6,2.5,5.5,1.9,7.2,4.8,2,2.4,2.1,5.5,3.7,8.1,1.2-3,1.7-6,3.7-8.4.7,1.7,2.5,3.3,1.5,5.2-1.5,3.6-2.9,6.6-1.1,10.5,1.4,1.3,2.9,2.4,4.3,3.8-1.4.7-2.7.9-3.4,2.5-.3,3.2-.8,6.1,1.6,8.7,0,.6-.1,1.3-.2,1.9-2.7-1.8-3-3.8-3.5-6.7-.6.2-1.1.3-1.7.5-1.5-.9-2.9-1.9-4.2-3,.7-1.3,1.3-2.6,2.2-3.8,1.5-1.5,1.2-3.2-1.2-2.8-.8-1.4-2.6-3.3-2.1-5,.7-1.1,1.5-2.2,2.3-3.3-1-.2-1.9-.5-2.9-.7.7-.9,1.3-1.7,1.9-2.6l-1.2-.2h-.5c0,0-1.4-.2-1.4-.2.2-4.8-3.6-6.8-7.6-8.2l-.5-1c.8-2.8,1.9-4.3,4.2-6.1-2.8-1.9-3.4-3.8-4.2-6.9l.9-1Z"/>
  <path class="cls-6" d="M41.2,22.4h.4c0-.1-.5.5-.5.5v-.5Z"/>
  <path class="cls-5" d="M85.8,22.1c.8,3.1,1.5,5,4.2,6.9-2.3,1.8-3.4,3.2-4.2,6.1-1.2-3.1-2.1-4.3-4.8-6.2,1.3-1,2.5-1.9,3.8-2.9l-.7-1.1c.5-1,1.1-1.9,1.7-2.8Z"/>
  <path class="cls-6" d="M25.2,23.3c1.8,0,1.5,2.1,1,3.2-.6,0-1.3.2-1.9.2-.3-1.2-.4-2.8.9-3.4Z"/>
  <path class="cls-6" d="M41.1,22.9l-.3.4.3-.4Z"/>
  <path class="cls-1" d="M76.9,23.8c1.5,1.5,2.5,3.5,4,5,2.7,1.9,3.7,3.1,4.8,6.2l.5,1c3.9,1.4,7.7,3.4,7.6,8.2l1.4.2h.5c0,0,1.2.2,1.2.2-.6.9-1.3,1.7-1.9,2.6,1,.2,1.9.5,2.9.7-.8,1.1-1.7,2.1-2.3,3.3-.5,1.7,1.3,3.6,2.1,5,.1,1.1.5,2.1,1.2,2.8-.8,1.2-1.5,2.5-2.2,3.8,1.4,1.1,2.8,2.1,4.2,3,.3.7.6,1.3.9,2-.5.8-1,1.6-1.6,2.4-1.8,0-3.5,0-5.2.2-.1,1.4-.2,2.9-.3,4.4-.5-.8-1.1-2.2-2.3-1.3-1.4,1.7,0,2.6,1.5,3.3.7.6,1.3,1.2,1.9,1.8-1.5.2-3.1.4-4.7.6,0,1.4-.2,2.8-.4,4.2-.5-.4-1-.8-1.5-1.1-1.1,1.8-2.2,3.6-3.4,5.3-.9,0-1.8,0-2.7,0-.3.6-.6,1.2-.9,1.8-1.4.4-2.9.7-4.2,1.3-.8.8-.9,2.1-1.6,3-2.5.2-4.9.3-7.4.5-4.8.5-8.8-1.1-13.5.6l-.7-.2c-2.3-.7-4.6-.9-7-.8-.5-1.1-.9-2.2-1.4-3.3-.5.4-1.1.7-1.6,1.1,0-.7-.1-1.4-.2-2.1-.5.4-.9.7-1.4,1.1-.5-.5-1-1-1.5-1.5.8-2.2-1-3.3-2-5.1-.7.6-1.3,1.3-1.9,2-.6-1-1.2-2-1.8-3-.2-.7-.3-1.4-.4-2.1,1-.2,1.9-.5,2.9-.7-.2-.8-.4-1.5-.6-2.3,2,2.7,4.7,3.6,7.6,5-.7.5-1.4,1-2.1,1.4,2.5.3,4.1,1.8,5.9,3.5.5-.5,1-.9,1.6-1.4l1.8-.2c-.3.5-.6,1.1-1,1.6,2.5.3,4.6,1.6,7,2.1,2.9,0,5.6-.7,8.5.2,1.4-.5,2.8-1,4.2-1.5l-1-.7c4.4-.6,6.2-4.3,10.4-5.5,2.4-.7,3.2-2.6,4.5-4.5,1,2.2,2.8-.5.5-.7.8-.8,1.7-1.6,2.6-2.5-.1,1.1,1.5,3.4,2.2,1.6,0-1-.7-1.8-1.7-2.1.7-2.3.9-4.7,1.7-7,.5,1.5,1.3,1.4,2.6,1.9,0-.8,0-1.7,0-2.5.9.7,1.7,1.4,2.6,2.1.2-1.5,1.7-3.4-.2-4.3-1.8-.3-2.6.2-3.9,1.4,3.2-7.1-.4-11.5-1.5-18.3-.9-2.6-3.6-4.5-5.1-6.8.8.3,1.7.6,2.5.9.7-.7,1.5-1.3,2.2-2-.7-.5-1.3-1.1-2-1.6-1.1.7-2.1,1.4-3.1,2.1-1.8-4-4.8-5.4-8.6-7,1.6-1.1,0-2.5-1.4-1.8-.4-2.1-.6-4.1-.8-6.2.6.1,1.1.3,1.7.4.4-.5.8-1.1,1.2-1.6Z"/>
  <path class="cls-6" d="M79.2,24.3q.5.5,0,0Z"/>
  <path class="cls-6" d="M99.1,23.8c1.9.7,2.2,4.4,3.1,6.1,1.3,3.6,4.4,4.4,7.7,5.5-2.3,1.4-4.6,2.2-6.4,4.2-2.1,2.4-2.5,5.4-3.7,8.4-1.6-2.6-1.7-5.6-3.7-8.1-1.6-2.9-5.6-2.3-7.2-4.8.8,0,1.6.1,2.4.2,3.7,1.9,6.7.5,10.4-.2-1-2.9-1.5-5.8-2.1-8.8-.3-.7-.8-.4-1.6.7.3-1.1.6-2.2,1-3.3Z"/>
  <path class="cls-6" d="M22.5,25.3v.2c0,0-.1.3-.1.3v-.6Z"/>
  <path class="cls-2" d="M49,25.2l-.5.3.5-.3Z"/>
  <path class="cls-1" d="M49,25.2h.7c.4,2.7,1,5.1-1.4,6.9-.9-2.2-3.5-.1-1.3,1-3.8,1.8-6.3,4.7-9.4,7.4-2.5,2-2.4,6-4.3,8.7-2.1,3-1.7,6.1-1.7,9.6-.2.5-.1.7.4.7l.8,1.4c-1,1.1-2,2.2-3,3.3.4,1.1.9,2.1,1.5,3,0-.7,0-1.3,0-2l1.1-.6c.2,2,.3,4.5,1.3,6.2,1.5,2.1,3.4,3.3,4.1,6-.6.6-1.2,1.3-1.8,1.9-.6-.8-1.2-1.7-1.8-2.5-.7,1.3-1.4,2.5-2.3,3.7l-.8-.9c.3-.7.7-1.4,1-2.1-.4-1.1-1.5-2.1-2.3-3v2c-.1,0-.7-.4-.7-.4l-.9-.7c-1.2-.4-2.1-.5-2.8-1.6,1.1-.7,2.2-1.3,3.3-2.1-.7-.4-1.4-.7-2.1-1.1-1.1-2-2.7-3.7-4.2-5.4,1.5-.3,2.9-.7,4.2-1.5l-1.1-1.5c.6-1.6,1.6-2.9,2.7-4.2-1.1-1.2-2.2-2.5-3.3-3.7l.3-.4c.8-.1,1.6-.2,2.4-.3.3-.6.5-1.3.8-2-.8-.7-1.5-1.4-2.3-2.1,1.8-1.2,3.3-2.3,4.2-4.4-.5-1.2-.9-2.5-1.3-3.7,2.4-1.4,4.7-3,7.4-3.9.1-.9.2-1.9.3-2.8.7.4,1.4.9,2.1,1.3.4-2.5,0-4.6,2.2-6.2.4.3.9.6,1.3.9,1.4-2.8,3.2-3.5,5.8-4.8l.5-.3Z"/>
  <path class="cls-5" d="M26.1,26.5l-.2.7c-.7,2.1-.4,4.3.5,6.3,1,.8,2.1,1.5,3.2,2.2-1.2.5-2.5,1.2-3.7,1.4-1.8-.4-3.6-1-5.4-1.4,2.4-2.2,4.6-4.6,3.8-8.2v-.8c.5,0,1.1-.1,1.8-.2Z"/>
  <path class="cls-5" d="M99.7,26.4c.6,3,1.1,5.9,2.1,8.8-3.7.7-6.7,2.1-10.4.2,0-2.4,1.1-3.7,2.4-5.5.7.7,1.5,1.4,2.2,2.1.8-1.3,1.5-2.7,1.9-4.2l.2-.7c.8-1.1,1.3-1.4,1.6-.7Z"/>
  <path class="cls-6" d="M25.9,27.2l.8-.3c.8,1.9,1.6,3.9,2.7,5.6,2,1.2,4.4,1.8,6.6,2.7-2,1.4-4.2,2.2-6.2,3.5-2.7,2.2-3.4,5.9-4.2,9.2-2.3-3.8-2.1-7.5-6.5-9.9-1.4-.7-2.9-1.3-4.4-2,.8-.8,1.6-1.5,2.4-2.3.6.3,1.1.6,1.6.9.4-.5.8-1,1.2-1.5,1.9-1.7,3.1-3.6,4.3-5.8.8,3.6-1.4,6-3.8,8.2,1.8.5,3.6,1.1,5.4,1.4,1.3-.1,2.6-.8,3.7-1.4-1.1-.7-2.2-1.4-3.2-2.2-.9-2-1.2-4.2-.5-6.3Z"/>
  <path class="cls-5" d="M44.1,29.3h.8l.4.7-.4.7h-.8l-.4-.7.4-.7Z"/>
  <path class="cls-5" d="M75.2,29.3q.6.5,0,0Z"/>
  <path class="cls-5" d="M61.5,30.7l.2-.2h.2c0,0-.5.2-.5.2h0Z"/>
  <path class="cls-5" d="M33.2,31.2c1.8-1.2,2.9,1.6.8,2-1.1-.3-1.4-1-.8-2Z"/>
  <path class="cls-5" d="M48.3,32.2l-1.3,1c-2.2-1.2.4-3.2,1.3-1Z"/>
  <path class="cls-2" d="M61.4,30.7h.5c2.8.6,2.2,1.8,2.3,4.1-.2,1.6,2.1,2.9,3.3,1.9,1.5-1.3,2-3.2,4.3-3,1.9,1.1,3.7,2.1,5.7,2.8,3.1.9,3.7,4.1,5.5,6.4,1.7,2.3,2.9,4,2.9,7-.1,3,3,4.9,2.6,7.7,0,2.1-1.8,3.3-3,4.9-1.4,1.8-1.6,4.3-3.4,5.7-1.7,1.3-1.9,3.1-3.1,4.8-2.6,1.4-5.2,2.9-7.9,4.3-5.8.7-11.9-.2-17.8.1-3.8-2.2-7.4-4.6-11.5-6.4.3-4.1-1.7-4.8-5.1-6,0-1.8,0-3.6-.4-5.3l-.3-.7c2.4-.4.7-3-.5-.7-.6-1-1.5-2.1-1.6-3.2,2.6-4.2,5.8-7,4.7-12.4,1-.8,2-1.6,3.1-2.3,1.4,1.1,2.8,2.2,4.2,3.3,1-2.7,1.5-5.2,1.7-8l1.2-.5.3.6c1.7,2.8,2.6-1.2,2.6-2.6,4,1.6,6.2-.9,9.6-2.5Z"/>
  <path class="cls-5" d="M74.8,31.3c1.4-.6,3.1.7,1.4,1.8-.9-.3-1.4-.9-1.4-1.8Z"/>
  <path class="cls-5" d="M51.2,33.1l.6.2c0,1.4-.9,5.4-2.6,2.6v-.9c.7-.7,1.3-1.3,2-1.8Z"/>
  <path class="cls-5" d="M66.8,33.1c-.2.8-.6,1.5-1.1,2.1-1.6-1-.6-3,1.1-2.1Z"/>
  <path class="cls-6" d="M66.8,33.1c2.4.7.8,4-1.1,2.1.5-.6.9-1.3,1.1-2.1Z"/>
  <path class="cls-1" d="M48.9,35.3l.5-.4v.9c-.1,0-.5-.6-.5-.6Z"/>
  <path class="cls-5" d="M47.7,35.7c-.2,2.9-.7,5.3-1.7,8-1.3-1.1-2.7-2.2-4.2-3.3,1.9-2.1,2.8-4.1,5.9-4.7Z"/>
  <path class="cls-1" d="M52.9,37.2l-.9.5.9-.5Z"/>
  <path class="cls-6" d="M52.9,37.2h.8c.9,1.2.5,3.5-1.1,2l-.6-1.6.9-.5Z"/>
  <path class="cls-4" d="M53.7,37.3c.8.2,1.5.4,2.2.9-.4,1-.8,2-1.1,2.9-1.9,0-5.1-1.2-2.8-3.4l.6,1.6c1.6,1.4,2-.8,1.1-1.9Z"/>
  <path class="cls-1" d="M71.9,38.2c.5,1.2.3,3.5-1.4,2.3l-.7-1.5c.5-.9,1.2-1.1,2.1-.7Z"/>
  <path class="cls-4" d="M71.9,38.2c.8.3,1.5.6,2.2,1-.4,2-1.4,2.7-2.9,3.8-.8-.9-1.6-1.8-2.4-2.8l.9-1.3.7,1.5c1.7,1.2,1.9-1.1,1.4-2.3Z"/>
  <path class="cls-5" d="M88,38.1c.7.5,1.4,1,2,1.6-.7.7-1.5,1.3-2.2,2-.8-.3-1.7-.6-2.5-.9l-.5-.6c1-.7,2.1-1.4,3.1-2.1Z"/>
  <path class="cls-4" d="M61,39.1c2.8,0,4,1.5,4.9,3.9-1,.5-1.3,1.2-.7,2.1-.8.6-1.6,1.2-2.4,1.7-.9,0-1.8,0-2.7.1-3.4-1.5-3.1-7.5.9-7.8Z"/>
  <path class="cls-5" d="M62.1,40.5l-1.3,1.6-.7.2-.8-.3c-.4-1.7,1.5-2.3,2.8-1.5Z"/>
  <path class="cls-6" d="M62.1,40.5l1.8.7c-1.1,1.7-2.2,2.8-3.9,3.8-.3-1-.6-2-.7-3.1l.8.3.6.2.2-.4,1.3-1.6Z"/>
  <path class="cls-4" d="M49.5,41.9c2.2.3,1.3,2.5,1.5,4.2-1.2,0-2.5-.2-3.7-.3-.2-.8-.3-1.7-.4-2.5.8.5,1.5.9,2.2,1.4.1-.9.2-1.8.4-2.7Z"/>
  <path class="cls-1" d="M60,42.3l.7-.2-.2.4-.6-.2Z"/>
  <path class="cls-5" d="M38.8,42.8c1.1,5.4-2.1,8.2-4.7,12.4-.4-3.8,2.6-5.4,3.3-8.9.7-.7.8-1.5.2-2.3l1.2-1.1Z"/>
  <path class="cls-1" d="M65.9,43c.5.8.3,1.5-.7,2.1-.6-.9-.4-1.6.7-2.1Z"/>
  <path class="cls-6" d="M83.1,43c1.4,1,3.3,2.1,4,3.7.7,2.1.8,4.5,1.7,6.6.8,2.1,2.2,3.6,1.5,6-.3,2.6-2.2,3.9-3.4,6-.5,1.1-.8,2.4-1.1,3.5-1,.6-1.2,1.3-.7,2.2-2.7-.2-3.7,1.4-2.9,3.9-3.7,1.3-6.9,3-10.2,5.1-2.5,1.6-4.6-.8-7.2,0-3.8,1.2-6.9-.3-10.8-.3-3.8-.2-4.9-3.8-8.7-5-2.3-.8-2.6-1.3-3.5-3.5,4,1.8,7.6,4.2,11.5,6.4,5.9-.3,12,.6,17.8-.1,2.6-1.4,5.3-2.8,7.9-4.3,1.2-1.7,1.4-3.5,3.1-4.8,1.8-1.4,2-3.9,3.4-5.7,1.1-1.6,3-2.8,3-4.9.4-2.8-2.7-4.7-2.6-7.7,0-3-1.2-4.7-2.9-7Z"/>
  <path class="cls-5" d="M17.9,43.8c2.4.9,3.1,3.2,0,3.6-1.1-1.2-.8-2.3,0-3.6Z"/>
  <path class="cls-5" d="M33.2,44.2q.5.5,0,0Z"/>
  <path class="cls-6" d="M37.6,43.9c.6.8.5,1.6-.2,2.3-.7-.9-.7-1.7.2-2.3Z"/>
  <path class="cls-6" d="M68.1,44.2h.8l.4.7-.4.7h-.8l-.4-.7.4-.7Z"/>
  <path class="cls-4" d="M80.1,44c.9.4,1.6,1.1,2.2,2-1.1,1.5-1.3,2-3.3,2,0-1.6.3-2.7,1.1-4Z"/>
  <path class="cls-5" d="M95.8,44.6h-.5c0,0,.5,0,.5,0Z"/>
  <path class="cls-6" d="M54.3,45l.7-.4.7.4v.8s-.7.4-.7.4l-.7-.4v-.8Z"/>
  <path class="cls-4" d="M73.6,45.3l.7.4c-.9.8-2.4,2.8-.5,3.3,1-.3,1.4-1.3,1.1-3,1.6,1.1.8,2.2.8,3.8-1.2,0-2.4.2-3.5.2-.4-.7-.8-1.5-1.1-2.2.7-1,1.5-1.8,2.5-2.5Z"/>
  <path class="cls-6" d="M40.4,46.1c1.4-1,2.7,1.5.9,1.8-1-.3-1.3-.9-.9-1.8Z"/>
  <path class="cls-3" d="M74.3,45.6l.6.3c.3,1.7,0,2.7-1.1,3-1.9-.5-.4-2.6.5-3.3Z"/>
  <path class="cls-5" d="M60.2,46.9c.9,0,1.8-.1,2.7-.1,2.4,1,5.3,2.4,6.7,4.6,1.5,2.9,2,6.8.6,9.8-1.2,3.2-5.1,5.2-8.3,5.7-2.8,0-5.7-2-8.1-3.3l-.2-.5c-1.1-3.6-2.6-6.6-.7-10.3,1.2-3.5,4.1-4.6,7.2-6Z"/>
  <path class="cls-5" d="M47,48.9c1.1,2,.8,2.8,0,4.8-.7-.2-1.3-.4-2-.6l-.2-.9c.6-1.2,1.2-2.3,2.1-3.2Z"/>
  <path class="cls-4" d="M63.3,49.7c2.5,1.5,2.5,4.8,2.7,7.3-.1,3.6.3,7.2-4.1,8.2h-2c0,0-.8-1.2-.8-1.2,1.2-.8,2.4-1.6,3.6-2.3,0-.7.1-1.4.2-2-.8,0-1.5,0-2.3,0-.1,0-.3,0-.4,0-2.3.1-4.3-2.4-4.4-4.6,0-3.8,3.7-6.9,7.4-5.3Z"/>
  <path class="cls-6" d="M82.1,50.3c1.4-1,2.7,1.4.8,1.8-1-.3-1.3-.9-.8-1.8Z"/>
  <path class="cls-3" d="M44,52.1h-1.8c.6-1.8,1.2-1.7,1.8,0Z"/>
  <path class="cls-6" d="M42.1,52h1.8c.7,3.3-2.1,4.3-3,1l1.2-1Z"/>
  <path class="cls-4" d="M44,52.1h.9c0,0,.2,1,.2,1-.3,1-.7,2.1-1.1,3.1h-2c-.7-.7-1.5-1.4-2.2-2.1l1.2-1.1c.9,3.2,3.7,2.2,3-.9Z"/>
  <path class="cls-6" d="M49.1,52.1c1.8.3.7,2.8-.8,1.8-.5-.9-.2-1.5.8-1.8Z"/>
  <path class="cls-6" d="M77.1,53.1c1.7-1.1,2.4,1.2.6,1.7-1-.2-1.2-.8-.6-1.7Z"/>
  <path class="cls-5" d="M98.2,53.2h.5v.6h-.5s0-.6,0-.6Z"/>
  <path class="cls-5" d="M25.2,54c1.2,1.2,2.2,2.4,3.3,3.7-1,1.3-2.1,2.6-2.7,4.2-.9-1.3-1.8-2.6-2.8-3.8.7-1.3,1.4-2.7,2.2-4Z"/>
  <path class="cls-6" d="M58.5,54.2v.5c-.2-.2-.2-.4,0-.5Z"/>
  <path class="cls-4" d="M82,53.9c1.6.9,4,2.7,2.9,4.8-1.1,1.9-2.8,1.6-4.6,1.3-1.1-1.1-1.1-2.3-1.4-3.7,1.4.8,2.7,1.5,4.1,2.3-.3-1.5-.7-3.1-.9-4.6Z"/>
  <path class="cls-6" d="M86.1,55.2h.8l.4.7-.4.7h-.8l-.4-.7.4-.7Z"/>
  <path class="cls-5" d="M30.3,56.3q.6.5,0,0Z"/>
  <path class="cls-6" d="M42,56.2h2s-1,1.2-1,1.2l-1-1.2Z"/>
  <path class="cls-6" d="M73.4,56.2c1.5-.9,2.7,1.5.8,1.8-1-.3-1.2-.9-.8-1.8Z"/>
  <path class="cls-5" d="M97.7,56.3c2.4-.4,2.7,1.2,1.2,2.8-.7-.7-1.1-1.6-1.2-2.8Z"/>
  <path class="cls-6" d="M36.1,59l-.5-.7c1.2-2.3,2.9.3.5.7Z"/>
  <path class="cls-6" d="M43.2,58.3c1.5-1.2,2.5,1.1.8,1.7-1-.2-1.3-.7-.8-1.7Z"/>
  <path class="cls-6" d="M48.8,58.9h-.6c.2-.2.4-.2.6,0Z"/>
  <path class="cls-5" d="M31.7,58.9l.4.7c-.5,0-.6-.2-.4-.7Z"/>
  <path class="cls-4" d="M47.4,59.2v.8c0,0-.1.7-.1.7.2,2,2.3,1.1,2.8-.3l.8,1.5c-.8,1-1.3,2-2.8,2.2-1.5-.3-2.4-1.9-3.3-3,.8-.7,1.7-1.3,2.6-1.8Z"/>
  <path class="cls-1" d="M47.4,59.2l.8-.4h.6c0,0,.9.9.9.9l.4.7c-.5,1.3-2.6,2.3-2.8.3.4-.2.4-.4,0-.7v-.8Z"/>
  <path class="cls-4" d="M48.8,58.9l.9.8-.9-.8Z"/>
  <path class="cls-6" d="M60.7,59.5h-.4c.1,0,.3,0,.4,0Z"/>
  <path class="cls-5" d="M36.4,59.7c.4,1.8.5,3.5.4,5.3-.4,1.4-.8,2.8-1.2,4.2-1.3-3.3,0-6.4.8-9.6Z"/>
  <path class="cls-6" d="M42.5,60.9c-.3,1.4-1.1,2.8-2.4,1.3.2-1.1,1.4-2.8,2.4-1.3Z"/>
  <path class="cls-2" d="M47.3,60c.4.3.4.5,0,.7v-.7Z"/>
  <path class="cls-4" d="M73.9,59.9c2.7.3,5.3,2.7,3.5,5.5-.8,2-2.4,1.3-4.1,1.7-.7-.8-1.4-1.5-2.1-2.3l-.2-1.8c.6.4,1.1.8,1.7,1.2.8.7,1.7,1.4,2.5,2.1.9-.9,1.5-1.8,1.8-3-.6-.5-1.1-1-1.7-1.5-.5-.6-.9-1.2-1.3-1.9Z"/>
  <path class="cls-5" d="M32.9,61c0,1.2-.2,2.5-.3,3.7l-1.1.6c0,.7,0,1.3,0,2-.6-1-1.2-1.9-1.5-3,1-1.1,2.1-2.2,3-3.3Z"/>
  <path class="cls-4" d="M38.9,61.1l1.2,1.1c1.3,1.5,2.1,0,2.4-1.3.8.9.9,2.8-.6,3.1-.9,0-1.7,0-2.6-.1-.2-.9-.3-1.9-.4-2.8Z"/>
  <path class="cls-3" d="M72.2,61.3h.5s0,.5,0,.5h-.5s0-.5,0-.5Z"/>
  <path class="cls-1" d="M102.6,61.9l.3.9c-.4,2-2.5.9-2.2-.7.4-.8,1-.9,1.9-.2Z"/>
  <path class="cls-6" d="M75.3,61.8c.6.5,1.2,1,1.7,1.5-.4,1.2-1,2.1-1.8,3-.8-.7-1.7-1.4-2.5-2.1.9-.8,1.7-1.6,2.6-2.4Z"/>
  <path class="cls-5" d="M102.6,61.9l.3.9-.3-.9Z"/>
  <path class="cls-2" d="M21.7,63.1c.4,1.7.6,3.3.8,5l-.5,1.3c-.5-1.1-.9-2.2-1.4-3.3-.2-1.6-.5-2.1,1-3Z"/>
  <path class="cls-6" d="M53.5,63.5v-.3c.1,0,.3.5.3.5l-.3-.2Z"/>
  <path class="cls-1" d="M90.2,63.3c1.9.5-.3,3.4-1.7,2.4-.6-1.1.6-2.4,1.7-2.4Z"/>
  <path class="cls-5" d="M95.8,64.4c1.8.9.3,2.8.2,4.3-.8-.7-1.7-1.4-2.6-2.1,0,.8,0,1.7,0,2.5-1.3-.5-2-.4-2.6-1.9l1-1.4c1.3-1.2,2.2-1.7,3.9-1.4Z"/>
  <path class="cls-5" d="M28.2,65.2q.5.6,0,0Z"/>
  <path class="cls-6" d="M36.8,65.1c3.4,1.2,5.4,1.9,5.1,6-1.4-2.2-2.6-3.2-5.1-4,1.7,2.6,3.8,4.9,5.7,7.4,1.6,1.1,3.6,1.7,5.1,2.9,1.9,1.4,3.1,3.1,5.6,3.3,3.8.4,7.3,1.4,11.2.8,2.4-.4,5,.9,7.2.2,2.3-1.2,4.3-2.8,6.8-3.6,1.8-.5,2.6-1.9,3.8-3.2,1.2-1.2,2.1-2.4,2.9-3.9,1-.6,1.2-1.4.7-2.2.8-.2,1.7-.3,2.5-.5-.3,1.7,0,3.2-1.5,4.4-2.3,2.2-3.8,4.8-5.7,7.2-3.4,1.1-5.2,1.9-7.3,4.9-3,.4-4.5.1-7-1.3-1.8.5-3.7,1.3-5.5,1.4-1.4-.4-2.7-1.1-4.1-1.5-1.9-.2-4.3.4-6-.3-1.8-1-2.8-2.7-4.9-3.2-1.3-.5-3.2-.8-4.2-1.8-1-1.5-1.5-3.2-2.3-4.7-1.2-1.5-2.8-2.6-3.9-4.2.5-1.4.9-2.8,1.2-4.2Z"/>
  <path class="cls-6" d="M60,65.2h2c-.6,1.4-1.2,1.5-2,0Z"/>
  <path class="cls-6" d="M71.2,64.8c.7.8,1.4,1.5,2.1,2.3l-1.2.9,1,1c.4,1,.8,1.9,1.2,2.9-1-.3-2.1-.5-3.1-.8,0-2.1.1-4.2,0-6.3Z"/>
  <path class="cls-6" d="M102.7,65.4c.6,3,.8,4.9,3.5,6.7l1,.9c-.7.6-1.4,1.3-2.2,1.9-1.5,1.6-2.1,3.5-3.1,5.5-.8-1.7-1.4-3.5-2-5.3,1.3-.5,2.5-.9,3.8-1.4-.2-.6-.3-1.2-.5-1.8-.4-1.4-.8-2.7-1.3-4-.3-.7-.6-1.4-.9-2,.6-.2,1.1-.3,1.7-.5Z"/>
  <path class="cls-5" d="M20.6,66.1c.5,1.1.9,2.2,1.4,3.3-.2.7-.3,1.4-.5,2.1-1.9.2-3.8.4-5.7.6h-.7c.5-.6.9-1.2,1.2-2,.6-.3,1.3-.7,1.9-1,.9-1,1.7-2,2.5-3Z"/>
  <path class="cls-4" d="M51.5,66.4c.2,1.4,1.3,3.8-.2,4.9-2.4,2.8-7.2-2-4.3-4.3,1.4-1.5,2.8-.7,4.5-.6Z"/>
  <path class="cls-4" d="M36.8,67.1c2.5.8,3.7,1.8,5.1,4,.9,2.2,1.2,2.7,3.5,3.5,3.8,1.3,4.9,4.8,8.7,5,3.8,0,7,1.5,10.8.3,2.6-.8,4.6,1.6,7.2,0,3.3-2.1,6.5-3.8,10.2-5.1-1.2,1.3-2,2.7-3.8,3.2-2.5.8-4.5,2.4-6.8,3.6-2.2.7-4.9-.6-7.2-.2-3.9.7-7.3-.3-11.2-.8-2.5-.3-3.7-1.9-5.6-3.3-1.5-1.3-3.5-1.8-5.1-2.9-1.9-2.5-4-4.8-5.7-7.4Z"/>
  <path class="cls-5" d="M48.8,67.3l-.7.3.7-.3Z"/>
  <path class="cls-1" d="M48.8,67.3h2c-.2,1.2-.5,2.4-1,3.7-1.1-.5-2-1.2-2.9-1.9l1.2-1.4.7-.3Z"/>
  <path class="cls-6" d="M53.2,67.2q.5.5,0,0Z"/>
  <path class="cls-6" d="M22.5,68.1c1.5.7,3,1.4,4.5,2.1.7.3,1.4.7,2.1,1.1-1.1.7-2.2,1.4-3.3,2.1-3.4,1.5-3.3,3.9-4.6,6.9-1-2.2-1.7-4.3-2.9-6.4-.8-.6-1.6-1.2-2.4-1.8,1.9-.2,3.8-.4,5.7-.6.2-.7.3-1.4.5-2.1l.5-1.3Z"/>
  <path class="cls-5" d="M101.9,68c.5,1.3.9,2.7,1.3,4-.4.6-.8,1.1-1.2,1.7-1.4-.3-2.7-.6-4.1-.8.9-.8,1.7-1.6,2.4-2.5.5-.8,1-1.6,1.6-2.4Z"/>
  <path class="cls-6" d="M58.7,68.7c-.2,1.4-.4,2.8-.6,4.1-1,.6-1.2,1.4-.7,2.3l-1.3.9-1.1-.5c1.3-1.3.2-2.4-1.2-2.9.4-.5.8-1,1.2-1.5.9,1.6,1.4,1.4,1.6-.5.7-.6,1.4-1.2,2.2-1.8Z"/>
  <path class="cls-4" d="M73,68.9c1.1.8,2.2,1.5,3.2,2.3-.9.8-1.7,1.7-2.6,2.6-1.2-.8-2.1-1.3-2.6-2.7,1,.3,2.1.5,3.1.8-.4-1-.8-2-1.2-2.9Z"/>
  <path class="cls-6" d="M76.9,69.1c2,.5.9,2-.6,2.1-.4-1.1-.2-1.8.6-2.1Z"/>
  <path class="cls-1" d="M85.7,68.8c.6.8.4,1.6-.7,2.2-.5-.8-.3-1.6.7-2.2Z"/>
  <path class="cls-6" d="M16.2,70.1c-.3.7-.6,1.3-1.2,1.8l-1.3-.8c.4-.8,1.2-1.2,2.4-1Z"/>
  <path class="cls-5" d="M32.1,70.2c1.1-.1,2,1.6,1.5,2.5-1.5.7-3.7-1.6-1.5-2.5Z"/>
  <path class="cls-6" d="M68.2,71c-1.2,1-1.9,1.1-3.2.2.4-1.8,2.3-1.3,3.2-.2Z"/>
  <path class="cls-3" d="M95.1,70.5c1.7-.1,3.5-.1,5.2-.2-.7.9-1.5,1.7-2.4,2.5l-1.9.4c1.2.8,2.5,1.4,3.9,1.9.6,1.8,1.2,3.6,2,5.3,1-1.9,1.7-3.9,3.1-5.5,1.6,2.7,4.1,6.5,1.3,9.3-1.5,1.8-3,.8-5,.7.6,2.7,1.8,4.9.3,7.5-.6,1.3-1.9,1.2-3.1,1.6,0-.8,0-1.6-.1-2.3-1,.4-1.9.8-2.9,1.3,0,.9.1,1.7.2,2.6-2.9-.5-5.3-1.5-8.2-1.1-4,.6-8.1,0-12.1.4l-.5,1.7c-1.1,0-2.2,0-3.2,0v-.5c0,0-.8.4-.8.4h-1c-.3-.3-.6-.4-.9,0h-1s-.6-.3-.6-.3v.4c-1.4,0-2.7,0-3.9,0v-.4c-.1,0-.7.4-.7.4h-1c-.3-.3-.5-.3-.9,0h-1.1c-.3-.2-.6-.2-.9,0h-1c-.4-.3-.7-.3-.9,0h-1.1c0,0-.2-1.9-.2-1.9,4.7-1.8,8.7-.2,13.5-.6,2.5-.2,4.9-.3,7.4-.5.7-.9.8-2.2,1.6-3,1.3-.6,2.8-.9,4.2-1.3.3-.6.6-1.2.9-1.8.9,0,1.8,0,2.7,0,2.5,1,2.5,3,3.4,5.2,1.3-2.1,2.6-4.2,4.2-6.1-.9-1.1-1.7-2.2-2.6-3.3.2-1.4.3-2.8.4-4.2,1.6-.2,3.1-.4,4.7-.6-.6-.6-1.3-1.2-1.9-1.8.5-.7.7-1.3.8-2.1.1-1.5.2-2.9.3-4.4Z"/>
  <path class="cls-3" d="M54.9,71.1l1.6-.5c-.2,1.9-.7,2.1-1.6.5Z"/>
  <path class="cls-3" d="M64.9,71.3c1.3.8,2.1.8,3.2-.2-.5,1-.4,2.1.2,3.1l-1.5,1.1c-1.8-1.2-1.9-1.8-1.9-3.9Z"/>
  <path class="cls-4" d="M68.2,71c1.2.8,1.6,2.2.2,3.1-.6-1-.6-2-.2-3.1Z"/>
  <path class="cls-4" d="M85,71c-.8,1.5-1.7,2.7-2.9,3.9-.8-2.5.2-4.1,2.9-3.9Z"/>
  <path class="cls-2" d="M103.2,72c.2.6.3,1.2.5,1.8-1.3.5-2.5.9-3.8,1.4-1.4-.5-2.7-1.1-3.9-1.9l1.9-.4c1.4.2,2.7.5,4.1.8.4-.6.8-1.1,1.2-1.7Z"/>
  <path class="cls-3" d="M25.7,73.3c.7,1.1,1.7,1.2,2.8,1.6l.9.7c-1,.7-1.4,1.5-1,2.3,1,.5,1.5-.1,1.6-1.9v-2c.9.9,2,1.9,2.4,3-.3.7-.7,1.4-1,2.1l.8.9c.5.6,1,1.1,1.6,1.7l-.6.3c-1.2.3-3.3,1.1-2.6,2.7,1,.5,2.6-.3,3.5-.7.8-.4,1.6-.8,2.5-1.2.6,1,1.2,2,1.8,3-.2.6-.5,1.2-.7,1.8.7,1.3,1.3,2.7,1.9,4.1.9-.9,1.8-1.8,2.7-2.7.5.5,1,1,1.5,1.5.5-.4.9-.7,1.4-1.1,0,.7.1,1.4.2,2.1.5-.4,1.1-.7,1.6-1.1.4,1.1.9,2.2,1.4,3.3,2.4,0,4.7.1,7,.8-.9.5-1.6,1.2-2.2,2.3h-2.1s-.2-.5-.2-.5l-.6.5h-2.1c.3-.6.7-1.2,1-1.9-4.1.2-8.1.3-12.2-.2-2.8-.4-5.2.7-7.8,1.5-1.6-1.4-2.4-3-3.2-5-1,1.9-1.8,3.8-3.8,5-1.2-3.4-.8-7-1.8-10.4-1.8-1.5-4.6-1.6-4.8-4.5.8-2.5,1.9-4.8,2.7-7.3,1.2,2,2,4.2,2.9,6.4,1.3-3,1.2-5.4,4.6-6.9Z"/>
  <path class="cls-6" d="M50.3,73.4q.6.5,0,0Z"/>
  <path class="cls-4" d="M53.8,72.6c1.3.5,2.5,1.6,1.2,2.9-1-.3-2.1-2-1.2-2.9Z"/>
  <path class="cls-4" d="M58,72.9c.5,1.1.2,1.8-.7,2.3-.6-.9-.3-1.6.7-2.3Z"/>
  <path class="cls-5" d="M94.8,74.9c0,.7-.3,1.4-.8,2.1-1.4-.7-2.9-1.7-1.5-3.3,1.2-1,1.7.4,2.3,1.3Z"/>
  <path class="cls-5" d="M34.2,74.2q.5.6,0,0Z"/>
  <path class="cls-5" d="M89.2,74.2c1.1.4,1.6,1.1,1.7,2.1-.7,1.8-2.3-.6-2.2-1.6l.5-.5Z"/>
  <path class="cls-5" d="M36.3,75.3q.6.5,0,0Z"/>
  <path class="cls-5" d="M29.5,75.6l.5.4c0,1.8-.5,2.4-1.6,1.9-.3-.8,0-1.6,1-2.3Z"/>
  <path class="cls-5" d="M34.4,76.3c.6.8,1.2,1.7,1.8,2.5.6-.6,1.2-1.3,1.8-1.9l.2.8c.2.8.4,1.5.6,2.3-1,.2-1.9.5-2.9.7.1.7.3,1.4.4,2.1-.8.4-1.6.8-2.5,1.2-.2-.7-.5-1.3-.9-2l.6-.3c-.5-.6-1.1-1.1-1.6-1.7.9-1.2,1.6-2.4,2.3-3.7Z"/>
  <path class="cls-5" d="M86.2,77.2c2.3.2.6,2.9-.5.7l.5-.7Z"/>
  <path class="cls-5" d="M98.2,77.3h.8l.4.7-.4.7h-.8l-.4-.7.4-.7Z"/>
  <path class="cls-5" d="M25.8,81.1c.4.9.8,1.9,1.1,2.8-.6.5-1.2,1.1-1.8,1.6-.7-.6-1.4-1.1-2.1-1.7.9-1.1,1.5-2.2,2.8-2.8Z"/>
  <path class="cls-5" d="M40.2,81.2q.6.5,0,0Z"/>
  <path class="cls-1" d="M33.1,82c.3.7.6,1.3.9,2-1,.4-2.5,1.2-3.5.7-.7-1.7,1.4-2.4,2.6-2.7Z"/>
  <path class="cls-5" d="M42.2,82.2q.6.5,0,0Z"/>
  <path class="cls-5" d="M89.4,82.3c.5.4,1,.7,1.5,1.1.9,1.1,1.7,2.2,2.6,3.3-1.6,1.9-2.8,4-4.2,6.1-.9-2.2-.9-4.2-3.4-5.2,1.2-1.7,2.3-3.5,3.4-5.3Z"/>
  <path class="cls-5" d="M45.8,82.7c1.7,1.5,3.3,2.8,5.4,3.6-.5.4-1,.9-1.6,1.4-1.8-1.7-3.4-3.2-5.9-3.5.7-.5,1.4-1,2.1-1.4Z"/>
  <path class="cls-5" d="M81.2,83.2q.6.5,0,0Z"/>
  <path class="cls-5" d="M40,83.9c1,1.8,2.8,2.9,2,5.1-.9.9-1.8,1.8-2.7,2.7-.6-1.4-1.2-2.7-1.9-4.1.2-.6.5-1.2.7-1.8.6-.7,1.2-1.3,1.9-2Z"/>
  <path class="cls-5" d="M78.5,84.1c1.4-.7,2.2,1.5,1.4,2.4-1.2.6-2.1-1.6-1.4-2.4Z"/>
  <path class="cls-2" d="M24.2,86.2h.5c-.2.8-.3.8-.5,0Z"/>
  <path class="cls-5" d="M29.8,86.1c.4,1,.7,1.9,1.1,2.9-.3.9-.7,1.9-1.1,2.8-.9-1-1.7-2-2.6-3,.8-1,1.7-1.9,2.6-2.7Z"/>
  <path class="cls-5" d="M53.1,86.1h.9c.7,1.6,1.3,1.6,1.8,0,1.1.3,2.2.7,3.2,1,.4.9,1.1,1.2,2.1.8l.6-.2c.9-.2,1.8-.4,2.7-.6l.2.5.5-.6.7-.2,2,.2c.5,1,1.2,1.3,2.3.9h.8c0-.1,1,.6,1,.6-1.4.5-2.8,1-4.2,1.5-2.9-.9-5.6-.2-8.5-.2-2.4-.6-4.5-1.8-7-2.1.3-.5.6-1.1,1-1.6Z"/>
  <path class="cls-1" d="M54,86h1.8c-.5,1.7-1.1,1.7-1.8,0Z"/>
  <path class="cls-6" d="M65.5,86.4l.2.4-.7.2.4-.6Z"/>
  <path class="cls-5" d="M76.2,86.2q.6.5,0,0Z"/>
  <path class="cls-3" d="M59,87.1h1.9c0,0,.2.8.2.8-1,.4-1.7.2-2.1-.8Z"/>
  <path class="cls-6" d="M61,87.2l.8.5-.6.2-.2-.7Z"/>
  <path class="cls-1" d="M64.4,87.2l.7-.2-.5.6-.2-.5Z"/>
  <path class="cls-3" d="M67.8,87.1c1-.4,1.8,0,2.3.9-1,.4-1.8,0-2.3-.9Z"/>
  <path class="cls-5" d="M73.3,88.1l.7-.4.7.4v.8l-.7.4-.7-.4v-.8Z"/>
  <path class="cls-2" d="M53.2,89.2q.5.5,0,0Z"/>
  <path class="cls-4" d="M55.1,94.6l.7.2.2,2c-1,.1-2.1.2-3.1,0,.5-1,1.3-1.8,2.2-2.3Z"/>
  <path class="cls-6" d="M38.9,96.6h-.8c.3-.2.5-.2.8,0Z"/>
  <path class="cls-6" d="M42.4,96.2l.6.4h-.8s.1-.4.1-.4Z"/>
  <path class="cls-6" d="M45,96.2v.6c-.1,0-.9-.2-.9-.2l.9-.5Z"/>
  <path class="cls-3" d="M45,96.2c1.1-.5,1.8-.3,1.9.8l-2-.2v-.6Z"/>
  <path class="cls-6" d="M50.7,96.3l.2.5h-.7l.6-.5Z"/>
  <path class="cls-6" d="M58,96.6h-.9c.2-.3.5-.4.9,0Z"/>
  <path class="cls-6" d="M60,96.6h-.9c.3-.2.6-.2.9,0Z"/>
  <path class="cls-6" d="M61.9,96.6h-.9c.3-.2.6-.2.9,0Z"/>
  <path class="cls-6" d="M63.5,96.3v.4c.1,0-.6,0-.6,0l.6-.4Z"/>
  <path class="cls-5" d="M67.4,96.7h.7s1,0,1,0h.9s1,0,1,0h.8c1.1,0,2.2,0,3.2,0h1.2s.8.1.8.1h2.1s.8,0,.8,0c1.2,0,2.3-.1,3.4-.2h.7c2,.2,4,.4,6,.6.4,1,1.1,1.3,2.1.9,1.6,2.3,3.6,4.5,5.2,6.8v2c-.5.8-.9,1.5-1.4,2.2l-.5.5-.8.4-2.2-.3c1.2-.8,3.5-1.5,3.9-2.9.6-1.4-1-2.2-1.9-3.1-.7-.6-1.5-1.2-2.2-1.9-.4-.9-.8-1.8-1.2-2.6-.8,0-1.5,0-2.2.1l-.8-.2c-.9-.3-1.9-.3-3,0h-.7c-1.1-.4-2.2-.4-3.3-.1h-.8c-1.1-.3-2.2-.3-3.2,0h-.8c-1.1-.3-2.2-.3-3.2,0h-.7c-1.1-.4-1.8-.2-2.2.7h-1c-.4-.9-1.1-1.2-2.1-.8h-.7c-1.1-.3-1.8,0-2.1.8h-1c-.4-.9-1.1-1.2-2.1-.8h-.7c-1-.3-1.8,0-2.1.8h-1c-.4-.9-1.1-1.2-2.1-.8h-.7c-1-.3-1.8,0-2.1.8h-1c-.4-.9-1.1-1.2-2.2-.8h-.7c-1.1-.2-2.2-.2-3.3,0h-.8s-2.1,0-2.1,0h-.8c-1.1-.3-2.2-.2-3.3,0h-.8c-1-.2-2.1-.3-3.2-.4l-1.1-.9c1.7-1,3.4-.9,5.3-1.2h.8c1.1,0,2.2.1,3.3,0h.8s1,0,1,0l.8.2,2,.2h1.1c0-.1,2.1-.2,2.1-.2h2.8c1.1.1,2.1.1,3.1,0h1.1c0,0,.9-.1.9-.1h1s.9,0,.9,0h1.1s.9,0,.9,0h1s.7,0,.7,0c1.3,0,2.6,0,3.8,0Z"/>
  <path class="cls-6" d="M67.5,96.3l.6.4h-.7s.1-.4.1-.4Z"/>
  <path class="cls-6" d="M69.9,96.7h-.9c.3-.3.6-.3.9,0Z"/>
  <path class="cls-6" d="M71.6,96.3v.5c0,0-.7,0-.7,0l.7-.4Z"/>
  <path class="cls-6" d="M77.1,96.3v.6c-.1,0-1-.2-1-.2l1-.5Z"/>
  <path class="cls-1" d="M77.1,96.3h1.9s0,.6,0,.6h-2.1s.1-.6.1-.6Z"/>
  <path class="cls-6" d="M78.9,96.3l.8.6h-.8c0,0,0-.6,0-.6Z"/>
  <path class="cls-6" d="M83.3,96.3l.5.4h-.7s.2-.4.2-.4Z"/>
  <path class="cls-1" d="M89.8,97.2c1-.4,1.7,0,2.1.9-1,.4-1.7,0-2.1-.9Z"/>
  <path class="cls-2" d="M32.8,97.9c-.7,1.5-1.4,3.1-1.7,4.7.6,0,1.2-.2,1.8-.3.6,1.5,1.3,1.5,2.1,0h1.1c.2.6.5.7.9.1h1c.3.4.6.4.9,0h1.1c.3.5.6.5.9,0h1.1c.3.3.6.3.9,0h1.1c.3.4.6.4.9,0h1.1c.3.5.6.5.9,0h1.1s.3.5.3.5l.8,1.6c-7.2,1.3-14.9,0-22.3.7.2,1,.4,2,.7,2.9.4.8.8,1.5,1.3,2.3-2.6-1.1-3.9-4.2-2-6.5,1.9-2,3.6-4.5,6-6Z"/>
  <path class="cls-1" d="M32.8,97.9l1.1.9v.7c-.4.9-.7,1.8-1,2.7-.6.1-1.2.3-1.8.3.2-1.6,1-3.2,1.7-4.7Z"/>
  <path class="cls-6" d="M33.9,98.8c1.1,0,2.1.2,3.2.5v.6c-1.2.3-2.3.2-3.2-.4v-.7Z"/>
  <path class="cls-1" d="M37.1,99.3h.8c0,0,0,.5,0,.5h-.8c0,0,0-.5,0-.5Z"/>
  <path class="cls-2" d="M37.8,99.2c1.1-.3,2.2-.4,3.3,0v.6c-1.1.2-2.2.3-3.3,0v-.6Z"/>
  <path class="cls-1" d="M41.2,99.1h.8s0,.6,0,.6h-.8v-.6Z"/>
  <path class="cls-2" d="M42,99.1h2.1v.7h-2.1v-.7Z"/>
  <path class="cls-1" d="M44,99.1h.8v.6h-.8s0-.6,0-.6Z"/>
  <path class="cls-2" d="M44.8,99.1c1.1-.3,2.2-.3,3.3,0v.6c-1.1.2-2.2.2-3.3,0v-.6Z"/>
  <path class="cls-1" d="M48.1,99.1h.7c0,0,0,.6,0,.6h-.8v-.6Z"/>
  <path class="cls-2" d="M48.8,99c1-.4,1.8-.1,2.2.8h-2.1c0,0,0-.8,0-.8Z"/>
  <path class="cls-2" d="M54.2,99v.7s-2.1,0-2.1,0c.4-.9,1.1-1.2,2.1-.8Z"/>
  <path class="cls-1" d="M54.2,99h.7v.7s-.7,0-.7,0v-.7Z"/>
  <path class="cls-2" d="M54.8,99c1-.3,1.8,0,2.1.8h-2.1c0,0,0-.8,0-.8Z"/>
  <path class="cls-2" d="M60.2,99v.7s-2.1,0-2.1,0c.4-.9,1.1-1.2,2.1-.8Z"/>
  <path class="cls-1" d="M60.2,99h.7v.7s-.7,0-.7,0v-.7Z"/>
  <path class="cls-2" d="M60.8,99c1-.3,1.8,0,2.1.8h-2.1c0,0,0-.8,0-.8Z"/>
  <path class="cls-2" d="M66.2,99v.7c0,0-2.1,0-2.1,0,.4-.9,1.1-1.2,2.1-.8Z"/>
  <path class="cls-1" d="M66.2,99h.7v.7s-.7,0-.7,0v-.7Z"/>
  <path class="cls-2" d="M66.8,99c1-.3,1.8,0,2.1.8h-2.1c0,0,0-.8,0-.8Z"/>
  <path class="cls-2" d="M72.2,99v.7c0,0-2.2,0-2.2,0,.4-.9,1.1-1.2,2.2-.8Z"/>
  <path class="cls-1" d="M72.2,99h.7c0,0,0,.7,0,.7h-.8s0-.7,0-.7Z"/>
  <path class="cls-2" d="M72.9,99.1c1.1-.3,2.1-.3,3.2,0v.6c-1.1.3-2.2.3-3.2,0v-.6Z"/>
  <path class="cls-1" d="M76.1,99.1h.8v.6h-.8v-.6Z"/>
  <path class="cls-2" d="M76.9,99.1c1.1-.3,2.2-.3,3.2,0v.6c-1.1.3-2.2.3-3.2,0v-.6Z"/>
  <path class="cls-1" d="M80.1,99.1h.8v.6h-.8v-.6Z"/>
  <path class="cls-2" d="M80.9,99.1c1.1-.3,2.2-.3,3.3,0v.6c-1.1.2-2.2.2-3.3,0v-.6Z"/>
  <path class="cls-1" d="M84.2,99.2h.7c0,0,0,.7,0,.7h-.8c0,0,0-.7,0-.7Z"/>
  <path class="cls-6" d="M84.9,99.2c1.1-.3,2.1-.3,3,0v.4c-.8.5-1.9.6-3,.1v-.6Z"/>
  <path class="cls-1" d="M87.9,99.3l.8.2-.6.2v-.4Z"/>
  <path class="cls-4" d="M90.9,99.4c.4.9.8,1.7,1.2,2.6-7.5.3-15,0-22.5.2h-.9c0,0-.8,0-.8,0h-1s-.9,0-.9,0l-1-.2h-2.1c0,0-1,0-1,0h-3s-2,0-2,0l-1,.2h-.8s-1-.2-1-.2h-2.1s-1.1,0-1.1,0h-.9s-1.1,0-1.1,0h-.8s-1.1,0-1.1,0h-2s-.9,0-.9,0h-1.1s-.9,0-.9,0h-2s-1.1,0-1.1,0h-1.9s-.9,0-.9,0h-1.1c0,0-2.1,0-2.1,0,.3-.9.6-1.8.9-2.7.9.5,2,.7,3.2.4h.8c1.1.1,2.2.1,3.3-.1h.8s2.1,0,2.1,0h.8c1.1.2,2.2.2,3.3,0h2.9c0,0,1,0,1,0h2.1c0,0,.8,0,.8,0h2.1c0,0,1,0,1,0h2.1c0,0,.8,0,.8,0h2.1c0,0,1,0,1,0h2.1c0,0,.8,0,.8,0h2.1c0,0,1,0,1,0h2.1c0,0,.8,0,.8,0,1.1.3,2.2.3,3.2,0h.8c1.1.3,2.2.3,3.2,0h.8c1.1.2,2.1.3,3.2,0h.8c1.2.5,2.2.5,3.2,0l.6-.2c.8,0,1.5,0,2.2-.1Z"/>
  <path class="cls-5" d="M32.9,102.2h2.1c-.8,1.5-1.5,1.5-2.1,0Z"/>
  <path class="cls-1" d="M36.2,102.3h.9c-.4.6-.7.5-.9,0Z"/>
  <path class="cls-5" d="M38.1,102.4h.9c-.3.4-.6.4-.9,0Z"/>
  <path class="cls-1" d="M40.1,102.4h.9c-.3.5-.6.5-.9,0Z"/>
  <path class="cls-5" d="M42.1,102.4h.9c-.3.3-.6.3-.9,0Z"/>
  <path class="cls-1" d="M44,102.3h.9c-.3.5-.6.5-.9,0Z"/>
  <path class="cls-1" d="M46,102.3h.9c-.3.5-.6.5-.9,0Z"/>
  <path class="cls-1" d="M48.1,102.3h.8s-.5.5-.5.5l-.3-.5Z"/>
  <path class="cls-5" d="M48.9,102.3h1.1c.4.5.7.5.9,0h1.1c.7,1.3,1.4,1.4,2.1,0l1,.2c.3.3.6.3.8,0l1-.2c.8,1.5,1.5,1.5,2,0h1c.7,1.6,1.3,1.6,2,0h1c.6,1.5,1.3,1.5,2.1,0l1,.2c.2.3.5.4.9,0h1c.4.3.7.3.8,0h.9c.7.2,1.3.5,2,.8l-.4,1.1c-7.2-.3-14.8-.8-22,.2l-.8-1.6.5-.6Z"/>
  <path class="cls-1" d="M49.9,102.3h.9c-.2.5-.5.5-.9,0Z"/>
  <path class="cls-1" d="M51.9,102.1h2.1c-.7,1.5-1.4,1.5-2.1,0Z"/>
  <path class="cls-1" d="M55.1,102.3h.8c-.3.3-.5.3-.8,0Z"/>
  <path class="cls-1" d="M56.9,102.1h2c-.6,1.5-1.3,1.5-2,0Z"/>
  <path class="cls-1" d="M60,102.1h2c-.7,1.6-1.3,1.6-2,0Z"/>
  <path class="cls-1" d="M63,102.1h2.1c-.8,1.6-1.5,1.5-2.1,0Z"/>
  <path class="cls-1" d="M66.1,102.3h.9c-.3.4-.6.3-.9,0Z"/>
  <path class="cls-1" d="M68,102.3h.8c-.2.3-.4.3-.8,0Z"/>
  <path class="cls-2" d="M69.7,102.2c7.5-.3,15,0,22.5-.2.7.7,1.4,1.3,2.2,1.9-.5.6-1.1,1.1-1.6,1.7-3.9-.8-7.6,0-11.5-.2-3.4-.1-6.8.2-10.2.6l.2-1.7.4-1.1c-.7-.3-1.3-.6-2-.9Z"/>
  <path class="cls-5" d="M73.3,103.1l.7-.4.7.4v.8s-.7.4-.7.4l-.7-.4v-.8Z"/>
  <path class="cls-5" d="M76.3,103.2l.7-.4.7.4v.8s-.7.4-.7.4l-.7-.4v-.8Z"/>
  <path class="cls-5" d="M79.3,103.2l.7-.4.7.4v.8s-.7.4-.7.4l-.7-.4v-.8Z"/>
  <path class="cls-5" d="M82.3,103.2l.7-.4.7.4v.8s-.7.4-.7.4l-.7-.4v-.8Z"/>
  <path class="cls-5" d="M85.3,103.2l.7-.4.7.4v.8s-.7.4-.7.4l-.7-.4v-.8Z"/>
  <path class="cls-5" d="M88.3,103.2l.7-.4.7.4v.8s-.7.4-.7.4l-.7-.4v-.8Z"/>
  <path class="cls-1" d="M49.2,104.4c7.2-.9,14.8-.5,22-.2l-.2,1.7c-7.7.5-16-.8-23.5,1-3.5,0-7,.3-10.5-.3-2.8-.5-5.2.9-8,0-.5.4-1,.9-1.4,1.3-.3-1-.5-2-.7-2.9,7.4-.6,15,.7,22.3-.7Z"/>
  <path class="cls-6" d="M94.3,103.9c.9.8,2.4,1.7,1.9,3.1-.4,1.4-2.7,2.1-3.9,2.9l2.2.3c-2.6,1.2-5.6.8-8.4.8-5-.2-10.1.4-15-.4.7-.7.7-1.4-.1-2,0-.9,0-1.8,0-2.6,3.4-.4,6.8-.8,10.2-.6,3.9.2,7.6-.5,11.5.2.5-.6,1-1.1,1.6-1.7Z"/>
  <path class="cls-1" d="M97.2,105c1.4.7,1.4,1.4,0,2v-2Z"/>
  <path class="cls-3" d="M29,106.7c2.8.8,5.2-.6,8,0,3.5.7,7,.3,10.5.3,7.5-1.9,15.8-.6,23.5-1,0,.9,0,1.8,0,2.6l-.6,1.9c-.9,0-1.8,0-2.6,0l-.2-.3-.5.3h-1s-.6-.3-.6-.3l-.2.4h-2.4s-.1-.5-.1-.5l-.7.5h-1l-.6-.4-.2.4h-2.2c-.3-.4-.6-.4-.9,0h-2.3s-.1-.5-.1-.5l-.7.5h-1s-.6-.4-.6-.4l-.2.4h-2.2s-.6-.4-.6-.4v.5c-.1,0-2.5,0-2.5,0l-.2-.5-.6.5h-2.2s-.1-.5-.1-.5l-.6.5h-2.2l-.2-.5-.6.5h-2.2v-.5c-.1,0-.8.5-.8.5h-2.2s-.2-.5-.2-.5l-.6.5h-2.1c-.3-.3-.6-.3-.8,0-.9,0-1.6,0-2.4-.4-.4-.8-.9-1.5-1.3-2.3.5-.5.9-.9,1.4-1.3Z"/>
  <path class="cls-2" d="M70.9,108.6c.8.6.8,1.3.1,2h-.7c0-.1.6-2,.6-2Z"/>
  <path class="cls-2" d="M73.5,109.2c.9-.7,3-.7,3.9,0,.6,1.4-4.5,1.4-3.9,0Z"/>
  <path class="cls-2" d="M79.3,109.1l.7-.4.7.4v.8l-.7.4-.7-.4v-.8Z"/>
  <path class="cls-2" d="M82.5,109.2c.9-.7,3-.7,3.9,0,.6,1.4-4.5,1.4-3.9,0Z"/>
  <path class="cls-2" d="M88.5,109.1c1-1.3,3.2.2,1.5,1.2-1.1,0-1.6-.3-1.5-1.2Z"/>
  <path class="cls-1" d="M95.7,109.3l-.5.5.5-.5Z"/>
  <path class="cls-6" d="M32,110.7h-.8c.2-.3.5-.3.8,0Z"/>
  <path class="cls-2" d="M34.7,110.3l.2.5h-.8s.6-.5.6-.5Z"/>
  <path class="cls-6" d="M37.7,110.2v.5c.1,0-.6,0-.6,0l.6-.5Z"/>
  <path class="cls-2" d="M40.7,110.3l.2.5h-.8l.6-.5Z"/>
  <path class="cls-6" d="M43.7,110.2v.5c.1,0-.6,0-.6,0l.6-.5Z"/>
  <path class="cls-2" d="M46.7,110.3l.2.5h-.8l.6-.5Z"/>
  <path class="cls-6" d="M49.3,110.2l.6.5h-.8s.1-.5.1-.5Z"/>
  <path class="cls-1" d="M52.3,110.2l.6.4h-.8s.2-.4.2-.4Z"/>
  <path class="cls-6" d="M54.6,110.2v.5c.1,0-.7,0-.7,0l.7-.5Z"/>
  <path class="cls-6" d="M57.9,110.7h-.9c.3-.5.6-.5.9,0Z"/>
  <path class="cls-1" d="M60.3,110.3l.6.4h-.8s.2-.4.2-.4Z"/>
  <path class="cls-6" d="M62.6,110.1v.5c.1,0-.7,0-.7,0l.7-.5Z"/>
  <path class="cls-1" d="M65.3,110.2l.6.3h-.8s.2-.3.2-.3Z"/>
  <path class="cls-6" d="M67.5,110.3l.2.3h-.7s.5-.3.5-.3Z"/>
  <path class="cls-7" d="M65.1,47.7c4.5,2.6,4.4,8.5,4.8,13.1-.2,5-.9,11.3-5,14.6s-4.3,1.9-6.5,1.3l-4.9-2.6h0c-.9-.3-1.2-1.4-.7-2.1l1.5-2.3c1.9-1.2,4.7,4.1,8.4,1.2s1.5-1.8,1.6-3,.2-1.7.2-2.5c-1.4,0-2.7,0-4.1-.1-.2,0-.5,0-.7,0-4.1.2-7.6-4.2-7.8-8.1,0-6.7,6.6-12.3,13.1-9.4Z"/>
  <path class="cls-5" d="M62.7,52.2c2.9,2.3,1.6,5.1,1.9,8.3-4.3.2-5.7,1-7.6-3.6v-1c1.8-2.1,2.5-4.5,5.7-3.8Z"/>
</svg>