<?xml version="1.0" encoding="UTF-8"?>
<svg id="_Слой_1" data-name="Слой 1" xmlns="http://www.w3.org/2000/svg" version="1.1" viewBox="0 0 120 120">
  <defs>
    <style>
      .cls-1 {
        fill: #da4731;
      }

      .cls-1, .cls-2, .cls-3, .cls-4, .cls-5, .cls-6 {
        stroke-width: 0px;
      }

      .cls-2 {
        fill: #fefefd;
      }

      .cls-3 {
        fill: #b0b8ab;
      }

      .cls-4 {
        fill: #99d700;
      }

      .cls-5 {
        fill: #008f01;
      }

      .cls-6 {
        fill: #001412;
      }
    </style>
  </defs>
  <path class="cls-6" d="M63.9,13.3c-.7.8-1.5,1.6-2.3,2.4-.7.6-1.5,1.1-2.2,1.6,1.2,1.5,2.4,3,3.6,4.4-3.4-1.1-6.2-2.6-9.9-1.8-2.5.4-4.3,1.8-6.2,3.3-1.2,0-2.5-.1-3.7-.2.1-.9.3-1.8.4-2.7,6.5-3.2,13.8-3.8,20.4-6.9Z"/>
  <path class="cls-1" d="M68.1,15.4c-2.1,1.4-3,3.4-4.1,5.6l-1,.7c-1.2-1.5-2.4-2.9-3.6-4.4.8-.5,1.5-1.1,2.2-1.6,0,.9,0,1.7,0,2.6,2.8-1.2,3-3.8,6.5-2.9Z"/>
  <path class="cls-4" d="M39.7,16.3c1.2,1.3,2.5,2.6,3.8,3.9-.1.9-.3,1.8-.4,2.7,1.2,0,2.5.1,3.7.2-.9.7-1.9,1.4-2.8,2-1.7-1.7-3.4-3.5-4.8-5.4-.4-1-.8-2.1-1.2-3.2.6-.1,1.1-.2,1.7-.3Z"/>
  <path class="cls-6" d="M68.1,15.4c5.2,1.1,10.4,2.9,15.3,5,.2.6.5,1.3.7,1.9-1.7.8-3,1-4.9.9-1.6-1.2-3.4-2.8-5.3-3.3-3.4-.7-6.6.1-9.9,1.1,1.1-2.2,2-4.2,4.1-5.6Z"/>
  <path class="cls-4" d="M88,16l.6.9c-.2,1.3-.4,2.6-.5,4-.7-.1-1.4-.3-2-.5-.8,1.3-1.5,2.7-2.4,3.9-1.7.8-2.9-.2-4.4-1.1,1.9,0,3.2-.1,4.9-.9-.2-.6-.5-1.3-.7-1.9,1.7-1.3,3.2-2.8,4.6-4.4Z"/>
  <path class="cls-1" d="M38,16.6c.4,1,.8,2.1,1.2,3.2v1c-1.2,2-2.8,3.4-4.7,4.8,2.2,1.8,4.2,3.5,5.3,6.2.8,0,1.7-.1,2.5-.2-1,2.1-1.9,4.2-3.4,6-2.1-2.3-2.2-5.3-3.8-7.8-.9-1.1-2.1-.7-3.4-.9-1.7-.6-2.5-.9-3.2-2.7,1.9-1.3,3.9-2.5,5.7-3.9,1.5-1.7,2.5-3.8,3.8-5.6Z"/>
  <path class="cls-1" d="M88.6,16.9c2.6,4.2,5.4,6.6,9.5,9.3-1,1.9-2.1,2.2-4,2.9-1,.3-2,.7-3,1-.8,2.3-1.6,4.6-2.4,6.9-2.4-1.4-3.5-4.3-5.4-6.5l-.5-1.7c1.4.9,2.8,1.8,4.1,2.7,1.4-2,2.9-4,4.5-5.8-1.1-1.3-2.3-2.6-3.4-3.9v-.9c0-1.3.3-2.7.5-4Z"/>
  <path class="cls-2" d="M39.2,19.7c1.4,2,3.1,3.7,4.8,5.4.9-.7,1.9-1.4,2.8-2,2-1.5,3.7-2.9,6.2-3.3,3.7-.8,6.5.7,9.9,1.8l1-.7c3.2-.9,6.5-1.8,9.9-1.1,2,.6,3.7,2.1,5.3,3.3,1.4.9,2.6,1.9,4.4,1.1.9-1.2,1.7-2.6,2.4-3.9.7.2,1.3.3,2,.5v.9c-.1,2-.5,3.9-1,5.8-1.3-.4-2.6-.9-3.9-1.1-1.2.6-.4,1.3-.3,2.3l.5,1.7c-.4,3.9-1.2,7.6-2.1,11.4,2.8-.2,5.9.5,8.2-1.5,2.4-1.7,3.5-4.9,4.7-7.4.1.9.3,1.8.4,2.7-.2,1.4-.3,2.8-.6,4.2-.7,1.1-2.8,2.8-1.3,4,.6.7,1.2,1.3,1.8,2,1.3,1.7,2.1,3.5,3.9,4.8.8-1.6,1.7-3.3,2.5-4.9,0,1.4,0,2.9,0,4.3,0,1.1.1,2.2.4,3.1-2-.5-3.8-.8-5.5-2.1-1.2-2.3-2.1-4.4-4.4-5.8-4.3-2.7-8.6-2.1-13.4-1.5,1.9-4.2,3.6-8.1,3-12.9-.4-4.6-3.9-8.7-8.4-9.6-3.6-.6-6.6,1.2-9.8,2.6-2.8-1.2-5.5-3.1-8.7-2.6-5,.5-9.1,4.7-9.5,9.7-.7,4.9,1.2,8.7,3.1,13-5.2-.7-9.8-1.6-14.5,1.4-5.4,3.2-7.3,10.2-4.5,15.8,1.4,2.1,3.3,3.9,4.9,5.9-.2,1.9-.4,3.7-.4,5.6,0,.8,0,1.6,0,2.4-1.4.2-2.8.4-4.3.6-.2-1-.5-1.9-1-2.8.4-.7.9-1.4,1.3-2.1.9.7,1.8,1.3,2.7,1.9,0-1.2,0-2.5,0-3.7-1.1-3.4-2.9-5.6-6.3-6.8.3-3.5.2-7.1.9-10.5,1.3-4.8,6.4-8,10.5-10.1,2.2-.5,4.6,0,6.9,0-.4-3.5-.8-7-1.2-10.6.4-1.5.9-3,1.3-4.5-1.5.5-3,1-4.5,1.5-.9-2.4-.8-4.6-.5-7.1v-1Z"/>
  <path class="cls-4" d="M39.1,20.7c-.3,2.5-.5,4.7.5,7.1,1.5-.5,3-1,4.5-1.5-.4,1.5-.8,3-1.3,4.5l-.4.8c-.8,0-1.6,0-2.5.2-1.2-2.7-3.1-4.4-5.3-6.2,1.8-1.3,3.4-2.7,4.5-4.8Z"/>
  <path class="cls-6" d="M54.2,21.3c3.2-.5,5.9,1.4,8.7,2.6,3.2-1.4,6.2-3.1,9.8-2.6,4.6.9,8.1,5,8.4,9.6.6,4.8-1.1,8.7-3,12.9,4.8-.6,9.1-1.2,13.4,1.5,2.3,1.4,3.2,3.6,4.4,5.8-.7.2-1.3.5-1.9.7l-.9-1.1c-.9-1.2-1.9-2.2-2.9-3.3-1.5-1.7-3.1-2-5.3-1.7h-.7c-1,.1-2.1.2-3.1.3h-.8c0,0-1.7.6-1.7.6l-.7.3c-1-.4-1.7-.2-2.2.8-1.3.7-2.6,1.4-3.8,2.1-2.2,1.5-5.5,3.5-6.4,6.1,0,5.4,2.1,11,4.9,15.6,3.3,4.6,9.4,8,15.1,6,3.5-1.5,5.5-4.6,3.9-8.3-1.3-2.2-2.8-4.3-4.5-6.1,1,0,2,0,3.1,0,.3,1.8,1.9,2.3,3.2,1,1.1-1.7-1.6-1.6-2.6-1.5,1.5-1,3.5-2.1,4.5-3.7.9-1.7,1.5-3.8,2.1-5.6l1.4.7c.4.5.9,1.1,1.3,1.6-1.5,4.8-3,7.5-6.5,11.1.5,2.2,1,4.4,1.6,6.5-.6,1.1-1.2,2.2-1.8,3.3-1,2.3-2.3,2.8-4.5,3.7-2,1.6,2.1,3.3,2.9,4.7-3.7-1-6.8-1.6-9.9,1.2,4.4-.8,7.3-.9,11.5,1l.4.2c1.9-2.4,3.9-4.4,6.6-6,3.3,4.2,2.1,8.8.7,13.5-1,2.8-2.2,5.9-5.3,6.9-3.1,1-7,0-10.2-.6-15.3-3-30.5-2.2-45.7.7-3.5.6-7.1.7-9.4-2.5-2-3.4-3-7.6-3.4-11.4-.2-2.9,1.4-4.9,3-7.1.5,0,1.1.2,1.6.3.5-.3,1.1-.6,1.6-.9,1.6-.6,2.6-1.6,1.8-3.4.6-.4,1.2-.9,1.7-1.3.5-.3,1-.7,1.5-1,1.5,1.2,3.1,2.8,5,3.2,3.1.2,6.1-.6,9.3,0-1.6.8-3.2,1.5-4.8,2.4-2.3-.8-4.4-1.1-6.8-.9,2,1.3,3.7,2.1,6.2,1.5,5.3-.3,9.4-3.1,12.2-7.5,0-.7,0-1.5,0-2.2-.6-2.5.8-4.1,1.5-6.4,1.2-3.1,1.7-6.3,2-9.5-2.2-2.5-4.5-4.3-7.5-5.8-2.6-1.6-5.3-2.9-8.3-3.7-4.1-.6-8-.2-11.3,2.6-.8.6-1.5,1.2-2.2,1.8-2.6,3.6-1,6.6.2,10.3,1.7.8,3.5,1.6,5.1,2.4-1.2-.2-3.2-.1-2.3,1.6,1.2,1.2,2.6.3,3.4-.8.8,0,1.5,0,2.3,0-1.2,1.3-2.5,2.7-3.4,4.3-.8,1.7-1.4,3.5-1.9,5.3l-1.6-.7c0-1.9.2-3.7.4-5.6-1.6-1.9-3.5-3.8-4.9-5.9-2.8-5.5-.9-12.6,4.5-15.8,4.7-3,9.3-2.1,14.5-1.4-1.9-4.3-3.8-8.1-3.1-13,.4-5,4.4-9.2,9.5-9.7Z"/>
  <path class="cls-4" d="M88.1,21.8c1.1,1.3,2.2,2.6,3.4,3.9-1.6,1.9-3.1,3.8-4.5,5.8-1.4-.9-2.7-1.8-4.1-2.7-.1-1.1-.9-1.7.3-2.3,1.3.3,2.6.7,3.9,1.1.5-1.9.9-3.9,1-5.8Z"/>
  <path class="cls-4" d="M51.9,24.1c3.1.8,6.2,1.8,9.3,2.6.6,1,1.2,2.1,1.8,3.1.6-1,1.2-2,1.8-3,3.6-1.7,6.8-1.9,10.7-1.8.7.5,1.3,1.1,1.9,1.7-.7.4-1.4.9-2.1,1.3-1.7-.8-3.4-1.5-5.1-2.1-.7.9-1.4,1.8-2.1,2.8-1,.9-2.1,1.6-3.1,2.4,3.2.5,5.6.9,7.9,3.5-.9.4-1.8.9-2.7,1.3-.4-1.2-1.1-1.9-2.1-2.1-1.5.3-.7,2.3,0,3.1-1.7.6-3.6,1.6-5.4,1.7-1.3-.2-2.6-.9-3.9-1.4l.2-1.8c-.5-2.2-2.1-1-3.3-.2l-1.2-.9c.8-.9,1.5-2,2.4-2.7,1.5-.4,3-.3,4.5-.4-.9-1-1.9-2.1-2.9-3-.8-.7-1.6-1.4-2.5-2-1.8.5-3.5,1.1-5.2,1.8-.6-.4-1.3-.9-1.9-1.3.9-.9,1.9-2.2,3.2-2.7Z"/>
  <path class="cls-2" d="M51.9,24.1c3.7-.7,7.2-1.1,9.3,2.6-3.1-.9-6.2-1.8-9.3-2.6Z"/>
  <path class="cls-2" d="M75.4,25.1c-3.8-.1-7.1.1-10.7,1.8,1.9-4.1,7.3-3.8,10.7-1.8Z"/>
  <path class="cls-2" d="M55.8,26.4c.9.6,1.7,1.3,2.5,2-1.5,1.1-2.9,2.2-4.4,3.4-1.1-1.2-2.1-2.4-3.3-3.6,1.7-.7,3.4-1.3,5.2-1.8Z"/>
  <path class="cls-2" d="M70.1,26c1.7.6,3.4,1.3,5.1,2.1-1,1.2-1.9,2.4-2.9,3.7-1.4-1-2.8-2-4.3-3,.7-.9,1.4-1.8,2.1-2.8Z"/>
  <path class="cls-5" d="M48.7,26.8c.6.4,1.3.9,1.9,1.3,1.1,1.2,2.2,2.4,3.3,3.6,1.5-1.1,3-2.2,4.4-3.4,1.1.9,2,2,2.9,3-1.5.1-3.1,0-4.5.4-1,.7-1.7,1.8-2.4,2.7l1.2.9c1,.8,2,1.5,3.2,2,1.3.5,2.6,1.2,3.9,1.4,1.8-.1,3.7-1.1,5.4-1.7.7-.3,1.4-.6,2.1-1,.9-.4,1.8-.9,2.7-1.3-2.2-2.6-4.6-3-7.9-3.5,1.1-.8,2.1-1.6,3.1-2.4,1.4,1,2.9,2,4.3,3,1-1.2,1.9-2.5,2.9-3.7.7-.5,1.4-.9,2.1-1.3,1.6,2.2,1.5,4.6,1.8,7.3-1.6.8-1.8,2.6-.9,4-2.6,6-7.5,8.6-12.2,13,2-3.2,3-6.5,3.6-10.2-3.8,1.4-4.8,4.3-6.1,7.8-1.1-2.2-2.3-4.1-3.7-6-.9.6-2.5,1.1-2.4,2.5.2,1.6.8,3.2,1.4,4.7-3.2-2.5-6.1-5-9-7.8.3-1.8-.3-3.4-2.2-3.8-.2-.8-.4-1.5-.7-2.3,1.6-.8,1.5-1.4-.2-1.8.2-2.7.2-5.1,1.8-7.3Z"/>
  <path class="cls-6" d="M35.2,29.7c1.7,2.5,1.7,5.5,3.8,7.8,1.5-1.8,2.4-3.9,3.4-6l.4-.8c.4,3.5.9,7,1.2,10.6-2.2,0-4.7-.4-6.9,0-4.1,2.2-9.2,5.4-10.5,10.1-.6,3.4-.6,7-.9,10.5,3.4,1.2,5.2,3.4,6.3,6.8-1-.4-2-.7-3.1-1.1l-1,1.1-1,1.4c-2.6-3.3-4.1-6.4-4.9-10.5,1.7-.9,2.3-1.3,2.9-3.1-1.3,0-2.6,0-4,0-.6-4.6.3-9,.8-13.5,2.1.9,3.5,2.6,5,4.2,1.5-1.6,3.1-3.2,4.7-4.7l.7-.4h0s-.3-.3-.3-.3c-1.8-1.5-3.4-3.1-4.8-5.1-.1-.8-.2-1.5-.4-2.3,1.7-2,3.3-3.9,4.9-6,1.3.2,2.5-.1,3.4.9Z"/>
  <path class="cls-6" d="M94.1,29.1c3.4,3.4,6.5,6.9,8.5,11.4,1.2,2.7,1.4,5.6,1.7,8.5-1.1-1-2.2-2.1-3.3-3.1-.9,1.6-1.7,3.3-2.5,4.9-1.7-1.3-2.6-3.1-3.9-4.8,1.3-1.5,2.6-3,4-4.4-1.3-1.9-2.7-3.9-4-5.8-.2-.9-.3-1.8-.4-2.7-1.2,2.5-2.3,5.8-4.7,7.4-2.3,2-5.4,1.4-8.2,1.5,1-3.8,1.7-7.5,2.1-11.4,1.9,2.1,3,5,5.4,6.5.8-2.3,1.5-4.6,2.4-6.9,1-.3,2-.7,3-1Z"/>
  <path class="cls-5" d="M62.5,33.2c1.3-.7,2.3,1.3,1.4,2.2-1.3.6-2.2-1.3-1.4-2.2Z"/>
  <path class="cls-2" d="M33.9,34.2c.9,1,1.8,1.9,2.8,2.9-1,1.2-2,2.3-3.1,3.4-1.1-1.2-2.1-2.5-3.2-3.7,1.2-.9,2.4-1.8,3.6-2.6Z"/>
  <path class="cls-3" d="M46.9,34.1c1.8.4,1.8,1,.2,1.8l-.2-1.8Z"/>
  <path class="cls-2" d="M58.8,35.5l-.2,1.8c-1.2-.4-2.2-1.1-3.2-2,1.2-.8,2.8-2,3.3.2Z"/>
  <path class="cls-2" d="M68,33.9c1,.2,1.7.9,2.1,2.1-.7.4-1.4.7-2.1,1-.7-.8-1.5-2.7,0-3.1Z"/>
  <path class="cls-2" d="M79.1,34c.3,1.6,0,2.6-.9,4-1-1.4-.7-3.2.9-4Z"/>
  <path class="cls-1" d="M26.9,34.8c.1.8.3,1.5.4,2.3-.5,1.9-1.2,3.5-.4,5.4,1.5.1,3.1.2,4.6.3-1.6,1.5-3.1,3.1-4.7,4.7-1.5-1.7-2.9-3.3-5-4.2l-1.6-.8c2.1-2.7,4.5-5.1,6.6-7.7Z"/>
  <path class="cls-1" d="M94.6,35.7c1.3,2,2.7,3.9,4,5.8-1.4,1.4-2.8,2.9-4,4.4-.6-.7-1.2-1.4-1.8-2,.8-.5,1.6-1.2,2.3-1.8,1-1-.3-1.7-1-2.2.2-1.4.4-2.8.6-4.2Z"/>
  <path class="cls-2" d="M27.3,37c1.3,2,3,3.6,4.8,5.1l.2.3-.7.4c-1.5,0-3.1-.2-4.6-.3-.9-2-.1-3.5.4-5.4Z"/>
  <path class="cls-4" d="M71.1,37.4c1.1-.1,2.4.4,2.8,1.5-.4,1.8-7.3-.5-2.8-1.5Z"/>
  <path class="cls-2" d="M84.3,37.3c2-.3,2.4,2.7.6,3.3-1.7.1-2.2-2.7-.6-3.3Z"/>
  <path class="cls-2" d="M40.2,38.2c1.8-1.2,2.9,1.6.8,2-1.1-.3-1.4-1-.8-2Z"/>
  <path class="cls-2" d="M47.8,38.2c1.9.4,2.5,2,2.2,3.8-1.7-1.1-2.2-1.7-2.2-3.8Z"/>
  <path class="cls-4" d="M58.1,38c-2.1,1-4.3,1.8-6.6,2.5.6-3.8,3.8-2.2,6.6-2.5Z"/>
  <path class="cls-4" d="M59.4,40.1c1.5-1,2.6,1.4.8,1.8-1-.3-1.2-.9-.8-1.8Z"/>
  <path class="cls-4" d="M94,39.9c.7.6,2,1.2,1,2.2-.7.7-1.5,1.3-2.3,1.8-1.5-1.3.6-2.9,1.3-4Z"/>
  <path class="cls-4" d="M32,42.1l.3.2h0s-.2-.2-.2-.2Z"/>
  <path class="cls-2" d="M99.2,43.1c1.5.7.3,2.4-1,2.1-1.6-.7-.3-2.3,1-2.1Z"/>
  <path class="cls-2" d="M45,45.7c-.4.9-.8,1.8-1.2,2.6.9.2,1.7.4,2.6.6-.7.3-1.5.6-2.2.9-.5-.3-1.1-.7-1.7-1,0-1,0-2,0-2.9-2.9.9-5.8,1.6-8.7,2.4,3.2-2.9,7.1-3.3,11.3-2.6Z"/>
  <path class="cls-4" d="M42.4,45.9c0,1,0,2,0,2.9.5.3,1.1.7,1.7,1,.7-.3,1.5-.6,2.2-.9-.9-.2-1.7-.4-2.6-.6.4-.9.8-1.7,1.2-2.6,3,.8,5.7,2.2,8.3,3.7-2.2-.1-4.3-.5-6.5-.9,1,1.2,2,2.3,3,3.5-1.4,0-2.9.2-4.3.2.4,2.2.6,4.2.4,6.5,2,.7,3.8.2,5.9,0-1.2,1.8-2.4,3.6-3.6,5.4,2.1-.3,4.2-.5,6.2-.9.2,1.9.6,3.8,1,5.7-1.7,1.1-3.4,2-5.2,2.9-.9-1.3-1.8-2.8-2.9-4-2-1-4.3-1.5-6.4-2.3-1.2,1.4-2.5,2.8-3.8,4.2l-.2-1.7c.9-1.6,2.1-3,3.4-4.3,1.5-1.2,3.1-2.3,4.6-3.5-2.5-.5-5.9-.6-7.9-2.3-1.7-1.5-3.4-3-3.1-5.5,1,1,2,1.9,3,2.9.7,1,1.4,2,2.1,3,2.6-2.1,1.9-4.8,1.2-7.6l-.5-1.7c-2.7-.4-3.9.7-5.8,2.3-1.1-.2-1.7-.4-2.4-1.3.7-.7,1.4-1.3,2.2-1.8,2.9-.8,5.8-1.5,8.7-2.4Z"/>
  <path class="cls-2" d="M80.3,46.2c0,1.8-.5,1.9-1.7.5l1.7-.5Z"/>
  <path class="cls-4" d="M80.3,46.2h.8c.3,1.3.5,2.6.7,4,1.2-1.3,1.8-2.6,2.4-4.3h.7c1.7,1.8,2.9,2,5.3,1.6,1.1,1,2,2.1,2.9,3.3l-1.8.2c-2.2-1.7-3.2-2.4-6.1-1.9-.2.9-.4,1.9-.5,2.8-.6,3.5-.3,4.3,1.9,7-1.8.5-3.7.9-5.5,1.4,1.3.9,2.6,1.8,3.8,2.8,1.8,1.8,3.3,3.9,4.5,6.1-2,.5-3.2-2.4-4.4-3.6-2.2.7-4.4,1.3-6.6,2-.3,1-.6,2-.9,2.9-1,0-1.9,0-2.8-.1.6-.6,1.1-1.2,1.7-1.8-.2-.8-.4-1.5-.7-2.3-1,.5-1.9.9-2.9,1.4.3.8.7,1.6,1.1,2.3-1.2-.5-2.2-1.2-3.3-1.9.3-1.6.7-3.2.9-4.8,2.1.3,4.2.6,6.2.8-1.2-1.8-2.3-3.5-3.6-5.3,2.1.3,4.1.3,6.2.1-.4-2.3-.5-4.2,0-6.6-1-.2-2-.4-2.9-.6.3-1,.7-1.9,1-2.9-2.2.3-4.4.6-6.6,1,1.2-.8,2.5-1.4,3.8-2.1,1,.5,1.8.2,2.2-.8l.7-.3c1.2,1.4,1.8,1.3,1.7-.5Z"/>
  <path class="cls-2" d="M81.2,46.2c1,0,2.1-.2,3.1-.2-.6,1.7-1.2,3-2.4,4.3-.2-1.4-.4-2.7-.7-4.1Z"/>
  <path class="cls-2" d="M85,45.9c2.2-.3,3.8,0,5.3,1.7-2.4.4-3.6.1-5.3-1.7Z"/>
  <path class="cls-1" d="M100.9,45.9c1.1,1,2.2,2,3.3,3.1,1.3,1.3,2.6,2.8,3.8,4.1-1.2.6-2.5,1.3-3.7,2l-1.2-.5c-.7,1.5-1.4,3-2.1,4.6-.8-.7-1.5-1.4-2.2-2.1l-.9-1.2c-.4-.6-.9-1.1-1.3-1.6,1.9,0,3.5.9,4.8-.9,1-.2,2.8-.2,2.1-1.7-.6-.8-1.4-1.2-2.6-1.4,0-1.4,0-2.9,0-4.3Z"/>
  <path class="cls-2" d="M78,47c-.5,1-1.2,1.2-2.2.8.5-.9,1.3-1.2,2.2-.8Z"/>
  <path class="cls-5" d="M46.7,48.5c2.2.5,4.3.8,6.5.9,3,1.5,5.3,3.3,7.5,5.8-.3,3.3-.8,6.5-2,9.5-.7,2.3-2.1,4-1.5,6.4-1.6,3.1-3.4,5.3-6.7,6.8-3.1-.7-6.1.1-9.3,0-1.9-.4-3.5-2.1-5-3.2-.5.3-1,.6-1.5,1,0-.8.2-1.5.3-2.3.5-1.8,1.1-3.6,1.9-5.3l.2,1.7c1.3-1.4,2.5-2.8,3.8-4.2,2.1.7,4.4,1.3,6.4,2.3,1.1,1.2,2,2.7,2.9,4,1.8-.8,3.5-1.8,5.2-2.9-.4-1.9-.7-3.8-1-5.7-2.1.3-4.2.6-6.2.9,1.2-1.8,2.4-3.6,3.6-5.4-2.1.2-3.9.7-5.9,0,.2-2.3,0-4.3-.4-6.5,1.4,0,2.8-.2,4.3-.2-1-1.2-2-2.3-3-3.5Z"/>
  <path class="cls-2" d="M39.8,49.1l.5,1.7c-1,1.6-2.2,3.1-3.3,4.6-1-1-2-1.9-3-2.9v-1.1c1.9-1.6,3.2-2.7,5.8-2.3Z"/>
  <path class="cls-5" d="M78.6,48.9c-.3,1-.7,1.9-1,2.9,1,.2,2,.4,2.9.6-.5,2.3-.4,4.2,0,6.6-2.1.2-4.1.1-6.2-.1,1.2,1.8,2.4,3.5,3.6,5.3-2.1-.2-4.2-.5-6.2-.8-.3,1.6-.6,3.2-.9,4.8,1,.7,2.1,1.4,3.3,1.9l.8.3c.9,0,1.9.1,2.8.1.3-1,.6-2,.9-2.9,2.2-.6,4.4-1.3,6.6-2,1.2,1.2,2.4,4.1,4.4,3.6,1.5,3.7-.4,6.9-3.9,8.3-5.7,2-11.8-1.4-15.1-6-2.9-4.6-4.9-10.2-4.9-15.6.9-2.5,4.2-4.6,6.4-6.1,2.2-.4,4.4-.7,6.6-1Z"/>
  <path class="cls-2" d="M85.3,49.1c2.9-.4,3.9.2,6.1,1.9l-.4,2.1c-.8.4-1.5.9-2.2,1.4-2-.2-2.7-1.1-4-2.5.2-.9.3-1.9.5-2.8Z"/>
  <path class="cls-5" d="M31.5,50.2c.8.9,1.3,1,2.4,1.3v1.1c-.4,2.5,1.3,4,3.1,5.5,2,1.7,5.3,1.8,7.9,2.3-1.5,1.2-3.1,2.3-4.6,3.5-.8,0-1.5,0-2.3,0l-1.1-.8c-1.7-.9-3.4-1.7-5.1-2.4-1.2-3.7-2.8-6.8-.2-10.3Z"/>
  <path class="cls-4" d="M101,50.1c1.1.2,2,.7,2.6,1.4.6,1.5-1.1,1.5-2.1,1.7-.3-1-.5-2-.4-3.1Z"/>
  <path class="cls-2" d="M24.1,51.4h.8s.4.7.4.7l-.4.7h-.8l-.4-.7.4-.7Z"/>
  <path class="cls-5" d="M40.3,50.8c.6,2.8,1.4,5.5-1.2,7.6-.7-1-1.4-2-2.1-3,1.2-1.5,2.3-3,3.3-4.6Z"/>
  <path class="cls-5" d="M91.4,51l1.8-.2.9,1.1c.4.5.8,1.1,1.2,1.6-.6,1.9-1.2,3.9-2.1,5.6-.9,1.6-3,2.6-4.5,3.7l-.7.4c-1,0-2,0-3.1,0-1.2-1-2.5-1.9-3.8-2.8,1.8-.5,3.7-.9,5.5-1.4-2.2-2.7-2.5-3.5-1.9-7,1.3,1.4,2,2.3,4,2.5-.2,1.1.3,3,1.7,2,.6-.9.8-2,.5-3.4l.4-2.1Z"/>
  <path class="cls-4" d="M96,51.2c1.7,1.2,3.5,1.6,5.5,2.1-1.3,1.8-2.9.9-4.8.9l-1.4-.7c-.4-.5-.8-1-1.2-1.6.6-.2,1.3-.5,1.9-.7Z"/>
  <path class="cls-4" d="M91,53.1c.2,1.3,0,2.5-.5,3.4-1.4,1-1.9-1-1.7-2,.7-.5,1.4-1,2.2-1.4Z"/>
  <path class="cls-3" d="M108.1,53.1c-.2.8-.3,1.5-.5,2.3-1.2.6-2.3,1.1-3.5,1.6l.3-2c1.2-.7,2.5-1.3,3.7-2Z"/>
  <path class="cls-6" d="M103.2,54.6l1.2.5-.3,2c-.3,1.7-.6,3.4-.8,5.2-2.1.4-3.5.9-5,2.4,1,1.2,2,2.3,3,3.5-2.3,3-4.4,6.2-6.9,9.1l-.6-1.8c.1-2.7-.1-5.4,0-8.1,2-3.4,4.3-6.3,5-10.3.7.7,1.5,1.4,2.2,2.1.7-1.5,1.3-3.1,2.1-4.6Z"/>
  <path class="cls-2" d="M98,55.8l.9,1.2c-.7,4-3,6.9-5,10.3-.2,2.7,0,5.4,0,8.1l-.8-1.9c-.6-2.2-1-4.3-1.6-6.5,3.5-3.6,5-6.3,6.5-11.1Z"/>
  <path class="cls-5" d="M63.7,58.8c.4,4.1.7,8.3.8,12.4.1,5.9-2.8,10.8-5.9,15.6-1.6-.6-2-1.3-2.7-2.8,3.9-1.2,5.3-5,6.5-8.6,1.1-3.4.8-6.4-.3-9.8,0-2.7-.8-5,1.6-6.8Z"/>
  <path class="cls-2" d="M103.3,62.2c-.2,2.3-.4,4.1-2,5.9-1-1.2-2-2.3-3-3.5,1.5-1.5,3-2,5-2.4Z"/>
  <path class="cls-2" d="M36.9,62.9l1.1.8c-.8,1.1-2.2,2-3.4.8-.9-1.8,1.1-1.8,2.3-1.6Z"/>
  <path class="cls-2" d="M88,63.2l.7-.4c1-.2,3.7-.2,2.6,1.5-1.3,1.2-2.9.8-3.2-1Z"/>
  <path class="cls-2" d="M27.1,65.5c1.5-1.1,2.6,1.3.8,1.7-1-.3-1.2-.8-.8-1.7Z"/>
  <path class="cls-2" d="M50.2,66.2c1,.5,2.1,1.1,3.1,1.7-.5.7-.9,1.3-1.3,2-.8-.3-1.7-.7-2.5-1,.2-.9.5-1.8.8-2.6Z"/>
  <path class="cls-4" d="M62.1,65.6c1.1,3.3,1.3,6.4.3,9.8-1.2,3.5-2.6,7.3-6.5,8.6l-.5-.8c0-.1-.1-.2-.3-.3-1.2-.5-2.6-.9-3.9-1.3.8-.4,1.6-.7,2.4-1.1,3.8.3,5-2.8,6-5.8l.6-1.2c0-.1.1-.3.2-.4l.6-1.4c0-.2.1-.3.1-.4.4-1.8.7-3.7,1-5.6Z"/>
  <path class="cls-2" d="M75.8,66.3c.2.8.5,1.5.7,2.3-.6.6-1.1,1.2-1.7,1.8l-.8-.3c-.4-.8-.7-1.6-1.1-2.3,1-.5,1.9-1,2.9-1.4Z"/>
  <path class="cls-2" d="M66.2,67.1c2,3.4,3.1,6.9,6.3,9.5,2.3,2.2,5.1,2.7,7.9,3.9l.2.5c-5.1-.6-9.6-2.8-12.6-7-1.6-2.1-1.5-4.5-1.7-7Z"/>
  <path class="cls-2" d="M96.2,67c1.9-.4,2.3,2.1.6,2.7-1.9.4-2.3-2-.6-2.7Z"/>
  <path class="cls-6" d="M29,67.8c1,.3,2,.7,3.1,1.1,0,1.2,0,2.5,0,3.7-.9-.6-1.8-1.2-2.7-1.9-.5-.6-.9-1.2-1.4-1.8l1-1.1Z"/>
  <path class="cls-2" d="M40.9,67.9c1.2.8,2.2,2.1,3.1,3.1-.7.8-1.3,1.6-2,2.3-.7-.5-1.5-1.1-2.2-1.6.2-1-.5-3.9,1-3.8Z"/>
  <path class="cls-2" d="M85,67.8c.5,1.3,1.2,2.4.8,3.9-.4,1.6-2.5,1.1-3.7,1.3,0-3,.6-3.4,2.9-5.2Z"/>
  <path class="cls-1" d="M27.9,69c.5.6.9,1.2,1.4,1.8-.4.7-.9,1.4-1.3,2.1-.8.6-2.6,1.4-1.2,2.5.7.4,1.4.5,2.2.3,1.4-.2,2.8-.4,4.3-.6,0-.8,0-1.6,0-2.4l1.6.7c0,.8-.2,1.5-.3,2.3-.6.4-1.1.9-1.7,1.3-1.5.7-2.5,1.7-1.8,3.4-.5.3-1.1.6-1.6.9-.5,0-1-.2-1.6-.3-.7-3-2.6-4.2-5-5.9,1.5-1.4,2.8-2.9,3.9-4.6l1-1.4Z"/>
  <path class="cls-2" d="M57.2,71.2c.1.8.1,1.5,0,2.2-2.8,4.4-6.9,7.2-12.2,7.5l.6-.6c1.5-.9,3.2-1.6,4.8-2.4,3.3-1.4,5.1-3.6,6.7-6.8Z"/>
  <path class="cls-2" d="M61.1,71.2c0,.1,0,.3-.1.4v-.4Z"/>
  <path class="cls-4" d="M28,72.9c.5.9.8,1.8,1,2.8-.8.2-1.5,0-2.2-.3-1.4-1.1.4-1.9,1.2-2.5Z"/>
  <path class="cls-2" d="M60.4,73.1c0,.1-.1.3-.2.4l.2-.4Z"/>
  <path class="cls-1" d="M93.1,73.4l.8,1.9.6,1.8c.9,1.9,2.5,3,4,4.5-2.7,1.6-4.7,3.5-6.6,6l-.4-.2c-.5-.7-1.1-1.5-1.6-2.2-.8-1.4-4.9-3.1-2.9-4.7.4.4.8.8,1.3,1.2,1.2.9,2.4,1.6,3.8,2.2.7-.9,1.5-1.9,2.2-2.8-.6-1-1.2-2-1.9-2.9l-.9-1.3c.6-1.1,1.2-2.2,1.8-3.3Z"/>
  <path class="cls-2" d="M59.7,74.7c-1,3.1-2.1,6.1-6,5.8,2-1.9,4-3.8,6-5.8Z"/>
  <path class="cls-2" d="M33,76.9c.8,1.8-.2,2.8-1.8,3.4-.7-1.8.2-2.7,1.8-3.4Z"/>
  <path class="cls-2" d="M91.2,76.7l.9,1.3c0,1.2-.2,2.3-.3,3.5-1.3,0-2.5,0-3.8.2-.4-.4-.8-.8-1.3-1.2,2.2-1,3.5-1.4,4.5-3.7Z"/>
  <path class="cls-1" d="M68.8,77.9c.7,1.4,1.3,2.8,1.9,4.2-1.5,0-2.9,0-4.4,0,.4-2.1.8-2.9,2.5-4.2Z"/>
  <path class="cls-4" d="M92.2,78.1c.7,1,1.3,1.9,1.9,2.9-.7,1-1.5,1.9-2.2,2.8-1.3-.6-2.6-1.2-3.8-2.2,1.3,0,2.5-.1,3.8-.2.1-1.2.2-2.3.3-3.5Z"/>
  <path class="cls-5" d="M38.9,79.4c2.4-.2,4.5,0,6.8.9l-.6.6c-2.5.6-4.1-.2-6.2-1.5Z"/>
  <path class="cls-5" d="M84.6,80.2c-.4,1.8-2.7,1.1-4,.8l-.2-.5c1-1,3.6-2.4,4.2-.3Z"/>
  <path class="cls-4" d="M36.9,83c2.3,2.5,5.2,3.2,8.3,4-1,0-1.9.2-2.9.2-2.2-.4-4.3-.8-6.5-1.1-1.7-.3-2.7,1.2-4,2-1.3,0-2.6,0-4,.1-.1-.8-.2-1.5-.4-2.3,2.2-3.8,5.3-5.4,9.4-3Z"/>
  <path class="cls-2" d="M55.4,83.2l-.3-.3c.1,0,.2.1.3.3Z"/>
  <path class="cls-5" d="M66.3,82.1c1.5,0,3,0,4.4,0-1.6,1.5-3.2,2.9-5.1,3.9l-1.4-.5c.7-1.1,1.4-2.3,2.1-3.4Z"/>
  <path class="cls-4" d="M70.7,82.1h.6c1.4,1.3,1.9,2.4,2.4,4.1l-1.7.4c-.8,0-1.7.1-2.6.1-.6,0-1.2,0-1.8,0-.6-.2-1.3-.4-1.9-.6,1.9-1.1,3.5-2.4,5.1-3.9Z"/>
  <path class="cls-5" d="M71.3,82.3c1.9.5,3.8,1.2,5.7,1.9-1,.8-2.1,1.5-3.3,2-.5-1.7-1-2.8-2.4-4Z"/>
  <path class="cls-5" d="M36.9,83c3.7,1.8,7.6,1.9,11.6,2.4.6.4,1.1.9,1.6,1.5-1.6,0-3.3,0-4.9,0-3.2-.8-6.1-1.4-8.3-4Z"/>
  <path class="cls-4" d="M89.7,85.2c.5.7,1.1,1.5,1.6,2.2-4.2-1.9-7.1-1.8-11.5-1,3.1-2.8,6.2-2.2,9.9-1.2Z"/>
  <path class="cls-6" d="M30.4,85.1c1.5-1,2.6,1.3.8,1.7-1-.2-1.3-.8-.8-1.7Z"/>
  <path class="cls-5" d="M95.9,85c-.6,2.2-.6,3.7,0,5.9.7-.6,1.5-1.3,2.2-1.9-.5,2.9-1,6.1-2.4,8.7-1.3,2-4.2,2.1-6.3,2.6,1.3-2.9,2.6-5.5,2.3-8.8-.4-2.6,2.6-4.7,4.3-6.4Z"/>
  <path class="cls-4" d="M95.9,85h1.9c.1,1.3.2,2.6.2,3.9-.7.6-1.5,1.3-2.2,1.9-.6-2.2-.6-3.7,0-5.9Z"/>
  <path class="cls-5" d="M27.5,85.9c.1.8.2,1.5.4,2.3,1.3,0,2.6,0,4-.1,0,4,.5,8,1,11.9-4.3-2.7-6.1-9.4-5.3-14.1Z"/>
  <path class="cls-5" d="M35.8,86.1c2.2.2,4.3.7,6.5,1.1-1.1.5-2.2,1.1-3.2,1.7-1.1-.9-2.2-1.8-3.3-2.7Z"/>
  <path class="cls-5" d="M69.4,86.7c.9,0,1.7,0,2.6-.1-.3,1.4-.8,2.8-.8,4.2.7,2,1.7,3.7,1.8,5.9-.7.1-1.4.2-2,.3-1-3.6-3-6.6-3.4-10.3.6,0,1.2,0,1.8,0Z"/>
  <path class="cls-2" d="M78.9,86.8c0,3,.3,6.6-.8,9.5-.5,1.7-2.7,1.1-2.7-.4-.3-2.6-.8-4.2-2.4-6.3,1.8-2.3,3-2.8,5.9-2.8Z"/>
  <path class="cls-2" d="M83.6,87.5c2-.6,4.1-.3,5.4,1.5,2,3.2.8,9.6-3.9,9.3-5.5-.5-6.1-8.7-1.5-10.8Z"/>
  <path class="cls-2" d="M34.1,88.3c.8,0,1.6,0,2.4,0,.3,2,.5,4.2,1,6.2.6,1.2,2.1,2,3.1,2.9-2.5,1.1-3.5,1.4-6.1.5-.3-3.2-.9-6.3-.4-9.5Z"/>
  <path class="cls-2" d="M48,88.2c.8.7,1.5,1.5,2.3,2.2,1.4.9,3,1.7,4.5,2.5-.9,1.2-1.8,2.5-2.8,3.6-1.9.4-3.1-2.2-3.8-3.6-.5-1.5-1.8-3.5,0-4.7Z"/>
  <path class="cls-2" d="M65.6,88.2c.3,3.4,1.1,5.1,3.2,7.8-1.9.2-3.7.3-5.5.1-.3-2-.5-3.9-1.4-5.8-1.7,2.6-1.4,2.8,0,5.4-2.3,1-3.4,1.1-5.9.3.1-1.5-.5-4,.6-5.2,2.6-2,5.9-2.3,9-2.6Z"/>
  <path class="cls-2" d="M41.3,89.4c1.9-.5,3.4-.8,5.2.4-.9.6-1.8,1.1-2.7,1.7.9,2.1,1.8,3.4,3.5,4.9-1.7,1-3.4,1-5.3,1-.7-2.8-1.9-5.2-.6-8Z"/>
  <path class="cls-6" d="M54.1,89.9c1.2.4.8,2,.6,3-1.5-.8-3-1.6-4.5-2.5,1.4-.4,2.5-1.4,3.8-.5Z"/>
  <path class="cls-6" d="M85.1,90.2c1.9,1.6,2.1,5.4-1.2,4.9,0-2,0-3.2,1.2-4.9Z"/>
  <path class="cls-6" d="M101.1,77.8c-8.2-7.6-18.3-5.2-17.7-1.8-1,.4-3.6-3.2-11.1-1.3-5.1,3.1-8.9,4.3-7.1,10.4,2.1,2.1,4,6.6,4.3,10.5s3.4,5.3,6.5,4.5,3.1-1,5.5-1.6c2,.3,4.4,2.8,6.6,3.2,7.3,1.1,13.4-2.7,15.2-10.5,1.3-5.7-.7-12.5-2.2-13.2Z"/>
  <path class="cls-2" d="M79.8,77.8c0,5.3.4,11.4-1.4,16.4-.9,2.9-4.7,1.8-4.7-.7-.6-4.5-1.5-7.2-4.1-10.9,3.1-4,5.2-4.9,10.2-4.8Z"/>
  <path class="cls-2" d="M87.9,79.1c3.5-1.1,7.1-.6,9.4,2.5,3.4,5.6,1.5,16.6-6.8,16.1-9.5-.9-10.6-15-2.5-18.6Z"/>
  <path class="cls-6" d="M90.6,83.9c3.3,2.7,3.6,9.3-2.1,8.4,0-3.5-.2-5.6,2.1-8.4Z"/>
</svg>