<?xml version="1.0" encoding="UTF-8"?>
<svg id="_Слой_1" data-name=" Слой 1" xmlns="http://www.w3.org/2000/svg" version="1.1" viewBox="0 0 120 120">
  <defs>
    <style>
      .cls-1 {
        fill: #77de30;
      }

      .cls-1, .cls-2, .cls-3, .cls-4, .cls-5, .cls-6, .cls-7 {
        stroke-width: 0px;
      }

      .cls-2 {
        fill: #2ab9f3;
      }

      .cls-3 {
        fill: #001424;
      }

      .cls-4 {
        fill: #feffff;
      }

      .cls-5 {
        fill: #ff6a6a;
      }

      .cls-6 {
        fill: #ffb542;
      }

      .cls-7 {
        fill: #fffffe;
      }
    </style>
  </defs>
  <path class="cls-3" d="M5.7,56c1.7-7,3.2-13.4,7.6-19.3,1.7-2.3,1.2-2.7,0-5.1l-.9-2-1.1-1.5-1.1-1.8c0-1.5.6-2.9,1.7-4.2h1.7l1.5-.3,1.2-.3c1.8-2.1,3.6-6.2,6.6-6.6,3.2-.6,5.4,3.2,7.9,5,5.9-3.5,11.5-7.3,18.3-8.9l1.4-.5h1.7l1.4-.3h1.2c0-.2,1.7-.5,1.7-.5,8.3-.3,16.5,1.1,24.3,3.8l2,1.1c3.2,1.4,5.7,3.6,8.9,5.3,3.3-2.7,4.5-6.5,9.7-4.5l1.7,1.4c.9,1.4,1.7,2.7,2.6,3.9l.5,1.1h2.7l2.4,2.3.8,2c0,1.4-.6,2.7-1.5,3.9l-1.4,1.8-.6,1.8c-1.5.6-1.5,1.2,0,1.7l.6,1.8,1.4,1.8c11.9,23,5.9,42.9,0,52.4-20.4,34-74.5,31.9-97.2,2.1-1.1-1.7-2.1-3.5-3-5.6-1.1-2.1-1.8-4.2-2.3-6l-.3-1.4c-.5-2-1.1-4.1-1.7-6"/>
  <path class="cls-2" d="M58.6,14c-.5,1.4-1.1,2.4-1.8,3.3s-1.4,3.3-.5,5c.9,1.7,1.2,1.5,2.1,2.1,1.8,1.1,4.1.8,5.4-.8,2.4-2.7,3.6-6.2-1.5-7.4l-.9-1.1c1.4-1.4,2.7-2,4.1-1.7l2.1,1.1c1.8.3,3.6.6,5.3.9l2.1.9c3.2,1.2,6.3,2.6,9.2,4.2,3.2,1.2.6,3.6,0,5.7,1.2,3.8,3.9,7.1,4.8,10.9-.9,1.2-1.8,1.7-2.9,1.7-2.1-4.1-1.7-8.2-6.3-10.4-3.8-3.2-8-2.1-12.5-2.1-2.7.8-4.4,4.2-7.4,3.6-2.3-.8-3.6-3-5.9-3.6-4.4-.3-9.2-.8-13,1.7-4.2,2-4.8,6.8-5.9,10.7-1.1,0-2-.6-2.9-1.7,1.5-5.1,5.4-9.2,3.6-14.8-.5-3.2,6.5-4.8,8.8-6l2.1-.9c3.8-.3,7.6-.8,11.3-1.4,0,0,.5,0,.5,0Z"/>
  <path class="cls-5" d="M65.7,13.4l2.1,1.1-2.1-1.1Z"/>
  <path class="cls-2" d="M80.6,13.4l2,1.1-2-1.1Z"/>
  <path class="cls-5" d="M47.3,15.4l-2.1.9"/>
  <path class="cls-6" d="M61.6,15.1l.9,1.1c.3.8.5,1.5.6,2.4.3,1.4-.3,2.9-1.7,3.5s-2.7.3-3.2-1.5c.5-2,1.8-4.4,3.3-5.6h0v.2Z"/>
  <path class="cls-5" d="M75.4,16.3l-2.1-.9"/>
  <path class="cls-7" d="M98.9,19.4c.8,1.2,1.5,2.4,2.4,3.5.9,1.1.8.8,1.4,1.1l2.4.8c-.8.9-1.5,1.8-2.3,2.7-1.4-.5-2.6-1.2-3.8-2.4-2.4.5-4.7.9-7.1,1.1v-1.4c1.8-.3,3.3-1.1,4.2-2.1l1.5-1.7,1.4-1.4h-.2v-.2Z"/>
  <path class="cls-6" d="M13.7,21.9h-1.7"/>
  <path class="cls-2" d="M15.2,21.7h-1.5"/>
  <path class="cls-2" d="M97.3,20.7l-1.1,1.8,1.1-1.8Z"/>
  <path class="cls-7" d="M21.7,22.5l1.4-2.3c.3-.6,1.4-.6,1.7,0l1.4,2.4c2.3,2.6,5.6,1.8,5.6,3.5h-1.2c-2.4,0-4.7-.8-7.1-1.1-2.1.8-4.8,7.7-7.6,2l-.3-1.1c-.3-1.1,5.1-2.6,6.3-3.5h-.2Z"/>
  <path class="cls-6" d="M22.9,25h.8c2.3.3,4.4.8,6.6.9h1.2c-1.7,2.7-3.2,4.4-3.5,7.4s-1.2,1.7-2,1.4c-1.4-.6-2.7-1.7-5,0-.6.5-1.5-.3-1.8-1.1-1.4-3.6-.5-2.4-2.6-5.1s1.2-3.2,4.2-3.3,1.4,0,2-.3h0v.2Z"/>
  <path class="cls-2" d="M90.8,24.9l1.4-.3v1.4h-1.2v-1.1h-.2Z"/>
  <path class="cls-6" d="M99.1,24.9c1.2,1.2,2.4,2,3.8,2.4.8-.9,1.5-1.8,2.3-2.7l1.2.3c-.5,3.2-3.2,4.7-3.8,8.9-.6,4.2-.6.8-1.1.6-1.8-.6-3.3-.8-5.4,0s-1.5,0-1.7-.9c-.3-2.7-.6-4.4-3.6-7.6h1.2c2.4,0,4.7-.8,7.1-1.2h0v.2Z"/>
  <path class="cls-5" d="M11.7,29.7l1.7,2-1.7-2Z"/>
  <path class="cls-7" d="M57.1,33.5c-.9,2.6-3.5-.5-5.3.8l-1.4,2.4c-1.8-.3-2.9-2.4-4.7-2.6-1.5.9-3,2-4.5,2.9,1.5-7.1,11.6-9.4,15.9-3.5Z"/>
  <path class="cls-2" d="M69.8,30.3l-2,.9,2-.9Z"/>
  <path class="cls-7" d="M69.8,30.3l1.7-.5c1.5,2.6,2.7,2.6,3.6,0,1.4.9,2.7,2,3.9,3.2-3,.3-4.4,2.4-7,3.5-.6-1.4-1.4-2.4-2.4-3-1.8.6-3.6,1.4-5.4,2.1.8-1.7,2-3.2,3.5-4.4l2-.9h.2Z"/>
  <path class="cls-2" d="M71.4,30h3.6c-.9,2.6-2.1,2.6-3.6,0Z"/>
  <path class="cls-2" d="M110.6,30l-1.4,1.8,1.4-1.8Z"/>
  <path class="cls-6" d="M45.6,34c1.8,0,2.9,2.3,4.7,2.6l1.4-2.4c1.8-1.2,4.4,1.8,5.3-.8,2,2.7,3.3,8.5,1.5,11.5-4.1,1.2-3.9,5.3-7.1,7.7-3,2-6.5,3.8-10,5-3.8-.9-5.7-1.2-9.4.5-4.4-2.7-4.5-8.2-1.8-12.1,2.3.6,4.8,2.4,7.3,2,0-1.7.3-3.5.3-5.1.9-.8,2-1.5,2.9-2.3,0-1.4,0-2.6.5-3.8,1.5-.9,3-2,4.5-2.9h0v.2Z"/>
  <path class="cls-6" d="M69.6,33.7c1.1.6,1.8,1.7,2.4,3,2.6-1.1,3.9-3,7-3.5l-.5,2,.9,1.7h1.7c.5,2.1,0,3.9,1.4,5.7l-1.1.8c.3,1.7,3.5,3.8,4.8,5,1.8-.6,3.8-1.2,5.6-2,2.3,3,2.3,6.2,1.1,9.4s-3,3.9-5.6,3.9h-4.5c-5.9-5.3-15-4.5-15.6-14.1-1.2,0-2.4.5-3.6.6-.9-3.9-.8-6.3.5-10.3,1.8-.8,3.6-1.5,5.4-2.1h.2v-.2Z"/>
  <path class="cls-7" d="M79,33.2c1.4.8,2.1,2,2.3,3.6h-1.7l-.9-1.8.5-2h-.2v.2Z"/>
  <path class="cls-5" d="M108.5,33.7v1.7c-1.5-.6-1.5-1.2,0-1.7Z"/>
  <path class="cls-2" d="M109.1,37.1l1.4,1.8-1.4-1.8Z"/>
  <path class="cls-5" d="M25.3,39.5q.5.5,0,0Z"/>
  <path class="cls-2" d="M37,86.5l.9,3.2c.3.9.8,2.1,2.7,3.6s5.9,3,9.2,3h8.3c2.1.5,3.8,2.1,4.2,4.2.9,4.7,2,10.9-2.1,10.1-39.4-1.2-47.8-29-50.2-36.4-.5-5.4,0-11-.3-16.6-.5-4.5,2.1-7.4,3.8-11.3,1.1-1.5,1.7-5.6,4.1-5h4.4c1.4,0,2.6,1.2,2.4,2.6s0,.8,0,1.2v3.2l-.5,1.2v1.2c0,1.4,0,2.3.3,3.6v1.5l.5,3.8c3,3.2-.6,5,1.7,5.6l-1.7,2.4-1.4.8.8.5c-.3,1.2-.6,2.6-.8,3.8l.6,2v1.5c-3.3,4.2.3,6.3,2.7,9.5,1.4,1.8,3.2,2.6,5.3,3.3v-3.2l3.9.6"/>
  <path class="cls-5" d="M94.2,41.5q.5.5,0,0Z"/>
  <path class="cls-7" d="M37.9,42.9c0,1.7,0,3.5-.3,5.1-2.4.5-5-1.4-7.3-2,2.1-3,4.1-3,7.6-3.2Z"/>
  <path class="cls-7" d="M41.8,43.3h1.1v1.1h-1.1v-1.1Z"/>
  <path class="cls-7" d="M81.6,43.2l1.1-.8c3.9.6,7.3-.3,9.4,3.8-1.8.6-3.8,1.4-5.6,2-1.4-1.2-4.5-3.3-4.8-5Z"/>
  <path class="cls-6" d="M18.2,45.7h0Z"/>
  <path class="cls-5" d="M58.6,45c.6,4.1,1.8,10.6-.6,14.2-7.1,1.2-14.7,0-21.9.5-1.7,0-3-.3-3.9-1.4,3.6-1.7,5.6-1.4,9.4-.5,3.5-1.2,7-3,10-5,3.2-2.3,3-6.3,7.1-7.7h0v-.2Z"/>
  <path class="cls-5" d="M67.4,45.4c.8,9.7,9.8,8.9,15.6,14.1-6,0-12.5.9-18.4-.3-2.1-2.7-2-10.1-.8-13.1,1.2,0,2.4-.5,3.6-.6Z"/>
  <path class="cls-7" d="M16,52.7c3-2.3,4.5,2.6,2.9,4.7-2.4,1.1-4.5-2.9-2.9-4.7Z"/>
  <path class="cls-7" d="M103.5,52.7"/>
  <path class="cls-5" d="M24.4,55.9"/>
  <path class="cls-7" d="M24.9,59.6c3.3,1.2,3.8,2.9,1.7,5.6-2.1-.8-3.3-4.8-1.7-5.6Z"/>
  <path class="cls-3" d="M15.8,63.7c-.8,2.4-3.2,5,0,6.5,4.7,0,2.3-4.1,1.2-6.5h1.7c2.6,2.6,2.7,5.4,1.4,7.6s-5,2.3-6.6.3,0-.3-.3-.5c-.9-1.2-1.2-2.7-.6-4.1s1.8-3.8,3.5-3.3h-.2Z"/>
  <path class="cls-6" d="M15.8,63.7h1.2c1.1,2.4,3.5,6.5-1.2,6.5-3.6-.6-.8-4.2,0-6.5Z"/>
  <path class="cls-7" d="M45,64v1.4c-6.6-1.7-10.6,1.5-16,4.1,2-6.3,10.7-5.9,16-5.4Z"/>
  <path class="cls-2" d="M59.8,78.1l-3.2.6c-1.4-1.2-7.9-4.5-7.7-7.4.6-2.9,4.4-6,1.4-2.6l-1.5-.5h-2.7l-1.2-2.9v-1.4c4.5.5,8.9.5,13.3,0"/>
  <path class="cls-5" d="M77.5,64h1.5v.9h-1.5v-.9Z"/>
  <path class="cls-2" d="M79.1,63.9h1.7v1.1h-1.7v-1.1Z"/>
  <path class="cls-5" d="M80.8,63.7h1.8v1.1h-1.8v-1.1Z"/>
  <path class="cls-2" d="M82.6,63.7h1.8l-2,1.1v-1.1h.2Z"/>
  <path class="cls-2" d="M86.2,63.9l2,.6-1.4.6s-.6-1.2-.6-1.2Z"/>
  <path class="cls-1" d="M52.7,90.5"/>
  <path class="cls-1" d="M50.3,68.7c.9,1.7,2.1,2.9,3.6,3.6.5.3.9.8.9,1.4,0,2.3,3.9,3.3,5.1,4.4.3.5-.3,2.6-.3,4.4,0,0-.3,1.2-.8,3.5,0,2.9-4.1,5.4-9.7,6.8,0-.5,0-.9-.3-1.4l-1.2-1.8c-1.2-.5-3.9-5.6-4.2-1.7l-.3,1.8c-1.8-1.7-1.4-5.1-1.7-7.7,0-.8-.8-1.4-1.5-1.5h-2l-3.3.3c-.3,0-1.4.5-3.5-1.1l-1.4-1.1c-1.8-1.8-2.6-2.6-2.6-4.7s.5-2,.8-3l.3-.6c.8-1.8,2.1-3.2,3.9-3.8,3.9-1.5,7.3-2.3,12.1-1.2.6,0,.9,0,1.4.5l6.6,2"/>
  <path class="cls-7" d="M88.2,64.5c3.2.9,5.3,3,5.3,6.5"/>
  <path class="cls-1" d="M24.9,67.7l-.6,1.2-.8-.5,1.4-.8Z"/>
  <path class="cls-1" d="M75.2,67.7l-.8.8"/>
  <path class="cls-7" d="M34.6,69.2l1.4-.8,1.5.6v1.5c-2.1,1.2-3,.8-2.9-1.4Z"/>
  <path class="cls-7" d="M86.8,69.5q.4.4,0,0Z"/>
  <path class="cls-5" d="M23.5,72.8l.6,2-.6-2Z"/>
  <path class="cls-2" d="M93.5,72.5c.3,1.7-.3,3-1.7,4.4-3.3-1.7-1.4-4.2,1.7-4.4Z"/>
  <path class="cls-1" d="M66.9,75.7l.6-.8-.6,1.5v-.9h0v.2Z"/>
  <path class="cls-2" d="M99.5,74.6c.3,2-.3,3.2-2,4.1-.6-2.4,0-3.6,2-4.1Z"/>
  <path class="cls-7" d="M99.5,74.6h1.2l.9,1.7c-.3,2.7-1.1,5.3-4.2,5.4l-.3-1.4.6-1.7c1.7-.8,2.3-2.1,2-4.1h-.2Z"/>
  <path class="cls-7" d="M24.1,76.1c.6,3.5,2.4,5.6,4.7,8l1.5,1.1,1.8.6v3.2c-2.3-.8-3.9-1.5-5.4-3.3-2.4-3.2-5.9-5.3-2.7-9.5h.2Z"/>
  <path class="cls-7" d="M17.6,78.7h1.1v1.1h-1.1v-1.1Z"/>
  <path class="cls-2" d="M36.7,80l1.4.3"/>
  <path class="cls-1" d="M97,80.3l.3,1.4-1.4.6s1.1-2,1.1-2Z"/>
  <path class="cls-7" d="M95.9,82.2c.8,4.1-1.7,6.6-5.6,6.5v-2.7l1.4-.9,1.8-1.4,2.4-1.7h0v.2Z"/>
  <path class="cls-7" d="M21.4,84.4c2.6-.3,2.7,5.1,0,4.8-2.4-1.1-2.6-3.8,0-4.8Z"/>
  <path class="cls-1" d="M28.8,84.1l1.5,1.1-1.5-1.1Z"/>
  <path class="cls-2" d="M93.5,84l-1.8,1.4,1.8-1.4Z"/>
  <path class="cls-2" d="M47.6,89.6l1.2,1.8.3,1.4c-2.9,1.1-4.2-1.2-6-3l.3-1.8c.3-3.9,3,1.2,4.2,1.7Z"/>
  <path class="cls-2" d="M80.5,85.9v1.5h-1.2l1.2-1.4h0v-.2Z"/>
  <path class="cls-6" d="M88.4,86.4c.3,3.2,0,7-4.1,6.5.6-2,1.4-6.6,4.1-6.5Z"/>
  <path class="cls-3" d="M77,89h-1.8c.3-1.2.9-1.2,1.8,0Z"/>
  <path class="cls-1" d="M47.6,89.6l1.2,1.8-1.2-1.8Z"/>
  <path class="cls-2" d="M86.8,86.2l3.8-.6v3.2c2.3-.8,3.9-1.5,5.4-3.3"/>
  <path class="cls-2" d="M98.6,75.8v-1.5l.6-2c0-1.4-.5-2.6-.8-3.8l.8-.5-1.4-.8-2.6-3.8c2.1-.8-.5-.9,2.6-4.2l.5-3.8v-1.5c0-1.4,0-2.3.3-3.6v-1.2l-.5-1.2v-4.4c0-1.4,1.1-2.6,2.4-2.6h4.4c2.4-.5,3,3.5,4.1,5,1.7,3.9,4.1,6.8,3.8,11.3,0,5.6.3,11.2-.3,16.6-2.4,7.4-10.7,35.2-50.2,36.4-4.1.8-3-5.4-2.1-10.1.9-4.7,2.1-3.8,4.2-4.1h8.3c3.3,0,6.5-1.2,9.2-3.2,2.7-2,2.4-2.6,2.7-3.6l.9-3.2"/>
  <path class="cls-7" d="M103.9,57.1c-1.7-2.1,0-6.8,2.9-4.7,1.5,1.8-.5,5.7-2.9,4.7Z"/>
  <path class="cls-7" d="M96.4,64.9c-2.3-2.7-1.7-4.4,1.7-5.6"/>
  <path class="cls-7" d="M77.8,63.7c5.4-.5,14.1-1.1,16,5.4"/>
  <path class="cls-2" d="M64.5,63.9c4.4.3,8.8.5,13.3,0"/>
  <path class="cls-1" d="M70.7,67.4l6.6-2c.5-.3-1.7,0-1.1-.3,4.8-.9,10.6-.5,14.5,1.2,1.8.8,3.2,2.1,3.9,3.8l.3.6c.3,1.1.6.9.8,3,0,2-.8,2.9-2.6,4.7l-1.4,1.1c-2.1,1.5-3.2,1.1-3.5,1.1l-3.3-.5h-2c-.8,0-1.4.9-1.5,1.7,0,2.7,0,6-1.7,7.7l-.3-1.8c-.3-3.9-3,1.2-4.2,1.7"/>
  <path class="cls-1" d="M75.2,89.3l-1.2,1.8c0,.5,0,.9-.3,1.4-5.6-1.4-9.5-3.9-9.7-6.8-.5-2.3-.8-3.5-.8-3.5,0-1.8-.6-3.9-.3-4.4,1.2-1.1,5.1-2.1,5.1-4.4s.3-1.1.9-1.4c1.4-.8,2.6-2,3.6-3.6"/>
  <path class="cls-7" d="M85.3,68.7l1.5-.6,1.4.8"/>
  <path class="cls-7" d="M104.1,79.4v-1.1h1.1"/>
  <path class="cls-7" d="M101.4,89c-2.7.3-2.4-5.1,0-4.8"/>
  <path class="cls-2" d="M64.5,63.7c4.4.3,8.8.5,13.3,0l3.8,1.2-4.8,3h-2.7l-1.5.5c-3-3.3.8,0,1.4,2.6,0,2.7-6.3,6.2-7.7,7.4l-3.2-.6"/>
  <path class="cls-2" d="M79.4,87.4l.3,1.8c-1.7,1.8-3.2,4.1-6,3l.3-1.4,1.2-1.8c1.2-.5,3.9-5.6,4.2-1.7Z"/>
  <path id="p33" class="cls-3" d="M47.8,85.7c-.6-.4-4.2-3-4.9-7.9s1.8-8.4,2.2-9c4.3-6.4,15.2-9.6,16.9-17.3-4.6,0-7.8,5.4-11.9,3.4-5.2-.4-6.4-7-3.9-10.2s6.1-6.3,10.2-6.6h1c.7-.3,1.5-.3,2.4-.3,3.6,0,7.5,0,10.8,2.2,6.3,4.3,8.2,10.9,6,18.1,0,0-1.9,2.8-1.9,3-1.9,2.1-2.5,2.7-4.2,4.2-2.8,2.1-4.2,3.6-6.6,5.7h5.7c1.9,0,2.7.4,3.9,1h0c1,.6,2.1,1.3,2.8,2.2,1.6,1.9,1.2,4.6.6,7.3-.4,1.9-1,2.1-4,3.9-6.7,2.1-14,3.4-24.8,0h-.1ZM49.1,48.8c1,4,5.8.9,9.6-.7,4.2-2.7,8.8,4.3,6.4,7.8-3.6,5.1-8.8,8.5-13.4,12.2-4.2,2.4-6.1,8.5-1.9,11.4,6.4.9,12.4,1.3,19,.9,3.1-.4,2.4-1.8,2.4-4.3-5.8-.7-10.5.7-16.3.1l-1.5-2.1c4.9-4.9,11.2-9.3,16-14.5,4.9-5.1,4-14.2-2.5-16.1-.9-.9-2.8-2.8-6.1-2.7s-3.6.3-5.2.9c-4.9,1.6-7.8,4.6-6.4,7.2h.1ZM64.2,41.1h.7M49.3,83.6q.3.3,0,0Z"/>
  <path id="p36" class="cls-4" d="M60.8,40.8h.6c5.2,0,10,3.3,11.6,8.2s.4,7.8-2.5,10.9c-4.8,5.2-10.9,9.4-16,14.3l.6,1.2c5.8.7,11.6,0,17.5.6,0,2.5.1,4.9-3,5.4-6.6.4-13.6.6-20-.3-4.2-3-2.1-10.8,2.1-13.1,4.6-3.7,9.9-7.2,13.4-12.2,2.4-3.4-1.2-9.1-7.2-6.6-.9.4-4.3,1.3-5.1,1.6-3.3,1.6-5.5-2.8-3-5.5s4.5-3.7,7.2-4l3.9-.3h-.1Z"/>
</svg>