<?xml version="1.0" encoding="UTF-8"?>
<svg id="_Слой_1" data-name=" Слой 1" xmlns="http://www.w3.org/2000/svg" version="1.1" viewBox="0 0 120 120">
  <defs>
    <style>
      .cls-1 {
        fill: #0094b7;
      }

      .cls-1, .cls-2, .cls-3, .cls-4, .cls-5, .cls-6 {
        stroke-width: 0px;
      }

      .cls-2 {
        fill: #012021;
      }

      .cls-3 {
        fill: #00d6eb;
      }

      .cls-7 {
        stroke: #012021;
        stroke-miterlimit: 10;
        stroke-width: 2px;
      }

      .cls-7, .cls-6 {
        fill: #fff;
      }

      .cls-4 {
        fill: #fb6045;
      }

      .cls-5 {
        fill: #dec000;
      }
    </style>
  </defs>
  <path class="cls-2" d="M60.1,10.1c2,2.5,3.2,4.1,6.4,4.8-3.2,2.6-1.9,4.8-2.5,7.4-2.7-1.9-5.4-1.9-7.8-1,.7-1.6.3-3.6-1.7-5.5,3.3-1.6,4.6-3,5.6-5.8h0Z"/>
  <path class="cls-2" d="M34.2,13.6c2.5,2,4.8,2.6,7.4,2.9-1.3,2.6-1.4,4.1,0,6.2-2.5,0-4.8,1-6.2,3.2-1.7-2.6-2.2-4.1-5.8-5.5,3.2-1.9,4.2-3.2,4.8-6.7h-.1Z"/>
  <path class="cls-2" d="M85.7,13.6c.6,3.5,2.2,4.5,4.6,6.7-1.9,1.9-5.4,1.3-5.8,5.8-1.9-1-2-3.6-5.4-3.5-.6-2,.9-3.5-1.3-6.1,4.8,0,5.1-1.4,7.7-2.7h.1Z"/>
  <path class="cls-4" d="M47.1,17.9c2-1.3,3.9,2.2,1.2,2.6-1.4-.4-1.9-1.3-1.2-2.6Z"/>
  <path class="cls-5" d="M71.9,17.5c2.6.3.9,3.9-1.3,2.6-.6-1.2-.1-2,1.3-2.6Z"/>
  <path class="cls-2" d="M52.5,110.1c-1-3.5,2.5-14.3,2.9-17.8-2.6,2.2-4.9,4.9-7.8,6.5-8.2,3.3-18.4,0-20.3-9.4-.6-5.8-7.5-7.2-7.8-12.9-.4-3.6,1.2-6.4,2.2-9.7-.9-3-2.5-5.5-2.2-8.8.6-5.4,5.2-10.4,10.4-11.4,2.7-.3,5.5-.1,8.2-.4.1-3.2,0-6.5.3-9.7,1.4-5.4,5.9-9.8,11.4-10.4,3.8-.4,6.5,1.6,10,2.6,2.5-.7,4.9-2.2,7.4-2.6,5.4-.7,10.4,2.6,12.9,7.2,2.2,3.8,1.2,8.7,1.6,12.9,6.5.1,11.9-.3,16.3,5.4,4.2,4.8,2.2,10,.3,15.3.3,2.3,2.2,4.3,2.2,7.1.3,4.3-.9,7.5-4.5,10-4.3,2.7-2.5,8-6.1,11.3-3,3.3-6.7,5.2-11.3,4.8-6.2,0-9.8-4.1-13.9-8,.4,3.6,3.6,13.5,2.6,18.1"/>
  <path class="cls-2" d="M19.8,28.3c2.5,1.9,4.6,1.9,7.7,1-.3,2.7-.3,4.9.1,7.5-2.3.3-3.8.4-5.4,3.3-1.3-3-2.9-3.9-5.5-5.2,2.6-1.3,3.3-3.8,3-6.7Z"/>
  <path class="cls-2" d="M100.1,28.5c0,2.2-.1,4.2,3,6.4-2.5.3-4.3,2.3-5.4,5.5-1.3-2.7-2.9-3.2-5.2-3.3.9-2.5,1-5.1,0-7.5,3.6.9,4.9,0,7.5-.9h0Z"/>
  <path class="cls-5" d="M32.9,30.5c2.2-1.4,3.9,2.2,1.3,2.6-1.4-.6-1.9-1.3-1.3-2.6Z"/>
  <path class="cls-6" d="M54.4,30.6l1,.6c1.3,1.3,2.5,2.6,3.6,3.9l.3.4h.4c1.9-.6,3.5-3.5,5.1-4.6,2.3-.9,4.5-.4,6.9,0l1,.4c2.3,1.9,4.8,3.3,4.8,6.7-1.3-1.2-2.6-2.3-4.1-3.3-2-1.7-4.5-3.6-7.2-2.3-2.7,1.6-4.2,5.5-5.9,8.1-3-4.1-4.8-8-10.4-8.5-1.2.9-2.3,1.9-3.5,2.9-1.3,1.2-2.7,2.3-4.1,3.5,1.6-6.2,5.4-9,11.9-7.2v-.4Z"/>
  <path class="cls-3" d="M71.7,30.6l1,.4-1-.4Z"/>
  <path class="cls-5" d="M84.9,30.6c2.6-1.7,4.2,2.3,1.2,2.9-1.6-.4-2-1.4-1.2-2.9Z"/>
  <path class="cls-5" d="M50,31.6c5.6.6,7.2,4.6,10.4,8.5,1.7-2.6,3.2-6.5,5.9-8.1,2.7-1.3,5.2.6,7.2,2.3-.6,5.8-1.6,11-5.9,15-1.9,1.7-4.3,1.9-6.8,2.3-2.6,0-4.8,1.3-6.7-1-2.7-2.9-6.7-7.8-5.8-12,2.7.4,4.8,2.2,7.4,0-.6-1.3-1.2-2.6-1.9-3.8-.9-.3-1.7-.4-2.5-.6-.7,1.9-.6,2.7-2.7,3.3-.6-1.2-1.2-2.3-1.7-3.5,1.2-1,2.3-1.9,3.5-2.9l-.4.3Z"/>
  <path class="cls-6" d="M67.5,34c1.6-.1,2.7,3.6,3.6,4.9-1.3.6-2.6,1-4.1,1.3-.9-.3-1.9-.7-2.7-1.2.9-1.7,1.9-3.5,3-5.1h.1Z"/>
  <path class="cls-4" d="M46.5,34.4c.6,1.2,1.2,2.3,1.7,3.5v.9c-.9,4.2,3,9.1,5.8,12,2,2.3,4.1,1.2,6.7,1,2.5-.4,4.9-.6,6.8-2.3,4.3-4.1,5.4-9.4,5.9-15,1.3,1.2,2.7,2.3,4.1,3.3.3,3.5,0,8-2.2,10.9-2.5,2.3-5.5,4.1-7.8,6.7-2.7,2.9-4.3,6.2-7.5,8.7-3.9-4.1-6.8-8.7-11.4-12.2-4.3-3.3-6.9-8.4-6.1-14,1.3-1.2,2.7-2.3,4.1-3.5h0Z"/>
  <path class="cls-6" d="M51,34.5c.9,0,1.7.3,2.5.6.7,1.2,1.4,2.5,1.9,3.8-2.6,2.2-4.5.4-7.4,0v-.9c2.3-.6,2.2-1.4,2.9-3.3h.1Z"/>
  <path class="cls-1" d="M59,35l.7.3h-.4l-.3-.3Z"/>
  <path class="cls-2" d="M35.4,40.5c-.4.9-1,1.7-1.7,2.6-1,0-1.9-.7-2.6-2.6l1.2-1.7c1.3-2.3,2.6.6,3.3,1.7h-.1Z"/>
  <path class="cls-2" d="M86.3,37.9c2.9-.1,3.5,3.9,1,5.1-2,.1-3.3-4.3-1-5.1Z"/>
  <path class="cls-5" d="M12.5,42.2c2.2-1.6,3.6,1.9,1,2.5-1.4-.3-1.7-1.2-1-2.5Z"/>
  <path class="cls-6" d="M50.2,42.2q.5.5,0,0Z"/>
  <path class="cls-6" d="M69,42.2q.6.5,0,0Z"/>
  <path class="cls-5" d="M105.3,42.2c2.2-1.4,3.8,2,1.2,2.6-1.4-.4-1.7-1.3-1.2-2.6Z"/>
  <path class="cls-6" d="M63.2,43.7q.5.5,0,0Z"/>
  <path class="cls-5" d="M9.7,45.2h1.2l.6,1-.6,1h-1.2l-.6-1,.6-1Z"/>
  <path class="cls-4" d="M15.3,45.1c2.6-1.7,4.2,2.3,1.2,2.9-1.6-.4-2-1.4-1.2-2.9Z"/>
  <path class="cls-2" d="M46,45.1q.5.5,0,0Z"/>
  <path class="cls-4" d="M102.2,45.1c2.6-1.7,4.3,2.3,1.2,2.9-1.6-.4-2-1.4-1.2-2.9Z"/>
  <path class="cls-4" d="M109.3,44.8c2.6.6,1.2,3.9-1.2,2.6-.7-1.3-.3-2.2,1.2-2.6Z"/>
  <path class="cls-4" d="M12.5,48.1c2.2-1.4,3.8,2,1,2.5-1.4-.4-1.7-1.3-1-2.5Z"/>
  <path class="cls-5" d="M105.3,49l1-.7,1,.6v1.2l-1,.6-1-.6v-1.2h0Z"/>
  <path class="cls-6" d="M39.6,57.3c-2.2-2.6-3.8-2.6-6.9-2.6,1.2.9,2.5,1.7,3.6,2.7.4,2.7-1.9,3.9-3.5,5.8-.4-1.3-1-2.6-1.4-3.8-1.4-.4-2.9-.9-4.2-1.2,1-1.3,2.5-1.2,3.9-1.7.1-1.4.3-2.9.3-4.5-2.9,1.9-4.9,4.1-6.8,6.9h-1.2c.9-3.6,2.6-7.2,6.5-8.7,3-.6,5.8,0,8.8.6l1,.3c1.7.7,3.3,1.6,4.9,2.6l.6.4c3.6,2.7,6.8,5.9,9.7,9.5-2.3-.3-4.3-1.3-6.5-2-2,.4-3.6,1.9-5.6,2.5-1.6-.6-2.9-1.3-4.1-2.6.3-1.4.6-3,.9-4.5"/>
  <path class="cls-3" d="M38.6,51l1,.3-1-.3Z"/>
  <path class="cls-6" d="M91.4,50.9c2.5,1.7,4.8,3.9,5.2,7.1l-1.3-.3c-1.7-1.7-3.3-5.1-6.1-4.9-3.6-.3-5.9,2-9.3,3.3-5.1,2-9.4,5.5-14.3,8,3.3-4.5,6.9-8.4,12-11l.7-.4c4.1-2,8.4-3.2,12.9-1.6h.1Z"/>
  <path class="cls-4" d="M31.2,52.2c0,1.4,0,3-.3,4.5-1.4.6-2.9.6-3.9,1.7,1.4.3,2.9.7,4.2,1.2.6,1.3,1,2.6,1.4,3.8-2.9-1.7-5.4-2.2-5.8-4.9-1.2-1,2.5-5.1,4.2-6.2,3.3,0,6.7-.9,8.8,1.7.4,1.4-1,6.4-1.3,7.8,1.2,1.2.9-8,2.5-7.4,1.9-.6,4.6,1.7,6.9,4.5,2,2,4.1,3.6,6.7,5.1,1,1.3,1.7,2.6,2.5,4.1h-4.1c-5.9,0-11.9,0-17.8-.4l-1.7-.3c-1.3.3-1.9,0-3.2.3-2.9-2.2-4.5-5.4-6.2-8.5,1.9-2.9,3.9-5.1,6.8-6.9h.3Z"/>
  <path class="cls-3" d="M78.5,52.5l-.7.4.7-.4Z"/>
  <path class="cls-5" d="M89.2,52.6c2.6,0,4.3,3.3,6.1,4.9l-.4,1.3c.9,2.3,0,4.1-2.9,5.8l-3.9,1.2c-2.2.9-4.1,1.7-6.4,1.6l.9-1.9c-2.2-.3-4.5-.4-6.7-1.2l2.9-1v-.6c.1,0,.3-.4.3-.4l-1.9-1-.7.3,7.4,2.9-1.4,2.9c-3.3.9-11,0-17.2.4l-1.3.6-1.2-.4.4-1.3.6-.9,1.7-1.7c4.9-2.3,9.3-5.8,14.3-8,3.3-1.3,5.5-3.6,9.3-3.3h.1Z"/>
  <path class="cls-1" d="M44.5,53.9l.6.4-.6-.4Z"/>
  <path class="cls-6" d="M87.6,55.8l1.2.3-.3,2.6-2.6.3-.3-1.2,2.2-2.2h-.1Z"/>
  <path class="cls-2" d="M90.7,56.7q.5.5,0,0Z"/>
  <path class="cls-3" d="M95.3,57.7l1.3.3c.6,5.2-2.5,6.7-5.9,9.5l-1,1.3c1.4,1,2.9,2,4.2,3-2.7,3.2-5.2,7.1-10.1,5.6-6.7-2.7-13.9-5.1-19.8-9.4l1.3-.6,3.5-.3h9.8c1,0,2,.1,3.2.3,2.3.3,4.2-.7,6.4-1.6,3.9-1.7,5.6-2.6,6.8-6.9,0,0,.4-1.3.4-1.3Z"/>
  <path class="cls-2" d="M8.3,60.1c2.2,1.9,5.1,3.5,7.4,2.5-1.4,2.9-.6,5.2-1,7.8-1.9-.7-3.8-.4-5.5,1.9-1.3-3.5-2.2-4.3-5.2-6.5,2.7-1.3,4.1-3,4.5-5.5h-.1Z"/>
  <path class="cls-1" d="M23.3,59.4h1.2c1.7,3,3.8,5.1,6.7,7.1l-1.2.3c-4.6-1.4-5.8-2.6-6.7-7.4Z"/>
  <path class="cls-2" d="M80.5,59.6q.5.5,0,0Z"/>
  <path class="cls-2" d="M111.5,60.1c.9,2.6,1.6,4.5,4.8,6.2-3,.6-3.9,1.3-4.9,5.1-1-1.6-4.1-2-6.5-.9,1.3-2.7,1.4-5.4,0-7.7,3.5,0,4.5-1,6.4-2.6h.3Z"/>
  <path class="cls-6" d="M77.2,61.2l1.9,1-.3,1-2.9,1-1-.3,1-2.3"/>
  <path class="cls-6" d="M35.7,62.5q.5.5,0,0Z"/>
  <path class="cls-6" d="M47.3,63.9q.5.5,0,0Z"/>
  <path class="cls-6" d="M33.8,67.4l1.7.3c-4.2.1-6.4,1.2-9.5,3.8l-2.2,1.2c1.2-3,3.6-4.2,6.2-5.8l1.2-.3c1.3.7.4.3,2.7.9h-.1Z"/>
  <path class="cls-1" d="M63.9,65.6l-.6.9.6-.9Z"/>
  <path class="cls-5" d="M70,67.2h-1.3"/>
  <path class="cls-5" d="M72.4,67.2h-1,1Z"/>
  <path class="cls-5" d="M77.8,67.2h.7-.7Z"/>
  <path class="cls-3" d="M35.4,67.7c5.9.3,11.9.3,17.8.4-2.6,4.1-6.5,5.1-10.6,7.1-2.6,1.2-5.6,2.6-8.5,2.7-3.5-.3-5.9-4.2-8.2-6.4,3.2-2.6,5.4-3.6,9.5-3.8h0Z"/>
  <path class="cls-1" d="M53.2,68.1h4.1c.3,2-.4,3.8-1.2,5.6-3.5,2-5.1,3.8-6.9,7.4-2.6.4-7.1-1.6-6.4,2.6-1-1.4-1.3-3.5-2-5.1-3.2.7-5.4,3.3-5.2,6.7.3,2.5,2.6,4.5,4.1,6.5-.1.9-.3,1.7-.4,2.6,2.7-.3,5.5-1,8.1-1.9l.9.3c-2.7,5.4-12.2,4.5-15.3,0-2.6-2.9-1.2-6.1-1.3-9.5-2.3-1.2-5.6-1.7-7.2-3.9-.6-2-.7-4.3-.4-6.5l2.2-1.2c2.2,2.3,4.8,6.1,8.2,6.4,2.9-.1,5.9-1.6,8.5-2.7,4.1-2,8-3,10.6-7.1h-.1Z"/>
  <path class="cls-1" d="M62.9,67.7l1.2.4c5.8,4.3,13.2,6.7,19.8,9.4,4.9,1.4,7.4-2.3,10.1-5.6,1,.7,1.9,1.4,2.9,2.2.9,6.1-3.5,7.1-8.1,9,0,3.5,1.2,6.8-1,9.8-3.8,4.8-14.3,5.1-16.6-1.2,3.3,1,6.4,2.2,9.8,2.6-.1-.9-.3-1.7-.6-2.6,1.3-1.3,2.6-2.5,3.8-3.9,1.3-3.5-.9-8.1-4.1-9.8-1.2,1.7-1.9,3.8-2.9,5.6,0-3.5-2.7-2-5.2-2.6-2.9-3-5.9-6.1-9.1-9v-4.2h0Z"/>
  <path class="cls-6" d="M90.5,67.5c3.2,1.4,5.8,2.9,6.2,6.5-1-.7-1.9-1.4-2.9-2.2-1.4-1-2.9-2-4.2-3l1-1.3h-.1Z"/>
  <path class="cls-5" d="M62.9,71.9c3.2,2.9,6.2,5.8,9.1,9-1.2.6-2.3,1.2-3.6,1.7-2.7-2.9-4.5-6.9-5.6-10.7h.1Z"/>
  <path class="cls-5" d="M56.1,73.7c-.9,2.6-1.4,5.4-2.7,7.8-1.2,1.3-2.6,1.2-4.2-.4,1.9-3.6,3.5-5.2,6.9-7.4Z"/>
  <path class="cls-5" d="M12.4,77.1c2-1.3,3.9,2.3,1.2,2.6-1.4-.4-1.9-1.3-1.2-2.6Z"/>
  <path class="cls-5" d="M106.6,76.8c2.6.3.9,3.9-1.3,2.6-.6-1.2-.1-2,1.3-2.6Z"/>
  <path class="cls-3" d="M40.8,78.5c.6,1.7,1,3.6,2,5.1l3,.6-.3,1c-2-.3.6-1.3.3.9-.4,1.2-4.6,4.1-5.1,5.2l-1.3.3c-1.4-1.9-3.6-4.1-4.1-6.5,0-3.3,2-5.9,5.2-6.7h.1Z"/>
  <path class="cls-3" d="M80.2,77.8c3.2,1.7,5.4,6.4,4.1,9.8-1.2,1.3-2.5,2.6-3.8,3.9h-1.3c-.6-1.6-1.3-3.2-1.9-4.6-.3-1-.7-2-1.3-2.9l1.3-.6c1-1.9,1.9-3.8,2.9-5.6Z"/>
  <path class="cls-5" d="M45.8,84.2l1.9.3.3.4c.6.9,1.2,1.9,1.7,2.9-2.7,1.6-5.8,2.6-9,3.3.4-1.2,2.2-1.9,2.6-3,1.9-1.3,1.9-1,2.2-2.9,0,0,.3-1,.3-1Z"/>
  <path class="cls-1" d="M72.1,84.4h.7l-.3.7h-.9l.3-.7h.1Z"/>
  <path class="cls-6" d="M73,84.3l3-.3c.6.9,1,1.9,1.3,2.9-1.6-.1-3.2-.7-4.6-1.7,0,0,.3-.9.3-.9Z"/>
  <path class="cls-2" d="M14,86c2.2,2.2,4.2,1.7,6.8,1.9-1.4,2.9-1.4,4.6-.6,7.1-2.9,0-4.5,1-5.9,2.6-.7-2.5-2.6-4.2-4.6-5.1,3.9-2.3,3-3.2,4.3-6.5Z"/>
  <path class="cls-5" d="M71.9,85h.9c1.4,1,2.9,1.6,4.6,1.7.6,1.4,1.3,3,1.9,4.5-3.8,0-5.9-1.3-8.8-3.5.4-1,.9-1.9,1.4-2.7Z"/>
  <path class="cls-2" d="M106,85.9c1.3,2.9,1.9,4.5,4.5,6.5-2.2,1-4.1,2.9-4.8,5.1-1.9-2.3-4.2-3.2-6.1-2.6,1-2.2,1-4.2,0-6.1,2.2-.6,4.1,0,6.4-2.7h0Z"/>
  <path class="cls-4" d="M61.3,86.6c.1,5.5.3,10.9,1.3,16.2.6,2.2-2.2,2.7-3.8,2.3.1-1.3-1.4.4-1.9-.9-.7-3.2.9-5.8,2-10.6l.3-1.3v-.9c.1-1.6,0-4.5,2-4.9Z"/>
  <path class="cls-5" d="M48.4,91.8"/>
  <path class="cls-5" d="M47.1,92.3"/>
  <path class="cls-1" d="M59.3,91.5v.9-.9Z"/>
  <path class="cls-5" d="M25.6,97.2h.7v.7h-.7v-.7Z"/>
  <path class="cls-5" d="M93.7,97l1-.6,1,.6v1.2l-1,.6-1-.6v-1.2Z"/>
  <path class="cls-3" d="M58.5,101.2c.3,1.4.4,2.7.1,4.1-2.9,0-2.3-3.2-.1-4.1Z"/>
  <path class="cls-2" d="M13.7,67.4"/>
  <path class="cls-7" d="M66.2,82c.1-3.5-2.5-5.2-5-5.5-1.6-.1-2.9-.1-3.9,0h0l-6.4,1.5c-1.6-3.5-2.5-7.6-2.1-11,.4-3.3,2.7-6.2,5.9-7.1l1.2-.4c.7-.3,1.3-.3,2-.3h9.2c1.2,0,2.1.7,2.4,1.9l.3.9v1.6l-.4.8c-.1.4-.5.8-.9,1.2-.7.5-1.5.7-2.3.4-4.3-1.1-11.4-.8-8.3,5.2,2.7,1.6,8.2-.1,11.8-1.9,2.3,6,3.1,10.6,1.3,17.2l-1.2,3.8c-2.7,7-15,5-21.8,3.2l.8-3.2,1.7-3.9c.4,0,5.4,1.2,6.2,1.2,7.8.7,9.2-2,9.5-5.4v-.3Z"/>
</svg>