<?xml version="1.0" encoding="UTF-8"?>
<svg id="_Слой_1" data-name="Слой 1" xmlns="http://www.w3.org/2000/svg" version="1.1" viewBox="0 0 120 120">
  <defs>
    <style>
      .cls-1 {
        fill: #17052a;
        stroke: #fff;
        stroke-miterlimit: 10;
        stroke-width: 2px;
      }

      .cls-2 {
        fill: #002622;
      }

      .cls-2, .cls-3, .cls-4, .cls-5, .cls-6 {
        stroke-width: 0px;
      }

      .cls-3 {
        fill: #feffff;
      }

      .cls-4 {
        fill: #ff664d;
      }

      .cls-5 {
        fill: #4aa552;
      }

      .cls-6 {
        fill: #fff;
      }
    </style>
  </defs>
  <path class="cls-2" d="M52.9,15.2c2.2.8,5,3.6,7.3,3.3,4.7-2.7,8.3-5.7,14.1-5.2,8,.3,14.5,7.3,14.9,15.1.9,6.2-1.2,11.7-3.9,17.1,6,0,11.5-.3,16.9,2.9,6.3,3.6,9.7,11,7.5,18-1.2,5.4-6,8.1-10.2,11.1,1.4,5.4,2.7,10.1.2,15.4-2.9,6.9-10.1,9.3-17,8.7-6.6-.5-11.3-4.3-16.1-8.4.9,3.6,2.3,7.3,2.5,11-.5,3.8-4.8,5-8,5.7-4.6,1-8.1-1.5-11.8-3.9.7-3.8,1.4-7.7,2-11.5-3.1,2.1-5.9,4.3-9.4,5.7-7.4,3-16.6,1.8-21.6-4.9-4.1-5.4-2.7-12.1-1.2-18.2-3.2-2-6.6-3.6-8.6-7-4.8-7-1.8-17.1,5.3-21.3,5.4-3.8,11.3-3.6,17.6-3.1-3.2-6.7-5.7-13.1-3.3-20.6,2.4-9.7,13.9-15.1,22.6-10Z"/>
  <path class="cls-5" d="M40.8,18c4.2,1.2,8.3,2,12.7,1.6,1.7,1.9,3.2,4,4.7,6.1,1.1,3.1,2.2,6.3,3.4,9.4,1.4-1.6,2.8-3.1,4.2-4.7,1.4,2.3,3,4.5,4.8,6.5.9-3,1.7-6.1,2.5-9.1-4.8,0-9.3.2-13.9-1.7,2.7-3,5.4-6,9-7.9,3.4,1.7,6.2,1.8,9.5-.3,3.7,1.8,6.9,3.9,7.8,8.2,1.7,7.4-2.6,15-6,21.2-6.6-4.5-12.1-9.9-20.7-9.4-8.3,0-13.4,4.9-19.5,9.6-3.3-6.1-6.4-11.7-6.1-18.9,0-4.5,3-9.4,7.6-10.6Z"/>
  <path class="cls-6" d="M40.8,18c4.8-1.7,8.4-.8,12.7,1.6-4.4.4-8.5-.3-12.7-1.6Z"/>
  <path class="cls-6" d="M77.7,17.7c-3.2,2.1-6.1,2.1-9.5.3,2-1.3,7.3-1.4,9.5-.3Z"/>
  <path class="cls-6" d="M55.9,25.6c.5,2.9.9,5.9,1.3,8.8-1.7.2-3.3.3-5,.5-.3-2.4-.7-4.9-.9-7.4,1.5-.7,3-1.3,4.6-2Z"/>
  <path class="cls-6" d="M58.2,25.6l1,.4c4.6,1.9,9,1.7,13.9,1.7-.8,3-1.7,6.1-2.5,9.1-1.8-2-3.4-4.2-4.8-6.5-1.4,1.6-2.8,3.1-4.2,4.7-1.2-3.1-2.3-6.2-3.4-9.4Z"/>
  <path class="cls-2" d="M14.9,27.1c3.7.3,7.4,1,11.1,1.6,0,3.7.3,7.4.8,11.1-3.2,1.4-6.3,2.9-9.5,4.3-2.9-2.2-5.3-5-7.9-7.5,2-3.1,3.6-6.4,5.6-9.5Z"/>
  <path class="cls-2" d="M104.3,27c1.8,3.2,3.4,6.4,5.4,9.5-2.6,2.6-5.1,5.2-7.5,8-3.2-1.8-6.5-3.3-9.9-4.8.4-3.7.5-7.2.5-10.9,3.9-.5,7.7-1.2,11.5-1.7Z"/>
  <path class="cls-4" d="M21.5,30.5c.4,1.7.9,3.3,1.4,5-1.6.6-2.6,1.7-2.9,3.4-2.7-.5-5.2-1.4-7.8-2.4,3-3.4,4.6-5.6,9.4-6Z"/>
  <path class="cls-6" d="M40.9,30.3c3.2,1.6,6.4,3.3,9.7,4.8-1.7,1.1-3.4,2.3-5.1,3.4-1.6-2.7-3.1-5.4-4.5-8.2Z"/>
  <path class="cls-6" d="M76.9,29.1c.1,3.4.3,6.8.5,10.2-1.6-1-3.2-2.1-4.9-3.1,1.4-2.4,2.9-4.7,4.4-7.1Z"/>
  <path class="cls-4" d="M101.8,30.1c1.7,2.1,3.3,4.3,4.9,6.4-4,2.1-7.1,2.6-11.6,2.6.4-2.4.9-4.9,1.4-7.3,1.7-.6,3.5-1.2,5.3-1.7Z"/>
  <path class="cls-4" d="M22.9,35.5c1.1,2.2-.6,4.2-2.9,3.4.3-1.7,1.3-2.8,2.9-3.4Z"/>
  <path class="cls-4" d="M54.3,42c9.7-3.2,19.8,3.2,23.5,12.2,1,6.2.7,14.5-4.5,18.8-5.3,5.4-14.2,6.8-21.2,4.3-5.4-1.3-9.1-7.5-10.7-12.3-3.8-9.5,3.5-20.6,13-23Z"/>
  <path class="cls-5" d="M38.4,50.3c-1.4,8-3.2,15.6,1,23.1,3.1,4.6,9.4,7.3,14.1,10-2.3,3.6-4.6,8.3-8.2,10.7-4.3,2.7-9.6,4.1-14.6,3.4-4.6-.7-8.6-4.4-9-9.2-.2-4.1,1.5-8.5,2.5-12.4-4-3-10-6.3-11.8-11.2-2-5.8,1.6-11.4,6.7-14,6-3.1,12.9-1.7,19.1-.4Z"/>
  <path class="cls-6" d="M68.8,55c1.7,5.1.5,11.5-2.2,16.1-3,4.3-7.1,4.8-11.9,5.6-.8-1.5-1.7-3.1-2.5-4.6,2.9-.9,5.9-1.8,8.8-2.8-3.4-1.1-6.7-2.2-10.1-3.3-.8-3.8-2.6-8.9-.3-12.4,3.7-6.7,15.9-6.3,18.3,1.4Z"/>
  <path class="cls-6" d="M102.5,53.6c-7.9-2.1-13.7-2.4-21.8-1.6,6.3-4.4,16.2-3.7,21.8,1.6Z"/>
  <path class="cls-5" d="M102.5,53.6l1.9,1.5c-1.9,2.3-1.4,3.1,1.4,2.2,3.5,9.7-4,13.7-10.6,18.6.8,4.5,2.5,9.9,1.5,14.5-2.7,7-12.2,9-18.6,6-6.1-2.4-9.2-7.2-12.6-12.5,5.2-3.2,12.6-6.8,15.2-12.7,2.9-6.5,1.3-12.5,0-19.1,8.1-.9,13.9-.6,21.8,1.6Z"/>
  <path class="cls-4" d="M60.2,54.7c1.6,1.8,2.9,3.8,4.3,5.7-1.8.5-3.7,1-5.6,1.4-1.6-1-3.1-2-4.6-3.2,1.9-1.4,3.8-2.8,5.8-3.9Z"/>
  <path class="cls-6" d="M104.4,55.1l1.4,2.2c-2.8.9-3.3.1-1.4-2.2Z"/>
  <path class="cls-6" d="M25.5,58.6c1.7.9,3.4,1.8,5.1,2.7-.7,1.7-1.4,3.3-2,5-2.1,0-4.1,0-6.2.1-.2-1.6-.4-3.3-.6-4.9,1.2-1,2.5-2,3.7-3Z"/>
  <path class="cls-6" d="M92.5,58.3c1.3.8,2.6,1.6,3.9,2.5.1,1.9,0,3.7,0,5.7-2.5-.1-4.9-.3-7.4-.4,0-1.8,0-3.7.1-5.5,1.1-.8,2.3-1.6,3.4-2.3Z"/>
  <path class="cls-6" d="M32,75.9c1.6,1.1,3.1,2.3,4.6,3.5-1.9,2-4.3,2.8-6.8,3.8.6-2.5,1.3-4.9,2.2-7.3Z"/>
  <path class="cls-6" d="M88.8,77.4c0,1.8,0,3.6,0,5.4-1.9-.5-7.5-1.4-5-4.3.9-2.6,3-1.1,5-1.1Z"/>
  <path class="cls-5" d="M59.9,82c3.1,7.4,4.2,15.3,4.9,23.2-3.4.2-6.9.4-10.3.5.8-8.6.2-16.5,5.4-23.8Z"/>
  <path class="cls-6" d="M39.6,85.1c1,0,2.1,0,3.1,0-.6,1.7-1.3,3.3-1.9,4.9-1.2,0-2.4,0-3.6,0-.5-1.6-1-3.1-1.6-4.7,1.3,0,2.6-.1,4-.2Z"/>
  <path class="cls-6" d="M80,83.9c1.2,1.2,2.4,2.4,3.5,3.6-1.5.8-3.1,1.7-4.7,2.3-1.1-1.2-2.2-2.4-3.3-3.7,1.5-.8,2.9-1.5,4.4-2.3Z"/>
  <path class="cls-1" d="M65.1,48.7c7.4,4.3,7.3,14.2,8,21.7-.3,8.3-1.6,18.8-8.3,24.2-3,2.4-7,3.1-10.8,2.1l-8.2-4.3h0c-1.4-.5-2-2.2-1.1-3.5l2.5-3.7c3.1-2,7.8,6.8,13.9,2,1.5-1.2,2.5-3,2.7-5s.3-2.8.4-4.2c-2.3,0-4.5,0-6.8-.2-.4,0-.8,0-1.2,0-6.9.3-12.6-7-12.9-13.5,0-11.1,10.9-20.5,21.7-15.7Z"/>
  <path class="cls-3" d="M61.1,56.1c4.8,3.8,2.7,8.5,3.1,13.8-7.1.3-9.5,1.6-12.6-6v-1.6c3-3.5,4.1-7.4,9.5-6.3Z"/>
</svg>