<?xml version="1.0" encoding="UTF-8"?>
<svg id="_Слой_1" data-name=" Слой 1" xmlns="http://www.w3.org/2000/svg" version="1.1" viewBox="0 0 120 120">
  <defs>
    <style>
      .cls-1 {
        fill: #e5e8cf;
      }

      .cls-1, .cls-2, .cls-3, .cls-4, .cls-5, .cls-6, .cls-7, .cls-8 {
        stroke-width: 0px;
      }

      .cls-9 {
        stroke: #010101;
        stroke-miterlimit: 10;
        stroke-width: 2px;
      }

      .cls-9, .cls-8 {
        fill: #fff;
      }

      .cls-2 {
        fill: #ffa51e;
      }

      .cls-3 {
        fill: #02020b;
      }

      .cls-4 {
        fill: #492b56;
      }

      .cls-5 {
        fill: #007fb7;
      }

      .cls-6 {
        fill: #00c8e4;
      }

      .cls-7 {
        fill: #f5175d;
      }
    </style>
  </defs>
  <path id="p1" class="cls-3" d="M54.2,6.9c4.9-.1,9.7,0,14.6,0s4.5,2.5,5.5,4.9c-.4,1.3-.7,2.8-.9,4.1,2.8,1.5,5.9,2.1,8.8,3.4,11.7,5.1,21.3,15.2,25.5,27.2,2.6,6.3,2.7,12.8,2.4,19.5-1.8,10.6-5.8,20.4-13.6,28-14,14.4-38.2,18.1-56.4,9.2-10.1-4.5-18.2-12.5-22.9-22.4-1.2-2.9-2.2-6.1-3.4-9-1.8-8.6-1.6-17.3,1.6-25.5,3.8-10.3,11.2-19.1,20.9-24.7,4.2-2.8,8.9-4,13.4-6.1,0-1.3-.4-2.6-.7-3.8.7-2.5,2.4-5,5.4-5h-.1ZM53,9.7c-.7.4-1.1,1.1-1.1,1.7-.7,2.4.3,4.7,1.3,6.9l.4.7c2.8.4,5.9.3,8.8,0,2.2-.1,4-.4,5.7-2-.7-2.1.9-3.6.8-5.8,1.1.1,2,.4,3.1.5-1.8-2.4-4.3-1.6-7-2.1-3.8-.9-8.2-1.1-12,0h0ZM70.1,13.4c-.7.7-.7,1.5,0,2.2,1.6.5,1.8-2.6,0-2.2ZM16.2,66.7l1.3.7c.9,3.2.4,7,2,9.8.5-5.1-1.1-10.3-.9-15.4v-2.5c.3-5,1.9-9.8,3.4-14.5l.8-1.1c1.5-1.6,2-2.8,2.4-4.9l.9-1.3,1.5-1.1.9,1.3-.5.7c-3.1,4-5,8.3-6.3,13.2-1.5,4-1.2,8.4-1.5,12.7,0,2.5.4,5.1,1.1,7.5,1.9,1.7,7.2,2.4,8.8.3-.1-2-.8-4-.7-5.9,0-2.5,1.1-4.4-.4-6.6,0-2.2,1.1-4,1.9-6.1,1.9-4.9,4.9-9.4,8.6-13.1,2.6-2.5,6.9-3.8,8.6-7-.9-2.9-2.4-5.7-4.2-8.2l-1.3.7c-5,2.4-8.5,6.1-12.4,9.8-1.6-2,.5-3.3,1.9-4.6,3.4-2.6,6.1-5.7,10-7.6,1.8-1.1,4-1.8,3.8-4.2-3.6.4-7.3,3-10.3,5-3.6,2.9-7.4,4.7-10,8.6-5.4,7-11.1,16-9.9,25.1.4,2.9.1,5.9.4,8.8h0ZM87.4,27.5c0,.7-.3,1.3-.7,2-1.9-1.7-3.9-2.8-6.2-3.7l-1.3-.7c-1.8,2.6-3.1,5.9-3.8,9,3.4,2.9,7.6,4.4,10.4,8,3.9,4.9,7,11.2,8.2,17.3-.5,4.2-.7,8.6-.5,12.8,2.8.7,7,1.7,8.4-1.7,1.5-4.7,2.2-10.3.8-15.2-.5-3.7-1.5-6.7-3.4-9.9-2.4-5.5-6.3-10.4-10.8-14.5,1.9-1.2,2.8.3,4,1.6,3.4,4.2,7,8.7,8.9,13.7.9,2.5,1.8,5.1,2.8,7.8,0,2.5-.8,4.6.9,6.7-1.2,3-1.2,6.1-.9,9.4l.9-.3c.4-2.9.5-5.8,1.1-8.7,2.2-6.2-.1-13.2-2.7-19-4.6-9-12.4-16.4-21.3-21-1.6-.9-3.5-1.5-5.4-1.8,2.2,3.6,7.2,5.4,10.4,8.2h.1ZM47.2,24c.4.5.9,1.1,1.3,1.6l.3.8c.3,1.1.5,2.1.9,3.2,1.8,1.2,4.6.7,6.6.8,5.5.3,10.9-.9,16.5-.3,1.9-.7,1.8-3.7,2.8-5.3.8-1.6.5-2-.7-3.3-3.9-.4-8.1-.3-12,0-4.9,0-9.7-.5-14.6,0-.5.8-.9,1.6-1.1,2.5h-.1ZM32.6,68.5v.9l.3.7c1.1,3.6,2.3,7.4,4.5,10.6.9,1.3,1.5,1.7,3.1,1.8-1.3-3.6-3.4-6.3-4.3-9.8-1.1-4.2-1.5-8.4-.8-12.7.5-4.5,2.7-8.2,4.5-12.3l1.1-1.5.4-.5.5-.8c1.8-.4,2.4-.8,3-2.6,2.3-.4,3.1-.8,4.3-2.8.8-.4,1.6-.7,2.3-1.1,2.3-.3,3.1-5.5,1.1-5.8-1.6-.5-1.1,3.2-2.3,3.8-2.4,1.7-5.1,2.9-7.4,5-7.4,6.6-11.9,17.3-10,27h-.1ZM55.7,32.5v.8c-.5,1.8-.5,4.4-1.9,5.7-1.6,1.5-3.8,2.4-5.7,3.7-.8.5-1.5,1.1-2,1.6-2.2,2.1-4,4.5-5.5,7.1-5.5,8.8-4.7,21.9,2.6,29.7,1.3,1.6,3,2.8,5,3.4,4.6,1.3,9.9.5,14.6.8,4.9-.3,10.5,1.1,14.7-1.8,2.7-1.5,4.5-4.7,6.2-7.3,3-4.5,4.2-10.6,2.3-15.6,0-1.2-.3-2.4-.4-3.6h-.9c0,1.6,0,3.2-.1,4.6h-.8c0-3.8,1.9-6.9-.7-10.2-1.9-3.6-4-6.7-7.7-9-2-1.3-4.9-2.2-6.1-4.2-1.1-1.6-1.1-3.8-1.6-5.7-3.9-.4-7.8-.3-11.7,0h-.1ZM82.7,82.5c2.3-.3,3.1-2,4.2-3.8,2.3-4.7,4.2-9.4,3.9-14.6.3-7.5-3.2-15-8.2-20.7-2.6-2.9-5.8-4.5-8.9-6.6-1.5-.9-1.6-3.4-3-4.5-1.3.3-.9,3.6-.3,4.5,3,3.3,7.7,4.6,10.4,8.2,5.9,7,9,17.3,6.6,26.2-.9,4.4-3.5,7.3-5,11.3h.3ZM103.6,71.6c-.7.8-.7,1.5,0,2.2,1.6.5,1.8-2.8,0-2.2ZM25.2,77.4c.1,1.3,1.5,2.4,2.7,2.8.4-1.6,1.6-2.5,0-3.7-.9.3-1.8.5-2.7,1.1h0ZM93.1,77.4c.3,1.3,1.5,2.4,2.7,2.8.4-1.6,1.6-2.5,0-3.7-.9.3-1.8.5-2.7,1.1h0ZM31.3,81.2c-.5.7-.9,1.3-1.2,2.2l-1.8.3c1.2,1.3,2.6,2.5,4.2,3.4,1.3,0,2.7-2,3.5-2.8-.5-1.7-2.4-3.3-3.6-4.6-.4.5-.8.9-1.1,1.5ZM89.6,81.2c-1.2.3-1.9.9-2.3,2.1-.7,1.3,1.8,3.2,2.6,4.1,1.3-.8,2.7-1.8,3.6-3,.1-1.2-2-2.6-3-3.3l-.9.3h0ZM32.6,92.5c1.2.4,2.7.9,4,.5,1.1-.7,2.3-2.8,3.8-2.4,0,.8,0,1.6.1,2.4l-.8,1.5c1.8,1.8,3.5,1.5,5.4,0,.5.8,1.2,1.5,1.9,2.1l.9,1.1c2-.7,3.9-1.5,5.8-2.2.9,1.5.9,3.4,2.6,4.2,1.6.1,2.7.4,4-.8.7-.5,1.3-.9,2-1.5v2.2c.1,0,.4,1.7.4,1.7,1.5-.3,3.1-.7,4.6-1.2.3-1.1.5-2.1.7-3.2.7.1,1.2.4,1.9.7,1.2,1.3,2.4,1.2,4.2,1.3.5.3,1.2.1,1.9-.4-.4-1.3-1.1-2.6-1.5-4,.9.3,1.9.7,3,.9.7.3,1.3.7,2,.9,3.2-1.5,3.6-2.5,3.1-6.1l1.1-.7c.5,1.5.9,2.8,1.5,4.2,1.9-.4,3.8-1.1,5.7-1.6-.5-1.5-3.8-1.7-4.3-3.3-.7-1.5-1.2-3-2-4.5-2.8-.8-4.9.3-7.3,1.5-2.8,1.5-5.9,2.4-9,2.9-1.8.3-3.4.5-5,.8h-.8c-2.2,0-4.3-.3-6.3-.5-3.6-1.2-7.4-2-10.8-3.7-1.6-.7-2.8-1.6-4.7-.9-1.6.8-2.2,2.9-3.1,4.4-.7,1.7-3.8,1.8-4.3,3.6h-.5Z"/>
  <path id="p2" class="cls-4" d="M65,9.6c-2.2.1-4.5.4-6.6.5-1.8-.3-3.5-.5-5.4-.4,3.6-1.2,8.2-1.1,12,0h0Z"/>
  <path id="p3" class="cls-1" d="M53,9.7c1.8,0,3.6.1,5.4.4-2,1.2-4.2,1.2-6.5,1.3,0-.8.4-1.3,1.1-1.7Z"/>
  <path id="p4" class="cls-2" d="M58.4,10.1c2.2-.1,4.5-.4,6.6-.5,2.7.5,5.3-.3,7,2.1-1.1-.1-2-.3-3.1-.5-3-.4-5.4-1.1-7.3,1.8-2.6-.5-2.6,1.8-.1,1.8-.9,1.5-2.3,2.2-3.9,2.9.1-1.3-.3-1.8-1.2-1.5-1.1.5-2,1.3-3.1,2-.9-2.1-2-4.5-1.3-6.9,2.3,0,4.5-.3,6.5-1.3ZM55.6,12.1c-2,.8-1.2,3.2.8,2.9,2-.7,1.3-3.4-.8-2.9Z"/>
  <path id="p5" class="cls-7" d="M68.9,11.2c0,2.2-1.5,3.7-.8,5.8-1.6,1.6-3.5,1.7-5.7,2-2.8.1-5.9.4-8.8,0l-.4-.7c1.1-.7,2-1.3,3.1-2-.3,1.3.1,1.8,1.2,1.5,1.6-.7,3-1.5,3.9-2.9v-1.8c2-2.9,4.5-2.2,7.6-1.8h-.1ZM63.8,15.1c-1.1.3-1.3.9-.9,1.7,1.5,1.1,2.8-1.5.9-1.7Z"/>
  <path id="p6" class="cls-6" d="M49,12c.3,1.3.5,2.6.7,3.8-4.5,2.1-9.2,3.3-13.4,6.1-9.7,5.4-17.1,14.4-20.9,24.7-3.1,8.2-3.4,16.9-1.6,25.5-.7.4-1.3.7-2,.9-.1-1.5-.7-2.2-1.3-2.5-.1,1.1-.3,2-.3,3-1.2-5.3-2.6-10.8-1.5-16.4.9-5.9,1.8-11.5,4.6-17,4.6-8.4,11.3-16.5,20-21.4,5.1-2.6,10.3-5.3,15.9-6.9h-.1Z"/>
  <path id="p7" class="cls-3" d="M55.6,12.1c2.2-.5,2.8,2.4.8,2.9-2,.1-2.8-2.2-.8-2.9Z"/>
  <path id="p8" class="cls-6" d="M74.3,11.8c10.7,3.6,20.2,8.3,27.7,16.7,3.8,4.6,7.3,8.8,9.2,14.6,2.6,7.4,5.1,16.5,3.1,24.3-1.2.4-2.3.9-3.5,1.3-.1-.9-.4-1.7-.4-2.6.3-6.7,0-13.2-2.4-19.5-4.3-11.9-13.8-21.9-25.5-27.2-2.8-1.3-5.9-2-8.8-3.4.3-1.3.5-2.8.9-4.1h-.3Z"/>
  <path id="p9" class="cls-3" d="M61.5,13.1v1.8c-2.6,0-2.6-2.4,0-1.8Z"/>
  <path id="p10" class="cls-7" d="M70.1,13.4c1.6-.4,1.6,2.8,0,2.2-.7-.8-.7-1.5,0-2.2Z"/>
  <path id="p11" class="cls-3" d="M63.8,15.1c1.9.4.5,2.8-.9,1.7-.4-.9-.1-1.5.9-1.7Z"/>
  <path id="p12" class="cls-3" d="M56.2,16.3c.9-.4,1.3,0,1.2,1.5-1.1.3-1.5-.1-1.2-1.5Z"/>
  <path id="p13" class="cls-4" d="M45.7,19.2c.3,2.4-2,3.2-3.8,4.2-3.9,1.8-6.6,5-10,7.6-1.3,1.3-3.6,2.6-1.9,4.6-.5.7-1.1,1.3-1.8,2l-.9-1.3-.5-.7h-.8v1.7c-.1,0-1.1,1.3-1.1,1.3-2.2.8-4,2.8-2.4,4.9l-.8,1.1c-2.8,2.6-3.4,6.7-4.2,10.3-.4,1.6.3,2.8.7,4.2v2.5c-.7,1.8-1.1,3.6-1.1,5.7l-1.3-.7c-.3-2.9,0-5.9-.4-8.8-1.2-9.1,4.5-18.1,9.9-25.1,2.7-4,6.3-5.7,10-8.6,3-2.1,6.5-4.6,10.3-5h.3Z"/>
  <path id="p14" class="cls-4" d="M77,19.3c1.9.4,3.6.9,5.4,1.8,9,4.6,16.7,12.1,21.3,21,2.6,5.8,4.9,12.8,2.7,19l-1.1-.4c.3-2.4,1.2-5-.9-6.7-1.1-2.5-1.9-5.1-2.8-7.8-2-4.9-5.7-9.5-8.9-13.7-1.2-1.3-2.2-2.8-4-1.6-.5-.5-1.2-1.1-1.8-1.5.4-.7.5-1.3.7-2-3.1-2.8-8.2-4.6-10.4-8.2h-.1Z"/>
  <path id="p15" class="cls-1" d="M48.3,21.3c4.9-.5,9.7-.1,14.6,0-3.6,2.2-7,1.2-10.9,1.3-1.5,0-2.4,2-3.4,2.9-.4-.5-.9-1.1-1.3-1.6,0-.9.4-1.7,1.1-2.5h0Z"/>
  <path id="p16" class="cls-6" d="M62.9,21.3c3.9-.1,8.1-.4,12,0,1.2,1.3,1.5,1.7.7,3.3-.9,1.6-.8,4.6-2.8,5.3-5.5-.7-10.9.5-16.5.3-2-.1-4.9.4-6.6-.8,2.4-1.2,5-1.2,7.6-1.3,1.2.1,2-.4,2.6-1.6,4-.4,8.1.1,12-.4v-2c-4-.4-8.2.3-12.4,0-3.1,0-5.8-.4-8.6,1.1-.7.3-1.3.7-2,.9l-.3-.8c.9-.9,1.9-2.9,3.4-2.9,3.9-.3,7.3.8,10.9-1.3v.3Z"/>
  <path id="p17" class="cls-3" d="M59.5,24.4c4.2,0,8.4-.5,12.6,0v2c-4,.5-8.1,0-12.1.4-2.7,0-5.7.5-8.2,0l-.7-1.1c2.8-1.5,5.5-1.1,8.6-1.1v-.3Z"/>
  <path id="p18" class="cls-7" d="M43.8,25.3c1.6,2.5,3.1,5.3,4.2,8.2-1.8,3-6.1,4.4-8.6,7-3.6,3.7-6.7,8.3-8.6,13.1-.8,2.1-1.9,3.8-1.9,6.1l-1.1.8c0,1.2.1,2.4.3,3.6-.4-.5-.9-1.1-1.5-1.3-1.1,1.1-1.8,2.1-3.2,2.8v-4.2c-2.2-.1-1.2,2.4-1.8,3.8-.5-.1-1.1-.3-1.6-.4.3-4.1,0-8.7,1.5-12.7,2.3-2,3.2-4.9,5.5-6.9-.4,2.6-1.1,5.3-1.1,8,2.3-3.2,4.2-6.7,6.6-9.8,3.1-5,8.6-7.3,12.3-11.5-1.2-.9-2.6-1.6-3.4-2.9.3-.8.7-1.7.9-2.5l1.3-.7v-.5ZM22.1,56.1q.4.4,0,0ZM26.6,58.4h0ZM23.2,59.2q.4.4,0,0ZM25.2,60.2q.4.4,0,0Z"/>
  <path id="p19" class="cls-1" d="M50.8,25.4l.7,1.1c2.6.7,5.5,0,8.2,0-.4,1.2-1.3,1.7-2.6,1.6-2.7,0-5.1,0-7.6,1.3-.3-1.1-.7-2.1-.9-3.2.7-.3,1.3-.7,2-.9h.1Z"/>
  <path id="p20" class="cls-7" d="M79.2,25.3l1.3.7c.4,1.3.9,2.8,1.3,4.1-1.5.7-2.4.4-2.7,2.2,3.4,3.3,7.4,5.8,10.5,9.4,2.4,2.5,3.8,5.7,6.2,8-.3-2-.7-3.8-1.1-5.7,1.5.5,2.8,1.1,4.3,1.7,1.9,3.3,2.8,6.3,3.4,9.9-.3,3.2-.3,6.2-.4,9.4-2.2,0,.1-5.1-2.7-5.1v4.2c-.4.5-1.1.8-1.8,1.1-.9-2.4-1.9-3.7-3.9-5.3-1.2-6.1-4.5-12.4-8.2-17.3-2.8-3.7-7-5.1-10.4-8,.7-3,2-6.3,3.8-9l.3-.3ZM100.5,55.1q.4.4,0,0ZM98.3,56.1q.4.4,0,0ZM96.3,57.2q.4.4,0,0ZM100.1,57.2l-.4.8.5.7h.8l.4-.8-.5-.7h-.8ZM96.3,59.2q.4.4,0,0ZM97.4,61.3q.4.4,0,0Z"/>
  <path id="p21" class="cls-1" d="M42.5,25.9c-.3.8-.7,1.7-.9,2.5-2.6,1.7-5.3,3.4-7.6,5.7-1.9,1.8-3.2,4.2-5.1,6.1h-.7c0-.1-.4-1.7-.4-1.7l.5-.7c.5-.7,1.1-1.3,1.8-2,3.9-3.7,7.4-7.5,12.4-9.8h0Z"/>
  <path id="p22" class="cls-2" d="M80.5,25.9c2.3.9,4.3,2,6.2,3.7.5.5,1.2,1.1,1.8,1.5,4.5,4.1,8.4,9,10.8,14.5-1.5-.5-2.8-1.2-4.3-1.7.4,1.8.8,3.8,1.1,5.7-2.6-2.4-3.8-5.7-6.2-8-3.1-3.6-7.2-6.1-10.5-9.4.3-1.8,1.2-1.6,2.7-2.2-.4-1.5-.8-2.8-1.3-4.1h-.1Z"/>
  <path id="p23" class="cls-2" d="M41.5,28.4c.8,1.5,2.2,2,3.4,2.9-3.6,4.2-9.2,6.3-12.3,11.5-2.6,3.2-4.3,6.6-6.6,9.8,0-2.8.7-5.3,1.1-8-2.2,2.1-3.1,4.9-5.5,6.9,1.3-4.9,3.2-9.1,6.3-13.2l.4,1.6h.7c1.9-1.7,3.1-4.1,5.1-5.9,2.2-2.1,5-3.8,7.6-5.7v.3Z"/>
  <path id="p24" class="cls-1" d="M52.3,32.7c-.3,2-.7,3.8-1.1,5.8-.8.4-1.6.7-2.3,1.1-2.4,0-3.9.1-4.3,2.8-2,.1-2.7.7-3,2.6l-.5.8-.4.5-1.1,1.5c-3.4,2.2-4,5.9-5.3,9.4-1.3,3.8-.8,7.6-1.8,11.5-1.9-9.8,2.6-20.4,10-27,2.3-2.1,5-3.2,7.4-5,1.2-.7.7-4.4,2.3-3.8Z"/>
  <path id="p25" class="cls-6" d="M52.3,32.7c2.2.3,1.3,5.5-1.1,5.8.4-1.8.7-3.8,1.1-5.8Z"/>
  <path id="p26" class="cls-5" d="M55.7,32.5c3.9-.1,8-.3,11.7,0,.5,1.8.5,4.1,1.6,5.7,1.2,2,4,3,6.1,4.2,3.6,2.1,5.7,5.4,7.7,9-2.3.3-4.3.3-6.6-.3,1.5-1.8-.3-2.9-1.2-4.5-1.5-1.8-3.6-3.3-5.8-4.4-1.6-.4-3.4-.4-5-1.1.3-2.6.5-5-.8-7.5-1.9-.5-3.9-.8-5.9-.8h-2v-.7c.1,0,.3.3.3.3Z"/>
  <path id="p27" class="cls-6" d="M70.9,32.3c1.3,1.1,1.3,3.6,3,4.5,3.1,2.1,6.3,3.8,8.9,6.6,5,5.7,8.5,13.1,8.2,20.7.1,5.3-1.6,9.9-3.9,14.6-1.1,1.8-1.9,3.6-4.2,3.8,1.5-4.1,4-7,5-11.3,2.4-9-.7-19.1-6.6-26.2-2.8-3.6-7.6-4.9-10.4-8.2-.7-.8-1.2-4.1.3-4.5h-.3Z"/>
  <path id="p28" class="cls-1" d="M55.4,33.3h2c.4,1.5.9,2.9.9,4.5-.7,0-1.5,0-2.2.1.7,1.5,1.9,2.9,2.2,4.5-1.1,2.4-4.6,5.1-7.3,5.1-2.7-.9-2.7-2.8-3.1-5,1.9-1.2,4-2.1,5.7-3.7,1.3-1.3,1.3-4,1.8-5.7h0Z"/>
  <path id="p29" class="cls-6" d="M57.6,33.3c2,0,4,.1,5.9.8,1.3,2.5.9,4.9.8,7.5,1.5.7,3.4.5,5,1.1,2.2,1.1,4.3,2.5,5.8,4.4.9,1.6,2.7,2.6,1.2,4.5-9.4-.4-18.8-.3-28.2.3.4-1.3.7-2.5.9-3.8-1.8,1.3-3.4,2.6-5.1,4,.7-2.1,2.2-3.4,3.4-5.1-.3-.8-.7-1.5-1.1-2.2.7-.5,1.3-1.2,2-1.6.4,2.2.4,4.2,3.1,5,2.7,0,6.2-2.8,7.3-5.1-.3-1.6-1.5-3-2.2-4.5.7,0,1.5,0,2.2-.1,0-1.6-.5-3.2-.9-4.6v-.3ZM64.9,46.9c-1.6.7-1.1,2.8.7,2.5,1.6-.7,1.1-2.8-.7-2.5ZM71.1,46.9c-.5,1.1-.3,1.7.8,2,2.2-.4.9-3.3-.8-2Z"/>
  <path id="p30" class="cls-7" d="M26.1,35.7h.8l.5.7-1.5,1.1v-1.7h.1Z"/>
  <path id="p31" class="cls-7" d="M25.1,38.7c-.3,2.1-.9,3.3-2.4,4.9-1.6-2.2.1-4.2,2.4-4.9Z"/>
  <path id="p32" class="cls-6" d="M49,39.5c-1.2,2-2,2.4-4.3,2.8.4-2.6,1.9-2.8,4.3-2.8Z"/>
  <path id="p33" class="cls-6" d="M44.6,42.4c-.4,1.8-1.1,2.1-3,2.6.3-2,.9-2.5,3-2.6Z"/>
  <path id="p34" class="cls-7" d="M21.8,44.7c-1.6,4.7-3.1,9.5-3.4,14.5-.5-1.5-1.1-2.6-.7-4.2.7-3.6,1.2-7.8,4.2-10.3h-.1Z"/>
  <path id="p35" class="cls-1" d="M46,44.3c.4.7.8,1.5,1.1,2.2-1.2,1.7-2.7,3-3.4,5.1,1.8-1.3,3.4-2.6,5.1-4-.3,1.3-.5,2.5-.9,3.8l-.8,1.3c10,0,20-.1,30,0v.9c-3.6.1-7.4,0-11.1.3-5.7-.1-11.9-.7-17.4.5-3.1.8-3.5,3.8-5,6.2-1.1.5-1.8-2-2.2-2.6-.5-2.2,0-4.5-.9-6.7,1.5-2.6,3.4-5,5.5-7.1h0Z"/>
  <path id="p36" class="cls-6" d="M41.3,45.7l-.4.5.4-.5Z"/>
  <path id="p37" class="cls-2" d="M64.9,46.9c1.8-.3,2.3,2,.7,2.5-1.8.3-2.3-2-.7-2.5Z"/>
  <path id="p38" class="cls-1" d="M71.1,46.9c1.9-1.2,3.1,1.6.8,2-1.2-.3-1.5-1.1-.8-2Z"/>
  <path id="p39" class="cls-6" d="M39.8,47.7c-1.8,4.2-3.9,7.8-4.5,12.3-.8,4.2-.3,8.4.8,12.7.9,3.6,3.1,6.3,4.3,9.8-1.6-.3-2.2-.5-3.1-1.8-2.2-3-3.4-6.9-4.5-10.6v-.7c-.1,0-.3-.9-.3-.9.9-3.8.4-7.6,1.8-11.5,1.3-3.6,1.9-7.3,5.3-9.4h.1Z"/>
  <path id="p40" class="cls-7" d="M76.2,51.3c2.3.5,4.3.5,6.6.3,2.7,3.2.7,6.3.7,10h.8c0-1.5,0-3,.1-4.6h.9c.1,1.2.3,2.4.4,3.6-.3,4.1-2.2,7.5-2.6,11.5-.5-.8-.9-1.7-1.2-2.6-.5.1-.8.5-1.2.8,0,.7,0,1.3.1,1.8-2.3,1.5-3,4.1-5.3,5.8-2.8,2.6-7.6,2.8-11.2,2.9-5,0-10.7.5-15.1-1.8-2.6-1.6-5-3.3-7.8-4.6-1.5-2.5-1.9-7.4-1.1-10.3,1.3-.9,3-1.5,4.6-1.8-.7,1.6-1.9,2.5-3.1,3.8.9.8,1.9,1.6,2.8,2.1.9-.5,1.9-1.2,2.6-2.1-.4-1.2-1.6-2.6-1.1-3.8.4-1.3,2.4-1.7,3.5-2.4-1.5,3.8-.8,8.4-.8,12.4-.1,2.2,2,4.1,3.4,5.8,1.2,1.7,3,1.3,4.9,1.6,3.8,0,7.7.3,11.3-.3,2.2-.9,4.2-3.4,5.7-5.3-.1-4-.3-7.9-.4-11.9-.8-2.2-3.5-4.4-5.5-5.8-3.8-.4-7.6-.1-11.3-.8,3-1.1,6.1-.4,9-1.6,3.6-.3,7.3,0,11.1-.3v-.9c-10-.3-20,0-30,0l.8-1.3c9.4-.5,18.8-.7,28.2-.3h.1ZM75.3,56.1l-.4.8.4.8h.8l.4-.8-.4-.8h-.8ZM78.4,59.2c-1.6.7-1.1,2.8.7,2.5,1.6-.7,1.1-2.8-.7-2.5ZM75.4,68c.8.9,1.5,1.6,2.7,2,.9-2,.9-2.8,0-4.6-1.3.5-2.4,1.2-2.7,2.6ZM46,71.4c-1.6.7-1.1,2.8.7,2.5,1.6-.7,1.1-2.8-.7-2.5Z"/>
  <path id="p41" class="cls-2" d="M40.5,51.4c1.1,2.2.4,4.5.9,6.7.4.7,1.1,3.2,2.2,2.6,1.5-2.4,1.9-5.4,5-6.2,5.5-1.2,11.7-.8,17.4-.5-3,1.2-6.1.5-9,1.6-3.1.5-4.6,2.6-7.2,4.2-1.1.7-3.1,1.1-3.5,2.4-.5,1.3.5,2.6,1.1,3.8-.7.9-1.6,1.6-2.6,2.1-1.1-.7-2-1.3-2.8-2.1,1.1-1.2,2.4-2.2,3.1-3.8-1.5.5-3.1,1.1-4.6,1.8-.8,2.9-.4,7.8,1.1,10.3,1.9,4,4.9,6.6,8.6,9l-1.1,1.2h-.9c-2-.7-3.6-1.8-5-3.4-7.3-7.6-8.2-20.8-2.6-29.7h-.1ZM39.8,58.4c-.7.7-.7,1.5,0,2.2,1.6.4,1.6-2.6,0-2.2Z"/>
  <path id="p42" class="cls-7" d="M104.4,54c2.2,1.7,1.2,4.4.9,6.7-1.8-2.1-1.1-4.2-.9-6.7Z"/>
  <path id="p43" class="cls-5" d="M100.5,55.1q.4.4,0,0Z"/>
  <path id="p44" class="cls-5" d="M22.1,56.1q.4.4,0,0Z"/>
  <path id="p46" class="cls-1" d="M75.3,56.1h.8l.4.8-.4.8h-.8l-.4-.8.4-.8Z"/>
  <path id="p47" class="cls-5" d="M98.3,56.1q.4.4,0,0Z"/>
  <path id="p48" class="cls-4" d="M102.7,55.6c1.3,4.9.8,10.4-.8,15.2-1.3,3.6-5.5,2.4-8.4,1.7,0-4.2,0-8.6.5-12.8,1.9,1.7,3,2.9,3.9,5.3.7-.3,1.2-.7,1.8-1.1v-4.2c2.8,0,.4,5.1,2.7,5.1,0-3.2,0-6.2.4-9.4h-.1Z"/>
  <path id="p49" class="cls-5" d="M96.3,57.2q.4.4,0,0Z"/>
  <path id="p50" class="cls-3" d="M100.1,57.2h.8l.5.7-.4.8h-.8l-.5-.7.4-.8Z"/>
  <path id="p51" class="cls-8" d="M26.6,58.4h0Z"/>
  <path id="p52" class="cls-8" d="M39.8,58.4c1.6-.4,1.6,2.6,0,2.2-.7-.8-.7-1.5,0-2.2Z"/>
  <path id="p54" class="cls-5" d="M23.2,59.2q.4.4,0,0Z"/>
  <path id="p55" class="cls-2" d="M78.4,59.2c1.8-.3,2.3,2,.7,2.5-1.8.3-2.3-2-.7-2.5Z"/>
  <path id="p56" class="cls-5" d="M96.3,59.2q.4.4,0,0Z"/>
  <path id="p57" class="cls-5" d="M25.2,60.2q.4.4,0,0Z"/>
  <path id="p58" class="cls-4" d="M27.8,60.2l1.1-.8c1.5,2.2.4,4.1.4,6.6s.5,4,.7,5.9c-1.8,2.1-6.9,1.5-8.8-.3-.7-2.4-1.1-5-1.1-7.5.5.1,1.1.3,1.6.4.5-1.3-.3-4,1.8-3.8v4.2c1.5-.5,2.2-1.7,3.2-2.8.5.4,1.1.8,1.5,1.3,0-1.2-.3-2.4-.3-3.6v.3Z"/>
  <path id="p60" class="cls-4" d="M85.8,60.6c1.9,5,.7,11.2-2.3,15.6-.5-.8-1.2-1.5-1.8-2.2l-.7-1.8c0-.7,0-1.3-.1-1.8.3-.4.7-.7,1.2-.8.4.9.8,1.8,1.2,2.6.4-4,2.3-7.4,2.6-11.5h-.1Z"/>
  <path id="p61" class="cls-5" d="M97.4,61.3q.4.4,0,0Z"/>
  <path id="p62" class="cls-7" d="M105.4,60.9l1.1.4c-.7,2.9-.7,5.8-1.1,8.7l-.9.3c-.3-3.2-.3-6.2.9-9.4Z"/>
  <path id="p63" class="cls-7" d="M18.5,61.7c0,5.1,1.5,10.3.9,15.4-1.6-2.9-1.1-6.6-2-9.8,0-2,.4-3.7,1.1-5.7Z"/>
  <path id="p64" class="cls-2" d="M71,49.5c1.6,4.5.9,10.2,1.1,14.9.2,5-1.4,9.4-4.6,12.3-5.7.7-12.8.9-18.4,0-.7-1.4-1.2-2.8-2-4.3,1.2-4,.5-7.6.7-11.8,1.2-1.9,2.8-3.1,4.6-3.5,1.1.9,5.2-3.3,6.1-2.3,10.5,1.3,20.8,13.9,9.3,17-2.8,3.1-7.1,4.4-10.2,4.4-.7.7-7.4-3.5-6.4-6.6,2,2.6,4.4,4.3,7.1,5.2,2.5-.5,5-3.3,7.1-5.2.4,1.9.9,3.8,1.4,5.4,4.8-4.7,3.5-12.8,2-19.4.5-2.1,1.4-4.3,2.1-6.1h.2Z"/>
  <path id="p65" class="cls-2" d="M78.1,65.2c.8,2,.9,2.8,0,4.6-1.2-.4-1.9-1.1-2.7-2,.3-1.6,1.3-2.1,2.7-2.6Z"/>
  <path id="p66" class="cls-5" d="M110.1,66c0,.9.3,1.7.4,2.6,1.2-.4,2.3-.8,3.5-1.3-.9,5.5-2.3,10.8-4.6,16-8.1,15.4-23.9,27.2-41.7,28.6-4.9,0-9.7.1-14.6-.1-10.9-1.8-21.3-6.5-29.1-14.4-7.2-6.6-11.9-14.8-14.2-24.1,0-1.1.1-2,.3-3,.7.3,1.2,1.1,1.3,2.5.7-.3,1.3-.7,2-.9,1.2,2.9,2.2,6.1,3.4,9,4.7,9.9,12.8,17.9,22.9,22.4,18.1,8.8,42.2,5.1,56.4-9.2,7.8-7.6,12-17.4,13.6-28h.3Z"/>
  <path id="p67" class="cls-2" d="M32.8,69.3v.7c.1,0,0-.7,0-.7Z"/>
  <path id="p68" class="cls-2" d="M46,71.4c1.8-.3,2.3,2,.7,2.5-1.8.3-2.3-2-.7-2.5Z"/>
  <path id="p69" class="cls-7" d="M103.6,71.6c1.6-.5,1.5,2.8,0,2.2-.7-.8-.7-1.5,0-2.2Z"/>
  <path id="p70" class="cls-3" d="M80.9,72.1l.7,1.8c-1.2,4.5-4.5,7.9-9.2,8.7-5.7.7-11.7-.5-17.3.8-1.8-.1-3.4-.3-5.1-.1-3.8-2.2-6.7-4.9-8.6-9,2.8,1.2,5.3,3,7.8,4.6,4.5,2.5,10.1,1.8,15.1,1.8,3.6-.3,8.4-.4,11.2-2.9,2.3-1.7,2.8-4.4,5.3-5.8h.1Z"/>
  <path id="p71" class="cls-6" d="M81.6,74.1c.5.8,1.2,1.5,1.8,2.2-1.8,2.5-3.5,5.7-6.2,7.3-4.2,2.9-9.7,1.6-14.7,1.8-4.7-.3-10,.5-14.6-.8h.9c2.3.1,4.3.7,6.2-1.1,5.5-1.3,11.6,0,17.3-.8,4.7-.8,8-4.2,9.2-8.7h.1Z"/>
  <path id="p72" class="cls-2" d="M27.9,76.4c1.6,1.2.5,2.2,0,3.7-1.2-.4-2.6-1.5-2.7-2.8.9-.4,1.8-.8,2.7-1.1h0Z"/>
  <path id="p73" class="cls-2" d="M95.8,76.4c1.6,1.2.5,2.2,0,3.7-1.2-.4-2.6-1.3-2.7-2.8.9-.4,1.8-.8,2.7-1.1h0Z"/>
  <path id="p74" class="cls-6" d="M32.5,79.6c1.2,1.3,3.1,2.9,3.6,4.6-.8.9-2.2,2.9-3.5,2.8-1.5-.9-2.8-2.2-4.2-3.4l1.8-.3c2,.3,3-.9,1.2-2.2.4-.5.7-1.1,1.1-1.5Z"/>
  <path id="p75" class="cls-7" d="M90.5,81.1c.9.7,3.1,2,3,3.3-1.1,1.2-2.3,2.2-3.6,3-.8-.9-3.2-2.8-2.6-4.1,1.8.3,2.4-.4,2.3-2.1l.9-.3h0Z"/>
  <path id="p76" class="cls-1" d="M31.3,81.2c1.9,1.3.8,2.6-1.2,2.2.3-.9.7-1.6,1.2-2.2Z"/>
  <path id="p77" class="cls-1" d="M89.6,81.2c.3,1.7-.5,2.4-2.3,2.1.3-1.2,1.1-1.8,2.3-2.1Z"/>
  <path id="p78" class="cls-1" d="M50.2,83.3c1.8,0,3.4,0,5.1.1-1.9,1.7-3.8,1.2-6.2.9l1.1-1.2h0Z"/>
  <g>
    <path id="p79" class="cls-4" d="M46.9,91.3"/>
    <path id="p79-2" class="cls-4" d="M66.6,99.7c.7.7-1.6,2-1.8.5"/>
    <path id="p79-3" class="cls-4" d="M69.3,101.5c-3.2.5-9.6.7-13,.3-11.7-1.2-21.2-7.5-22-8s-1.3-1.1-1.9-1.2c.5-1.6,3.6-1.8,4.3-3.6.9-1.5,1.3-3.6,3.1-4.4,1.8-.8,3.1.3,4.7.9,3.4,1.7,7,2.6,10.8,3.7-.9,0-1.8.5-2.2,1.1,2.8.3,5.7,0,8.5-.4h.8c2,.9,4.6,1.3,6.6.3-.3-.5-.8-.9-1.6-1.2,3.1-.7,6.2-1.6,9-2.9,2.2-1.1,4-2.1,6.5-1.6s1.5,0,1.6.4c.3.9.7,2.4,1.8,3.7.4.5,5,1.5,5.4,2,.8.7-4,3.4-5,3.8-7.8,4.4-10.3,5.9-17.8,7.1h.3Z"/>
  </g>
  <path id="p82" class="cls-6" d="M55.4,89.4c2.2.3,4.3.5,6.3.7-2.8.4-5.7.7-8.5.4.4-.7,1.2-1.1,2.2-1.1Z"/>
  <path id="p83" class="cls-6" d="M62.7,89.9c1.6-.4,3.4-.7,5-.8.8.3,1.3.7,1.6,1.2-2.2.9-4.6.7-6.6-.4Z"/>
  <path id="p85" class="cls-6" d="M78.5,91.1c1.8-.9,3.1,3.2,1.1,3.3-1.2-.4-1.9-2.4-1.1-3.3Z"/>
  <path id="p59" class="cls-9" d="M61.1,37.6c2.9-.3,7.1.3,8.7,2.7,4.3,6.2,2.5,9.4.9,13-1.5,3.5-.8,1.8-2,3.7,2.1,1.9,2,1.4,4.8,4.2,5.4,5.3.5,15.5-1.8,17-3.2,2.1-5.5,2.2-8,2.2s-5.7-.6-8.3-1.8-5.5-3.8-5.8-5.8,0-3.2,1.2-4.5c1.2-1.3,0,0,0,0,.9-1,2.6-.8,3.7,0,2.9,2.4,4.1,4.2,8.6,4.6s7.2-5.3,5.7-7.8c-2.8-4.3-10.7-7.2-10.7-7.2-.9-2.1,1.2-1.6,3.8-3.4,5.8-3.8,4.6-8.3,1.8-9.9-2-1.1-4.6-1.8-6.4-.5s-1.4,1.3-1.7,1.8c-.9,1.6-3.2,1.4-4-.2s-.5-.5-.6-.8,0-1.1,0-1.4c1.4-4.5,6-5.9,10.1-6.1v.2Z"/>
</svg>