<?xml version="1.0" encoding="UTF-8"?>
<svg id="_Слой_1" data-name=" Слой 1" xmlns="http://www.w3.org/2000/svg" version="1.1" viewBox="0 0 120 120">
  <defs>
    <style>
      .cls-1 {
        fill: #1c1e20;
      }

      .cls-1, .cls-2, .cls-3, .cls-4, .cls-5, .cls-6, .cls-7 {
        stroke-width: 0px;
      }

      .cls-2 {
        fill: #8ab8bb;
      }

      .cls-3 {
        fill: #ff6c00;
      }

      .cls-4 {
        fill: #cd032a;
      }

      .cls-5 {
        fill: #fffffe;
      }

      .cls-6 {
        fill: #fff;
      }

      .cls-7 {
        fill: #00c4e7;
      }
    </style>
  </defs>
  <path id="p1" class="cls-1" d="M48.3,11.9c6.7-.3,13.4,0,20.1,0,3.9-.3,5.6,3.8,6.1,7,7.2,1,15.2-.6,22.3.7,1.7,1.8,3.8,4.2,2.1,6.7-1.5,3.8-4.6,3.8-8.2,3.2v1c3.6-.6,7,.1,10.6.6,1.5,1.7,3.5,2.9,3.1,5.4,0,3.8-3.3,5.7-6.8,6,0,1.8,2.4,2.4,2.5,4.2,0,2.2-.3,4.7.1,7,3.2.4,6.4,0,9.6.4,2.4,1.5,2.1,4,1.5,6.6-.8,1.7-3.9,1.4-3.8,3.3,4.2-.4,8.2,1.1,8.5,5.9.6,3.8-1.4,5.6-4.5,7.1-3.8.1-7.4,0-11.2,0v1.3c2.6.1,5.2-.1,7.4,1.1,2.9,1,4.6,5.4,2.9,8.1-1.5,4.2-6.7,3.8-10.3,3.8v1.4c4.2.6,8.9-1.4,11.7,2.6,2,1.8-.3,3.8-.7,5.7-6.4,3.5-15.5.4-22.3,2.1-2.1,1.5-3.3,4.3-6.1,4h-42c-2.2,0-4.6.3-6.8-.4-1.8-1.5-3.3-3.3-5-5-5.3,1.5-11.4.7-17.1,1-5,.3-8.2-6.3-3.9-9.5,2.9-.8,6.4-.3,9.5-.6,0-2.6-6.1-1.3-7-4.3-2-3.1-2.1-6.7,1.1-8.9,1.1-1.8,6.6,0,6-2.5-5.3-.7-12.1,2.1-15.3-3.5-.8-2.6-1-5.9,1.4-7.8,1.7-2.1,4-1.5,6.6-2-.6-2.6-4.5-1.4-4-5.7,0-4.6,3.6-4.2,7-4.6.8-2.5-.3-5.4.4-8.1,1-1,2.2-1.7,3.6-2.2.3-1.7-2.1-2.5-2.4-4.2,0-2.8-.8-6.3,1.8-8.1,3.9-.6,8.1-1.1,11.8-.7v-1c-2.8.6-4.9.3-7.7-.7-.8-2.2-2.2-3.8-1.4-6.3,1-1.3,2.4-3.1,4-3.3,6.6-.4,13.2.3,19.7-.3,2.8-1.7.8-6.1,4.9-6.8v.4ZM49.4,14.4c-3.5,1.7-1.4,5.7-1,8.4l1.1.3h1.3c5.2,0,11.3,1.3,16-1,.8.3,1.7.6,2.6,1,2.2-2,1.8-5.3,1.3-7.9-1.5-.7-3.6-2.1-5.3-1.7-5.2,1-11.3-.8-16,1ZM87.5,26.4c3.6,1.3,6,1.3,9.3-.7.4-2.1-.4-3.1-2.2-4.2-6-1.4-13.5-.1-19.8-.6-.1,2.4,4.3,4.5,5.7,6.3,1.8.4,5.3,0,7-.8ZM38.8,27.1c1-2.4,3.6-3.1,4.6-5-6-.6-12.3-.3-18.3-.3-3.2.8-3.6,3.3-1,5.4,4.9.1,9.9.3,14.8,0h-.1ZM46.6,33.5c3.2,0,6.4.1,9.6,0,.8,1.1,1.7,1.1,2.6,0h1.8c-.6-2-.7-2.8.4-4.3h4.5c2.2.3,6.8-1,7.8,1.5,0,.8-.3,1.7-.6,2.5,5,.6,2.5-4.5,1-6.8-1.8-.4-3.6-.6-5.6-.3-7.4.6-14.6,0-21.9.3-3.8-.4-5.9,4.9-2.2,6.8l2.4.3h.1ZM87.7,51.5c2.5.3,4.9.4,7.4.3l.8-.7c2.1-1.7,2.5-3.3,0-5l-.8-.8c-2.5-.1-5.3.1-7.7-.7-.4-1.3-.6-2.5-.1-3.6,3.3-1.8,8.2-.6,12-.8l.7-.8c1.4-2.1,1.8-2.9,1.1-5.4-3.9-2.1-12.5,1.7-14.4-3.3l-.6-.8h-5.9c-.8,2.2-.7,4.5-2.6,6-1.7,1.7-5.2,2.6-2.9,5.4,5.3,2.6,10.3,4.3,12.8,10.3h.1ZM18,33.8c-.8,1.5-.8,3.3,0,5.3,3.9,1,8.4,0,12.4.7,2.4,1.4,1.8,2.6,1.5,5-3.6,1.5-8.5.4-12.4.8-2.2,0-6,3.2-2.6,5,3.5,1.8,8.4.6,12.3,1,2.8-1.5,4.3-5.2,7.1-7,2.1-2.1,5.6-2.1,7.4-4.3.8-2-1.4-2.9-2.5-4.2-1.8-1.4-2.4-3.3-3.5-5.3-3.1-1.7-5.2,0-7.4,2.1-3.9,1-8.4-.4-12.3.8h0ZM43.8,45.1c-6.6,2.9-11.6,7.1-12.5,14.6-.3,12.4,0,24.8,0,37.2-.1,2.8,1.5,6.3,4.2,7.1,4.6,1,9.1.6,13.7.7,10.9,0,21.9.4,32.9.1l1-.4c3.5-2.2,4.5-5,4.5-8.9v-34.7c-.8-7.4-7.9-16.2-15.8-15.8v1.1c2.8,2.2,6.3,3.3,9.1,5.4,3.1,3.2,4.9,7.7,4.7,12.1v33c-.3,2.5-2.1,6.3-5.3,5.7-7.2-.1-14.5.3-21.7-.6h-21.9c-3.8-2.1-2.4-5.7-2.8-9.3.3-9.6-.1-19.2.1-29,2-.3,4-.3,5.9-1.1.7-.8,1.3-2,1.4-3.2,2.1-1.1,3.3-1.7,5.7-1.5h23.1c2.8-.1,5.2.6,7.2-1.7-1.1-3.9-3.6-6.8-7.1-8.6-.6-1-1.1-1.8-1.7-2.8-1.7-5.6-6.8-4-9.5-7.9-3.9-.1-7.7,0-11.6,0,0,4,1,6.3-3.5,8.1v.3ZM27.5,55.6c-5.6.3-11-.4-16.6.3-2.5,1.1-2.2,3.5.1,4.5,4.9.1,10,.1,14.8,0,2.4-1,2-2.6,1.7-4.7ZM95.4,56.1c-1.8.3-4.6-1.1-4.9,1.7,2.1,3.1,6.1,2.1,9.3,2.5,2.4,0,5.9,1,7.9-.3,2-1.3,1.1-3.3-.7-3.9-3.9,0-7.8,0-11.6.1h-.1ZM78.8,59.6c-.4,1.1,0,2,1.3,2.6,2.6,0,.8-4.3-1.3-2.6ZM44,61.2c-.8,1.7-.4,2.4,1.1,2.2.8-1.7.4-2.5-1.1-2.2ZM38.1,66.9h-1.3v18.1c2.9.3,5.6.3,8.4.3,1.1,1.8,2.5,3.5,3.5,5.4,3.1,1,6.6.3,9.6.4,3.6-.1,7.5.6,11-.4,1.4-3.6,4.2-5.4,7.7-6.7,1.4.8,2.8,1.3,4.2,1.1.6-6,.3-12.1.1-18-2.5.3-4.9.6-7.4-.1-2.5-1.4-3.5-2.9-4.7-5.4-2.5-1.3-6.4-.6-9.3-.4-3.3,0-6.7-.3-9.9,0-1,1.4-2,2.9-3.1,4.2-2.2,1.8-6,1.1-8.8,1.4h0ZM72.8,61.2c-.6,1.3,0,2.2,1.4,2.6,2.8,0,.6-3.8-1.4-2.6ZM22.6,77.7c2.1,0,3.3.6,4.7-1.4.1-4,0-8.1,0-12.1-3.2-1-5.4-1-7.4,2-4.3,1-9.2-.4-13.4.8-2.6,1.7-2.8,5,0,6.8,3.9,1,8.2,0,12.3.6,1.4,1,2.6,2.2,3.8,3.5h0ZM91.5,63.9c-.6,4.5-1.4,9.9.3,14.2,3.3,1,4.7-1,7.2-2.6,3.8-1.7,9.3.6,12.8-1.3,2.2-1.8,2.2-5.7-.4-7.2-3.2-.7-6.7-.4-9.9,0-4.6-.7-3.8-5.3-9.9-2.9h-.1ZM27.5,88v-6.4c-3.9-1.1-8.4-.7-12.4-.6-3.8.7-3.9,4.9-1,6.8,4.3.8,9.1.6,13.5,0h-.1ZM91.5,81.2c-.7,2.1-1,5,0,7,4,1,8.6.3,13,.4,3.5.3,5.9-3.9,3.3-6.4-1.8-2-3.8-1.4-6.1-1.7-3.3,0-6.8,0-10.2.6h0ZM44,88.8c-.8,1.7-.4,2.4,1.1,2.2.7-1.7.4-2.4-1.1-2.2ZM74.4,88.4c-1.4.7-1.8,1.5-1.4,2.6,2.1,1.3,4-2.5,1.4-2.6ZM36.7,96.9c1.1,3.9,5.4,2,8.5,2.4,4.7-.3,10,.7,14.6-.6,3.2-.3,6.6-.3,9.8-.4v-1.4c-3.2-.3-6.3-.1-9.5,0,.1-.8.4-1.7.6-2.6-5.6-.4-11.3,0-16.9-.1-2.5-.4-4.2-5.6-7.1-4.2-.6,2.2-.4,4.6,0,6.8h0ZM79.5,96.6c-2.8,0-5.4.3-8.2.4v1.4c3.3.1,6.6.3,9.8,0-.1-2.2,1.8-9.5-2.4-8.4.7,2.4,1.3,4.2.7,6.7h.1ZM20.1,95.1c-3.5.7-7.4-.3-10.9.8-.4,1.1-.3,2.2.1,3.6,5.4.4,11.2.4,16.6,0l.7-1.1c1.8-1,1.4-5.4.6-7l-2.4-.3c-3.3-.3-3.3,1.5-4.9,3.8h.1ZM91.5,99.7c5.6.8,11.4.3,17,0,2-.6,2-3.2,0-3.8-2.8-1.3-6.4-.6-9.5-.6-2.1-3.9-2.8-4.6-7.4-3.8-1.1,2.1-1,6.1,0,8.2h-.1ZM77.7,93.4h0ZM62.8,94.3c0,1.5.7,2,2.4,1.1.1-1.5-.7-2-2.4-1.1ZM67.7,94.8h0ZM70,94.4c0,1.5.7,2,2.4,1.1,0-1.5-.7-2-2.4-1.1ZM74.8,95h0Z"/>
  <path id="p2" class="cls-2" d="M65.6,13.4l-.3,1.1c-5.3-.1-10.5,0-15.8-.1,4.7-1.8,10.9,0,16-1Z"/>
  <path id="p3" class="cls-4" d="M65.6,13.4c1.8-.4,3.8,1,5.3,1.7.6,2.6,1,5.9-1.3,7.9-1-.3-1.8-.7-2.6-1-4.7,2.2-11,1-16,1.1,1.1-2.1,4.7-.6,6.3-2.4,1.7-1.5,2.4-2.1,2.8.7.6.1,4.9-4.2,4.5-4.9l.8-2,.3-1.1h0ZM65.6,17.9c-.6,1.3,0,2.2,1.4,2.6,2.8,0,.6-3.8-1.4-2.6Z"/>
  <path id="p4" class="cls-5" d="M49.4,14.4c5.3,0,10.5,0,15.8.1l-.8,2c-4.7-.6-9.8-.7-14.5,0-.4,2.2-.3,4.5,0,6.7l-1.1-.3c-.4-2.8-2.5-6.7,1-8.4h-.3Z"/>
  <path id="p5" class="cls-3" d="M49.8,16.3c4.7-.6,9.8-.4,14.5,0,.6.7-3.8,5-4.5,4.9-.6-2.6-1.1-2.1-2.8-.7-1.5,1.8-5.2.4-6.3,2.4h-1.3c-.1-2.4-.3-4.6,0-6.8l.3.3Z"/>
  <path id="p6" class="cls-1" d="M65.6,17.9c1.8-1.1,4,2.5,1.4,2.6-1.4-.6-1.8-1.4-1.4-2.6Z"/>
  <path id="p7" class="cls-2" d="M74.6,21.1c6.3.4,13.8-.7,19.8.6-3.3,0-6.6,0-9.9.3.3,1.7,2,3.1,2.8,4.5-1.7,1-5.2,1.3-7,.8-1.4-1.8-6-3.9-5.7-6.3h0Z"/>
  <path id="p8" class="cls-5" d="M25.2,21.8c6.1,0,12.3-.3,18.3.3-1,2-3.6,2.8-4.6,5-4.9.3-9.9.3-14.8,0-2.6-2-2.2-4.6,1-5.4h.1Z"/>
  <path id="p9" class="cls-5" d="M84.5,21.9c3.3-.4,6.6-.3,9.9-.3,1.8,1.1,2.6,2,2.2,4.2-3.3,1.8-5.7,2-9.3.7-1-1.4-2.5-2.8-2.8-4.5h0Z"/>
  <path id="p10" class="cls-5" d="M46.5,26.5l.8.8c5.7,1.1,12.1-.6,17.7.7l.6,1.3h-4.5c-4.7,0-9.3.6-14.1.3-2.4.7-1.4,2.6-.4,4.2l-2.4-.3c-3.6-1.8-1.4-7.2,2.2-6.8h0Z"/>
  <path id="p11" class="cls-2" d="M46.5,26.5c7.2-.3,14.5.1,21.9-.3,2-.1,3.8,0,5.6.3,1.5,2.2,4,7.4-1,6.8.3-.8.4-1.7.6-2.5-1-2.5-5.6-1.3-7.8-1.5l-.6-1.3c-5.6-1.3-12,.3-17.7-.7l-.8-.8h-.1Z"/>
  <path id="p12" class="cls-7" d="M47,29.4c4.7.4,9.3,0,14.1-.3-1,1.5-.8,2.4-.4,4h-1.8c0,.1-.7-.8-.7-.8h-1.1l-.7,1c-3.2.3-6.4.1-9.6,0-1-1.4-2-3.5.4-4.2v.3Z"/>
  <path id="p13" class="cls-2" d="M80.5,29.7c2-.1,3.9,0,5.9,0l.6.8h-2.2c.8,3.2,5.2,4.6,5.9,8.4,2.9,1,6.4.3,9.5.3l-.7.8c-3.8.3-8.6-.8-12,.8-.3,1.1-.3,2.2.1,3.6,2.4.8,5.2.6,7.7.7l.8.8c-2,0-3.9.3-5.9.6v3.9c2,.1,3.9.3,5.9.4l-.8.7c-2.5,0-5,0-7.4-.3-2.5-6-7.4-7.7-12.8-10.3-2.2-2.9,1.3-3.8,2.9-5.4,2-1.5,1.8-3.8,2.6-6h0Z"/>
  <path id="p14" class="cls-5" d="M37.6,30.8c1.1,2,1.8,3.8,3.5,5.3,1.1,1.3,3.3,2.2,2.5,4.2-1.8,2.2-5.3,2.2-7.4,4.3-2.8,1.8-4.3,5.4-7.1,7-3.9-.4-8.6.8-12.3-1-3.3-1.8.4-5.2,2.6-5,3.9-.4,8.8.7,12.4-.8.1-2.4.8-3.6-1.5-5-4-.6-8.4.3-12.4-.7-.8-2-.7-3.8,0-5.3,3.9-1.3,8.4.1,12.3-.8,2.2-2.1,4.2-3.6,7.4-2.1h0Z"/>
  <path id="p15" class="cls-5" d="M84.7,30.7h2.2c1.7,4.9,10.3,1.1,14.4,3.2.7,2.5.1,3.3-1.1,5.4-3.1,0-6.7.7-9.5-.3-.7-3.8-5-5.2-5.9-8.2h-.1Z"/>
  <path id="p16" class="cls-2" d="M56.9,32.4h1.1l.7,1.1c-1,1.1-1.8,1.1-2.6,0l.7-1.1h.1Z"/>
  <path id="p17" class="cls-7" d="M47.3,37c3.9.1,7.7,0,11.6,0,2.5,3.9,7.8,2.4,9.5,7.9-1.3.8-2.2,1.8-2.8,2.9.8,1,1.1,3.6,2.5,3.6.6-1.3,1.3-2.5,2-3.8,3.5,1.8,6,4.7,7.1,8.6-2.1,2.2-4.5,1.5-7.2,1.7h-23.1c-2.4-.1-3.6.3-5.7,1.5-.6-5.2,2.9-6.8,6.4-9.5,3.6-2.8,4-6.4,3.5-10.7,0-1.8-.8-2.2-2.8-1.3-.7,2.1-.4,4.3-.6,6.6-1.3,0-2.5.3-3.9.4,4.5-1.8,3.3-4,3.5-8.1h.1ZM54.1,44.8c1.7.3,3.3.1,5-.3.3-2.1.1-6.7-2.2-7.2-4.5-.4-2.8,4.9-2.6,7.5h-.1ZM48.4,52.4c.4,1.1,1,2.2,1.5,3.5,1.3,0,3.9-2.1,3.6-3.5-2.5-2.1-2.8-2-5.2,0ZM58.5,52.4c-.8,1.5-.4,2.5,1.3,2.9,3.1-.6,1.4-4.6-1.3-2.9Z"/>
  <path id="p18" class="cls-5" d="M48.2,38.1c2-1,2.8-.6,2.8,1.3.6,4.3,0,7.9-3.5,10.7-3.6,2.6-7.1,4.3-6.4,9.5-.1,1.3-.6,2.4-1.4,3.2-4.2.8-2.8-3.5-2.9-6,.8-2,2.2-3.6,2.6-5.6-4,1-6.3,8.9-5.7,12.7-.3,9.6,0,19.2-.1,29,.4,3.6-1,7.2,2.8,9.3,6.4,1.5,14.9,0,21.7.7,1.1.7,2.2,1.3,3.2,2.1,7.1.3,14.5.3,21.6,0l-1,.4c-11,.3-22,0-32.9-.1-4.6,0-9.1.3-13.7-.7-2.6-1-4.3-4.5-4.2-7.1v-37.2c1-7.5,6-11.7,12.5-14.6,1.3-.1,2.5-.3,3.9-.4,0-2.1,0-4.5.6-6.6v-.6Z"/>
  <path id="p19" class="cls-5" d="M56.9,37.2c2.5.6,2.5,5.2,2.2,7.2-1.7.6-3.3.6-5,.3,0-2.6-1.8-7.9,2.6-7.5h.1Z"/>
  <path id="p20" class="cls-5" d="M68.2,44.9c.6,1,1.1,2,1.7,2.8-.7,1.3-1.3,2.5-2,3.8-1.4,0-1.7-2.6-2.5-3.6.6-1.1,1.5-2.1,2.8-2.9Z"/>
  <path id="p21" class="cls-2" d="M71.4,45.1c7.8-.4,14.9,8.4,15.8,15.8.3,11.6,0,23.1,0,34.7s-1,6.7-4.5,8.9c-7.1.3-14.5.3-21.6,0-1.1-.7-2.1-1.4-3.2-2.1-6.8-.6-15.3.8-21.7-.7h21.9c7.2.8,14.5.4,21.7.6,3.1.6,5-3.2,5.3-5.7.1-11,0-22,0-33,.1-4.5-1.7-8.9-4.7-12.1-2.8-2.1-6.3-3.2-9.1-5.4v-1.1.3Z"/>
  <path id="p22" class="cls-5" d="M90.2,46.7c2-.3,3.9-.4,5.9-.6,2.5,1.7,2.1,3.2,0,5-2,0-3.9-.3-5.9-.4v-3.9h0Z"/>
  <path id="p23" class="cls-7" d="M39.4,51c-.4,2-2,3.6-2.6,5.6.1,2.5-1.3,6.8,2.9,6-1.8.7-4,.8-5.9,1.1-.6-3.8,1.7-11.7,5.7-12.7h-.1Z"/>
  <path id="p24" class="cls-5" d="M53.6,52.4c.1,1.4-2.4,3.3-3.6,3.5-.6-1.1-1.1-2.4-1.5-3.5,2.5-2,2.8-2.1,5.2,0Z"/>
  <path id="p25" class="cls-2" d="M58.5,52.4c2.6-1.7,4.2,2.4,1.3,2.9-1.7-.4-2.1-1.4-1.3-2.9Z"/>
  <path id="p26" class="cls-5" d="M10.9,55.9c5.6-.7,11,0,16.6-.3.3,2.1.7,3.8-1.7,4.7-4.9.1-10,.1-14.8,0-2.4-1-2.6-3.3-.1-4.5Z"/>
  <path id="p27" class="cls-5" d="M95.4,56.1c3.9-.1,7.8-.3,11.6-.1,2,.7,2.6,2.6.7,3.9-2.1,1.3-5.6.3-7.9.3-3.2-.4-7.2.6-9.3-2.5.3-2.8,3.1-1.4,4.9-1.7h.1Z"/>
  <path id="p28" class="cls-7" d="M78.8,59.6c2.1-1.7,3.9,2.6,1.3,2.6-1.3-.7-1.7-1.5-1.3-2.6Z"/>
  <path id="p29" class="cls-3" d="M44,61.2c1.5-.1,2,.6,1.1,2.2-1.5.1-2-.6-1.1-2.2Z"/>
  <path id="p30" class="cls-5" d="M50,61.2c3.2-.4,6.7,0,9.9,0-2.6,2.8-5.3,2-8.6,1.7-2.1,3.8-4,4.5-7.7,6.3-1.3-.6-2.5-.7-3.8-.7-.8,4.5,0,9.3-.6,13.8l-2.4.4v-1.3c2.5-3.3.4-10.3,1.3-14.5,2.8-.3,6.6.4,8.8-1.4,1.1-1.3,2-2.8,3.1-4.2h0Z"/>
  <path id="p31" class="cls-3" d="M59.9,61.1c2.8,0,6.7-.8,9.3.4,1.3,2.4,2.4,4,4.7,5.4-.7,1.3-.6,2.4-.4,3.8-.8,3.8-4.6,4.9-5.4,8.6-1.1,1-2,2-2.6,3.1.6,1,1.1,2.1,1.7,3.2-1.5,1.5-2.5,4-3.5.3-.7,0-1.3.6-1.4,1.7-3.9-.1-7.8,1.7-12.1.3-1.7-1.4-2.6-2.4-4.9-2.5-2.8,0-5.4,0-8.2-.3v-2.4c-.1,0,2.2-.4,2.2-.4.6-4.6-.3-9.3.6-13.8,1.3,0,2.5.3,3.8.7,3.6-1.8,5.6-2.5,7.7-6.3,3.3.3,6,1.1,8.6-1.7h0ZM42.7,74.5c-1,1.7-2.5,3.8,0,4.9,3.5.4,3.3-5.6,0-4.9ZM48.6,80q.5.5,0,0Z"/>
  <path id="p32" class="cls-4" d="M72.8,61.2c1.8-1.1,4,2.5,1.4,2.6-1.4-.6-1.8-1.4-1.4-2.6Z"/>
  <path id="p33" class="cls-5" d="M27.5,64.2v12.1c-1.4,2.1-2.6,1.4-4.7,1.4-1.1-1.3-2.4-2.5-3.8-3.5-4-.6-8.4.4-12.3-.6-2.8-1.8-2.6-5.2,0-6.8,4.3-1.3,9.2.1,13.4-.8,2-3.1,4.2-2.9,7.4-2h0Z"/>
  <path id="p34" class="cls-2" d="M91.5,63.9c6.1-2.4,5.3,2.2,9.9,2.9.4,1.4,1,2.9,1.5,4.3-.4,1-.7,2-1,2.9,3.3.1,6.6.1,9.8,0-3.5,1.8-9.1-.4-12.8,1.3-2.5,1.8-3.8,3.6-7.2,2.6-1.5-4.2-.8-9.8-.3-14.2h.1Z"/>
  <path id="p37" class="cls-2" d="M36.9,67.1h1.3c-.8,4,1.1,11-1.3,14.4v-14.4Z"/>
  <path id="p38" class="cls-4" d="M73.9,66.9c2.5.8,4.9.6,7.4.1,0,6,.4,12.1-.1,18-1.4.1-2.6-.3-4.2-1.1-3.5,1.4-6.3,3.1-7.7,6.7-3.5,1-7.4.3-11,.4-3.1-.1-6.6.4-9.6-.4-1-2-2.2-3.6-3.5-5.4,2.2,0,3.2,1.1,4.9,2.5,4.3,1.5,8.2-.4,12.1-.3.3-1.1.7-1.7,1.4-1.7,1,3.8,2,1.3,3.5-.3,1.1-.8,2.1-2,2.8-3.1-.6-1.1-1.3-2.1-1.8-3.2.8-3.8,4.6-5,5.4-8.6,0-1.4-.3-2.5.4-3.8h0ZM77.1,70.8c-1,1.4-2.1,2.6-3.2,4-2,1.4-1.1,4.6,1.3,4.2.7-.7,1.4-1.5,2-2.4,2.4-.6,1.5-4.7,0-5.9q-.9-.5,0,0ZM77.4,78.6q.5.5,0,0ZM75.9,81.3c-.1,1.5.6,2,2.2,1.1.1-1.5-.6-2-2.2-1.1Z"/>
  <path id="p39" class="cls-5" d="M101.4,66.7c3.2-.3,6.7-.6,9.9,0,2.6,1.5,2.6,5.4.4,7.2h-9.8c.3-1,.7-2.1,1-2.9-.6-1.4-1-2.9-1.5-4.3Z"/>
  <path id="p41" class="cls-1" d="M77.1,70.8q-.9-.5,0,0Z"/>
  <path id="p42" class="cls-1" d="M77.1,70.8c1.5,1.1,2.4,5.3,0,5.9-.7-1.1-1.8-1.7-3.2-2,1.1-1.3,2.1-2.6,3.2-4h0Z"/>
  <path id="p43" class="cls-5" d="M42.7,74.5c3.3-.7,3.3,5.3,0,4.9-2.4-1.3-.8-3.3,0-4.9Z"/>
  <path id="p44" class="cls-5" d="M73.9,74.9c1.4.3,2.5.8,3.2,2-.6.8-1.3,1.5-2,2.4-2.4.3-3.2-2.9-1.3-4.2h0Z"/>
  <path id="p45" class="cls-1" d="M77.4,78.6q.5.5,0,0Z"/>
  <path id="p46" class="cls-5" d="M48.6,80q.5.5,0,0Z"/>
  <path id="p47" class="cls-5" d="M68.1,79.5c.7,1.1,1.3,2.1,1.8,3.2-.7,1.1-1.5,2.2-2.8,3.1-.6-1.1-1.1-2.1-1.7-3.2.6-1.1,1.5-2.2,2.6-3.1Z"/>
  <path id="p48" class="cls-5" d="M15,81c4-.1,8.5-.6,12.4.6v6.4c-4.3.4-9.2.7-13.5,0-2.9-2-2.6-6.1,1-6.8h.1Z"/>
  <path id="p49" class="cls-1" d="M75.9,81.3c1.7-.8,2.4-.4,2.2,1.1-1.7.8-2.4.4-2.2-1.1Z"/>
  <path id="p50" class="cls-2" d="M91.5,81.2c3.3-.6,6.7-.7,10.2-.6,2.4.1,4.5-.3,6.1,1.7,2.6,2.5.1,6.7-3.3,6.4-4.2-.1-8.8.6-13-.4-1.1-2-.8-4.9,0-7h0Z"/>
  <path id="p35" class="cls-1" d="M49.8,58h6.1v4.5c-2.5-.4-8-.5-7.9,2.3s1.2,2.4,2.5,2.5c3.2.3,6.3.5,9.5.7-2,6.5-9.2,14.4-8.7,20.8,2.4.8,4,.3,5.1-1.5,3.7-6.7,7.9-13.3,10.8-20.4.9-1.6.4-3.1-1.9-4.3.8-1.5,1.6-2.9,2.5-4.4h1.1c1.5.1,2.5,1.3,2.5,2.8,0,4.8-1.1,8.1-4.1,13.2-2.8,6.4-6.5,13-11.3,17.8-3.2-1.2-6.5-1.2-9.9,0h0c-.9-.5-1.3-1.9-1.1-2.9,2.1-6.1,6-11.6,9.6-18.2-2.1-.3-4.5,0-6.8-.1s-2.3-.9-2.5-2.1-.5-2.9-.8-4.4c-.5-3.2,1.9-6,5.1-6.1h.1Z"/>
  <path id="p36" class="cls-1" d="M56,58c4,0,8,0,12,.1-.9,1.5-1.7,2.9-2.5,4.4-3.1,0-6.3,0-9.3-.1v-4.5h-.1Z"/>
  <path id="p40" class="cls-6" d="M56.1,62.4c3.1,0,6.3.1,9.3.1,2.3,1.2,2.8,2.7,1.9,4.3-2.9,7.1-6.9,13.7-10.8,20.4-.7,1.3-2.9,2-4.9,2.1s-2.4-1.2-2.1-2.4c1.3-6,8.8-13.2,10.7-19-3.3-.1-6.5-.4-9.9-.7s-1.6-.7-2-1.5c-1.5-3.9,4.8-3.6,7.7-3.2h.1Z"/>
  <path id="p51" class="cls-1" d="M46.4,92c3.3-1.2,6.7-1.2,9.9,0-1.5,3.1-8.3,3.1-9.9,0Z"/>
  <path id="p52" class="cls-3" d="M44,88.8c1.5-.1,2,.6,1.1,2.2-1.5.1-2-.6-1.1-2.2Z"/>
  <path id="p53" class="cls-4" d="M74.4,88.4c2.6,0,.7,3.9-1.4,2.6-.4-1.1,0-2,1.4-2.6Z"/>
  <path id="p54" class="cls-7" d="M36.9,89.9c2.9-1.4,4.6,3.8,7.1,4.2,5.6.3,11.3-.1,16.9.1-.1,1-.4,1.8-.6,2.6,3.1,0,6.3-.1,9.3,0v1.4c-3.1,0-6.4,0-9.6.4-5.9.1-11.7.1-17.6,0-2,0-3.8-1.4-5.6-2-.3-2.4-.4-4.6,0-6.8ZM38.1,92.9c-.7,1.7-.4,2.5,1.1,2.2.8-1.7.4-2.5-1.1-2.2Z"/>
  <path id="p55" class="cls-7" d="M78.8,89.8c4.2-1.1,2.2,6.1,2.4,8.4-3.2.4-6.4.3-9.6,0v-1.4c2.6-.1,5.3-.3,8.1-.4.4-2.5,0-4.3-.7-6.7h-.1Z"/>
  <path id="p56" class="cls-5" d="M25,91.3c1.1,2.4,1.3,4.7,1.8,7.2l-.7,1.1c-5.4.3-11.2.3-16.6,0-.4-1.3-.6-2.5-.1-3.6,3.3-1.1,7.4,0,10.9-.8,1.5-2.2,1.7-4,4.9-3.8h-.1Z"/>
  <path id="p57" class="cls-2" d="M25,91.3l2.4.3c.8,1.5,1.3,6.1-.6,7-.6-2.5-.7-4.9-1.8-7.2Z"/>
  <path id="p58" class="cls-2" d="M91.6,91.5c4.7-.8,5.3-.1,7.4,3.8,3.1,0,6.7-.7,9.5.6,2,.6,2.1,3.3,0,3.8-5.6.4-11.4.8-17,0-1-2.1-1-6.1,0-8.2h.1Z"/>
  <path id="p59" class="cls-5" d="M38.1,92.9c1.5-.3,2,.6,1.1,2.2-1.5.3-1.8-.6-1.1-2.2Z"/>
  <path id="p60" class="cls-5" d="M77.7,93.4h0Z"/>
  <path id="p61" class="cls-7" d="M62.8,94.3c1.7-.7,2.5-.4,2.4,1.1-1.7.8-2.5.4-2.4-1.1Z"/>
  <path id="p62" class="cls-5" d="M67.7,94.8h0Z"/>
  <path id="p63" class="cls-7" d="M70,94.4c1.7-.8,2.5-.4,2.4,1.1-1.7.8-2.5.6-2.4-1.1Z"/>
  <path id="p64" class="cls-5" d="M74.8,95h0Z"/>
  <path id="p65" class="cls-5" d="M36.7,96.9c1.8.6,3.6,2,5.6,2h17.6c-4.6,1.1-9.9.1-14.6.6-2.9-.4-7.4,1.4-8.5-2.4h0Z"/>
</svg>