<?xml version="1.0" encoding="utf-8"?>
<!-- Generator: Adobe Illustrator 26.0.1, SVG Export Plug-In . SVG Version: 6.00 Build 0)  -->
<svg version="1.1" id="Слой_1" xmlns="http://www.w3.org/2000/svg" xmlns:xlink="http://www.w3.org/1999/xlink" x="0px" y="0px"
	 viewBox="0 0 566 588" style="enable-background:new 0 0 566 588;" xml:space="preserve">
<style type="text/css">
	.st0{fill:#2A3F88;}
	.st1{fill:#FCFEFD;}
	.st2{fill:#F9C96B;}
	.st3{fill:#EBAF3F;}
	.st4{fill:#B6ABB1;}
	.st5{fill:#C5B1B0;}
	.st6{fill:#C1AAB0;}
	.st7{fill:#AA9DAF;}
	.st8{fill:#3A476D;}
	.st9{fill:#F6AE4E;}
	.st10{fill:#AA9183;}
	.st11{fill:#B35E1D;}
	.st12{fill:#3C3C48;}
	.st13{fill:#A7A7AD;}
	.st14{fill:#FDFEFE;}
	.st15{fill:#FDD1E8;}
	.st16{fill:#FDC3D2;}
	.st17{fill:#F1A2D5;}
	.st18{fill:#A06CF4;}
	.st19{fill:#D2B0FE;}
	.st20{fill:#FDFFFE;}
	.st21{fill:#BB97FF;}
	.st22{fill:#8EC0FE;}
	.st23{fill:#5CD9EB;}
	.st24{fill:#6E7ACD;}
	.st25{fill:#92ADF5;}
	.st26{fill:#985FF6;}
	.st27{fill:#7C78EA;}
	.st28{fill:#91E1FE;}
	.st29{fill:#A9A8FF;}
	.st30{fill:#F8CEEB;}
	.st31{fill:#7F80E9;}
	.st32{fill:#E8C2FA;}
	.st33{fill:#DDB9FE;}
	.st34{fill:#9D65F4;}
	.st35{fill:#999CB0;}
	.st36{fill:#65504F;}
	.st37{fill:#FFFFFF;}
	.st38{fill:#F3DBAF;}
	.st39{fill:#62696A;}
	.st40{fill:#59555B;}
	.st41{fill:#474D62;}
	.st42{fill:#627366;}
	.st43{fill:#F6DEA1;}
	.st44{fill:#636256;}
	.st45{fill:#2B4E64;}
</style>
<g>
	<path id="p1_00000056406280753107379510000008971037563388163230_" class="st0" d="M288,1.6c11.4,0.1,22.9,4.7,32.3,11.1
		c12.5,9.4,23.6,23.3,26.9,38.9c1.5,7.5,3,14.7,1.6,22.4c-0.8,4.5-1.4,9.1-1.8,13.7c4.7,1.8,9.5,3.2,14.2,5.1
		c7.5,3.3,14.7,7,21.7,11.3c20.6,12,37.2,28.5,52,47c6.7,8.6,12.1,18.2,17.2,27.8c9,17.8,14.9,37,18,56.6c1,8.4,0.6,17.1,0.6,25.5
		c0.1,8-0.1,16,0.1,24c0.4,5,0.5,10,0.7,15c0.2,6.1,1.7,12,2.5,18.1c2.1,9.7,5.6,19,8.5,28.5c2.4,6,5.3,11.9,8.2,17.7
		c3.5,7.3,8.8,13.7,13.5,20.5c12.6,17,30.1,31.9,45.3,46.8c5.6,5.8,11.9,13.2,12.7,21.5c0.9,4,2,7.8,1.6,12
		c-0.6,7.3-2.1,14.4-6.2,20.5c-4.6,7.5-12.3,11.6-20.2,14.7c-5.5,2.1-10.5,1.4-16.3,1.5c-48.3,0-96.7,0-145,0c-3.4,0-6.6,0.4-10,0.7
		c-0.6,9.9-2.3,19.6-5.2,29c-2,6.7-5.6,12.2-9.2,18.2c-4.3,6.4-9.8,11.6-15.2,16.8c-2.5,2.3-5.4,3.9-8.2,5.8
		c-10.4,7.1-22.7,11.5-35.2,12.9c-7.6,0.5-15.4,0.6-23-0.1c-15.3-2.3-29.4-9.1-41.4-18.8c-13.7-12.4-24.2-29-27.2-47.5
		c-1.3-5.4-1-10.9-1.6-16.4c-2.6-0.3-5.2-0.7-7.8-0.7c-49.7,0-99.3,0-149,0c-4.8-0.1-9.6,0.5-14.1-1c-7.7-2.3-14.5-6.8-19.5-13.1
		C-0.8,474.2-1,454.4,8.7,440.6c4.3-6.5,11-11.9,16.6-17.4c12.6-12,25.2-24.4,35.9-38.1c7.6-9.7,13.3-20.3,18.7-31.3
		c7.6-17.9,12.9-36.4,14.3-55.9c0.3-14,0.1-28,0.4-42c-0.1-14.9,2.4-29.2,5.8-43.6c8.8-29.4,24-57.3,45.9-79
		c10.8-11.1,22.5-21.1,35.8-29.1c11.3-7.1,23.4-12.9,36.2-16.7c-0.3-2.2-0.6-4.3-1-6.5c-2.4-12.8-1.3-26.8,4-38.8
		c4.1-8.2,9.3-16.4,16-22.8c7.7-7.2,17.2-13.5,27.6-15.9C272.7,1.2,280.1,1.5,288,1.6z M251.8,54.3c-4,4.7-2,9.4-3.7,15
		c-1.1,3,1.1,6.6,2.6,9.1c3.5,1.5,8.5-1.4,12.2-1.4c10-0.2,20-0.7,30-0.2c4.8,0.2,9.5,0.2,14.3-0.1l1,0.2c1.8,2.5,3.8,1.8,6.5,2
		l0.2-2.2l-0.2-1.8c0.6-4.3,1.2-8.4,0.7-12.7c-0.8-4.9-2.6-9.8-5.7-13.7l-0.4-0.5l-1.3-1.5l-0.6-0.6l-1.5-1.5l-0.5-0.5l-1.3-1.2
		l-0.5-0.5c-1.3-1.2-2.6-2.2-4.2-3c-3.3-1.8-6.7-3.4-10.4-4.3c-8.1-2.4-16.9,0.1-24.1,4C258.8,42.6,255.1,48.1,251.8,54.3z
		 M130.2,238.1l-0.1,1.4c-1.5,19.7-0.5,39.7-1.4,59.4c-0.5,14-3.7,27.2-7.1,40.8c-1.5,6.1-3.8,11.9-6.2,17.8
		c-5.8,15.9-14.4,31-24.2,44.8c-12.7,17.2-28.4,32.4-44.2,46.8c-3.6,3.4-8.7,6.8-10.8,11.3c-1.2,2.6-0.8,5-0.5,7.7
		c6.4,0.6,12.7,0.1,19.2,0.2c5,0.1,9.9,0.3,14.8,0.2c15.2-0.6,30.5-0.2,45.7-0.1c18-0.1,35.9,0.3,53.9,0c33.5,0.2,67,0.2,100.4,0.1
		c24,0.4,48.1,0.2,72.1,0.1c27-0.1,54,0.2,81.1-0.2c14.3-0.7,28.6-0.3,42.9-0.4c4.9-0.1,9.8,0.5,14.8,0.5c4.9,0.2,9.9,0.4,14.8,0.4
		c7.1,0.1,14.3-0.2,21.4,0c4.8,0,9.2,0.8,13.8-1.1c0.5-5.3-1.3-8.8-5-12.4c-12.8-11.4-25.3-23.4-37.1-35.9
		c-22.8-24.5-38.7-54.9-46.8-87.2c-2.4-11.2-4.3-22.6-4.8-34.1c-0.1-8.1-0.3-16.2-0.2-24.3c-7.3-0.4-14.5-0.4-21.9-0.5
		c-3.2,0-6.5-0.2-9.5,0.9c0.1-0.3,0.2-0.6,0.3-0.9c10.5-0.5,21,0.1,31.5-0.2c-0.9-6-0.6-12-0.7-18c0-6.7-0.4-13.4-1.2-20.1
		c-0.6-5.3-2.1-10.5-3.6-15.7c-2.7-8.5-5.7-17.2-9.9-25.1c-11.3-22.1-29.2-41.2-49.2-55.8c-17.3-12-37-20.7-57.5-25.6
		c-3.6-0.7-7.2-1.5-10.9-1.9c-5.4-0.7-10.8-0.8-16.2-1.1c-11.7-0.2-23.8-0.4-35.2,2.1c-16.7,3.5-33.1,9.5-47.9,17.9
		c-9.4,5.7-18.6,11.9-26.6,19.5c-9.5,9.2-18.4,18.4-25.4,29.7C141.2,196.6,133,217.1,130.2,238.1z M236.1,502l-0.3,0.1
		c-1,0.2-1.9,0.5-2.9,0.9c0.7,0.5,1.5,0.8,2.2,1.1c0,3.2-0.1,6.4-0.1,9.5c-0.1,3.2,0,5.5,2.4,7.8c2.6,6.1,6,11.8,10.5,16.7
		c3.1,3.3,7,6.1,10.7,8.7c2.1,1.8,4,4.4,6.5,5.6c2.9,0.7,6,0.5,9,0.6c1.4,0,2.8,0,4.1,0.1c2.4,2.8,7.2,2.8,9.7,0.1
		c1.2-0.2,2.4-0.3,3.7-0.5c1.7,0.8,3.2,0.6,4.9,0.1c-0.4-0.4-0.8-0.8-1.1-1.1h0c1-0.2,1.9-0.4,2.9-0.7c3.1-0.5,4.6-1.3,7-3.2
		c1.4-0.8,2.9-1.6,4.3-2.4c5-1.9,7.6-5.7,11.3-9.4c1.4-1.3,1.8-2.8,2.3-4.6c3.4-5.8,6.7-11.2,7.7-17.9c2.9-3.4,1.8-8.3,2-12.5
		c-4,0-8,0.1-12-0.1c-21.2-1.3-42.8-0.2-64-0.7c-5.7-0.2-11.4,0.5-17.1,0.3C238.3,500.3,237.4,501.2,236.1,502z"/>
</g>
<g>
	<path id="p2_00000087389432743093247670000004451012987765105816_" class="st1" d="M289.1,35c-1,0-1.9-0.1-2.9-0.1
		c1.1,4.3,0.9,8.5,0.5,12.9c-5.2,6.2-13,7.6-18.7,13.2c-3.5,4.2-5.4,8.7-5.6,14.1c2.6,0,5.2-0.1,7.8-0.1c-6.4,0.4-12.8,1.4-19,2.9
		c-2-7.8-2-15.9,0.6-23.6c3.2-6.2,7-11.8,13.2-15.3C272.2,35,280.9,32.6,289.1,35z"/>
</g>
<g>
	<path id="p3_00000162315071521954892260000011582344940381041581_" class="st2" d="M286.2,34.9c1,0,1.9,0.1,2.9,0.1
		c3.8,0.8,7.1,2.4,10.4,4.3c-2.8-0.4-5-1.1-7.5-2.4c5.7,5.1,9.3,11.7,10.9,19.1c1.2,6.8-2.1,11.7-4.7,17.7c2.3,0.5,5,0.6,6.9,1.9
		c-3.1-0.4-6.1-0.5-9.2-0.5c-8.5-0.1-17.1-0.1-25.6,0c-2.6,0-5.2,0.1-7.8,0.1c0.2-5.5,2.2-10,5.6-14.1c5.7-5.7,13.5-7.1,18.7-13.2
		C287.1,43.4,287.2,39.2,286.2,34.9z"/>
</g>
<g>
	<path id="p4_00000147199012506945595630000007128320874549368254_" class="st3" d="M292,36.9c2.5,1.3,4.7,2,7.5,2.4
		c1.6,0.8,2.9,1.8,4.2,3l0.2,0.2l0.2,0.2l1.3,1.2l0.5,0.5l1.5,1.5l0.6,0.6l1.3,1.5l0.4,0.5c3.1,3.9,4.9,8.8,5.7,13.7
		c-3.6,3.9-2.3,9.6-2,14.4c-1.2-0.1-2.4,0.1-3.6,0.5l-1.5-0.2l-1-0.2l-0.7-0.2c-0.5-0.3-1-0.7-1.5-1c-1.9-1.4-4.6-1.4-6.9-1.9
		c2.6-5.9,5.9-10.9,4.7-17.7C301.2,48.6,297.7,41.9,292,36.9z"/>
</g>
<g>
	<path id="p5_00000024680915776533397530000013302046038807125420_" class="st4" d="M303.7,42.3l0.5,0.5l-0.2-0.2L303.7,42.3z"/>
</g>
<g>
	<path id="p6_00000000215866871112673790000007004928508861545880_" class="st5" d="M305.5,44l0.5,0.5L305.5,44z"/>
</g>
<g>
	<path id="p7_00000143584001376483596030000014780977845900260246_" class="st6" d="M307.5,45.9l0.6,0.6L307.5,45.9z"/>
</g>
<g>
	<path id="p8_00000026862406921657492170000006053782983284366520_" class="st7" d="M309.4,48.1l0.4,0.5L309.4,48.1z"/>
</g>
<g>
	<path id="p9_00000158010119755256199560000010168794558494541502_" class="st8" d="M251.8,54.3c-2.6,7.7-2.6,15.8-0.6,23.6
		c6.3-1.5,12.6-2.5,19-2.9c8.5-0.1,17.1-0.1,25.6,0c3.6,0.6,7.1,1.1,10.7,1.6l0.7,0.2c-4.8,0.2-9.5,0.3-14.3,0.1
		c-10-0.5-20,0-30,0.2c-3.7,0-8.7,2.9-12.2,1.4c-1.5-2.5-3.7-6.1-2.6-9.1C249.9,63.8,247.8,59,251.8,54.3z"/>
</g>
<g>
	<path id="p10_00000163780968959236606710000008651262952760598171_" class="st9" d="M315.5,62.3c0.5,4.3-0.1,8.5-0.7,12.7
		c-0.9,0.7-1.1,1.5-0.6,2.3l-0.7-0.6C313.2,72,311.9,66.2,315.5,62.3z"/>
</g>
<g>
	<path id="p11_00000126301947768872651340000010302367365381850770_" class="st10" d="M295.8,75.1c3.1,0,6.1,0.2,9.2,0.5
		c0.5,0.3,1,0.7,1.5,1C303,76.1,299.4,75.6,295.8,75.1z"/>
</g>
<g>
	<path id="p12_00000093894930364627453820000000390526244115876278_" class="st11" d="M314.8,75.1l0.2,1.8l-0.8,0.5
		C313.6,76.6,313.8,75.8,314.8,75.1z"/>
</g>
<g>
	<path id="p13_00000156561778720661900740000017236250768759845303_" class="st12" d="M308.3,77l1.5,0.2c1.6,0.8,2.8,1.3,4.4,0.1
		l0.8-0.5l-0.2,2.2C312.1,78.9,310.1,79.6,308.3,77z"/>
</g>
<g>
	<path id="p14_00000022537232300272991460000014762307593533287604_" class="st13" d="M309.9,77.3c1.2-0.4,2.4-0.6,3.6-0.5l0.7,0.6
		C312.7,78.6,311.4,78.1,309.9,77.3z"/>
</g>
<g>
	<path id="p15_00000163063045086833178990000010696068361505133752_" class="st14" d="M288,109.7c5.4,0.3,10.8,0.4,16.2,1.1
		c-3.5,0.2-6.9,0.3-10.4,0.1c-5.6-0.3-11.2-0.1-16.8-0.2c-2.5-0.1-5,0.3-7.4,0.8c0.2,8.7,0.4,17.4,0,26.1c-6,0.9-11.9,1.5-17.8,3.2
		c-11.6,3.4-23.6,7.7-33.9,14.2c-4.4,2.9-8.8,5.9-12.8,9.2c-8.9,7.9-17.4,16-24.2,25.8c-6,7.8-10.7,16.3-14.9,25.2
		c-3.2,6.9-4.8,14.7-7.1,22.1c-9.6,0.3-19.1-0.5-28.7,0.8c2.7-21,11-41.5,22.6-59.2c7-11.3,15.9-20.5,25.4-29.7
		c8-7.5,17.3-13.7,26.6-19.5c14.8-8.5,31.2-14.4,47.9-17.9C264.2,109.3,276.3,109.5,288,109.7z"/>
</g>
<g>
	<path id="p16_00000033348569457849088170000012591805384072888228_" class="st15" d="M277,110.6c5.6,0.1,11.2,0,16.8,0.2
		c3,8.6,7.9,16.8,12.6,24.6c7.8,13.2,16,26,24.1,39c5.2,8.4,9.4,17.3,12.5,26.6c5.1,11.9,7.6,24,11.1,36.3c-9.9,0-19.8,0.2-29.7,0.2
		c0.2,11.9,0.4,23.8,0.5,35.8c-31.6-0.2-63.3-0.1-94.9-0.1c-23.7-0.1-47.5,0-71.2,0.1c-0.3,6.6,0,13.3-0.6,19.9
		c-0.1-6.3,0.4-12.6-0.1-18.9c-9.2-0.3-18.4,0-27.6,0c-0.9-11.5,0.6-23.1-0.4-34.7l0.1-1.4c9.6-1.4,19.1-0.5,28.7-0.8
		c2.3-7.4,3.9-15.2,7.1-22.1c4.1-8.9,8.8-17.4,14.9-25.2c6.8-9.9,15.3-17.9,24.2-25.8c4.1-3.3,8.5-6.3,12.8-9.2
		c10.3-6.4,22.3-10.8,33.9-14.2c5.8-1.7,11.8-2.3,17.8-3.2c0.4-8.7,0.2-17.4,0-26.1C272,110.9,274.5,110.5,277,110.6z"/>
</g>
<g>
	<path id="p17_00000148662220984023710990000005256462814492124304_" class="st16" d="M293.8,110.9c3.5,0.2,6.9,0.1,10.4-0.1
		c3.7,0.5,7.3,1.3,10.9,1.9c-2.7-0.2-5.4,0-8.1,0.4c4.2,6.3,7.6,12.7,12.4,18.5c5.2,6.4,10.2,13.2,15.8,19.3
		c4.6,5,8.4,10.3,12.4,15.7c10.9,14.3,20.7,30.6,26,47.9c2.3,7.4,4.6,15.1,5.7,22.8c-8.4-0.1-16.8,0.2-25.2,0.1
		c-3.5-12.2-6-24.4-11.1-36.3c-3.1-9.4-7.3-18.2-12.5-26.6c-8-13-16.3-25.8-24.1-39C301.7,127.6,296.9,119.5,293.8,110.9z"/>
</g>
<g>
	<path id="p18_00000009579177655307027830000006268095663503088050_" class="st17" d="M307,113.1c2.7-0.3,5.4-0.6,8.1-0.4
		c20.5,4.9,40.2,13.6,57.5,25.6c20,14.6,37.9,33.7,49.2,55.8c4.2,7.9,7.2,16.6,9.9,25.1c1.5,5.1,3,10.4,3.6,15.7l0.1,2.2
		c-18.7,0.5-37.5,0-56.2,0.1c-1.1-7.7-3.4-15.4-5.7-22.8c-5.3-17.3-15.2-33.5-26-47.9c-4-5.4-7.8-10.7-12.4-15.7
		c-5.6-6.1-10.6-12.8-15.8-19.3C314.6,125.8,311.2,119.4,307,113.1z"/>
</g>
<g>
	<path id="p19_00000052787419884781356820000009058674924415954049_" class="st18" d="M435.3,234.9c0.8,6.7,1.2,13.4,1.2,20.1
		c0.1,6.1-0.2,12,0.7,18c-10.5,0.2-21-0.3-31.5,0.2c-0.1,0.3-0.2,0.6-0.3,0.9l-0.1,0.6c-0.2,5.6-0.1,11.2,0.9,16.7
		c0.8,4.6,0.6,9,1,13.6c0.3,3,1.2,5.9,1.5,9c0.7,8.6,3.1,17,4.6,25.5c2.4,8.5,5.6,16.9,7.8,25.6c-0.4,1.6-0.8,3.2,0.8,4.2
		c-1.7,3.6-2.5,7.5-1.1,11.4c1.4,2.8,3.6,4.9,4.6,7.9c1.3,4,2,8.1,3.9,11.9c2.7,0.4,5.2,0.6,7.4,2.5c-25.8,0.2-51.6-0.3-77.4,0.2
		c-0.3-6,1.4-11.6,1.1-17.6c-0.2-5.6,0.8-11,1-16.6c0.3-10.4-0.2-20.7,0.4-31c0.2-3.7-0.4-7.3-0.4-11c0.3-10.5-1.3-20.9-1.4-31.5
		c-0.4-0.2-0.8-0.5-1.2-0.8c1.2-5,0.5-10.7,0.2-15.8c-0.3-3.5-0.1-7.6-1.5-10.8c-0.9-2.4-1.7-4.9-2.1-7.4c0.2-8-0.3-15.6-1.5-23.5
		c8.4,0.1,16.8-0.2,25.2-0.1c18.7-0.1,37.5,0.4,56.2-0.1L435.3,234.9z"/>
</g>
<g>
	<path id="p20_00000124861167094198734620000012151735929098522289_" class="st19" d="M324.4,237.5c9.9,0,19.8-0.2,29.7-0.2
		c1.2,7.9,1.7,15.5,1.5,23.5c-0.1,4.3-0.4,8.5-0.9,12.8c-9.9,0.1-19.8-0.4-29.8-0.3C324.8,261.4,324.6,249.4,324.4,237.5z"/>
</g>
<g>
	<path id="p21_00000174579178837124632850000015306698815154881418_" class="st20" d="M130.1,239.6c1,11.6-0.5,23.1,0.4,34.7
		c9.2,0,18.4-0.3,27.6,0c0.4,6.3-0.1,12.6,0.1,18.9c-1,13.8-2.2,27.4-5.4,40.8c-4.1,17.6-9,34.6-17.1,50.7
		c-7.1,13.9-14.7,27.3-24.5,39.6c-3.3,4-6.2,8.4-9.8,12.2c-4.9,4.8-9.3,10.1-14.1,14.9c-5.8,5.8-12,11.1-17.5,17.1
		c-4.9,0.1-9.9-0.1-14.8-0.2c-6.5-0.1-12.8,0.4-19.2-0.2c-0.3-2.7-0.7-5.1,0.5-7.7c2.2-4.5,7.2-7.9,10.8-11.3
		c15.8-14.4,31.4-29.6,44.2-46.8c9.8-13.8,18.4-28.9,24.2-44.8c2.3-5.8,4.7-11.6,6.2-17.8c3.4-13.6,6.5-26.7,7.1-40.8
		C129.6,279.2,128.6,259.3,130.1,239.6z"/>
</g>
<g>
	<path id="p22_00000141449810451530323130000008560850707921901738_" class="st21" d="M355.6,260.8c0.5,2.5,1.2,5,2.1,7.4
		c1.4,3.2,1.1,7.3,1.5,10.8c0.3,5.1,1,10.8-0.2,15.8c0.4,0.2,0.8,0.5,1.2,0.8c0.1,10.5,1.7,21,1.4,31.5c0,3.7,0.6,7.3,0.4,11
		c-0.6,10.3-0.1,20.7-0.4,31c-0.2,5.6-1.2,11-1,16.6c0.3,5.9-1.4,11.6-1.1,17.6v1c5.6,0.3,11.1-0.2,16.6-0.2c21.5,0.5,43,0,64.6,0.4
		c-0.3-0.8-0.5-1.6-0.8-2.4l-0.5-1.3c0.8,1.3,1.5,2.6,2.1,4c-4.5,0.3-8.9,0.1-13.4,0c-16.4,0.1-32.9,0.1-49.3,0
		c-17.9,0.3-35.9-0.4-53.8,0.2c0,10.5-0.4,21.1,0.4,31.5l0,0.4c10.3-0.3,20.5-0.2,30.8-0.1c-0.7,5.1-0.3,10.2-1.2,15.2
		c-0.8,5-1.8,10-2.7,15c3.6,0.5,7.1,0.7,10.7,0.7c18.3,0,36.7,0.1,55-0.1c22-0.8,43.9-0.2,65.8,0c-1,0.3-2,0.5-3.1,0.8
		c-4.9,0-9.8-0.6-14.8-0.5c-14.3,0.1-28.6-0.3-42.9,0.4c-27,0.4-54.1,0.1-81.1,0.2c-24,0.1-48.1,0.3-72.1-0.1
		c-0.3-10.5,0.4-20.9,0.2-31.3c-6.2-0.2-12.5-0.5-18.6,0.1c-26.1-1-52.3-0.6-78.4-0.7c-13.8,0.2-27.7-0.2-41.5,0.2
		c-10-0.2-20,0-30-0.2c3.6-3.8,6.5-8.2,9.8-12.2c9.8-12.3,17.4-25.6,24.5-39.6c8.1-16.2,13.1-33.2,17.1-50.7
		c3.2-13.5,4.4-27.1,5.4-40.8c0.5-6.6,0.3-13.2,0.6-19.9c23.7-0.1,47.5-0.2,71.2-0.1c31.6,0,63.3-0.1,94.9,0.1
		c9.9-0.1,19.8,0.4,29.8,0.3C355.2,269.3,355.5,265.1,355.6,260.8z"/>
</g>
<g>
	<path id="p23_00000005247414878586803040000010332340037429398451_" class="st22" d="M405.5,274.1c3-1.1,6.3-0.9,9.5-0.9
		c7.3,0.1,14.6,0.1,21.9,0.5l-0.7,2.5c-2-0.6-4-1.2-6.2-1.3c-8.1-0.1-16.3,0.2-24.4-0.2l-0.2,0L405.5,274.1z"/>
</g>
<g>
	<path id="p24_00000008861644403248478040000009206950011351612823_" class="st23" d="M405.4,274.7l0.2,0c8.1,0.4,16.3,0.2,24.4,0.2
		c2.1,0,4.1,0.6,6.2,1.3l0.7-2.5c-0.1,8.1,0.1,16.2,0.2,24.3c0.5,11.4,2.5,22.9,4.8,34.1c8.1,32.4,24.1,62.8,46.8,87.2
		c11.7,12.6,24.2,24.5,37.1,35.9c3.7,3.6,5.5,7.1,5,12.4c-4.6,1.9-9,1.1-13.8,1.1c-7.1-0.2-14.3,0.1-21.4,0
		c-6.5-7-13.7-13.3-19.7-20.6c-3.3-3.8-6.4-7.7-9.8-11.4l-1-0.7c-1.3-0.8-2.6-1-4.1-1c-23.3,0.2-46.6,0-69.9,0
		c-2-5.7-5.6-10.7-7.7-16.3c-1.8-4.6-3.7-9.1-4.8-13.9c16.4,0.1,32.9,0.2,49.3,0c4.5,0.1,8.9,0.3,13.4,0c-0.6-1.4-1.3-2.7-2.1-4
		c-2.5-3.7-4.5-7.6-6.8-11.5c-3.7-6.3-6.1-13.2-9.8-19.5c0.8,0.7,1.7,1.4,2.5,2c-0.8-1-1.6-1.9-2.5-2.9l0.3-0.8
		c0.7-1.6,0.2-2.6-1.3-3l-0.5-0.1c-2.2-8.6-5.4-17-7.8-25.6c-1.6-8.5-4-16.9-4.6-25.5c-0.3-3-1.3-5.9-1.5-9c-0.4-4.6-0.2-9-1-13.6
		C405.2,286,405.1,280.3,405.4,274.7z"/>
</g>
<g>
	<path id="p25_00000128470798446852335440000011505882138421414331_" class="st24" d="M421.3,365.1l0.5,0.1c0,1.1,0.4,2.1,1.3,3
		l-0.3,0.8l-0.7,0.4C420.4,368.3,420.9,366.6,421.3,365.1z"/>
</g>
<g>
	<path id="p26_00000097457896041434273080000011569454754132781705_" class="st25" d="M421.7,365.2c1.6,0.4,2,1.4,1.3,3
		C422.2,367.3,421.7,366.3,421.7,365.2z"/>
</g>
<g>
	<path id="p27_00000175310782423295685270000016057599619733064116_" class="st26" d="M422.1,369.3l0.7-0.4c0.8,1,1.7,1.9,2.5,2.9
		c-0.8-0.7-1.7-1.3-2.5-2c3.6,6.3,6,13.2,9.8,19.5c2.3,3.8,4.3,7.8,6.8,11.5l0.5,1.3c-1,0.3-2,0.6-3,0.9c-2.2-1.9-4.7-2-7.4-2.5
		c-1.9-3.8-2.6-7.9-3.9-11.9c-1-3-3.1-5.2-4.6-7.9C419.6,376.8,420.4,373,422.1,369.3z"/>
</g>
<g>
	<path id="p28_00000174598395473100138180000002365316024043470778_" class="st27" d="M439.8,402.1c0.3,0.8,0.5,1.6,0.8,2.4
		c-21.5-0.5-43.1,0.1-64.6-0.4c-5.5,0-11,0.5-16.6,0.2v-1c25.8-0.6,51.6,0,77.4-0.2C437.8,402.7,438.8,402.4,439.8,402.1z"/>
</g>
<g>
	<path id="p29_00000038390346153640691880000018031445701220108715_" class="st28" d="M324.9,405c17.9-0.6,35.9,0.1,53.8-0.2
		c1.1,4.8,3,9.3,4.8,13.9c2.1,5.7,5.7,10.6,7.7,16.3c-15.4,0-30.8-0.1-46.1,0.1c-5.1,0.1-9.8-0.6-14.8,1c-1.6,0.1-3.3,0.2-4.9,0.4
		C324.5,426.1,324.9,415.5,324.9,405z"/>
</g>
<g>
	<path id="p30_00000140715480778172373250000002393943444565782948_" class="st29" d="M345,435.1c15.4-0.2,30.8-0.1,46.1-0.1
		c23.3,0,46.6,0.2,69.9,0c1.5,0,2.8,0.2,4.1,1c-34-0.5-68.1-0.1-102.1,0c-10.9,0.4-21.9,0.8-32.8,0.1
		C335.2,434.5,339.9,435.3,345,435.1z"/>
</g>
<g>
	<path id="p31_00000165916397299262083790000000122491169030987401_" class="st30" d="M101.5,436.5c10,0.2,20,0,30,0.2
		c-2.7,1-5.4,2-8.1,2.9c-0.7,6.5,1,13-1.7,18.6c0.8,1,1.7,2,2.5,3.1c-0.5,1.8-1,3.5-1.6,5.3c-2.4,0.6-4.7,1.2-7.1,1.8
		c-15.2-0.1-30.4-0.4-45.7,0.1c5.6-6,11.7-11.3,17.5-17.1C92.2,446.5,96.6,441.3,101.5,436.5z"/>
</g>
<g>
	<path id="p32_00000145041561481781365280000010868888155178820749_" class="st31" d="M325.3,436.5c1.6-0.2,3.3-0.3,4.9-0.4
		c10.9,0.6,21.9,0.3,32.8-0.1c34-0.1,68.1-0.5,102.1,0l1,0.7c-3.4,0.3-6.7,0.4-10.1,0.4c-24-0.2-48,0.3-72-0.4
		c-9.3,0.1-18.6,0.1-27.8,0.1c-10.3-0.1-20.6-0.1-30.8,0.1L325.3,436.5z"/>
</g>
<g>
	<path id="p33_00000116237638745060901060000012059630157754196908_" class="st32" d="M131.5,436.7c13.8-0.4,27.7-0.1,41.5-0.2
		c26.1,0.1,52.3-0.3,78.4,0.7c-2.5,0.5-4.9,1-7.4,1c-5.7,0-11.3,0.6-17,0.9c-4.8,0.1-9.1,2.1-14,2c-3.4-0.1-6.8-0.2-10.2,0.5
		c2.6,0.4,5.3,0.6,8,0.8l0,0.5c-6.7-0.2-13.1,1.8-19.8,1.3c-3.2-0.3-5,1.9-7.6,3.3c-3.1,2.3-8.1,1-11.2,2.5c-1.1,1.9-2,4-3.3,5.7
		c2.6,3,2.4,4.9,2,8.7c-1.3,0.5-2.6,0.9-3.9,1.4c7.7,0.6,15.5-0.2,23.2,0.6c-7.5,1.7-14-1-20.8,1.9c-18,0.3-35.9-0.1-53.9,0
		c2.4-0.6,4.7-1.2,7.1-1.8c0.5-1.8,1-3.5,1.6-5.3c-0.8-1-1.7-2-2.5-3.1c2.6-5.7,0.9-12.2,1.7-18.6
		C126.1,438.7,128.8,437.7,131.5,436.7z"/>
</g>
<g>
	<path id="p34_00000097468469280365420000000015772039077960457122_" class="st33" d="M251.4,437.2c6.2-0.6,12.4-0.4,18.6-0.1
		c0.2,10.4-0.4,20.9-0.2,31.3c-33.5,0.1-67,0.1-100.4-0.1c6.8-3,13.3-0.2,20.8-1.9c-7.7-0.8-15.5,0-23.2-0.6
		c1.3-0.5,2.6-0.9,3.9-1.4c0.4-3.8,0.5-5.7-2-8.7c1.3-1.8,2.2-3.8,3.3-5.7c3.1-1.6,8.1-0.3,11.2-2.5c2.6-1.5,4.4-3.6,7.6-3.3
		c6.7,0.4,13.1-1.6,19.8-1.3l0-0.5c-2.7-0.2-5.3-0.4-8-0.8c3.4-0.7,6.8-0.5,10.2-0.5c4.9,0.1,9.1-1.9,14-2c5.7-0.2,11.3-0.9,17-0.9
		C246.5,438.1,249,437.7,251.4,437.2z"/>
</g>
<g>
	<path id="p35_00000147935590250247533770000014456320052673204879_" class="st34" d="M356.2,436.8c9.3,0,18.6,0.1,27.8-0.1
		c24,0.7,48,0.2,72,0.4c3.4,0,6.7-0.1,10.1-0.4c3.3,3.7,6.5,7.7,9.8,11.4c6,7.3,13.3,13.6,19.7,20.6c-4.9,0-9.9-0.1-14.8-0.4
		c1-0.2,2.1-0.5,3.1-0.8c-21.9-0.2-43.9-0.8-65.8,0c-18.3,0.1-36.7,0-55,0.1c-3.6,0.1-7.1-0.2-10.7-0.7c0.9-5,1.9-10,2.7-15
		C355.9,447,355.4,441.9,356.2,436.8z"/>
</g>
<g>
	<path id="p36_00000002361051147347374370000005493759643727215027_" class="st35" d="M239.9,500.5c5.7,0.2,11.4-0.4,17.1-0.3
		c21.2,0.4,42.8-0.6,64,0.7c3.6,0.9,6.7,1.3,10.4,1c0.5,2.9,0.5,5.5,0,8.4c0-2.2,0.9-5.5-0.6-7.2c-1.6-1.5-4.5-0.5-6.6-0.6
		c-4.1-0.6-8.2-0.6-12.3-0.6c-12.7-0.5-25.3-0.1-38-0.3c-9,0.5-18-0.5-27,0.2c-3.7,0.3-7.3,0-10.9,0
		C237.4,501.2,238.3,500.3,239.9,500.5z"/>
</g>
<g>
	<path id="p37_00000003106422872099800920000002322428692129504185_" class="st36" d="M321,500.9c4,0.2,8,0.1,12,0.1
		c-0.2,4.2,0.9,9.1-2,12.5c0.2-1,0.3-2.1,0.4-3.1c0.5-2.9,0.5-5.5,0-8.4C327.8,502.2,324.6,501.8,321,500.9z"/>
</g>
<g>
	<path id="p38_00000018232521232663962190000014577557876795824000_" class="st37" d="M232.9,502.9c0.9-0.4,1.9-0.6,2.9-0.9l0.3-0.1
		c3.7,0,7.3,0.2,10.9,0c9-0.7,18,0.2,27-0.2c12.7,0.1,25.4-0.2,38,0.3c4.1,0,8.2,0,12.3,0.6c1.9,0.7,3.9,1.3,5.9,1.9
		c0.1,5.5-0.8,11.1-2.5,16.4c-4.1,8.2-9.9,15.1-16.6,21.4c-4.5,3.6-10.2,6-15.6,7.7l0,1.8h0c-1.3-0.1-2.6,0-4,0.4
		c-5.4-0.9-11.3-0.6-16.8-0.2c-5.8,0.4-11-2.6-16.1-5c-3.7-2.6-7.6-5.4-10.7-8.7c-4.4-5-7.9-10.6-10.5-16.7
		c-0.8-2.6-1.7-5.2-2.4-7.8c0-3.2,0.1-6.4,0.1-9.5C234.3,503.7,233.6,503.4,232.9,502.9z"/>
</g>
<g>
	<path id="p39_00000005266027026549383310000013810423489162061992_" class="st38" d="M324.3,502.6c2,0.1,4.9-0.9,6.6,0.6
		c1.4,1.8,0.6,5.1,0.6,7.2c-0.1,1-0.3,2.1-0.4,3.1c-1,6.8-4.3,12.2-7.7,17.9c-4.1,5.1-8.5,9.8-13.6,14c-1.4,0.8-2.9,1.6-4.3,2.4
		c-2.4,1-4.7,2.1-7,3.2c-1,0.2-1.9,0.5-2.9,0.7l0-1.8c5.5-1.7,11.1-4.1,15.6-7.7c6.7-6.3,12.5-13.1,16.6-21.4
		c1.7-5.2,2.6-10.8,2.5-16.4C328.2,503.9,326.3,503.3,324.3,502.6z"/>
</g>
<g>
	<path id="p40_00000152979283695552277380000007384911394456381835_" class="st39" d="M235,513.6c0.8,2.6,1.6,5.2,2.4,7.8
		C235,519,234.9,516.8,235,513.6z"/>
</g>
<g>
	<path id="p41_00000114762812825210461520000002206038274018096553_" class="st40" d="M323.3,531.4c-0.6,1.8-0.9,3.3-2.3,4.6
		c-3.7,3.6-6.3,7.5-11.3,9.4C314.8,541.2,319.2,536.5,323.3,531.4z"/>
</g>
<g>
	<path id="p42_00000073712761425707554650000002391804396196174988_" class="st41" d="M258.6,546.8c5.1,2.4,10.2,5.4,16.1,5
		l-0.6,1.2c-2.9,0-6.1,0.1-9-0.6C262.7,551.2,260.7,548.6,258.6,546.8z"/>
</g>
<g>
	<path id="p43_00000036212488944375675610000002120840551524692652_" class="st42" d="M305.4,547.8c-2.4,1.9-3.9,2.7-7,3.2
		C300.6,549.8,303,548.8,305.4,547.8z"/>
</g>
<g>
	<path id="p44_00000042724301453558018190000012424259930597486209_" class="st43" d="M274.7,551.8c5.5-0.4,11.3-0.7,16.8,0.2
		l0.1,0.7c-1.2,0.2-2.5,0.3-3.7,0.5c-3.2,0-6.5-0.1-9.7-0.1c-1.4,0-2.8,0-4.1-0.1L274.7,551.8z"/>
</g>
<g>
	<path id="p45_00000125566496209725627210000009369944333508396461_" class="st44" d="M291.5,552c1.3-0.3,2.6-0.4,4-0.4
		c0.4,0.4,0.8,0.8,1.1,1.1c-1.8,0.5-3.2,0.6-4.9-0.1L291.5,552z"/>
</g>
<g>
	<path id="p46_00000168812722996400565860000000408708326065392014_" class="st45" d="M278.3,553c3.2,0,6.4,0.1,9.7,0.1
		C285.5,555.8,280.7,555.8,278.3,553z"/>
</g>
</svg>
