<?xml version="1.0" encoding="UTF-8"?>
<svg id="_Слой_2" data-name="Слой 2" xmlns="http://www.w3.org/2000/svg" xmlns:xlink="http://www.w3.org/1999/xlink" viewBox="0 0 878.37 883.5">
  <defs>
    <style>
      .cls-1 {
        fill: #eafafa;
      }

      .cls-1, .cls-2, .cls-3, .cls-4, .cls-5, .cls-6, .cls-7, .cls-8, .cls-9, .cls-10, .cls-11, .cls-12, .cls-13, .cls-14, .cls-15, .cls-16, .cls-17, .cls-18, .cls-19, .cls-20, .cls-21, .cls-22, .cls-23, .cls-24, .cls-25, .cls-26, .cls-27, .cls-28 {
        stroke-width: 0px;
      }

      .cls-2 {
        fill: url(#_Безымянный_градиент_122-2);
      }

      .cls-3 {
        fill: #e298b6;
      }

      .cls-4 {
        fill: #e7fbfb;
      }

      .cls-5 {
        fill: #e3f7f9;
      }

      .cls-6 {
        fill: #97ebfe;
      }

      .cls-7 {
        fill: #e9f9fa;
      }

      .cls-8 {
        fill: #f9fdfb;
      }

      .cls-9 {
        fill: #eefbfa;
      }

      .cls-10 {
        fill: #f8fcfb;
      }

      .cls-11 {
        fill: #f8fcfa;
      }

      .cls-12 {
        fill: #90a5a2;
      }

      .cls-13 {
        fill: #f0fcfb;
      }

      .cls-14 {
        fill: #e9f9f9;
      }

      .cls-15 {
        fill: url(#_Безымянный_градиент_91);
      }

      .cls-16 {
        fill: #e8f9fa;
      }

      .cls-17 {
        fill: #e0f6f8;
      }

      .cls-18 {
        fill: #493f71;
      }

      .cls-19 {
        fill: #effcfb;
      }

      .cls-20 {
        fill: #effafa;
      }

      .cls-21 {
        fill: #01000f;
      }

      .cls-22 {
        fill: #db5084;
      }

      .cls-23 {
        fill: url(#_Безымянный_градиент_122);
      }

      .cls-24 {
        fill: #fafdfc;
      }

      .cls-25 {
        fill: #fcdeec;
      }

      .cls-26 {
        fill: #f1fcfb;
      }

      .cls-27 {
        fill: #50a8d6;
      }

      .cls-28 {
        fill: #0e304e;
      }
    </style>
    <linearGradient id="_Безымянный_градиент_91" data-name="Безымянный градиент 91" x1="167.86" y1="463.87" x2="710.88" y2="463.87" gradientUnits="userSpaceOnUse">
      <stop offset="0" stop-color="#351e55"/>
      <stop offset="1" stop-color="#271e4f"/>
    </linearGradient>
    <radialGradient id="_Безымянный_градиент_122" data-name="Безымянный градиент 122" cx="446.41" cy="433.05" fx="446.41" fy="433.05" r="339.91" gradientUnits="userSpaceOnUse">
      <stop offset=".3" stop-color="#db5084"/>
      <stop offset=".9" stop-color="#493f71"/>
    </radialGradient>
    <radialGradient id="_Безымянный_градиент_122-2" data-name="Безымянный градиент 122" cx="432.96" cy="436.42" fx="432.96" fy="436.42" r="346.65" xlink:href="#_Безымянный_градиент_122"/>
  </defs>
  <g id="_Слой_1-2" data-name=" Слой 1">
    <path class="cls-6" d="M444.77,2.31c-22.83-.49-45.17,1.91-67.83,3.42,2.43-.62,4.84-1.26,7.29-1.76,10.05-.71,20.13-2.49,30.2-2.71,9.29,1.76,22.68-4.42,30.35,1.05h0Z"/>
    <path class="cls-13" d="M444.77,2.31c9.59,5.13,6.87,19.55-3.63,21-39.33-.63-79.14,6.6-116.66,18.21-69.96,21.35-134.44,59.5-184.66,112.9-51.04,54.51-90.01,118.47-105.25,192.29-18.13,72.26-13.84,148.8,7.51,219.9,1.88,9.41-10.97,16.45-17.95,9.76-6.72-8.23-7.8-22.01-10.94-32.08C-11.77,450.04-.25,350.34,38.8,261.5c14.74-32.29,33.83-61.66,56-89.32C162.67,83.44,266.91,23.37,376.93,5.73c22.66-1.51,45-3.91,67.83-3.42h0Z"/>
    <path class="cls-15" d="M482.45,877.64c8.74-3.58,48.77-20.76,68.99-65.05,8.22-17.99,10.81-37.84,10.95-38.97,1.66-13.61,1.1-27.46-1.57-42.5-3.71-14.55-8.25-25.97-15.46-39.11-7.36-12.79-17.32-23.08-27.34-33.69,6.6-1.92,12.8-1.96,18.85-5.71,8.72-5.1,12.62-14.83,15.38-24.07,2.01-20.17-1.91-41.53,2.53-61.4,5.47-19.12,18.33-31.35,32.9-43.86,25.58-23.28,51.77-44.71,72.95-72.33,24.62-30.06,39.56-68.68,47.06-106.52,4.6-19.49,2.72-38.55,3.15-58.34-.15-22.03-6.32-41.78-11.72-62.81-10.12-25.7-21.25-49.92-38.74-71.57-20.78-29.01-48.6-50.55-78.73-68.99-83.85-49.39-189.34-51.07-275.25-5.81-41.54,23.23-77.18,55.65-103.28,95.53-20.75,34.72-36.9,74.92-35.11,115.98.65,21.56-1.44,43.63,1.3,65.02,3.68,14.9,9.89,28.73,19.74,40.61,9.53,10.81,19.38,20.7,31.92,28.1-2.43,3.6-.7,1.77,2.12,1.62,10.24,1.37,19.98,7.97,31.01,8.64,20.14,2.25,41.96,3.1,62-.57,36.31-8.48,61.85-36.89,68.35-73.41,3.61-17.56,1.52-34.78,2.1-52.59,2.16-31.64,33.52-52.71,63.91-47.69,30.23,4.07,48.01,35.5,40.05,64.16-.35,1.94-.71,3.92-1.22,5.82-2.56,7.16-6.18,14.7-11.24,20.44-21.98,24.65-53.42,40.88-77.88,63.39-18.95,14.75-36.95,32.43-49.4,53.08-14.04,18.88-22.93,40.7-27.38,63.74-2.84,22.5-1.78,45-1.95,67.65.34,15.12-1.88,35.89,9.02,47.93,7.94,10.07,18.31,12.24,30.35,13.99-6.16,7.57-14.85,13.89-20.47,22.06-11.05,15.35-17.95,32.37-22.55,50.63-4.86,26.16-3.68,51.73,6.17,76.68,1.12,2.81,4.28,10.69,9.01,18.61,23.04,38.53,64.58,52.18,83.5,55.17,26.37,4.17,52.72,1.39,65.98-3.84h0Z"/>
    <path class="cls-10" d="M616.76,151.12c5.35,11.98,6.8,24.44,9.66,37.05-.93,3.03.7,6.83-3.24,3.08-22.73-25.18-48.36-46-77.91-62.69-35.15-17.1-75.28-28-114.58-26.14-38.34.87-77.98,14.95-110.84,34.42-45.19,29.08-80.37,76.08-90.47,129.4-4.14,26.3-1.14,53.55-2.17,80.12l-.41,2.27c-3.11,9.45-8.54,18.46-10.33,28.2-15.69-16.66-16.75-37.67-15.91-59.36.64-21.99-2.02-45.42,3.23-66.47,4.88-20.41,12.44-39.9,23.71-57.67,38.51-63.07,107.4-108.16,181.1-116.26,75.26-9.33,156.77,17.67,208.17,74.07Z"/>
    <path class="cls-21" d="M306.41,76.88c-41.54,23.23-77.18,55.65-103.28,95.53-20.75,34.72-36.9,74.92-35.11,115.98.65,21.56-1.44,43.63,1.3,65.02-5.37-15.05-1.09-34.92-2.46-51.07.28-18.77-.8-37.14,1.12-55.69-3.85,1.74-3.75,3.08-4.67,6.85-32.67,52.45-51.84,112.58-56.57,173.96,5,4.7-1.41-10.38,6.76-7.96-6.71,11.32,1.26,12.68,10.5,14.63-4.85,2.68-11.32-.08-16.2-1.45-1.63,66.65,16.2,134.43,54.16,189.56,4.88,6.09,9.15,12.56,13.34,19.13,4.92-1.26,9.84-2.27,14.9-2.79-2.03,2.13-4.57,1.94-7.28,2.86-13.48,4.82-8.37,21.37,4.84,20.06,7.47-1.05,10.03-9.14,6.67-15.44,9.61-.06-2.37,16.4,5.65,20.58,7.22,12.8,24.8,21.58,35.97,33.75,7.92,6.65,15.18,8.82,23.58,13.44-.7-4.49-3.98-6.21-6.24-9.69.93-6.06.79-10.47-1.8-16.09-7.4-3.07-21.04.73-19.85-11.61-.33-10.69,9.03-8.48,16.61-8.95-5.42,2.95-14.64.34-14.11,9.05.87,11.56,16.71,2.84,20.2,12.41,4.29,6.58-2.21,16.74,8.65,17.26,11.2-.86,4.13-13.32,9.44-19.24,3.92-6.13,11.67-1.14,16.68-5.44,4.75-3.61.92-12.18-4.99-11.75-6.69-.14-12.11-2.57-13.98-9.44-2.19-5.83,1.29-13.55-6.93-15.2-12.98-.99-1.94,19.15-14.96,22.34,7.07-6.72,4.32-13.83,7.3-21.86,2.8-4.94,9.77-1.81,13.88-.8,3.02,6.74.23,18.1,8.45,21.77,6.15,1.76,11.54,1.48,16.1,6.74-1.36,4.32.17,12.46-6.5,12.25-6.73-.2-14.19,1.87-14.52,9.72.02,7.9-3.06,14.39-9.46,19.05,5.13,2.06,2.14,1.38-1.34,2.1,14.46,12.4,33.59,19.41,50.01,28.63,4.15-2.31,2.64-10.14,5.52-14.08-4.86,26.16-3.68,51.73,6.17,76.68-59.6-19.49-116.73-52.2-160.42-97.59-52.12-51.32-89.83-116.51-104.25-188.55-17.09-79.28-7.19-162.36,25.21-236.5,43.18-93.96,124.31-172.81,221.9-208.18h0Z"/>
    <path class="cls-21" d="M581.66,82.7c79.43,29.66,147.04,91.73,190.84,163.67,39.09,66.91,59.36,147.04,53.36,224.43-6.73,53.62-19.64,105.35-45.68,153.13-34.37,64.44-87.99,115.14-151.23,150.95-14.32,6.44-28.34,17.09-43.64,20.41-.64-20.77,3.86-37.68-11.72-54.44,9.25,1.36,18.81-11.11,27.31-11.16,5.44,4.21-.93-3.77,4.52-3.81,7.76,1.66,1.13-5.17,3.28-9.6,2.67-8.19,6.79-12.51,15.59-12.38,4.13,2.03,7.72,5.13,11.91,7.12-1.84-9.58,13.44-13.77,18.99-20.32,5.97-5.02,13.16-9.51,17.95-15.69.3-6.42,3.06-16.12-2.94-20.58-3.95-4.25-12.55-1.03-17.69-2.65-5.31-6.73-3.16-13.24,2.27-18.89,3.23,1.06,6.35,2.24,9.75,2.7-5.72-.57-14.31,2.05-12.66,9.24,2.8,8.83,14.17,2.13,20.33,7.64,8.21,5.54-1.33,21.68,9.71,24.04,10.01,1.12,7.9-7.04,9.02-13.83-.52-9.17,6.85-13.58,15.25-12.82,5.5.6,10.46-3.05,8.93-8.88-2.43-9.64-16.03-1.35-21.32-8.93-5.18-7.06-.49-14.85-6.36-21.77-2.98-5.08,5.11.31,4.95,2.28.83,7.19-.49,14.96,6.13,20.34,8.31,1.5,6.39-2.01,13.67.16,15.85-27.07,27.55-44.79,38.4-76.09,11.91-36.4,20.83-75.46,19.5-113.97,1.5-40.3-8.61-81.89-22.29-119.56-5.42-14.66-13.47-28.17-18.83-42.92-.81,1.13-1.55,2.3-2.28,3.48-7.67-20.68-16.27-41.74-27.55-60.71-10.12-25.7-21.25-49.92-38.74-71.57-20.78-29.01-48.6-50.55-78.73-68.99h0Z"/>
    <path class="cls-25" d="M430.69,102.42c39.3-1.86,79.43,9.04,114.58,26.14,29.55,16.69,55.17,37.52,77.91,62.69,3.94,3.75,2.31-.05,3.24-3.08.71,4.16,2.34,7.69-2.79,9.39-9.55,4-2.02,14.46.29,20.75,15.74,39.12,15.9,86.59-.78,125.42-14.88,32.17-40.48,54.5-66.54,77.58-24.69,23.57-53.71,45.95-75.7,71.89-12.98,16.19-22.97,34.47-27.62,54.81-2.93,14.96-5.35,36.03,15.6,36.96,3.67,5.24,6.8,10.52,7.35,17.05-31.81.43-63.66.07-95.47.19.53-24.33-2.38-45.71,4.46-68.64,7.97-35.38,38.01-63.02,65.55-84.44,25.93-20.94,52.9-42.66,78.4-64.59,14.3-13.95,27.98-26.59,33.56-46.61,1.76-8.88,5.65-17.05-2-24.38,2.7-4.66-6.94.99-4.89-4.37-.83-1.94-6.61,7.08-7.07.74-6.01.63-4.38,6.73-6.35,11.17-6.03,26.52-26.83,45.48-48.99,59.2,1.94-3.11,4.04-5.96,6.69-8.51,26.36-28.6,33.5-74.12,12.68-107.84,6-.79,17.38-1.62,14.61-10.58-15.74-30.6-54.43-47.25-87.45-49.12,24.47-8.12,53.2-.16,75.54,11.06,14.83,9.72,25.4,21.34,33.95,36.83,3.54,6.37,9.89,10.51,17.12,7.09,8.65-4.08,8.54-15.7,4.77-23.15-17.43-34.45-47.97-59.52-83.82-73.12-38.53-12.68-82-9.1-118.05,9.55-30,16.67-56.41,43.75-69.59,75.66-4.06,10.51-9.05,22.9-8.45,34.23,2.7,10.39,6.65,15.27,18.14,14.34,1.82,8.15,7.49,14.33,8.23,23.07.4,8.53.09,17.16.06,25.71-29.74.23-61.24-1.39-90.65.81,1.03-26.57-1.96-53.81,2.17-80.12,10.1-53.31,45.28-100.32,90.47-129.4,32.86-19.47,72.49-33.54,110.84-34.42h0Z"/>
    <path class="cls-24" d="M347.09,155.9c.91,8.8-9.19,14.26-15.35,18.49-8.1,7.29-15.52,15.48-23.39,23.06-10.16,9-14.16,19.07-25.43,24.56-10.01,1.29-13.73-7.89-10.55-16.33,14.69-21.86,35.02-43.53,57.17-57.96,6.1-3.09,18.09-.37,17.55,8.18Z"/>
    <path class="cls-3" d="M616.76,151.12c16.5,15.01,29.46,35.14,39.95,54.69-5.51,8.52-6.16-12.2-8.35-1.37.06,9.24-6.26,6.58-12.26,6.01-3.98-4.04-5.71-14.12-12.47-12.88,5.13-1.7,3.5-5.23,2.79-9.39-2.86-12.61-4.31-25.07-9.66-37.05h0Z"/>
    <path class="cls-18" d="M487.51,162.96c35.86,13.6,66.39,38.67,83.82,73.12,3.78,7.45,3.88,19.07-4.77,23.15-7.23,3.42-13.58-.72-17.12-7.09-8.55-15.49-19.12-27.12-33.95-36.83-26.54-22.25-62.69-32.25-96.89-23.91-38.23,7.58-67.44,32.35-87.07,65.24-8.75,11.33-8.32,34.74-21.98,40.11-11.5.93-15.45-3.95-18.14-14.34-.6-11.33,4.39-23.72,8.45-34.23,13.18-31.92,39.59-59,69.59-75.66,36.05-18.65,79.52-22.23,118.05-9.55h0Z"/>
    <path class="cls-17" d="M19.97,177.21c4.16,1.49,7.54,8.54,1.59,10.05-4.61.53-1.77,9.97-6.88,9.32-4.36-1.56-3.1-5.2-4.02-8.82-3.34-.93-5.65.08-6.46-4.14-1.06-6.78,7.36-2.8,7.25-10.09,1.88-8.4,8.37-1.79,8.52,3.67Z"/>
    <path class="cls-4" d="M857.25,180.3c1.13,5.13,11.48,7.37,7.22,13.03-5.82,3.14-6.73,8.25-11.12,12.17-5.66,2.41-6.87-5.16-9.45-8.37-2.93-2.2-7.11-1.48-6.47-6.33.28-5.23,7.07-3.7,8.08-9.47,2.09-6.47,9.3-8.67,11.75-1.02h0Z"/>
    <path class="cls-3" d="M331.64,345.02c-4.51.44-9.26,1.16-13.78.51.03-8.55.34-17.18-.06-25.71-.74-8.74-6.4-14.92-8.23-23.07,13.66-5.37,13.23-28.78,21.98-40.11,19.63-32.89,48.84-57.66,87.07-65.24,34.19-8.35,70.35,1.66,96.89,23.91h0c-22.34-11.23-51.07-19.19-75.54-11.06,33.02,1.87,71.71,18.52,87.45,49.12,2.77,8.96-8.61,9.79-14.61,10.58-20.82-33.06-64.41-47.99-100.85-33.79-34.26,11.75-58.56,44.98-58.02,81.49-.8,20.6,3.44,39.79-6.86,58.15-7.72,15.64-23.77,26.94-40.81,30.01-13.59,1.86-27.89-.85-41.78.22-18.33-.76-34.79-11.19-48.01-23.21,1.79-9.74,7.22-18.75,10.33-28.2,3.08,14.38,17.55,23.25,30.77,26.81,14.03,2.28,30.36,1.48,44.57.71,13.23-1.96,27.72-12.83,30.65-26.31"/>
    <path class="cls-18" d="M623.63,197.56c6.76-1.24,8.5,8.83,12.47,12.88,24.18,49.92,30.32,106.4,6.09,157.61-23.04,45.2-71.02,80.58-106.69,116.81-13.39,11.86-27.17,25.09-36.36,40.59-9.22,14.35-13.61,30.22-17.12,46.71-1.36,7.54-6.69,10.15-13.15,12.82-20.94-.93-18.53-22-15.6-36.96,4.65-20.34,14.63-38.62,27.62-54.81,21.99-25.94,51.01-48.32,75.7-71.89,26.06-23.08,51.66-45.41,66.54-77.58,16.68-38.83,16.52-86.3.78-125.42-2.31-6.29-9.84-16.75-.29-20.75h0Z"/>
    <path class="cls-22" d="M656.71,205.8c30.56,60.92,29.34,137.65-2.96,197.6-17.67,33.72-44.61,56-72.26,81.12-27.76,24.41-53.55,45.11-60.02,83.96-2.24,18.53-.72,37-1.52,55.57-6.36.52-12.85.35-19.24-.06-6.5-1.79-12.91-.34-19.94-.99-4.93-2.78,5.85-22.97-4.53-20.98-.55-6.53-3.67-11.81-7.35-17.05,6.45-2.67,11.79-5.28,13.15-12.82,3.51-16.49,7.9-32.36,17.12-46.71,9.18-15.49,22.97-28.73,36.36-40.59.64,5-3.35,6.54,1.43,10.91,21.62-16.8,41.05-37.52,61.42-56,18.64-17.99,38.74-40.96,44.84-66.74.21-2.16,2.03-4.24-1-4.99,24.23-51.21,18.09-107.69-6.09-157.61,6,.57,12.32,3.23,12.26-6.01,2.19-10.83,2.84,9.89,8.35,1.37h0Z"/>
    <path class="cls-23" d="M490.52,322.28c-.35,1.94-.71,3.91-1.22,5.82-2.56,7.16-6.19,14.7-11.24,20.45-21.98,24.65-53.42,40.87-77.89,63.39-18.94,14.75-36.95,32.42-49.39,53.08-14.04,18.87-22.94,40.7-27.39,63.74-2.83,22.5-1.78,45-1.95,67.64.34,15.12-1.88,35.89,9.02,47.94,7.94,10.06,18.3,12.23,30.35,13.99-6.16,7.57-14.86,13.89-20.47,22.06-11.06,15.35-17.95,32.37-22.55,50.63-2.88,3.94-1.37,11.76-5.52,14.07-16.42-9.21-35.56-16.22-50.01-28.62,3.47-.72,6.46-.05,1.33-2.11,6.41-4.66,9.49-11.14,9.46-19.05.33-7.84,7.79-9.91,14.52-9.71,6.67.21,5.14-7.93,6.5-12.25-4.56-5.27-9.95-4.99-16.1-6.74-8.22-3.68-5.43-15.03-8.45-21.77-4.1-1.02-11.08-4.14-13.88.8-2.97,8.03-.23,15.14-7.3,21.86-7.58.47-16.93-1.74-16.61,8.95-1.18,12.34,12.45,8.54,19.86,11.61,2.59,5.61,2.73,10.03,1.8,16.09,2.26,3.48,5.54,5.2,6.24,9.69-8.4-4.61-15.67-6.79-23.58-13.44-11.17-12.16-28.76-20.95-35.98-33.75-8.02-4.18,3.97-20.64-5.65-20.58-3.98-3.59-5.81-4.9-11.5-4.63,2.71-.92,5.24-.73,7.27-2.86-5.05.53-9.98,1.54-14.9,2.79-4.19-6.56-8.46-13.04-13.34-19.13-37.96-55.13-55.79-122.91-54.16-189.56,4.88,1.37,11.35,4.14,16.2,1.46,7.98,2.93,1.38,13.41,7.64,18.5,3.39,4.59,11.49.24,10.85-5,1.36-6.55-.9-14.12,8.15-14.97,7.18-1.39,12.53-.75,10.06-10.25-3.71-5.88-13.77-2.65-16.57-8.95-3.02-5.57,1.12-15.1-7.62-15.63-8.02-.03-7.01,10.27-8.52,15.67-2.21,4.63-9.96,5.5-14.49,5.99-8.17-2.41-1.76,12.66-6.76,7.96,4.73-61.38,23.9-121.5,56.57-173.96.92-3.76.82-5.1,4.67-6.84-1.92,18.55-.84,36.91-1.11,55.68,1.37,16.16-2.91,36.02,2.46,51.08,3.68,14.9,9.89,28.73,19.73,40.61,9.54,10.8,19.38,20.7,31.92,28.1-2.43,3.6-.7,1.77,2.12,1.62,10.24,1.37,19.98,7.97,31.01,8.63,20.14,2.26,41.95,3.1,61.99-.57,36.31-8.48,61.85-36.89,68.36-73.41,3.61-17.56,1.52-34.77,2.1-52.59,2.16-31.64,33.52-52.71,63.91-47.69,30.24,4.07,48.02,35.5,40.06,64.16Z"/>
    <path class="cls-2" d="M770.08,442.98c1.33,38.52-7.59,77.57-19.5,113.97-10.86,31.3-22.55,49.03-38.4,76.1-7.28-2.17-5.36,1.34-13.67-.16-6.61-5.38-5.3-13.15-6.13-20.34.16-1.96-7.93-7.36-4.95-2.28-7.62-2.22-11.04,2.13-11.29,9.43.64,8.01-2.93,15.31-11.61,15.89-3.41-.45-6.52-1.64-9.75-2.7-5.43,5.65-7.58,12.16-2.27,18.89,5.14,1.62,13.74-1.6,17.69,2.65,6,4.46,3.24,14.17,2.94,20.58-4.79,6.18-11.97,10.67-17.95,15.69-5.56,6.54-20.83,10.74-18.99,20.32-4.2-2-7.79-5.09-11.91-7.12-8.8-.13-12.91,4.18-15.59,12.38-2.15,4.43,4.49,11.26-3.28,9.6-5.45.05.92,8.02-4.52,3.81-8.51.05-18.06,12.52-27.31,11.16-3.96-3.45-7.68-8.28-12.77-9.73-3.71-14.55-8.25-25.97-15.46-39.11-7.36-12.79-17.32-23.08-27.34-33.69,6.6-1.92,12.8-1.96,18.85-5.71,8.72-5.1,12.62-14.83,15.38-24.07,2.01-20.17-1.91-41.53,2.53-61.4,5.47-19.12,18.33-31.35,32.9-43.86,25.58-23.28,51.77-44.71,72.95-72.33,24.62-30.06,39.56-68.68,47.06-106.52,4.6-19.49,2.72-38.55,3.15-58.34-.15-22.03-6.32-41.78-11.72-62.81,11.27,18.97,19.88,40.03,27.55,60.71.73-1.17,1.46-2.35,2.28-3.48,5.36,14.75,13.41,28.27,18.83,42.92,13.68,37.67,23.79,79.27,22.29,119.56h0Z"/>
    <path class="cls-18" d="M331.67,344.47c-.01.19-.02.37-.03.56-4.51.44-9.26,1.16-13.78.51-29.74.23-61.24-1.39-90.65.81l-.41,2.27c3.08,14.38,17.55,23.25,30.77,26.81,14.03,2.28,30.36,1.48,44.57.71,13.23-1.96,27.72-12.83,30.65-26.31.11-1.83.18-3.66.22-5.48-.44.09-.89.13-1.34.13Z"/>
    <path class="cls-8" d="M555.83,309.18c-2.05,5.36,7.59-.29,4.89,4.37,7.65,7.33,3.75,15.5,2,24.38-5.58,20.01-19.26,32.66-33.56,46.61-25.5,21.93-52.47,43.64-78.4,64.59-27.55,21.42-57.58,49.06-65.55,84.44-6.85,22.93-3.93,44.32-4.46,68.64-.09,7.35-.03,14.69-.05,22.04-8.75-.13-17.64.49-26.35-.27-.31-.93-.58-1.89-.79-2.87.72-24.06.58-48.57.07-72.64,2.35-41.32,26.22-79.26,57.68-105.06,26.83-21.68,55.19-41.35,82.1-63.12,22.16-13.71,42.96-32.67,48.99-59.2,1.96-4.44.34-10.54,6.35-11.17.45,6.33,6.24-2.68,7.07-.74h0Z"/>
    <path class="cls-3" d="M642.19,368.05c3.03.74,1.21,2.82,1,4.99-6.1,25.78-26.2,48.75-44.84,66.74-20.36,18.48-39.8,39.2-61.42,56-4.78-4.37-.79-5.92-1.43-10.91,35.67-36.23,83.65-71.61,106.69-116.81h0Z"/>
    <path class="cls-9" d="M136.49,397.84c8.74.53,4.6,10.07,7.62,15.63,2.8,6.3,12.85,3.07,16.57,8.95,2.46,9.5-2.88,8.86-10.07,10.25-9.05.85-6.79,8.41-8.15,14.97.64,5.24-7.46,9.59-10.86,5-6.25-5.09.35-15.57-7.64-18.5-9.24-1.95-17.2-3.31-10.5-14.63,4.52-.49,12.27-1.36,14.48-6,1.51-5.39.5-15.69,8.52-15.67Z"/>
    <path class="cls-27" d="M870.03,434.86c12.11,4.14,7.12,14.58,8.18,24.4-2.85,42.11-10.27,83.66-23.99,123.64-5.4,13.12-9.32,30.36-18.04,41.35,23.69-54.06,38.16-111.5,40.05-170.59,2.27-10.66-1.95-19.9-14.3-17.7,2.08-1.67,5.58-1.24,8.09-1.1h0Z"/>
    <path class="cls-26" d="M861.95,435.96c12.34-2.2,16.56,7.04,14.3,17.7-1.89,59.09-16.37,116.53-40.05,170.59-5.87,10.59-11.53,21.35-17.42,31.95-22.44,37.15-49.54,70.54-81.23,100.15-39.77,37.72-88.22,67.68-139.11,87.94-10.37,3.17-20.78,9.48-31.52,10.63-10.03-1.26-13.62-11.55-6.99-18.89,7.43-6.15,18.72-7.85,27.5-11.77,108.08-43.03,197.48-128.12,239.44-237.32,13.71-38.2,23.14-78.33,26.41-118.84,2.14-11.38-3.5-25.09,8.68-32.15h0Z"/>
    <path class="cls-1" d="M199.72,539.76c-10.27,4.23-7.81,13.71-18.49,9.74-4.06-7.12,1.43-15.53,6.63-20.53-5.73-8.59-11.62,8.19-19.06.38-8.97-7.3,3.09-16.67,10.38-18.29,16.12-5.68,34.52,15.52,20.55,28.7h0Z"/>
    <path class="cls-14" d="M714.64,518.81c9.72-2.64,5.9,7.49,10.32,11.05,6.65.01,12.02,7.51,4.87,11.1-10.73.94-5.11,5.71-8.78,12.22-10.6,5.64-7.98-4.03-9.77-10.65-7.29-.44-15.07-5-6.31-11.17,9.97-1.63,4.61-7.1,9.67-12.55h0Z"/>
    <path class="cls-12" d="M353.64,548.47c.51,24.07.65,48.58-.07,72.64-1.21-23.85-1.35-48.82.07-72.64Z"/>
    <path class="cls-5" d="M181.16,553.76c9.69-4.37,13.13,8.8,4.3,9.04-6.63,1.52-7.52-5.81-4.3-9.04Z"/>
    <path class="cls-18" d="M380.76,602.21c31.81-.12,63.66.24,95.47-.19,10.38-1.99-.4,18.2,4.53,20.98,7.03.65,13.45-.8,19.94.99-39.95.66-80.02.17-119.99.26.01-7.35-.05-14.69.05-22.04h0Z"/>
    <path class="cls-20" d="M687.43,610.27c5.87,6.92,1.17,14.71,6.36,21.77,5.29,7.58,18.89-.71,21.32,8.93,1.53,5.83-3.43,9.48-8.93,8.88-8.4-.76-15.77,3.65-15.25,12.82-1.12,6.79.99,14.95-9.02,13.83-11.03-2.36-1.5-18.49-9.71-24.04-6.16-5.51-17.53,1.2-20.33-7.64-1.65-7.19,6.94-9.81,12.66-9.24,8.68-.58,12.25-7.88,11.61-15.89.24-7.3,3.66-11.65,11.29-9.43h0Z"/>
    <path class="cls-16" d="M182.91,641.44c5.7-.27,7.52,1.03,11.51,4.63,3.36,6.3.8,14.39-6.67,15.44-13.2,1.31-18.32-15.24-4.84-20.06h0Z"/>
    <path class="cls-9" d="M263.3,645.16c8.22,1.65,4.74,9.37,6.93,15.2,1.87,6.87,7.29,9.3,13.98,9.44,5.9-.43,9.74,8.14,4.99,11.75-5.01,4.3-12.76-.69-16.68,5.44-5.31,5.92,1.77,18.38-9.44,19.24-10.86-.52-4.36-10.68-8.65-17.26-3.49-9.58-19.33-.85-20.2-12.41-.53-8.72,8.69-6.1,14.11-9.05,13.02-3.18,1.98-23.33,14.96-22.34h0Z"/>
    <path class="cls-11" d="M495.58,682.47c7.59,7.97,5.29,23.57,3.48,33.52-22.2-24.13-56.8-33.23-87-18.54-15.46,7.75-27.2,21.41-33.39,37.46-5.14,14.03-4.27,28.19-2.77,42.74-2.92,13.41-4.8,28.09-8.88,41.01-31.79-40.94-24.49-111.07,20.41-139.99,31.93-21.99,78.25-21.71,108.15,3.8h0Z"/>
    <path class="cls-25" d="M495.58,682.47c2.36,1.65,4.36,3.42,6.29,5.54-1.2,7.3,2.08,27.06-2.49,30.43-11.37-.48-12.13,6.8-9.3,16.2,7.68,36.55-17.05,75.5-55.89,76.79-15.96,1.07-31.5-2.71-43.98-12.97-1.74-1.09-4.74-3.78-5.29-.09-2.21,8.55-.76,28.41-5.18,34.22-5.2-3.98-8.46-8.9-12.72-13.94,4.08-12.91,5.96-27.59,8.88-41.01-1.5-14.55-2.37-28.71,2.77-42.74,6.19-16.05,17.93-29.71,33.39-37.46,30.2-14.69,64.8-5.59,87,18.54,1.81-9.95,4.11-25.55-3.48-33.52h0Z"/>
    <path class="cls-3" d="M501.87,688.01c11.32,11.48,20.57,26.44,24.77,42.05-4.04,3.06-4.88-3.68-6.95.87-1.63,5.03-9.94-1.8-12.45,2.68-1.93-5.63-4.42-10.33-7.86-15.18,4.57-3.37,1.29-23.13,2.49-30.43Z"/>
    <path class="cls-7" d="M619.39,707.25c13.55-3.45,19.71,18.1,5.02,21.28-14.66,3.18-19.65-17.26-5.02-21.28Z"/>
    <path class="cls-22" d="M499.38,718.44c3.44,4.85,5.93,9.55,7.86,15.18,8.61,33.58-2.52,69.41-32.73,87.94-25.83,16.32-68.78,12.97-87.14-13.33-2.14-3.05-2.13-6.29-2.45-9.86.55-3.68,3.54-1,5.29.09,12.48,10.26,28.02,14.04,43.98,12.97,38.84-1.29,63.58-40.24,55.89-76.79-2.84-9.4-2.07-16.68,9.3-16.2Z"/>
    <path class="cls-3" d="M526.64,730.07c12.29,41.53-3.06,89.35-41.34,111.52-32.3,19.83-76.93,15.66-105.56-9,4.43-5.81,2.98-25.66,5.18-34.22.33,3.57.31,6.81,2.45,9.86,18.35,26.3,61.31,29.65,87.14,13.33,30.21-18.53,41.34-54.36,32.73-87.94,2.51-4.49,10.82,2.35,12.45-2.68,2.07-4.56,2.91,2.19,6.95-.87h0Z"/>
    <path class="cls-28" d="M560.82,731.11c5.09,1.45,8.81,6.28,12.77,9.73,15.57,16.76,11.08,33.67,11.72,54.44l-.06,1.01c-9.15,2.85-17.34,7.36-26.69,9.39-3.78.34-4.95,4.31-7.12,6.9,11.79-27.24,14.59-52.13,9.38-81.48h0Z"/>
    <path class="cls-19" d="M146.35,735.11c7.61-.74,14.45,10.58,20.78,14.44,42.34,35.61,89.67,63.97,142.32,81.43,8.14,2.89,13.46,6.45,11.62,16.1-2.41,8.32-11.05,10.09-18.25,6.2-61.42-20.94-117.3-54.37-164.5-98.9-1.03-2.28-2.22-4.43-3.15-6.74.03-6.96,4.73-11.09,11.17-12.52h0Z"/>
  </g>
</svg>