<?xml version="1.0" encoding="UTF-8"?>
<svg id="_Слой_1" data-name=" Слой 1" xmlns="http://www.w3.org/2000/svg" version="1.1" viewBox="0 0 120 120">
  <defs>
    <style>
      .cls-1 {
        fill: #ff7a62;
      }

      .cls-1, .cls-2, .cls-3, .cls-4 {
        stroke-width: 0px;
      }

      .cls-5 {
        stroke: #010101;
        stroke-miterlimit: 10;
        stroke-width: 2px;
      }

      .cls-5, .cls-4 {
        fill: #fff;
      }

      .cls-2 {
        fill: #77de30;
      }

      .cls-3 {
        fill: #001424;
      }
    </style>
  </defs>
  <path class="cls-3" d="M62.7,5.9c1.1,1.1,3.4,2.4,3.6,4-1.1,1.5-2.3,2.9-3.6,4.1-1.5-1.2-2.8-2.5-4.1-4,1.2-1.6,2.5-2.9,4.1-4.1Z"/>
  <path class="cls-3" d="M49,9.6c1.3.8,2.3,1.8,2.9,3.1-.5.8-1.1,1.7-1.6,2.5-1.7-.5-3-1.1-4.2-2.5.7-1.2,1.8-2.3,3-3.1h-.1Z"/>
  <path class="cls-3" d="M75.1,9.8c1.3.6,2.3,1.6,2.9,2.9-.5.8-1.1,1.7-1.7,2.5-1.8-.5-3-.8-4.1-2.5.7-1.3,1.7-2.4,2.9-2.9Z"/>
  <path class="cls-3" d="M38.2,14.4c1.7.2,3.4.7,5,1.5,1.2,2.1.4,5.1,0,7.3-1.7.7-3.4,1.3-5.2,1.7-1.8-1.2-3-3.4-4-5.3,1.2-1.8,2.5-3.6,4.1-5.1h.1Z"/>
  <path class="cls-3" d="M87.4,14.4c2.8,3.7,4.5,7,0,10.3-2.8-.7-7.4-1.2-6.8-5.2-.4-4.6,3.6-4.1,6.8-5.1Z"/>
  <path class="cls-1" d="M38.5,18.7c1.1-.8,2.1-1,3-.2,1,1.5-1.9,4.2-3.3,3.3-.7-1-.6-1.9.2-3Z"/>
  <path class="cls-3" d="M60.7,18.6c5.1.4,9.3-1.7,13.9,1.5,3.4,2.2,3.6,5.3,5.2,8.7,4.5.7,8.3,0,12.2,2.8,4.1,2.1,5.3,6,6.2,10.2,0,6.5-3.4,10.6-8,14.9,4.5,3.3,7.3,6.8,8,12.5-.7,3.6-1.9,7.5-5.3,9.6-4.1,2.4-4.1,7.4-7.9,9.9-2.1,1.3-4.7,2.2-7.1,2.4-2.8-.6-5.3-1.8-8.1-2.4v4.4c2.8.4,9.4,0,12.2-.4,1.1,2.2-1.1,2.2,0,0,3.4.4,7.1.8,10.5.1.8-1.8,1.6-3.7,2.4-5.6,5.9-1.5,11.2.7,16.3,3.5,3.4,3.6-.5,8.2-2.2,11.7,0,2.5,2.2,5.2,2.8,7.7-1.2,3.7-5.3,5.6-9,5.2-4.2-.6-8.3.6-12.6.5-16.9-.1-33.9,0-50.8,0-5.7-.1-10.6,1-15.8-1.9-.7.6-1.5,1.2-2.2,1.8-2.5-.2-6-1.1-7.9-3-1-3.3,1.5-6.2,2.3-9.3-.5-3.3-3.7-6-3.9-9.3.6-2.3,2.9-3.7,5.1-4.7,4-1.8,8-2.9,12.3-2.1,1.3,1.6,1.9,3.7,3,5.4,1.2.6,2.8.5,4,.5,5.6-.2,15-.4,20.6-.8,1.2,1.7,0,2.7,0,0,.1-1.7.2-3.4.2-5.1-2.9,1.2-5.6,2.7-8.6,3.7-2.8.5-5.9-.8-8.3-2.3-4.1-2.5-4.7-7.6-8.8-10.4-3.9-3.1-5.2-6.8-4.5-11.7.6-4.5,5.2-6.9,8.2-9.8-4.7-3.5-8.3-7.5-8.3-13.8-.6-5.9,3.5-11.1,8.8-13.3,2.9-.5,5.8-.4,8.7-.7,2.7-2.9,1.9-7.1,5.9-9.2,3.3-2.4,6.5-1.2,10.3-1.2h0Z"/>
  <path class="cls-1" d="M83.7,18.6c1.6-1.6,4.8-.2,3.5,2.1-1.6,1.6-4.8.2-3.5-2.1Z"/>
  <path class="cls-3" d="M28.6,22.3c1.5.7,2.7,1.8,3.7,3-.6,3.9-2.2,5.6-6.2,4.6-1-1.5-2.3-4-1.3-5.7,1.2-.7,2.4-1.5,3.7-1.8h0Z"/>
  <path class="cls-2" d="M62.4,24.2c1-.2,2.8-1.5,3.7-1.8,1.9-.7,4.2-.6,6,.6s1.9,3.1,2.2,5c0,2.4-.1,4.4-1,6.5s-1.5,2.9-2.4,4.1c-1.6,1.9-2.3,2.9-4.5,4.5-2.4.4-5,.5-7.5.6-1-.8-4.4-3.6-5-4.7-2.1-3.3-7.7-10.8-1.6-15.6,3.3-3.4,6.4.2,10,.8h-.1Z"/>
  <path class="cls-3" d="M100.9,25.3c-.7,2.1-1.6,5-4.1,4.8-3.1.8-5.3-5.2-2.8-6.9,2.5-2.5,5.2,0,7,1.9h-.1Z"/>
  <path class="cls-4" d="M58.4,24c.8.7,1.2,1.5,1.1,2.2-1.2,1.7-4.5,1.2-6.3,1.2,1.3-1.9,3-2.8,5.2-3.5h0Z"/>
  <path class="cls-4" d="M71.1,27.3c-2.2,0-4.5,0-6.5-1v-1c2.9-1.6,5.2-1.5,6.5,1.9Z"/>
  <path class="cls-1" d="M27.4,25.3c2.4-1.6,4,2.2,1.1,2.8-1.6-.5-1.9-1.3-1.1-2.8Z"/>
  <path class="cls-1" d="M95.9,25.3c2.3-1.6,3.3,1.7.8,2.3-1.3-.2-1.6-1.1-.8-2.3Z"/>
  <path class="cls-3" d="M61.5,29.4h1.2c.2,3.9.2,7.9,0,11.9h-1.2c-.2-3.9-.2-7.9,0-11.9Z"/>
  <path class="cls-2" d="M44.9,34.2c-2.8.4-5.4.5-7.7,2.3-.2,1.1-.5,2.2-.6,3.3,1.5-1.1,2.9-2.4,4.5-3.1,3.1-.2,5.7,3.3,8.7,2.2,1.5,1.3,6.9,6.9,3.6,8.3-2.9-1.3-5.6-2.9-8.6-4,.6,3.3,6.2,3.5,6.7,6.3-1.5.7-3,.6-3.9,2.2.8.2,1.8.4,2.7.6,0,.7.1,1.5.2,2.2-3.5-.4-7-.6-10.5-1.1-2.5-1-5-2.9-6.7-5,.4-1.2,1-2.4,1.2-3.6-.5-1.7-2.3-3.6-1.5-5.3,1.3-4.8,7.5-7.4,11.9-5.1h0Z"/>
  <path class="cls-2" d="M92.3,41.2c-2.9,4.8-6.3,6.7-11.4,8.7-1.9,1.3-5.7-1.3-5.9,1.8,3.5.5,10.9-.7,18.4-6.5l-1.7,3.6c-1,2.1-2.8,3.6-5.1,4.2s-3.4.6-4.5.7c-2.8,0-5.6,0-8.2-.2-.7-3.3.6-5.3,2.1-8-1.8.5-4.8,3.7-6,1.3,1.2-3.4,3.4-6.7,6-9.1,2.4,0,4.7-.7,7-1.1,1.9.5,3.7,1.5,5.7,2.1-1.5-4-4.6-4.1-8.2-4.5,4.6-2.5,12.3,1.5,11.9,7h0Z"/>
  <path class="cls-4" d="M44.9,34.2c1.7,1.5,3.3,3,4.8,4.6-3,1-5.4-2.5-8.7-2.2-1.7.7-3,2.2-4.5,3.1.1-1.1.4-2.2.6-3.3,2.4-1.8,5-1.9,7.7-2.3Z"/>
  <path class="cls-4" d="M80.5,34.2c3.6.5,6.9.5,8.2,4.5-1.9-.6-3.7-1.6-5.7-2.1-2.4.2-4.6,1.1-7,1.1,1.3-1.3,2.8-2.5,4.5-3.5Z"/>
  <path class="cls-3" d="M20.1,40c2.1,1.9,4.2,4.2,5.4,6.9-1,2.2-2.1,5.4-4,6.9-2.5-.2-5.1-.8-7.4-1.8-1.1-2.3-3.5-6-3-8.6,2.8-1.6,5.9-2.8,9.1-3.4h-.1Z"/>
  <path class="cls-3" d="M40.9,40.6h1.1l.6,1-.6,1h-1.1l-.6-1,.6-1Z"/>
  <path class="cls-3" d="M105.4,39.8c2.8.7,5.4,1.9,7.7,3.5.4,2.8-.7,6-1.6,8.7-2.9.8-5.8,1.3-8.8,1.5-1.8-1.9-2.5-5.1-2.9-7.6,1.5-2.3,3.4-4.4,5.4-5.9h.1Z"/>
  <path class="cls-3" d="M81.1,41.5c4.4-.2.4,3.5-1.8,2.9-2.3-.8.6-2.7,1.8-2.9Z"/>
  <path class="cls-1" d="M18.9,42.9c3.1,2.1,2.8,5,1.2,7.9-3.1-.6-4.2-2.4-5.3-5.2.7-1.5,2.8-2.2,4.2-2.8h-.1Z"/>
  <path class="cls-1" d="M110.3,44.3c-.4,1.7-.7,3.3-1.5,4.8-1.6.7-3.1,1.1-4.8,1.5-.4-1.6-.7-3-.7-4.7,2.2-3.3,3.7-2.4,7-1.6Z"/>
  <path class="cls-4" d="M67.5,49.8c-3.6.2-7.1-.1-10.8.7,2.8-3.9,7.6-4.7,10.8-.7Z"/>
  <path class="cls-3" d="M40.2,48.5c1.9-1.3,4.6,1.3,3.3,3.3-1.2.7-3.9-2.1-3.3-3.3Z"/>
  <path class="cls-4" d="M45.1,49c2.3-.6,2.3,3.4,0,2.8-1-1-1-1.9,0-2.8Z"/>
  <path class="cls-2" d="M67.5,49.8c1.6,1.5,2.5,2.7,1.7,5-.7,3.9-5.9,3.1-7.7,5.9,2.3-.2,4.5-.7,6.7-1.1-1.5,3.5-7.3,2.2-10.3,2.3.1-1.6.5-3.1.7-4.7-1,.6-1.9,1.2-2.8,1.8,0-2.8-.1-5.8,1-8.3,3.6-.8,7.1-.4,10.8-.7h0Z"/>
  <path class="cls-3" d="M61.6,51.5h1.1l.6,1-.6,1h-1.1l-.6-1,.6-1Z"/>
  <path class="cls-3" d="M61.6,55.6h1.1l.6,1-.6,1h-1.1l-.6-1,.6-1Z"/>
  <path class="cls-4" d="M51.1,57.4l.8,1.6c-2.7.5-5.7.7-8.2,1.8-2.5,1.3-3.5,4.6-6.7,4,0-1.5.2-2.9.5-4.4,4.1-1.8,9-3.4,13.5-3Z"/>
  <path class="cls-2" d="M67.5,69.4c3-.8,2.4-2.8,4.6-4.8,1.5,1.7,2.8,3.7,4.6,5.2.8-.1,1.8-.4,2.7-.6,5.1-.6-1.8,1,.5,0,1.2-1.9,1,.7-.5,0-2.3-1.9-4.5-3.4-7.3-4.6,1.8-1.5,2.7-2.5,3.3-4.7-1.1.6-4.4,4.6-5.4,5.2.4-2.4,3.3-9.6,6.4-7.5,2.8,2.8,6.5,3.5,8.8,6.9,1.5,1.7,1.6,1.8,3.3.2-1-2.1-2.3-3.7-3.6-5.6,2.5.8,6.4,3.7,7.9,5.8s1.1,5.1-.8,6.7-5,3-6.3,3.9c-2.2,4.1-2.3,5.7-7.3,7.6-.8.8-4.7,0-6.2-2.3-1.2-1.8-2.8-5.3-4.6-6"/>
  <path class="cls-4" d="M84.9,59.1c1.3,1.8,2.7,3.5,3.6,5.6-1.7,1.5-1.9,1.3-3.3-.2-2.3-3.4-6-4.1-8.8-6.9,2.9.1,5.8.5,8.5,1.6Z"/>
  <path class="cls-3" d="M20.6,59.6c1.6-.7,3.5,1.6,4.6,2.5l-.8,1.5c-3.9-1.3-5.6,0-8.2,2.7.6,1.5,1.2,2.8,2.4,3.9,1.5-1.1,2.7-1.8,4.6-2.1l1.1,2.2c-1.7,1.9-5.4,2.8-7.9,3.7-1.2-2.7-4.8-7.1-3.9-9.9,2.8-1.5,5.6-2.9,8.2-4.5h-.1Z"/>
  <path class="cls-2" d="M58.3,78.8c-.7,5.1-5.6,9-10,7.9-7-.5-8.2-5.7-8.8-7.9,1.3-1.5,3.3-6.5,4.1-8.2,3.6,1.2,5.1-1.8,6.7-4.5-2.9.6-4.7,2.5-6.7,4.5-2.1,1.3-3.9,4.6-5.8,5.9-1.3,0-4.6-1.2-5-3.7.6-1,2.7-1.1,3.3-2.1-.8-.2-3.3-.1-4.1-.4-1.2-4.1,1.5-8.3,5.7-9.9-.2,1.5-.5,2.9-.5,4.4,3.1.6,4.1-2.7,6.7-4,2.5-1.1,5.4-1.3,8.2-1.8,1.7,2.7-1.9,5-.1,6.8,1-.5,1.8-1.1,2.7-1.7,0,1,.1,2.1.2,3,.8-.6,2.5.1,3.4-.4.4,2.4.4,3.5.2,5.8"/>
  <path class="cls-3" d="M103.7,59.6c3.3,1.5,6.5,3.4,9.4,5.4-2.1,2.9-2.9,6.5-5.3,9.1-2.2-.6-4.4-1.6-6.3-2.7-.1-1.3,0-2.5.6-3.9,1.3.7,2.7,2.1,4.1,2.3,1.1-1.5,1.9-3,2.8-4.7-1.2-.2-2.4-.5-3.5-.7-.6-.6-1.3-1.1-2.1-1.7-1.3.5-2.5,1.2-3.9,1.8.8-1.8,1.2-5.9,4-5h.1Z"/>
  <path class="cls-1" d="M24.5,63.5c-.6,1.5-1.1,2.9-1.3,4.5-1.9.2-3,1-4.6,2.1-1.2-1.1-1.8-2.4-2.4-3.9,2.7-2.7,4.4-4,8.2-2.7h.1Z"/>
  <path class="cls-3" d="M72.1,64.5c2.8,1.2,5,2.7,7.3,4.6-.8.2-1.8.4-2.7.6-1.7-1.5-3.1-3.4-4.6-5.2Z"/>
  <path class="cls-1" d="M105.5,64.3c1.2.2,2.4.5,3.5.7-.8,1.6-1.7,3.1-2.8,4.7-1.5-.2-2.9-1.6-4.1-2.3.4-1.6,1.5-2.7,3.4-3.1Z"/>
  <path class="cls-3" d="M50.3,66.1c-1.7,2.5-3,5.6-6.7,4.5,2.1-1.9,3.9-3.7,6.7-4.5Z"/>
  <path class="cls-3" d="M79.4,69.1c1.5.6,3.6,1.6,2.4,3.5-2.3,1-2.7-1.9-2.4-3.5Z"/>
  <path class="cls-2" d="M92,70.6q.4.4,0,0Z"/>
  <path class="cls-4" d="M40.1,79.1s0,0,0,0Z"/>
  <path class="cls-2" d="M67.6,77.6c1,1.1,2.2,2.8,3.3,4.1s1.6,1.5,2.7,1.7,2.4.7,3.7,1.1,2.5,0,3.4-1,2.4-3,3.9-3.3c-.7,12.5-18.3,6.9-16.9-2.8h0Z"/>
  <path class="cls-2" d="M62.3,80.4c1.6,3.6,6,9.1,5.9,12.9-11.4,1.8-9.9-2.8-7.6-8.3,1.1-1.6,1.1-3,1.7-4.7h0Z"/>
  <path class="cls-2" d="M85.2,80.4q.4.4,0,0Z"/>
  <path class="cls-1" d="M27,89.4c-1.6,1.6-3.5,2.9-5,4.6-1,5.8-.1,12-.2,17.9-1.3-.5-2.8-1-4.1-1.6-.7-3.5,2.3-5.4,2.5-8.5-.7-3.7-5.3-4.7-3.7-9.2,3.3-1.9,6.8-2.7,10.5-3.3Z"/>
  <path class="cls-1" d="M98.7,89.3c3.3.7,9.2,2.2,10.6,5.6-1.2,2.1-2.5,4-3.6,6.2-.8,3.3,0,6,1.7,9-1.3.6-2.8,1.1-4.1,1.6.2-5,.4-10,.2-15,0-3-3-5-4.8-7.1h0Z"/>
  <path class="cls-1" d="M25.8,94.3c1.7.5,3.4,1.3,5.1,1.5h63.1c1.9-.1,3.9-1,5.8-1.6,0,4.8.7,10.5-.7,15.1-1.7,4.5-7.6,2.5-11.2,2.7h-40.3c-3.6.6-6.3-1.6-9.9,0-3.4,0-9.6,1.2-11.4-2.4-1-4.8-1.6-10.5-.4-15.4h-.1Z"/>
  <path class="cls-4" d="M37.2,100.7c1.9-1.3,3.6,2.1,1.1,2.4-1.3-.5-1.7-1.2-1.1-2.4Z"/>
  <path class="cls-4" d="M45.3,100.7c1.6-.1,3.1,0,4.6.2l-.2,1.1-.2,1c-1.1,2.3-.6,2.5.5,4.6-1.6.5-3,.7-4.7.6-.2-2.5-.1-5,.1-7.5Z"/>
  <path class="cls-4" d="M53,100.7c1.1,1.2,2.2,2.4,3.3,3.6,1-1.5,1.7-3,3.3-4-.7,2.2-1.3,7.3-3.5,8.1-1.9-2.3-2.7-4.7-3-7.7Z"/>
  <path class="cls-4" d="M63,100.6c1.2,0,2.3,0,3.4.4l.2,1.1c-.8.4-.7.7.2,1.1l.5,1.3v1c-1.2,1.2-2.3,3.3-4.2,2.9-.4-2.7-.4-5.2,0-7.9h-.1Z"/>
  <path class="cls-4" d="M70.4,100.4c2.4,1.5,2.9,5.6,4.7,7.9-1.5,0-3-.2-4.5-.5-.5-2.4-.5-4.8-.2-7.4Z"/>
  <path class="cls-4" d="M86.9,100.7c.2,2.1.2,4.2-.1,6.2-.8.7-1.9,1.2-3.1,1.5-1-.7-1.1-1.7-.4-3h.6l-.4-1-.6-1.2-.4-1.1c-1.2-2.3,3.1-1.2,4.2-1.5h.1Z"/>
  <path class="cls-3" d="M49.6,102l-.2,1,.2-1Z"/>
  <path class="cls-3" d="M66.6,102.1l.2,1.1c-1-.4-1.1-.7-.2-1.1Z"/>
  <path class="cls-3" d="M82.6,102.1l.4,1.1-.4-1.1Z"/>
  <path class="cls-3" d="M30.3,104.9q.5.5,0,0Z"/>
  <path class="cls-4" d="M36.9,104.8c2.3-.4,4.6,1.2,5.4,3.4-2.9,0-5.6.6-5.4-3.4Z"/>
  <path class="cls-3" d="M67.3,104.5l.2.7-.2.2s0-1,0-1Z"/>
  <path class="cls-3" d="M83.6,104.4l.4,1h-.6l.4-1h-.1Z"/>
  <path class="cls-3" d="M93.3,106.4q.5.5,0,0Z"/>
  <path class="cls-3" d="M19.3,107.6q.5.5,0,0Z"/>
  <path class="cls-2" d="M67.2,107.7q.5.4,0,0Z"/>
  <path id="p59" class="cls-5" d="M61.7,68.1c2.9-.3,7.1.3,8.7,2.7,4.3,6.2,2.5,9.4.9,13-1.5,3.5-.8,1.8-2,3.7,2.1,1.9,2,1.4,4.8,4.2,5.4,5.3.5,15.5-1.8,17-3.2,2.1-5.5,2.2-8,2.2s-5.7-.6-8.3-1.8-5.5-3.8-5.8-5.8,0-3.2,1.2-4.5c1.2-1.3,0,0,0,0,.9-1,2.6-.8,3.7,0,2.9,2.4,4.1,4.2,8.6,4.6,4.5.5,7.2-5.3,5.7-7.8-2.8-4.3-10.7-7.2-10.7-7.2-.9-2.1,1.2-1.6,3.8-3.4,5.8-3.8,4.6-8.3,1.8-9.9-2-1.1-4.6-1.8-6.4-.5s-1.4,1.3-1.7,1.8c-.9,1.6-3.2,1.4-4-.2s-.5-.5-.6-.8,0-1.1,0-1.4c1.4-4.5,6-5.9,10.1-6.1v.2Z"/>
</svg>