<?xml version="1.0" encoding="UTF-8"?>
<svg id="_Слой_1" data-name=" Слой 1" xmlns="http://www.w3.org/2000/svg" version="1.1" viewBox="0 0 120 120">
  <defs>
    <style>
      .cls-1 {
        stroke: #010101;
        stroke-miterlimit: 10;
        stroke-width: 2px;
      }

      .cls-1, .cls-2 {
        fill: #fff;
      }

      .cls-3 {
        fill: #fdd120;
      }

      .cls-3, .cls-4, .cls-5, .cls-6, .cls-2, .cls-7, .cls-8, .cls-9 {
        stroke-width: 0px;
      }

      .cls-4 {
        fill: #e9eed4;
      }

      .cls-5 {
        fill: #e5389f;
      }

      .cls-6 {
        fill: #d85c08;
      }

      .cls-7 {
        fill: #00c0ba;
      }

      .cls-8 {
        fill: #720b22;
      }

      .cls-9 {
        fill: #007e9c;
      }
    </style>
  </defs>
  <path id="p2" class="cls-4" d="M59.6,9.2c1.6.3,2.7,1.9,3.1,3.3,0,1.4-1.6,2.9-2.4,3.9-1.3-.3-2.3-1.9-3-2.9.4-1.6,1.3-3,2.3-4.3Z"/>
  <path id="p3" class="cls-3" d="M72.1,11.6c1.7,1.1,3.6,2.4,4.7,4-.6,1.9-1.3,3.7-1.9,5.4-1.9-.7-3.6-.6-5.6-.4-.4-1.4-.7-2.9-1.1-4.3,1.4-.6,3-1,4.4-1.7l-1.1-1.7.7-1.3h-.1Z"/>
  <path id="p4" class="cls-3" d="M46.4,12.9c1.4,0,3.6,3.3,4.6,4.4-.3,1-.7,2-1.1,2.9-.9.7-1.7,1.4-2.6,2.1-.7-.7-1.6-1.4-2.3-2.1-.6-1-1.3-2-1.7-3.1l1.6-.6c2.3,1.4,3.3-1.4.3-.9.3-.9.7-1.9,1.1-2.7h.1Z"/>
  <path id="p5" class="cls-4" d="M71.4,12.9l1.1,1.7c-1.4.6-2.9,1.1-4.4,1.7l-.7-1.7c1.3-.6,2.6-1.1,3.9-1.7h.1Z"/>
  <path id="p6" class="cls-4" d="M45.1,15.6c2.9-.6,1.9,2.3-.3.9l.3-.9Z"/>
  <path id="p7" class="cls-3" d="M31.4,18c2.1,2,3.7,4.6,5.9,6.6-4.6,1.6-7.4,2-12-.1v-.7c.9-.4,1.9-.9,2.9-1.3,1.3,1,2.6,1.6,3.6-.3.7-2.1-1.6-1.6-2.7-1.3.9-1.4.6-2.9,2.6-2.7h-.1Z"/>
  <path id="p9" class="cls-4" d="M90.5,19.2c.7,1,1.4,2.1,2,3.3-.4,1.4-1.1,2.6-2,3.9-1.6-.9-2.9-1.6-3.9-3.1.7-1.7,2.1-3.1,3.9-4Z"/>
  <path id="p10" class="cls-4" d="M31.5,22.2c-1,1.9-2.1,1.3-3.6.3l.9-1.6c1.3-.1,3.4-.7,2.7,1.3Z"/>
  <path id="p11" class="cls-8" d="M57.2,21.9c1.4,0,2.7.3,4.1.4,2.9.3,6-.1,8.9.6,2.9,1.1,5.3,3,8.1,4,3.9,1.4,8.1,2.4,10.6,6.1,2.4,3.7,5.9,6.4,7.6,10.3,2,4.4,4.7,7.9,4.4,12.7-.1,5.3,1.9,9.6,0,14.9-1.1,3.6-.9,7.6-2.4,10.9-2.4,3.6-4.9,7.1-7.1,10.6-3.1,2.7-6.4,5.6-9.7,8-4,1.4-8.1,2.9-12,4.7-5.3,2.1-9.6,0-15.1.1-6.1.3-12.6-2-17-6.3-2.3-2-4.9-3.3-7.3-5-2.6-1.7-4-5.3-5.6-7.9-1.9-3.4-4.4-5.9-4.6-10,0-3.3-1.4-6.1-1.9-9.3.6-8,2-15.6,4.7-23.1,1.3-2.9,3.7-4.3,5.9-6.4,2.9-2.7,3.9-6.1,7.4-8.1s7.7-2.1,11.1-4.4c3.3-1.9,6-2.7,9.9-3v.3ZM32.8,36.7c-.4.7-.9,1.4-1.1,2.1-2.1,1.4-4.1,2.1-5.6,4.4-1.4,2.1-1.6,4.3-2.3,6.7-2,5.1-2.4,10.3-3.3,15.9-.3,2,.9,4,1.3,6,.9,2.9.6,5.4,2.3,8,1.7,2.7,3.3,5.6,5.3,8.1.6-.4,1.1-.9,1.7-1.3-.9-2.3-1.7-4.3-1.4-6.9,3.1-3.6,9-2.6,11,1.4.6,2,0,4.4-.4,6.4-1.7,1.4-3.3,2.9-4.3,4.9,1.6.6,3.4,1,4.9,2-.3.9-.6,1.6-.9,2.4,2,2,4.1,4,7,2,3.4-2.1.6-6,4.7-7.6l-.6,1.9c-.9,2-.9,4.1,1.4,5,2.7-.6,4.9,1.4,7.6.7l.3-1.9c-1.4.1-2.9.4-4.4.6,1.3-1.1,2.9-2.1,4-3.6.4-1.4-.4-3.3-1.1-4.6l-1.7-.4h-.9c0-.1-1.7-1.3-1.7-1.3,2-.4,3.7-.9,5.7,0,1.6,4.1,2.9,8.1,2.3,12.7-2.4.7-5.1.7-7.7.7s-5.1-2.1-7.9-1.9c-1,1,1.7,2.3,2.6,2.6,5,.4,10,.7,15,.9,3.7.9,5.9-1.4,9.1-2.6,3.1-1.3,6-1.3,8.4-3.9,2.7-2.9,6.7-4.6,8.6-8,1.6-2.6,3.3-4.7,5-7.1,1.3-1.7.9-4.6,1.1-6.6,0-3.4,2.4-5.7,2.1-9-.9-4.6-1.1-8.7-1.1-13.3-1.4,1.6-1.3,3.6-2,5.7-1,1.6-3.1,2.4-4.7,3.3-1-.1-2-.3-3-.3-1.4.3-2.4,1.7-3.9.6,1.4-3.4-1.6-5-1.1-8.3.9,1.3,1.7,2.6,2.7,3.7,1.6,2.3,5.4,4,7.6,1.7.6-2.1.3-4.3-.3-6.4-1.3-3.1-3-4.1-6-2.3l-1.6,1.1c-.7.4-1.4.9-2,1.3.6-3.1,2-3.4,4.7-4.6h6.7c.3-4-3.1-7.7-6.3-9.6-1.1,2.6-1.9,5.3-3.7,7.6-2.4.7-4.7.7-7-.7-2.9-2-6.4-4.7-4.7-8.7,1.4-4.6,7-3.3,10.6-4-1-2.4-5.4-2.4-7.6-3.3-3-.6-5.3-4-8.4-3.9h-2.4c-1.6,0-3.3-.3-4.9-.3-3.9-.3-7.3-.9-10.9,1.1-3.4,2-6.4,3.3-10.3,4.3-3.4.9-5.6,3.3-6.9,6.4l.3-.3ZM74.4,36.7c-1.6,3.7,1.4,3.6,4,4.6-.4,1.3,0,2,1,2.1h.7c1.1.6,2.3.9,3.4,1,1.1-1.4.7-2.7.7-4.4.1-1.7.6-3.1-.3-4.9-.7-.3-1.4-.6-2.3-.6-3-.3-5.9-.9-7.6,2.1h.3ZM31.4,81.4c-1,2.9,1.9,4,3.4,5.9.3,2.3,2.4,2.7,3.3.6-.3-.9-1.1-1.3-2.4-1.3l.3-.9c1.1,0,2.1-.3,3.3-.4,0-1.4.3-3.1-.6-4.4l-1.3-.6c-2.4-.7-4.6-2.3-5.9,1h-.1Z"/>
  <path id="p12" class="cls-6" d="M25.2,24.3c4.6,2.3,7.3,1.9,12,.1-2.4,1.9-4.1,4.6-6.7,6.4-1.3-2.7-3.4-4.4-5.3-6.7h0Z"/>
  <path id="p14" class="cls-3" d="M60.6,24.9c1.6,0,3.3.1,4.9.3h2.4c3-.1,5.4,3.3,8.4,3.9,2.1.9,6.6.9,7.6,3.3-3.6.7-9.1-.6-10.6,4-1.7,4,1.9,6.7,4.7,8.7,2.1,1.4,4.6,1.4,7,.7,1.4-.3,3-.7,4.4-1,.9.3,1.6.7,2.3,1.1-1,.9-2.1,1.6-3.4,2-2.7,1-4,1.4-4.7,4.6l-.3.9c-.3,3.3,2.6,4.9,1.1,8.3,1.4,1.1,2.3-.1,3.9-.6,1,0,2,0,3,.3,0,.7-.1,1.3-.3,2,.9,1,1.9,1.7,2.7,2.7,0,1.6-3.6.7-4.6,1h-4.4c-2.1.9-2,2.4-2.4,4.4,0,2.4-.6,6,1.3,7.9,1.6,2,4.3,1.1,6.4,1.4-3.1,1.6-5.3,2.9-6.7,6.3-2.7-.6-1.1-4.1-1-6-1.1.6-2.1,1.1-3.3,1.7-2,0-3.9-1.1-5.4-2.1,3.1-3.6,6.1-6.9,7.3-11.6,1.9-6.4-.3-14-4.7-19-1.7-1.9-2.9-4.1-4-6.4-4.6,1.7-8.1-1.3-13.1-.6-12,.6-21.7,12.3-21.4,24,0,3,2,6-.7,8.4,1,0,2,0,2.9.1.9,1,1.6,2.6,2.9,3.1,4.1,1.7,6.7,4.9,11.3,5.7,3.9,1.3,7.4,1,11.4.4-.4,2.7-1,5.3-1.3,8-1.7-1.3-2.7-3.1-4.1-4.6-2-1-3.7-.6-5.7,0-3.6.4-5.3,2.4-7.7,4.9-2.7-.4-6-2.3-6.9-5,.4-2,1-4.4.4-6.4-2-4-7.9-5-11-1.4-.7,0-1.4.3-2.1.3l1.3-2.6c-1.3-.3-2.6-.4-3.9-.7-1.4-1.3-.9-2.4-.6-3.9,2.3.9,4.6,2,6.9,3,.4-1.7.3-3.3,1.6-4.4,1.7-2,4-3.6,3.3-6.6-.6-2-1.7-5.3-3.9-6-4.3-.3-7.4,2-10,5.1-.7.6-1.3,1.1-2,1.7.7-5.4,1.1-10.7,3.3-15.9.6-2.7-.9-2.6,2.9-7.6,3.9-3.9,4.3-3.1,5-3.6,0-2.6,6.6-10.3,7.7-8.6l10.6-4.3c0,1.4-17,15.3-16.4,16.7,1.1,1.1,2.6,2,3.7,3,.6.6,3.6-6,4.1-5.6,2,.1,1.4,4.4,3.3,4l-1,.9c.7-.1,4.6-5.7,5.3-5.9,3,.9,1,4.4-.1,1.7-.7-2.3-1-4.6-3.1-6-1.7-1.1-4.1-1.3-6.1-1.7,3-3.6,6.3-5.3,10.4-7.3,3.3-1.9,6-1.7,10.9-1.1l.7-.3ZM57.5,27.9l-.7.6c-.7.6-1.4,1.3-2,1.9l-1.1,1.1c-2.4,2.1-2,3.6-1.1,6.4-1.6.6,1.3-1.4,2.4,0,1.4,1.3-1.1,2.7-.7,1.1,1.1.3,2.3.6,3.3.9.7,2.1-1.4,2-.7-.1,3.6-1.4,10.9-1.9,11.4-6.3-.4-2.3-2-4.7-3.9-6-2.1-.4-5-.9-6.9.3h0ZM50.1,37.3c-.9.7-1.4-1.7-.6-1,1.9.6,2.4.6.6,1ZM66.2,39.3c-1.7.7-1.3-.6.4-1,1.7-.9,1.3.6-.4,1ZM34.7,50.1c-1.4.3-4-1.4-1.7-.9.9-.4,1.1-1.3.9-2.6.7,1,1.6,1.3,2.4.9.9-2.1-.4,1.4-1.4,2.7h-.1ZM33.7,53.1c-1,.1,2.9.7,3.6,2.3,1.1,2-2.1.9-.4-.6.9-.6,2.1-5,2.9-5.6,2.4.4,2.7,2,0,1.7l-1.7-1.7c-2.3-.3-3.3,2.3-4.3,3.9ZM27.5,54.6c0-.9,2.3-.9,2.1-1.7-2.1-2.7-7.6,1.9-6.1,4.6,1.1.3,2.4.6,3.6.7M49.1,85.6c-.3-1.7-1.6-2.4-3-3.3-2.1.7-3.1,3.1-1.4,4.9,1.9,1.7,3.7.6,4.4-1.6Z"/>
  <path id="p15" class="cls-7" d="M65.5,25.2h.7-.7Z"/>
  <path id="p16" class="cls-7" d="M67.2,25.2h.7-.7Z"/>
  <path id="p17" class="cls-3" d="M98.3,25.6c2.1,2.3,4.1,4.7,6.6,6.9-4.4,2.3-7.4,2.1-12.1,1.1l-1.1-1c3.4-1.4,4.9-3.9,6.7-7ZM97.6,29.3c-.9.4-2.1,2.7-.6,3,1.7,0,3.3-4,.6-3Z"/>
  <path id="p18" class="cls-8" d="M64.4,27.4c1.9,1.4,3.4,3.9,3.9,6-.7,4.4-4.4,5.1-8,6.4-1-.3-2-.3-2.9,0-1.1-.3-2.3-.6-3.3-.9l-1.7-1.3c-.9-2.9-1.3-4.3,1.1-6.4-.4,2.4-1.4,4.3.6,6.3,4.1.6,11.1.9,12.7-4-.7-2-2-4-3.6-5.3-1.9-.6-4-.4-5.9-.4,1.9-1.3,4.7-.7,6.9-.3h.1Z"/>
  <path id="p19" class="cls-7" d="M57.5,27.9c1.9,0,4-.1,5.9.4,1.7,1.4,2.9,3.3,3.6,5.3-1.7,5-8.6,4.6-12.7,4-2-2-1-3.9-.6-6.3l1.1-1.1v3c1.6-1.7,2.6-2.3,4.7-2.7-.9-.7-1.9-1.4-2.9-2l.7-.6h.1Z"/>
  <path id="p20" class="cls-4" d="M56.9,28.3c1,.7,1.9,1.4,2.9,2-2.1.6-3.1,1.1-4.7,2.7v-3c.7-.6,1.3-1.3,2-1.9h-.1Z"/>
  <path id="p21" class="cls-2" d="M97.6,29.3c2.7-1,1.1,3-.6,3-1.7-.3-.4-2.6.6-3Z"/>
  <path id="p22" class="cls-4" d="M19.2,30.1c1.3,1.1,2.4,2.4,3.6,3.9-1.3,1.7-2.9,3-4.6,4.1-.7-1.1-1.4-2.3-2-3.6.6-1.6,1.9-3.1,3-4.4Z"/>
  <path id="p23" class="cls-6" d="M105.1,32.4l1,.9c-3.6,1.9-5.6,3.7-7.6,7.1-1.4-3-2.9-5.1-5.6-7,4.9,1.1,7.7,1.1,12.1-1.1h0Z"/>
  <path id="p24" class="cls-8" d="M39.4,33.4c2,.4,4.4.6,6.1,1.7,2.1,1.4,2.4,3.7,3.1,6-1.3,1.1-2.1,2.3-3,3.7-.7.1-1.4.3-2.1.4-2.1.1-4.3.4-6.3.6-1.3-1-2.6-2-3.7-3-.6-1.4,0-3.3,0-4.7,2-1.6,3.9-3.1,5.9-4.7ZM34.7,40.3c-.3.7-.4,1.3-.6,2,3.3.9,6.9,1.3,10.3.9,1.7-.7,3.4-2.9,2.4-4.7-1.3-2.4-3.6-3.1-6.1-2.9-3.4.4-4.6,1.7-6,4.9h0Z"/>
  <path id="p27" class="cls-5" d="M81.9,34.7c.9,0,1.6.3,2.3.6.9,1.6.4,3.1.3,4.9-1.6,1.1-2.9,2.3-4.3,3.6h-.7c.4-1.4,1.1,0,0-.1-2.6-1-7.4-3.9-5-6.6,0,0,.7-1.3,2-1.9.4-.3,2.4-.4,2.4-.4,2.4-.3,1.7,0,3.3.3l-.3-.3ZM80.8,37c-.6,1-.4,1.6.7,1.9,2-.4,1.1-3.1-.7-1.9Z"/>
  <path id="p28" class="cls-2" d="M40.7,35.4c-1.1,1.6-2.3,3.6-3.9,4.9h-2.1c1.3-3,2.4-4.4,6-4.9Z"/>
  <path id="p29" class="cls-9" d="M40.7,35.4c2.6-.1,5,.4,6.1,2.9,1,1.9-.7,4-2.4,4.7-3.4.4-7,0-10.3-.9,0-.7.3-1.4.6-2h2.1c1.6-1.3,2.7-3.3,3.9-4.9h0Z"/>
  <path id="p30" class="cls-9" d="M80.8,37c1.9-1.1,2.7,1.4.7,1.9-1.1-.3-1.3-.9-.7-1.9Z"/>
  <path id="p32" class="cls-6" d="M88.6,38.1c3.1,1.9,6.6,5.6,6.3,9.6h-6.7c1.3-.6,2.4-1.1,3.4-2-.7-.4-1.6-.9-2.3-1.1-1.6.3-3,.7-4.4,1,1.9-2.3,2.6-4.9,3.7-7.6h0Z"/>
  <path id="p36" class="cls-9" d="M84.3,40c0,1.6.4,3-.7,4.4-1.1-.1-2.3-.4-3.4-.9,1.3-1.3,2.7-2.4,4.3-3.6h-.1Z"/>
  <path id="p39" class="cls-8" d="M59.5,42.7c4.9-.7,8.4,2.4,13.1.6,1.1,2.3,2.3,4.4,4,6.4,4.4,5,6.6,12.6,4.7,19-1.1,4.7-4.1,8-7.3,11.6,1.6,1,3.6,2.1,5.4,2.1,1.1-.4,2.1-1.1,3.3-1.7-.1,1.9-1.9,5.4,1,6,1.3-3.4,3.6-4.6,6.7-6.3-2.1-.1-5,.6-6.4-1.4-2-1.9-1.3-5.4-1.3-7.9l.9.3.3,2.3c.1,1.1.4,2.3.7,3.4,3.3,1.1,8.3,1.7,9.3-2.7.6-4.7-3.3-5-6.6-6.3-.7-.4-1.6-.9-2.3-1.3h4.4c2.4,1.1,4.7,2.4,7.1,3.6,0,3.9,0,7.4-2.7,10.6-2.1,2.3-3,5.1-4.7,7.7-2.9,2.3-5.7,4.6-8.7,6.9-2.6,2.1-5.6,2.4-8.7,3.3-.6-.4-1.3-1-1.9-1.4,1-.3,1.9-.4,2.9-.7-2.4-2.1-5.1-2.6-8-4,.3-2.7.7-5.3,1.3-8-4,.6-7.6.9-11.4-.4-4.6-.9-7.1-4.1-11.3-5.7-1.3-.4-2-2.1-2.9-3.1-1,0-1.9-.1-2.9-.1,2.6-2.4.7-5.4.7-8.4-.3-11.7,9.4-23.6,21.4-24h-.3ZM54.6,45.3c-5.4,2-9.9,5-12.3,10.4-2.4,4.7-2.6,10.7-1,15.9,2,5.7,6.9,8.9,12.1,11,4.4,1.7,9.3,1.3,13.6-.7,2.1-1,3.9-2.6,5.7-3.9,2.1-2.1.9-1.3,3.6-3l.9-1.4c1.9-2.3,2.6-5,2.9-7.9,1.3-9.1-6.9-20.6-16.4-21-3-.3-6.1-.1-9,.6ZM67.4,88v4c2.9,1.9,7,1.6,10.1,1,2.3-.3,3.3-2.7,2.9-4.7-.6-1.9-1.9-3.3-3.3-4.6-1.7-.3-3.7-.7-5.4-.3-2.1.7-3.4,2.9-4.4,4.7h.1Z"/>
  <path id="p40" class="cls-3" d="M105.2,42.9c1.7,1.4,3.1,2.9,3.7,5-1.1,1.9-2.9,2.7-4.7,3.7-1-1.4-1.9-2.9-2.1-4.6.4-.9.9-1.6,1.3-2.3.6-.6,1.3-1.1,1.9-1.7h0Z"/>
  <path id="p41" class="cls-7" d="M63.8,44.7c3.3,3.3,5.4,7.1,7.9,11.1,2.7,4.9,1.4,9.1,1.6,14.1l.7.7c2.6-2,3.1-5,4.9-7.7.7,0,1.3,1,1.6,2.9-.3,2.9-1,5.6-2.9,7.9-.9-.4-1.9-1.1-2.7-1.3h-.3c-2.1,2.6-4.4,4-7.1,5.9,0,1.3.1,2.4.1,3.7-4.3,2-9,2.4-13.6.7-5.3-2.1-10.1-5.4-12.1-11-1.6-5-2.7-15.4,6.6-22.8.3,2.1,8-7.1,15.1-2,1.4.1-15.9,16-15.1,14.6,1.9-2.7-14.3.7,0-12.6,1.3-1.1,1.3-.9,3.7-2.3,8.1-4,6.1,1.4,5.9.4,1.1,1,2.3,1.9,3.9,2.1.9-3.3-4.9-3.1-6.9-3.6,3-.7,6-.9,9-.6v-.3ZM63.8,51.7l.9-.4.4.9h.9l1,.3-2,1.1-1.3-1.7h.1ZM51.6,62c-2.4,3.6-3.7,6.1-3.3,10.6-1.7.7-3.9-2-5.4-2.6,1.4,5,3.9,7.4,8.9,8.9,2.7.7,8.7,3.3,10.7.4-1.4-.1-2.7-.3-4.1-.6.7-.7,1.4-1.3,2.1-1.7,3.4-.9,7.6-2,9.7-5.1.9-1.9-.3-4.3-1.1-6-2.1-4.1-4.9-8.9-8.7-11.7l-1.1-.7c-3.3,2.1-5.6,5.1-7.6,8.4h0Z"/>
  <path id="p42" class="cls-9" d="M63.8,44.7c9.6.4,17.7,11.7,16.4,21-.3-1.7-.9-2.7-1.6-2.9-1.6,2.9-2.3,5.7-4.9,7.7l-.7-.7c0-5,1.1-9.3-1.6-14.1-2.4-4-4.6-7.9-7.9-11.1h.1Z"/>
  <path id="p47" class="cls-7" d="M55.9,48c1.1,3.3-4.4,4.3-5.6,2.1,1.4-2,3.3-2.3,5.6-2.1Z"/>
  <path id="p48" class="cls-8" d="M38.1,49.3l1.7,1.7-.4,2.1c-.9.6-1.6,1.1-2.4,1.7-1-.6-2.1-1.1-3.1-1.7,1.1-1.6,2-4.1,4.3-3.9Z"/>
  <path id="p49" class="cls-7" d="M93.2,52.1c-2.1,3.6-3.3,4.1-7.3,4.7-1-1.1-1.9-2.4-2.7-3.7l.3-.9c.7-.4,1.4-.9,2-1.3.4,1.6,1.1,2.9,2.7,1.4,1.3-1.6.4-2.3-1.1-2.6,3-1.9,4.9-.9,6,2.3h.1Z"/>
  <path id="p51" class="cls-4" d="M87.2,49.9c1.7.3,2.4,1,1.1,2.6-1.6,1.4-2.3.1-2.7-1.4l1.6-1.1Z"/>
  <path id="p52" class="cls-8" d="M29.7,52.9c0,.9.1,1.7.3,2.7-1.1.6-2.1,1.4-2.9,2.6-1.3-.1-2.4-.4-3.6-.7-1.4-2.7,4-7.3,6.1-4.6Z"/>
  <path id="p55" class="cls-9" d="M93.2,52.1c.6,2.1,1,4.3.3,6.4-2.3,2.3-6,.6-7.6-1.7,4-.6,5.1-1.1,7.3-4.7Z"/>
  <path id="p56" class="cls-6" d="M98.1,52.4c0,4.6.4,8.7,1.1,13.3-1,1.6-1.9,3.1-2.9,4.9-2.4-1.1-4.7-2.4-7.1-3.6,1-.3,4.7.6,4.6-1-.9-.9-2-1.7-2.7-2.7,0-.7.1-1.3.3-2,1.6-.9,3.7-1.7,4.7-3.3.7-2,.6-4,2-5.7h0Z"/>
  <path id="p57" class="cls-4" d="M60.1,48.9l1.4,1c-.7,1.3-1.9,2.7-2.1,4.1,1.6,1.4,3.1,2.7,4.6,4.4-2.9.4-5.6.3-8.3.4-4,1.7.4,8.9-2,11.6-1.7-.9-3.1-2-3.6-4,1-2.7,2.4-4.3,1.3-7.3,2.3-4,5.1-7.6,8.9-10.3h-.1Z"/>
  <path id="p58" class="cls-5" d="M61.5,49.7c4.4,3.6,7.6,9.3,10.1,14.3.9,2.1,2.4,5,1.3,7.3-2.4,3.7-7.3,5.3-11.3,6.3-5.3-.7-10.6-1-14.3-5.6-.4-5.4,1-8.6,3.9-12.9,1.1,3-.3,4.6-1.3,7.3.4,2,1.9,3.1,3.6,4,2.4-2.7-2.1-9.9,2-11.6,2.9-.1,5.6,0,8.3-.4-1.4-1.6-3-3-4.6-4.4.4-1.6,1.4-2.9,2.1-4.1h.1ZM63.4,61.6c-1.4,1.9.9,4.4,2.7,2.9,1.4-1.9-.9-4.3-2.7-2.9ZM64.4,67.1c-1,.9-1,1.9,0,2.7,2.1.6,2.1-3.3,0-2.7ZM61.9,71.8v1.1l1,.6.9-.6v-1.1l-1-.6-.9.6Z"/>
  <path id="p60" class="cls-8" d="M32.4,59.3c2.1.7,3.3,4,3.9,6,.7,3-1.6,4.4-3.3,6.6-1.3,1.3-1.1,2.9-1.6,4.4-2.3-1-4.6-2.1-6.9-3-1-1.6-2-3.1-2.9-4.9l1.6-.6c.6,1.3,1.1,2.4,2,3.4,2.7.6,5.6,0,7.7-1.9,3.6-1.7.1-8-2.6-8.3-3.9.6-5.1,1.4-6.7,5.1l-.4.7c-.3-.9-.6-1.7-.9-2.6,2.6-3.1,5.7-5.3,10-5.1Z"/>
  <path id="p61" class="cls-3" d="M11.7,61.3c1,1.1,1.9,2.3,2.9,3.4.4.9.9,1.6,1.3,2.4-.7,1.6-1.7,2.9-2.7,4.3l-1.4,1c-1.6-1.4-3.1-3.1-4.1-5.1,1-2.1,2.7-4,4.1-5.7v-.3Z"/>
  <path id="p62" class="cls-4" d="M30.4,61c-.9,1.7-1.6,3.6-2.7,5.1-1.1.6-2.7,0-4,0,1.6-3.6,2.9-4.4,6.7-5.1Z"/>
  <path id="p63" class="cls-5" d="M30.4,61c2.9.4,6.1,6.6,2.6,8.3-2.1,1.9-5,2.3-7.7,1.9-.9-1-1.4-2.1-2-3.4v-.9l.3-.7c1.3,0,2.9.6,4,0,1.1-1.6,1.9-3.4,2.7-5.1h.1Z"/>
  <path id="p64" class="cls-4" d="M108.5,61.3c1.6,1.6,3.1,3.3,4,5.3-1.1.6-2.1,1.1-3.3,1.9v2.9c-.7-.7-1.6-1.4-2.3-2.1-.6-1.3-1.1-2.7-1.7-4,1.3-1.1,2.3-2.4,3.3-3.7h0Z"/>
  <path id="p66" class="cls-6" d="M22.5,64.3c.3.9.6,1.7.9,2.6v.9l-1.6.6c.9,1.7,1.9,3.3,2.9,4.9-.4,1.6-.9,2.7.6,3.9,1.3.3,2.6.4,3.9.7l-1.3,2.6c.7,0,1.4-.1,2.1-.3-.3,2.6.6,4.6,1.4,6.9-.6.4-1.1.9-1.7,1.3-2-2.6-3.7-5.4-5.3-8.1-1.7-2.6-1.4-5.1-2.3-8-.4-1.9-1.6-4-1.3-6,.7-.6,1.3-1.1,2-1.7h-.3Z"/>
  <path id="p67" class="cls-5" d="M99.2,65.6c.1,3.3-2.3,5.7-2.1,9-.1,2.1.1,4.9-1.1,6.6-1.6,2.4-3.4,4.7-5,7.1-1.9,3.4-5.9,5.1-8.6,8-2.4,2.6-5.3,2.6-8.4,3.9-3.3,1.1-5.4,3.4-9.1,2.6l1.1-1.9,1.3-.4h2.1c.9-.6,1.6-1.3,2.3-1.9,3.1-.7,6.1-1.1,8.7-3.3,2.9-2.3,5.9-4.6,8.7-6.9,1.6-2.6,2.6-5.4,4.7-7.7,2.7-3.1,2.9-6.6,2.7-10.6,1-1.6,2-3.1,2.9-4.9v.3Z"/>
  <path id="p68" class="cls-6" d="M84.9,66.8c.9.3,1.6.7,2.3,1.3l-.3.7c-1.1.9-2.4,1.7-3.6,2.7l-.9-.3c.3-2,.3-3.6,2.4-4.4Z"/>
  <path id="p70" class="cls-5" d="M87.2,68.1c3.3,1.4,7.3,1.6,6.6,6.3-1,4.4-6,3.9-9.3,2.7-.3-1.1-.6-2.3-.7-3.4.7.1,1.4.3,2.3.6.4-1.9.7-3.6,1-5.4l.3-.7h-.1Z"/>
  <path id="p71" class="cls-4" d="M86.9,68.8c-.3,1.9-.4,3.6-1,5.4-.7-.1-1.4-.3-2.3-.6l-.3-2.3c1.1-1,2.3-1.9,3.6-2.7h0Z"/>
  <path id="p72" class="cls-9" d="M42.9,70c1.6.6,2.4,1.7,4.7,2.4,3.1,3.7,9.4,4.6,14,5.1-.7.4-2.6.6-3.3,1.3,1.4.1,2.7.3,4.1.6-2.1,2.9-8,.1-10.7-.4-5-1.4-7.4-3.9-8.9-8.9h0Z"/>
  <path id="p74" class="cls-8" d="M61.9,71.8l.9-.6,1,.6v1.1l-.9.6-1-.6v-1.1Z"/>
  <path id="p75" class="cls-7" d="M77.4,72.8c.3,2.1-8.1,8.7-11.4,9.4-4.1-3.3,11.4-14.9,11.4-9.4Z"/>
  <path id="p76" class="cls-3" d="M15.1,76.8c1.3,1.3.9,2.9-1.1,2.1l-.3-.7,1.4-1.4Z"/>
  <path id="p77" class="cls-4" d="M104.6,76.7c1.1.9,1.6,1.7,1,2.4-2,.4-2.4-1.1-1-2.4Z"/>
  <path id="p78" class="cls-4" d="M37.2,80.4c-2.6,1.9-2.9,2.1-5.9,1,1.3-3.3,3.4-1.7,5.9-1Z"/>
  <path id="p79" class="cls-5" d="M37.2,80.4l1.3.6c-1.6,1.6-2.1,2.7-2.6,4.7l-.3.9-.9.7c-1.6-1.9-4.4-3.1-3.4-5.9,3,1.1,3.3.9,5.9-1ZM33.9,83.8l-.4.9.4.9h.9l.4-.9-.4-.9h-.9Z"/>
  <path id="p80" class="cls-9" d="M38.5,81c.9,1.3.7,2.9.6,4.4-1.1.1-2.1.3-3.3.4.4-2.1,1.1-3.3,2.6-4.7h.1Z"/>
  <path id="p81" class="cls-6" d="M46.1,82.4c1.4.9,2.7,1.4,3,3.3-.7,2.1-2.6,3.3-4.4,1.6-1.7-1.7-.7-4,1.4-4.9Z"/>
  <path id="p82" class="cls-7" d="M33.9,83.8h.9l.4.9-.4.9h-.9l-.4-.9.4-.9Z"/>
  <path id="p83" class="cls-3" d="M71.8,83.3c1.7-.3,3.7,0,5.4.3v1.6h-3c-1.6,2.7-3.3,4.1-5.6,6.1.1-1,.3-2,.3-3l-1.6-.3c1-2,2.3-4,4.4-4.7Z"/>
  <path id="p84" class="cls-9" d="M77.2,83.6c1.4,1.3,2.7,2.7,3.3,4.6.4,2-.6,4.4-2.9,4.7-3.1.7-7.3.9-10.1-1-.1-1.3-.1-2.7,0-4l1.6.3c0,1-.1,2-.3,3,2.3-2,4.1-3.3,5.6-6.1h3v-1.6h-.1ZM73.9,88.3l-.4.9.4.9h.9l.4-.9-.4-.9h-.9ZM76.4,88.3q.4.4,0,0ZM78.6,89.4q.4.4,0,0ZM76.5,90.6q.4.4,0,0ZM71.9,91.6q.4.4,0,0ZM74.2,91.6q.4.4,0,0Z"/>
  <path id="p85" class="cls-4" d="M18.4,84.3c1.7,1.9,2.6,3.3,3,5.9-.9,0-1.6,0-2.3.3-.1.7-.3,1.4-.4,2.1-1.1-1.1-2.4-2.3-3.4-3.6.4-1.7,2.1-3.3,3.1-4.7Z"/>
  <path id="p86" class="cls-4" d="M101.6,84.3c1,1.4,2.3,2.7,3,4.4-.9,1.1-1.7,2.3-2.7,3.3-.4,0-1-.1-1.4-.3-.7-.9-1.3-1.7-2-2.7.9-1.7,2-3.3,3.1-4.7Z"/>
  <path id="p87" class="cls-9" d="M34.8,87.3l.9-.7c1.4,0,2.1.4,2.4,1.3-.9,2.1-3,1.7-3.3-.6Z"/>
  <path id="p88" class="cls-6" d="M40.4,87.8c.9,2.7,4.1,4.6,6.9,5,2.4-2.4,4-4.4,7.7-4.9l1.7,1.1c-1.6.9-3.1,1.6-4.7,2.4-4.3,1.6-1.4,5.4-4.7,7.6-2.9,2-5,0-7-2,.3-.9.6-1.6.9-2.4-1.4-1-3.3-1.4-4.9-2,1.1-2,2.7-3.3,4.3-4.9h-.1Z"/>
  <path id="p89" class="cls-6" d="M60.5,88c1.4,1.4,2.6,3.4,4.1,4.6,2.9,1.4,5.6,1.9,8,4-1,.3-1.9.4-2.9.7.6.6,1.3,1,1.9,1.4-.7.7-1.4,1.4-2.3,1.9h-2.1c-1.1.1-1.3,1.4-2,.1-2.1-.6.7-1.1.7.1l-1.1,1.9c-5,0-10-.3-15-.9-.9-.1-3.4-1.4-2.6-2.6,2.7-.3,5.3,1.7,7.9,1.9,2.6,0,5.3,0,7.7-.7.6-4.4-.6-8.6-2.3-12.7v.3Z"/>
  <path id="p90" class="cls-3" d="M73.9,88.3h.9l.4.9-.4.9h-.9l-.4-.9.4-.9Z"/>
  <path id="p91" class="cls-3" d="M76.4,88.3q.4.4,0,0Z"/>
  <path id="p92" class="cls-4" d="M56.5,89h.9c-.9,1.9-1.7,3.6-2.7,5-1.1-.3-2.3-.6-3.3-.9l.6-1.9c1.6-.9,3.1-1.6,4.7-2.4h-.1Z"/>
  <path id="p93" class="cls-5" d="M57.4,89.3l1.7.4c.7,1.3,1.6,3.1,1.1,4.6.4,1.9.9,3.1-.6,4.1,0-.6-.6-1.1.9-1.3l-.3,1.9c-2.7.7-4.9-1.3-7.6-.7-2.3-1-2.3-3-1.4-5,1.1.3,2.1.6,3.3.9,1.1-1.4,1.9-3.3,2.7-4.9h.1Z"/>
  <path id="p94" class="cls-6" d="M78.6,89.4q.4.4,0,0Z"/>
  <path id="p95" class="cls-8" d="M76.5,90.6q.4.4,0,0Z"/>
  <path id="p96" class="cls-6" d="M71.9,91.6q.4.4,0,0Z"/>
  <path id="p97" class="cls-6" d="M74.2,91.6q.4.4,0,0Z"/>
  <path id="p99" class="cls-4" d="M88.3,99.5c1,.1,2.1.4,3.1.6-.3.9-.6,1.7-1,2.4-1.4.9-2.4,0-3.9-.1.6-1,1-2,1.6-3h.1Z"/>
  <path id="p100" class="cls-4" d="M31.4,101l-1,1.6-.9-.3c-.6-1.6,1.3-3.4,1.9-1.3Z"/>
  <path id="p109" class="cls-5" d="M60.5,120.5"/>
  <path id="p59" class="cls-1" d="M58.7,67.1c2.9-.3,7.1.3,8.7,2.7,4.3,6.2,2.5,9.4.9,13-1.5,3.5-.8,1.8-2,3.7,2.1,1.9,2,1.4,4.8,4.2,5.4,5.3.5,15.5-1.8,17-3.2,2.1-5.5,2.2-8,2.2s-5.7-.6-8.3-1.8-5.5-3.8-5.8-5.8,0-3.2,1.2-4.5c1.2-1.3,0,0,0,0,.9-1,2.6-.8,3.7,0,2.9,2.4,4.1,4.2,8.6,4.6,4.5.5,7.2-5.3,5.7-7.8-2.8-4.3-10.7-7.2-10.7-7.2-.9-2.1,1.2-1.6,3.8-3.4,5.8-3.8,4.6-8.3,1.8-9.9-2-1.1-4.6-1.8-6.4-.5s-1.4,1.3-1.7,1.8c-.9,1.6-3.2,1.4-4-.2s-.5-.5-.6-.8,0-1.1,0-1.4c1.4-4.5,6-5.9,10.1-6.1v.2Z"/>
</svg>