<?xml version="1.0" encoding="UTF-8"?>
<svg id="_Слой_1" data-name=" Слой 1" xmlns="http://www.w3.org/2000/svg" version="1.1" viewBox="0 0 96 96">
  <defs>
    <style>
      .cls-1 {
        fill: #303;
      }

      .cls-1, .cls-2 {
        stroke-width: 0px;
      }

      .cls-2 {
        fill: #fff;
      }
    </style>
  </defs>
  <path class="cls-2" d="M78.3,13.7c6.6,4.8,9.4,13.7,6.7,21.4-1.9,5.7-6.5,9.1-10.5,13.3-4.6,4.3-7.9,8.9-13.5,11.9,1.9-4.7,2.1-8.1.4-12.9,4-4.3,8.5-8.3,12.4-12.6,3.1-3.5,2.8-8.9-.5-12.1-3.5-3.5-9.2-3.5-12.7,0-4.1,3.9-8,8.2-12.2,12-2.8,2.5-5,5.2-4.5,9.2.7,4.6,3.6,6.9,7.8,8.3-.3,3.7-2.1,6.5-4.6,9.1-5.9-2.3-10.5-6.6-12.4-12.8-1.1-4.4-.6-8.7.5-13.1,1.7-2.7,3.4-5.2,5.8-7.4,4.6-4.4,8.9-9.1,13.6-13.4,6.5-5.8,16.7-6.1,23.6-.9h0Z"/>
  <path class="cls-1" d="M48.5,34.7c6,2.2,11,6.4,12.9,12.7,1.7,4.8,1.6,8.2-.4,12.9-2.1,3.6-4.3,6.4-7.4,9.2-4.5,4.2-8.5,9-13.3,12.7-6.3,4.8-15.4,4.9-21.9.4-7-4.7-10-13.7-7.3-21.7,1.8-5.8,6.5-9.1,10.6-13.4,4.7-4.4,8.1-9,13.7-12.1-1.1,4.4-1.6,8.6-.5,13.1-4,4.1-8.2,8-12.1,12.2-2.9,2.9-3.5,7.4-1.4,11,2.7,4.6,9.4,5.9,13.4,2.2,4.2-4.2,8.3-8.3,12.5-12.5,2.5-2.6,4.3-5.4,4.6-9.1-1.1-4.8-3.1-7-7.8-8.3-.5-4,1.7-6.7,4.5-9.2h-.1Z"/>
</svg>