<?xml version="1.0" encoding="UTF-8"?>
<svg id="_Слой_1" data-name=" Слой 1" xmlns="http://www.w3.org/2000/svg" xmlns:xlink="http://www.w3.org/1999/xlink" version="1.1" viewBox="0 0 1024 1024">
  <defs>
    <style>
      .cls-1 {
        fill: #303;
      }

      .cls-1, .cls-2, .cls-3, .cls-4, .cls-5, .cls-6, .cls-7, .cls-8, .cls-9, .cls-10, .cls-11, .cls-12, .cls-13 {
        stroke-width: 0px;
      }

      .cls-2 {
        fill: #c99;
      }

      .cls-3 {
        fill: #9296a3;
      }

      .cls-4 {
        fill: #f3ebe9;
      }

      .cls-5 {
        fill: #133663;
      }

      .cls-6 {
        fill: #afc3d1;
      }

      .cls-7 {
        fill: #6a6e79;
      }

      .cls-8 {
        fill: #848895;
      }

      .cls-9 {
        fill: #9c9ba7;
      }

      .cls-10 {
        fill: #caecfa;
      }

      .cls-11 {
        fill: #7e8ba6;
      }

      .cls-12 {
        fill: #162134;
      }

      .cls-13 {
        fill: #345b94;
      }
    </style>
  </defs>
  <path class="cls-6" d="M461,187.5c114.6.4,234.8-.9,348.6.7-116.8.8-234.6.1-351.4.3-103.5-.2-207.9.4-311.3-.3,102.6-1.5,210.8-.2,314-.7Z"/>
  <path class="cls-12" d="M147,188.2c103.4.8,207.7.1,311.3.3,116.8-.2,234.7.4,351.4-.3,3.7.2,7.5.5,11.1,1-116.7.8-234.6.1-351.4.4-110.9-.2-222.7.5-333.4-.3,3.7-.5,7.3-.8,11.1-1h0Z"/>
  <path class="cls-1" d="M135.9,189.2c110.9.8,222.5.1,333.4.3,116.8-.2,234.7.5,351.4-.4,64.3,5.4,115.1,44.1,123.2,90.1-1,41-.4,82.2-.3,123.2.3,6,4.7,5.9,10.9,8,20.2,7,36.4,20.5,45.3,35.1,8.2,14.6,9.4,29.4,8.4,44.9,0,32.6.3,65.3,0,98-3.9,17-11.6,32.5-29.9,44.3-10,7.6-23.5,10.4-34.6,16-1,17.7,0,35.9-.4,53.7-.6,19.8,2.5,37.8-5.3,57.2-11.7,32.1-45.9,59.1-90,68.9-41.1,9.8-86.5,1.9-130.1.9-159.5-8.8-324.7-18.1-484.1-27.7-23.2-.6-46.6-3.4-69.8-3.1-25.4-1.7-50-4.8-73-13.2-7.9-3.1-15.3-6.8-22.8-10.3-27-16.2-49.1-39.8-52.9-65.5,1.2-84.4.1-169.7.6-254.2-.3-59.6.7-119.7-.6-179.2,7-44.6,57.9-83,120.4-87.1h0Z"/>
  <path class="cls-2" d="M197,221.5h94v.9c-4.3,0-8.6.1-12.7.3-15.5-.5-31.5-.4-47,0-18.2-.6-36.6-.1-55-.2-5.9-.9-5.1,4.6-4.3,7.3-18.1,6.6-15.6,17-5.5,27.6-12.9,1.3-27-1.8-33.2-10.7-6.9-7.8-6.1-18.4,7-22.2,17.1-4.4,38.7-2.6,56.7-2.9h0Z"/>
  <path class="cls-11" d="M291,221.5c127.2.1,254.7-.4,381.8.2-123.7,1.7-257,.3-381.8.7v-.9Z"/>
  <path class="cls-2" d="M672.8,221.8c7.6-.4,15.2-.4,22.8,0,36.8,1.8,75.1,0,112,.8-17.4,1.1-43.5,2.9-62.2,1.2-55.6-1.6-106.4,1.3-161.4.7-100.8-.6-206,1.4-305.8-1.7,4.3-.2,8.4-.3,12.7-.3,124.8-.4,258.2,1,381.8-.7h.1Z"/>
  <path class="cls-2" d="M695.7,221.8c27.2-.6,54.6-.1,81.8-.3,20.5,0,45.3-.7,64.1,6.1-6.2,2.2-10.4-2.9-17.1-.3-1.2,3.4,10.8,9.8-1.4,10.5-21.3-4.4-45.6-1.4-67.6-2.3h-352.5c-12.7-1.2-25.6-1.3-38.3-.7-25.8-.7-51.8.1-77.8-.4,14.1-3.9-5.8.6.8-3.8-2.6.3-5.3.6-7.9.8,7.5-3.6,15.9-3.8,24.6-4,0-2.7-19.4,1.6-12.6-2.8-20,0-40.8-.8-60.7-1.8,15.5-.4,31.5-.5,47,0,99.8,3.2,205,1.2,305.8,1.7,55,.6,105.9-2.2,161.4-.7,18.7,1.7,44.8,0,62.2-1.2-37-.8-75.3.9-112-.8h0Z"/>
  <path class="cls-2" d="M176.3,222.5c18.2.1,36.6-.3,55,.2,19.9,1,40.6,1.7,60.7,1.8-6.8,4.4,12.6.1,12.6,2.8-8.6.2-17,.4-24.6,4,2.6-.2,5.3-.5,7.9-.8-6.6,4.4,13.3,0-.8,3.8,25.8.5,51.8-.3,77.8.4-24.7,1.9-50.5-.1-75.3,1-18.7-.8-37.2-2.7-55.8-3.8-19.9-.4-42.2-4.8-61.5-2.2-.8-2.7-1.7-8.2,4.3-7.3h-.1Z"/>
  <path class="cls-2" d="M841.7,227.6c17.3,4.3,31.9,15.5,42,26.2,13.8,15.2,11.6,32.4,11.2,49.7-5.5-3.4-8.7-8-14.9-11,0-24.2-26.3-46.7-56.8-54.8,12.2-.7,0-7,1.4-10.5,6.8-2.6,10.9,2.5,17.1.3h0Z"/>
  <path class="cls-4" d="M98.5,232.7c1.9,10.2,12,17.1,24.3,21.5,17.4,6.5,40.6,5.4,59.9,6.8,104.6,6.9,212.3,14.3,317.1,21.6,103.1,6.8,207.6,15.6,310.4,21.4,21.4,2.5,43.4,10.2,57.4,22.5-.6,12,.4,24.1-.6,36.1-2.6-3.3-3.9-7.1-6.2-10.5-8.3-14.2-25.7-24.1-45.8-28.7-20-4.5-42.8-3.3-63.9-4.9-101.2-6.3-204.2-13.7-305.2-21.3-92.9-5.4-188.8-14.8-281.1-18.3-30.1-1.8-56.5-6.1-77.1-23.3-7.3-6.4-17.7-18.2-10-26.3,5.3-2.6,21.6-4.1,20.6,3.4h.1Z"/>
  <path class="cls-2" d="M364.5,234.8c12.9-.6,25.6-.5,38.3.7h352.5c22.1.9,46.3-2.1,67.6,2.3,30.5,8.1,56.8,30.5,56.8,54.8-13.1-6.7-25.7-13-41.3-16.1-24.3-5.7-50.2-5.2-76.2-7.8-53.5-3-106.7-7.5-160.1-11.5-103.3-7.1-210.4-13.8-312.9-21.3,24.9-1.2,50.6.8,75.3-1h0Z"/>
  <path class="cls-4" d="M121,636.8c-4.4,12.3-33,12.2-44.6,3.9-8.4-12.5-2.1-30.3-4-44.2-.1-64.3.4-129.7-.3-193.9-4.1-.1-8,.5-12,1,0-44-.3-88.1.1-132.1h.3c12.2,14.3,31.1,26.1,53.4,31.2,22.5,5.1,47.4,5.3,70.8,7.5,28.6,2.1,56.7,4.7,85.4,6.2,19.5,1.8,39,2.4,58.5,4.1,13.5,1.5,27.4,1.9,40.9,3.3,26.4,2.2,52.8,2.9,79.2,5.6,14.5,1.7,29.3,2,43.8,3.4,27.5,2.2,55.8,3.9,83.5,5.6,15.9,2.4,33.2,2.6,49.2,4.1,25.8,2.4,52,4,78,5.9,12.3,1.2,24.9,2.2,37.3,3,6.8,15.4-13.4,27.5-33.6,26.1-150.9-10.6-313.6-22.5-464.3-34.1-12.2.5-7.2,11.1-9.7,20.8-1.2,15.3-5.7,37-7.5,52.3-4.4,15.2-26.6,16.6-46.8,23.6-14.2,5.8-34,9.9-47.7,1.1-17.1-10.5-5.5-27.2,13.7-30.4,10.2-.4,19.5-3.4,22.3-11.2,1.9-11.2,1.5-24.2.1-35.5-1.7-9.4-12-14.5-24.9-12.4-18.5,5-13.7,16.2-14.4,27.6"/>
  <path class="cls-2" d="M791.1,334.7c-12.3-9.9-29.2-12.8-46.9-13.4,4.1-2.8,14.4-.7,22.1,0-5-.6-9.8-1.3-14.8-1.9-1.5-.2-2.6-.6-3.6-1.2-100.1-6.2-202.1-13.5-302-21.1-92.9-5.4-188.8-14.8-281.1-18.3,27.8,3.2,56.3,4.2,84.2,7.1,12,1.8,28.9-.2,35.4,9.3,6.9,9.2-1,18.8-14.4,21.2,19.5,1.8,39,2.4,58.5,4.1-12.7-6.5-14.5-20.1.3-25.8,13.8-4.1,32.6.9,47.4,1.1,12.4,0,23.2,10.1,18.8,18.8-4.7,9.5-13.4,9-25.6,9.2,26.4,2.2,52.8,2.9,79.2,5.6-17.6-7.5-13-24,5.8-27.6,15.3-.5,31.7,2.3,47.1,3.2,10.2,2,19.5,10.8,14.9,18.6-3.5,7.9-13.8,9.4-24.1,9.2,27.5,2.2,55.8,3.9,83.5,5.6-13.1-6.6-13.4-18.2-.6-25.2,10.2-4.3,27.6-.3,39.3-.2,13,.1,25.6,4.1,27.5,14.4.7,8-7.2,12.8-17,15,25.8,2.4,52,4,78,6-7.2-3.1-12.3-7.7-12.6-14,1.5-7.3,9.8-13.7,20.7-13.1,19.6.3,40.6,1.3,59.6,4.9,13,4.5,28.1,13.7,34.1,23.3,4.1,8.5-4.7,17.5-16.7,18.4-10.1.4-16.7-6.9-23.4-11.4-4.7-3.8-13.4-4.5-20.6-5,1.2.4,2.1,1.1,2.8,1.9,1-.1,2.2-.1,2.8,0,14.1,1.8,20,14.1,34.8,16.9,10.1.2,18.4-4.1,23.2-10.2,3.7-10.1-5.4-20-16.6-25.7v.3h-.1Z"/>
  <path class="cls-1" d="M376.1,295.9c12.4,0,23.2,10.1,18.8,18.8-4.7,9.5-13.4,9-25.6,9.2-13.5-1.5-27.4-1.8-40.9-3.3-12.7-6.5-14.5-20.1.1-25.8,13.8-4.1,32.6.9,47.4,1.1h.1Z"/>
  <path class="cls-1" d="M454.5,301.8c15.3-.5,31.7,2.3,47.1,3.2,10.2,2,19.5,10.8,14.9,18.6-3.5,7.9-13.8,9.4-24.1,9.1-14.5-1.3-29.3-1.6-43.8-3.4-17.6-7.5-13-24,5.8-27.6h0Z"/>
  <path class="cls-1" d="M614.7,313.1c13,.1,25.6,4.1,27.5,14.4.7,8.1-7.2,12.8-17,15.1-16.2-1.5-33.3-1.7-49.2-4.1-13.1-6.6-13.4-18.2-.6-25.1,10.2-4.3,27.6-.3,39.3-.2h0Z"/>
  <path class="cls-4" d="M766.1,317.6c16.9-1,42.7,4.3,58.9,7,9,1.8,34.6,12.7,33.9,30,.7,20.9,0,41.9.3,62.8-1.8,7.5,6.2,15.8-10,14.3-6.2-.5-12.4,0-18.7-.5-1.8-10.2,2.5-22.4-2.8-32-5.7-8.3-19.2-10.2-29.3-4.9-13.8,6.6-2.2,26.2-8.7,34.8-36.6.4-41.8,5.1-68,10.3s-28.7,8.9-40.7,17.9-8.5,7.1-12.5,11.5c-12.5,14.2-19.9,32.1-22.1,50.8,0,.8-.2,1.7-.3,2.5-3.2,32.6,10.5,64.6,35.8,85.4s15.7,12.4,25.3,17.3c14.7,7.5,30.8,11.8,47.2,12.9,24,1.7-7.5.4,37,2.3,1.4,8.8-2.9,45.8-.3,54.4,5.3,12.7,23.9,15.6,35.8,5.4,6.2-9.5,2.1-22.3,3.3-32.7,9.3.3,19.2-.8,28.2.6,1.7,15.4.7,31.8.6,47.4-4,34.6-43,62.1-90.1,66.6-37,1.4-74.5-2.7-111.5-4.3-133.8-7.6-271.6-16.3-404.7-23.6-38.7-3.9-86.5-.9-121.8-13.8-38.4-15.1-57.9-44.3-62.5-74.8-1.8,2.5-2.8,3.8-6.8,4.7.4-19.2-.4-38.6.4-57.8,15.1,3.7,1.8,22.3,14.8,28.1,11.6,8.3,32.1,6.5,36.6-5.8l.8-1.4c3-34.7.4-78.1,1.2-114-.3-44,.4-88.2-.3-132.2,3-4,7-6,12.7-7.9.8,12.9-4.8,26.4,16.9,31.4-19.2,3.2-30.8,19.9-13.7,30.4,13.7,8.8,33.3,4.7,47.7-1.1,20.2-7,29.9-21.1,34.3-36.3,1.8-15.3-.1-30.9,1-46.3,2.5-9.7,16.6-13.6,28.8-14.1,148,11.4,307.7,23,456.4,33.5,0,0,42.7,2.8,42.6-21.4-.4-1.3-2.3-4.4-1.2-4.2,16.3-.3,34.1,11.8,44.1,19,10.1.2,18.4-4.1,23.2-10.2,3.7-10.1-5.4-20-16.6-25.7-12.3-9.9-29.2-12.8-46.9-13.4,5.3-3.5,14.4-3.1,21.8-3.6l-.3.6h0Z"/>
  <path class="cls-1" d="M711.2,321.5c19.6.3,40.6,1.3,59.6,4.9,13,4.5,28.1,13.7,34.1,23.3,4.1,8.5-4.7,17.5-16.7,18.4-10.1.4-16.7-6.9-23.4-11.4-5.5-4.4-16.6-4.7-24.3-5.2-12.4-.8-25-1.8-37.3-3-7.2-3.1-12.3-7.7-12.6-13.9,1.5-7.3,9.8-13.7,20.7-13.1h-.1Z"/>
  <path class="cls-2" d="M867.5,326.4c17.3,14,24.5,29.4,24.7,48.1-.3,19.6.4,39.3-.3,58.8-14.1-.2-28.9-.6-42.8-1.5,16.2,1.5,8.2-6.8,10-14.3,0-20.9.4-41.9-.3-62.8.7-.9,1.2-1.7,1.9-2.6,2.5,3.4,3.6,7.2,6.2,10.5,1-12,0-24.1.6-36.1h0Z"/>
  <path class="cls-1" d="M142.1,351.8c12.9-2.1,23.2,3,24.9,12.4-1,11.8-.6,23.7-.1,35.5-2.8,7.7-12,10.7-22.3,11.2-21.7-5-16-18.6-16.9-31.4.6-11.4-4.1-22.6,14.4-27.6h0Z"/>
  <path class="cls-9" d="M167.1,364.2c1.2,11.3,1.7,24.3-.1,35.5-.4-11.8-.7-23.7.1-35.5Z"/>
  <path class="cls-2" d="M72.3,402.6c.7,64.2,0,129.6.3,193.9,1.9,13.9-4.3,31.6,4,44.2-13-5.8.3-24.4-14.8-28.1-.8,19.2,0,38.6-.4,57.8l-1.1.4c-.3-89-.1-178.1,0-267.1,4.1-.5,7.9-1.1,12-1h0Z"/>
  <path class="cls-2" d="M963.2,442.3c1.4,4.3.8,9,1.2,13.5-.6,44.3-.8,88.9,0,133.2-.3,1.3-.4,2.7-.7,3.9-5,5.2-10.4,11.2-18.8,12.5-.7-47,0-94.4-.4-141.5.3-3-1.7-2-4.3-2.6,11.1-1.1,24.6-8.9,22.8-19h.1Z"/>
  <path class="cls-8" d="M767.6,461.8c10.2-.1,21-1,31.1.5-10.2.1-21,1-31.1-.5Z"/>
  <path class="cls-7" d="M828.4,462.8c18.4-.1,37.7-1.1,56,.5-18.4.1-37.7,1.1-56-.5Z"/>
  <path class="cls-13" d="M964.6,472.3c2.3,17.8.4,36.3,1,54.2-.6,21.3,1.1,43.1-.8,64.3-1-39.4-.7-79.1,0-118.5h-.1Z"/>
  <path class="cls-10" d="M701.2,476.8c79.2-1.1,155.4,1.3,235.7,1-11.7,1.6-24.3.3-36.2.8-40.9-.1-82.1,0-123,0-25.2-2.5-51.3.5-76.3-1.7h-.1Z"/>
  <path class="cls-1" d="M160.8,496.7c10.8,7.8,3.9,24.5,5.8,34.8,2.1,11.1-3,22-20.7,22.1-17.1-2-19.1-12.4-18-23.1,1.7-9.9-4-24.7,4.1-33,7.6-5.9,20.9-7.4,28.8-.9h0Z"/>
  <path class="cls-5" d="M726.1,616.8c68.8-.4,137.8-.5,206.6,0-13.7,1.5-28.1.3-41.9.7-54.3-.5-111,1-164.8-.7Z"/>
  <path class="cls-1" d="M145.9,626.4c10-1.4,19.1,5.6,20.6,12.1.3,11.6,0,23.3,0,35-.3,8.7-16.2,16.1-27.1,11.5-12-4.5-12.4-11.7-11.6-20.6v-22c-.8-8.1,5.9-16.1,18-16.1h.1Z"/>
  <path class="cls-2" d="M830.3,646.7c19.2-.5,38.6-.2,57.8-.2,5.8-.4,3.7,4.3,4.3,6.9-.3,31.3,0,62.8-.3,94-3.5,31.2-42.4,52.8-84.2,53.5-19.1.4-38.7-1.1-57.9-1.8-163.4-9.2-339.5-20-508-29.3-40.9-3.7-87.4-1.3-126.2-11.8-21.7-7-40.2-20.4-49.2-36.4-9.4-15.6-5.9-34.1-6.4-51.1l1.1-.4c4-.9,5-2.2,6.8-4.7,4.6,30.5,24.2,59.7,62.5,74.8,35.2,12.9,83.1,9.9,121.8,13.8,133,7.3,270.9,16,404.7,23.6,37,1.6,74.5,5.7,111.5,4.3,47.1-4.6,86.1-32,90.1-66.6,0-15.6,1.1-32-.6-47.4-9-1.3-18.9-.2-28.2-.6,0-6.9-.4-13.9.3-20.8v.2h0Z"/>
  <path class="cls-1" d="M206.1,704.9c13,1.9,29.2-.3,40.6,4.6,11.2,6.5,9.3,17.9-1.9,23.6-12.7,4.6-31.1-.5-45.1-.5-15.9,1-35.1-4.2-29.3-18.3,4.3-12.6,22-9.9,35.7-9.4h0Z"/>
  <path class="cls-1" d="M325.6,713.7c15.8,1.3,33.3,1.9,48.8,3.5,10.2,3.6,15.8,13,9.3,20.4-5.3,7.6-16.3,7.6-26.5,6.2-14.7-2-44.4,1.9-49.1-11.6-4-9,4-18.2,17.4-18.4h.1Z"/>
  <path class="cls-1" d="M487.3,724.3c13-.6,24.2,3.3,26,13.4-.6,9-10.1,16.5-23.2,14.7-15.1-2.1-34-.4-47.8-5.3-11.5-5.7-11.1-17.6.3-23,12.9-3.9,31,0,44.8.2h0Z"/>
  <path class="cls-1" d="M787.2,726.5c12.4,0,20.9,9.2,18.8,17.6-3.6,7.8-14.9,13.8-23.1,19.3-14.8,9-31.8,9.3-50,7.3-12.4-1.3-32.5.7-40.1-8.1-8-7-2.1-19.3,9.8-21.3,14.9-1.6,31.7,1.7,46.9,1.9,16.2-2.2,21.4-15.3,37.6-16.8h.1Z"/>
  <path class="cls-2" d="M888.1,732.5c4.6,36.4-41.7,65.5-89.8,64.8,25.8-7.4,47.7-16.7,65.2-32.7,9.1-10.2,16.7-22.8,21.7-34.4,1.9-1.9,2.9,1.2,3,2.2h-.1Z"/>
  <path class="cls-2" d="M941.6,461.1c1-.2,2-.4,3-.7,2.2.7,3.8-.3,3.5,2.6.3,46.9-.2,94.2.3,141,6.9-1.3,11.4-7.4,15.5-12.4-2,12.9-12.5,23.3-25.7,25.2-56.7-.7-113.5-.6-170.1,0-12.6-.4-24.6,0-37.1-2.8-79.3-26.3-69.2-91.2-51.9-117.4,6.5,15.2,9.9,68,22.2,79.2,19,16,26.1,33.5,52.2,31.8,47.5,0,93.7-.6,141.1,1.1,6.7-1.2,4.6,12.2,0,0-.7-45.9,6.5-100.8,6.3-146.8,9.9-.6,30.9,1.1,40.6-.8h.1Z"/>
  <path class="cls-3" d="M713.7,460.8c11.6-.1,23.8-1,35.2.5-11.5.1-23.9,1-35.2-.5Z"/>
  <path class="cls-4" d="M744.8,460.9c19.6,2.5,40-.9,59.7,1.9,32,.2,64.3,0,96.3,0,.2,46-.3,92.8.2,138.7,4.2,12.1-10.1,6.7-16.5,7.9-45.1-1.7-89.1-1-134.2-1.1-17.7,1.1-29-1.4-40.6-8.7s-18.7-15.3-25.6-25.7c-2-3-3.8-6.1-5.1-9.1-12.9-31.2-9.9-66.8,16.4-90.5,14-12.9,31.2-15.2,49.2-13.4h.1Z"/>
  <path class="cls-1" d="M762.6,493c10,.9,15.5,10,9.4,15.8-5.8,4.9-12.6,2.9-20.3,2.6-10.9,1-22.5,5.1-29.9,11.1-6.6,5.4-6.2,12.1-15.3,14.8-9.5,3.6-19.6-4.5-18.2-11.2,8.2-21.9,43.8-36.6,74.4-33.1h0Z"/>
  <path class="cls-1" d="M807.6,509.5c9.5-.3,16.4,10.4,19.4,15.8,7.2,14.9,5.4,33.1-6.8,46.5-19.9,24.5-70.4,30.8-101.3,13.7-7.6-4.3-21.1-13.3-11.7-20.5,8.7-5.3,13.5-.5,20.6,3.1,27.8,15.6,68,6.4,80.3-17,2.9-8.3,3.6-18.3-1.1-26.3-2.5-5.7-10.6-11.4.6-15.3h.1Z"/>
  <g id="_Слой_2" data-name=" Слой 2">
    <path class="cls-1" d="M588.2,732.3c10.8,0,21.1,1.6,31.8,2.2,10,.3,17.3,3.3,19.9,10.6,4,9-4.7,16.8-17.1,17.4-15.5-1.1-31.4-2-46.9-3.3-12.4-1.3-18.9-11.4-13.5-19.4,4.7-7.6,15.3-9.1,25.8-7.5Z"/>
  </g>
  <image width="102" height="79" transform="translate(196.3 323.9) rotate(4.7) scale(2.9)" xlink:href="кошелек неар-1.png"/>
  <image width="189" height="58" transform="translate(182.3 531.2) rotate(3.2) scale(2.5)" xlink:href="кошелек неар-2.png"/>
  <path class="cls-2" d="M647.6,512c1.5,37.5-5.3,64.3,43,102.4,35.5,24.6,73.1,26,100.9,25.7.6,15.9.1,38.6-.4,54.6-2.6-8.6,0-18.2-1.4-27-52-2.2-88.8-6.7-130.8-51.2-28.4-37.5-18-66.9-11.3-104.4Z"/>
</svg>