<?xml version="1.0" encoding="UTF-8"?>
<svg id="_Слой_1" data-name=" Слой 1" xmlns="http://www.w3.org/2000/svg" version="1.1" viewBox="0 0 107.7 111.6">
  <defs>
    <style>
      .cls-1 {
        fill: #bdea40;
      }

      .cls-1, .cls-2, .cls-3, .cls-4, .cls-5, .cls-6, .cls-7, .cls-8, .cls-9, .cls-10 {
        stroke-width: 0px;
      }

      .cls-2 {
        fill: #130e32;
      }

      .cls-3 {
        fill: #290e22;
      }

      .cls-4 {
        fill: #00ce61;
      }

      .cls-5 {
        fill: #008261;
      }

      .cls-6 {
        fill: #feffff;
      }

      .cls-7 {
        fill: #ffb4d5;
      }

      .cls-8 {
        fill: #fffefe;
      }

      .cls-9 {
        fill: #e05b51;
      }

      .cls-10 {
        fill: #fff;
      }
    </style>
  </defs>
  <path class="cls-2" d="M37.6,0c-2.3,1.7-4.6,3.3-6.9,5.1-.8.8-1.4,1.5-1.9,2.4-5.5,1.1-8.6,2.4-11.4,7.5-2.4,5.7-1.9,12.6,1.7,17.9,2.3,3.2,5.9,5.4,9.3,7-1.5,0-3.1.3-4.6.6l-1.1.3c-4.9.9-7.8,2.3-11.1,5.9-3.6,3.3-2.8,8.7-1.1,12.6,1.1,3.1,4.9,2.8,7.4,3.6-.9.6-1.7,1.4-2.6,2-1.9-.4-3.7-.6-5.6-1,1.3,2,2.7,4,4.1,5.9,4.3,4.3,9.2,7.8,15.7,7.4,5.6,0,10.2-2.6,14.6-6,2-1.5,4.5-3.6,5.4-5.9,0-1.5-.4-3.2-.6-4.7-.6,1.1-1.1,2.3-1.8,3.4-1.8-2.8-3.7-5.6-5.5-8.4.8-3.2,1.9-6.3,2.8-9.3.4-2.3.6-4.6.5-6.9-2.2-.8-4.6-1-6.6-1.9-2-1.4-3.3-3.7-4.9-5.6,1.4-3.2,1.5-7,5-8.7,5.5-2.9,10.2-6.6,14.9-10.7-.9-1.8-1.9-3.6-2.8-5.2-1.3-1.1-2.7-2.2-4.1-2.9-2.7-1.4-5.5-2.7-8.2-4.1,3.1.4,6.4.3,9.1,2,2.8,2,5.1,5.2,7.1,8,2.3-3.1,4.7-6.6,8.2-8.7,2.8-1.5,6.5-1.5,9.6-1.5-3.2,1.3-6.5,2.4-9.7,3.8-2.6,1.3-4.3,4.5-5.9,6.9,1.1-.5,2.2-1,3.3-1.4.5,1,1,1.9,1.5,2.8.3-1.7.6-3.4.9-5.1,0,3.1,0,6,.4,9.1l.3,2.2c.9,11-1,20.7,2.4,31.3.8,2.9,1.3,5.9,1.8,8.8-2.3,1.3-4.5,2-7,2.7-.9.8-1.8,1.5-2.7,2.3,1.7,2.2,3.3,4.5,5.2,6.4,2.9,2.8,6.1,5.2,10.1,6.6,6.6,2.3,14.4.8,19.8-3.8,2.7-2.4,4.5-5.7,6.3-8.8-1.1.9-2.4,1.8-3.6,2.7-1.5-1-3.1-2-4.6-3.1,2-.5,4-1.1,6-1.8l.6-1.5c2-4.1,3.1-7.7.5-11.9-2.3-3.1-5-5.6-8.8-6.6-1.5-.4-3.1-.9-4.5-1.3-1-.4-2.2-.4-3.3,0h-.9l-1-.3c5-2.2,10.2-4.3,12.1-10,.5-1.4,1-2.8,1.4-4.3.5-4.5-.3-8-2.3-12-2.6-4.3-5.9-5.2-10.5-6.3-.5-.6-1.1-1.3-1.7-1.9-1.7-1.8-3.2-3.7-4.9-5.5,5,.9,9.7,4.2,14,6.8,5.7,3.1,8.4,10.3,8.3,16.5-.3,6-3.6,10.5-7,15.2,3.4,1.9,7.4,3.8,10.1,6.6,2.6,2.8,3.3,6.8,4.2,10.2l-.4,2.3c0,1.7,0,3.2.3,4.9-2.6,3.8-4.9,8.7-8.4,11.6-6,5-14.2,7-21.6,4.7-6.4-1.8-11.1-5.9-15.7-10.5,0,4.6-.6,9.2-1.3,13.8-.3-3.4-.9-6.9-2-10.2-.9,1.7-1.7,3.3-2.4,5.1,0-1.8.3-3.4.5-5.2.3-1.4,0-4-1.9-2.7l-1.1,1.4c-6.8,8.3-18.5,11.7-28.5,7.3-6.6-2.8-10.1-8.2-13.9-14-.5-5.6-1.3-10.7,1.8-16,2.7-5,7.5-6.9,12.4-9.3-4.9-6.1-8.6-12.6-6.6-20.7,1.3-6,5.2-9.8,10.3-12.6,1.3.5,2.3.1,2.8-1.1C30.9,1.3,33.3,0,38.2.1h-.6Z"/>
  <path class="cls-9" d="M72,0h1.1c1.7,1.8,3.3,3.7,4.9,5.5-1-.5-2.2-1-3.2-1.4-4.2-1.8-8.2-1.4-12.5-.1,3.2-1.4,6.4-2.7,9.7-3.8h0V0Z"/>
  <path class="cls-1" d="M46.2,4.3c1.5.8,2.8,1.8,4.1,2.9-1.1.4-2.3.8-3.3,1.4,0,1.8.3,3.6.4,5.4-2.3-.6-4.6-1.4-6.9-2-.8,2-1.7,4.2-2.4,6.3-1.7-2.8-4.6-6.1-4-9.6,0-1.7.5-3.3.8-5,4-.5,7.7-.4,11.5.6h-.2Z"/>
  <path class="cls-1" d="M58.8,31.5c-.5-.9,0-4.6-.6-5.6-1,.5-4.9-11.5-5.9-11,1.5-2.3,7.4-9.7,10.1-11.1,4.3-1.3,8.3-1.5,12.5,0-1.1.3-2.3.6-3.3,1,2.4,2.6,7.4,5.2,6.6,9.4-1.3,3.8-4.7,6.9-6.9,10.3-.3-2-.4-4-.8-5.9-.6-2.3-1.9-4.1-3.6-5.9-1.5,1-3.1,1.9-4.5,2.9"/>
  <path class="cls-9" d="M26.8,4.1c-.5,1.3-1.5,1.7-2.8,1.1.6-1.1,1.5-1.5,2.8-1.1Z"/>
  <path class="cls-4" d="M30.7,5c1.3-.5,2.6-.9,3.8-1.3-.3,1.7-.5,3.3-.8,5-.6,3.4,2.3,6.8,4,9.6.8-2,1.7-4.2,2.4-6.3,2.3.6,4.6,1.3,6.9,2,0-1.8-.4-3.6-.4-5.4,1-.6,2.2-.9,3.3-1.4,1,1.7,1.9,3.4,2.8,5.2-4.7,4.1-1.4,19.9-6.9,23-16.2,10.5-14.2-5-15.6-1.7-3.2-1.5-4.3-4.5-6.1-7.8-1.4-2.8-1.9-6.3-2.7-9.3-2.9,3.6-4.7,7.7-2.7,12.3,2.9,5.7,10.1,8.3,15.4,11.2-1.4,0-2.7.3-4.1.4l-2-.6c-3.4-1.8-7-3.8-9.3-7-3.6-5.2-4.1-12-1.7-17.9,3.6-1.7,7.7-3.3,10.5-6l.9-1.5c.6-.9,1.1-1.8,1.9-2.4h.4Z"/>
  <path class="cls-4" d="M71.5,5.1c1.1-.4,2.3-.8,3.3-1,1,.4,2.2.9,3.2,1.4.5.6,1.1,1.3,1.7,1.9,2.7,3.4,6.3,5.1,10.5,6.3,2,4,2.8,7.7,2.3,12-.8,0-1.5,0-2.3-.3,0-2.4-.4-5-.6-7.4-1.7.6-3.2,1.3-4.9,1.9-.5-2.2-1.1-4.3-1.9-6.5-1.7,2.7-4,4.6-2.8,7.9-2.6,1.3-4.9,2.8-7.3,4.3,2.9-.6,6-1.4,8.9-2.2,1.1-.3,2.3-.6,3.4-.9.3,4.9-3.2,6.5-6.8,8.8-4.1,2.3-8.4,3.2-12.9,4,1.8-3.7,3.6-7.1,5.9-10.6,2.2-3.3,5.6-6.5,6.9-10.3.8-4.1-4.1-6.9-6.6-9.4h0Z"/>
  <path class="cls-4" d="M64.2,7.4h1l.5.9-.5.9h-1l-.5-.9.5-.9Z"/>
  <path class="cls-1" d="M90.2,13.6c-4.1-1.1-7.8-2.7-10.5-6.3,4.6,1,7.9,1.9,10.5,6.3Z"/>
  <path class="cls-1" d="M28.8,7.5l-.9,1.5c-2.9,2.7-6.9,4.3-10.5,6,2.8-5.1,5.9-6.3,11.4-7.5Z"/>
  <path class="cls-1" d="M29.2,12.1c1.7,1.4,3.3,2.9,5,4.5-4.3,1-7.1,2.6-10.6,5.4,1.1-3.8,2.6-7,5.5-9.7h0v-.2Z"/>
  <path class="cls-4" d="M67,13.1c1.5,1.8,2.8,3.6,3.6,5.9-2,2.4-3.6,4.6-4.2,7.7-.6-.4-1.3-.6-1.8-1-.6-2.4-7.9.5-8.4-1.9l6.5-7.5c1.5-1,2.9-2,4.5-2.9h0v-.3Z"/>
  <path class="cls-5" d="M21.9,16.7c.8,3.1,1.3,6.5,2.7,9.3,1.7,3.2,5.5,4.5,8.7,6,1.5,1.8,2.8,4.2,4.9,5.6,2,.9,12.3-30.4,16.6-23.7,0,2.3,0,34-.3,36.3-2.3-.9-14.7-5.5-17-6.3-.9-.4-1.8-.8-2.7-1-1.4-.8-2.7-1.5-4.1-2.3,1.4,0,2.8-.3,4.1-.4-5.4-2.8-12.5-5.5-15.4-11.2-2-4.6-.3-8.6,2.7-12.3h-.2Z"/>
  <path class="cls-5" d="M89.5,18c.3,2.4.5,5,.6,7.4.8,0,1.5,0,2.3.3-.4,1.4-.9,2.9-1.4,4.3v-2.2c-4.3,4.3-8.8,8-14.3,11.1l2.2.9,1,.3c-2.4.8-4.9,1.5-7.3,2.4-3.4,1.4-5.5,4-7.5,6.9-29.1,11.1-9.7-24.6-10.5-35.6.5,2.6,9.2,9.3,9.8,11.7.6.4,1.1.6,1.8,1,.6-3.1,2.2-5.2,4.2-7.7.3,1.9.5,4,.8,5.9-2.3,3.4-4.1,6.9-5.9,10.6,4.6-.8,8.9-1.5,12.9-4,3.6-2.3,7.1-4,6.8-8.8"/>
  <path class="cls-1" d="M82.8,13.4c.5.8,6.1,3.8,6.6,4.6-3.4,9.8-13.8,7.1-16.9,7.8,2.4-1.5,7.7-11,10.2-12.4h.1Z"/>
  <path class="cls-1" d="M34.2,22.8c-2.9,1.9-5.5,2.7-8.9,3.1,3.2-2.4,4.9-3.1,8.9-3.1Z"/>
  <path class="cls-4" d="M91.1,27.8v2.2c-2,5.5-7.1,7.8-12.1,10l-2.2-.9c5.4-3.1,9.8-6.9,14.3-11.1h0v-.2Z"/>
  <path class="cls-9" d="M98.5,32.8h1l.5.9-.5.9h-1l-.5-.9.5-.9Z"/>
  <path class="cls-9" d="M9.3,34.2h1l.5.9-.5.9h-1l-.5-.9.5-.9Z"/>
  <path class="cls-1" d="M22.7,40.7c-2,1.3-4,2.7-6.1,3.8-1.7.8-3.3,1.4-5,2,3.3-3.6,6.3-5.1,11.1-5.9h0Z"/>
  <path class="cls-4" d="M22.7,40.7l1.1-.3-.6.9c-2.2,2.7-3.2,5.7-3.7,9.2-.5,1.5-.5-2.2,1.3-2.4,1.7-1,1.8,2.3,1.1.9.8-.5,1.5-1,2.4-1.4.4.4.8.6,1.1,1-.3,1.1-.5,2.3-.8,3.4,2.7,0,5.2,0,7.9.3-.5,1.4-1.1,2.8-1.8,4.1,2.4-.8,4.9-1.5,7.4-2.2-.3-.8-.4-1.5-.5-2.3,2.2.5,3.1-1.8,1.1-2.9l-1.5-1.1c-.8-1.3-1.5-2.6-2.3-3.8h2.6c2.3.8,4.6,1.5,6.9,2.4-.9,3.1-2,6.1-2.8,9.3-1,5-2.8,9.2-7.4,12-2.7,1.8-6,1.8-7.8-1.1-1-2.4-1.1-5.4-1.5-7.9-2.7-1-7.7-1.8-8.7-4.9-.4-2.9.3-6.1.6-9.2,2.2-1.1,4.1-2.6,6.1-3.8h-.4l.2-.2Z"/>
  <path class="cls-1" d="M80,40.2h.9c.8,1.8,3.2,2.6,3.3,0,1.5.4,3.1.8,4.5,1.3-1,2.9-1.8,5.9-2.7,8.8-.4,1.1-.6,2.3-1,3.6-1.9.3-3.7.5-5.6.6l1.8-2.3c1.1,0,2.4,0,3.6.3-1.7-2-3.1-4.9-6-5.1-2.7-.4-5.6.3-8.3.6,1.1-.9,2.2-1.8,3.3-2.6-.4-.9-.9-1.8-1.3-2.6,2.4-.9,4.9-1.7,7.3-2.4l.3-.3h-.1Z"/>
  <path class="cls-7" d="M80.9,40.1"/>
  <path class="cls-1" d="M34.7,42.7c.9.4,1.8.8,2.7,1h-2.6c.8,1.3,1.5,2.6,2.3,3.8-4.5-1.3-7.7-.9-11.9.8-.4-.4-.8-.6-1.1-1-.8.5-1.5,1-2.4,1.4-.9.5-1.7,1-2.4,1.5.5-3.4.5-7.1,4.5-10,5.7-1.9,7.8,1,9.3,1.5"/>
  <path class="cls-8" d="M88.7,41.5c3.8,1,6.5,3.6,8.8,6.6-.9,0-1.9-.3-2.8-.3-1.5-1.7-3.2-3.1-4.9-4.5.9,2.3,1.9,4.6,2.8,6.9-1.4,1-2.8,2.2-4.2,3.3-.9-1.1-1.7-2.3-2.6-3.3.9-2.9,1.7-5.9,2.7-8.8h.2Z"/>
  <path class="cls-4" d="M32.5,42.5h1.1"/>
  <path class="cls-4" d="M72.7,42.6c.4.9.9,1.7,1.3,2.6-1.1.9-2.3,1.7-3.3,2.6-.5.8-1.1,1.7-1.7,2.4l-.9,1.3c3.2,2,6.6,3.7,10.1,5.4-1.8-2-3.6-4-5.4-5.9,2.8.4,5.6.8,8.6,1l-1.8,2.3c1.9-.3,3.8-.4,5.6-.6.4-1.1.6-2.3,1-3.6.9,1.1,1.7,2.3,2.6,3.3,1.4-1.1,2.8-2.2,4.2-3.3,0,1.4,0,3.2-.5,4.5-1.9,2-5.1,3.1-7.7,4.2-1,2.7-1.8,7.4-4.5,8.9-4,1.4-7.4,1-10-1.9s-5.2-6.3-5.9-9.7,1.3-5,.8-6.8c2-2.9,4.1-5.5,7.5-6.9v.3h0,.1Z"/>
  <path class="cls-5" d="M89.9,43.3c1.8,1.4,3.4,2.8,4.9,4.5.6,4.1,1.5,8,2.4,12.1l-.6,1.5c-1.9.6-4,1.3-6,1.8,1.5,1,3.1,2,4.6,3.1-5,3.6-10.9,7-17,8-5.2,0-10.9-2.8-15.6-4.7h0c-2.8-2.6-6.8-7.1-7.9-10.9s-1-8-.4-8.6c2.6-.6,7.8-6.6,10.1-7.8,1.3,3.6-.6,26.8,15.7,25.5,2.7-1.5,3.4-6.3,4.5-8.9,2.6-1.1,5.7-2.2,7.7-4.2.5-1.4.5-3.1.5-4.5-.9-2.3-2-4.6-2.8-6.9h0Z"/>
  <path class="cls-5" d="M44,71.2c-5.7,1.9-11.2,4.2-17.2,2.6-4-.8-6.1-3.3-9.2-5.9-1.3.6-2.6,1.3-3.8,1.8-1.5-1.9-2.8-3.8-4.1-5.9,1.9.4,3.8.6,5.6,1,.9-.6,1.7-1.4,2.6-2-2.6-.8-6.4-.6-7.4-3.6-1.8-4.1-2.6-9.3,1.1-12.6,1.7-.6,3.3-1.3,5-2-.4,2.9-1,6.1-.6,9.2,1,3.1,6,4,8.7,4.9.4,2.6.5,5.5,1.5,7.9,1.8,2.9,5.1,2.9,7.8,1.1,4.6-2.8,10.1-20.8,11.2-25.9,1.8,2.8,7.3,5.6,9.1,8.4h0v1.1c0,3.6-1,7.1-2.8,10.2s-3.3,6-4.7,7.1"/>
  <path class="cls-5" d="M37.1,47.7l1.5,1.1c-1,.8-1.3,1.8-1.1,2.9-1.7,0-3.3.3-5.1.4-2.7-.4-5.2-.4-7.9-.3.3-1.1.5-2.3.8-3.4,4.2-1.5,7.4-2,11.9-.8h-.1Z"/>
  <path class="cls-5" d="M78.9,47.2c2.8.4,4.2,3.2,6,5.1-1.1,0-2.4,0-3.6-.3-2.8-.3-5.6-.6-8.6-1-1.3-.3-2.6-.5-3.8-.8.5-.8,1-1.7,1.7-2.4,2.7-.4,5.6-1,8.3-.6Z"/>
  <path class="cls-4" d="M94.8,47.7c1,0,1.9,0,2.8.3,2.6,4.2,1.5,7.8-.5,11.9-.9-4.1-1.7-8-2.4-12.1h0Z"/>
  <path class="cls-1" d="M38.7,49c1.9,1.1,1,3.3-1.1,2.9-.3-1.1,0-2.2,1.1-2.9Z"/>
  <path class="cls-1" d="M68.9,50.3c1.3.3,2.6.5,3.8.8,1.9,1.9,3.6,3.8,5.4,5.9-3.4-1.7-6.8-3.3-10.1-5.4,0,0,.9-1.3.9-1.3Z"/>
  <path class="cls-1" d="M37.5,51.8c0,.8.4,1.5.5,2.3-2.4.6-5,1.4-7.4,2.2.6-1.4,1.1-2.7,1.8-4.1,1.7,0,3.3-.3,5.1-.4Z"/>
  <path class="cls-9" d="M102.9,55.4c1.8,1.5,1.7,2.3-.4,2.3l.4-2.3Z"/>
  <path class="cls-1" d="M79.6,58.8c1.7-.8,3.2,2.4,1.9,3.6-1.8.8-3.2-2.4-1.9-3.6Z"/>
  <path class="cls-1" d="M27.2,59.7h1l.5.9-.5.9h-1l-.5-.9s.5-.9.5-.9Z"/>
  <path class="cls-4" d="M98.8,63.6c-1.8,3.1-3.6,6.4-6.3,8.8-5.4,4.6-13.1,6.1-19.8,3.8-3.8-1.4-7-3.8-10.1-6.6,4.9,1.9,10.3,4.9,15.6,4.7,6.1-1,12-4.6,17-8,1.1-.9,2.4-1.8,3.6-2.7Z"/>
  <path class="cls-7" d="M102.6,62.7c.5.8.9,1.4,1.4,2.2-.8,3.6-1.5,7-1.8,10.6-5.2,7.4-12.8,9.8-21.2,11.4,0,1.9-.3,3.7-.4,5.6,0,2.3-.4,4.6-.9,6.8-3.3,3.6-7.3,7.3-12.1,8.4-3.4.9-7.5-.6-11-1.3-5.4-1.4-10.9,2.4-16.6,1.4-5.1-.9-8.8-4.9-12.1-8.6-.5-2.2-.8-4.5-.9-6.8,0-1.9-.3-3.7-.4-5.6-8.3-1.7-16-4.7-21.1-11.7.5-.5,1-.9,1.5-1.4-2.3-4.1-2.2-5.2-.9-9.7,3.8,5.7,7.3,11.2,13.9,14,10,4.5,21.7,1.1,28.5-7.3.9.8,1.9,1.3,3.1,1.3,0,1.8-.3,3.4-.5,5.2-.9,5.4-1.8,12.1-5.2,16.3-2.3,2.9-5.2.9-7.9-.3,2-1.3,4-2.6,6-3.7-.6-2.2-.5-5-2.8-6.1-2.9-2-6.4,0-7.9,2.7-2.2,3.3-.3,7.3,1.4,10.3,1.9,3.3,5.2,5.2,9.1,5.2,3.7.3,7-2.8,9.8-4.7,3.3,2.6,5.9,5.2,10.5,4.7,7,.3,12.1-7.3,11.2-13.8-1.5-6.1-11.4-8.2-13.4-1.4-1.4,4.3,3.3,5.1,6.1,6.6-1.4,1.3-3.1,3.2-5.1,3.2-2.3-.3-4.5-1.4-6.6-2.3-.5-3.6-.9-7.1-.6-10.9v-1c.9-4.6,1.3-9.2,1.4-13.8,4.6,4.6,9.3,8.7,15.7,10.5,7.5,2.4,15.7.4,21.6-4.7,3.4-3.1,5.9-7.8,8.4-11.6h0v.3Z"/>
  <path class="cls-9" d="M0,67c1.9,2.7,3.7,5.4,5.6,8,5.1,7.1,12.8,10.1,21.1,11.7,0,1.9.3,3.8.4,5.6-4.5-2.4-9.2-4.3-13.5-6.8C6.6,81.5,1.9,74.6,0,66.9h0Z"/>
  <path class="cls-4" d="M17.6,68c2.9,2.4,5.1,5.1,9.1,5.9,6.1,1.5,11.6-.6,17.2-2.6-4.3,3.4-8.8,6-14.6,6-6.5.4-11.4-3.1-15.7-7.4,1.3-.6,2.6-1.3,3.8-1.8h.2Z"/>
  <path class="cls-9" d="M51.4,71.9c-1.1,0-2.2-.5-3.1-1.3l1.1-1.4c1.9-1.3,2.2,1.3,1.9,2.7h0Z"/>
  <path class="cls-9" d="M107.6,69.4c-1.7,5.1-4.1,9.1-8,12.6-5.5,5.5-12.1,7-19,10.3,0-1.9.3-3.7.4-5.6,8.6-1.5,16.1-4.1,21.2-11.4,1.8-2,3.6-4.1,5.4-6h0-.1Z"/>
  <path class="cls-5" d="M53.5,72.1c1.1,3.3,1.8,6.8,2,10.2v1c-1.5,4.3-2.6,9.6-5.4,13.3-4.6,4.6-12.4,2.2-14.8-3.6-1.4-2.7-.3-4.6.6-7.1,1.4.4,3.1.5,4.7.3l.6,1.4c.3.6.4,1.4.6,2-1.4-.5-2.8-1.1-4.3-1.7,0,1.8,0,3.6.3,5.4,2.7,1.1,5.5,3.2,7.9.3,3.4-4.3,4.2-11.1,5.2-16.3.8-1.7,1.7-3.4,2.4-5.1h.2Z"/>
  <path class="cls-2" d="M60.4,79.1c1.7-1,3.1,1.3,1.7,2.6-1.8,1-2.9-1.3-1.7-2.6Z"/>
  <path class="cls-2" d="M45,79.9c2.3.5.9,3.6-1,2.2-.6-1.1-.3-1.9,1-2.2Z"/>
  <path class="cls-2" d="M41.2,83.3c2.3,1.1,2.2,4,2.8,6.1-2,1.3-4.1,2.4-6,3.7,0-1.8-.3-3.6-.3-5.4,1.4.5,2.8,1.1,4.3,1.7,0-.8-.4-1.4-.6-2l-.6-1.4c-.6-2-4.1-2.6-4.7-.3-.9,2.6-2,4.6-.6,7.1,2.4,5.7,10.2,8.2,14.8,3.6,2.8-3.7,3.8-8.9,5.2-13.3-.3,3.6,0,7.3.6,10.9,2.4,6.1,11,6.1,14.6,1.1,2.4-3.4,3.1-6.8,0-10.2-1.1-1.9-4.5-1.8-5.2.4-.6,1.1-1.1,2.4-1.7,3.6,1.9,0,3.8.3,5.7.4-.5,1.3-1.1,2.4-1.7,3.7-2.8-1.5-7.5-2.3-6.1-6.6,2-6.8,11.9-4.7,13.4,1.4,1,6.5-4.2,13.9-11.2,13.8-4.6.4-7.1-2.2-10.5-4.7-2.9,1.9-6.1,5-9.8,4.7-3.8,0-7.1-1.8-9.1-5.2-1.7-3.1-3.4-7-1.4-10.3,1.5-2.7,5-4.7,7.9-2.7h.2Z"/>
  <path class="cls-1" d="M70.7,85.1c-1.8,1.3-3.3.9-5.2.4.8-2.2,4.2-2.3,5.2-.4Z"/>
  <path class="cls-7" d="M40.7,86c-1.7.3-3.2.3-4.7-.3.5-2.3,4.1-1.8,4.7.3Z"/>
  <path class="cls-4" d="M65.3,85.5c1.9.5,3.6.9,5.2-.4,2.9,3.4,2.3,6.6,0,10.2-3.4,5-12,4.9-14.6-1.1,2.2.9,4.3,2,6.6,2.3,2,0,3.7-1.9,5.1-3.2.6-1.3,1.1-2.4,1.7-3.7-1.9,0-3.8-.3-5.7-.4.5-1.1,1-2.4,1.7-3.6h0Z"/>
  <path class="cls-9" d="M27.9,99.2c3.3,3.6,7,7.7,12.1,8.6,5.6,1.1,11.2-2.8,16.6-1.4,3.4.6,7.5,2.2,11,1.3,4.9-1.1,8.9-4.9,12.1-8.4-1.5,5-4.1,9.3-9.3,11.2-4.3,2-8.2.9-12.5-.3-6.5-2.3-12.3,3.1-18.6.9-6-1.9-9.7-5.7-11.4-11.7h0v-.2Z"/>
  <path id="p75" class="cls-3" d="M66.3,30.9c0,9,.3,18.2,0,27.2-.4,9-1.2,6-2.9,8.4s0,0,0,0c-1.3,1.9-3.5,2.9-5.7,2.9h-6.1c-3.9,0-7.4-2.8-8.4-6.5-1.5-5.7,1.2-11.9-2.9-16.3s-.3-.3-.6-.4c-5.7-2.9-9-4.9-7.7-10s1.2-2.5,2.2-3.2c4.8-3.5,9.6-6.8,14.4-10.2,7.1-5.2,18.9,1.3,18,8.3h0v-.2ZM54.6,23.9c-6,1.9-13.1,9.6-17.9,13.2s0,0,0,0h0c-.9.7-.7,2.2.3,2.8,2.2,1.2,4.4,2.5,6.4,3.8s.6.7.7,1.2c1,4.7,1.5,9.5,3.1,14l.4,1.6c0,4.7,9.6,9.2,12.4,3.5,2-7.3,1.2-15.4,1.9-22.8.4-4.9,0-9.9-2.5-14.4s-4.4-2.8-4.9-2.8"/>
  <path id="p76" class="cls-6" d="M54.6,23.9l.5,1-.4.9-.4-1.8,1.6-.5c.7-.1,1.1-.5,3.1,1.8,4.1,4.9-13.4,11.3-22.6,12.2,3.9-3.9,11.9-11.7,18.3-13.7h0Z"/>
  <path id="p78" class="cls-10" d="M59.5,26.3c2.8,4.8,3,10.4,2.6,15.5-.6,7.4.3,15.6-1.9,22.8-2.8,5.7-12.5,1.3-12.4-3.5-.4-1.6,0,.6-.4-1.6-1.5-4.1-1.9-8.1-2.8-12.4s-1.3-2.9-2.6-3.8-3.2-1.9-4.8-2.8-1.9-2.2-.9-3.1l1.2-.7c10-1,13.1-7.1,21.8-10.9"/>
</svg>