<?xml version="1.0" encoding="UTF-8"?>
<svg id="_Слой_1" data-name=" Слой 1" xmlns="http://www.w3.org/2000/svg" version="1.1" viewBox="0 0 120 120">
  <defs>
    <style>
      .cls-1 {
        fill: #dd3893;
      }

      .cls-1, .cls-2, .cls-3, .cls-4, .cls-5, .cls-6, .cls-7, .cls-8, .cls-9 {
        stroke-width: 0px;
      }

      .cls-2 {
        fill: #090023;
      }

      .cls-3 {
        fill: #ff8500;
      }

      .cls-4 {
        fill: #00dee1;
      }

      .cls-5 {
        fill: #f2f6ef;
      }

      .cls-6 {
        fill: #5d0ea5;
      }

      .cls-7 {
        fill: #f3f4ea;
      }

      .cls-8 {
        fill: #008f5a;
      }

      .cls-9 {
        fill: #d2e42e;
      }
    </style>
  </defs>
  <path class="cls-2" d="M26.7,11.3h61.5c2.5,0,4.6-.4,7,.8-2.5.5-4.8.4-7.2.4h-53.6c-3.8,0-7.4.4-11.2-.7,1.2-.3,2.3-.5,3.5-.5h0Z"/>
  <path class="cls-2" d="M26.7,11.3c3.8,0,8.2.3,11.4.3h47.8c2.2,0,4.4.1,6.5-.3,1.2.1,2.5.3,3.8.4l.8.3c5.2,2.2,9.4,6.5,11.2,11.9,1,2.9.7,6.1.7,9.1v61.9c.1,3.5-1.9,7.1-3.8,9.9-2.7,3.4-7.2,7.1-12,6.7H31.3c-4.4,0-8,.7-12-1.8-6-3-9.4-9.3-9.7-15.8V30c-.4-6.5,3.8-13.9,9.8-16.8,2.7-1.5,4.1-1.6,7.2-2h0Z"/>
  <path class="cls-3" d="M96.4,11.7l.8.3-.8-.3Z"/>
  <path class="cls-2" d="M59.6,14.3c1.6,1,3.3.7,5,.5.4.5,1,1,1.4,1.4h-11.3c1.5-1,3-1.6,4.8-1.9h.1Z"/>
  <path class="cls-2" d="M52.1,16.1h-.8c-1.1-2.2,1.8-2,.8,0Z"/>
  <path class="cls-2" d="M53.8,16.2h-.8c-.8-2.2,2-2,.8,0Z"/>
  <path class="cls-2" d="M67.7,16.2h-.8c-1.2-1.9,1.6-2.2.8,0Z"/>
  <path class="cls-2" d="M69.6,16.1h-.8c-1.1-2,1.9-2.2.8,0Z"/>
  <path class="cls-6" d="M37.3,16.1c2,0,4,0,6,.3.1,1,.3,1.9.5,2.9-.8,1.2-3.1,2.6-2,4.2-1.9,4.4-2.3,6.8-1.5,11.4-1.2-.3-2.5-.7-3.7-1-1.6-.5-3.4-.8-5-1,.7-1.5,2.2-1,3.7-1.8-.8-2.5-2.6-3.7-4.4-5.3-1.6-1.8-.5-4.9-1.5-7.2-.4.4-.8.8-1.2,1.2-.5-.4-1-.7-1.5-1.1-.4,1.2-1.5,3-.8,4.2,1.5,1.5,4.9,1.5,3.8,4.2-2,4.1-11,16.8-5.5,0-.7-1.2-1.5-3.7-1.4-6.5-.3,1.9,0,5.3-.7,7.2-.8,0-3.4-1.5-4.4-1.4.8-1.9,1.4-2.7-.1-4.5,1.9-2.3,4.4-4.2,7.4-5,3.8-1.1,8.5-.5,12.4-.7v-.3Z"/>
  <path class="cls-6" d="M51.1,16.1h18.1c2.6,0,5.2.4,7.8,0-.7.8-1.2,1.5-1.9,2.3,1.4,1.8,3.4,2,3.1,4.6-.8-.3-1.5-.8-2.2-1.5-2.3-2.5-5-3.3-8.5-3.4-2.7-1-6.1,2.9-8.7,2.7-1.9-1-3.7-2-5.7-2.6-4.8-.8-9,1.2-11.7,5.2-1.2-1.6,1.2-3,2-4.2-.3-1-.4-1.9-.5-2.9,2.7,0,5.2-.3,7.9-.1h.3Z"/>
  <path class="cls-6" d="M92.3,16.3c3.8.3,6.3,2.5,9,4.8-.5.5-1.1,1-1.6,1.4.3,1.2,2.6,5.6,2.9,6.8l-4.5,4.4c-.8-1.8-2,3.8-3,2.2-2.6,1.4-2.2-6-6.4-6.3.4-2.6,4.6-7.8,5.6-10.1-1.5-.8-3-.7-4.5-.7s-1.5.3-2.2,1.4c.5.7,1,1.5,1.4,2.3,0,3.7-1.2,7.8-.4,11.3-3-.4-5.9,0-8.7.8v-6.5c0-2.7-2.2-4-3.1-6.7.7.8,1.4,1.4,2.2,1.5.3-2.6-1.8-2.9-3.1-4.6.7-.7,1.2-1.5,1.9-2.3,4.9-.3,10.1-.3,14.9.1v.3Z"/>
  <path class="cls-2" d="M53.6,18.1c-.5.5-1.1,1.1-1.6,1.6-1.4,0-1.5-.3-2,1.1h-.8c1-2.2-1.8-1.9-.8.3-1,.8-1.9,1.5-3,2.3-2,.5-2.2,1.6-2,3.5,0,2,0,4,.1,6,1.5,4.9,6,8.7,8.9,12.9-.7.7-1.2,1.4-1.8,2-.7-2.5-2.5-3.7-4.2-5.3-2.9-2.7-5.9-4.9-9.8-5.9-1.1-1.2-2.2-1.4-3.1,0-1.9.7-3.7,1.4-5,2.9-3.1,2.9-3.5,8-1.2,11.6,1.2,2.3,3.4,3.1,5.6,4.4l-1.2.8c-4.5,1.4-6.4,5.7-4.9,9.9,1,3.8,4.2,4.2,7.5,5.5.4,2.7.5,5,3,6.8,3.7,2,9,1,11.4-2.5,1.9-2.3,3.1-5,4.9-7.5.8-1.1,1.6-1.9,1.4-3.5-.1-1.6-2.7-1.5-3.7-2.6-.4-1-.7-2-1-3.1,3.1,2.3,5.5,4.9,9.7,4.6,4.2.1,7-2.2,10.1-4.6,0,3.7-4.1,4.1-4.5,7.6.7,1.1,1.6,1.8,1.9,3,.5,2.5,2.6,4.5,4.2,6.3,2.9,3.4,8,4.5,11.7,1.6,1.9-1.5,2-4.1,2.6-6.3,2.7-1,6.1-1.5,7.2-4.6,2.2-4-.5-9.5-4.6-10.9l-1.4-.7c2.5-1.5,4.8-2.3,6-5,2-3.7,1.1-7.5-1.4-10.6-2.7-3.1-6.4-3.4-10.4-3-2,0-2.7.4-3.7,2-1.1.8-2.2,1.8-3.1,2.7-2,1.8-4,3.7-6,5.5l-1.2-1.4c2.5-4.1,6.4-6.8,8.3-11.4,1.1-3,1-5.3-.3-8.3.3-1.8,0-2.3-1.6-3l-1.2-1c0-2-3.4-1.8-4.8-2.5v-1.6c3.4,0,6.1,1,8.5,3.4,1,2.7,3.3,4,3.1,6.7v6.5c2.9-.8,5.7-1.4,8.7-.8,4.1,2,7.5,4.6,8.9,9.1.3,2.2.3,4.5,0,6.7-.7,2-1.9,4.1-2.9,6,.8,1.8,1.9,3.3,2.9,5,.4,3,.4,5.9-1.1,8.5-1.6,3.3-5.2,4-6.8,6.8s-4.2,6.5-7.8,6.8c-3.3.5-6.3.5-9.1-1.1-2.6-1-3.8-3.1-5.9-4.6.4,3.5.4,6.8,2.5,9.9h-4c-.8-1.9-1.8-3.8-1.8-5.9-.3-1.8.3-3.5-1-4.8v-.8c.3-2.9-.8-6-1.2-8.9-2.3,1.4-3,3-2.9,5.6v1c-1.6,1.6-1.1,3.1-.7,5v1c.1,0,0,.7,0,.7l-.3.7c-1,2-1.5,4.2-2,6.4h-3.8c1.1-3.1,2-6.3,1.9-9.7-1.9,1.5-3.7,3.7-6,4.8-4,1.1-8.2,1.5-11.9-.7-3-1.2-3.7-4.9-5.6-7.4-1.1-1-2.6-1.4-4-2l-.5-.4c-1.4-2.7-3.1-4.8-2.7-8.2-.3-3.3,1.4-5.3,3-7.8-1.6-3-4.1-6.8-3.3-10.2.7-3.7,2.2-8.2,5.9-9.8,2.6-1.8,5.5-1.8,8.5-1.9,1.2.4,2.5.7,3.7,1-.8-4.6-.4-7.1,1.5-11.4,2.7-4,7-6,11.7-5.2l.4.3Z"/>
  <path class="cls-2" d="M67.9,18v1.6c1.4.7,4.9.4,4.8,2.5-2.6-.5-6.1-1.9-8.6-.7-1.8,1.2-3,3-4.8,4.2-2.5-4.2-4.6-5-9.5-4.9.5-1.4.8-1.1,2-1.1.5-.5,1.1-1.1,1.6-1.6,2,.5,3.8,1.6,5.7,2.6,2.6.1,6-3.5,8.7-2.7h0Z"/>
  <path class="cls-6" d="M26.6,18.7c.5.4,1,.7,1.5,1.1.4-.4.8-.8,1.2-1.2,1,2.3-.1,5.3,1.5,7.2,1.8,1.6,3.5,2.9,4.4,5.3-1.5.7-3,.1-3.7,1.8,1.8.3,3.4.4,5,1-3,0-5.9.1-8.5,1.9-3.7,1.6-5.2,6.1-5.9,9.8-.8,3.5,1.6,7.4,3.3,10.2-1.6,2.6-3.3,4.6-3,7.8-.3,3.3,2.3,11.4,10.1,9.5-3.7,4.9-10.1-1.4-10.2-3.7-.3,1.8-1.8,2-3.4,2.7,2,0,2.9,2,3.3,3.8.7-2.2,1.6-2.9,3.5-4,1.2.7,5.2,3.3,6.8,1.1,0,2.2,0,3.4.5,4.8,1.1,2.9,3.8,4.8,6.8,5,3,.3,4.8-.3,7-.8,2.3-1.1,4.1-3.1,6-4.8.3,3.4-.8,6.5-1.9,9.7-7.5,0-15,0-22.5-.3,1.5-.8,3.4-1.5,4.5-2.7.3-1.5-1.6-2-2.7-2-3.8,0-7.8-.4-11.6.4-2.5,1.5-1.1,4,0,6-.7.5-1.4,1.1-2,1.6-1.9-3-1.9-7.2-2-10.6v-28.5c.5-4.9-.3-9.8,0-14.7.1-5.2-1.1-10.1,2.9-14.3,1.6,1.9,5.6,3.3,4.8,5.3-.3.5-2.7-.1-5.5,1,1.9.3,5.2-1.8,6.3-1.2,1.1,1.6-.3,5.9-.7,8,1.6-.8,1.2-4.6,3.3-5.3,1.2-.7,2.9-1.2,3.7-2.3,0-2.3-2.3-2.7-3.8-4.2-.7-1.4.4-3,.8-4.2h.3Z"/>
  <path class="cls-6" d="M89.5,18.7c1.6,0,3.1-.3,4.5.7-1,2.3-2.7,4.1-3,6.7-.5.4-1.1.8-1.6,1.2.7,1.4,3.3,1.6,4.5,2.2.5,1.4.7,4.8,2.2,5.3,1-1.5,1.4-3.3,1.9-5,1.2-.7,2.6-1.4,3.8-2l-.7-1.1-1.1-.7c-.1-1.2-.3-2.5-.5-3.5.5-.4,1.1-.8,1.6-1.4,4.4,5,2.5,9.9,2.5,15.9.3,5.6-.3,11,.3,16.6-.5,5.3.1,10.5,0,15.7-.1,7.1.5,13.6-1.2,20.4-.8-.4-1.5-1.1-2.2-1.9,1.4-2.5,1.5-3.3.1-5.6-4.1-.8-8.5-.5-12.5-.4-1.1,0-3,.5-2.7,2,1.1,1.2,3.1,1.9,4.5,2.7-7.1.4-14.3.3-21.4.3-2-3.1-2-6.4-2.5-9.9,2,1.5,3.4,3.7,5.9,4.6,3,1.6,6,1.6,9.1,1.1,3.5-.3,6.1-4,7.8-6.8,1.6-3,5.3-3.7,6.8-6.8,1.5-2.6,1.5-5.5,1.1-8.5-.8-1.8-2-3.3-2.9-5,1-2,2-4,2.9-6,.3-2.2.3-4.5,0-6.7-1.4-4.5-4.8-7.1-8.9-9.1-.7-3.7.5-7.6.4-11.3-.4-.8-.8-1.6-1.4-2.3.7-1.1.8-1.5,2.2-1.4h.5Z"/>
  <path class="cls-2" d="M49.1,21h-.8c-1-2,1.8-2.3.8,0Z"/>
  <path class="cls-9" d="M22.6,20.4c.1,1.8.5,3.4,2,5.3.8.5,2.9,1.1,4.9,1.4-1.2.8-2.7,1.1-4.4,2.2-1.6,1.4-1.6,3.4-2.6,5.6.5-2.5-2.7-7.4-5.7-6.8,1-.1,3-1.2,4.1-2.2.7-1.9,1.2-3.4,1.6-5.3h0Z"/>
  <path class="cls-9" d="M35.2,20.6c.3,1.5,1.4,2.7,3.1,3.7-1.8.7-2.9,1.9-3.4,3.7-.1-2-1.2-3.5-3.1-4.2,1.6-.4,2.9-1.4,3.4-3.1Z"/>
  <path class="cls-9" d="M83.8,20c.5,1,1.4,1.5,2.6,1.9-1.2.5-2,1.4-2.9,2-.3-1.1-1-1.5-1.9-2.3.8,0,1.8-1,2.2-1.6Z"/>
  <path class="cls-9" d="M96.1,20.4c-.3,2.6,4.2,7,5,6.4-2.7.7-4.5,3.3-7.2,2.7-1.4-.5-2.7-1.5-4.5-2.2,1.5.1,5.5-4.8,6.7-7Z"/>
  <path class="cls-9" d="M48.2,21.1h.8c0-.1.8-.3.8-.3,4.9-.1,7.1.5,9.5,4.9,1.6-1.4,3-3,4.8-4.2,2.5-1.2,6.1,0,8.6.7l1.2,1c-.3,1.4-.4,2.6,1,3.4-.4.4-.8.8-1.1,1.4-.5,0-1.2,0-1.8-.3-.7,2-1.4,4-3.5,4.9-1.6.8-3.3-.5-4.6-1.2-.8.3-1.6.4-2.5.7,0-1.1,0-1.8-.5-2.7-1.1.7-2,1.4-3,2.3-2.6-.7-4.5,1.6-6.8.8-2.9-.4-2.6-3.8-3-6-.5.4-1,1.2-1,2.5-.5-.1-1-.3-1.5-.4,0-.7.3-1.4.4-2.2l-1.2.3c.4-1,.7-2,.7-3,1-.7,2-1.5,3-2.3h-.3Z"/>
  <path class="cls-9" d="M45.2,23.4c0,1-.3,2-.7,3l-1.4.5c0-1.9,0-3,2-3.5Z"/>
  <path class="cls-9" d="M74,23c1.8.7,1.9,1.2,1.6,3l-.7.4c-1.4-.8-1.2-2-1-3.4Z"/>
  <path class="cls-4" d="M44.6,26.4l1.2-.3c-.1.7-.3,1.4-.4,2.2v2.5c.1.8.4,1.6.5,2.3-.8,0-1.6-.1-2.6-.3-.1-2-.1-4-.1-6l1.4-.5h0Z"/>
  <path class="cls-8" d="M47.8,26.3c.5,2.2.3,5.5,3,6,2.3,1,4.2-1.4,6.8-.8,1-.8,1.9-1.6,3-2.3.5,1,.7,1.6.5,2.7.8-.3,1.6-.4,2.5-.7,1.4.5,3.1,1.9,4.6,1.2,2-1.1,2.9-2.9,3.5-4.9.5,0,1.2.1,1.8.3.5.8.7,1.6.4,2.5l-1.2-1c-.3,1.1-.4,2.3-.5,3.4-1.2.7-2.5,1.5-3.8,1.8-1.8,0-3.7-1.6-5.5-1.2-.7.5-2,1.5-1.9,2.5,1.2,1.5,3.1-.5,4.2,1.2,0,1-.3,1.9-.4,2.7,1.2-1.1,2.2-2.3,3.3-3.4.4.4.8,1,1.2,1.4,1.5-1.5,2.9-3,4.1-4.8.7.5,1.5,1,2.2,1.4-1.9,4.6-6,7.4-8.3,11.4-1.6-2-3.8-2.3-5.7-3.8-1.2,0-2.3,0-3.5.3-2.6.3-4.1,2-6,3.7-2.9-4.2-7.5-8-8.9-12.9.8,0,1.6,0,2.6.3.5.3,1.2.7,1.8,1v1.6c.8-.1,1.6-.3,2.5-.5.5.8.5,1.6.5,2.5,2.3.1,3.3-1,5.2-1.9.7.7,1.4,1.2,2,1.8,1.8-1.2-.3-3.3-1.1-4.5-2.6.4-4.9,1.4-7.4.5-1.1-.8-1.8-2.2-2.6-3.1-.5,0-1,0-1.5.3v-2.5c.5.1,1,.3,1.5.4,0-1.2.4-2,1-2.5h.1Z"/>
  <path class="cls-4" d="M74.8,26.4l.7-.4c1.2,3,1.2,5.2.3,8.3-.7-.4-1.5-1-2.2-1.4.1-.8.4-1.8.5-2.6.3-.8,0-1.6-.4-2.5.4-.4.8-1,1.1-1.4h0Z"/>
  <path class="cls-9" d="M85.3,26.4c.5,1.1,1.2,2,2.2,2.7-.7.4-2.2,1.2-2.2,2-.7-.5-.7-1.8-2.6-2.2,1.2-.7,1.9-1.6,2.6-2.6Z"/>
  <path class="cls-3" d="M101.3,26.8v1.2c-1.8.1-4.9,4.6-5,6.8-.5-1.5-5.2-7.1-6.7-7.6,3,0,5.6,1.6,6.4,1.6s3.8-1.8,5.5-2.2h-.1Z"/>
  <path class="cls-9" d="M72.9,29.3l1.2,1c-.1.8-.3,1.8-.5,2.6-1.1,1.8-2.6,3.3-4.1,4.8-.4-.4-.8-.8-1.2-1.4-1.1,1.2-2,2.5-3.3,3.4.1-1,.3-1.9.4-2.7-1.1-1.8-3,.4-4.2-1.2-.1-1,1.2-1.9,1.9-2.5,1.6-.4,3.7,1.2,5.5,1.2,1.4-.4,2.6-1.1,3.8-1.8.1-1.1.3-2.3.5-3.4Z"/>
  <path class="cls-9" d="M46.7,30.5c.8,1.1,1.5,2.3,2.6,3.1,2.5.8,4.8,0,7.4-.5.8,1.2,2.9,3.3,1.1,4.5-.7-.5-1.4-1.2-2-1.8-1.9.8-2.9,2-5.2,1.9,0-.8,0-1.6-.5-2.5-.8.1-1.6.4-2.5.5v-1.6c-.5-.4-1.1-.7-1.8-1-.3-.8-.4-1.6-.5-2.3.5,0,1-.1,1.5-.3h0Z"/>
  <path class="cls-6" d="M36.4,36.6c-1.1.4-2,.5-3.1,0,1-1.5,2-1.2,3.1,0Z"/>
  <path class="cls-9" d="M33.3,36.8c1.1.4,2,.4,3.1,0,4,1,6.8,3.3,9.8,5.9-.5.5-1.2,1.1-1.8,1.6,0,.8.3,1.6.3,2.5-2.3-.8-3.1.5-5.2,1.1.5-3,0-4.6-2.6-6.5-3.3-1-5.7,0-8.6,1.6,0-1.1-.1-2.2-.3-3.3,1.4-1.6,3.1-2.2,5-2.9h.1Z"/>
  <path class="cls-9" d="M81.5,36.9c-.4,2.2-1.9,2.2-3.7,2,1.1-1.6,1.6-2.2,3.7-2Z"/>
  <path class="cls-9" d="M81.5,36.9c3.8-.3,7.6,0,10.4,3-.8.5-1.6.5-2.6,0l-.4-.4.4.4.5,1.6c-2.2-.3-4.9-1.1-7-.3-1.2,1-2.7,2.2-3.1,3.7.3,1.2.5,2.6.8,3.8-1-.7-1.9-1.6-3.1-2.2-.7-.3-2-.1-2.3-1,0-1.4,0-2.6-.4-4,1.1-1,2-1.8,3.1-2.7,1.8,0,3.4,0,3.7-2Z"/>
  <path class="cls-9" d="M18.8,38.3c1.4-.8,2.6,1.5.8,1.8-1-.3-1.2-1-.8-1.8Z"/>
  <path class="cls-9" d="M100.7,38c.5.8-.3,2.7-1.4,2.3-1.1-1,0-3,1.4-2.3Z"/>
  <path class="cls-1" d="M88.7,39.5l.4.4-.4-.4Z"/>
  <path class="cls-4" d="M28.2,39.6c.1,1.1.3,2.2.3,3.3-.4,2.2-1.2,4-.1,6.1,1.5,2.6,3.7,4.4,6.1,6-.7,0-1.4.3-1.9.5-2.2-1.2-4.4-2-5.6-4.4-2.3-3.5-1.9-8.7,1.2-11.6Z"/>
  <path class="cls-1" d="M30,40.3h0Z"/>
  <path class="cls-4" d="M89.1,39.9c1,.5,1.8.5,2.6,0,2.5,3.1,3.5,7,1.4,10.6-1.2,2.9-3.5,3.7-6,5-1-.3-1.9-.4-2.9-.5,2.7-2,5.9-2.9,7.1-6.4,1-2.2.7-6-1.6-7.2l-.5-1.6h0Z"/>
  <path class="cls-8" d="M37.1,41.1c2.5,1.9,3,3.5,2.6,6.5,2-.5,2.9-1.8,5.2-1.1,0-.8-.1-1.6-.3-2.5.5-.5,1.2-1.1,1.8-1.6,1.8,1.6,3.5,2.9,4.2,5.3l-.7,1.6c-.7,1.6-.7,3.3-.5,4.9,0,1.8.4,3.3.8,4.9.3,1.1.7,2,1,3.1,1,1.2,3.4,1.1,3.7,2.6.3,1.5-.5,2.3-1.4,3.5-1.8,2.5-3,5.2-4.9,7.5l-1.2-.7c-3,2.6-7,2.2-9.9-.3-.5-1.8-.8-3.7-1.2-5.5-3.4-.7-6.4-1.4-7.9-4.9-.7-3.5,1.5-5.7,3.3-8.5,1.9.4,4.1.4,5.6,1.6,1-1.8,1.2-.3,2.3.4,2.2-1.6,4.1-1.9,6.8-2.2-.3-.5-.7-1-1.1-1.2-3.1-.3-6.3,0-9.4-.1h-1.1c-2.5-1.6-4.6-3.4-6.1-6-1-2.2-.3-4,.1-6.1,2.7-1.6,5.3-2.7,8.6-1.6h-.1Z"/>
  <path class="cls-8" d="M82.9,41.1c2-.8,4.8,0,7,.3,2.3,1.2,2.6,5,1.6,7.2-1.2,3.4-4.4,4.2-7.1,6.4-3.5-.1-7.1,0-10.6,0l.3,1.2c1.9.7,4,.5,6,1,.3,1.1.7,2.5,1.5,3.1,0-1.2.3-2.5.3-3.7.4.4.8.8,1.2,1.2,1.5-1.2,3.8-1.2,5.7-1.8,1.5,2.9,4.8,5.3,2.6,8.9-1.4,3.7-4.1,3.4-7.4,4.5-.4,1.9-.1,4.5-2.3,5.6-1.4.7-3,2.2-4.6,1.8-2,0-3.5-2-5.5-.7-1.6-1.8-3.8-3.8-4.2-6.3-.3-1.2-1.2-1.9-1.9-3,.5-3.5,4.6-3.8,4.5-7.6v-.8c1.9.3,2-.3.8-1.5v-3.7c0-1.1-.1-2-.7-2.9-.4-1.1-.8-2.3-1.2-3.4,2-1.8,4-3.7,6-5.5.4,1.2.4,2.6.4,4,.3.8,1.6.7,2.3,1,1.1.5,2,1.4,3.1,2.2-.3-1.2-.5-2.5-.8-3.8.4-1.5,2-2.7,3.1-3.7h-.1Z"/>
  <path class="cls-9" d="M34.5,42c1.5-.4,2.7,1.1,3.5,2.2.1,1.4-.7,2.9-.5,4.4,1.1.8,2.2,1.6,2.9,2.9-1.6.3-2.3,0-3.7-1.1l-.7,1.1c-.8-.7-1.5-1.2-2.2-2.2,1.9-1,.4-1.8,0-3.1.8-.1,1.6-.3,2.6-.5-.4-.8-1-1.4-1.8-1.8-2.6,1.4-2.6,3.4-2.2,6-2.3-1.1-1.9-3.4-1.5-5.6,1-1.1,2.5-1.8,3.8-2.2h-.3Z"/>
  <path class="cls-9" d="M58.2,42.2c1.2-.1,2.3-.3,3.5-.3,1.9,1.5,4.2,1.8,5.7,3.8l1.2,1.4c.4,1.1.8,2.3,1.2,3.4-2-.8-3.8-3.8-5.9-3.7-.3,2.6,0,5.2,0,7.9s-.3,2.5-.4,3.7h-2.2c-.4-1.1-.8-2.2-1.4-3.1-.8.8-2.3,4.2-3.7,3.1-1-2.2-.4-4.1-.5-6.3-.8-.4-1.5-.8-2.3-1.2.5-1.2,1.1-2.6,1.6-3.8-2.2.8-3.1,3-4.8,4.6l-.5-2,.7-1.6c.5-.7,1.2-1.4,1.8-2,1.9-1.6,3.4-3.3,6-3.7h-.1Z"/>
  <path class="cls-9" d="M89.1,46.5c0,1.9-1.9,5.3-4,3.5,2.7-1.4,3.4-4.9.3-6.3-.5.4-1.2.7-1.8,1.1,1.6,1.5,1.5,3.1,1.5,5.2-.3.4-.7.8-1,1.4-.4-.4-.8-.7-1.2-1.1-1.2.7-2.3,1.4-3.5,2.2-.3-.5-.5-1-.8-1.5,1.2-.7,2.3-1.6,3.5-2.5-.3-2.5-1.9-4.4,1.1-5.7,2.9-2.2,6.4.3,5.7,3.7h.1Z"/>
  <path class="cls-8" d="M85.5,43.7c3.1,1.2,2.5,4.9-.3,6.3,0-2,.1-3.7-1.5-5.2.5-.3,1.2-.7,1.8-1.1Z"/>
  <path class="cls-3" d="M54.9,46.9c-.5,1.4-1.1,2.6-1.6,3.8-1.2,1.8-1.2,5.5-2.9,6.7-.4-1-.8-1.9-1.2-3,0-1.8,0-3.4.5-4.9l.5,2c1.5-1.6,2.6-4,4.8-4.6h-.1Z"/>
  <path class="cls-3" d="M64.1,46.9c2-.1,3.8,2.9,5.9,3.7.5.8.7,1.8.7,2.9-.4,1-.8,2-1.2,3-1.5-.5-1.1-3.3-1.8-4.5-1.5.7-2.5,1.8-3.7,2.9,0-2.6-.3-5.2,0-7.9h.1Z"/>
  <path class="cls-1" d="M53.3,50.8c.8.4,1.6.8,2.3,1.2,0,2.2,3.4,4,4.2,3.1.5,1.1,6.1-2.6,7.6-3.3.7,1.4.1,4.1,1.8,4.5.4-1,.8-2,1.2-3v3.7l-.7,1.5v.8c-3.3,2.5-6,4.8-10.2,4.6-4.2.3-6.5-2.3-9.7-4.6-.4-1.6-.8-3.3-.8-4.9.4,1,.8,1.9,1.2,3,1.8-1.2,1.8-4.8,2.9-6.7h.1Z"/>
  <path class="cls-9" d="M19.9,53.1c1,1,1.2,1.8,2.6,2.5-1,.3-1.6.5-1.9,1.9-.8-.7-1.6-1.4-2.7-1.9,1.4-.4,1.8-1.4,2-2.3h0Z"/>
  <path class="cls-9" d="M99.2,52.9c.7,1,1.2,1.9,2.6,2.6-1.1.3-1.9,1-2.6,1.9-.3-1-1-1.5-2-1.9.7-.7,1.6-1.4,2-2.7h0Z"/>
  <path class="cls-9" d="M34.5,55h1.1c3.1,0,6.3,0,9.4.1.4.3.8.7,1.1,1.2-2.7.1-4.6.4-6.8,2.2-1.1-.7-1.4-2.2-2.3-.4-1.5-1.2-3.7-1.2-5.6-1.6l1.2-.8c.7-.3,1.2-.4,1.9-.5h0Z"/>
  <path class="cls-9" d="M73.6,55c3.5,0,7.1-.1,10.6,0,1,0,1.9.3,2.9.5l1.4.7c-1.8.5-4.2.5-5.7,1.8-.4-.4-.8-.8-1.2-1.2,0,1.2-.1,2.5-.3,3.7-.8-.7-1.1-2.2-1.5-3.1-1.9-.4-4.1-.4-6-1l-.3-1.2h.1Z"/>
  <path class="cls-4" d="M31.3,56.4c-1.8,2.7-3.8,4.9-3.3,8.5,1.5,3.5,4.5,4.2,7.9,4.9.4,1.8.8,3.7,1.2,5.5,3,2.6,6.8,2.9,9.9.3l1.2.7c-2.6,3.3-7.9,4.5-11.4,2.5-2.5-1.8-2.6-4.1-3-6.8-3.1-1.2-6.5-1.5-7.5-5.5-1.5-4.4.5-8.7,4.9-9.9Z"/>
  <path class="cls-4" d="M88.5,56.3c4.1,1.4,6.8,7,4.6,10.9-1.1,3.1-4.5,3.5-7.2,4.6-.5,2.2-.7,4.8-2.6,6.3-3.7,2.9-8.9,1.8-11.7-1.6,1.9-1.4,3.4.7,5.5.7,1.6.4,3.1-1.1,4.6-1.8,2-1.1,1.9-3.5,2.3-5.6,3.1-1.1,6-.8,7.4-4.5,2.2-3.5-1.1-5.9-2.6-8.9h-.3Z"/>
  <path class="cls-2" d="M70.6,57.1c1.2,1.2,1,1.8-.7,1.5l.7-1.5Z"/>
  <path class="cls-9" d="M33.5,58.9c1.2.4,2,1.8,2.9,2.6-.8.8-1.5,1.8-2.3,2.6-1.4-.7-2.6-1.1-3.4-2.5,1-1,1.8-1.9,2.9-2.7Z"/>
  <path class="cls-9" d="M87.1,59l1.9,1.9c-.4,1-1.2,3.1-2.5,3.1-1.1-.8-1.9-1.8-2.9-2.7.7-1.4,2-1.9,3.4-2.5h0Z"/>
  <path class="cls-9" d="M45.9,61.7c.3.8.5,1.6.8,2.3-1.6.5-2.5,1.1-3.5,2.5-.7,1-2.2.4-3.1.4,1.2-1.9,4-4,5.9-5.2Z"/>
  <path class="cls-9" d="M72,61.5c2.7.5,5.3,2.3,6.5,4.9-3.1-1.1-5.3-1.5-6.5-4.9Z"/>
  <path class="cls-8" d="M60.8,66.6c.4,2.9,1.5,6,1.4,8.9-1.2-1.5-2.5-2.5-4.2-3.3,0-2.6.7-4.2,2.9-5.6Z"/>
  <path class="cls-9" d="M22.4,68.5c0,1.9,3,3.8,3.3,3.4-1.9,1.2-2.9,1.8-3.5,4-.5-1.8-1.6-3-3.3-3.8,1.2-.8,2.9-1.8,3.5-3.5Z"/>
  <path class="cls-9" d="M98.7,68.4c1.5-1,2.7,1.5.8,1.6-1-.3-1.2-1-.8-1.6Z"/>
  <path class="cls-9" d="M41.4,69.5h2.7v2.7c-1.6.3-3.3-1-2.7-2.7Z"/>
  <path class="cls-9" d="M57.8,72.2c1.8.8,3,1.8,4.2,3.3v.8c-1.2-.5-2.3-1.1-3.3-1.8.3.7.4,1.4.5,2,.7.4,1.5.7,2.2,1,.3,1.9,0,3.4-.7,5.2-.5-.4-1.1-.8-1.6-1.2-.5.5-1.2,1-1.8,1.5-.1-.8-.4-1.8-.5-2.6l.3-.7c.3-.1.3-.4,0-.7v-1c1.2-1.6.8-3.1.4-5v-1h.3Z"/>
  <path class="cls-9" d="M96.2,72.1c.7,1.6,1.5,2.7,2.7,4-1.2.8-2,1.9-2.6,3.3-1-1.4-2-2.6-3.5-3.4,1.4-1.1,2.7-2.2,3.5-3.8h-.1Z"/>
  <path class="cls-8" d="M57.8,73.2c.4,1.9.8,4-.5,5-.5-1.9-1-3.5.5-5Z"/>
  <path class="cls-8" d="M58.7,74.5c1,.7,2,1.2,3.1,1.8,1.2,1.4.7,3.1,1,4.8,0,2.2,1.1,4,1.8,5.9h-9.8c.5-2.2,1.1-4.4,2-6.4.1.8.4,1.8.5,2.6.5-.5,1.2-1,1.8-1.5.5.4,1.1.8,1.6,1.2.7-1.8,1-3.3.7-5.2-.7-.4-1.5-.7-2.2-1-.1-.7-.3-1.4-.5-2h0Z"/>
  <path class="cls-3" d="M25.8,76.6c.7-.4,1.5-.4,2.2.1,1.1,1.2-.8,3.3-2.2,2.2-.5-.8-.5-1.6,0-2.3Z"/>
  <path class="cls-4" d="M57.4,79.2c.1.4.1.5,0,.7v-.7Z"/>
  <path class="cls-9" d="M18.8,82.3c3.8-.8,7.8-.5,11.6-.4,1.1,0,3,.5,2.7,2-1.2,1.2-3,1.9-4.5,2.7,7.5.4,15,.3,22.5.3h17.6c7.2,0,14.3.1,21.4-.3-1.5-.8-3.4-1.5-4.5-2.7-.3-1.5,1.6-2,2.7-2,4.2,0,8.5-.4,12.5.4,1.4,2.5,1.1,3.3-.1,5.6l-.7.4c-.4-1.2-.5-2-.3-3.3-2-1.9-6.7-.8-9.3-.8,1,1.4,2.5,1.9,3,3.5v1l-1.8.7c-2.5.7,0,5.6-2.9,5.6.1-1.1.4-2,0-3.1-.5-1.1-1.2-1.4-2.3-.8-.7.5-1.1,1.4-1.4,2.6-.5-.3-1.1-.4-1.6-.7l-.3-1.8h-.7c-.7,0-1.2.7-1.5,1.9-2,0-4.1.3-6,.3-.3.7-.4,1.5-.7,2.2-1.2-2.6-5.7-3.3-7.8-1.8-.4,1-.7,1.9-1.1,2.9-.8-.5-1.1-2-1.5-2.9,0-.8-.3-1.8-.4-2.6-.7,0-1.1.7-1.2,1.6-.8,1-1,2-.3,3.1,0,1,0,1.9-.1,3l-.7-.4c-.3-1.1-.4-2.3-.7-3.4-.5.4-1,1.4-1,2.6-.7-.7-1.4-1.4-1.9-2,0-2,.8-2.6,2-2.7-1.2-.7-2.6-.7-3.8,0h-.8c-3,.4-6,.3-9,0h-4c0,.1-1,.3-1,.3-.4,1.2-.5,2.5-.7,3.7-1.9-.8-3.1-2.3-3.3-4.5h1.9c-.1-2.9-3.3-1-4.2.4-.5-.3-1-.5-1.5-.8-1.2-1-1.9-1.6-3.3-.1-.5.3-1.1.5-1.6.8-.8-1.8-1.6-3.4-3.1-4.8v-1.5c1.2-.7,2.9-1.1,3.8-2.2-3.1-.3-6.3-.4-9.4,0-.3,1.4-.7,2.7-1.2,4-1-1.9-2.3-4.5,0-6h.1Z"/>
  <path class="cls-3" d="M20,84.3c3.1-.4,6.3-.3,9.4,0-.8,1.1-2.6,1.5-3.7,2.2-.7.4-1.2.7-1.8,1.2-.4-.4-1-1-1.4-1.4,0,2.3,1,4.4,1,6.5-.7,1.5-2,2.7-3,4.1-.5,1.2-.7,2.7-1,4.1-1.2-.8-2-1.4-2-3,1.1-2,2.7-4,4-6-1-1.2-1.8-2.6-2.9-3.7.5-1.2,1-2.6,1.2-4h.1Z"/>
  <path class="cls-3" d="M90.4,84.2c2.6,0,7.4-1.1,9.3.8-.3,1.2-.1,2,.3,3.3-.7,1.4-1.8,2.9-1.9,4.4,1,1.4,2,2.7,3.1,4v2l-.3,1c-1.9-.4-1.8-1.8-2.7-3.3-1-1.6-2-3-3-4.6.7-1.6,1.1-3.4,1.6-5-1.2,0-2.3.4-3.5.8-.7-1.6-2-2.2-3-3.5v.3Z"/>
  <path class="cls-1" d="M22.5,86.3c.5.4,1,.8,1.4,1.4.5-.4,1.1-.8,1.8-1.2v1.5c-.8,4.6,1.2,8.3,2.2,12.7.4,2.6,2.9,2.9,5.2,3,7.6-.3,15.5,0,23.2,0s7.9.7,11.7,0c4.8-.3,9.7,0,14.4,0,2.7-.1,5.7.7,8-1.4,1.2-1.6,1-4.1,1.8-6,1-2.5.7-4.8,1-7.4v-1c1.2-.4,2.5-.7,3.7-.8-.5,1.6-1,3.4-1.6,5,.8,1.6,2,3,3,4.6.8,1.5.8,2.9,2.7,3.3l-.3.7c-2.3.1-4.8,0-7.1.4-.5,1.4-.8,3.1-2,4-2.3,1.5-4.8,1.2-7.4,1.2h-49.6c-2.5,0-5.2.3-7.4-1.2-.8-1.2-1.4-2.6-2.2-3.8-1.6-.8-3.7.7-5.5-.3.3-1.4.4-2.7,1-4.1,1-1.4,2.2-2.6,3-4.1,0-2.2-1.1-4.4-1-6.5Z"/>
  <path class="cls-3" d="M25.6,87.8c1.5,1.4,2.3,3,3.1,4.8.5-.3,1.1-.5,1.6-.8,1.1,1.1,2,1.5,3.3.1.5.3,1,.5,1.5.8,1.1,1.5,2,3.1,3,4.8-1-.1-1.9-.3-2.7-.4.1,1.6,1,1.6,2.2,2.5,1-.5,1.9-1.1,2.9-1.6,1.9,1.2,2.5,2.2,4.8.7.3-1.9.3-3.8.3-5.7h1c0,1.9,0,3.8.3,5.7h1.5c0-1.1-.7-2.7.5-3.5.7-.3,1.4-.3,2.2,0,.5,2.6.3,3.8,3.3,4.5.4-.5.7-1.1,1-1.6-1-.3-1.8-.4-2.7-.7,1.6-1.4,3.1-2,3-4.5h.8v6.8c1.4-.7,1.4-2.9,1.6-4.1.5.7,1.2,1.4,1.9,2,0-1.2.4-2.2,1-2.6.1,1.1.4,2.3.7,3.4l.7.4c1.2.5,2.5.5,3.8.5-.4-1.1-1.1-1.9-1.9-2.7,0-1,0-2,.1-3,.4.8.7,2.3,1.5,2.9.3-1,.7-1.9,1.1-2.9,0,1.6.3,3.3.5,4.9,1.4.3,2.5,1.8,3.4,0-.4-1-.8-1.8-1.2-2.6,1-.4,2-.8,3-1.2,0,1.6.1,3,1.5,4.2,1.8-1,1.8-2.5,2.3-4.1,1.4,1.2,1,3.4,2.9,4.5,2.2-.8,4.8.5,6.5-.7-.5-.7-1.1-1.4-1.6-2v-3.8c.5.3,1.1.4,1.6.7.1-1.2.7-2,1.4-2.6-.5,2,1.4,2.7,2.3.8.5,1.1.3,2,0,3.1,2.7,0,.4-4.9,2.9-5.6l1.6-.7c-.3,2.6,0,4.9-1,7.4-.8,1.9-.7,4.2-1.8,6-2.3,1.9-5.3,1.2-8,1.4-4.8.1-9.7-.1-14.4,0-4,.5-7.9-.1-11.7,0-7.8.1-15.5,0-23.2,0-2.2-.1-4.6-.3-5.2-3-1.1-4.4-3-8-2.3-12.7l-.7.3Z"/>
  <path class="cls-1" d="M33.5,92c-1.1,1.4-2.2.8-3.3-.1,1.2-1.5,1.9-.8,3.3.1Z"/>
  <path class="cls-2" d="M39.3,92.4h-1.9c.1,2.2,1.4,3.7,3.3,4.5,0-1.2.3-2.5.7-3.7h1c0,1.5,0,3,.1,4.5,2.3-1,1.5-2.7,1.9-4.8h1c0,1.9,0,3.7-.3,5.6-2.2,1.4-2.7.5-4.8-.7-1,.7-1.9,1.1-2.9,1.6-1.2-.7-1.9-.8-2.2-2.5,1,.1,1.9.3,2.7.4-1-1.6-1.9-3.3-3-4.8,1-1.4,4-3.4,4.2-.4h.1Z"/>
  <path class="cls-2" d="M63.6,91.2c0,.8.3,1.8.4,2.6,0,1,0,2-.1,3,.8.8,1.5,1.6,1.9,2.7-1.4,0-2.5,0-3.8-.5,0-1,0-1.9.1-3,1.1-.7,1.1-1.8.3-3.1.1-1.1.5-1.6,1.2-1.6Z"/>
  <path class="cls-1" d="M82.5,91.3c.4,1.4.4,3.4-1.5,1.8.3-1.2.7-1.8,1.5-1.8Z"/>
  <path class="cls-2" d="M82.5,91.3h.7l.3,1.6v3.8c.5.7,1.1,1.4,1.6,2-1.8,1.1-4.4-.3-6.5.7-1.9-1.1-1.5-3.3-2.9-4.5-.4,1.8-.4,3.3-2.3,4.1-1.4-1.2-1.4-2.6-1.5-4.2-1,.4-2,.8-3,1.2.4.8,1,1.8,1.2,2.6-1,1.6-2,.1-3.4,0-.1-1.6-.4-3.3-.5-4.9,2-1.5,6.5-.8,7.8,1.8.3-.7.4-1.5.7-2.2,2,0,4-.3,6-.3,1.8,1.6,1.8-.4,1.5-1.8h.4Z"/>
  <path class="cls-1" d="M86.4,91c1.1-.5,1.8-.3,2.3.8-1,1.9-2.9,1.2-2.3-.8Z"/>
  <path class="cls-1" d="M42.3,93.2h2c-.3,1.9.4,3.5-1.9,4.6,0-1.5-.1-3.1-.1-4.6Z"/>
  <path class="cls-2" d="M46.1,92.9c3-1,5.7-1,9,0,.1,2.5-1.4,3.1-3,4.5,1,.3,1.8.4,2.7.7-.3.5-.7,1.1-1,1.6-3-.7-1.6-1.2-2.3-3.8-.8-.3.4.8-.3,1.1-1.2.8-3,4.5-3,5.7h-1.6c-.3-1.9-.5-7.9-.5-9.8h0Z"/>
  <path class="cls-2" d="M56.7,92.9c.5,0,.8-.4,1.4-.4s2.2,0,1.8.4c-1.1,1.2-2.6,1.2-2.2,2.5,0,0,.1.3,0,.4-.3,1.4-.3,3.4-1.6,4-.1-2-.1-4.1-.1-6.1s.4-.8.8-.8h0Z"/>
  <path class="cls-1" d="M62.4,92.8c.8,1.4.8,2.5-.3,3.1-.7-1.1-.5-2.2.3-3.1Z"/>
  <path class="cls-1" d="M52.3,94.2l.7-.4.7.4v.8l-.7.4-.7-.4v-.8Z"/>
  <path class="cls-1" d="M68,94l.7-.4.7.4v.8l-.7.4-.7-.4v-.8Z"/>
  <path class="cls-3" d="M78.8,94.2q.4.4,0,0Z"/>
  <path class="cls-1" d="M79.7,96.1c1-.5,3,.3,2.3,1.6-1.4,1-5,.1-2.3-1.6Z"/>
  <path class="cls-1" d="M60.1,54.5"/>
  <path class="cls-1" d="M48,94.8l.7-.4.7.4v.8l-.7.4-.7-.4v-.8Z"/>
  <path class="cls-2" d="M51.4,69.8c7.5-.5-1.3,12.1,16.5,1.7,17.8-10.3,3,0,3.3,1.4,1,4,1.6,7.9,2.1,12.1s.5,8.9-.3,13.2-1,5.6-1.6,8.4-2.5,4-4.6,4.1c-6.4.3-4.9-11.4-7.1-18.3s-3.2-1.7-3.7.2c-2.1,9.2.6,17.6-3.5,18.4l-2.7-1.4c-3-1.6-4.9-4.6-5.1-7.9s0-8.4-1.4-10.3c-1.6-2.5-4-2.4-4.9-3.5-1.7-1.9-2.1-6.2-.3-8.1,4.1-4.1,9.2-8.1,13.2-10.3l.2.3Z"/>
  <path class="cls-7" d="M51.6,73.6c1.1,11.1,1.6,22.2-1,33.2-4.1-2.2-2.9-12.2-4.6-18.1-1.7-5.9-5.1-2.5-6.5-4.9,4-3.5,7.9-7,12.1-10.3v.2Z"/>
  <path class="cls-5" d="M68.9,74.6c.8,11.4,1.1,22.7-1.1,33.8-4.3-4.9-2.7-14.8-4.9-21-2.2-6.2-5.4-2.2-6.7-4.8,4.1-2.4,8.4-4.8,12.9-8.1h-.2Z"/>
</svg>