<?xml version="1.0" encoding="UTF-8"?>
<svg id="_Слой_1" data-name="Слой 1" xmlns="http://www.w3.org/2000/svg" version="1.1" viewBox="0 0 120 120">
  <defs>
    <style>
      .cls-1 {
        fill: #0a0226;
      }

      .cls-1, .cls-2, .cls-3, .cls-4, .cls-5, .cls-6, .cls-7 {
        stroke-width: 0px;
      }

      .cls-2 {
        fill: #ff6118;
      }

      .cls-3 {
        fill: #0175c4;
      }

      .cls-4 {
        fill: #f1e232;
      }

      .cls-5 {
        fill: #7c0543;
      }

      .cls-6 {
        fill: #fff;
      }

      .cls-7 {
        fill: #002031;
      }
    </style>
  </defs>
  <path class="cls-4" d="M84.9,4.9c1.8,2,1.6,2.4,0,4.4-2.8-.4-2.8-4.1,0-4.4Z"/>
  <path class="cls-4" d="M92.5,8.5c2-.2,2.7,2.2.8,3-2,.2-2.7-2.2-.8-3Z"/>
  <path class="cls-4" d="M23.2,9.5c0,.7-.2,1.4-.3,2.1.8.3,1.5.8,1.9,1.4-.5,1.1-1,2.2-1.5,3.4-1.6-.1-2.7-1.9-3.4-3.2.8-1.7.9-3.5,3.2-3.7Z"/>
  <path class="cls-4" d="M57.6,12c1.4-.7,2-.4,1.9,1-1.4.7-2,.4-1.9-1Z"/>
  <path class="cls-5" d="M49.3,16.1c2.5,0,4.7.9,6.9,1.9l-1.1,1.3c-1.2-.5-2.5-.9-3.7-1.3-1.8-.5-3.4-.5-4.8.1-2.1.7-3.6,1.7-5.2,3.2-.9.7-1.6,1.5-2.1,2.4-1.2,2.4-1.4,4.6-1.2,7.2,0,1.2,0,2.4-.1,3.6h-.9s-1.3-1-1.3-1c-3.4-.5-8.6-.9-11,2.2l-1.2,1.1c-2.8,2.9-2.7,6-2.3,9.8l-.9-.4c-.5-1.4.2-4-1.6-4.4,0-3.1,1.8-4.9,3.5-7.3,4-3.5,8.2-3.5,13.2-3.6-.6-7.9,6.2-14.5,13.8-15Z"/>
  <path class="cls-5" d="M67.3,16.1c7.8.1,14.9,6.9,14.3,15,5.4,0,9.8.1,13.8,4.2,4.2,4.6,4.8,11.9.4,16.5-.8-.5-1.6-1-2.5-1.5,3.1-4,3.9-9.5.2-13.4-1.1-1.4-2.1-2.5-3.8-3.1l-2.1-.6c-1-1.5-3.1-1.5-4,0l-2.1.6c-.8.3-1.7.5-2.5.8,0-1.2,0-2.4,0-3.6.7-4.6-1.4-9.2-5.8-11-.4-.9-1.2-1.3-2.3-1.2-.7-.4-1.7-.4-2.7,0-.7-1.4-3.4-1.6-3.7.2l-2.3.2-1.4-1.1c2.1-1,4.1-2,6.5-2Z"/>
  <path class="cls-4" d="M46.6,18.2c.4,1.5,4.7,1.6,4.8-.1,1.3.3,2.5.7,3.7,1.3,0,1,0,2.1-.1,3.1-.7-.3-1.4-1-2.1-1.8l-.7,1.7c-3,.7-6,1.1-9.1,1.1-.5-.7-1.1-1.4-1.6-2.1,1.5-1.5,3.1-2.5,5.2-3.2Z"/>
  <path class="cls-6" d="M46.6,18.2c1.4-.6,3-.6,4.8-.1-.1,1.7-4.3,1.6-4.8.1Z"/>
  <path class="cls-2" d="M56.2,18c.8.3,1.6.7,2.4,1,.8-.3,1.5-.6,2.3-1l1.4,1.1c-1.1,1.5-1.4,2.9.8,3.2.2-1,.6-1.6,1.2-1.8.5,2.8,2.5,1.8,4.7,2.5l.3,1c-5-1.3-7.6,1.5-10.7,4.9-2.1-1.2-3.4-3.1-5.1-4.8-5.3-1-10.1,1.5-10.6,7.1-.8,3.6,1.2,5.4,2.4,8.5-.2,2.2-2.5.4-3.5,0-2.4-1.1-5.7-2.1-8.3-1.7l-.3-.6c.4-.8.9-1.6,1.4-2.3l1.3-1.3,1.3,1,.9.7v-.7c0-1.2.1-2.4.2-3.6,1.2.9,1.9,3.8,3.6,3.5,0-1.5-.5-2.9-.7-4.4.5-1.3,1.3-2.3,1.6-3.6-1-1-2.1-1.9-3.3-2.7.5-.9,1.2-1.7,2.1-2.4.5.7,1.1,1.4,1.6,2.1,3.1,0,6.1-.4,9.1-1.1l.7-1.7c.7.9,1.4,1.5,2.1,1.8,0-1,.1-2.1.1-3.1l1.1-1.3Z"/>
  <path class="cls-6" d="M68.2,18.7c-1.1.6-2.3.6-3.7.2.3-1.8,3-1.6,3.7-.2Z"/>
  <path class="cls-4" d="M70.9,18.8c0,1.5.7,1.9,2.3,1.2,4.4,1.8,6.5,6.4,5.8,11-.7.5-1.3,1-2,1.5.2.7.3,1.5.5,2.2-3.4,0-1.6-2.8-1.1-4.7-.7-.4-1.4-.8-2.1-1.2-1.5-2.4-2.3-3.7-5-4.8l-.3-1c-2.1-.7-4.1.3-4.7-2.5-.6.2-1,.8-1.2,1.8-2.2-.3-2-1.7-.8-3.2l2.3-.2c1.4.4,2.6.3,3.7-.2,1.1-.3,2-.3,2.7,0Z"/>
  <path class="cls-4" d="M98.6,18.1c2.2-1.3,2.8,1.2.8,2-1.2,0-1.4-.7-.8-2Z"/>
  <path class="cls-6" d="M70.9,18.8c1.1,0,1.9.3,2.3,1.2-1.5.7-2.3.3-2.3-1.2Z"/>
  <path class="cls-5" d="M58.7,22.5l-1.8-1.1c1.5-2.3,4-1,1.8,1.1Z"/>
  <path class="cls-4" d="M56.9,21.4l1.8,1.1c.9.8.9,1.4-.2,1.6-2,.3-3.4-1.2-1.6-2.7Z"/>
  <path class="cls-4" d="M39.3,23.8c1.2.8,2.3,1.6,3.3,2.7-.2,1.4-1.1,2.4-1.6,3.6.2,1.5.7,2.8.7,4.4-1.6.3-2.4-2.6-3.6-3.5-.1-2.6,0-4.8,1.2-7.2Z"/>
  <path class="cls-5" d="M53.4,24.1c1.7,1.7,3,3.6,5.1,4.8,3.1-3.4,5.7-6.1,10.7-4.9,2.7,1.1,3.5,2.4,5,4.8,0,2.2.2,4.6-.3,6.8-.5,1.4-2.8,3.5-1.9,4.9,1.2.7,2.9-.9,4.1-1.3,2.4-1.7,6.4.3,8.1-2.1,2.2,1,4,2.1,5.7,3.9,2.4,3.1.7,8.2-2.8,9.6.9-2.5,1.1-4.4.9-7-.9-1.1-1.7-2.1-2.2-3.6-.7.2-1.4.4-2.1.6-.4-1.1-1.6-1.4-3.6-.8-1.2.1-2.2.7-2.9,1.9-2.4.7-4.3,2.3-6.7,2.9-.4-.8-.8-1.6-1.2-2.4.9-1.8,1.4-2.9,1-5-.1-2.3,0-4.5.2-6.8,2-1.1-.4-4.7-2.4-3.8-3.3-.4-5.9-.1-7.5,3.2-.6,1.2-1.4,2.2-2.3,3-1.8-.9-2.3-2.6-3.4-4.1-.7-2.1-5.8-3.8-6-1l-1.5.9-.2-.7-.7.2v.8c0,2.4.2,4.6-.9,6.8,2.3.8,2.2,4.2,3.2,6.2l-.2,2.3c-1.7-.5-3.1-.8-4.9-.7-2.1-.7-4.1-1.6-6.1-2.6-.3-1.1-.7-1.2-1-.2l-1.1-.2c-1.7-2-5.3-1-6,1.4-2.2,3.1-1.1,6.1,1.4,8.6l-.2,1.1c-2.7-1.1-4.7-4.4-4.9-7.2-.2-3,2.7-3.3,3.8-6,1.1-.4,2.2-.7,3.3-1.1l.3.6c2.6-.3,5.9.6,8.3,1.7,1,.4,3.4,2.2,3.5,0-1.2-3.1-3.2-4.9-2.4-8.5.5-5.7,5.3-8.2,10.6-7.1Z"/>
  <path class="cls-4" d="M112,25.5c1.5,0,2.6,2.2,3.4,3.3-1.3,2.9-3.7,3.2-4.9,0,.5-1.1,1-2.2,1.5-3.3Z"/>
  <path class="cls-6" d="M55.1,28.6c-1.1.4-2.3.9-3.4,1.3.2-.7.3-1.5.5-2.3-1,0-2,0-3.1,0,.2-2.8,5.3-1.2,6,1Z"/>
  <path class="cls-6" d="M68.3,26.5v1c0,1.2-.1,2.3-.2,3.5-2.6-.1.5-3.7-3.4-3.4.2.8.5,1.6.7,2.4-1.6-.4-3-1-4.6-.2,1.5-3.3,4.2-3.6,7.5-3.2Z"/>
  <path class="cls-2" d="M68.3,26.5c2-.9,4.4,2.7,2.4,3.8-.8-.9-1.6-1.8-2.4-2.8v-1Z"/>
  <path class="cls-6" d="M46.7,28l.7-.2.2.7-.9.3v-.8Z"/>
  <path class="cls-3" d="M49.1,27.6c1,0,2,0,3.1,0-.2.8-.3,1.5-.5,2.3,1.1-.4,2.3-.8,3.4-1.3,1.1,1.5,1.7,3.2,3.4,4.1.9-.8,1.7-1.8,2.3-3,1.6-.7,3-.1,4.6.2-.2-.8-.5-1.6-.7-2.4,3.9-.3.8,3.3,3.4,3.4,0-1.2.1-2.3.1-3.5.7,1,1.5,1.9,2.4,2.8-.3,2.3-.4,4.5-.2,6.8-2.4,2.1-3.1,6.5-5,9.3-.8-.4-1.4-1.1-1.9-2.1l-.5-.8c-1.8.2-3,1.3-4.5,2.2-2.1-1-3.7-2.6-5.9-3.4.3,1.1.6,2.3.9,3.4-2.9,2.3-2.5-2.7-4.5-3.8-1-1.9-1-5.4-3.2-6.2,1-2.2.9-4.5.9-6.8l.9-.3,1.5-.9Z"/>
  <path class="cls-2" d="M74.3,28.9c.7.4,1.4.8,2.1,1.2-.5,1.9-2.3,4.8,1.1,4.7-.2-.7-.3-1.5-.5-2.2.7-.5,1.3-1,2-1.5,0,1.2,0,2.4,0,3.6.3.8.7,1.5,1.3,2.2.8-.3,1.6-.6,2.3-.8l1.5,1c-1.7,2.4-5.6.4-8.1,2.1-1.2.4-2.9,2-4.1,1.3-.9-1.4,1.4-3.5,1.9-4.9.5-2.2.3-4.5.3-6.8Z"/>
  <path class="cls-6" d="M49.2,30.1h.7v.7h-.7v-.7Z"/>
  <path class="cls-3" d="M53.3,34.6c-.7.5-1.5.9-2.3,1.1-2,.3-.1-2.7.2-3.4,1-1.9,2.3,1.5,2.1,2.4Z"/>
  <path class="cls-1" d="M62.4,32.8c1.3-.1,1.6.4.9,1.7-1.3.1-1.6-.4-.9-1.7Z"/>
  <path class="cls-6" d="M66,32.6c1.7-.4,1.7,3.5,0,3.1-1.5-.7-1.5-2.3,0-3.1Z"/>
  <path class="cls-2" d="M87.7,33.3c-1.3.5-2.7.5-4,0,.9-1.6,3-1.5,4,0Z"/>
  <path class="cls-6" d="M35.7,33.6l-1.3,1.3c-3.5-.6-6.3.6-9.7.9,2.4-3.1,7.6-2.7,11-2.2Z"/>
  <path class="cls-4" d="M81.6,33.9c.8,1.7,4.4.8,6,1,1.4,0,2.1-.3,2.2-1.1,1.7.6,2.8,1.7,3.8,3.1-1.1,1.4-2,3-3.6,4-1.7-1.8-3.5-2.9-5.7-3.9l-1.5-1c-.8.3-1.6.5-2.3.8-.6-.7-1-1.4-1.3-2.2.8-.3,1.7-.5,2.5-.8Z"/>
  <path class="cls-6" d="M81.6,33.9l2.1-.6c1.3.5,2.7.5,4,0l2.1.6c0,.8-.8,1.1-2.2,1.1-1.6-.2-5.1.7-6-1Z"/>
  <path class="cls-4" d="M34.4,34.9c-.5.8-.9,1.6-1.4,2.3-1.1.4-2.2.8-3.3,1.1-2.1,0-2.9,1.4-4.7,2.2-.2-1.6-.7-2.8-1.5-3.6l1.2-1.1c3.4-.3,6.2-1.5,9.7-.9Z"/>
  <path class="cls-1" d="M37.1,34.7h.9s0,.7,0,.7l-.9-.7Z"/>
  <path class="cls-1" d="M56.8,35.4h0Z"/>
  <path class="cls-4" d="M60.1,35.1q.6.6,0,0Z"/>
  <path class="cls-2" d="M23.5,36.9c.9.8,1.4,2,1.5,3.6,1.7-.8,2.5-2.1,4.7-2.2-1,2.7-4,3-3.8,6,.2,2.8,2.2,6.1,4.9,7.2-.7,1.9-3.3,2.4-4.3,4.3-2.1,2.7-1.7,5.5.5,7.9,3.5,2.6,7.2,1.7,10.9,2.3,0,1.8-2.3,1.5-2.9,3-1.6,2.6-3.1,6.3-.1,8.6,1.9.7,4.3.4,6.3.6-.7,4.6,2.4,8.3,7.2,6.9l.5-1h2.1c.3,1.5-1.9,2.3-2.9,2.9-2.5,1.5-4.7-.2-7.2-.9-1.3-1.2-1.5-3.6-2-5.2-2.3-.4-4.3-1.1-6.6-.9-1.9-1.5-3.5-2.9-6.1-3,.4-1.7,1.1-2.7,2.2-4l.7-.2.2-.7c.8-1.1,2.3-2.1,2.5-3.5-1,.2-2,.4-3,.7-.9-2.3-2.6-2.5-4.6-3.4,0-.6.1-1.3.2-1.9-1.5-.8-3-1.8-4.4-2.8-1.9-1.8.9-6,2.5-7.1,2.8-1.3,1.9-3.5,3.1-5.9-.9.4-1.9.6-2.9.8-.5-.8-1-1.5-1.4-2.3-.3-3.8-.5-6.9,2.3-9.8Z"/>
  <path class="cls-3" d="M53.9,37.5c1.5-.6,3.4,4.3,3.4,5.5-2.6-.6-3.7-2.9-3.4-5.5Z"/>
  <path class="cls-4" d="M67.3,37.5q.7.6,0,0Z"/>
  <path class="cls-1" d="M70.5,37.1c.4,2.1-.1,3.2-1,5,.4.8.8,1.6,1.2,2.4-3,1.6-5.1,5-7.3,7.5-.7-.7-1.2-1.5-1.4-2.7,1-1.1,1.6-2.4,1.5-4v-1.1c.6,1,1.2,1.7,1.9,2.1,1.9-2.8,2.6-7.2,5-9.3Z"/>
  <path class="cls-2" d="M93.6,36.9c3.7,3.9,2.9,9.4-.2,13.4l-1.8.3c.3,2.4,3.2,2.8,4.4,4.6.9,1.9,3.1,3.7,1.2,5.8-2.3,1.5-2.9,4.2-5,5.9-.7-.1-1.3-.2-2-.3-.6,2.7-2.8,1.7-4.9,2.1.3.8.7,1.6,1.2,2.3l1.2.9.9.2c1.3,1.4,1.4,2.7,1.5,4.5-1.3,1.1-1.8,1.1-3.4.9-1.8,3.4-5.4,3.6-8.7,2.1.4,3.9-1.7,6.5-5,8.1-2.2-.4-5.1-1.1-6.9-2.6l1.2-1.5c1.5,1.2,4.5,2.3,6.1.6l1.7-.6c.5-1.8.5-3.7.7-5.5,2.9-.1,8.1.4,8.2-3.8.4-4.1-3.3-5.7-4.8-8.3,4-.5,7.4.1,11-2.3,1-1.4,1.5-3.3,1.8-5-.4-3.8-4.7-4.7-4.7-8.3,3.5-1.3,5.2-6.5,2.8-9.6,1.6-1,2.4-2.6,3.6-4Z"/>
  <path class="cls-4" d="M62.5,38.7q.6.6,0,0Z"/>
  <path class="cls-1" d="M35.7,40.4c-1.7,0-3,.6-3.7,1.6l-2.3-.2c.7-2.5,4.3-3.4,6-1.4Z"/>
  <path class="cls-6" d="M37.9,40.8l-1-.2c.4-1,.7-1,1,.2Z"/>
  <path class="cls-1" d="M62.3,40.6c2.2,1.4-2.2,3-3.2,2.4-.2-2.3.9-3.8,3.2-2.4Z"/>
  <path class="cls-3" d="M80.2,39.7v.9s-1.2,1.5-1.2,1.5l-.3.9c-.4.7-.9,1.5-1.4,2.2-2.3.4-3.4.4-4.5,2.8-2.1,1.4-3.1,4.1-4.8,6l-2,.2c.4,1.5,2.8,1.7,3.7,3.3-2,2.8-2.3.7-4.2-.7-.7.2-1.4.4-2.1.6-.8-.7-1.5-1.4-2.1-2.2.5-1.2,1.4-2.2,2.2-3.2,2.2-2.5,4.3-5.9,7.3-7.5,2.4-.6,4.3-2.2,6.7-2.9.7-1.1,1.7-1.7,2.9-1.9Z"/>
  <path class="cls-6" d="M80.2,39.7c2-.6,3.2-.3,3.6.8-1,.5-2.2.5-3.6,0v-.9Z"/>
  <path class="cls-3" d="M85.9,39.9c.5,1.4,1.2,2.4,2.2,3.6.2,2.6,0,4.5-.9,7-3-.4-6,1.5-9.3,1.1l.2,1,.9.3v.9c0,0-1.2,1.1-1.2,1.1-3.2-1.4-6.4.6-9.8-1,1.7-1.9,2.7-4.6,4.8-6q1.2.8,0,0c1.1-2.4,2.2-2.4,4.5-2.8.5-.7.9-1.5,1.4-2.2,2,1,2.7,3.5,4.8,3.9-.4-1.1-.6-2.2-.8-3.4,1.4.2,2.1,1.6,3.5,1.9,0-4.4-4.1-3.2-7.2-3.3l1.1-1.5c1.3.5,2.5.5,3.6,0,.7-.2,1.4-.4,2.1-.6Z"/>
  <path class="cls-3" d="M35.7,40.4l1.1.2,1,.2v1.1c-1.1-.3-1.9.1-2.3,1.1-1.3,1.4-1,3-1.1,4.8.9.2,1.4-.8,1.5-3,1.4-.5,2.9-.9,4.3-1.3l.3,1.7c.7-.1,1.5-.3,2.3-.4,0,1.4.1,2.7.2,4.1.7-.1,1.4-.2,2-.3.8,3.2,3.2,3.3,4.8,5.3-1.7.3-3.1.2-4.3,1.7-1.3,1.4-1.2,3.2-3.4,3.4.1-.8.3-1.6.4-2.4-2.3,0-1.4,1.8-3.1,2.2,0-1.2-.1-2.4-.2-3.6,1.7.4,3.2.4,4.6,0,.5-1.8-4.4-1.5-4.6,0-.7,1-1.2,2.2-1.5,3.5-1.1,0-2.2-.2-3.3-.6.1,2.4,1.9,2.4,3.6,3.2,1-.6,2.1-1,3.3-1.3-.1.9-.3,1.7-.4,2.6l.9.2c-2.9,1.8-6.4.3-9.6,1.7-4.3-1.3-6-4.1-4.3-8.4l1.4-.7c1.1,2.4,3.2.7,2.3-1.4.8-1.6,3.8-.9,5.3-1l.2.7.9-.6.9-1.3c-3,.5-5.2-1.1-7.9-1.3-2.4-2.5-3.6-5.5-1.4-8.6l2.3.2c-.2,1.2-.1,2.3.3,3.3,1.9.2,1.7-3.4-.3-3.3.8-1,2-1.6,3.7-1.6Z"/>
  <path class="cls-3" d="M37.9,40.8c2,1.1,4,1.9,6.1,2.6,1.6,1.5,3.5,1.9,5.4,2.8,1.7,2,3.2,4.2,4.5,6.6l-.4.7c-.7,0-1.3,0-1.9,0-1,1.9-3.1,2.4-4.3,4.3l-1,1.4c-1.8.8-3.7,1-3.7,3.4l-.8.3-.9-.2c.1-.9.3-1.7.4-2.6-1.1.3-2.2.7-3.3,1.3-1.8-.9-3.5-.9-3.6-3.2,1.1.4,2.2.6,3.3.6.3-1.3.8-2.5,1.5-3.5,0,1.2.1,2.4.2,3.6,1.7-.5.8-2.1,3.1-2.2-.1.8-.3,1.6-.4,2.4,2.2-.2,2.1-2,3.4-3.4,1.2-1.5,2.6-1.3,4.3-1.7-1.6-2.1-4-2.1-4.8-5.3-.7.1-1.4.2-2,.3,0-1.4-.1-2.7-.2-4.1-.8.1-1.5.3-2.3.4l-.3-1.7c-1.4.4-2.9.8-4.3,1.3,0,2.2-.6,3.2-1.5,3,0-1.8-.3-3.3,1.1-4.8,1.7.6,2.5.2,2.3-1.1v-1.1Z"/>
  <path class="cls-1" d="M18.7,41.9c1.7.3,1.1,3,1.6,4.4l.9.4c.5.7,1,1.5,1.4,2.3,1-.2,2-.4,2.9-.8-1.2,2.4-.3,4.6-3.1,5.9-1.7,1.1-4.4,5.2-2.5,7.1-.7.5-1.4,1-2.1,1.5.9,3.5,2.9,5.3,5,7.9,2,.3,3.9.6,5.7,1.6l-.2.9c-1.1,1.3-1.8,2.3-2.2,4-.7,4.3,1.9,5.7,4.9,8,1.9-.6,2.6-1.1,4.2.5-.1.7-.2,1.3-.3,2,1.9.6,1.3.8,1.3,2.4,2.8,2,5.4,3.2,8.9,3.4,4.1-1.2,6.4-4.4,8.7-7.8.9-1.6,1.3-3,1.2-4.8-2.2.3-2.2,2.7-5,2.2,4.3-4.6,7.4-8.9,7.2-15.5-.8.4-1.4,1.2-1.9,2.4.3-3.7,1.5-7.2,1.8-10.9-3,.3-5.1,3.2-8.1,3.9-5,2.3-10.7,5-13.8,9.6,0,1.1-.4,2.7.2,3.6,2.6,1.3,6.4.5,7.6-2.4.7-1.5,3.2-2.3,3.7-.3-.8,1.4-2.4,1.7-3,3.2-.8,2-.6,3.9-.5,6,1.7,1.1,3.6,1.4,5.6,1.6l-.5,1c-4.8,1.5-7.9-2.3-7.2-6.9-2-.2-4.4.2-6.3-.6-3-2.2-1.5-6,.1-8.6.7-1.5,3-1.2,2.9-3-3.8-.7-7.4.2-10.9-2.3-2.2-2.5-2.6-5.3-.5-7.9,1-1.9,3.5-2.4,4.3-4.3l.2-1.1c2.7.2,4.9,1.8,7.9,1.3l-.9,1.3h-1.1c-1.5,0-4.5-.7-5.3.9-.8.3-1.6.7-2.3,1.4l-1.4.7c-1.7,4.3,0,7.2,4.3,8.4,3.2-1.4,6.7,0,9.6-1.7l.8-.3c2-.4,3.9-.9,5.8-1.5-.3-.8-1-1.4-2.1-1.9l1-1.4c1.7,2.9,2.5.6,4.3-.5.7,0,1.4.2,2,.3,2.8.7,3.6-.8,5.7-1.9.7,2.4,1.7,2.3,4,1.8.7-.2,1.4-.4,2.1-.6,1.9,1.4,2.2,3.5,4.2.7.5.5.8,1.3.8,2.2-.9,1-.9,1.6,0,1.8,5.3,2.1,12.1,3.8,17.7,1.7,4.2-5-1.1-11.4-6.9-10.2h-2.3c0,.1-.9-.2-.9-.2l-.2-1c3.3.3,6.3-1.6,9.3-1.1,0,3.6,4.2,4.6,4.7,8.3-.3,1.7-.8,3.6-1.8,5-3.6,2.4-7,1.8-11,2.3,1.4,2.7,5.2,4.3,4.8,8.3-.2,4.1-5.4,3.6-8.2,3.8-.2,1.8-.2,3.7-.7,5.5l-1.7.6c.8-3.5,1.8-7.1-1.6-9.5-1.2-.8-1.5-1.6-.9-2.4,1.8-.5,3.9.8,5.6,1.2,0,.7-.6,1.1-1.6,1.4,1.7,2.5,5.6,1.6,7.5-.5-.9-3.7-4.7-6.8-8.1-8l-.8-.3c-.8-1-1.8-1.7-2.9-2.3h-1.9c-2.6-1.9-5.6-4.3-8.7-4.6.3,2.2.9,4.3,1.1,6.4-2.4,3.9,1.5,9.7,2.4,13.7l-2.1.2c1.7,4.1,3.7,10,7.4,12.8,2.5.7,5.4.3,8,.4h2.6c-2.2,3.2-5.1,3.1-8.6,2.7l-.9-.3c-1.4-1-2.6-1.4-3.7-1-1.5,4.8,3.9,3.3,5.7,7.1,2.6,3.7,1.3,8.3-2.2,10.9-1.2-.3-2.1,0-2.8,1.1-3.3,2.3-6.8,1.9-10.6,1.4l-.9-.3c-2.4-1.4-4.7.1-7.1-1-.7-1.1-1.6-1.5-2.8-1.3-4.2-4-2-11.1-.1-15.8-1.3-1.3-2.8-.7-4.6-.9l-.8-.4c-1.9-1.6-3.9-2.5-5.1-4.8-2-4.3-8.6-3.2-10-8.1-1.5-2.9-.4-5.6-1-8.5-5.9-2.9-8.7-10.1-6.5-16.3.7-2.1,4-4.2,3.5-6.5-2-3.1-3.1-5.1-2-8.8Z"/>
  <path class="cls-6" d="M32,42c1.9,0,2.2,3.5.3,3.3-.4-1-.5-2.1-.3-3.3Z"/>
  <path class="cls-6" d="M37.8,41.9c.2,1.4-.6,1.7-2.3,1.1.5-1,1.2-1.4,2.3-1.1Z"/>
  <path class="cls-1" d="M49.1,41.8c2,1.1,1.6,6.1,4.5,3.8-.2,2.1,2.1,4,2.8,6-.1,1.1-.5,1.9-1.1,2.5l-1.3-1.4c-1.3-2.4-2.8-4.6-4.5-6.6-1.9-1-3.8-1.3-5.4-2.8,1.8-.1,3.2.2,4.9.7l.2-2.3Z"/>
  <path class="cls-3" d="M52.6,42.2c2.2.8,3.8,2.4,5.9,3.4,1.5-.9,2.7-2,4.5-2.2l.5.8v1.1c-1.9.4-2.8,1-4.1,2.3-2.1-.6-3.6-2-5.9-2-.3-1.1-.6-2.3-.9-3.4Z"/>
  <path class="cls-6" d="M64.9,42.4h.6c-.3,1-.5,1.1-.6,0Z"/>
  <path class="cls-6" d="M79.1,42.1c3,0,7.2-1.2,7.2,3.3-1.4-.2-2.1-1.7-3.5-1.9.2,1.1.5,2.2.8,3.4-2.1-.4-2.8-2.9-4.8-3.9l.3-.9Z"/>
  <path class="cls-6" d="M29.8,43.5h.6c0,0,0,.6,0,.6h-.6c0,0,0-.6,0-.6Z"/>
  <path class="cls-6" d="M75.9,43.7q.3.2,0,0Z"/>
  <path class="cls-3" d="M44.4,45.9q.7.6,0,0Z"/>
  <path class="cls-2" d="M53.6,45.7c2.3,0,3.8,1.5,5.9,2,1.3-1.3,2.2-1.9,4-2.3,0,1.6-.5,2.9-1.5,4-1.5,1.7-3.2,4.4-5.7,2.3-.7-2-3-3.9-2.8-6Z"/>
  <path class="cls-3" d="M70.9,45.9q.6.6,0,0Z"/>
  <path class="cls-4" d="M40.8,47.1q.6.6,0,0Z"/>
  <path class="cls-3" d="M48,47.1q.7.6,0,0Z"/>
  <path class="cls-4" d="M75.8,47.1q.6.6,0,0Z"/>
  <path class="cls-4" d="M72.9,48q1.2.8,0,0Z"/>
  <path class="cls-4" d="M81.8,48.3q.6.6,0,0Z"/>
  <path class="cls-5" d="M62,49.3c.2,1.1.7,2,1.4,2.7-.7,1.1-1.7,2-2.2,3.2.7.8,1.4,1.5,2.1,2.2-2.2.5-3.3.6-4-1.8-2.1,1.1-2.9,2.6-5.7,1.9.7-.4,1.4-.9,2.1-1.3-.2-.7-.3-1.3-.5-2,.6-.6,1-1.5,1.1-2.5,2.4,2.1,4.2-.6,5.7-2.3Z"/>
  <path class="cls-1" d="M72.4,51.1h0Z"/>
  <path class="cls-1" d="M91.6,50.7l1.8-.3c.8.5,1.7,1,2.5,1.5,2.1,2.7,4.6,4.6,4.8,8.3.4,5-2.3,12.3-7.8,13.4.6,3.2.9,6.2-.9,9.1-.8,1.9-2.7,2.6-3.7,4.5-1.4,0-2.8,0-4.1,0-1.5,2.4-1.7,5-5,5.5h-2.6c2.8-2.2,6.4-4.2,5.4-8.4,2.5,1.1,5.8.4,7.3-1.9,2.4-1.3,2.4-3.8.8-5.7-.2-1.8-.2-3.1-1.5-4.5,2-.9,4.3-1.4,6.3-2.3,1-1,1.8-2,3-2.8-.4-2.7,2-3.6-.6-6,1.9-2-.3-3.8-1.2-5.8-1.2-1.8-4.1-2.2-4.4-4.6Z"/>
  <path class="cls-1" d="M37,52.9h1.1c0,0-.9.7-.9.7l-.2-.7Z"/>
  <path class="cls-2" d="M51.6,53.4c.7,0,1.3,0,1.9,0l.4-.7,1.3,1.4c.2.7.4,1.3.5,2-.7.4-1.4.9-2.1,1.3-.7,0-1.4-.2-2-.3-1.8,1.1-2.6,3.4-4.3.5,1.1-1.8,3.3-2.3,4.3-4.3Z"/>
  <path class="cls-3" d="M79,53h2.3c1,1.8,1.7,3.7,2.1,5.7-1,1-1.8,2-3.1,2.5-2.8-2.4-5.2,2.2-7.6-1.9-.7,0-1.5.2-2.2.3,0-.9-.3-1.6-.8-2.2-.8-1.6-3.3-1.8-3.7-3.3l2-.2c3.4,1.6,6.6-.3,9.8,1l1.1,1.3c-2.8,1.3,2.4,4.5,2.4,1.3.6-2.1-.8-3-2.4-3.7v-.9Z"/>
  <path class="cls-3" d="M81.3,52.9c5.8-1.2,11.1,5.2,6.9,10.2-5.6,2.1-12.4.3-17.7-1.7-1-.2-1-.8,0-1.8.7,0,1.5-.2,2.2-.3,2.4,4.1,4.8-.5,7.6,1.9,1.3-.5,2.2-1.5,3.1-2.5-.4-2-1.2-3.9-2.1-5.8Z"/>
  <path class="cls-6" d="M31.7,53.9c.9,2.1-1.2,3.8-2.3,1.4.7-.7,1.5-1.1,2.3-1.4Z"/>
  <path class="cls-6" d="M33.5,54.2c1.8-1.3,3.4,2,1.1,2.1-1.1-.5-1.5-1.2-1.1-2.1Z"/>
  <path class="cls-6" d="M43.8,55c-1.4.5-2.9.5-4.6,0,.3-1.6,5.1-1.9,4.6,0Z"/>
  <path class="cls-1" d="M78.9,53.9c1.6.8,3.1,1.7,2.4,3.7-.8-.5-1.6-.9-2.4-1.3l-1.1-1.3,1.1-1.1Z"/>
  <path class="cls-6" d="M84,54.3c1.6-.9,3.4,2.1,1.1,2.2-1.2-.4-1.6-1.2-1.1-2.2Z"/>
  <path class="cls-3" d="M72.2,56.6c1.2-.5,4.3-.8,4.4,1-.1.9-.6,1.6-1.4,2.2-.8-.5-3-2.4-3-3.3Z"/>
  <path class="cls-3" d="M78.9,56.3c.8.4,1.6.9,2.4,1.3,0,3.2-5.2,0-2.4-1.3Z"/>
  <path class="cls-3" d="M46.4,59c1.1.5,1.8,1.1,2.1,1.9-1.9.6-3.8,1.2-5.8,1.5,0-2.5,1.9-2.6,3.7-3.4Z"/>
  <path class="cls-2" d="M57.1,58.9c-.3,3.8-1.5,7.2-1.8,10.9l-1.3.8c-1-2.1-1.9-4.3-2.9-6.4-.7.1-1.4.2-2.1.3v-1.7c3.1-.7,5.1-3.6,8.1-3.9Z"/>
  <path class="cls-2" d="M59.8,59.2c3.2.3,6.2,2.7,8.7,4.5-1.2.5-2.3,1.1-3.5,1.7-.6,1.9-1.2,3.7-1.7,5.6h-1c-.3-1.8-.5-3.6-1.4-5.3-.2-2.2-.8-4.3-1.1-6.4Z"/>
  <path class="cls-5" d="M19.9,61.2c1.4,1,2.8,2,4.4,2.8,0,.6-.1,1.3-.2,1.9,2,.9,3.8,1.1,4.6,3.4,1-.2,2-.5,3-.7-.1,1.4-1.7,2.4-2.5,3.5h-.7c-1.8-.9-3.7-1.2-5.7-1.5-2.1-2.6-4.1-4.4-5-7.9.7-.5,1.4-1,2.1-1.5Z"/>
  <path class="cls-5" d="M97.1,61c2.6,2.3.3,3.3.6,6-1.2.8-2,1.8-3,2.8-2,1-4.2,1.4-6.3,2.3l-.9-.2-1.2-.9c-.4-.7-.8-1.5-1.2-2.3,2.1-.4,4.3.5,4.9-2.1.7.1,1.3.2,2,.3,2.1-1.7,2.7-4.4,5-5.9Z"/>
  <path class="cls-3" d="M49,62.8v1.7c.7-.1,1.4-.2,2.1-.3,1,2.1,2,4.3,2.9,6.4l1.3-.8c.4-1.2,1-2,1.9-2.4.2,6.6-2.9,10.9-7.2,15.5l-1,1.3c-2-.2-3.9-.4-5.6-1.6,0-2.1-.3-4,.5-6,.6-1.5,2.2-1.8,3-3.2-.5-2-3.1-1.3-3.7.3-1.3,2.8-5,3.7-7.6,2.4-.6-.9-.2-2.5-.2-3.6,3.1-4.6,8.8-7.3,13.8-9.6Z"/>
  <path class="cls-3" d="M68.5,63.7c-.7,1.1-.7,4.7,1.4,3,.7-.8.9-1.8.5-2.8,1.1.5,2,1.3,2.9,2.3l.7,1v-.7c3.6,1.2,7.4,4.3,8.2,8-1.9,2.1-5.8,3.1-7.5.5,1-.3,1.6-.7,1.6-1.4-1.7-.4-3.8-1.7-5.6-1.2-.7.9-.3,1.7.9,2.4,3.4,2.5,2.4,6,1.6,9.5-1.6,1.7-4.5.7-6.1-.6-1.8-1.3-2.8-2.6-3.9-4.4-1-4-4.8-9.8-2.4-13.7.9,1.7,1.1,3.5,1.4,5.4v2.2c1.2.1,1.5-.6,1-2.2.5-1.9,1.1-3.8,1.7-5.6,1.2-.6,2.3-1.1,3.5-1.7Z"/>
  <path class="cls-6" d="M68.5,63.7h1.9c.4,1.2.2,2.2-.5,3-2.1,1.7-2.1-1.8-1.4-3Z"/>
  <path class="cls-6" d="M73.3,66.1l.8.3v.7c0,0-.8-1-.8-1Z"/>
  <path class="cls-6" d="M42,67.7q.5.4,0,0Z"/>
  <path class="cls-4" d="M45.6,67.6q.6.6,0,0Z"/>
  <path class="cls-6" d="M50.2,67.6c1.3-.2,1.6.4,1,1.8-1.3.2-1.6-.4-1-1.8Z"/>
  <path class="cls-6" d="M66.2,67.7q.5.5,0,0Z"/>
  <path class="cls-4" d="M70.9,67.6q.6.6,0,0Z"/>
  <path class="cls-4" d="M74.5,68.8q.6.6,0,0Z"/>
  <path class="cls-4" d="M40.8,70q.6.6,0,0Z"/>
  <path class="cls-6" d="M64.8,70.1q.7.5,0,0Z"/>
  <path class="cls-6" d="M51.7,71.3q.5.5,0,0Z"/>
  <path class="cls-1" d="M62.2,71h1c.5,1.5.2,2.3-.9,2.2v-2.2Z"/>
  <path class="cls-6" d="M86.4,71l1.2.9-1.2-.9Z"/>
  <path class="cls-4" d="M108,71.3c1.9.2,3.1,1.2,4.6,2.2-.7.9-2.2,2.7-3.2,3.1-.8-1.8-1.6-3.4-1.4-5.4Z"/>
  <path class="cls-6" d="M28.5,72.2h.7c0,0-.2.6-.2.6l-.7.2.2-.9Z"/>
  <path class="cls-4" d="M5.2,74.7c-.3,1.1-.7,2.1-1.1,3.1-1.5,0-2.8-1.8-3.2-3.1,2-1.6,2.3-1.8,4.4,0Z"/>
  <path class="cls-5" d="M26.2,77c2.6.1,4.2,1.5,6.1,3,2.3-.2,4.4.5,6.6.9.6,1.7.7,4,2,5.2,2.5.8,4.7,2.5,7.2.9,1-.6,3.2-1.4,2.9-2.9h-2.1c0,0,1-1.3,1-1.3,2.8.5,2.8-1.9,5-2.2,0,1.8-.2,3.2-1.2,4.8-2.3,3.4-4.5,6.6-8.7,7.8-3.5-.2-6.1-1.4-8.9-3.4,0-1.6.6-1.8-1.3-2.4.1-.7.2-1.4.3-2-1.5-1.6-2.3-1.1-4.2-.5-3-2.3-5.6-3.6-4.9-8Z"/>
  <path class="cls-3" d="M57.7,77.5h.5c.3,1.8,1.3,5.6-.6,6.8l-1.4-1.2c.6-1.9,1-3.7,1.4-5.6Z"/>
  <path class="cls-5" d="M86.6,77.5c1.6.2,2.1.3,3.4-.9,1.6,2,1.7,4.4-.8,5.7-1.5,2.3-4.8,3-7.3,1.9,1,4.2-2.6,6.1-5.4,8.4-2.6,0-5.5.3-8-.4-3.7-2.8-5.7-8.7-7.4-12.8l2.1-.2c1.1,1.9,2.1,3.2,3.9,4.4l-1.2,1.5c1.8,1.5,4.7,2.2,6.9,2.6,3.3-1.6,5.5-4.2,5-8.1,3.3,1.4,6.8,1.3,8.7-2.1Z"/>
  <path class="cls-6" d="M56.3,83.1l1.4,1.2c-.4,1.6-.8,3.1-2.6,3.4-.5-1.4.8-3.3,1.3-4.6Z"/>
  <path class="cls-2" d="M61.9,85.6c1.1,3.7,0,7.8.3,11.7-.5,1.1-1,2.3-1.5,3.4-1.1-.5-4.6-.6-4.3-2.2,2.2-.2,2.6-2.6,2-4.4-.8.2-1.5.9-2.2,2.3-.7.4-1.4.8-2.1,1.1.2.8.4,1.5.6,2.3-1.5.1-2.3-.7-2.4-2.6,1.3-3.8,3.8-6.5,5.8-9.9,1-1.7,1.8-2.5,3.9-1.8Z"/>
  <path class="cls-3" d="M55,87.7c-.9,4.4-5.4,7.5-6.4,12.1l-1.2-1.3c1.9-3.6,4-8.7,7.6-10.8Z"/>
  <path class="cls-4" d="M9.3,89.3c.7,0,1.2.6,1.6,1.7,1.2.8,3.1-.3,4.4-.5-.4,3.4-4,3.8-3.9,7.8-2.7-1.1-3.1-3.7-6.7-3.6.6-2,3.8-2.9,4.7-5.5Z"/>
  <path class="cls-5" d="M58.4,94.2c.7,1.7.2,4.1-2,4.4l-.2-2.1c.7-1.4,1.4-2.1,2.2-2.3Z"/>
  <path class="cls-2" d="M39.7,95l.8.4-1,.4v-.8Z"/>
  <path class="cls-2" d="M69.7,95.1l.9.3-.9.5v-.8Z"/>
  <path class="cls-4" d="M16.6,96.6c2-.2,2.7,2.2.8,3-2,.2-2.7-2.2-.8-3Z"/>
  <path class="cls-2" d="M56.2,96.4l.2,2.1c-.3,1.6,3.2,1.7,4.3,2.2.5-1.1,1-2.3,1.5-3.4,2,.8,3.1,2.2,1.6,4.2-1.6,1.5-1.2,4.4-3,5.4-2.8.3-1.9-3.6-3.6-4.6-1.6-1.5-2.5.2-4.3-.2-1.8-.4-1.6-2.7-1.5-4.2l.8-.6c0,1.9.9,2.7,2.4,2.6-.2-.8-.4-1.5-.6-2.3.7-.4,1.4-.8,2.1-1.1Z"/>
  <path class="cls-4" d="M96.9,98.8c-.3,1.6-.7,2.7-2.1,3.6-1.7-.9-3.4-2.3-1.5-4.1,1.5-1.5,2.3-.6,3.7.5Z"/>
  <path class="cls-3" d="M47.5,98.5l1.2,1.3-1,1.6-1-.3c-.3-1.2,0-2,.9-2.6Z"/>
  <path class="cls-4" d="M24.7,100.2c1.7,2,1.6,2.3,0,4.4-1.2-.4-3.2-1.8-3-3.2,1-.5,2-.9,3.1-1.1Z"/>
  <path class="cls-3" d="M46.6,101.1l1,.3v2.1c0,0-1.4-1.5-1.4-1.5l.4-.9Z"/>
  <path class="cls-3" d="M67.1,101.3c1.3,0,2.3,1.6,3.1,2.4,0,2.3-2.1,4.1-3.4,5.9-1,0-1.9-.5-2.5-1.2,3.3-1.7,2.4-4,2.7-7.1Z"/>
  <path class="cls-3" d="M46.2,102l1.4,1.5-.2,1c-2.7,1.6,2.2,5.5,4,5.4-5,2.3-7.3-4.2-5.2-7.9Z"/>
  <path class="cls-3" d="M47.4,104.6c1.2,2.7,2.2,3.1,4.9,4l-.9,1.4c-1.8,0-6.7-3.8-4-5.4Z"/>
  <path class="cls-3" d="M64.4,108.5c.6.7,1.5,1.1,2.5,1.2l-.5.6c-3.2.7-8.8,2.7-11.1-.5,3.4.5,5.9-.1,9.1-1.3Z"/>
  <path class="cls-3" d="M45.2,112c1.2-.3,2.1.1,2.8,1.3-1.1,2-2.6.3-2.8-1.3Z"/>
  <path class="cls-3" d="M69.5,112.1c-.2,1.6-1.9,3.2-2.8,1.1.7-1,1.6-1.4,2.8-1.1Z"/>
  <path class="cls-2" d="M55.2,114.3l.9.3c-.4,1-.7.9-.9-.3Z"/>
  <path class="cls-7" d="M73.2,96.2c0-2.3-4.2-4.5-5.1-6.6s-.3-7.2-4.6-10.7c-.3-.9,1.8-6.2,1.1-6.8-1.2.5-6.6.6-8.2.6-6.4-.2-19.6,25.8-16.4,27.5.4,1,15.7.7,15.8,0,0,0,2.3,11.6,3.5,14.4.7,0,1-.3,2.1-.6,2.1-.6,3.9-2.1,4.9-4,1.9-3.7,6.9-12.9,6.9-13.8ZM66.6,95.7c-2.6,4.7-.8,13.4-5.7,16-2.2-4.7-2.5-10.3-3.7-15.4-5,1.7-9.5,1.4-14.6.4l1.4-1.9c3.2-5.9,6.4-12.3,10.9-17.3,1.1-.9,2.6-1.4,4.4-1.4l1.9-.2c-2.4,6.2-6.7,11.3-9.5,17.3,2.5-.8,4.9-1.6,7.3-2.6-.7-2.6-.4-8.2,3.5-7.2,2,2.1,2.3,5.8,3.1,8.5,1.6,1.4,3.1,2.7,4.7,4.1l-3.6-.2Z"/>
  <path id="p64" class="cls-6" d="M59.2,76.1c-5.8,6-7.9,15.4-15.3,18.7,3.2-5.9,6.4-12.3,10.9-17.3,1.1-.9,2.6-1.4,4.4-1.4Z"/>
  <path id="p65" class="cls-6" d="M59.2,76.1l1.9-.2c-2.4,6.2-6.7,11.3-9.5,17.3,2.5-.8,4.9-1.6,7.3-2.6,2.4-.7,3-5.1,3.5-7.2,2,2.1,2.3,5.8,3.1,8.5,1.6,1.4,3.1,2.7,4.7,4.1l-3.6-.2c-3.2-.3-6.3-.3-9.4.6-5,1.7-9.5,1.4-14.6.4l1.4-1.9c7.4-3.3,9.5-12.8,15.3-18.7Z"/>
  <path id="p76" class="cls-6" d="M62.4,83.4c-.5,2.1-1,6.5-3.5,7.2-.7-2.6-.4-8.2,3.5-7.2Z"/>
  <path id="p88" class="cls-6" d="M66.6,95.7c-2.6,4.7-.8,13.4-5.7,16-2.2-4.7-2.5-10.3-3.7-15.4,3.1-.9,6.2-.9,9.4-.6Z"/>
</svg>