<?xml version="1.0" encoding="UTF-8"?>
<svg id="_Слой_1" data-name=" Слой 1" xmlns="http://www.w3.org/2000/svg" version="1.1" viewBox="0 0 120 120">
  <defs>
    <style>
      .cls-1 {
        fill: #00c127;
      }

      .cls-1, .cls-2, .cls-3, .cls-4, .cls-5, .cls-6, .cls-7, .cls-8, .cls-9 {
        stroke-width: 0px;
      }

      .cls-2 {
        fill: #0a56b3;
      }

      .cls-3 {
        fill: #ff1080;
      }

      .cls-4 {
        fill: #0d013d;
      }

      .cls-5 {
        fill: #110224;
      }

      .cls-6 {
        fill: #e4ee9b;
      }

      .cls-7 {
        fill: #fff;
      }

      .cls-8 {
        fill: #ff8f46;
      }

      .cls-9 {
        fill: #00c5f4;
      }
    </style>
  </defs>
  <path class="cls-4" d="M105.3,59.1c1.1-3.5,3.1-6.9,3.4-10.5,0-4.7-2.7-9.7-6.1-13-2.4-2.6-4-2.4-7.2-4.3.3-3.2,4-8.9,2.4-11.7-1.1-2.6-3.6-5.7-6.6-5.8-2.3-.3-4.3,1.5-6.3,2.6-4.5-4-6.5-9.9-13.5-11.1-4.2-.8-6.6,1.3-10,3.2-2-1.1-4-2.3-6.2-3.1-3.8-.8-7.3.8-10.4,2.8-3,1.8-4.5,5.4-6.5,8.1-2.6-1.3-4.2-3.1-7.4-2.3-3.1,1.1-5.5,4.5-6.2,7.6,0,2.7.8,5.4,1.1,8.1-4.5,2.4-8.8,3.8-11.7,8.2-3.2,4.2-3.5,9.2-3,14.2.4,2.4,2,4.7,2.3,7.2-1.2,3-3.9,6.1-2.8,9.3.7,3.1,3.1,4.9,4.9,7.6,1.2,2.8,1.5,6.5,3,9.3,2.7,4,6.3,7.4,11.1,8.6,4.6.3,6.2,5.8,12,6.1,5.8.3,10.8,0,12.3-1.8,4.2-5.4.5,5,2,5.3,0,0,7.3.3,10.1.4s1.2-.3,1.6-.8c1.5-1.9,6.5,4,7.6,1.5,4.7-10.8-.7-4.2,6.9,0,7.6,4.2,3.8,3.9,7.8,10.7.8-2.3,3.4-5.5,4.5-8.6,2.4-2.2,4.9-3.6,6.3-5-4.9-1.6-7-3-7.6-4.9-.7-2.4-1.2-3.2-.9-5.9,3-1.6,5.4-3.1,7-5.7,2.8-3.5,2-6.7,3.2-11.1,2.4-2.2,4.9-2.7,5.5-6.2.8-3.4.4-5.7-2.8-9h.3Z"/>
  <path class="cls-8" d="M69.1,7.8c1.2.7,2.3,1.5,3.1,2.6,0,1.9-1.8,3.8-2.6,5.4-1.1-1.5-2.2-3-3.1-4.6.7-1.2,1.5-2.3,2.6-3.2h0Z"/>
  <path class="cls-9" d="M61.6,15c1.5-.4,3.1-.7,4.6-1.1-1.3,1.3-2.6,2.7-3.9,3.9-1.1-.5-2-1.1-3.1-1.8-1.5-1.3-4.7-3.9-5-.3h-1.1c1.1-2.7-2.4-2.6-1.1.1h-1.2c-.7-2.6-4-.7-1.1.4-2.3.3-4.3.7-6.5,1.6,2.4-3,4.3-5.8,8.2-6.9,3.6-1.2,7,2.3,10.3,3.8h-.1Z"/>
  <path class="cls-2" d="M75.8,13.4c3,1.2,3.8,6.1,4.5,8.9-2.3-2.7-5-4.9-7.4-7.3,1.1-1.6.5-2.8,3-1.6Z"/>
  <path class="cls-3" d="M52.9,15.9h-1.1c-1.2-2.6,2.2-2.7,1.1,0Z"/>
  <path class="cls-3" d="M59.2,16.1c-1.6.3-3.2.1-5-.3.3-3.8,3.6-1.1,5,.3Z"/>
  <path class="cls-3" d="M50.7,16.2l-1.1.3c-3.1-1.1.3-3.1,1.1-.3Z"/>
  <path class="cls-8" d="M33.5,17.6c2.3.4.8,3.4-.9,2.2-.5-1.1-.3-1.8.9-2.2Z"/>
  <path class="cls-8" d="M91.4,17.6c2.3.4.8,3.4-.9,2.2-.5-1.1-.3-1.8.9-2.2Z"/>
  <path class="cls-6" d="M59.2,22.4h-3.4c1.6,1.9,3.2,3.9,4.6,5.9l-2.4,1.2c-.1-.8-.3-1.6-.4-2.3-3.1-1.9-6.3-1.2-9.7-1.9-1.5,1.2-2.6,3.1-3.6,4.7,0-4.3,2-9.2,6.5-10.5,3.5-1.1,6.2.4,8.8,2.8h-.3Z"/>
  <path class="cls-6" d="M73.6,20.3c3.2,1.8,4.2,4.5,4.6,8-1.2-.9-2.4-1.9-3.6-2.7-2.4.9-4.9.9-7.4,1.2-2.6.9-4.6,3.6-6.7,5.3,1.2-3.6,3.8-6.1,5.9-9.3l-2.3-.5c2.7-3.2,5.9-3.6,9.6-1.9Z"/>
  <path class="cls-9" d="M84.9,19.2c1.2,2,1.6,2.3,0,4.3-1.1-.4-2.2-.9-3.2-1.3.8-1.3,1.3-2.6,3.1-2.8h.1Z"/>
  <path class="cls-9" d="M28.5,21.7c1.6-.9,2.7,1.2,1.6,2.4-1.8,1.1-2.8-1.2-1.6-2.4Z"/>
  <path class="cls-7" d="M40,21.5c.9-.8,1.8-.9,2.6-.3,1.1,2.4-4.3,3.2-2.6.3Z"/>
  <path class="cls-8" d="M34.3,22.5c1.2,1.2,2.4,2.4,3.6,3.8-.8,2-2.4,3-4,4.2-.8-1.3-2.2-2.8-2.3-4.5.5-1.5,1.5-2.6,2.7-3.5Z"/>
  <path class="cls-3" d="M55.8,22.4h3.4l2.4,1.2c.8-.5,1.6-.9,2.4-1.5l2.3.5c-2,3.2-4.6,5.7-5.9,9.3,2.2-1.8,4.2-4.3,6.7-5.3,2.6-.3,5-.3,7.4-1.2,1.2.9,2.4,1.9,3.6,2.7.3,2.6,0,5-.3,7.7,3.2.4,5.1-2.4,8.1-3.1,2.3,0,4.6.7,6.7,1.5-5.8-.5-9,.7-13.6,3.9-2.7-2.7-3.9.1-3.5,2.8-.9.8-1.9,1.8-2.7,2.6h-1.2c.3-3.5,1.5-6.6,2.3-10-.4-3.2-4.3-3-6.6-1.9-2.3.9-4.5,4.5-6.6,4.9-2.6-1.8-4.7-4.9-7.8-5.5-1.5-.1-3.1.8-4.6,1.5.4,4.2,2,8.4,3.1,12.4h-1.1c-1.3-1.1-2.6-2.4-3.6-3.8-.8-3.6-3-7.3-2.8-11.1,1.1-1.5,2.2-3.5,3.6-4.7,3.5.7,6.6,0,9.7,1.9.1.8.3,1.6.4,2.3l2.4-1.2c-1.3-2.2-3-4-4.6-5.9h.3Z"/>
  <path class="cls-9" d="M94,22.5l.9-.5.9.5v.9l-.9.5-.9-.5v-.9Z"/>
  <path class="cls-3" d="M81.4,24l1.6.7c.3,1.6.5,3.1.8,4.7.8-.3,1.8-.5,2.6-.8l-.4,2c-1.2.9-2.6,1.2-4,1.6,0-2.7-.4-5.4-.5-8.2Z"/>
  <path class="cls-9" d="M83.1,24.6c.9.3,1.8.7,2.7,1.1.3.9.4,1.9.7,2.8-.8.3-1.8.5-2.6.8-.3-1.6-.5-3.1-.8-4.7Z"/>
  <path class="cls-8" d="M92.4,25.1c.3,1.8,1.8,3,0,4.3-1.1-.3-2.2-.7-3.2-.9.7-2,1.3-2.6,3.4-3.2h-.1Z"/>
  <path class="cls-3" d="M39.7,28.8c1.8.1,1.8,3,0,3.1-1.6-.4-1.8-2.7,0-3.1Z"/>
  <path class="cls-8" d="M52.9,31.1c3.1.5,5.3,3.6,7.8,5.5,2.3-.4,4.3-3.9,6.6-4.9,2.3-1.1,6.1-1.5,6.6,1.9-.8,3.4-2,6.5-2.3,10v2.2c-.9.8-1.8,1.8-2.4,2.6l-1.5,1.1c-1.1.3-2.3.7-3.5.9,1.5-2.4,2.8-4.9,4.2-7.4.8-1.5.9-3.4-.8-4.2-1.3-.3-2.4.7-3.1,1.8-1.2,1.6-2.2,3.5-3.6,4.7-.9-1.5-2-3-3-4.6-.8-1.3-1.5-2.7-3.4-2.2-1.8.8-1.1,2.2-.4,3.5.9,1.9,1.6,3.9,2.2,5.9l-2.3.4h-1.1c-.5-1.3-.9-2.4-1.5-3.6-1.1-4-2.7-8.2-3.1-12.4,1.3-.5,3-1.6,4.6-1.5v.3Z"/>
  <path class="cls-6" d="M38.9,34.2c3.1,1.3,5.4,4.6,7.8,6.9,1.1,1.3,2.3,2.7,3.6,3.9.3,1.6.7,3.1,1.1,4.7-3-1.6-5.7-3.5-9-4.2.9,2,2,4,3,6.2-1.6,0-3.1.3-4.7.4-1.3.1-2.6.3-3.9.4,1.2-1.2,2.4-2.4,3.6-3.5-.9-.7-1.9-1.3-2.8-2-2.6-1.8-4-4.2-5.7-6.7-.7.4-1.2.7-1.9,1.1-.4-2.3-1.1-3.2-2.8-4.7,2.8-4,7.7-3.2,11.9-2.4h-.1Z"/>
  <path class="cls-6" d="M92.6,34.2c1.8.7,2.8,2,3.9,3.5h-2.7c-.8,1.8-1.3,3.5-2,5.3-.3-.9-.5-1.9-.8-2.8l-.9.7c-2-.5-3.9-1.1-5.9-1.2.7,1.3,1.2,2.7,1.9,4-1.3,3-2.7,5.9-4.5,8.6-1.6,0-3.4-.3-5-.3.4-1.3.8-2.6,1.2-3.9.8-.1,1.5-.4,2.3-.5-.4-1.6-2-1.9-3.2-1.1-2.2,1.3-4.2,3-6.2,4.6.3-1.8.4-3.4.8-5,1.2-.3,1.6-1.1,1.3-2.2.9-.8,1.9-1.8,2.7-2.6,1.2-.8,2.4-1.8,3.5-2.8,4.6-3.2,7.8-4.5,13.6-3.9v-.4Z"/>
  <path class="cls-3" d="M27.2,36.6c1.8,1.5,2.4,2.4,2.8,4.7.7-.4,1.2-.7,1.9-1.1,1.6,2.6,3.1,5,5.7,6.7-1.5,2.7-3.9,3.5-6.3,5.1.5,5,3.8,5.5,7.6,7.7-3.9,1.2-8.2.7-11.9-1.2-2.3-1.2-3.6-4.3-4.3-6.7.4-2.4,2.7-4.5,4.2-6.3-.7-1.5-1.3-3-1.8-4.6.4-1.6,1.3-3,2.3-4.3h-.1Z"/>
  <path class="cls-4" d="M79.1,38.1c-1.1,1.1-2.3,1.9-3.5,2.8-.4-2.7.8-5.5,3.5-2.8Z"/>
  <path class="cls-3" d="M93.9,37.7h2.7c1.3,2.8.4,5.3,0,8.2,1.1,2.2,4,4.6,3.2,7-.9,6.1-10,8.6-15.1,6.6,3-1.8,5.7-3.4,7.6-6.3-2-1.8-4.3-3-6.6-4.2.5-1.8.9-3.9,2-5.5,1.1-.9,2-1.5,2.6-2.8l.9-.7c.3.9.5,1.9.8,2.8.5-1.8,1.2-3.6,2-5.3h-.1Z"/>
  <path class="cls-9" d="M21.4,38.3c-.1,2.6,0,5.1.1,7.8-.8.4-1.6.8-2.3,1.2-.1,1.6-.4,3.2-.4,4.9-1.1.4-1.8,1.1-2,2.3-1.8-5.4-.5-13,4.6-16.2Z"/>
  <path class="cls-7" d="M54.6,38.6c1.8-.5,2.6.8,3.4,2.2-1.2.5-2.4,1.1-3.6,1.3-.7-1.3-1.3-2.7.4-3.5h-.1Z"/>
  <path class="cls-6" d="M67.7,38.7c1.8.8,1.6,2.8.8,4.2-1.2-1.2-2.3-1.9-3.8-2.6.7-1.1,1.8-2,3.1-1.8h-.1Z"/>
  <path class="cls-9" d="M101.3,38.5c3.9,2.3,5.1,6.3,5.7,10.5l-1.9.3c0-2.2-.7-3.6-2.7-4.5-.4-2-.8-4.2-1.1-6.2h0Z"/>
  <path class="cls-8" d="M84.3,39.4c2,.1,4,.7,5.9,1.2-.5,1.3-1.5,2-2.6,2.8-1.1,1.6-1.5,3.6-2,5.5,2.3,1.2,4.6,2.4,6.6,4.2-1.9,3-4.6,4.6-7.6,6.3-3.2-.5-6.5-.9-9.7-1.8.7-2.8,3.6-.9,5.5-2,.5-.4,1.1-.9,1.6-1.5-.1-.8-.3-1.5-.4-2.3,1.6-2.8,3.1-5.7,4.5-8.6-.7-1.3-1.3-2.7-1.9-4h0Z"/>
  <path class="cls-1" d="M57.9,40.6c.9,1.5,1.9,3.1,3,4.6,1.5-1.2,2.6-3.2,3.6-4.7,1.6.7,2.6,1.3,3.8,2.6-1.3,2.6-2.7,5-4.2,7.4,1.2-.3,2.3-.7,3.5-.9-1.9,2.7-3.8,5.3-6.1,7.7-3.2-2.3-5.4-5.3-7.6-8.5l2.3-.4c-.5-2-1.3-4-2.2-5.9,1.2-.4,2.4-.8,3.6-1.3v-.4Z"/>
  <path class="cls-4" d="M71.6,43.6h1.2c.3,1.1,0,1.9-1.3,2.2v-2.2h.1Z"/>
  <path class="cls-3" d="M20,45q.5.4,0,0Z"/>
  <path class="cls-1" d="M50.4,45h1.1c.5,1.1.9,2.3,1.5,3.4,1.2,3.4,3,6.5,4.9,9.6-3.5.1-7,0-10.5-.1-.7-2.8-3.8-.8-5.7-2-.5-.5-1.1-.9-1.8-1.5.3-.7.5-1.5.8-2.3,1.6-.1,3.1-.3,4.7-.4-.9-2-2-4.2-3-6.2,3.4.7,6.1,2.6,9,4.2-.4-1.6-.7-3.1-1.1-4.7h0Z"/>
  <path class="cls-3" d="M102.2,44.7c2,.8,2.7,2.4,2.7,4.5-2.6.4-2.7-2.7-2.7-4.5Z"/>
  <path class="cls-1" d="M71.6,45.8c-.3,1.6-.5,3.4-.8,5,2-1.5,4-3.2,6.2-4.6,1.3-.8,3-.5,3.2,1.1-.8.1-1.5.4-2.3.5-.4,1.3-.9,2.6-1.2,3.9,1.6,0,3.4.3,5,.3.1.7.3,1.5.4,2.3-.5.5-1.1.9-1.6,1.5-1.9,1.1-5-.8-5.5,2-3.2,0-6.6.9-9.4-1.1,1.5-2.7,2.8-5.5,3.5-8.5.8-.8,1.6-1.8,2.3-2.6h.3Z"/>
  <path class="cls-6" d="M35.3,47.9c-2,.7-4.5,1.1-6.5,0-.3-1.9,6.2-1.5,6.5,0Z"/>
  <path class="cls-8" d="M37.6,47c.9.7,1.9,1.3,2.8,2-1.2,1.2-2.4,2.4-3.6,3.5,1.3-.1,2.7-.3,3.9-.4-.3.8-.5,1.5-.8,2.3.5.5,1.1,1.1,1.8,1.5,1.9,1.1,5-.8,5.7,2-2.8.5-5.7,1.2-8.5,2-3.8-2.2-7-2.8-7.6-7.7,2.4-1.6,4.9-2.4,6.3-5.1h0Z"/>
  <path class="cls-6" d="M94.7,47.4c.5.9,1.1,1.8,1.6,2.7-2.7-1.5-5.1-2-8.2-2.2-.1-1.6,5.4-.4,6.5-.4h.1Z"/>
  <path class="cls-3" d="M17.6,50q.5.3,0,0Z"/>
  <path class="cls-9" d="M51.2,51.3h0Z"/>
  <path class="cls-3" d="M104,51.3c2.6-1.5,2.2,4.6,0,3.8-.8-1.2-.7-2.4,0-3.8Z"/>
  <path class="cls-3" d="M18.8,52.2c.5,1.5-.4,4.6-2,2.3.3-1.1.9-1.9,2-2.3Z"/>
  <path class="cls-3" d="M102.4,58.2c-.5,2.2-1.9,4.5-1.2,6.6l.5,1.5c-.9.9-1.9,1.8-2.8,2.7-.9-1.1-1.9-2-2.8-3.1,1.6-.9,2.3-2.7,2.2-4.5,1.3-1.1,2.7-2.2,4-3.2h.1Z"/>
  <path class="cls-2" d="M22.4,60.3c.4,2.6.8,5.3.9,7.8h-.9l-2.2.3c2.2-2.8.8-4.6-1.9-6.2l-.7-.4c1.8-2,2.2-2.2,4.7-1.5Z"/>
  <path class="cls-6" d="M57,59.5c-4.2,1.6-11.7,2.4-13.6,7,2.3.5,4.6.5,7,.5-.8,3.8-4.3,5.5-5.1,9.4-1.1-2.7-2.2-5.4-3.2-8-3.2,2.2-6.1,0-9.6-.5.5,1.2,1.2,2.6,1.8,3.9-2.4-.9-3.2-2.6-4.3-4.9,1.5-1.5,3-2.8,4.6-4.2,7.2-2.8,14.8-4.2,22.5-3.2h0Z"/>
  <path class="cls-1" d="M57,59.5h1.3c3.4,4.7.9,8.9,1.2,14-2.7,3-4.7,7.4-9,7.8-1.8-1.6-3.5-3.1-5.3-4.7.7-3.9,4.3-5.7,5.1-9.4-2.4,0-4.7,0-7-.5,1.9-4.6,9.4-5.3,13.6-7h0Z"/>
  <path class="cls-1" d="M66.3,59.5c3.5,1.6,7.3,2.6,10.8,4,1.3,1.1,1.5,3.5,2,5-2.6-1.6-4.3-2-7.4-2,1.2,2.3,2.8,4.3,4.6,6.5,0,1.8-.1,3.6-.4,5.4-2.3.8-4.6,1.6-6.7,2.4-2.7-2.3-4.5-5.4-6.5-8.4,0-3.2-.8-6.7-.1-10,.7-2.2,1.5-3,3.9-3h-.1Z"/>
  <path class="cls-6" d="M66.3,59.5c7.8-.7,15.1.4,22.3,3.5,1.3,1.2,2.6,2.4,3.8,3.6-.4,1.1-.8,2-1.2,3.1-3.5-1.3-6.9-1.1-10.7-.9-3.5.9-1.2,6.3-1.5,8.9-1.2-1.2-1.8-3.2-2.7-4.7-1.6-2-3.2-4-4.6-6.5,3.1,0,4.9.4,7.4,2-.5-1.6-.7-3.9-2-5-3.5-1.5-7.3-2.4-10.8-4Z"/>
  <path class="cls-3" d="M22.4,60.3c1.3.8,2.6,1.8,3.8,2.7v2.4c-.9.9-1.9,1.9-2.8,2.7-.1-2.7-.5-5.3-.9-7.8Z"/>
  <path class="cls-6" d="M104.7,60.9c.8,1.6,3.5,4.2,2.6,5.9-2.2,0-2.8.5-3.9,2.4-.5-.9-1.2-2-1.8-3l-.5-1.5c1.2-1.3,2.3-2.7,3.5-3.9h.1Z"/>
  <path class="cls-6" d="M17.7,61.8l.7.4c.5,2.3-.1,4.3-2.6,2.2.5-.9,1.2-1.8,1.9-2.6Z"/>
  <path class="cls-9" d="M18.4,62.1c2.7,1.6,4,3.5,1.9,6.2-.5.9-1.2,2-1.8,3-1.3-1.9-2.8-3.8-4.2-5.5.5-.5,1.1-.9,1.5-1.5,2.4,2.2,3.1,0,2.6-2.2Z"/>
  <path class="cls-6" d="M98.2,61.4c0,1.9-.5,3.5-2.2,4.5-2.6-2.7-.3-3.6,2.2-4.5Z"/>
  <path class="cls-6" d="M26.2,62.9c3-.3,2.6,2.6,0,2.4v-2.4Z"/>
  <path class="cls-9" d="M34.5,62.8c-1.6,1.3-3.1,2.8-4.6,4.2.9,2.3,1.8,3.9,4.3,4.9-.5-1.3-1.2-2.6-1.8-3.9,3.5.7,6.3,2.7,9.6.5,1.1,2.7,2.2,5.4,3.2,8,1.8,1.6,3.5,3.1,5.3,4.7-.5,1.8.5,3.4.9,5.1-.7.4-1.2.9-1.9,1.3-1.1-.8-2.2-1.8-3.2-2.7-.3,1.9-.7,3.6-.9,5.5-4.2-.3-8-2.2-8.6-6.6v-3.5c1.2,1.1,2.4,2.3,3.6,3.5-.8-3.5-1.1-6.2-.3-9.9-4.2,1.6-7.3,2.2-11.7,1.6,1.9,1.9,4.3,3.1,4.9,5.8-2.6-.5-5-.9-6.7-3.1-1.6-2.4-2.3-5.9-1.1-8.6,2-3.5,5-5.9,9-7h0Z"/>
  <path class="cls-2" d="M66.9,63.6c1.9-.5,1.9,3.2,0,2.7-.8-.9-.8-1.8,0-2.7Z"/>
  <path class="cls-9" d="M88.7,63c5.3,1.6,10.7,7.2,8.2,13-1.3,3.9-4.3,4.7-8,5.4.7-3.2,3.2-4.5,5.1-7-2.2.5-4.3,1.2-6.5,1.8-1.5-.7-3-1.3-4.6-1.9.3,3.6-.3,6.2-1.5,9.6,1.2-1.1,2.4-2.3,3.6-3.4,0,1.2.1,2.3.3,3.5-1.1,4.7-6.7,8.2-11.3,5.9-6.1-2.4-11.9-10.9-11.5-17.4,2,3,3.6,6.1,6.5,8.4,2.3-.8,4.6-1.6,6.7-2.4.3-1.8.4-3.6.4-5.4.8,1.6,1.3,3.5,2.7,4.7.3-2.6-2-8,1.5-8.9,3.8,0,7.2-.4,10.7.9.4-1.1.8-2,1.2-3.1-1.2-1.2-2.4-2.6-3.8-3.6h.1Z"/>
  <path class="cls-9" d="M33.8,65.7c1.2-1.5,4.2.1,1.9,1.3-1.5.1-2-.4-1.9-1.3Z"/>
  <path class="cls-1" d="M84.1,65.6l.9-.5.9.5v.9l-.9.5-.9-.5v-.9Z"/>
  <path class="cls-3" d="M107.2,66.8c-.7,1.6-1.3,3.4-2.7,4.5-.5-.5-.9-1.2-1.2-2,.9-2,1.8-2.4,3.9-2.4Z"/>
  <path class="cls-3" d="M22.4,68.2h.9c.8,1.1,0,4.7-1.5,2.2,0,0,.5-2.2.5-2.2Z"/>
  <path class="cls-9" d="M43.5,68l.9-.5.9.5v.9l-.9.5-.9-.5v-.9Z"/>
  <path class="cls-6" d="M84.3,70.6c1.8-1.2,3.2,1.9.9,2.2-1.2-.4-1.6-1.1-.9-2.2Z"/>
  <path class="cls-6" d="M88,70.7q.4.4,0,0Z"/>
  <path class="cls-3" d="M101.1,71.8c.4,6.1-1.2,13.2-6.6,16.7-2.2.8-4.7.4-6.9.3,0-1.3.3-2,1.2-2.3,3.9-1.9,7.7-1.9,9.6-6.5,1.8-2,.7-7.6,2.8-8.2h-.1Z"/>
  <path class="cls-3" d="M21.1,73.3h.9l.5.8-.5.9h-.9l-.5-.8.5-.9Z"/>
  <path class="cls-2" d="M40.1,74.1c-.7,3.5-.5,6.3.3,9.9-1.2-1.2-2.4-2.3-3.6-3.5v3.5c-1.1-1.3-1.9-1.9-3.5-2.4-.5-2.8-3-4-4.9-5.8,4.5.7,7.6,0,11.7-1.6Z"/>
  <path class="cls-2" d="M59.6,73.6c.4,4.2-1.8,7.2-4,10.5-2.3,3.2-6.1,6.3-10.1,6.6.3-1.9.7-3.6.9-5.5,1.1.9,2.2,1.8,3.2,2.7.7-.4,1.2-.9,1.9-1.3-.4-1.8-1.5-3.4-.9-5.1,4.3-.4,6.3-4.9,9-7.8Z"/>
  <path class="cls-2" d="M82.9,74.3c1.6.5,3.1,1.2,4.6,1.9,2.2-.5,4.3-1.1,6.5-1.8-1.9,2.4-4.5,3.6-5.1,7-1.6.5-2.6,1.1-3.4,2.6,0-1.2-.1-2.3-.3-3.5-1.2,1.1-2.4,2.3-3.6,3.4,1.2-3.4,1.8-5.9,1.5-9.6h-.1Z"/>
  <path class="cls-8" d="M69.4,75.7q.4.4,0,0Z"/>
  <path class="cls-3" d="M50.1,92.5c-3,.8-7,2.2-9.9.7-3-1.2-4.6-4.5-7-6.5-1.9-1.1-4-1.8-5.9-2.7-2.8-1.6-3-6.3-5.9-7.6.8,3.5,2,7.4,4.5,10.4,2.8,2,6.3,3.1,9.2,5.4v.9c0,.9.7,1.6,1.5,2s.4.1.5.3c.4.3.8.4,1.2.4,1.5.1,2.7.7,3.8,1.3s1.8.7,2.7.4,1.6-.4,2.7-.4h1.1c.7-.7,1.6-1.1,2.6-1.5-.3-1.2-.5-2.3-.8-3.2h-.1Z"/>
  <path class="cls-6" d="M73.1,76.7l.9-.5.9.5v.9l-.9.5-.9-.5v-.9Z"/>
  <path class="cls-9" d="M61.6,75.7c0,1.5.3,4,1.1,8.9.8,4.5.9,6.6,2.3,10.7,2,5.8,2,6.5,1.5,6.6-2,.5-6.2,0-8.8,0,.3-6.2.3-6.6.8-11.9s0-1.2.3-1.9c.5-3.1,1.8-8.2,3-12.4h-.1Z"/>
  <path class="cls-6" d="M54.8,93.4c.7-.5,1.3-1.1,2.3-1.3s1.1-.8,1.1-1.5,0-1.3.3-2.2c-.3-1.1-.4-2.2-.7-3.1-.8,1.1-1.8,2.2-2.6,3.2-.4,1.3-1.8,2.8-.8,4,.1.3.3.5.4.8Z"/>
  <path class="cls-6" d="M64.3,85.3c1.3,1.5,2.7,3,4,4.5-.3,3.6-.8,7,.4,10.5-.8-.5-1.5-.9-2.3-1.5-.8-2.4-1.5-5-2.3-7.6,2-.8,1.9-1.6-.3-2.3,0-1.2.1-2.4.3-3.8h.1Z"/>
  <path class="cls-8" d="M54.8,93.4c0-.3-.3-.5-.5-.8-.9-1.3.4-2.7.8-4-1.6,1.3-3.2,2.7-5,3.9.4,1.1.5,2.2.8,3.2,1.5-.5,2.8-1.2,3.8-2.3h.1Z"/>
  <path class="cls-3" d="M64.2,89.1c2.2.7,2.2,1.3.3,2.3l-.3-2.3Z"/>
  <path class="cls-8" d="M68.3,89.8c1.5,1.1,3.1,2.2,4.7,3.1-.7,1.2-1.3,1.5-2.6,1.9,0,1.3.1,2.6.3,3.9,1.5-.7,2.8-1.3,4.3-2,1.1,2.4.1,4-.7,6.3-2,0-3.9-1.8-5.7-2.8-1.2-3.5-.7-6.9-.4-10.5h0Z"/>
  <path class="cls-3" d="M79.9,93.7c-2.3.3-4.7-.4-6.9-.8-.7,1.2-1.3,1.5-2.6,1.9v.8c1.2.4,2.3.9,3.2,1.8.4-.3.9-.4,1.3-.7,0,.3.1.4.3.7.9-.3,1.9-.5,3-.5s2.2.1,3,.4c.9-.5,1.9-1.2,2.7-2,1.2-1.3,1.8-3.4,2.3-5-2.2,1.1-4.2,2.6-6.5,3.4h.1Z"/>
  <path class="cls-6" d="M89.8,92.7c2.6,2.8,1.1,6.6,5.5,8.4-1.8,1.3-3.5,2.7-5.3,3.9-1.8-1.2-3.5-2.4-5.3-3.8,3.6-2,3.8-5.1,5-8.6h0Z"/>
  <path class="cls-3" d="M84.8,101.4c1.8,1.2,3.5,2.6,5.3,3.8,1.8-1.2,3.6-2.6,5.3-3.9.7.4,1.5.8,2.2,1.2-1.5,1.3-3.2,2.7-4.6,4.3-.9,2-1.8,4-3,6.1-1.3-1.8-1.6-4.5-2.4-6.5-1.8-1.2-3.5-2.4-5.3-3.6.8-.4,1.6-.8,2.4-1.1v-.3Z"/>
  <path class="cls-5" d="M77.3,69c.3-2.1.3-3.8,0-5.3-.3-2.3-1.8-9.1-5.7-12.2,0,0,3.6-6.4,3.6-7.8-9.4-6.4-20.3-5.8-26.4,2-4.7,5.5-5,9.5-5.4,12.2-.4,2.7,0,8.7.3,9.1.7,3.6,2.1,6.1,2.7,6.8,2.7,3.6,6.7,6,11.1,7.1,6,1.4,12.2-.7,16.6-4.8s.3-.3.4-.6c.9-1.1,2.1-3.6,2.8-6.5M67.3,76.4c-6.3,2.7-13.9.9-17.9-4.8-5.8-9.1-3-24,7.4-28.9,4.3-1.8,8.1-1.3,12.1.1s3.1,3.3,2.1,5.3,0,0,0,0c-.7,1.4-2.1,2.3-3.7,2.1s-3.8-.3-5.8,0-1.1.3-1.6.6c-1.6,1-3,2.4-4.4,3.7,3.7-.4,8.7-1.8,12.4-.4,8.8,3.4,8.1,18.6-.4,22v.3Z"/>
  <path id="p52-2" class="cls-7" d="M72.7,44.4c-1,2-1.8,4.1-2.8,6.1-1.8,0-3.8-.3-5.7-.3s-4.7.9-6.4,2.4-1.6,1.4-2.3,2.1c3.7-.4,8.7-1.8,12.4-.4,8.8,3.4,8.1,18.6-.4,22-6.3,2.7-13.9.9-17.9-4.8-5.8-9.1-3-24,7.4-28.9,5.7-2.6,10.7-.4,15.9,1.8h-.1ZM64.3,67.4c.1-.4.4-.7.6-1.1.6-1.1.3-2.6-.7-3.4s-2.3-1.6-3.7-1.8-1.8.1-2.3,1c-.9,1.3-1.1,2.4-1.1,4s.6,1.4,1.3,1.7,1.8.7,2.8,1,2.6,0,3.1-1.3h0Z"/>
  <path id="p71-2" class="cls-5" d="M59.9,61c1.8.3,3.3,1.3,4.7,2.3s1.1,1.7.6,2.7-.9,1.6-1.3,2.4-1,1-1.7.7c-1.4-.4-3-1-4.4-1.6s-.7-.6-.7-.9c-.1-2.1.1-3.4,1.4-5s.9-.7,1.4-.6h0Z"/>
</svg>