<?xml version="1.0" encoding="UTF-8"?>
<svg id="_Слой_1" data-name=" Слой 1" xmlns="http://www.w3.org/2000/svg" version="1.1" viewBox="0 0 120 120">
  <defs>
    <style>
      .cls-1 {
        fill: #ffaa92;
      }

      .cls-1, .cls-2, .cls-3, .cls-4, .cls-5, .cls-6, .cls-7 {
        stroke-width: 0px;
      }

      .cls-2 {
        fill: #012b5d;
      }

      .cls-3 {
        fill: #00b5d8;
      }

      .cls-4 {
        fill: #ff8500;
      }

      .cls-5 {
        fill: #fefefc;
      }

      .cls-6 {
        fill: #e92e58;
      }

      .cls-7 {
        fill: #fff;
      }
    </style>
  </defs>
  <path class="cls-6" d="M68.1,6.8c2.5,2.3,3.3,5.3,5.4,7.8,4.1,0,8.4-1.2,12.2.9,2.9,2,5.3,4.9,6.2,8.4.9,3.1,0,6.4.3,9.5,6,.5,11.8-.3,16.3,4.6,5,4.6,2.4,12.6-2.8,16-2.7,1.7-3.4,3.7-2.4,6.8,3.6,3.2,6.8,6.6,7.4,11.5.3,2.7.5,6-.9,8.2v.8c-.7,3.3-3.7,6.8-6.6,8l-1.1.8c-3.4,3.2-7.8,2.3-11.5,4.4l-.7.4v4.9c0,1.2-.1,2.3-.3,3.3v.9c-.4,1.6-1.1,2.7-2.1,3.8l-.8.9c-.7.9-1.5,1.6-2.5,2l-.7.4c-1.3.9-2.4,1.7-4,1.9h-2.9l-1.5-.4c-2.4-.7-4.4-1.5-6.4-2.8,0-1.7-.8-2.4-2.5-1.9-1.1-.4-2.3-.8-3.3-1.3l-1.2-.7-1.7-.5-.9.3c-.8.4-1.6.9-2.5,1.3l-1.2.7c-.8.4-1.6.7-2.3,1.1l-.7.4c-1.5.9-3.1,1.7-4.6,2.5l-1.3.5-.9.4-1.3.7c-4.1.9-9.4-.7-11.9-4.1l-.4-.7c-3.3-2.5-3.6-6.6-3.2-10.6v-.9c-.5-1.2-.5-3.2-2.3-3.3-2.7-.5-5.3-1.1-7.7-2.4l-1.2-.7c-2.4-1.3-4.1-2.7-5.7-4.8l-.8-1.1c-2.7-4.1-3.3-9.5-2-14.2,1.3-4.1,4-6.8,6.9-9.7v-4.5c-3.2-2.5-6.1-4.2-7.4-8.2-2.1-4.5.1-10.1,4.5-12.3,4-2.3,8.8-1.9,13.1-2.4-.5-5.8-.9-10.7,3.7-15.1,4.4-4.9,10.3-4.8,16.3-3.6,2.3-3.4,3.7-7,7-9.7,4.4-3.6,11.4-2.7,15,1.6h-.3Z"/>
  <path class="cls-2" d="M58.8,4.5c3.2,0,5.8,1.1,7.8,3.7,1.6,1.7,1.1,3.6,1.9,5.6-1.2,2.3-2.4,4.4-3.4,6.6-1.7,1.3-2.9,4.9-5.2,4.6-2.1-.7-3.7-3.2-5.3-4.6-1.3-2.3-2.5-4.5-3.6-6.8-.7-4.5,3.6-8.9,8-9.2h-.1Z"/>
  <path class="cls-3" d="M58.8,5.9c3.6.5,8.5,4.4,6.9,8.4-1.2,2.9-3.2,6.1-5.8,7.8-2.4-1.7-4.2-4.4-5.7-6.9-.8-1.7-1.7-3.2-.3-4.8.5.8,1.1,1.7,1.5,2.5.8,2.5,2.1,4,4.4,5.3,2.5-1.3,3.6-3.6,4.2-6.2-1.5,1.1-2.8,2.4-4.2,3.3-1.3-.4-2.4-1.2-3.6-2.1,3.8-.3,5.3-5.7,1.1-6.4l1.5-1.1h.1Z"/>
  <path class="cls-4" d="M94.1,6.2h.9c0,2.7-2.5,7.7-4.2,9.3l-.8-.4c.5-3.1,2.5-6.4,4.2-8.9h-.1Z"/>
  <path class="cls-5" d="M57.4,7c4.2.7,2.8,6.1-1.1,6.4l-.9-.3c-.5-.8-1.1-1.7-1.5-2.5,1.1-1.2,2.3-2.4,3.4-3.4h0Z"/>
  <path class="cls-2" d="M64,12c-.8,2.5-1.9,4.9-4.2,6.2-2.3-1.3-3.6-2.8-4.4-5.3l.9.3c1.2.9,2.1,1.7,3.6,2.1,1.6-.9,2.8-2.3,4.2-3.3h-.1Z"/>
  <path class="cls-4" d="M99.5,11.9c.8.5,1.3,1.2,1.5,2-2.1,2.5-4.9,6.8-8.2,7.6-.7-2.1,1.3-3.7,2.4-5.3,1.2-1.3,2.5-4,4.4-4.2Z"/>
  <path class="cls-4" d="M50.9,13.6c1.2,2.3,2.4,4.5,3.6,6.8.8,3.4,1.1,7,1.6,10.5-2.4-1.3-3.6-4-4.9-6.2-1.5-3.4-3.3-6.2-1.7-9.9,0,0,1.5-1.1,1.5-1.1Z"/>
  <path class="cls-4" d="M68.5,13.9l.8.4c1.1,2,2.1,3.6,3.8,4.9,3.1-.8,5.8-1.1,8.9,0-2.1.4-4.1,0-5.4,1.9-.4,2,0,3.2.9,4.9-1.7,2.3-2.7,4.6-4.1,7-.7-1.6-1.1-3.3-2.8-4.1-2.1-.4-4.1-.1-6.1.5,0-3.1.4-6,.5-9,1.2-2.3,2.4-4.4,3.4-6.6h0Z"/>
  <path class="cls-1" d="M69.3,14.3c1.5.7,2.7,1.7,3.8,2.7,4.2-.8,9.9-2.3,12.9,1.9,1.5,1.6,3.7,2.9,3.6,5.3,0,1.5.3,3.7-1.1,4.5-.5-2.8.7-6.8-3.4-6.8-1.1-1.1-1.9-2.1-3.3-2.5-2.9-1.2-5.8-.8-8.9,0-1.7-1.3-2.8-2.9-3.8-4.9h.3Z"/>
  <path class="cls-1" d="M46.2,16.9c1.1-.8,2.1-1.6,3.3-2.1-1.6,3.7.3,6.6,1.7,9.9,1.3,2.3,2.5,4.9,4.9,6.2v1.7c-1.3,0-2.7-.3-3.8-.4-1.5.9-2.8,2.3-4.5,2.5-.9-.9-1.7-1.9-2.1-3.1,1.2-1.1,2.8-1.9,3.1-3.4.4-2.4-1.6-4.2-1.7-6.8-.4-3.2-3.7-3.1-6.1-3.1h-2.1c-4.8-.3-8.6,4.6-9,9-1.3-.9-1.1-3.1-.9-4.4,3.2-6.5,10.9-8.9,17.4-6.2Z"/>
  <path class="cls-4" d="M12.1,18.8c0,1.1-.4,1.9-1.3,2.4-1.5-1.2-.4-3.1,1.3-2.4Z"/>
  <path class="cls-1" d="M12.1,18.8c2,.4,2.8,1.9,3.3,3.7-1.5,1.7,0,2.4.8,4-2.5-1.2-4.5-2.5-5.4-5.3.9-.5,1.5-1.3,1.3-2.4Z"/>
  <path class="cls-4" d="M38.8,18.5c-3.1,1.9-6,5.2-6.6,8.8.5,2.7,2.1,4.4,4.4,5.6l.8,1.5c.8.9,1.7,2,2.5,2.9-1.2.5-2.7.4-3.8.9-1.6,1.3-2.3,3.6-3.4,5.3-1.1,1.1-2.8,1.5-4.1,1.9-1.5-.8-3.1-1.5-4.5-2.3-1.1-1.2-2.3-2.4-3.4-3.3-1.6-.5-3.4-.4-5-.4,2.9-2.1,6.8-1.5,10.2-1.5s2.5-2.3,3.3-3.7c.9-2.3.7-4.4.7-6.8.5-4.4,4.2-9.3,9-8.9h.1Z"/>
  <path class="cls-2" d="M38.8,18.5h2.1c2.8,1.9,4.6,4.5,2.1,7.7h-3.2l-1.7-.4c0-.8.1-1.5.5-2.1,1.9,0,2.7-.5,2.3-2,0-.9-.5-1.3-2-1.3-1.6,1.1-3.6,3.8-3.6,5.8v2.1c0,2,.7,2.8,2.4,2.4.9-.1,1.9-.5,2.7-1.1h1.7c-.3,2.7-.9,2.8-3.3,3.4h-2.1c-2.3-1.5-3.8-3.1-4.4-5.7.5-3.6,3.6-6.9,6.6-8.8h-.1Z"/>
  <path class="cls-4" d="M40.8,18.5c2.4,0,5.8-.1,6.1,3.1,0,2.5,2,4.4,1.7,6.8-.3,1.6-2,2.5-3.1,3.4-.7-2-1.5-3.8-2.7-5.6,2.7-3.1.8-5.8-2.1-7.7Z"/>
  <path class="cls-2" d="M82,19.2c1.5.5,2.3,1.6,3.3,2.5.7,2.4,2.4,4.4,1.3,6.8-.7,2.3-1.3,2.8-3.6,3.4-1.3-.7-2.7-.7-4.2-.4l-.4-.8c1.2-.1,4,.1,4.5-1.3.4-.8.9-1.5,1.3-2.3l.8-.4c-.8-2.3-1.6-5.8-4-6.8l-1.3,1.1c-1.1.9-.9,1.7.1,2.7.5.5,1.1.9,1.7,1.5-.4.8-.9,1.5-1.9,2-.8-.5-1.5-.9-2.1-1.5-1.1-1.7-1.3-2.9-.9-4.9,1.3-2,3.4-1.5,5.4-1.9v.3Z"/>
  <path class="cls-3" d="M38.8,20.4c1.5,0,2.1.4,2,1.3-1.3-.1-2.1.5-2.3,2-.3.7-.5,1.5-.5,2.1l1.7.4c.9,1.1,1.6,2.1,2.3,3.4h-1.7c-1.5-1.9-2.9-2.7-5-3.4,0-2,2-4.6,3.6-5.8Z"/>
  <path class="cls-5" d="M54.4,20.5c1.6,1.5,3.2,4,5.3,4.6,2.4.3,3.4-3.3,5.2-4.6-.1,3.1-.5,6-.5,9l-.4.7-.8,1.6.8.4c2.7.8,6,2.8,8.6,2.7l.5-1.7c1.5-2.4,2.4-4.8,4.1-7,.7.5,1.5.9,2.1,1.5l1.2.8c1.1-.3,2.3-.5,3.3-.8-.4.8-.9,1.5-1.3,2.3-1.6-.1-3.6-.7-5,0l.5,1.3.4.8c.4,1.7,2.8,1.2,4,1.1-.4,2.1-2.3,3.6-3.4,5.6l1.3,1.2c2.7,1.9,2.7,6.6,5.7,7.8.8,0,1.5-.3,2.3-.8,2-1.3,4.1-2,6.4-2.8-1.2,2.3-2.8,3.8-1.9,6.5,4.1.5,8.1.8,11.9-.9-1.1,1.5-2.3,2.8-4.1,3.3-.7,0-1.3-.3-2-.3-2.4,2.3-5,2.3-8.2,2.5h-2.8c0,1.9,0,3.6.9,5.2,1.6.4,4.4,0,5.4,1.3l-1.1,1.2c-.5,1.1-.8,2.1-.9,3.3v.7l.4.5c1.2,3.2,2.1,6.4,2.5,9.7-2.5-.8-4.5-1.9-6.6-3.4,0-2.4-.8-4.4,1.6-5.7l.3-.7c-.9-.4-2-.7-2.9-.9-.4,1.1.5,4.2-1.2,4.1,0-3.6.3-6.6-1.5-9.9-.4-1.7-.7-3.4-1.2-5-1.1-1.9-2.9-2.7-2.7-5h.7v-.8h-.7c-.5-6.2-6.6-11-12.6-11.1h-.9l-.9-.4-1.1-.9c-1.7-1.2-3.4-1.9-5.6-1.7-4,0-6,3.1-9.8,3.4-5.8.8-12.3,6.2-11.4,12.7v.9c-4.1,4.8-4.6,10.2-.5,15.1-.1,4,.5,7.2,2.7,10.6-.4,1.1-.4,2.7-1.1,3.4-2,.5-2.5,1.6-3.4,3.2-.8-.5-1.5-.9-2.3-1.5v-.7l-.9.5c-2.5.8-2.9,1.1-3.7,3.6-.8,0-1.7-.3-2.5-.3.9-3.3,5.2-5.7,7.3-8.6,1.7-1.3,1.2-5-.9-5.4-2.8.9-5.3,2.9-7.8,4.4l.4-1.9.5-1.3c.5-1.9,1.1-3.6,1.7-5.3l.5-.5v-.8c.4-2.7-.1-3.8-2-5.7,1.5-1.1,3.4-.7,4.9-1.6,1.3-.9.8-3.2.7-4.5h-2c-3.7-.5-7.3-1.1-11-1.5-2.1-1.6-5-2.7-5.8-5.4,4,2.8,8.4,2.4,13,2l1.3-1.1c-.8-2.3-2.1-4.1-3.4-6.2,1.5.8,3.1,1.5,4.5,2.3,1.9.9,3.2,2.3,5.4,2,1.3-.4,1.9-2.1,2.7-3.2,1.2-2,2.9-3.7,4.2-5.7l-1.1-1.2c-.8-.9-1.7-2-2.5-2.9l1.2-1.3c2.4-.7,3.1-.8,3.3-3.4-.5-1.2-1.3-2.4-2.3-3.4h3.2c1.2,1.7,1.9,3.6,2.7,5.6.4,1.3,1.2,2.1,2.1,3.1,1.7-.3,3.1-1.6,4.5-2.5,1.3.3,2.7.4,4,.4v-1.7c-.7-3.4-.9-7-1.7-10.5h.3Z"/>
  <path class="cls-3" d="M80.8,20.4c2.4.8,3.2,4.5,4,6.8l-.8.4c-1.1.3-2.3.5-3.3.8l-1.2-.8c.9-.5,1.5-1.2,1.9-2-.5-.5-1.2-.9-1.7-1.5.8-.4,1.5-.8,1.9-1.5-.3-.8-.9-1.2-2.1-1.3l1.3-1.1h.1Z"/>
  <path class="cls-5" d="M40.8,21.7c.4,1.5-.4,2.1-2.3,2,.1-1.5.9-2.1,2.3-2Z"/>
  <path class="cls-5" d="M79.5,21.4c1.2,0,1.9.5,2.1,1.3-.5.7-1.2,1.1-1.9,1.5-1.1-.9-1.2-1.9-.1-2.7h-.1Z"/>
  <path class="cls-4" d="M85.2,21.8c4.1,0,2.9,4,3.4,6.8v3.1c-1.3,3.6-5.6,4.8-8.1,7.8l-1.3-1.2c1.2-2,3.1-3.4,3.4-5.6v-.8c2.4-.7,3.2-1.2,3.7-3.4,1.1-2.4-.8-4.4-1.3-6.8h.1Z"/>
  <path class="cls-4" d="M15.4,22.4c1.9,2,4.8,4.2,5.3,7-2.3.3-3.1-1.7-4.5-3.1-.7-1.6-2.3-2.4-.8-4Z"/>
  <path class="cls-1" d="M70.9,25.4h.9l.4.8-.4.8h-.9l-.4-.8.4-.8Z"/>
  <path class="cls-4" d="M104.6,25.7c1.5-.7,2,0,2.3,1.3-2.3.9-4.2,2-6.5,2.9-.8.3-1.3-.1-1.3-1.2,1.7-1.2,3.6-2.4,5.4-3.2h.1Z"/>
  <path class="cls-5" d="M35.2,26.2c2.1.8,3.6,1.7,5,3.4-.9.5-1.7.9-2.7,1.1.3-1.7-.5-2.5-2.4-2.4,0,0,0-2.1,0-2.1Z"/>
  <path class="cls-3" d="M35.2,28.3c1.9-.1,2.7.7,2.4,2.4-1.7.4-2.5-.4-2.4-2.4Z"/>
  <path class="cls-1" d="M70.6,29c1.7.7,2.1,2.5,2.8,4.1l-.5,1.7c-2.8.3-6-1.9-8.6-2.7,1.1-.7,1.1-1.3,0-2l.4-.7c2-.7,4-.9,6.1-.5h-.1Z"/>
  <path class="cls-3" d="M77.9,29.7c1.5-.7,3.4,0,5,0-.5,1.5-3.2,1.1-4.5,1.3l-.5-1.3Z"/>
  <path class="cls-4" d="M64,30c1.1.7,1.1,1.5,0,2l-.8-.4.8-1.6Z"/>
  <path class="cls-3" d="M78.8,31.8c1.5-.4,2.9-.3,4.2.4v.8c-1.5.1-3.8.7-4.2-1.1h0Z"/>
  <path class="cls-5" d="M88.7,31.6c.9,2,2.3,4.9,4.9,4.4,4-.8,8.6,1.1,12.1,2.9-.1.7-.3,1.2-.4,1.9-.8-.5-1.5-1.2-2.3-1.7-1.6-1.3-3.3-1.6-5.3-1.6s-5.3.5-8,1.9c.4,1.3.8,2.7.8,4.1-1.9,0-3.3-2.3-5-1.9,0,2.1,1.9,3.4,3.2,4.8-.8.7-1.5.9-2.3.8-3.1-1.2-3.1-6-5.7-7.8,2.4-3.1,6.8-4.4,8.1-7.8h-.1Z"/>
  <path class="cls-3" d="M36.5,33h2.1l-1.2,1.5-.8-1.5h-.1Z"/>
  <path class="cls-1" d="M29,34.2c-.8,1.5-1.3,3.7-3.3,3.7-3.3,0-7.3-.5-10.2,1.5-.9,1.1-1.7,2.3-2.4,3.4-.7.3-1.3.5-2,.8.4-2.1,0-4,2-5.3,2.9-1.9,6.6-3.3,10.2-2.3,2.1.5,3.8-1.1,5.7-1.9Z"/>
  <path class="cls-2" d="M60,35.5c2-.1,3.8.5,5.6,1.7l1.1.9.9.4.8.8v-.7c6,0,12.1,4.9,12.6,10.9v.9c0,2.4,1.6,3.2,2.8,5,.5,1.6.9,3.3,1.2,5-.7,3.7-3.3,6.2-3.2,9.9-.3,4.4-2.9,8.8-6.8,11-4.1,2.8-8.5.5-12.2,4.6.4,1.1.8,2.1,1.3,3.1,2.1,3.2,0,9.3-4.4,8.9-4.4-.9-5.6-5.3-3.6-9,1.1-1.1,1.9-1.1,2.4,0l-.4.8c-1.7,2.1-.1,5.4,2.4,5.7,2.3-1.7,2.7-2.9,1.6-5.6-.7-3.1-2.1-3.7-4.9-4.9-2.4-.8-4-2.5-6.6-1.7-.4-1.1-1.2-1.3-2.3-.7-3.2-.7-5.2-2.7-7.7-4.6-2.3-3.4-2.8-6.6-2.7-10.6-4.1-4.9-3.4-10.3.4-15.1h.8l-.7-.9c-.9-6.4,5.6-11.8,11.4-12.7,3.8-.3,5.8-3.4,9.8-3.4l.3.3Z"/>
  <path class="cls-1" d="M39.9,37.3l1.1,1.2c-1.3,2-3.1,3.7-4.2,5.7-.8,1.1-1.3,2.8-2.7,3.2-2.3.3-3.6-.9-5.4-2,1.3-.5,3.1-.8,4.1-1.9,1.2-1.7,1.9-4,3.4-5.3,1.2-.5,2.7-.4,3.8-.9h-.1Z"/>
  <path class="cls-6" d="M56.7,37.5q.4.4,0,0Z"/>
  <path class="cls-6" d="M63.3,37.5q.4.4,0,0Z"/>
  <path class="cls-6" d="M65.4,37.2l1.1.9-1.1-.9Z"/>
  <path class="cls-4" d="M97.7,37.6c2,0,3.7.3,5.3,1.6-4,.7-5.6,1.6-8.1,4.6-2.3.8-4.4,1.5-6.4,2.8-1.3-1.3-3.1-2.8-3.2-4.8,1.7-.4,3.2,1.7,5,1.9,0-1.5-.3-2.8-.8-4.1,2.5-1.3,5-1.9,8-1.9h.1Z"/>
  <path class="cls-1" d="M59.7,38.9l1.3.3.9.4c-.3,1.5-.9,2.8,0,4.2h-2c-.9-1.3-2.8-1.6-4.4-2l.8-1.3,1.1-.8c.8-.4,1.6-.7,2.4-.7h-.1Z"/>
  <path class="cls-5" d="M59.7,38.9l1.3.3-1.3-.3Z"/>
  <path class="cls-6" d="M67.4,38.4h.9v.8l-.8-.8h-.1Z"/>
  <path class="cls-2" d="M15.4,39.3c1.6,0,3.4,0,5,.4,1.3.9,2.4,2.1,3.4,3.3,1.3,2.1,2.7,4,3.4,6.2l-1.3,1.1c-4.6.4-9,.9-13-2-.7-2.1-.7-3.4,0-5.6.7-1.2,1.5-2.4,2.4-3.4Z"/>
  <path class="cls-5" d="M29.6,40c1.3,1.2,1.1,3.4-.9,3.3-1.2.4-1.3-1.9-1.7-2.7.9-.4,1.7-.7,2.7-.8h0Z"/>
  <path class="cls-6" d="M53.4,39.7q.4.4,0,0Z"/>
  <path class="cls-3" d="M57.4,39.6l-1.1.8,1.1-.8Z"/>
  <path class="cls-3" d="M62,39.6c3.1.5,2.9,4.1,0,4.2-.8-1.3-.1-2.8,0-4.2Z"/>
  <path class="cls-2" d="M103,39.1c.8.5,1.6,1.1,2.3,1.7.7,1.5,1.3,2.8,2,4.2-.7,1.6-1.3,3.1-2.3,4.4-3.8,1.6-7.8,1.3-11.9.9-.9-2.8.7-4.2,1.9-6.5,2.5-3.1,4.1-4,8.1-4.6h0Z"/>
  <path class="cls-5" d="M20.1,42.8c-.7,2.7-2.4,3.6-4.9,2.3.4-3.7,2-4,4.9-2.3Z"/>
  <path class="cls-6" d="M53.9,42c.5.9.9,1.9,1.1,2.8-1.9,1.1-3.7,2.1-5.3,3.4-2.1,1.9-2.8,4.4-5.3,5.8-3.1-1.3-2.3-3.7-2.1-6.4.7-.5,1.3-1.1,2-1.6.4,1.1.9,2.1,1.5,3.1,2.1-.1,2.4-.9,3.4-2.5.7-1.3,3.1-2,2.8-3.6-1.5,0-3.6,1.2-4.6,0,2.1-1.7,4.4-1.3,6.8-.9h-.1Z"/>
  <path class="cls-3" d="M55.5,41.7c1.5.4,3.4.7,4.4,2.1-1.7.5-4.8.4-4.4-2.1Z"/>
  <path class="cls-1" d="M67.7,41.7c3.8-.5,6.2,1.9,8.9,4.2-.5.7-.9,1.5-1.5,2.1l-1.2-.9c-.4-1.2-1.1-1.9-2-2.4-.8.8-1.5,1.5-2.3,2.1l-1.5-.8c.9-.8,2.5-2.9.4-3.4-1.2,0-2,.9-2.3,2.4-2-1.6-.5-2.9,1.3-3.4h0Z"/>
  <path class="cls-6" d="M74.3,42q.4.4,0,0Z"/>
  <path class="cls-5" d="M103,42.8c-1.3,2.7-2.4,2.8-4.6.8,1.3-1.5,2.9-2.1,4.6-.8Z"/>
  <path class="cls-3" d="M20.1,42.8c2.3,1.1,3.6,3.2,4,5.6-2.9.1-5.7,0-8.4-1.5l-.5-1.9c2.5,1.3,4.2.4,4.9-2.3Z"/>
  <path class="cls-6" d="M46.3,42.9c0,1.5-.7,2.1-2.1,2.3,0-1.6.7-2.4,2.1-2.3Z"/>
  <path class="cls-5" d="M46.3,42.9h.8c1.1,1.3,3.3.1,4.6,0,.4,1.6-2.1,2.3-2.8,3.6-1.1,1.6-1.3,2.4-3.4,2.5-.5-1.1-1.1-2-1.5-3.1v-.9c1.6,0,2.3-.8,2.3-2.3h0Z"/>
  <path class="cls-5" d="M68.6,42.8c2.1.5.5,2.5-.4,3.4l-.8-.3-1.1-.8c.3-1.5,1.1-2.3,2.3-2.4Z"/>
  <path class="cls-3" d="M103,42.8c1.7.8,1.5,2.7.7,4.1-1.9,1.7-5,1.2-7.3,1.1-1.2-1.9.8-3.2,2-4.4,2.3,2,3.3,1.9,4.6-.8Z"/>
  <path class="cls-6" d="M66.4,45.2l1.1.8-1.1-.8Z"/>
  <path class="cls-5" d="M66.2,48.1c-1.3,0-2.1.7-2.7,1.9-1.7,0-3.4-1.2-5-1.6-.8-.4-1.6-.8-2.5-1.3,3.4-1.5,7-.7,10.2,1.1Z"/>
  <path class="cls-6" d="M76.6,46.1c.9,1.3,1.5,2.9,1.9,4.5-.3,1.7-1.6,4.5-3.7,2.9-1.1-1.6-2.9-3.1-3.6-4.9.9-.4,1.9-.9,2.8-1.3l1.2.9c.5-.7.9-1.5,1.5-2.1Z"/>
  <path class="cls-5" d="M56.2,47c.8.4,1.6.8,2.5,1.3v2c-2.4,1.3-6.4,1.3-6.9,4.5l-.9-1.1c-.4-.8-.8-1.6-1.2-2.3,2-2.4,3.7-3.6,6.6-4.5h-.1Z"/>
  <path class="cls-6" d="M40,48.6q.4.4,0,0Z"/>
  <path class="cls-4" d="M58.6,48.4c1.6.5,3.3,1.6,5,1.6.5-1.2,1.3-1.9,2.7-1.9,1.6,1.1,3.2,2.1,4.5,3.6,1.6,2.5,2.4,5.7,2.8,8.6l-.7.5-.9-.4c-.5-1.2-1.3-1.5-2.4-.9-1.3-2.1-2-4.5-3.1-6.9,2.4-1.5-.3-3.6-1.5-1.1-2.4,0-4.2-.4-6.4-1.3v-2h-.1Z"/>
  <path class="cls-3" d="M81,49.5h.7v.8h-.7v-.8Z"/>
  <path class="cls-6" d="M58.7,50.3c2.3.9,4,1.3,6.4,1.3l1.5,1.1c1.1,2.3,1.7,4.6,3.1,6.9.4.9,1.2,1.3,2.4.9l.9.4c.8,7.3-4.8,13.3-11.9,13.7-4.6,0-11.1-1.9-12.5-7.2l.9-.4,1.2-.8,1.1-1.2c-.5-1.5-.9-3.1-1.1-4.5v-.9c.5-1.6.8-3.2.9-4.8.5-3.2,4.5-3.2,7-4.5h.1Z"/>
  <path class="cls-5" d="M66.5,52.7l-1.5-1.1c1.2-2.4,3.8-.4,1.5,1.1Z"/>
  <path class="cls-6" d="M38.8,51.5l.7.9h-.8v-.9Z"/>
  <path class="cls-4" d="M49.5,51.7c.5.7.9,1.5,1.2,2.3-.8,1.1-1.9,1.3-3.2,1.1.5-1.2.9-2.4,2-3.3Z"/>
  <path class="cls-4" d="M98.9,52.5c.7,0,1.3.3,2,.3-.9,1.5-1.6,2.9-2,4.5-.4,1.2-.9,2.3-1.3,3.3l-.9-.4c-1.1-.4-2.1-.8-3.2-1.2-.1-.8-.3-1.6-.5-2.4-.7,0-1.5.1-2.1.3v-1.9c3.1-.3,5.7-.3,8.1-2.5Z"/>
  <path class="cls-4" d="M19,53.8c3.7.4,7.3,1.1,11,1.3-1.2,1.1-2.5,1.7-4,2.4v1.9c-.9.4-1.9.7-2.7,1.1l-.7.3c-.9-1.2-1.7-1.2-2.5,0-.3-2.3-.5-4.5-.9-6.9h-.3Z"/>
  <path class="cls-4" d="M50.7,53.9l.9,1.1c0,1.6-.4,3.2-.8,4.8-1.2-1.2-2.7-1.3-2.5.8.4,1.2,1.2,1.2,2.4.1.1,1.6.5,3.1,1.1,4.5l-1.1,1.2-1.2.8-.9.4c-2.1-3.2-3.4-9.3-1.1-12.5,1.3.4,2.4,0,3.2-1.1h0Z"/>
  <path class="cls-1" d="M30,55.1h2c0,1.6.7,3.7-.7,4.6-1.5,1.1-3.3.7-4.9,1.6-1.1-.4-2.1-.7-3.2-1.1.9-.4,1.9-.8,2.7-1.1v-1.9c1.5-.7,2.8-1.3,4-2.4h.1Z"/>
  <path class="cls-1" d="M43,55c.4.8.9,1.6,1.3,2.4-.8,1.2-1.6,2.1-2.5,3.1-.8-.4-1.6-.7-2.4-1.1.4-2.4.5-4.5,3.6-4.2h0Z"/>
  <path class="cls-3" d="M43,55l1.7.5c.3,2.9-.7,5.6-1.9,8.4-1.9-.3-2.8-.9-4.1-2.3.1-.8.4-1.5.5-2.3.8.4,1.6.7,2.4,1.1.9-.9,1.9-1.9,2.5-3.1-.4-.8-.9-1.6-1.3-2.4h.1Z"/>
  <path class="cls-2" d="M70,55.2h.7v.7h-.7v-.7Z"/>
  <path class="cls-3" d="M79.2,55.2c1.7,1.9,1.6,5.3.4,7.4-2.9-.8-3.8-.9-3.4-4.4,2,.4,3.2-1.2.9-2l-1.3,1.2c-2-3.1,1.5-3.1,3.3-2.4h.1Z"/>
  <path class="cls-1" d="M87.9,55h2.8v1.9c.8,0,1.5-.1,2.3-.3.1.8.3,1.6.5,2.4,1.1.4,2.1.8,3.2,1.2l-1.3,1.2h-1.1c-1.1-1.3-3.8-.9-5.4-1.2-1.1-1.6-1.1-3.3-.9-5.2Z"/>
  <path class="cls-5" d="M77.1,56.4c2.3.8.9,2.4-.9,2l-.4-.8,1.3-1.2Z"/>
  <path class="cls-6" d="M82.2,56.3q.4.4,0,0Z"/>
  <path class="cls-5" d="M98.9,57.2c1.2,1.3,2,3.3.4,4.5l-2-.3v-.9c.7-1.1,1.2-2.3,1.6-3.3Z"/>
  <path class="cls-5" d="M51,59.6v.9c-1.3,1.1-2.1,1.1-2.5-.1-.3-2.1,1.3-2,2.5-.8Z"/>
  <path class="cls-5" d="M22.5,60.6c-.7.9-1.6,1.3-2.4,1.1v-1.1c.7-1.2,1.6-1.2,2.4,0Z"/>
  <path class="cls-2" d="M69.6,59.6c1.1-.5,1.9-.3,2.4.9-1.2.4-2,0-2.4-.9Z"/>
  <path class="cls-2" d="M22.5,60.6l.7-.3c1.1.4,2.1.7,3.2,1.1,1.9,1.9,2.4,3.1,2.1,5.7l-.7,1.3c-.7,1.7-1.2,3.6-1.7,5.3l-.5,1.3-.4,1.9c-.8.8-1.6,1.7-2.4,2.5-4.5,4.1-12.3-1.1-10.7-6.5,1.3-4.9,4.8-7.6,7.8-11.3.9.3,1.7,0,2.4-1.1h.3Z"/>
  <path class="cls-1" d="M84.9,60.4c1.7,3.3,1.5,6.4,1.5,9.9,1.7,0,.8-3.1,1.2-4.1,1.1.3,2,.5,2.9.9l-.3.7c-2.5,1.3-1.7,3.3-1.6,5.7-.5-.5-.9-1.1-1.5-1.7-1.5.9-3.4,4-2.7,5.8,2.1,1.5,3.8,2.7,5,4.9-2.5,0-4.5-.1-6.8,1.5-.5-1.2-1.3-2-2.3-2.3l-.8-.3-1.3,1.2c-.5.5-1.2,1.1-1.7,1.6,1.1,1.9,2.5,3.4,3.7,5.3,1.6,2.3,2.4,4.8,4.5,6.6.4.9.8,2,1.1,3.1l-.8,1.6c-2.4-2.7-4.4-8.5-8.6-7.8-2.7,3.2-3.3,8.8-3.6,12.9-2.4-1.1-1.5-4.1-2.4-6.2-1.6-3.7-2.4-6.8-2.1-10.9-1.6,0-2.8.1-4.2.5-.5-1.1-.9-2.1-1.3-3.1,3.7-4.1,8.1-1.9,12.2-4.6,3.7-2.3,6.5-6.6,6.8-11-.1-3.7,2.5-6.2,3.2-9.9v-.3Z"/>
  <path class="cls-3" d="M96.6,60.3l.9.4v.9h-2.3l1.3-1.2h0Z"/>
  <path class="cls-4" d="M94.2,61.6l-1.1,1.2,1.1-1.2Z"/>
  <path class="cls-2" d="M94.2,61.6h3.2l2,.3c3.7,2.9,8.5,7.8,8.6,12.9-.4,4.8-4.9,7.4-9.3,5.7-1.1-1.3-2.1-2.4-3.4-3.4-.4-3.3-1.3-6.5-2.5-9.7l-.4-1.2c0-1.1.4-2.3.9-3.3l1.1-1.2h-.1Z"/>
  <path class="cls-5" d="M24.1,62.9c.5.5,1.1,1.1,1.5,1.7-3.2,1.9-3.7,5.4-6.8,7.2-.9-.5-1.7-1.3-2.4-2.3,2.4-2.7,4-5.6,7.7-6.5h0Z"/>
  <path class="cls-3" d="M96.2,62.4l1.2,1.2-2.1.3s.9-1.5.9-1.5Z"/>
  <path class="cls-4" d="M70.4,64.4h0Z"/>
  <path class="cls-5" d="M95.3,63.9l2.1-.3c1.7,1.3,3.2,2.9,4.6,4.5-.4,1.3,0,4.5-2.3,3.2-1.7-2.1-2.9-4.5-4.6-6.5v-.9h.1Z"/>
  <path class="cls-3" d="M25.5,64.5l.9,1.5c-1.6,3.6-2.1,8-4.5,11-1.5,1.9-3.2,1.6-5.2,1.2,0-2.4,4.2-.5,4-4-1.6,0-2.9,1.1-4.1-.5-1.5-1.6-1.7-2.8-.3-4.4.7.9,1.5,1.7,2.4,2.3,3.2-1.6,3.6-5.3,6.8-7.2h0Z"/>
  <path class="cls-4" d="M69.2,65.3c2.1,1.1,1.2,2-.8,2.1l-.8-.4c-.3-1.6.3-2.1,1.6-1.7Z"/>
  <path class="cls-3" d="M95.2,64.8c1.9,2,3.1,4.4,4.6,6.5,2.4,1.2,1.9-2,2.3-3.2,2,1.5,2.5,2.9,2.9,5.3-2.3-.3-4,.9-4,3.3,1.9.1,2.8.7,2.8,1.6-2.4.1-4.2.5-5.6-2.1-1.5-3.3-3.7-7.6-3.1-11.3h0Z"/>
  <path class="cls-3" d="M44.4,65.9l.8,1.6-2.1-.5s1.3-1.1,1.3-1.1Z"/>
  <path class="cls-2" d="M50.9,66.3l-1.2.8,1.2-.8Z"/>
  <path class="cls-6" d="M76.3,66c2.8,1.1,2.3,3.2,2.3,5.6-.7,4.9-4.9,8.1-9.8,8.4-1.7-.4-3.8-.3-3.6-2.7,1.6-2.5,5.8-3.3,7.4-6.1,1.1-1.6,1.7-4.5,3.7-5.2Z"/>
  <path class="cls-4" d="M92.2,66.1l.4,1.2-.5-.5v-.7h.1Z"/>
  <path class="cls-4" d="M28.4,67.1v.8l-.7.5.7-1.3Z"/>
  <path class="cls-1" d="M43,66.9l2.1.5.5.8.7,1.1c.4.8.9,1.5,1.3,2.3-1.5-.9-2.8-1.2-2.3,1.1l-.8.4c-.8-1.5-1.3-3.2-2.3-4.6l.8-1.6h-.1Z"/>
  <path class="cls-2" d="M53.9,67.3c.5.9-.5,3.4-1.7,2.8-.8-1.1.3-3.6,1.7-2.8Z"/>
  <path class="cls-2" d="M62.3,67.4q.4.4,0,0Z"/>
  <path class="cls-2" d="M67.7,67.1l.8.4c.3.9.1,1.9-.1,2.7-2.3.7-2-2-.7-3.1Z"/>
  <path class="cls-3" d="M42.2,68.4c.9,1.3,1.6,3.1,2.3,4.6l-1.3.7c-1.5-.9-1.9-3.8-1.1-5.3h.1Z"/>
  <path class="cls-6" d="M45.6,68.2l.7,1.1-.7-1.1Z"/>
  <path class="cls-4" d="M55.5,68.4c2.1.3.7,3.1-.9,2-.4-.9,0-1.6.9-2Z"/>
  <path class="cls-3" d="M47.5,71.6l-.3,1.1-.9.3-1.1-.3c-.5-2.3.8-2,2.3-1.1Z"/>
  <path class="cls-4" d="M47.5,71.6c.7.8,1.3,1.7,2,2.5.7,1.1,1.6,2,2.3,3.2-1.7,0-3.1.3-4.4-1.1.4-1.1.4-2.3,0-3.4l.3-1.1h-.1Z"/>
  <path class="cls-4" d="M87.1,72c.5.5.9,1.2,1.5,1.7,2.1,1.5,4.1,2.7,6.6,3.4,1.3,1.1,2.4,2.1,3.4,3.4.5.9,1.6,2,1.6,3.2-.8,1.7-2.1,1.7-3.7,2-.5.8-.9,1.6-1.5,2.4-.7-.3-1.2-.5-1.9-.8-.3-1.7-.4-3.2-2.5-3.2l-1.2-1.3c-1.2-2.3-2.9-3.4-5-4.9-.8-1.7,1.1-4.9,2.7-5.8h0Z"/>
  <path class="cls-4" d="M33.2,72.6c2.3.4,2.7,4.1.9,5.4-2,2.9-6.4,5.3-7.3,8.6.8,0,1.7.3,2.5.3.5.8,1.1,1.6,1.6,2.5v1.9l-.8-.3c-2.1-3.6-6-1.3-7-6,.7-.5,1.3-1.2,1.9-2-2-.8-1.7-1.7-2.1-3.4.8-.8,1.6-1.7,2.4-2.5,2.5-1.5,5-3.4,7.8-4.4h.1Z"/>
  <path class="cls-6" d="M45.3,72.6l1.1.3c-.4,1.5,0,2.7.9,3.2,1.3,1.3,2.7,1.1,4.4,1.1-.7-1.1-1.5-2-2.3-3.2,1.9.7,3.7,1.3,5.4,2.1-.4,1.9-.8,2.8-2.8,3.3-2.4,1.2-5.2-.8-6.9-2.4-1.2-1.3-.1-3.2,0-4.6v.3Z"/>
  <path class="cls-2" d="M46.3,72.9l.9-.3c.4,1.2.4,2.4,0,3.4-.9-.7-1.3-1.7-.9-3.2Z"/>
  <path class="cls-2" d="M74.1,72.6c.7.4,1.3.8,2,1.3,0,.9-.7,1.6-2,2.1-.7-.4-1.3-.9-2-1.3,0-.9.7-1.6,2-2.1Z"/>
  <path class="cls-4" d="M26.2,73.7l-.5,1.3.5-1.3Z"/>
  <path class="cls-3" d="M57.8,77.4c1.5,0,1.5,2.9,0,2.9-1.5-.5-1.6-2.4,0-2.9Z"/>
  <path class="cls-1" d="M40.9,78.2c2.5,2,4.5,4,7.7,4.6.5,1.1,1.2,1.3,2.3.7,2.7-.8,4.1.8,6.6,1.7,0,1.1-.3,2.1-.8,3.2-1.9,1.1-4.2-.9-5.2,1.1.3,3.8-1.1,7-1.9,10.6l-.8.7c-1.5-2.5-1.7-5.2-2.7-7.8-1.6-.4-3.1-.7-4.2.7-3.4,3.1-6.1,6.6-6.6,11.4-1.7-2.1-2.8-4.5-1.2-7,1.9-2.7,3.7-5.3,5-8.4,1.3-1.6,2.8-3.1,4.1-4.6-.8-1.5-1.9-2.3-3.3-3.2.8-.9.8-2.4,1.1-3.4h-.1Z"/>
  <path class="cls-3" d="M62.1,78.3c2,.1.7,3.1-.9,2-.4-.9,0-1.6.9-2Z"/>
  <path class="cls-4" d="M39.7,81.6c1.5.9,2.5,1.7,3.3,3.2-1.3,1.6-2.8,3.1-4.1,4.6-.8-1.2-1.5-2.5-2.3-3.7l-.4-.9c.9-1.7,1.5-2.7,3.4-3.2Z"/>
  <path class="cls-6" d="M79.8,81.5l.8.3.3,1.9c-.4,2.1-2-.3-2.4-1.1l1.3-1.2h0Z"/>
  <path class="cls-4" d="M80.6,81.8c.9.4,1.7,1.1,2.3,2.3.1,2,.1,3.7,1.5,5.3,1.9,2.8,2,3.6.9,6.9-2.3-1.9-2.9-4.4-4.5-6.6-1.2-1.9-2.8-3.4-3.7-5.3.5-.5,1.2-1.1,1.7-1.6.4.8,2,3.2,2.4,1.1l-.3-1.9h-.3Z"/>
  <path class="cls-4" d="M34,82.8v.7h-.8l.8-.5h0Z"/>
  <path class="cls-6" d="M48.6,82.8c1.1-.5,1.9-.4,2.3.7-1.1.5-1.9.4-2.3-.7Z"/>
  <path class="cls-2" d="M89.6,82.6l1.2,1.3v3.1c-1.7,2.9-3.4,3.4-6.5,2.3-1.3-1.6-1.2-3.3-1.5-5.3,2.1-1.6,4.1-1.5,6.8-1.5h0Z"/>
  <path class="cls-4" d="M19.2,83.9c1.1-.9,3.6,0,2.8,1.7-.9.5-3.3-.4-2.8-1.7Z"/>
  <path class="cls-2" d="M33.1,83.4h.9c.8.5,1.5,1.1,2.3,1.5l.4.9c-.1,1.1-.3,2.1-.4,3.2-1.1.5-2,1.1-3.1,1.5-.7-.4-1.5-.7-2.1-.9-.5-.8-1.1-1.6-1.6-2.5.8-2.5,1.2-2.8,3.7-3.6h-.1Z"/>
  <path class="cls-1" d="M90.6,83.9c2.1,0,2.3,1.5,2.5,3.2,0,.9-.4,1.5-.9,1.6-.5-.5-1.1-1.1-1.5-1.7,0-1.1-.1-2.1,0-3.1h-.1Z"/>
  <path class="cls-2" d="M11.1,85l.8,1.1-.8-1.1Z"/>
  <path class="cls-3" d="M57.4,85.2c2.7,1.1,4.2,1.9,4.9,4.9,1.1,2.8.7,3.8-1.6,5.6-2.5-.3-4.1-3.4-2.4-5.7,1.3,2.9,3.6.8,2.5-1.5-.7-.1-1.3,0-2.1.7-.5-1.2-1.3-1.2-2.4,0l.3-.7c.5-1.1.8-2.1.8-3.2h0Z"/>
  <path class="cls-3" d="M85.5,85.1h.9v1.9h-.9l-.5-.9s.5-.9.5-.9Z"/>
  <path class="cls-5" d="M86.4,85.1h.9v1.9h-.9v-1.9Z"/>
  <path class="cls-3" d="M87.3,85.1h.9l.5.9-.5.9h-.9s0-1.9,0-1.9Z"/>
  <path class="cls-1" d="M32.3,86.1l.8-.4.8.4v.9l-.8.4-.8-.4v-.9Z"/>
  <path class="cls-5" d="M60.8,88.5c1.2,2.3-1.1,4.4-2.5,1.5l.4-.8c.8-.5,1.5-.8,2.1-.7Z"/>
  <path class="cls-2" d="M103.1,89.7l-1.1.8,1.1-.8Z"/>
  <path class="cls-2" d="M17.6,90.8l1.2.7-1.2-.7Z"/>
  <path class="cls-4" d="M13.5,93c2.4,0-.7,5.3-2.3,3.8-.8-1.3,1.2-3.2,2.3-3.8Z"/>
  <path class="cls-2" d="M46.1,92.9c.9,2.7,1.2,5.3,2.7,7.8v2c0,3.6-2.3,8.5-6.6,7.7-3.8-.3-5.3-2.4-7-5.6.5-4.6,3.2-8.4,6.6-11.4,1.2-1.2,2.8-.9,4.2-.7h.1Z"/>
  <path class="cls-2" d="M76.6,92.9c4.2-.5,6.4,5.2,8.6,7.8-.1,1.9,0,4-.5,5.8-1.5,2.3-3.3,4.1-6.2,3.8-2.9.3-4-2.9-5.6-4.6.4-4.1.9-9.7,3.6-12.9h.1Z"/>
  <path class="cls-3" d="M43,96c0,1.5-.7,2.1-2.3,2.1.1-1.9.9-2.5,2.3-2.1Z"/>
  <path class="cls-5" d="M43,96l1.5.8c-1.1,1.7-1.3,3.7-1.7,5.7-2.5.5-2.8,0-4.1-1.9.8-.8,1.5-1.6,2.3-2.5,1.5,0,2.3-.7,2.3-2.1h-.1Z"/>
  <path class="cls-5" d="M79.9,98c0,1.6,1.5,4.2-1.1,4.2-.4-1.6-.9-3.1-1.7-4.5.5-3.2,1.6-1.1,2.8.1h0Z"/>
  <path class="cls-3" d="M44.5,96.8c1.7,3.4,3.3,8.5-.7,11.1-4.9,1.2-7.3-3.4-5.2-7.4,1.5,1.9,1.6,2.4,4.1,1.9.4-2,.7-3.8,1.7-5.7h0Z"/>
  <path class="cls-3" d="M77.1,97.8c.7,1.5,1.2,2.9,1.7,4.5,2.5,0,1.1-2.8,1.1-4.2,1.9,1.3,2.4,2.3,2.9,4.4-.9.9-1.9,2.3-3.3,2.7-1.5-.1-2.8-.8-4.1-1.5.3-2.1.7-4,1.7-5.8Z"/>
  <path class="cls-4" d="M56.8,99.5c.9-.3,5,.5,4.8,1.9-1.2.8-5.3.3-4.8-1.9Z"/>
  <path class="cls-4" d="M48.7,100.7l.8-.7c2.1.9.9,2.3-.8,2.5v-2h0Z"/>
  <path class="cls-2" d="M30.2,103.9q.4.4,0,0Z"/>
  <path class="cls-2" d="M56.6,107.4l-1.2.7,1.2-.7Z"/>
  <path class="cls-2" d="M66.1,108.3c1.7-.5,2.5.1,2.5,1.9-1.5,0-2.3-.7-2.5-1.9Z"/>
  <path class="cls-2" d="M87.5,108.4l-.8.9.8-.9Z"/>
  <path class="cls-2" d="M38.9,111.7q.4.4,0,0Z"/>
  <path class="cls-2" d="M42.2,111.7q.4.4,0,0Z"/>
  <path class="cls-2" d="M47.7,111.9l-1.3.5,1.3-.5Z"/>
  <path class="cls-4" d="M59.7,111.7c1.6-.7,1.6,3.3,0,2.7-.7-.9-.7-1.7,0-2.7Z"/>
  <path class="cls-2" d="M45.6,112.8l-1.3.7,1.3-.7Z"/>
  <path class="cls-2" d="M75,113.1l1.5.4-1.5-.4Z"/>
  <path id="p35" class="cls-2" d="M51.3,41.5h6.8v5c-2.8-.4-8.8-.6-8.7,2.5s1.3,2.7,2.8,2.8c3.5.3,6.9.6,10.5.7-2.2,7.2-10.2,15.9-9.6,23,2.7.9,4.4.3,5.6-1.6,4.1-7.4,8.7-14.7,11.9-22.6,1-1.8.4-3.4-2.1-4.7.9-1.6,1.8-3.2,2.8-4.9h1.2c1.6.1,2.8,1.5,2.8,3.1,0,5.3-1.2,9-4.6,14.6-3.1,7.1-7.2,14.5-12.5,19.8-3.5-1.3-7.2-1.3-10.9,0h0c-1-.6-1.5-2.1-1.2-3.2,2.4-6.8,6.6-12.8,10.6-20.2-2.4-.3-5,0-7.5-.1s-2.5-1-2.8-2.4-.6-3.2-.9-4.9c-.6-3.5,2.1-6.6,5.6-6.8h.1Z"/>
  <path id="p36" class="cls-4" d="M58.1,41.5c4.4,0,8.8,0,13.3.1-1,1.6-1.9,3.2-2.8,4.9-3.4,0-6.9,0-10.3-.1v-5h-.1Z"/>
  <path id="p40" class="cls-7" d="M58.2,46.6c3.4,0,6.9.1,10.3.1,2.5,1.3,3.1,2.9,2.1,4.7-3.2,7.8-7.7,15.2-11.9,22.6-.7,1.5-3.2,2.2-5.5,2.4s-2.7-1.3-2.4-2.7c1.5-6.6,9.7-14.6,11.8-21.1-3.7-.1-7.2-.4-10.9-.7s-1.8-.7-2.2-1.6c-1.6-4.3,5.3-4,8.6-3.5h.1Z"/>
  <path id="p51" class="cls-6" d="M47.5,79.3c3.7-1.3,7.4-1.3,10.9,0-1.6,3.4-9.1,3.4-10.9,0Z"/>
</svg>