<?xml version="1.0" encoding="UTF-8"?>
<svg id="_Слой_1" data-name=" Слой 1" xmlns="http://www.w3.org/2000/svg" version="1.1" viewBox="0 0 120 120">
  <defs>
    <style>
      .cls-1 {
        fill: #ff1974;
      }

      .cls-1, .cls-2, .cls-3, .cls-4, .cls-5, .cls-6 {
        stroke-width: 0px;
      }

      .cls-2 {
        fill: #000b2e;
      }

      .cls-3 {
        fill: #009546;
      }

      .cls-4 {
        fill: #f6cd09;
      }

      .cls-5 {
        fill: #fefefe;
      }

      .cls-6 {
        fill: #00b3e9;
      }
    </style>
  </defs>
  <path class="cls-4" d="M26.5,2.8c1.6,1.5,4.5,3.4,5.2,5.5-1.6,1.6-3.3,3.3-5.2,4.6-1.6-1.3-3.3-2.8-4.6-4.5,1.2-2.1,2.8-4,4.5-5.7h.1Z"/>
  <path class="cls-4" d="M104.8,3.7c1.3,1.9,1.8,4.3,3.1,6.3,1.5,2.1,4.5,2.5,6.7,3.7v.7c-3.1.3-5.7,1.9-8.7,3.3-3.7,0-7.5-2.2-11.2-2.8l-.3,1.3h-.7c-.4-.9-.4-1.8,0-2.7,2.2-.9,4.6-1.3,6.9-2.4,2.5-1.5,1.3-6.3,4.3-7.5h-.1Z"/>
  <path class="cls-5" d="M26.8,5.4c1.9.1,1.5,3-.1,3.3-1.9-.3-1.3-2.8.1-3.3Z"/>
  <path class="cls-5" d="M104.6,8.6c1.8,2.5,1.6,4.3,0,6.9-2.4-1.2-1.8-5.7,0-6.9Z"/>
  <path class="cls-3" d="M54.5,12.7c.6.9,1.2,1.8,1.6,2.7-1.3,1.2-2.7.1-4.3,0,2.4-3.3-1.5-2.5-3.4-2.4l-1.2-.3c2.4-1.3,4.9-1.2,7.3,0Z"/>
  <path class="cls-3" d="M73,13c-.3,1.3-.7,1.9-1.5,2.1-1.9-2.5-3.3-1.6-6-1.3l-.4-.9c2.8-1.5,5.1-.9,7.9.1Z"/>
  <path class="cls-4" d="M16,13.1c1.9,1.8,3.7,3.6,5.5,5.5-1.3,1.2-3.1,2.4-4,3.9-.6.7-1.2,3-2.2,2.8-1.2-2.7-2.4-4.6-4.6-6.7,1.5-1.5,3.4-5.4,5.4-5.5Z"/>
  <path class="cls-2" d="M47.1,12.8l1.2.3-.3.9c-2.8-.4-1.9,2.5.3.9,1,.1,2.2.3,3.4.4,1.6,0,3,1,4.3,0-.4-.9-1-1.8-1.6-2.7,1.8.7,3.6,1.8,5.4,2.4,1.8-.6,3.4-1.5,5.1-2.2l.4.9c.3,2.2,4.5,1.3,6,1.3s1.2-.7,1.5-2.1c6.1,1.8,8.1,6.7,10.2,12.1,2.7,0,5.2-.6,7.8-.6l-1.3,1.3c-1-.4-1.9-.3-2.7,0-.7,1.6,1.8,1.6,2.8,1.8,1.2.6,2.2,1,3.4,1.3.7-.7,1.3-1.5,1.8-2.5,3.4,2.2,5.1,4.5,6,8.5.7,4.8,4.3,7.6,4.3,12.6s-2.7,8.1-5.7,11.5c1.2,4.8,3.1,8.7.7,13.6-1.6,3.4-4.6,4.2-7.6,6.3-1.2,1.9-1.9,4.2-3.1,6-3,4-8.5,6.3-13.5,4.8-3.3-.6-5.4-2.7-8.1-4.3-1.2.4-.4,3.4-.6,4.6,0,6.9,0,15.1-7.2,18.7-5.7,3.6-13.6-1.2-13.8-7.6.6-4.6,6.7-6.4,7.5-11.5.3-1.8,1.3-5.1.1-6.6-1.8,1.6-3.3,3.6-5.5,4.9-5.4,3.6-13.6,2.5-17.8-2.4-1.6-1.9-2.1-4-3.3-6.1-3.3-2.4-6.7-3.3-8.4-7.5-1.9-4.8,0-8.2,1-12.7-1.8-2.8-4.8-4.9-5.2-8.5-.3-2.4-.4-5.1.1-7.5,1.3-2.8,3.3-4.9,3.7-8.2.6-3.4,1.8-5.2,4.6-7.3,3.1,2.1,6,.4,9.3-.3v-.7c.3-1.3-.6-1.8-2.7-1.3l-.3-1c2.4,0,4.6.4,6.9.6,1-2.2,1.6-4.8,3-7,1.6-2.7,4.6-4.2,7.3-5.5l.3.6Z"/>
  <path class="cls-4" d="M48.3,13.1c1.9,0,6-.9,3.4,2.4-1.2,0-2.2-.3-3.4-.4l-.3-.9.3-.9h0Z"/>
  <path class="cls-5" d="M71.4,15.1c-1.5,0-5.7.9-6-1.3,2.7-.3,4-1.3,6,1.3Z"/>
  <path class="cls-6" d="M48,14.2l.3.9c-2.2,1.6-3.3-1.3-.3-.9Z"/>
  <path class="cls-1" d="M94.8,14.9c3.7.6,7.5,2.7,11.2,2.8,3-1.5,5.4-3,8.8-3.3v1.6c-2.2.6-4.3.4-6,2.4-2.1,2.1-2.4,5.4-4.2,7.3-2.1-1.8-1.9-5.5-4.2-7.3-1.8-1.6-3.9-1.6-6.1-2.2l.3-1.3h.1Z"/>
  <path class="cls-5" d="M15.2,16c2.7-.6,2.5,4.2,0,3.7-1.6-.6-1-3,0-3.7Z"/>
  <path class="cls-5" d="M50.9,17.2c.9,0,1.8,0,2.7.3,0,1.5.4,3.7-.6,4.9-1.9,1.6-3.9,3-6,4.3-.6-.3-1.3-.6-1.9-.9,1.6-2.7,3.4-5.1,4.2-8.2.6-.1,1-.3,1.6-.4Z"/>
  <path class="cls-1" d="M68.1,17.3c-.6,1.2-1.9,2.4-1.9,3.7,1,1.5,2.4,2.8,4.2,3.7,4.2-1.6,1.3-4.3.3-7.2,4.9.9,7.8,5.5,7.2,10.3-.6,6.1-6.1,11.2-9,16.9-3.3-.9-6.3-2.5-9.7-2.4-2.5,0-4.8,1.6-7,2.5-4-5.2-9.1-11.5-9.9-18.3,0-4.2,3-8.2,7.2-9.1-.7,3.1-2.7,5.5-4.2,8.2.6.3,1.3.7,1.9.9,2.1-1.3,4.2-2.8,6-4.3.9-1.2.4-3.4.6-4.9,2.5.6,4.2,2.2,6.3,3.6,2.8-1.6,4.5-4,8.1-3.9h0Z"/>
  <path class="cls-5" d="M70.5,17.6c1,2.7,3.9,5.5-.3,7.2-1.8-.7-3.1-2.1-4.2-3.7,0-1.3,1.3-2.5,1.9-3.7.9,0,1.6,0,2.5.3Z"/>
  <path class="cls-5" d="M55.7,21.4l.9-.4.9.4v.9l-.7.4-.9-.4v-.9h-.1Z"/>
  <path class="cls-3" d="M29.9,24.7l.3,1c.3,1.5,1.2,1.9,2.8,1.3v.7c-3.4.7-6.3,2.4-9.4.3,1.9-1.6,3.4-3.3,6.3-3.3h0Z"/>
  <path class="cls-3" d="M91,24.7c1.5.4,2.7,1.3,4,2.1-.4,1-1,1.8-1.8,2.5-1.2-.3-2.4-.7-3.4-1.3v-1.9l1.2-1.3Z"/>
  <path class="cls-5" d="M30.2,25.7c2.1-.4,3,0,2.8,1.3-1.6.6-2.5.1-2.8-1.3Z"/>
  <path class="cls-3" d="M86.8,26.2c.7-.4,1.6-.4,2.7,0v1.9c-.9,0-3.4-.1-2.7-1.8h0Z"/>
  <path class="cls-4" d="M60,28l.4,1c.7-1,.6-1.6,1.5-2.8s1.2-1.2,2.1-1.5,2.5-.3,4,1.5c.3.3.4.7.6,1.2,1,2.7-.4,5.7-3,7s-1.2.6-1.6.9-.7.4-1.2.6c-1,.4-2.2.6-2.2.6-2.2-.6-5.2-1.6-7.5-2.8s-2.2-3.4-1.6-5.5c1-3.1,5.7-5.8,8.4-.1h.1Z"/>
  <path class="cls-5" d="M40.2,34.7c-1.2,1.8-2.2,4.9-4.2,5.8-1.3-.9-2.4-1.5-4-1.5l.7-1.3c1.6-.1,3.4-.3,5.2-.4-.4-3.6-1-4.2-4.3-5.2-.9,1.8-.7,4.9-3.3,5.2-.7-.3-1.5-.7-2.2-1.2-.3-1.5-.6-3-.7-4.5,4.8-3.1,9.9-.7,13,3.4v-.3Z"/>
  <path class="cls-5" d="M91.2,30.2c.9,2.4,1.5,4.8,1.8,7.2-2.1-.4-5.1-.4-5.8-2.8-.1-1.3,0-2.8,0-4.2,1.5-.4,2.5-.4,4,0h0Z"/>
  <path class="cls-5" d="M86.4,30.5c-.4,1.2-1.2,1.5-2.4.9.6-1,1.3-1.3,2.4-.9Z"/>
  <path class="cls-1" d="M86.4,30.5h.7c0,1.2-.1,2.7,0,4,.7,2.4,3.7,2.5,5.8,2.8-.1-2.5-.9-4.9-1.8-7.2,2.1,1,3.7,2.4,4.6,4.6.3,1.8,0,3.7.3,5.5,1.2,1.8,2.8,3.6,3.7,5.5,1.8,5.8-3.7,12.3-9.7,11.7-5.2-.4-10.8-.7-15.9-2.2-1.3-2.7-2.7-5.5-3.6-8.4,1.2-2.2,3-4.2,4.6-6.1,1.5,2.4,3.1,6,5.7,7.5,3.1.4,6.6.1,9.6-.6.9-1.6-2.5-3-2.4-4.8,0-1.6,0-3.3-.6-4.8-1.3-1.3-4.3-.4-6.1-.4l-.7-1.6c2.7.7,2.4-2.2.9-3.3.7-.4,1.5-.7,2.1-1.2,1.2.6,1.9.3,2.4-.9h.3Z"/>
  <path class="cls-1" d="M27.2,31.4c.1,1.5.4,3,.7,4.5.7.4,1.5.9,2.2,1.2,2.5-.3,2.5-3.3,3.3-5.2,3.1,1,3.9,1.8,4.3,5.2-1.8.1-3.4.1-5.2.4l-.7,1.3c0,3.9-.3,4.9-3,7.8.7,2.1,3,1.6,4.9,1.8,2.4,0,5.2.3,7-1.6,1-.9.7-2.7,1-4,1-.4,2.2-.7,3.4-1.2,1.3,1.5,3.3,3,3.7,4.9-.9,3-2.2,5.8-3.6,8.5-3.3,1.2-7.3,1.2-10.8,1.8-3.1.1-6,1.2-8.8-.3-4-1.8-6.7-5.4-6-9.9.6-3.7,4.6-5.1,4.2-8.8-.1-2.8.7-5.2,3.3-6.4h-.1Z"/>
  <path class="cls-5" d="M81.7,32.6c1.5,1.2,1.8,4-.9,3.3l-.6-2.1,1.5-1.3h0Z"/>
  <path class="cls-4" d="M80.2,33.8l.6,2.1.7,1.6c3.1-.1,4.2-1,6.1.4.6,1.6.4,3.1.6,4.8,0,1.8,3.3,3.1,2.4,4.8-3.1.7-6.4.9-9.6.6-2.5-1.5-4.2-5.1-5.7-7.5,1.6-2.2,3.1-4.6,4.9-6.7h-.1Z"/>
  <path class="cls-4" d="M40.2,34.7c1.9,2.1,3.6,4.5,5.1,7-1.2.3-2.2.6-3.4,1.2-.3,1.2,0,3.1-1,4-1.8,1.9-4.6,1.5-7,1.6-1.8,0-4.2.3-4.9-1.8,2.7-2.8,2.8-3.9,3-7.8,1.6,0,2.7.6,4,1.5,2.1-.9,3-4,4.2-5.8h.1Z"/>
  <path class="cls-2" d="M52.1,42.2q.4.4,0,0Z"/>
  <path class="cls-2" d="M67,42.2q.4.4,0,0Z"/>
  <path class="cls-6" d="M63.6,46.2c13.2,17.5-15,28-9.1.7,1.2-1.3,7.9-1.8,9.1-.7Z"/>
  <path class="cls-6" d="M55.5,46.5c0,2.4.3,4.8.4,7.3.3,1.9.7,3,1.6,4.8,1.5,1.6.4-4,2.4-2.7l1,4.9h0c1.5-1.3,3.1.4,4.5-1,1-2.5-1.3-3.6-1.2-5.8,0-2.7,0-5.1-.6-7.6,1.3.3,2.4,1,3.4,1.9-1.3.7-1.6,1.6-1.2,2.7,1,.4,1.8,0,2.5-1.2,3,3,1.9,7,1.5,10.8l-.4.9c-.4.7-1,1.3-1.6,1.9-.7-.4-1.5-.9-2.1-1.3,0,1.3,0,2.5-.1,3.9-.7,0-1.3-1-1.5-3-2.4.7.3,4.2-3.1,3.9h-2.2c-.3-1-.4-1-.7-.3-.7,0-1.3-.3-1.9-.4l-.6-.3c-2.1-1.2-4-2.4-5.1-4.8-2.4-5.5-.3-11.8,5.4-14.2l-.3-.3Z"/>
  <path class="cls-5" d="M67,48.3l1.3,1.3c-.7,1.3-1.6,1.6-2.5,1.2-.4-1,0-1.8,1.2-2.7h0Z"/>
  <path class="cls-6" d="M60.2,50.3c1.9.1,1.5,3-.1,3.3-1.9-.3-1.3-2.8.1-3.3Z"/>
  <path class="cls-2" d="M97,51.5q.5.5,0,0Z"/>
  <path class="cls-2" d="M23.3,52.5q.4.4,0,0Z"/>
  <path class="cls-5" d="M67,52.4l.9-.4.9.4v.9l-.9.4-.9-.4v-.9Z"/>
  <path class="cls-2" d="M44.1,53.7q.4.4,0,0Z"/>
  <path class="cls-2" d="M75.1,53.7q.4.4,0,0Z"/>
  <path class="cls-2" d="M93.6,53.7q.4.4,0,0Z"/>
  <path class="cls-2" d="M28,54.9q.4.4,0,0Z"/>
  <path class="cls-2" d="M91.3,54.9q.4.4,0,0Z"/>
  <path class="cls-6" d="M57.8,57h4.3v3.3h-4.3v-3.3Z"/>
  <path class="cls-3" d="M38.9,59.6l-.7.7.7-.7Z"/>
  <path class="cls-6" d="M45.6,59.4c3.1,3.3,4.6,9.7,9,11.8-.4,1.8-1.2,3.4-1.8,5.2-3.6-3-6.9-5.4-9.4-9.4-.6-.7-1.2-1.3-1.9-2.1,1.2-2.1.9-2.7-.4-4.6,1.5-1.2,2.7-1.2,4.5-.9h.1Z"/>
  <path class="cls-6" d="M74.1,59.4c1.5-.4,3.1.3,4.6.6-1.8,2.2-1.6,3,.9,4-1.2.9-2.7,1.6-3.4,3-1.2,1.6-2.1,3.6-3.4,5.1-1.6,1.5-3.9,2.5-6,3.4-.4-1.2-.9-2.4-1.2-3.6,1.5-3.3,4.3-5.7,6-9,.7-1.2,1.2-2.8,2.4-3.6h.1Z"/>
  <path class="cls-6" d="M85.3,60.3c-.4.7-.9,1.6-1.2,2.4-.9.3-1.8.4-2.7.7h-.9c0-1-.4-2.2-.9-3.4,1.9,0,3.7,0,5.7.3Z"/>
  <path class="cls-4" d="M38.1,60.3c2.8-.4,7.8-1.9,4.8-.7l-1.8.7c-.7,1.2-.6,1-1.2,2.2,1.2,0-.3.4.9.3.3-.9,0,1.3.1.4l-1,.6.6.9c-1.3,2.7,1.8,2.8.9,0,.7.6,1.3,1.3,1.9,2.1,0,3.4,1.9,5.8.7,9.4-1.6,1-4.8,1.9-6.6.6-1.8-1.2-1.6-3.3-2.4-5.1-1-.6-2.8-.7-3.4-1.8-.6-1.5-.9-3-1.3-4.5-1.3,0-2.5.4-3.9.6.3-1.3.6-2.7.9-4.2,3.3-2.1,6.6-1.2,10.3-1.5h.4Z"/>
  <path class="cls-5" d="M41.1,60.3c1.3,1.8,1.5,2.5.4,4.6h-.9l-.6-1c-.1-1.8.1-3,1.2-3.6h-.1Z"/>
  <path class="cls-1" d="M69.9,60.5l-.4.9.4-.9Z"/>
  <path class="cls-5" d="M78.7,59.9h.7c.4,1.3.7,2.5.9,3.7l-.7.3c-2.5-1-2.7-1.9-.9-4Z"/>
  <path class="cls-4" d="M85.3,60.3c1.2.1,2.4.4,3.7.7-1.8.1-3.4,1.5-1.2,2.7,1.3.3,2.1-.6,2.1-2.4,1.2.4,2.4.7,3.6,1.2v2.2c-1.8,1-2.2,1.6-2.4,3.4-1.3,0-.4-2.7-.6-3.6-2.5.6-1.8,4.6-2.4,6.7-.9,0-1.8,0-2.5-.1-1,1.5-1.8,3.4-2.8,4.9-2.2,2.7-7.2,1.3-7.3-2.4-.6-2.7,2.2-4.5.9-6.9.7-1.3,2.2-2.1,3.4-3l.7-.3h.9c2.7-1,3.7-2.1,3.7-1.2,1.8-.3-.4,1.8-.4,1.8-.6-.7.1-.9-.6-1.6.4-.7.9-1.6,1.2-2.4h0Z"/>
  <path class="cls-3" d="M27.8,61.8c-.3,1.3-.6,2.7-.9,4.2,1.3-.1,2.5-.4,3.9-.6.4,1.5.7,3.1,1.3,4.5.6,1,2.4,1.2,3.4,1.8.7,1.9.6,3.9,2.4,5.1,1.6,1.5,4.8.6,6.6-.6,1.2-3.6-.7-6-.7-9.4,2.5,4,5.8,6.4,9.4,9.4-.7,2.5-2.4,4.3-4.3,6.1-2.2.6-4.6,1.3-6.9,1.6-2.5.3-4.8-2.1-7.3-1-2.1-1.5-1.8-4.9-2.5-7.3-1.5-.4-3-.7-4.5-1.2,1.5,0,2.1-.4,2.1-1.3-.9-.9-1.9-.6-2.8.9-3.9-1.8-4.9-8.4-1-10.8l.6-.4,1.6-1h-.3Z"/>
  <path class="cls-5" d="M30.3,63.6"/>
  <path class="cls-5" d="M88.9,61.1l.9.3c0,1.9-.7,2.7-2.1,2.4-2.2-1.2-.6-2.5,1.2-2.7Z"/>
  <path class="cls-4" d="M26,62.9l-.6.4.6-.4Z"/>
  <path class="cls-2" d="M54.5,62.7l.9-.4.9.4v.9l-.9.4-.9-.4v-.9Z"/>
  <path class="cls-3" d="M93.4,62.6c4.9.9,3.9,9.7,0,11.4-1.8-1-5.7-1.6-5.5,1.3-.4,3.1,0,7.2-3.4,8.8-1.8-.4-3.6-.3-5.4-.3-2.8.3-5.4-3-8.1-1.8-2.1-1.8-3-4.2-4-6.7,1.9-.9,4.3-1.9,6-3.4,1.3-1.5,2.2-3.4,3.4-5.1,1.3,2.4-1.5,4.2-.9,6.9.1,3.7,5.1,5.1,7.3,2.4,1-1.6,1.6-3.4,2.8-4.9.9,0,1.8,0,2.5.1.6-2.1,0-6,2.4-6.7.3.9-.7,3.7.6,3.6,2.2.7,2.5-1.8,2.2-3.4v-2.2h0Z"/>
  <path class="cls-2" d="M60.2,64.4h-.3"/>
  <path class="cls-3" d="M40.7,64.7h.9c.7,2.8-2.2,2.7-.9,0Z"/>
  <path class="cls-1" d="M55.2,65.7l.6.3-.6-.3Z"/>
  <path class="cls-1" d="M58.7,66.5h-.7"/>
  <path class="cls-5" d="M93.3,64.8c.3,1.6,0,4.2-2.2,3.4.3-1.8.7-2.4,2.2-3.4Z"/>
  <path class="cls-1" d="M60.8,66.8h-.6.6Z"/>
  <path class="cls-4" d="M26.6,67.5h.9l.4.9-.4.9h-.9l-.4-.9.4-.9Z"/>
  <path class="cls-4" d="M29,69.9c1.6-1,3.1,1.8.9,2.1-1.2-.4-1.5-1-.9-2.1Z"/>
  <path class="cls-4" d="M90.1,69.9q.4.4,0,0Z"/>
  <path class="cls-3" d="M59,71.1l1.3-.4c1.3,7,3.4,13.5,3,20.8-.3,3.7-.1,9-3,11.8-2.1,2.5-7.2,3.1-8.7-.3,4.2-1.3,7-5.1,8.7-8.8.7-3.1,2.1-7,.6-10.2-.7,0-1.3.6-1.9,1.6-.4-4.8-.6-9.6,0-14.4h0Z"/>
  <path class="cls-6" d="M29.4,73.2c0,.9-.7,1.3-2.1,1.3l-.7-.4c1-1.5,1.9-1.8,2.8-.9Z"/>
  <path class="cls-6" d="M93.4,74c-1.6,1.3-3.4,1.6-5.5,1.3,0-3,3.7-2.5,5.5-1.3Z"/>
  <path class="cls-6" d="M79,84c1.8,0,3.6,0,5.4.3-4.6,2.8-10,2.1-13.5-2.1,2.8-1.2,5.2,2.1,8.1,1.8Z"/>
  <path class="cls-6" d="M41.7,84.1c2.4-.3,4.6-1.2,6.9-1.6-3.3,4.6-10.5,4.8-14.2.6,2.5-1.2,4.8,1.3,7.3,1Z"/>
  <path class="cls-4" d="M60.9,83.8c1.5,3.1,0,7-.6,10.2-1.8,3.9-4.6,7.5-8.7,8.8.4-2.5,2.7-4.3,4-6.4,2.2-3.4,4.3-6.6,3.3-10.9.6-1,1.2-1.6,1.9-1.6Z"/>
  <path class="cls-4" d="M14.9,85.3c1.8,2.1,2.2,4.8,3.7,7,1.3,1,3.1,1.8,4.8,2.5-2.7,1.3-5.7,3-8.7,3.1-2.8-.4-5.5-2.1-8.1-3.3,1.5-.7,3.3-1.3,4.8-2.4,1.5-2.2,1.8-4.9,3.7-7h-.3Z"/>
  <path class="cls-5" d="M15.1,90.6c1.5,0,1.5,3.1,1.8,4.2-1.6.6-2.7,1.6-3.9,0,.3-1.6,1.2-3,2.1-4.2Z"/>
  <path class="cls-4" d="M103.7,90.1c1.6,1.9,5.1,4.5,5.5,6.9-1.8,2.1-3.6,4-5.5,6-.9-1.3-1.5-3.1-2.8-4-.6-.7-2.7-1.5-2.5-2.5,2.5-1.8,3.9-3.4,5.4-6.1h0Z"/>
  <path class="cls-5" d="M103.7,94c.9-.1,1.5.1,1.8,1,.3,1.9-2.5,3.1-3.1,1,0-1,.4-1.6,1.3-2.1Z"/>
  <path class="cls-1" d="M6.5,94.8c2.5,1.2,5.2,2.8,8.1,3.3,3-.1,6.1-1.9,8.7-3.1.7.3,1.3.6,1.8,1.2-1.3,1.8-4.8,2.1-6.6,3.6-1.5,2.2-1.9,4.9-3.6,7-1.5-1.9-2.1-4.2-3.1-6.3-1.2-2.5-6.1-1.8-7-4.2.3-.6,1-1,1.8-1.3h0Z"/>
  <path class="cls-5" d="M60.3,97.6q.2.2,0,0Z"/>
  <path class="cls-4" d="M26.3,103.2c.6,2.4-1.5,3.9-2.7,5.8-1-.4-2.1-.9-3-1.3,1.2-1.2,3.7-5.2,5.7-4.5Z"/>
  <path class="cls-4" d="M95.4,103.5c1.3,1.2,2.5,2.7,3.7,4-.7.4-1.5.7-2.4,1.2-.4-.7-.9-3.1-2.1-2.8-.6.9-1.2,1.9-1.6,3-.9-.3-1.6-.7-2.5-1,1.2-1.2,3-4,4.6-4.3h.3Z"/>
  <path class="cls-5" d="M94.8,105.9c1-.3,1.6,2.2,2.1,2.8-1.3.7-2.1.9-3.6,0,.4-1,.9-2.1,1.6-3h-.1Z"/>
  <path class="cls-1" d="M28,106.8c.9.3,1.3.9,1.8,1.8-1.5,1.9-3.1,3.9-4.6,5.8-1.8-1.9-3.6-3.9-5.2-5.8l.7-1c1,.4,2.1.9,3,1.3l1.5.4c.9-.9,1.8-1.8,2.8-2.7h0Z"/>
  <path class="cls-1" d="M90.7,107.8c.9.4,1.6.7,2.5,1,1.5.7,2.2.7,3.6,0,.7-.4,1.5-.7,2.4-1.2l.9,1c-1.8,1.9-3.6,3.9-5.4,5.8-1.5-1.9-3-3.9-4.5-5.7l.6-1h-.1Z"/>
  <path class="cls-2" d="M76.8,66.5c1.3-7.4-5.2-10.5-5.2-10.5,2.4-3.1,3-6.3,2.4-9.2-1.1-6.1-6.6-10.3-12.9-10.3s-9.8,1.8-12.4,5.5c-5.9,8.1.4,12.7.4,12.7,0,0-5,1.5-4.4,11.5s7,10.9,16.4,10.9,3.7-.4,5.4-.7c5.9-1.7,9.4-3.7,10.5-10l-.2.2Z"/>
  <path class="cls-5" d="M66,56.3c-.4.2-.7.4-.7.4,3.5,2,6.8,3,6.1,8.7-.7,5.7-3.7,6.1-6.8,7.6-3.1-1.3-4.4-1.5-7.6,0,0,0-6.3,0-8.3-6.1-2-6.1-.4-6.1.6-7.6,1.8-3,5.2-3,5.2-3,0,0-5.2-2.6-3.5-8.1s2.4-4.2,4.4-5.5,4.1-2,7-1.7c8.1.7,10.9,11.6,3.7,15.7v-.4Z"/>
  <path class="cls-2" d="M56.6,47.6c.4-.7,1.1-1.5,2-1.8,4.1-2,6.1.4,6.6,2.2.4,3.9-1.5,5.5-3.7,6.1-3.9.7-6.6-3-5-6.5,1.7-3.5,0,0,0,0Z"/>
  <path class="cls-1" d="M65.1,60.5c2.2,2.4,2.6,5.7-1.7,7.6s-4.8.9-7,0c-4.1-1.8-3.7-5.2-1.7-7.4s7.6-3,10.3,0v-.2Z"/>
  <path class="cls-4" d="M57,72.9c3-3,5.7-2.4,7.6,0-4.6,1.1-7.6,0-7.6,0Z"/>
</svg>